<?xml version="1.0" encoding="utf-8"?>
<!-- Generator: Adobe Illustrator 16.0.0, SVG Export Plug-In . SVG Version: 6.00 Build 0)  -->
<!DOCTYPE svg PUBLIC "-//W3C//DTD SVG 1.1//EN" "http://www.w3.org/Graphics/SVG/1.1/DTD/svg11.dtd">
<svg version="1.1" id="Layer_1" xmlns="http://www.w3.org/2000/svg" xmlns:xlink="http://www.w3.org/1999/xlink" x="0px" y="0px"
	 width="800px" height="600px" viewBox="0 0 800 600" enable-background="new 0 0 800 600" xml:space="preserve">
<polygon fill="#FFFFFF" points="53.231,34.385 770.623,34.385 770.623,555.014 53.231,555.014 53.231,34.385 "/>
<path fill="#014D2F" stroke="#FFFFFF" stroke-miterlimit="10" d="M147.936,248.864l-4.974,84.888L619.937,439.88
	c0,0,24.667-50.507,22.701-85.841C640.675,318.703,147.936,248.864,147.936,248.864z"/>
<path fill="#014D2F" d="M130.393,291.976c0,0-7.766,46.319-3.247,51.483s34.213-2.582,34.213-2.582l-9.038-47.77L130.393,291.976z"
	/>
<path fill="#014D2F" d="M222.723,69.489c0.874-0.121,1.754-0.241,2.635-0.368c5.451,0.407,10.659,2.242,15.785,4.047
	c11.604,4.364,22.771,9.851,33.632,15.872c9.103,5.162,18.065,10.672,26.212,17.329c3.62,3.125,7.445,6.372,9.533,10.837
	c0.604,0.987,0.19,2.126,0.046,3.188c13.714-4.553,27.848-7.631,42.005-10.283c6.92-0.956,13.924-1.172,20.9-1.222
	c3.058,0.05,6.139-0.119,9.168,0.426c-0.062-0.413-0.092-0.828-0.098-1.24l0.281,1.1c15.068,0.763,30.162,3.097,44.462,8.037
	c16.953,5.845,33.023,15.726,44.055,30.36c8.086-1.948,16.494-1.695,24.652-0.507c8.184,1.539,16.398,3.296,24.137,6.476
	c18.596,7.858,33.75,22.985,43.373,40.932c7.061,13.278,10.928,28.543,9.803,43.756c18.832,9.94,34.547,25.427,46.17,43.457
	c9.678,15.02,16.803,31.855,20.344,49.544c1.318,6.53,1.928,13.191,2.031,19.861c4.912,3.78-517.849-58.602-511.457-59.117
	c0.424-4.066,0.93-8.141,1.877-12.117c3.666-13.006,11.145-24.765,20.771-34c1.562-1.52,3.302-2.827,5.053-4.1
	c-7.236,0.064-14.438-0.67-21.646-1.222c7.225-13.426,17.303-25.071,28.678-34.965c8.59-7.547,17.93-14.176,27.689-20.001
	c-0.924-7.571-1.508-15.197-1.219-22.837c0.885-15.105,3.867-30.071,8.781-44.368C206.142,101.352,213.749,84.986,222.723,69.489
	L222.723,69.489z"/>
<path fill="#FDB223" d="M210.368,123.208c4.578-14.732,10.275-29.3,18.854-42.199c6.271,1.909,12.291,4.523,18.306,7.094
	c10.961,4.786,21.773,9.935,32.231,15.743c5.158,2.923,10.268,5.981,14.898,9.702c1.858,1.61,3.858,3.27,4.869,5.584
	c0.902,1.886-0.375,3.791-1.036,5.526c-4.795,10.078-10.579,19.675-15.091,29.89c-1.089-0.253-2.171-0.505-3.229-0.834
	c-12.985-4.371-25.928-8.909-38.554-14.243C230.815,134.874,219.956,130.064,210.368,123.208L210.368,123.208z"/>
<path fill="#BEBFC1" d="M300.899,138.35c27.982-10.207,57.639-17.311,87.597-16.253c18.61,0.703,37.311,5.162,53.502,14.552
	c9.357,5.468,17.822,12.473,24.812,20.764c3.24,3.883,6.215,7.988,9.035,12.19c-4.08-4.688-8.982-8.538-13.889-12.314
	c-9.078-7.2-19.977-11.725-30.898-15.34c-24.926-7.755-51.714-9.214-77.409-4.758c-22.469,3.816-44.02,12.303-63.444,24.156
	C293.429,153.528,297.141,145.924,300.899,138.35L300.899,138.35z"/>
<path fill="#B57C37" d="M353.65,137.191c25.694-4.456,52.483-2.997,77.409,4.758c10.922,3.615,21.82,8.14,30.898,15.34
	c-12.967-3.912-26.518-6.528-40.113-5.642c-11.984,0.638-23.869,4.039-34.152,10.267c-15.021,9.03-26.434,23.461-32.876,39.66
	c-3.378,6.823-4.958,14.44-4.956,22.032c0.066,4.721,0.964,9.364,1.693,14.014c-8.682-4.901-13.538-14.208-16.555-23.352
	c-1.055-3.171-1.82-6.422-2.447-9.702c-2.047-0.093-4.031,0.444-5.879,1.284c-10.219,4.393-19.482,10.643-29.019,16.275
	c-0.402-9.682,3.587-18.956,9.295-26.59c8.101-10.843,18.741-19.556,30.102-26.804c-22.851,3.135-44.345,15.101-59.262,32.663
	c2.256-13.847,7.044-27.138,12.417-40.048C309.63,149.494,331.181,141.007,353.65,137.191L353.65,137.191z"/>
<path fill="#B57C37" d="M478.508,158.927c5.707,1.203,11.486,2.113,17.098,3.741c12.83,3.548,25.389,9.168,35.348,18.166
	c7.209,6.439,12.748,14.755,15.777,23.943c3.467,10.321,3.877,21.435,2.6,32.176c7.586,5.159,14.541,11.188,21.1,17.588
	c8.766,8.601,16.824,17.931,23.879,27.989c9.273,13.412,17.117,28.282,19.883,44.508c1.977,11.259,0.783,23.141-4.105,33.533
	c-9.951-8.701-22.037-15.331-35.26-17.187c-3.742-2.945-7.301-6.211-11.369-8.758c-6.791-4.563-14.365-7.847-22.242-10.023
	c9.156-7.411,17.062-17.01,20.43-28.466c2.877-9.173,2.021-19.194-1.113-28.181c-4.047-11.362-11.117-21.422-19.248-30.238
	c0.418-0.227,1.258-0.68,1.678-0.906c2.658-5.354,3.17-12.149,0.32-17.532c-1.766-3.25-5.33-4.47-8.627-5.529
	c1.465-2.835,2.461-5.98,2.197-9.205c-0.549-9.732-7.881-18.847-17.453-21.057c-7.182-1.737-14.432,1.099-20.383,4.989
	c-4.078-4.33-7.646-9.103-11.232-13.84c-2.453-3.405-4.967-6.813-6.715-10.646C480.266,162.274,479.41,160.585,478.508,158.927
	L478.508,158.927z"/>
<path fill="#014D2F" d="M122.319,341.08c0,0-51,94.049-2,211.356c0,0,131-11.124,132-49.553s0-27.304,0-27.304s92-20.226,232-1.012
	c0,0,20,68.767,77,72.812s89-37.417,80-73.823c-9-36.405-26-43.484-26-43.484l14-50.563l-475-58.654L122.319,341.08z"/>
<path fill="#FEFEFE" d="M405.318,167.972c11.213-5.041,23.885-7.373,36.088-5.285c7.824,0.788,15.332,3.482,22.285,7.081
	c10.414,5.415,19.023,13.513,28.123,20.784c1.676,1.141,2.977,3.143,5.016,3.557c4.916-2.68,10.025-5.739,15.826-5.671
	c5.457-0.218,10.223,3.367,13.098,7.76c2.092,2.252,2.555,5.467,2.029,8.411c-1.08,3.313-2.811,6.333-4.607,9.295
	c-0.877,1.231,0.684,2.079,1.518,2.71c3.828,2.316,8.381,3.528,11.662,6.708c1.219,1.097,1.562,2.735,1.852,4.279
	c-1.146,3.939-4.402,6.566-7.479,9.003c0.01,0.187,0.039,0.572,0.051,0.765c4.898,4.818,10.121,9.316,14.947,14.216
	c3.902,4.99,8.148,10.86,7.398,17.548c-6.889-13.236-18.984-22.444-29.836-32.242c3.025-1.974,6.383-3.99,8.043-7.347
	c0.984-2.111,0.402-4.633-1.354-6.136c-5.148-4.771-12.486-5.623-18.369-9.119c3.975-2.062,8.328-4.688,9.535-9.333
	c0.957-2.688-0.992-5.075-2.488-7.098c-2.109-2.803-5.41-5.146-9.092-4.593c-4.324,0.632-7.197,4.207-10.578,6.571
	c-2.143,0.01-3.846-1.782-5.654-2.762c-4.445-3.14-9.586-5.431-13.24-9.568c-8.891-9.074-20.264-15.853-32.707-18.633
	c-23.451-5.186-48.228,3.182-66.478,18.087C387.051,178.484,395.912,172.333,405.318,167.972L405.318,167.972z"/>
<path fill="#FEFEFE" d="M216.347,134.734c21.115,9.426,43.009,16.94,64.892,24.348c-3.619,6.427-5.596,13.596-7.533,20.664
	c-2.746,10.431-4.83,21.02-6.562,31.656c-2.728-1.117-5.536-2.049-8.1-3.514c-11.291-6.299-22.794-12.27-33.596-19.402
	c-3.71-2.467-7.235-5.198-10.534-8.188c13.576,4.785,26.781,10.567,40.397,15.233c0.082-4.854,0.056-9.742,0.968-14.533
	c-3.405-0.803-6.671-2.093-9.936-3.345c-12.572-5.136-24.621-12.166-34.01-22.109c9.092,3.292,17.827,7.484,26.814,11.046
	c5.697,2.275,11.665,3.741,17.62,5.163c0.176-0.975,0.351-1.951,0.522-2.926l0.305-0.341c0.418-2.484,0.963-4.938,1.477-7.403
	C243.125,155.606,228.508,146.375,216.347,134.734L216.347,134.734z"/>
<path fill="#B57C37" d="M380.907,186.959c18.25-14.905,43.027-23.272,66.478-18.087c12.443,2.78,23.816,9.559,32.707,18.633
	c3.654,4.137,8.795,6.428,13.24,9.568c1.809,0.98,3.512,2.772,5.654,2.762c3.381-2.364,6.254-5.938,10.578-6.571
	c3.682-0.553,6.982,1.79,9.092,4.593c1.496,2.023,3.445,4.41,2.488,7.098c-1.207,4.646-5.561,7.272-9.535,9.333
	c5.883,3.496,13.221,4.348,18.369,9.119c1.756,1.503,2.338,4.025,1.354,6.136c-1.66,3.356-5.018,5.373-8.043,7.347
	c10.852,9.798,22.947,19.006,29.836,32.242c0.568,1.211,1.051,2.461,1.574,3.704c-5.982-8.16-15.596-12.509-25.012-15.376
	c-8.629-2.563-17.496-4.338-26.455-5.208c-6.463-0.466-13.105-0.453-19.328,1.58c-9.492-8.372-18.836-17.015-29.412-24.036
	c-6.393-4.09-13.285-8.007-20.977-8.814c-4.225-0.496-8.695,0.487-12.066,3.148c-4.311,3.36-6.768,8.483-8.434,13.572
	c-2.977,9.494-3.674,19.5-3.869,29.39c0.607,8.544,1.982,17.155,5.34,25.093c2.701,6.658,6.799,12.717,11.85,17.821
	c-3.223-0.79-6.711-0.938-9.588-2.73c-9.527-5.343-18.052-12.623-24.363-21.573c-7.078-10.153-11.533-22.181-12.554-34.519
	c1.145-9.989,3.706-20.013,9.024-28.638c5.725-9.47,14.763-17.058,25.404-20.339c1.002-3.73,1.656-7.538,2.586-11.285
	c-2.93,0.772-5.805,1.726-8.637,2.789c-20.53,3.476-37.513,20.491-42.306,40.56c-1.324,4.753-1.586,9.7-1.742,14.606
	c-1.333-1.439-3.29-2.601-3.707-4.661c-2.067-8.318-0.618-17.056,1.879-25.116c2.537-8.121,6.212-15.854,10.601-23.132
	C374.825,192.354,377.806,189.534,380.907,186.959L380.907,186.959z"/>
<path fill="#014D2F" d="M422.949,184.687c9.732-11.015,28.1-13.096,39.924-4.245c4.346,3.237,7.24,8.467,7.18,13.941
	c-0.146,3.015-0.344,6.416-2.76,8.573c1.363-7.283-1.682-14.956-6.902-20.04c-3.342-3.317-8.254-4.521-12.836-3.876
	c-6.174,0.861-12.578,3.418-16.404,8.546c-1.543,1.911-1.771,4.415-1.828,6.775c-0.236,2.04-1.203,3.98-1.037,6.075
	c0.227,5.575,3.625,10.466,7.711,14.025c-4.482,0.623-9.719,0.434-13.107-2.981c-3.166-3.237-3.875-8.04-3.875-12.387
	C419.199,194.111,419.361,188.564,422.949,184.687L422.949,184.687z"/>
<path fill="#FEFEFE" d="M447.555,179.04c4.582-0.646,9.494,0.559,12.836,3.876c5.221,5.083,8.266,12.757,6.902,20.04
	c-0.428,2.187-1.779,4.019-2.791,5.965c0.52-2.778,1.27-5.661,0.545-8.479c-1.188-5.108-3.975-9.989-8.227-13.14
	c-4.66-3.458-10.979-3.746-16.441-2.406c-4.938,1.202-8.906,4.942-11.057,9.465c0.057-2.36,0.285-4.864,1.828-6.775
	C434.977,182.458,441.381,179.901,447.555,179.04L447.555,179.04z"/>
<path fill="#014D2F" d="M446.193,191.25c3.125-0.08,6.357,0.502,9.039,2.187c2.557,1.643,3.547,4.973,2.863,7.858
	c-0.621,5.472-6.141,9.006-11.203,9.679c1.217-2.504,3.592-5.511,1.91-8.324c-2.742-2.822-6.037-5.065-8.975-7.686
	c3.031,0.339,6.051,0.769,9.078,1.175C448,194.506,447.086,192.883,446.193,191.25L446.193,191.25z"/>
<path fill="#BEBFC1" d="M408.209,193.712c2.832-1.063,5.707-2.017,8.637-2.789c-0.93,3.747-1.584,7.555-2.586,11.285
	c-10.641,3.281-19.679,10.869-25.404,20.339c-5.318,8.625-7.88,18.649-9.024,28.638c-1.874-12.324-0.7-25.417,5.054-36.61
	C389.718,204.996,398.395,197.802,408.209,193.712L408.209,193.712z"/>
<path fill="#FEFEFE" d="M476.27,200.638c3.865-1.446,8.137,0.381,10.83,3.258c2.861,2.61,4.031,6.383,5.668,9.77
	c2.834,5.77,4.791,11.914,7.455,17.759c1.625,3.866,3.678,7.532,5.293,11.402c-7.27-8.076-12.598-17.732-16.781-27.712
	c-2.012-4.381-5.404-9.043-10.58-9.581c-5.443-0.285-9.855,3.492-13.693,6.861C467.475,207.742,470.828,202.629,476.27,200.638
	L476.27,200.638z"/>
<path fill="#014D2F" d="M462.752,217.101c4.227-3.538,9.824-4.749,15.143-5.536c2.256,4.853,4.471,9.786,7.654,14.117
	c5.008,6.695,10.557,12.97,15.428,19.764c-9.83-1.401-20.121-2.692-28.748-8.005c-4.389-2.633-8.867-5.704-11.385-10.302
	C458.99,223.903,459.814,219.426,462.752,217.101L462.752,217.101z"/>
<path fill="#FDB223" d="M204.071,181.894c3.454,3.535,7.482,6.427,11.636,9.071c17.247,10.835,35.87,19.23,54.321,27.744
	c1.383,4.018,2.656,8.113,4.83,11.813c-6.915,1.55-13.741,3.716-20.012,7.056c-9.574-5.775-18.771-12.369-26.475-20.517
	c-4.572-5.001-8.904-10.642-10.477-17.356c-0.188-0.014-0.561-0.045-0.75-0.065l0.687,0.445
	c-0.325,8.541,4.735,16.124,10.376,22.079c6.618,6.871,14.412,12.588,22.76,17.185c-0.934,1.236-2.182,2.201-3.594,2.829
	c-5.824-3.328-11.356-7.171-16.893-10.953c-4.375-3.186-9.016-6.297-12.109-10.838C210.176,209.157,205.757,195.592,204.071,181.894
	L204.071,181.894z"/>
<path fill="#FEFEFE" d="M473.123,227.388c0.803-2.851,3.053-5.153,6.004-5.713c2.305,1.955,3.09,5.016,4.77,7.446
	c2.627,4.577,6.576,8.136,10.053,12.039c-4.688-1.527-9.219-3.495-13.828-5.232C476.492,234.625,472.939,231.557,473.123,227.388
	L473.123,227.388z"/>
<path fill="#BEBFC1" d="M424.773,229.258c1.693-1.262,3.457-2.705,5.629-2.982c5.148-0.268,9.969,1.931,14.426,4.252
	c14.959,8.346,27.924,19.733,40.564,31.173c3.26-1.529,6.635-2.938,10.229-3.436c3.076-0.574,6.205-0.265,9.309-0.188
	c0.533,5.136,3.566,9.583,6.998,13.269c4.26,4.546,9.053,8.658,14.398,11.885c-0.625,4.089-2.195,8.008-4.688,11.325
	c-2.385,3.104-4.611,6.648-8.303,8.336c-2.713,1.277-5.67,2.293-8.693,2.35c-8.703-1.673-17.609-4.464-24.369-10.442
	c-4.387-3.879-7.289-9.639-6.834-15.578c0.246-4.777,2.82-8.978,5.689-12.645c-8.1-9.545-17.168-18.397-27.719-25.206
	c-4.789-2.965-9.846-5.948-15.533-6.661c-4.93-0.659-9.584,2.574-12.199,6.522c-4.197,12.021-4.678,25.561-0.217,37.589
	c2.576,6.937,6.609,13.364,11.945,18.519c7.166,0.366,14.432-0.359,21.525,1.076c3.99,1,7.656,3.103,11.75,3.747
	c2.031,0.338,4.09-0.048,6.088-0.417c0.143-2.355-0.959-4.46-2.111-6.412c3.291,2.416,6.791,4.754,9.234,8.09
	c1.467,1.902,0.365,4.873-1.738,5.795c-2.547,1.127-5.453,0.774-8.107,0.29c-4.445-0.735-8.559-3.09-13.143-2.925
	c-6.053,0.095-12.625,1.395-17.027,5.87c-9.16-1.98-16.805-8.69-20.898-17c-5.568-11.218-6.498-24.135-5.605-36.446
	c0.357-6.118,1.525-12.151,3-18.087C419.646,236.682,421.178,232.111,424.773,229.258L424.773,229.258z"/>
<path fill="#BEBFC1" d="M157.504,228.483c11.092-12.39,24.68-22.275,38.985-30.638c0.845,2.354,1.716,4.699,2.651,7.021
	c-8.713,5.702-17.301,11.791-24.402,19.47c7.558-0.747,15.191-1.15,22.764-0.322c4.646,0.436,9.236,1.277,13.812,2.146
	c0.523,0.682,1.042,1.362,1.558,2.049c-15.306,5.162-30.346,13.117-40.541,25.98c-7.031,8.842-11.095,19.975-11.617,31.239
	c-0.25,1.292,1.201,1.687,2.05,2.247c7.499,3.759,16.204,3.551,24.3,2.378c0.363,4.402-1.514,8.538-4.271,11.862
	c13.438,1.714,26.953-0.251,40.205-2.46c-0.967,4.37-2.977,8.494-5.806,11.963c-20.016,1.973-40.06,3.973-59.917,7.231
	c-1.662,0.292-3.332,0.515-5.021,0.593c7.6-5.169,14.178-11.81,19.312-19.436c-7.667,1.459-15.288,3.302-23.08,4.004
	c-2.013-9.814-3.116-20.227-0.167-29.976c3.506-9.797,8.18-19.348,15.059-27.243c6.059-6.988,13.841-12.558,22.581-15.647
	C176.516,229.71,166.999,229.185,157.504,228.483L157.504,228.483z"/>
<path fill="#B57C37" d="M174.739,224.336c7.102-7.679,15.689-13.768,24.402-19.47c3.151,7.571,7.352,14.674,12.173,21.294
	c-4.575-0.87-9.165-1.711-13.812-2.146C189.93,223.187,182.296,223.59,174.739,224.336L174.739,224.336z"/>
<path fill="#DD3236" d="M426.248,243.871c0.543-2.67,3.248-4.38,5.875-4.337c4.381,0.035,8.4,2.088,12.242,3.992
	c8.779,4.729,16.764,10.806,24.377,17.221c-10.096-5.032-20.016-10.54-30.701-14.258c-2.215-0.758-4.736-0.731-6.791,0.462
	c-3.744,2.093-5.877,6.107-7.248,10.015C424.715,252.599,425.463,248.229,426.248,243.871L426.248,243.871z"/>
<path fill="#FEFEFE" d="M514.844,260.181c10.602,0.038,20.738,3.763,30.377,7.844c-5.051,2.765-10.604,4.495-15.766,7.036
	c-0.104-2.457,0.021-5.406-2.104-7.102C523.287,265.209,518.885,262.976,514.844,260.181L514.844,260.181z"/>
<path fill="#FEFEFE" d="M294.047,244.435c11.395-4.732,23.561-7.3,35.715-9.197c-3.802,9.757-8.748,19.357-16.244,26.804
	c-5.416,5.441-13.251,9.222-21.051,7.672c-4.062-0.56-7.111-3.621-9.619-6.621c-2.264-2.713-2.992-6.784-1.049-9.874
	C284.609,248.854,289.477,246.52,294.047,244.435L294.047,244.435z"/>
<path fill="#FEFEFE" d="M427.371,258.801c0.697-3.396,3.322-5.771,5.352-8.393c12.58,1.578,24.59,7.444,33.84,16.104
	c-0.01,0.159-0.027,0.471-0.031,0.631c-4.098,0.885-8.17,2.575-11.074,5.694c-1.072-3-2.023-6.06-2.467-9.229
	c-4.182,2.884-7.805,6.905-8.859,12.016c-2.557-4.782-5.207-9.769-5.232-15.334c-3.623,4.008-7.234,8.253-8.777,13.556
	C427.566,269.33,425.861,263.96,427.371,258.801L427.371,258.801z"/>
<path fill="#B57C37" d="M256.549,243.552c13.499-6.333,28.801-9.7,43.68-7.508c-7.121,2.613-13.961,6.282-19.625,11.382
	c-2.565,2.438-4.972,5.483-5.297,9.14c-0.493,3.393,1.238,6.663,3.451,9.11c3.475,3.792,7.965,6.463,12.508,8.783
	c3.361,1.759,7.283,1.942,10.984,1.479c0.924,4.498,2.868,8.969,6.462,11.968c4.604,4.012,11.04,5.068,16.951,4.412
	c6.029-0.258,11.026-3.981,16.434-6.192c2.714,2.763,5.657,5.605,9.554,6.519c4.219,1.173,8.613-0.713,11.665-3.604
	c3.358-2.879,5.226-6.992,7.091-10.899c0.059,4.861-0.061,10.081-2.873,14.255c-3.284,4.912-8.692,7.721-13.663,10.616
	c-5.012,3.011-10.791,5.195-16.724,4.783c-7.752-0.402-15.521-0.19-23.264-0.566c-13.37-1.864-26.461-5.633-38.891-10.872
	c-12.16-5.344-24.33-12.028-32.715-22.6c0.166-0.853,0.33-1.7,0.501-2.546c-6.673-5.3-13.032-11.309-17.243-18.796
	c-2.953-5.07-3.883-11.74-0.586-16.885c2.578,4.168,6.67,6.989,10.605,9.757c4.008,2.675,8.051,5.316,12.299,7.584
	c0.441-1.785,0.771-3.615,1.461-5.327C251.493,245.854,254.112,244.83,256.549,243.552L256.549,243.552z"/>
<path fill="#BEBFC1" d="M298.979,246.629c7.498-3.573,15.596-5.745,23.703-7.404c-10.29,8.355-20.606,16.682-30.896,25.036
	c-2.4-2.213-4.037-5.588-2.786-8.847C290.665,251.066,295.073,248.681,298.979,246.629L298.979,246.629z"/>
<path fill="#FEFEFE" d="M342.463,244.541c0.929-0.613,1.943-1.049,2.982-1.431c-0.512,10.865-1.133,22.041-5.473,32.168
	c-2.111,4.948-5.486,9.755-10.561,11.969c-4.447,1.997-9.656,1.521-14.097-0.236c-3.819-1.477-6.714-5.632-5.892-9.801
	c0.884-5.319,4.603-9.579,8.157-13.394C324.958,256.298,333.652,250.236,342.463,244.541L342.463,244.541z"/>
<path fill="#FEFEFE" d="M354.639,246.785c5.004,6.96,9.601,14.505,11.572,22.939c1.287,5.541,0.393,12.295-4.447,15.904
	c-2.705,1.932-6.162,3.768-9.563,2.7c-2.923-0.682-5.406-2.914-6.343-5.767c-1.507-4.337-0.662-9.001,0.152-13.387
	C347.85,261.365,350.981,253.91,354.639,246.785L354.639,246.785z"/>
<path fill="#B57C37" d="M172.331,254.19c10.195-12.864,25.235-20.818,40.541-25.98c2.138,2.74,4.434,5.354,6.723,7.971
	c-2.449,7.887-1.621,16.93,3.034,23.867c1.663,2.909,4.413,4.949,6.307,7.667c6.717,12.133,17.132,21.876,28.839,29.146
	c7.061,4.446,14.698,7.86,22.422,10.965c-21.035,0.41-42.035,1.953-63.005,3.594c2.829-3.47,4.839-7.594,5.806-11.963
	c-13.252,2.209-26.768,4.174-40.205,2.46c2.758-3.325,4.635-7.46,4.271-11.862c-8.096,1.173-16.801,1.38-24.3-2.378
	c-0.849-0.56-2.3-0.955-2.05-2.247C161.236,274.165,165.299,263.032,172.331,254.19L172.331,254.19z"/>
<path fill="#BEBFC1" d="M547.781,273.721c2.801,2.583,4.99,6.106,4.875,10.038c-0.119,5.349-3.479,10.004-7.23,13.551
	c-7.574,6.844-18.01,11.114-28.309,9.699c4.918-2.234,9.271-5.892,11.666-10.801c2.352-4.311,2.865-9.268,3.17-14.079
	C537.756,281.001,545.367,280.046,547.781,273.721L547.781,273.721z"/>
<path fill="#BEBFC1" d="M320.968,267.564c6.183-6.903,13.309-12.951,20.823-18.36c-7.121,11.71-14.418,23.315-21.533,35.026
	c-2.529-0.444-5.439-2.08-5.395-4.997C314.998,274.639,318.178,270.934,320.968,267.564L320.968,267.564z"/>
<path fill="#BEBFC1" d="M348.596,276.348c0.303-8.014,3.039-15.646,5.968-23.023c0.742,10.437,1.509,20.883,1.811,31.347
	c-1.697,0.009-3.567,0.155-4.989-0.957C349.129,282.032,348.614,278.989,348.596,276.348L348.596,276.348z"/>
<path fill="#014E2F" d="M487.777,272.85c2.338-0.416,4.176,2.215,3.217,4.324c-0.592,2.441-4.346,2.738-5.406,0.528
	C484.721,275.917,485.584,273.106,487.777,272.85L487.777,272.85z"/>
<path fill="#014E2F" d="M488.67,283.098c0.074-2.451,3.578-3.904,5.141-1.829c1.982,2.145,0.057,5.602-2.715,5.705
	C489.732,286.153,488.215,284.898,488.67,283.098L488.67,283.098z"/>
<path fill="#014E2F" d="M482.137,281.887c2.672-0.475,4.393,2.936,2.877,5.004c-0.965,1.651-3.596,1.903-4.73,0.318
	C478.715,285.46,479.779,282.22,482.137,281.887L482.137,281.887z"/>
<path fill="#DD3336" d="M442.283,278.322c7.334,0.407,14.539,2.56,20.953,6.134c1.471,0.7,1.287,2.642,1.352,4.026
	c0.098,2.129-1.805,3.738-3.814,3.872c-7.176,0.657-14.299-2.336-21.455-0.869c-1.324,0.258-2.846,0.531-3.859-0.6
	c-2.982-2.774-4.729-6.984-4.346-11.07c7.393,1.698,14.656,3.933,22.059,5.589C449.572,282.996,445.939,280.633,442.283,278.322
	L442.283,278.322z"/>
<path fill="#FDB223" d="M372.164,291.561c14.295,7.612,28.6,15.2,42.957,22.676c-7.668-0.559-15.299-1.523-22.974-1.969
	c-3.814-0.143-7.656-0.154-11.423-0.758c-4.995-2.225-9.759-4.985-14.763-7.198C368.399,300.27,370.768,296.146,372.164,291.561
	L372.164,291.561z"/>
<path fill="#FDB223" d="M421.881,330.72c2.057-3.377,4.189-6.713,6.35-10.021c13.172,7.246,26.35,14.499,39.688,21.44
	c-1.33,3.654-2.377,7.391-3.363,11.148C450.285,345.849,436.15,338.157,421.881,330.72L421.881,330.72z"/>
<path fill="#FDB223" d="M419.938,333.625c14.727,7.796,29.336,15.812,44.004,23.724c-0.141,1.479-0.281,2.965-0.436,4.449
	c-15.332-8.008-30.506-16.311-45.812-24.377C418.424,336.145,419.176,334.878,419.938,333.625L419.938,333.625z"/>
<path fill="#BEBFC1" d="M484.229,344.589c3.168-1.529,6.58,0.051,9.443,1.527c-5.756,8.578-12.73,16.5-16.754,26.123
	c-1.475-5.431-0.725-11.212,0.443-16.627C478.451,351.425,480.031,346.614,484.229,344.589L484.229,344.589z"/>
<path fill="#BEBFC1" d="M514.273,362.798c4-1.102,7.607,1.561,10.309,4.186c-9.027,6.607-18.51,12.742-26.396,20.758
	c0.391-5.188,2.674-9.984,5.1-14.494C505.842,368.883,509.152,364.222,514.273,362.798L514.273,362.798z"/>
<path fill="#FFFFFF" stroke="#042315" stroke-width="6" d="M476.145,343.192"/>
<path fill="#B57C37" d="M516.9,325.456c8.121,0.914,16.32,1.934,24.035,4.772c17.729,6.546,33.275,19.629,41.604,36.724
	c3.723,7.217,4.834,15.896,2.455,23.721c-1.934,6.1-7.086,10.721-12.951,12.999c-7.908,3.142-16.59,3.358-24.984,2.956
	c2.996-2.436,5.865-5.295,7.162-9.021c1.502-3.787,0.246-8.15-2.234-11.22c-3.789-4.821-9.303-7.861-14.705-10.533
	c1.102-5.954-0.125-12.851-4.969-16.902c-6.15-5.19-14.766-5.415-22.418-5.248c-1.365-5.958-4.283-11.975-9.559-15.395
	c-3.734-2.507-8.445-3.153-12.828-2.45c-3.893,0.513-7.521,2.066-11.115,3.551c4.465-6.158,11.451-9.998,18.656-12.045
	C502.131,325.356,509.586,324.996,516.9,325.456L516.9,325.456z"/>
<path fill="#FFFFFF" stroke="#014D2F" stroke-width="2" stroke-miterlimit="10" d="M476.145,343.192
	c3.625-2.714,8.285-3.596,12.734-3.495c2.924,0.176,5.627,1.487,8.287,2.633c3.314,1.573,6.783,4.272,7.057,8.232
	c0.035,4.413-3.002,8.059-5.906,11.079c-6.012,5.879-13.184,10.404-20.463,14.543c-0.965,0.553-1.988,0.963-3.021,1.357
	c-2.629-7.314-5.072-15.011-4.402-22.875C470.74,350.3,472.576,345.882,476.145,343.192L476.145,343.192z"/>
<path fill="#FFFFFF" stroke="#014D2F" stroke-width="2" stroke-miterlimit="10" d="M510.498,358.411
	c5.043-2.021,10.82-0.643,15.303,2.127c3.498,1.846,5.406,5.904,5.498,9.746c0.014,5.38-4.41,9.342-8.676,11.9
	c-9.244,5.395-19.824,7.949-30.27,9.832c1.414-7.566,3.398-15.121,6.908-22.007C501.766,365.208,505.273,360.425,510.498,358.411
	L510.498,358.411z"/>
<path fill="#FFFFFF" stroke="#014D2F" stroke-width="2" stroke-miterlimit="10" d="M526.27,386.38
	c3.908-3.79,10.016-4.753,15.045-2.822c2.674,0.746,4.26,3.219,5.811,5.336c1.816,2.652,3.332,6.14,1.807,9.287
	c-1.986,3.344-5.994,4.562-9.539,5.461c-7.123,1.49-14.479,1.709-21.717,1.191C519.039,398.174,521.229,391.206,526.27,386.38
	L526.27,386.38z"/>
<path fill="#BEBFC1" d="M528.961,389.799c2.598-2.532,5.961-5.36,9.863-4.663c2.102,0.23,3.475,1.966,4.799,3.435
	c-7.549,4.252-15.266,8.251-22.35,13.263C522.521,397.144,525.691,393.265,528.961,389.799L528.961,389.799z"/>
<path fill="#BEBFC1" d="M477.605,157.367c11.291-1.052,22.59,1.622,33.174,5.375c18.908,7.053,35.096,21.789,42.701,40.617
	c3.777,9.118,5.471,19.049,5.154,28.898c-0.154,2.489-0.455,4.971-0.531,7.465c17.879,10.648,34.305,24.024,47.438,40.219
	c11.793,14.65,20.525,32.231,22.562,51.09c1.924,17.715-2.008,35.799-9.85,51.708c-2.367-1.63-4.699-3.31-7.082-4.911
	c-1.215,7.562-4.459,15.082-10.4,20.125c-4.006,3.376-8.984,5.566-14.143,6.437c4.922-4.671,7.707-11.298,8.207-18.006
	c0.512-8.603-1.576-17.182-4.881-25.063c-4.039-6.748-9.674-12.338-15.129-17.934c13.223,1.855,25.309,8.485,35.26,17.187
	c4.889-10.393,6.082-22.274,4.105-33.533c-2.766-16.227-10.609-31.097-19.883-44.508c-7.055-10.058-15.113-19.388-23.879-27.989
	c-6.559-6.4-13.514-12.43-21.1-17.588c1.277-10.742,0.867-21.855-2.6-32.176c-3.029-9.188-8.568-17.504-15.777-23.943
	c-9.959-8.998-22.518-14.618-35.348-18.166c-5.611-1.628-11.391-2.539-17.098-3.741
	C478.209,158.406,477.896,157.881,477.605,157.367L477.605,157.367z"/>
<path fill="#BEBFC1" d="M507.961,366.466c2.598-2.533,5.961-5.361,9.863-4.664c2.102,0.23,3.475,1.967,4.799,3.436
	c-7.549,4.252-15.266,8.25-22.35,13.262C501.521,373.81,504.691,369.931,507.961,366.466L507.961,366.466z"/>
<path fill="#FDB223" d="M364.191,306.196c31.908,15.28,63.571,30.97,95.353,46.466c-0.247,2.796-0.497,5.604-0.774,8.407
	c-33.217-15.703-66.103-31.956-99.266-47.768C361.025,310.911,362.599,308.541,364.191,306.196L364.191,306.196z"/>
<path fill="#BEBFC1" d="M476.564,350.485c1.221-3.414,3.004-7.432,6.816-8.517c1.988-0.715,3.984,0.243,5.818,0.981
	c-4.916,7.132-10.098,14.111-14.266,21.723C474,359.911,475.145,355.035,476.564,350.485L476.564,350.485z"/>
<path fill="#FDB223" d="M370.655,306.467c5.523-2.282,11.258-4.461,17.06-6.586c36.024,18.293,72.063,36.598,108.532,54.67
	c-3.539,3.152-6.307,6.613-8.906,10.146C448.324,345.349,409.67,325.813,370.655,306.467L370.655,306.467z"/>
<g>
	<g>
		<g>
			<g>
				<path fill="#FFFFFF" d="M249.854,463.834c-7.439,1.249-5.192-3.934-5.895-32.266c0-18.767,7.718-84.467,11.793-84.952
					c18.449-2.252,36.948-3.968,55.472-5.146c1.692-0.112,6.771-0.83,6.771,1.973c0,1.108-9.029,21.257-10.861,21.396
					c-2.396,0.183-6.631-6.179-20.435-4.974c-9.719,0.854-19.984,7.732-19.984,21.177c0,2.94,0.562,7.912,4.501,7.493
					c4.501-0.478,14.493-8.078,26.332-8.997c1.691-0.136,6.343,0.085,6.343,2.467c0,0.131-7.894,23.543-9.584,23.691
					c-1.41,0.113-6.764-2.244-12.255-1.724c-7.181,0.657-17.588,6.99-17.587,20.859c0.001,11.213,5.903,18.611,17.729,17.486
					c13.938-1.301,22.544-11.09,25.928-11.326c2.114-0.157,11.566,22.943,11.567,24.357c0,2.657-3.527,2.296-5.22,2.399
					C292.885,459.049,271.334,461.077,249.854,463.834z"/>
				<path fill="#FFFFFF" d="M385.212,456.097c-1.271-0.02-5.367,0.36-5.367-1.736c0-3.938,10.877-17.791,10.877-33.733
					c0-6.3-6.074-8.803-12.431-8.838c-12.856-0.156-33.336,2.568-33.335,18.569c0,11.048,9.179,22.729,9.18,24.843
					c0,0.841-0.847,0.995-2.683,1.034c-6.732,0.146-13.464,0.362-20.193,0.65c-7.199,0.315-9.174-12.158-9.174-30.364
					c-0.008-60.183,41.933-89.383,48.153-89.088c4.664-0.239,41.104,20.611,41.099,85.77c0,37.377-6.069,33.357-10.307,33.236
					C395.759,456.282,390.485,456.168,385.212,456.097z M348.062,394.155c0,1.681,0.989,2.634,2.684,2.596
					c2.542-0.07,16.244-3.971,28.675-3.854c4.943,0.04,7.204-0.617,7.204-4.539c0-8.692-10.453-27.015-15.821-26.986
					C363.175,361.341,348.062,383.908,348.062,394.155z"/>
				<path fill="#FFFFFF" d="M466.606,344.166c26.171,2.69,32.741,18.154,32.747,29.975c0.007,22.331-21.064,26.619-21.07,30.607
					c0.009,3.82,25.289,25.304,25.28,58.442c0,1.541-0.562,1.74-3.508,1.344c-5.285-0.708-10.575-1.373-15.868-1.993
					c-2.53-0.3-6.889-0.363-6.89-2.602c0.001-15.83-11.25-45.465-19.42-46.173c-4.225-0.398-14.513,4.539-14.514,12.394
					c0,10.636,5.215,30.217,5.215,31.201c0,2.378-3.523,1.402-4.934,1.3c-5.45-0.406-10.903-0.765-16.359-1.077
					c-3.526-0.205-7.761,2.246-7.761-50.253c0-69.167,7.339-66.264,9.736-66.111C441.724,341.959,454.174,342.941,466.606,344.166z
					 M476.596,373.763c0-8.821-8.298-12.948-15.902-13.641c-12.815-1.165-18.458,3.111-18.316,27.325
					c0,2.942,0.142,8.545,4.369,8.869C451.547,396.575,476.604,386.55,476.596,373.763z"/>
			</g>
			<g>
				<path fill="none" stroke="#000000" d="M249.854,463.834c-7.439,1.249-5.192-3.934-5.895-32.266
					c0-18.767,7.718-84.467,11.793-84.952c18.449-2.252,36.948-3.968,55.472-5.146c1.692-0.112,6.771-0.83,6.771,1.973
					c0,1.108-9.029,21.257-10.861,21.396c-2.396,0.183-6.631-6.179-20.435-4.974c-9.719,0.854-19.984,7.732-19.984,21.177
					c0,2.94,0.562,7.912,4.501,7.493c4.501-0.478,14.493-8.078,26.332-8.997c1.691-0.136,6.343,0.085,6.343,2.467
					c0,0.131-7.894,23.543-9.584,23.691c-1.41,0.113-6.764-2.244-12.255-1.724c-7.181,0.657-17.588,6.99-17.587,20.859
					c0.001,11.213,5.903,18.611,17.729,17.486c13.938-1.301,22.544-11.09,25.928-11.326c2.114-0.157,11.566,22.943,11.567,24.357
					c0,2.657-3.527,2.296-5.22,2.399C292.885,459.049,271.334,461.077,249.854,463.834z"/>
				<path fill="none" stroke="#000000" d="M385.212,456.097c-1.271-0.02-5.367,0.36-5.367-1.736
					c0-3.938,10.877-17.791,10.877-33.733c0-6.3-6.074-8.803-12.431-8.838c-12.856-0.156-33.336,2.568-33.335,18.569
					c0,11.048,9.179,22.729,9.18,24.843c0,0.841-0.847,0.995-2.683,1.034c-6.732,0.146-13.464,0.362-20.193,0.65
					c-7.199,0.315-9.174-12.158-9.174-30.364c-0.008-60.183,41.933-89.383,48.153-89.088c4.664-0.239,41.104,20.611,41.099,85.77
					c0,37.377-6.069,33.357-10.307,33.236C395.759,456.282,390.485,456.168,385.212,456.097z M348.062,394.155
					c0,1.681,0.989,2.634,2.684,2.596c2.542-0.07,16.244-3.971,28.675-3.854c4.943,0.04,7.204-0.617,7.204-4.539
					c0-8.692-10.453-27.015-15.821-26.986C363.175,361.341,348.062,383.908,348.062,394.155z"/>
				<path fill="none" stroke="#000000" d="M466.606,344.166c26.171,2.69,32.741,18.154,32.747,29.975
					c0.007,22.331-21.064,26.619-21.07,30.607c0.009,3.82,25.289,25.304,25.28,58.442c0,1.541-0.562,1.74-3.508,1.344
					c-5.285-0.708-10.575-1.373-15.868-1.993c-2.53-0.3-6.889-0.363-6.89-2.602c0.001-15.83-11.25-45.465-19.42-46.173
					c-4.225-0.398-14.513,4.539-14.514,12.394c0,10.636,5.215,30.217,5.215,31.201c0,2.378-3.523,1.402-4.934,1.3
					c-5.45-0.406-10.903-0.765-16.359-1.077c-3.526-0.205-7.761,2.246-7.761-50.253c0-69.167,7.339-66.264,9.736-66.111
					C441.724,341.959,454.174,342.941,466.606,344.166z M476.596,373.763c0-8.821-8.298-12.948-15.902-13.641
					c-12.815-1.165-18.458,3.111-18.316,27.325c0,2.942,0.142,8.545,4.369,8.869C451.547,396.575,476.604,386.55,476.596,373.763z"
					/>
			</g>
			<g>
				<path fill="none" stroke="#FFFFFF" stroke-width="6" d="M249.854,463.834c-7.439,1.249-5.192-3.934-5.895-32.266
					c0-18.767,7.718-84.467,11.793-84.952c18.449-2.252,36.948-3.968,55.472-5.146c1.692-0.112,6.771-0.83,6.771,1.973
					c0,1.108-9.029,21.257-10.861,21.396c-2.396,0.183-6.631-6.179-20.435-4.974c-9.719,0.854-19.984,7.732-19.984,21.177
					c0,2.94,0.562,7.912,4.501,7.493c4.501-0.478,14.493-8.078,26.332-8.997c1.691-0.136,6.343,0.085,6.343,2.467
					c0,0.131-7.894,23.543-9.584,23.691c-1.41,0.113-6.764-2.244-12.255-1.724c-7.181,0.657-17.588,6.99-17.587,20.859
					c0.001,11.213,5.903,18.611,17.729,17.486c13.938-1.301,22.544-11.09,25.928-11.326c2.114-0.157,11.566,22.943,11.567,24.357
					c0,2.657-3.527,2.296-5.22,2.399C292.885,459.049,271.334,461.077,249.854,463.834z"/>
				<path fill="none" stroke="#FFFFFF" stroke-width="6" d="M385.212,456.097c-1.271-0.02-5.367,0.36-5.367-1.736
					c0-3.938,10.877-17.791,10.877-33.733c0-6.3-6.074-8.803-12.431-8.838c-12.856-0.156-33.336,2.568-33.335,18.569
					c0,11.048,9.179,22.729,9.18,24.843c0,0.841-0.847,0.995-2.683,1.034c-6.732,0.146-13.464,0.362-20.193,0.65
					c-7.199,0.315-9.174-12.158-9.174-30.364c-0.008-60.183,41.933-89.383,48.153-89.088c4.664-0.239,41.104,20.611,41.099,85.77
					c0,37.377-6.069,33.357-10.307,33.236C395.759,456.282,390.485,456.168,385.212,456.097z M348.062,394.155
					c0,1.681,0.989,2.634,2.684,2.596c2.542-0.07,16.244-3.971,28.675-3.854c4.943,0.04,7.204-0.617,7.204-4.539
					c0-8.692-10.453-27.015-15.821-26.986C363.175,361.341,348.062,383.908,348.062,394.155z"/>
				<path fill="none" stroke="#FFFFFF" stroke-width="6" d="M466.606,344.166c26.171,2.69,32.741,18.154,32.747,29.975
					c0.007,22.331-21.064,26.619-21.07,30.607c0.009,3.82,25.289,25.304,25.28,58.442c0,1.541-0.562,1.74-3.508,1.344
					c-5.285-0.708-10.575-1.373-15.868-1.993c-2.53-0.3-6.889-0.363-6.89-2.602c0.001-15.83-11.25-45.465-19.42-46.173
					c-4.225-0.398-14.513,4.539-14.514,12.394c0,10.636,5.215,30.217,5.215,31.201c0,2.378-3.523,1.402-4.934,1.3
					c-5.45-0.406-10.903-0.765-16.359-1.077c-3.526-0.205-7.761,2.246-7.761-50.253c0-69.167,7.339-66.264,9.736-66.111
					C441.724,341.959,454.174,342.941,466.606,344.166z M476.596,373.763c0-8.821-8.298-12.948-15.902-13.641
					c-12.815-1.165-18.458,3.111-18.316,27.325c0,2.942,0.142,8.545,4.369,8.869C451.547,396.575,476.604,386.55,476.596,373.763z"
					/>
			</g>
		</g>
		<g>
			<g>
				<path fill="#FFFFFF" d="M132.253,534.279c-4.925,1.264-10.821,6.653-10.821-68.343c-0.003-98.813,10.225-97.929,13.58-98.761
					c17.014-4.332,34.118-8.189,51.291-11.574c35.244-6.704,40.721,9.435,40.7,22.082c-0.01,21.919-22.783,38.479-22.772,44.76
					c-0.02,6.838,32.161,17.888,32.18,52.449c0.016,19.715-11.862,39.935-44.535,46.025
					C171.9,524.732,152.016,529.187,132.253,534.279z M180.538,414.555c5.761-5.384,14.125-16.769,14.126-24.963
					c0-9.603-8.366-10.431-15.914-8.87c-19.664,4.081-28.534,14.953-28.54,46.115c0.001,4.004-0.397,9.284,5.143,7.994
					c2.374-0.554,7.522-3.919,10.695-6.812C170.872,423.494,175.702,419.006,180.538,414.555z M159.905,456.989
					c-5.347,4.212-8.508,6.168-8.508,12.767c0.004,30.425,7.5,32.342,23.777,28.905c14.293-3.019,28.857-11.188,28.857-26.782
					c-0.006-14.244-17.54-30.993-22.897-29.846c-2.584,0.522-6.159,3.466-8.342,5.131
					C168.491,450.409,164.196,453.685,159.905,456.989z"/>
			</g>
			<g>
				<path fill="none" stroke="#000000" d="M132.253,534.279c-4.925,1.264-10.821,6.653-10.821-68.343
					c-0.003-98.813,10.225-97.929,13.58-98.761c17.014-4.332,34.118-8.189,51.291-11.574c35.244-6.704,40.721,9.435,40.7,22.082
					c-0.01,21.919-22.783,38.479-22.772,44.76c-0.02,6.838,32.161,17.888,32.18,52.449c0.016,19.715-11.862,39.935-44.535,46.025
					C171.9,524.732,152.016,529.187,132.253,534.279z M180.538,414.555c5.761-5.384,14.125-16.769,14.126-24.963
					c0-9.603-8.366-10.431-15.914-8.87c-19.664,4.081-28.534,14.953-28.54,46.115c0.001,4.004-0.397,9.284,5.143,7.994
					c2.374-0.554,7.522-3.919,10.695-6.812C170.872,423.494,175.702,419.006,180.538,414.555z M159.905,456.989
					c-5.347,4.212-8.508,6.168-8.508,12.767c0.004,30.425,7.5,32.342,23.777,28.905c14.293-3.019,28.857-11.188,28.857-26.782
					c-0.006-14.244-17.54-30.993-22.897-29.846c-2.584,0.522-6.159,3.466-8.342,5.131
					C168.491,450.409,164.196,453.685,159.905,456.989z"/>
			</g>
			<g>
				<path fill="none" stroke="#FFFFFF" stroke-width="6" d="M132.253,534.279c-4.925,1.264-10.821,6.653-10.821-68.343
					c-0.003-98.813,10.225-97.929,13.58-98.761c17.014-4.332,34.118-8.189,51.291-11.574c35.244-6.704,40.721,9.435,40.7,22.082
					c-0.01,21.919-22.783,38.479-22.772,44.76c-0.02,6.838,32.161,17.888,32.18,52.449c0.016,19.715-11.862,39.935-44.535,46.025
					C171.9,524.732,152.016,529.187,132.253,534.279z M180.538,414.555c5.761-5.384,14.125-16.769,14.126-24.963
					c0-9.603-8.366-10.431-15.914-8.87c-19.664,4.081-28.534,14.953-28.54,46.115c0.001,4.004-0.397,9.284,5.143,7.994
					c2.374-0.554,7.522-3.919,10.695-6.812C170.872,423.494,175.702,419.006,180.538,414.555z M159.905,456.989
					c-5.347,4.212-8.508,6.168-8.508,12.767c0.004,30.425,7.5,32.342,23.777,28.905c14.293-3.019,28.857-11.188,28.857-26.782
					c-0.006-14.244-17.54-30.993-22.897-29.846c-2.584,0.522-6.159,3.466-8.342,5.131
					C168.491,450.409,164.196,453.685,159.905,456.989z"/>
			</g>
		</g>
		<g>
			<g>
				<path fill="#FFFFFF" d="M565.224,383.98c-9.932-2.061-22.689,0.626-22.69,12.237c0.006,14.355,19.729,23.618,30.634,29.824
					c41.624,23.208,49.934,46.486,49.97,65.276c-0.028,23.384-16.213,46.815-58.111,38.02
					c-28.208-5.871-57.067-25.113-57.066-56.892c0.002-17.016,10.209-25.512,12.207-25.181c3.37,0.755,0.074,40.047,42.872,48.269
					c15.108,3.044,28.158-0.458,28.157-12.862c0.006-14.631-17.81-24.719-29.35-30.577c-43.596-21.976-48.513-41.626-48.48-58.861
					c-0.026-16.612,11.481-44.255,51.858-36.253c28.814,5.911,49.057,26.836,49.062,32.593c0.002,5.587-10.243,21.157-15.776,19.84
					C593.564,408.26,585.881,388.271,565.224,383.98z"/>
			</g>
			<g>
				<path fill="none" stroke="#000000" d="M565.224,383.98c-9.932-2.061-22.689,0.626-22.69,12.237
					c0.006,14.355,19.729,23.618,30.634,29.824c41.624,23.208,49.934,46.486,49.97,65.276c-0.028,23.384-16.213,46.815-58.111,38.02
					c-28.208-5.871-57.067-25.113-57.066-56.892c0.002-17.016,10.209-25.512,12.207-25.181c3.37,0.755,0.074,40.047,42.872,48.269
					c15.108,3.044,28.158-0.458,28.157-12.862c0.006-14.631-17.81-24.719-29.35-30.577c-43.596-21.976-48.513-41.626-48.48-58.861
					c-0.026-16.612,11.481-44.255,51.858-36.253c28.814,5.911,49.057,26.836,49.062,32.593c0.002,5.587-10.243,21.157-15.776,19.84
					C593.564,408.26,585.881,388.271,565.224,383.98z"/>
			</g>
			<g>
				<path fill="none" stroke="#FFFFFF" stroke-width="6" d="M565.224,383.98c-9.932-2.061-22.689,0.626-22.69,12.237
					c0.006,14.355,19.729,23.618,30.634,29.824c41.624,23.208,49.934,46.486,49.97,65.276c-0.028,23.384-16.213,46.815-58.111,38.02
					c-28.208-5.871-57.067-25.113-57.066-56.892c0.002-17.016,10.209-25.512,12.207-25.181c3.37,0.755,0.074,40.047,42.872,48.269
					c15.108,3.044,28.158-0.458,28.157-12.862c0.006-14.631-17.81-24.719-29.35-30.577c-43.596-21.976-48.513-41.626-48.48-58.861
					c-0.026-16.612,11.481-44.255,51.858-36.253c28.814,5.911,49.057,26.836,49.062,32.593c0.002,5.587-10.243,21.157-15.776,19.84
					C593.564,408.26,585.881,388.271,565.224,383.98z"/>
			</g>
		</g>
	</g>
</g>
<g>
	<g>
		<g>
			<g>
				<path fill="#FFFFFF" d="M249.523,463.831c-7.439,1.258-5.192-3.928-5.894-32.259c-0.001-18.767,7.717-84.475,11.792-84.965
					c18.447-2.27,36.945-3.998,55.469-5.186c1.692-0.113,6.771-0.834,6.771,1.97c0,1.107-9.028,21.261-10.861,21.4
					c-2.396,0.185-6.631-6.175-20.434-4.961c-9.719,0.861-19.983,7.748-19.983,21.192c0,2.941,0.563,7.912,4.501,7.489
					c4.5-0.48,14.491-8.09,26.33-9.016c1.691-0.137,6.343,0.08,6.343,2.463c-0.001,0.131-7.895,23.547-9.584,23.697
					c-1.409,0.114-6.764-2.24-12.254-1.716c-7.181,0.663-17.586,7.005-17.585,20.874c0,11.213,5.902,18.606,17.727,17.473
					c13.938-1.312,22.543-11.104,25.927-11.343c2.114-0.159,11.566,22.938,11.566,24.352c0,2.657-3.527,2.297-5.22,2.401
					C292.551,459.009,271.001,461.053,249.523,463.831z"/>
				<path fill="#FFFFFF" d="M384.877,456.033c-1.271-0.021-5.367,0.36-5.367-1.737c0-3.938,10.877-17.79,10.877-33.731
					c0-6.301-6.074-8.804-12.431-8.84c-12.856-0.157-33.336,2.57-33.335,18.572c0,11.048,9.18,22.729,9.18,24.841
					c0,0.841-0.847,0.996-2.683,1.035c-6.732,0.147-13.464,0.365-20.193,0.655c-7.199,0.317-9.173-12.155-9.174-30.361
					c-0.008-60.185,41.933-89.396,48.152-89.098c4.665-0.241,41.104,20.615,41.1,85.776c0,37.376-6.07,33.354-10.307,33.233
					C395.424,456.22,390.151,456.104,384.877,456.033z M347.728,394.093c0,1.681,0.988,2.635,2.684,2.596
					c2.542-0.071,16.243-3.974,28.675-3.855c4.943,0.039,7.203-0.617,7.204-4.539c0-8.692-10.452-27.016-15.821-26.987
					C362.84,361.275,347.727,383.847,347.728,394.093z"/>
				<path fill="#FFFFFF" d="M466.27,344.139c26.17,2.712,32.738,18.185,32.745,30.004c0.007,22.331-21.062,26.598-21.069,30.588
					c0.01,3.819,25.287,25.328,25.277,58.467c0,1.541-0.561,1.739-3.506,1.34c-5.285-0.714-10.574-1.383-15.868-2.008
					c-2.529-0.303-6.888-0.37-6.888-2.608c0.001-15.83-11.25-45.475-19.42-46.188c-4.224-0.401-14.512,4.529-14.513,12.385
					c0,10.635,5.215,30.219,5.215,31.203c0,2.379-3.523,1.399-4.934,1.297c-5.45-0.408-10.903-0.771-16.358-1.085
					c-3.527-0.207-7.761,2.242-7.761-50.257c0-69.166,7.338-66.261,9.736-66.106C441.388,341.914,453.838,342.904,466.27,344.139z
					 M476.259,373.743c0-8.822-8.298-12.956-15.901-13.653c-12.814-1.175-18.458,3.099-18.316,27.313
					c0,2.942,0.143,8.544,4.369,8.871C451.211,396.536,476.266,386.529,476.259,373.743z"/>
			</g>
			<g>
				<path fill="none" stroke="#000000" d="M249.523,463.831c-7.439,1.258-5.192-3.928-5.894-32.259
					c-0.001-18.767,7.717-84.475,11.792-84.965c18.447-2.27,36.945-3.998,55.469-5.186c1.692-0.113,6.771-0.834,6.771,1.97
					c0,1.107-9.028,21.261-10.861,21.4c-2.396,0.185-6.631-6.175-20.434-4.961c-9.719,0.861-19.983,7.748-19.983,21.192
					c0,2.941,0.563,7.912,4.501,7.489c4.5-0.48,14.491-8.09,26.33-9.016c1.691-0.137,6.343,0.08,6.343,2.463
					c-0.001,0.131-7.895,23.547-9.584,23.697c-1.409,0.114-6.764-2.24-12.254-1.716c-7.181,0.663-17.586,7.005-17.585,20.874
					c0,11.213,5.902,18.606,17.727,17.473c13.938-1.312,22.543-11.104,25.927-11.343c2.114-0.159,11.566,22.938,11.566,24.352
					c0,2.657-3.527,2.297-5.22,2.401C292.551,459.009,271.001,461.053,249.523,463.831z"/>
				<path fill="none" stroke="#000000" d="M384.877,456.033c-1.271-0.021-5.367,0.36-5.367-1.737
					c0-3.938,10.877-17.79,10.877-33.731c0-6.301-6.074-8.804-12.431-8.84c-12.856-0.157-33.336,2.57-33.335,18.572
					c0,11.048,9.18,22.729,9.18,24.841c0,0.841-0.847,0.996-2.683,1.035c-6.732,0.147-13.464,0.365-20.193,0.655
					c-7.199,0.317-9.173-12.155-9.174-30.361c-0.008-60.185,41.933-89.396,48.152-89.098c4.665-0.241,41.104,20.615,41.1,85.776
					c0,37.376-6.07,33.354-10.307,33.233C395.424,456.22,390.151,456.104,384.877,456.033z M347.728,394.093
					c0,1.681,0.988,2.635,2.684,2.596c2.542-0.071,16.243-3.974,28.675-3.855c4.943,0.039,7.203-0.617,7.204-4.539
					c0-8.692-10.452-27.016-15.821-26.987C362.84,361.275,347.727,383.847,347.728,394.093z"/>
				<path fill="none" stroke="#000000" d="M466.27,344.139c26.17,2.712,32.738,18.185,32.745,30.004
					c0.007,22.331-21.062,26.598-21.069,30.588c0.01,3.819,25.287,25.328,25.277,58.467c0,1.541-0.561,1.739-3.506,1.34
					c-5.285-0.714-10.574-1.383-15.868-2.008c-2.529-0.303-6.888-0.37-6.888-2.608c0.001-15.83-11.25-45.475-19.42-46.188
					c-4.224-0.401-14.512,4.529-14.513,12.385c0,10.635,5.215,30.219,5.215,31.203c0,2.379-3.523,1.399-4.934,1.297
					c-5.45-0.408-10.903-0.771-16.358-1.085c-3.527-0.207-7.761,2.242-7.761-50.257c0-69.166,7.338-66.261,9.736-66.106
					C441.388,341.914,453.838,342.904,466.27,344.139z M476.259,373.743c0-8.822-8.298-12.956-15.901-13.653
					c-12.814-1.175-18.458,3.099-18.316,27.313c0,2.942,0.143,8.544,4.369,8.871C451.211,396.536,476.266,386.529,476.259,373.743z"
					/>
			</g>
			<g>
				<path fill="none" stroke="#014D2F" stroke-width="2" d="M249.523,463.831c-7.439,1.258-5.192-3.928-5.894-32.259
					c-0.001-18.767,7.717-84.475,11.792-84.965c18.447-2.27,36.945-3.998,55.469-5.186c1.692-0.113,6.771-0.834,6.771,1.97
					c0,1.107-9.028,21.261-10.861,21.4c-2.396,0.185-6.631-6.175-20.434-4.961c-9.719,0.861-19.983,7.748-19.983,21.192
					c0,2.941,0.563,7.912,4.501,7.489c4.5-0.48,14.491-8.09,26.33-9.016c1.691-0.137,6.343,0.08,6.343,2.463
					c-0.001,0.131-7.895,23.547-9.584,23.697c-1.409,0.114-6.764-2.24-12.254-1.716c-7.181,0.663-17.586,7.005-17.585,20.874
					c0,11.213,5.902,18.606,17.727,17.473c13.938-1.312,22.543-11.104,25.927-11.343c2.114-0.159,11.566,22.938,11.566,24.352
					c0,2.657-3.527,2.297-5.22,2.401C292.551,459.009,271.001,461.053,249.523,463.831z"/>
				<path fill="none" stroke="#014D2F" stroke-width="2" d="M384.877,456.033c-1.271-0.021-5.367,0.36-5.367-1.737
					c0-3.938,10.877-17.79,10.877-33.731c0-6.301-6.074-8.804-12.431-8.84c-12.856-0.157-33.336,2.57-33.335,18.572
					c0,11.048,9.18,22.729,9.18,24.841c0,0.841-0.847,0.996-2.683,1.035c-6.732,0.147-13.464,0.365-20.193,0.655
					c-7.199,0.317-9.173-12.155-9.174-30.361c-0.008-60.185,41.933-89.396,48.152-89.098c4.665-0.241,41.104,20.615,41.1,85.776
					c0,37.376-6.07,33.354-10.307,33.233C395.424,456.22,390.151,456.104,384.877,456.033z M347.728,394.093
					c0,1.681,0.988,2.635,2.684,2.596c2.542-0.071,16.243-3.974,28.675-3.855c4.943,0.039,7.203-0.617,7.204-4.539
					c0-8.692-10.452-27.016-15.821-26.987C362.84,361.275,347.727,383.847,347.728,394.093z"/>
				<path fill="none" stroke="#014D2F" stroke-width="2" d="M466.27,344.139c26.17,2.712,32.738,18.185,32.745,30.004
					c0.007,22.331-21.062,26.598-21.069,30.588c0.01,3.819,25.287,25.328,25.277,58.467c0,1.541-0.561,1.739-3.506,1.34
					c-5.285-0.714-10.574-1.383-15.868-2.008c-2.529-0.303-6.888-0.37-6.888-2.608c0.001-15.83-11.25-45.475-19.42-46.188
					c-4.224-0.401-14.512,4.529-14.513,12.385c0,10.635,5.215,30.219,5.215,31.203c0,2.379-3.523,1.399-4.934,1.297
					c-5.45-0.408-10.903-0.771-16.358-1.085c-3.527-0.207-7.761,2.242-7.761-50.257c0-69.166,7.338-66.261,9.736-66.106
					C441.388,341.914,453.838,342.904,466.27,344.139z M476.259,373.743c0-8.822-8.298-12.956-15.901-13.653
					c-12.814-1.175-18.458,3.099-18.316,27.313c0,2.942,0.143,8.544,4.369,8.871C451.211,396.536,476.266,386.529,476.259,373.743z"
					/>
			</g>
		</g>
		<g>
			<g>
				<path fill="#FFFFFF" d="M131.95,534.457c-4.923,1.273-10.817,6.676-10.816-68.321c-0.003-98.812,10.221-97.95,13.574-98.789
					c17.008-4.365,34.107-8.254,51.276-11.665c35.236-6.758,40.713,9.379,40.692,22.025c-0.01,21.918-22.779,38.508-22.769,44.79
					c-0.021,6.837,32.156,17.845,32.175,52.408c0.016,19.716-11.861,39.944-44.527,46.084
					C171.583,524.834,151.705,529.323,131.95,534.457z M180.219,414.644c5.76-5.394,14.122-16.791,14.123-24.984
					c0-9.604-8.364-10.419-15.911-8.846c-19.658,4.114-28.525,15.004-28.531,46.166c0,4.004-0.397,9.284,5.141,7.984
					c2.373-0.559,7.52-3.933,10.692-6.831C170.555,423.599,175.384,419.103,180.219,414.644z M159.592,457.113
					c-5.345,4.222-8.505,6.184-8.506,12.782c0.004,30.425,7.497,32.327,23.771,28.863c14.29-3.043,28.851-11.232,28.851-26.827
					c-0.006-14.244-17.536-30.967-22.892-29.811c-2.583,0.527-6.157,3.477-8.34,5.145
					C168.176,450.519,163.881,453.801,159.592,457.113z"/>
			</g>
			<g>
				<path fill="none" stroke="#000000" d="M131.95,534.457c-4.923,1.273-10.817,6.676-10.816-68.321
					c-0.003-98.812,10.221-97.95,13.574-98.789c17.008-4.365,34.107-8.254,51.276-11.665c35.236-6.758,40.713,9.379,40.692,22.025
					c-0.01,21.918-22.779,38.508-22.769,44.79c-0.021,6.837,32.156,17.845,32.175,52.408c0.016,19.716-11.861,39.944-44.527,46.084
					C171.583,524.834,151.705,529.323,131.95,534.457z M180.219,414.644c5.76-5.394,14.122-16.791,14.123-24.984
					c0-9.604-8.364-10.419-15.911-8.846c-19.658,4.114-28.525,15.004-28.531,46.166c0,4.004-0.397,9.284,5.141,7.984
					c2.373-0.559,7.52-3.933,10.692-6.831C170.555,423.599,175.384,419.103,180.219,414.644z M159.592,457.113
					c-5.345,4.222-8.505,6.184-8.506,12.782c0.004,30.425,7.497,32.327,23.771,28.863c14.29-3.043,28.851-11.232,28.851-26.827
					c-0.006-14.244-17.536-30.967-22.892-29.811c-2.583,0.527-6.157,3.477-8.34,5.145
					C168.176,450.519,163.881,453.801,159.592,457.113z"/>
			</g>
			<g>
				<path fill="none" stroke="#014D2F" stroke-width="2" d="M131.95,534.457c-4.923,1.273-10.817,6.676-10.816-68.321
					c-0.003-98.812,10.221-97.95,13.574-98.789c17.008-4.365,34.107-8.254,51.276-11.665c35.236-6.758,40.713,9.379,40.692,22.025
					c-0.01,21.918-22.779,38.508-22.769,44.79c-0.021,6.837,32.156,17.845,32.175,52.408c0.016,19.716-11.861,39.944-44.527,46.084
					C171.583,524.834,151.705,529.323,131.95,534.457z M180.219,414.644c5.76-5.394,14.122-16.791,14.123-24.984
					c0-9.604-8.364-10.419-15.911-8.846c-19.658,4.114-28.525,15.004-28.531,46.166c0,4.004-0.397,9.284,5.141,7.984
					c2.373-0.559,7.52-3.933,10.692-6.831C170.555,423.599,175.384,419.103,180.219,414.644z M159.592,457.113
					c-5.345,4.222-8.505,6.184-8.506,12.782c0.004,30.425,7.497,32.327,23.771,28.863c14.29-3.043,28.851-11.232,28.851-26.827
					c-0.006-14.244-17.536-30.967-22.892-29.811c-2.583,0.527-6.157,3.477-8.34,5.145
					C168.176,450.519,163.881,453.801,159.592,457.113z"/>
			</g>
		</g>
		<g>
			<g>
				<path fill="#FFFFFF" d="M564.874,384.071c-9.929-2.076-22.686,0.591-22.687,12.202c0.006,14.355,19.727,23.647,30.627,29.872
					c41.61,23.28,49.917,46.584,49.953,65.372c-0.028,23.385-16.206,46.777-58.093,37.91c-28.2-5.917-57.057-25.191-57.056-56.97
					c0.002-17.016,10.209-25.499,12.206-25.166c3.368,0.761,0.075,40.043,42.863,48.329c15.106,3.068,28.149-0.409,28.149-12.813
					c0.006-14.631-17.805-24.751-29.342-30.628c-43.586-22.041-48.505-41.691-48.473-58.929
					c-0.026-16.609,11.482-44.245,51.851-36.18c28.807,5.958,49.04,26.927,49.046,32.684c0.002,5.587-10.239,21.136-15.771,19.808
					C593.206,408.4,585.525,388.395,564.874,384.071z"/>
			</g>
			<g>
				<path fill="none" stroke="#000000" d="M564.874,384.071c-9.929-2.076-22.686,0.591-22.687,12.202
					c0.006,14.355,19.727,23.647,30.627,29.872c41.61,23.28,49.917,46.584,49.953,65.372c-0.028,23.385-16.206,46.777-58.093,37.91
					c-28.2-5.917-57.057-25.191-57.056-56.97c0.002-17.016,10.209-25.499,12.206-25.166c3.368,0.761,0.075,40.043,42.863,48.329
					c15.106,3.068,28.149-0.409,28.149-12.813c0.006-14.631-17.805-24.751-29.342-30.628
					c-43.586-22.041-48.505-41.691-48.473-58.929c-0.026-16.609,11.482-44.245,51.851-36.18
					c28.807,5.958,49.04,26.927,49.046,32.684c0.002,5.587-10.239,21.136-15.771,19.808
					C593.206,408.4,585.525,388.395,564.874,384.071z"/>
			</g>
			<g>
				<path fill="none" stroke="#014D2F" stroke-width="2" d="M564.874,384.071c-9.929-2.076-22.686,0.591-22.687,12.202
					c0.006,14.355,19.727,23.647,30.627,29.872c41.61,23.28,49.917,46.584,49.953,65.372c-0.028,23.385-16.206,46.777-58.093,37.91
					c-28.2-5.917-57.057-25.191-57.056-56.97c0.002-17.016,10.209-25.499,12.206-25.166c3.368,0.761,0.075,40.043,42.863,48.329
					c15.106,3.068,28.149-0.409,28.149-12.813c0.006-14.631-17.805-24.751-29.342-30.628
					c-43.586-22.041-48.505-41.691-48.473-58.929c-0.026-16.609,11.482-44.245,51.851-36.18
					c28.807,5.958,49.04,26.927,49.046,32.684c0.002,5.587-10.239,21.136-15.771,19.808
					C593.206,408.4,585.525,388.395,564.874,384.071z"/>
			</g>
		</g>
	</g>
</g>
<g>
	<path fill="#DD3236" stroke="#FFFFFF" stroke-width="2" d="M143.889,308.517c5.775-1.213,9.727,0.929,10.737,5.738
		c0.625,2.981,0.005,6.861-1.572,10.021l-0.53,1.031c-0.245,0.476-0.353,0.781-0.282,1.12c0.143,0.678,0.655,1.206,2.897,2.858
		c3.196,2.371,6.245,7.318,7.083,11.315c0.853,4.066,0.108,7.9-2.011,10.114c-1.695,1.771-4.112,2.844-7.906,3.641l-8.47,1.778
		c-3.3,0.693-4.636,0.62-5.221-0.53c-1.199-2.153-2.449-5.923-3.641-11.049l-2.536-10.715c-0.1-0.475-0.282-1.073-0.439-1.818
		c-3.399-16.192-3.344-20.307,0.176-21.046L143.889,308.517z M144.484,323.389c1.14-2.504,1.421-3.623,1.123-5.046
		c-0.327-1.559-1.504-2.515-2.823-2.237c-2.146,0.45-3.101,3.834-2.261,7.832c0.37,1.761,0.844,2.651,1.339,2.548
		C142.713,326.165,143.738,325.03,144.484,323.389z M151.812,340.242c-0.597-2.847-2.447-5.641-4.174-6.48
		c-0.248-0.09-0.428-0.123-0.593-0.088c-0.33,0.069-0.893,0.399-1.261,0.831c-0.479,0.454-0.903,0.896-1.3,1.192
		c-0.876,0.749-0.888,0.964-0.49,2.861l0.085,0.407c1.237,5.894,2.377,7.493,5.072,6.928
		C151.351,345.432,152.423,343.155,151.812,340.242z"/>
	<path fill="#DD3236" stroke="#FFFFFF" stroke-width="2" d="M174.171,350.037c-1.44,0.249-2.096,0.081-2.637-0.738
		c-1.35-1.875-3.225-7.452-3.919-11.478c-1.083-6.275-0.653-16.677,0.949-22.925c0.576-2.277,1.584-4.699,2.968-7.257
		c1.939-3.636,4.461-6.53,5.901-6.779c1.44-0.248,5.142,1.712,7.674,4.155c1.232,1.192,2.535,2.794,3.909,4.805
		c4.243,6.082,5.91,10.782,7.922,22.447c1.836,10.643,1.599,13.563-1.114,14.032l-6.424,1.109c-1.273,0.219-1.875,0.042-2.004-0.708
		c-0.071-0.41-0.055-0.975-0.038-1.54c0.329-6.027,0.326-9.68-0.086-12.068c-0.282-1.637-1.01-2.214-2.504-1.956
		c-2.824,0.488-5.718,2.884-6.394,5.249c-0.139,0.516-0.211,1.091-0.117,1.636c0.165,0.955,0.689,2.34,1.572,4.154
		c0.804,1.688,1.325,2.722,1.562,3.104c0.698,1.073,1.14,1.98,1.356,2.575c0.095,0.546-0.159,0.729-0.768,0.835L174.171,350.037z
		 M180.048,322.959c0.221-0.038,0.388-0.066,0.499-0.085c0.221-0.039,0.664-0.115,1.907-0.189c0.288,0.021,0.676-0.046,0.787-0.065
		c0.997-0.172,1.258-0.639,1.035-1.935c-0.189-1.092-0.611-2.213-1.229-3.16l-1.421-2.283c-0.892-1.532-1.575-2.188-2.073-2.102
		c-0.997,0.173-1.778,1.923-2.411,5.193c-0.442,2.396-0.626,3.973-0.462,4.927c0.083,0.478,0.395,0.635,1.115,0.511
		c0.099-0.088,0.276-0.048,0.431-0.145L180.048,322.959z"/>
	<path fill="#DD3236" stroke="#FFFFFF" stroke-width="2" d="M220.548,296.126c2.894-0.405,4.009-0.141,4.182,1.093
		c0.039,0.274,0.012,0.488-0.015,0.701l-1.218,5.901c-0.164,0.861-0.44,1.32-0.773,1.367c-0.399-0.015-1.003-0.279-1.859-0.719
		c-1.052-0.622-2.446-0.848-4.004-0.63c-3.896,0.545-5.981,3.492-5.406,7.605c0.173,1.234,0.593,1.805,1.205,1.719
		c0.39-0.054,0.871-0.262,1.455-0.552c1.584-0.851,2.927-1.388,4.086-1.62l0.056-0.008c0.056-0.007,0.111-0.016,0.278-0.038
		l1.875,0.018c1.643-0.021,2.368,0.298,2.503,1.258c0.038,0.274,0.021,0.556-0.006,0.77l-1.093,6.794
		c-0.163,0.861-0.485,1.396-0.931,1.457c-0.121-0.053-0.278,0.039-0.409-0.083l-1.153-0.537c-0.363-0.159-0.939-0.219-1.663-0.117
		c-2.838,0.396-4.393,3.479-3.828,7.524c0.594,4.251,3.298,6.948,6.638,6.482c1.559-0.218,2.956-1.182,4.841-3.123
		c0.443-0.481,0.702-0.657,0.925-0.688c0.445-0.062,0.902,0.363,1.399,1.482l2.905,6.164c0.403,0.853,0.675,1.584,0.752,2.132
		c0.067,0.48-0.349,0.748-1.073,0.85l-20.26,2.83c-3.117,0.435-3.313,0.253-4.197-4.446l-1.513-8.387
		c-0.029-0.206-0.124-0.473-0.17-0.815c-0.24-1.713-0.706-6.262-1.104-10.33c-0.688-6.545-0.822-9.531-0.729-15.766
		c0.024-5.105,0.494-5.8,3.889-6.275L220.548,296.126z"/>
	<path fill="#DD3236" stroke="#FFFFFF" stroke-width="2" d="M239.064,340.249c-1.062,0.114-1.591-0.594-1.948-2.854
		c-1.183-6.766-2.161-13.205-2.674-17.953c-0.542-5.024-1.104-12.832-1.274-16.504c-0.063-2.152-0.07-4.31-0.021-6.474
		c0.004-1.532,0.351-1.988,1.523-2.114l16.537-1.788c4.805-0.52,8.604,3.248,9.25,9.236c0.446,4.13-0.776,7.465-4.305,11.954
		c-0.402,0.461-0.581,0.898-0.551,1.174c0.045,0.413,0.455,1.065,1.285,1.95c4.506,5.083,7.979,12.646,8.619,18.564
		c0.142,1.308-0.294,1.981-1.412,2.102l-6.648,0.72c-1.453,0.157-1.952-0.276-2.51-2.306c-2.3-8.733-5.212-14.755-6.888-14.574
		c-1.341,0.146-2.146,2.112-1.878,4.59c0.223,2.065,0.684,4.243,1.329,6.541c0.621,2.091,1.094,3.851,1.369,5.353
		c0.015,0.138,0.015,0.138,0.022,0.207c0.104,0.964-0.105,1.125-1.39,1.264L239.064,340.249z M244.042,311.511
		c0.03,0.275,0.354,0.658,0.767,0.822c0.183,0.119,0.414,0.164,0.637,0.141c0.335-0.036,1.032-0.391,1.441-0.783
		c2.932-2.684,3.945-4.813,3.663-7.428c-0.282-2.616-1.873-4.254-4.051-4.019c-2.291,0.247-3.379,2.732-2.933,6.862l0.305,2.821
		L244.042,311.511z"/>
	<path fill="#DD3236" stroke="#FFFFFF" stroke-width="2" d="M292.604,289.142c0.505-0.035,0.926,0.353,0.968,0.975
		c0.023,0.345,0.023,0.345,0.033,0.483l-0.228,2.444c-0.14,1.258-0.153,2.716-0.045,4.305c0.438,6.423,1.572,13.979,2.573,17.102
		c0.286,0.883,0.842,1.608,1.179,1.585c0.504-0.034,1.06-1.807,1.405-4.189c0.116-0.771,0.205-1.956,0.274-3.418
		c0.083-2.087,0.082-3.753-0.007-5.065c0.032-0.349,0.009-0.693-0.015-1.039c-0.104-1.52-0.347-3.446-0.741-5.917
		c-0.342-2.544-0.755-4.458-1.134-5.89c-0.075-0.272-0.159-0.684-0.174-0.89c-0.028-0.415,0.285-0.784,0.734-0.813l8.018-0.546
		c0.953-0.064,1.21,0.403,1.585,3.431l0.562,4.125c0.019,0.276,0.019,0.276,0.033,0.483l0.028,0.414
		c0.114,2.49,0.109,4.919,0.05,7.353c-0.342,9.043-1.913,17.406-4.554,24.108c-2.306,5.847-3.436,7.449-5.006,7.557
		c-1.458,0.1-3.623-2.737-5.503-7.188c-1.609-3.776-2.245-4.843-2.974-4.793c-0.448,0.03-0.742,0.675-1.573,3.367l-1.381,4.535
		c-1.138,3.963-2.17,5.352-3.852,5.466c-1.682,0.114-4.127-2.702-7.658-9.054c-3.269-5.814-5.202-11.858-6.462-20.446
		c-0.314-2.129-0.554-3.986-0.662-5.575c-0.061-0.897-0.066-1.799-0.118-2.559l-0.04-4.716c0.018-3.055,0.349-3.979,1.583-4.062
		l8.41-0.572c0.953-0.064,1.247,0.123,1.309,1.021c0.015,0.207,0.029,0.414-0.018,0.556l-0.27,2.655
		c-0.134,1.327-0.082,4.585,0.21,9.7l-0.014,0.625c0.117,1.727,0.333,3.238,0.6,4.677l0.848,4.176
		c0.661,3.077,0.941,3.891,1.558,3.849c0.897-0.062,1.532-2.324,1.861-6.58c0.372-4.466,0.408-6.411,0.197-9.519
		c-0.137-2.003-0.418-4.481-0.844-7.437c-0.164-0.752-0.258-1.301-0.342-1.711c-0.094-0.549-0.263-1.37-0.277-1.577
		c-0.038-0.553,0.229-0.779,0.958-0.829L292.604,289.142z"/>
	<path fill="#DD3236" stroke="#FFFFFF" stroke-width="2" d="M318.948,333.918c-1.46,0.039-2.085-0.222-2.503-1.11
		c-1.067-2.05-2.122-7.839-2.231-11.922c-0.171-6.367,1.746-16.6,4.229-22.553c0.897-2.171,2.242-4.423,3.978-6.755
		c2.441-3.32,5.354-5.822,6.814-5.861s4.844,2.433,6.998,5.215c1.048,1.356,2.108,3.129,3.178,5.316
		c3.327,6.629,4.301,11.521,4.619,23.355c0.289,10.796-0.365,13.653-3.117,13.727l-6.518,0.175c-1.292,0.034-1.86-0.228-1.882-0.989
		c-0.011-0.415,0.086-0.972,0.184-1.528c1.19-5.918,1.711-9.533,1.647-11.956c-0.045-1.661-0.681-2.337-2.199-2.296
		c-2.865,0.076-6.073,2.032-7.081,4.275c-0.212,0.491-0.365,1.049-0.351,1.603c0.026,0.969,0.346,2.415,0.96,4.337
		c0.554,1.786,0.92,2.885,1.1,3.295c0.538,1.163,0.843,2.125,0.973,2.744c0.015,0.555-0.262,0.7-0.88,0.717L318.948,333.918z
		 M328.652,307.964c0.224-0.006,0.392-0.011,0.505-0.014c0.225-0.006,0.674-0.019,1.914,0.088c0.283,0.062,0.676,0.051,0.789,0.048
		c1.011-0.027,1.337-0.452,1.302-1.767c-0.03-1.106-0.286-2.277-0.764-3.304l-1.078-2.465c-0.662-1.644-1.245-2.391-1.75-2.377
		c-1.012,0.027-2.037,1.647-3.132,4.793c-0.781,2.307-1.189,3.841-1.164,4.811c0.014,0.484,0.3,0.685,1.031,0.665
		c0.11-0.072,0.28-0.008,0.447-0.082L328.652,307.964z"/>
	<path fill="#DD3236" stroke="#FFFFFF" stroke-width="2" d="M374.937,328.99c0.213,1.11,0.315,2.08,0.307,2.842
		c-0.011,1.107-0.691,1.654-1.928,1.642l-19.051-0.201c-2.137-0.022-2.744-0.998-2.708-4.528l0.007-0.623
		c0.004-0.415-0.027-2.77-0.109-5.747c-0.038-1.662-0.076-3.394-0.057-5.263c0.043-4.084,0.249-7.612,0.618-10.655l1.613-14.521
		c0.435-4.011,0.837-4.769,2.242-4.754l8.992,0.095c1.011,0.011,1.292,0.152,1.287,0.637c-0.003,0.277-0.062,0.553-0.235,0.967
		c-2.669,8.003-4.405,18.023-4.49,26.192c-0.059,5.537,1.316,8.529,3.958,8.557c1.517,0.016,3.664-1,5.027-2.439
		c1.138-1.234,1.591-1.575,1.928-1.572c0.619,0.007,0.784,0.285,1.104,1.95L374.937,328.99z"/>
	<path fill="#DD3236" stroke="#FFFFFF" stroke-width="2" d="M396.035,288.229c4.996,0.251,8.607,3.412,11.154,9.848
		c2.297,5.8,3.32,12.297,2.992,18.866c-0.408,8.089-2.667,13.867-6.387,16.246c-1.688,1.094-3.673,1.409-6.928,1.246l-11.394-0.572
		c-2.301-0.115-2.669-0.619-3.019-3.756c-0.599-5.99-0.639-8.558-0.537-15.068c0.055-2.216,0.096-4.154,0.172-5.675
		c0.229-4.563,0.792-10.15,1.228-13.248c0.311-1.717,0.626-3.503,1.06-5.423c0.529-2.677,0.938-3.002,3.071-2.896L396.035,288.229z
		 M392.406,311.198c-0.246,4.909,0.207,10.477,0.931,12.87c0.291,0.915,1.157,1.583,1.999,1.625
		c2.582,0.129,4.554-4.415,4.895-11.191c0.451-8.988-1.953-17.149-5.096-17.308c-1.571-0.079-1.925,1.359-2.457,9.72
		L392.406,311.198z"/>
	<path fill="#DD3236" stroke="#FFFFFF" stroke-width="2" d="M426.214,314.239c-5.132-3.617-7.452-8.288-6.919-13.87
		c0.695-7.304,6.429-11.764,14.15-11.028c3.244,0.309,5.684,1.376,8.347,3.646c1.405,1.247,2.09,2.354,1.998,3.32
		c-0.032,0.344-0.224,1.159-0.438,1.626c-0.717,1.602-1.145,2.534-1.283,2.799c-0.338,0.594-0.846,1.171-1.464,1.737
		c-0.306,0.249-0.549,0.435-0.724,0.487c0,0-0.057-0.005-0.111-0.01c-0.281-0.027-0.541-0.261-0.843-0.637l-0.89-1.337
		c-0.987-1.484-3.106-2.938-4.506-3.071c-2.293-0.218-4.143,1.413-4.365,3.756c-0.205,2.137,0.868,3.907,3.057,5.229l3.732,2.303
		c3.149,1.899,5.786,5.627,6.688,9.189c0.315,1.421,0.388,3.026,0.224,4.749c-0.881,9.233-7.087,15.108-15.145,14.342
		c-7.889-0.752-12.486-6.404-11.717-14.467c0.375-3.928,1.797-6.991,3.195-6.857c0.447,0.042,0.575,0.472,0.717,1.945
		c0.399,4.697,3.91,8.717,7.939,9.101c2.854,0.271,4.716-1.498,5.031-4.806c0.21-2.205-0.639-3.954-2.491-5.243L426.214,314.239z"/>
</g>
</svg>
