<?xml version="1.0" encoding="utf-8"?>
<!-- Generator: Adobe Illustrator 18.1.1, SVG Export Plug-In . SVG Version: 6.00 Build 0)  -->
<svg version="1.1" id="Layer_1" xmlns="http://www.w3.org/2000/svg" xmlns:xlink="http://www.w3.org/1999/xlink" x="0px" y="0px"
	 viewBox="0 0 800 600" enable-background="new 0 0 800 600" xml:space="preserve">
<path fill="#9A9DA3" d="M398.5,100.9c22.3-8.1,46.7-10.7,70.2-6.6c22.8,3.8,44.4,13.3,63.7,25.9c0.8,0.5,1.6,1,2.6,0.8
	c29.5-2.9,59.8,0,87.7,10.2c-0.6-2.3-1.2-4.5-1.8-6.8c4.8,1.4,9.6,2.8,14.3,4.5c18.3,7.3,35,19.6,45.9,36.2c1.2,1.8,2,3.9,3.8,5.3
	c5.3,4.2,10.8,8.1,15.5,13.1c5.3,5.6,10.1,11.8,12.8,19.1c2.1,5.6,2.9,11.8,1.2,17.6c-2.2,8.5-8.9,15-16.1,19.4
	c-5.6,3.6-11.8,5.9-18,8.2c-2.4,2.9-4.8,6-8,8.1c0.2,3.4,0.4,6.8-0.3,10.1c-1.2,6.2-4.4,11.8-8.7,16.3c-4.3,4.3-9,8.7-11.3,14.4
	c-1.6,5.3-1.7,11.3-5.4,15.8c-3.8,4.8-10,6.8-15.9,7.4c-2.6,4-6.6,6.9-11,8.3c-4.7,1.7-9.8,1.7-14.7,2c-0.2,2.2-0.9,4.3-1.8,6.4
	c33.5-4.8,66.9-9.8,100.4-14.6c1-0.1,2-0.2,3-0.3c-8.5,8.9-17.1,17.6-25.7,26.4c-1.7,1.8-3.5,3.3-4.8,5.4c4.4,3.5,7.9,8.1,13.2,10.5
	c6.6,3.1,14,2.7,21.1,2.3c18.7,11.9,31.5,32.9,32.7,55.1c0.2,5.5,0.1,11,0.1,16.4c-1.8-0.9-3.5-1.9-5.3-2.9
	c-9.9,6-21.4,8.8-32.9,9.4c-8.5,0.5-17-0.2-25.3-2c-3.2,14.4-6.1,28.8-9.2,43.2c-112.8,14-225.7,27.8-338.6,41.7
	c-13,1.6-25.9,3.3-38.9,4.7c17.8-11.5,35.7-22.8,53.5-34.2c-89.8,10.4-179.6,21.1-269.4,31.6c9.6-9.4,19.2-18.7,28.8-28
	c3.9-4,8.2-7.7,12-11.9c6.2-28.2,12-56.4,18-84.6c-9.7-8.7-19.6-17.3-29.2-26.2c12.7-2.1,25.4-4.1,38.1-6c-1.8-2.1-4.1-3.7-5.9-5.8
	c-6.5-6.8-11.6-15.2-13.3-24.5c-2-10.7,0.7-21.9,6.2-31.2c5.8-10,14.2-18.4,23.5-25c7.1-5,14.9-9.1,23.3-11.3
	c2.9-0.9,6.1-2.1,7.7-4.8c0.2-3.2-2.6-5.4-4.8-7.2c-4.8-3.7-7.9-9.4-8.5-15.5c-0.3-3-0.1-6.1,0.4-9c0.6-3.7,0.6-7.4,0.9-11.1
	c0.9,0.4,1.9,0.8,2.8,1.2c-2.2-7.2-1.7-15.2,1.3-22c4.2-9.8,12.2-17.2,18.8-25.3c1.1,7.8,0.8,15.9,3.2,23.5
	c2.3,7.8,6.2,15.5,12.9,20.4c3.6,2.6,7.8,4.1,12.2,4.7c2.4,0.1,4.1,2,5.7,3.5c5.6,5.5,10.1,12.4,11.2,20.3c0.7,3.9-0.1,7.9-1.2,11.7
	c10.2-8.7,19.7-18.3,27.5-29.3c3.6-4.9,6.2-10.4,9.5-15.5c9.7-13.7,20.9-26.2,33.2-37.5c-3.3-0.8-6.6-1.7-9.8-2.6
	c8.4-13.1,18.6-24.9,29.7-35.8C350.5,125.8,373.1,110.1,398.5,100.9L398.5,100.9z"/>
<path fill="#041E42" d="M401.1,106.6c11.2-3.9,22.8-6.6,34.6-7.5c5.1-0.1,10.1-0.8,15.2-0.3c21.3,0.7,42.1,7.1,61,16.8
	c7,3.6,13.8,7.8,20.4,12.1c11.9-1.6,24-1.7,36-1.1c21.9,1.3,43.8,6.1,63.8,15.3c-0.6-2.8-1.5-5.5-2.2-8.2
	c16.2,5.8,31,15.7,41.7,29.1c6.8,8.6,11.7,18.8,13.9,29.5c1,4.1,1.3,8.4,1.8,12.5c2.9-2.2,4.2-5.9,4.6-9.4c0.5-4.4-0.7-8.7-1.9-12.9
	c6.5,5.5,12.4,12.1,16.1,19.9c2.9,6.1,3.7,13.5,0.6,19.6c-3.2,6.4-9.2,10.7-15.3,14c-5,2.6-10.2,4.7-15.6,6.3
	c-2.3,3.8-5.3,7.4-9.3,9.5c-0.6,0.5-2.2,0.8-1.6,2c1.7,5.4,1.2,11.3-1.2,16.4c-3.5,8-11.6,12.5-15.9,20.1c-3.5,5-3,11.6-5.6,17
	c-3.2,5.5-10.2,6.4-16,6.3c-1,3.8-4,6.8-7.7,8.2c-6.6,2.6-14,2.2-20.9,1.3c1.6,4.5,1,9.8-2.3,13.4c-5.5,6.1-13.6,8.7-21.4,10.4
	c10.9-1,21.7-3,32.5-4.5c27.5-4,55-8,82.5-12c-8,8.3-16.1,16.6-24.2,24.8c2.4,0.9,5,1.5,7,3.2c2.7,2.2,5,4.7,7.6,6.9
	c3.7,3.1,8.2,5.3,12.9,6.4c5.3,1.3,10.7,1,16.1,1.2c8.1,5.3,14.5,12.9,19.5,21.1c5.9,10,8.8,21.6,8.5,33.2
	c-7.7-4.1-15.2-8.5-22.9-12.5c4.1,5.8,8.7,11.2,12.9,16.9c0.5,0.5,0.8,1.7-0.2,1.9c-12.7,4.9-26.8,5.7-40.2,3.8
	c-4.1-0.5-8-1.7-12-2.3c-1,6.5-2.7,12.9-3.9,19.3c-1.9,8.6-3.5,17.2-5.5,25.7c-91.8,11.2-183.6,22.5-275.4,33.8
	c-23.4,2.9-46.9,5.6-70.3,8.7c8.8-6,17.9-11.5,26.9-17.3c8.7-5.5,17.4-11.2,26.2-16.7c-9.5,0.5-18.9,2.1-28.3,3.1
	c-83.2,9.8-166.4,19.6-249.6,29.4c9.2-9,18.5-18,27.8-26.9c0.8-0.7,1.4-1.7,1.6-2.8c6.1-29.6,12.6-59.1,18.6-88.8
	c-7.5-6.5-14.8-13.2-22.2-19.7c13.7-2.3,27.4-4.5,41.2-6.5c-9.6-5.6-18.9-12.5-24.8-22.1c-4.8-7.4-6.8-16.6-5.2-25.3
	c2-11.4,8.8-21.5,17.1-29.4c8.1-7.8,17.7-14.3,28.4-17.9c4.9-1.4,10.2-2.9,13.5-7.1c2.6-3.2,2.2-7.9,0-11.2c-2.6-4.3-7.8-6.3-9.9-11
	c-2.5-4.7-1.8-10.2-1-15.3c5.3,2.3,10.7,4.9,16.5,5.6c-5.1-3.8-10-8.3-12.5-14.3c-2.4-5.4-2.4-11.7-0.5-17.3
	c1.8-5.5,5.3-10.4,9-14.8c1.5,10.1,4.8,20.4,11.5,28.3c4.6,5.4,10.9,9.4,17.9,10.7c1.4,0.3,3,0.3,4.1,1.4c3.8,3.4,7.1,7.6,9,12.3
	c2.3,5.4,2.1,11.9-0.9,17.1c-3.3,5.9-8.8,10.1-14.5,13.6c-13.7,7.9-28.2,14.2-42.1,21.7c-7.1,3.9-14.2,8.4-19.3,14.8
	c-4.5,5.6-6.4,12.9-6,20c0,6.5,2.6,13,7.4,17.4c6,5.4,14.3,7.8,22.3,7.5c2.6-0.2,5.4-0.4,7.5-2c0.7-2.6,0.6-5.3,1.2-8
	c3.7-21.4,13.1-42,28-58c4.6-5.1,10-9.5,15.5-13.7c13.9-11.1,27.3-23.1,38.1-37.4c4.2-5.4,7.5-11.3,10.8-17.2
	c7.6-11,16.4-21.2,25.9-30.7c5.3-5.2,10.9-10.1,17.4-13.7c-4.7-1.6-9.6-2.5-14.3-4c8.7-12.1,19-23.1,30-33.1
	C359,127.6,379,114.5,401.1,106.6L401.1,106.6z"/>
<path fill="#A6192E" d="M423.1,117.7c19.4-5.2,40-6.4,59.6-1.9c10.3,2.4,20.5,6,29.7,11.4c-6.1,3.8-11.9,8.4-17.2,13.2
	c-2.2,2.3-4.9,4.3-6.5,7.1c-0.3,0.2-0.9,0.5-1.2,0.7c6.1-1.2,12.2-2.9,18.3-3.9c17.6-3.2,35.6-4.9,53.5-4.5
	c25.8,0.5,52,5.5,74.7,18.2c3.9,2.1,7.5,4.8,11.3,7c0.1,0.2,0.4,0.6,0.5,0.8c0.2-2.7,0.1-5.3,0.2-8c2.9,0.6,5.3,2.5,7.7,4.2
	c13.4,9.9,21.4,26.1,22.8,42.6c1.3,10.5-0.2,21.8-6.3,30.8c-4.6,6.8-11.9,11.4-19.7,13.8c-5.8,1.7-12,2.2-18,2
	c0,4.8,1.2,10.3-1.8,14.5c-3.1,4.7-5.4,10-6,15.6c-0.1,1.4,0.4,2.8,0.6,4.1c2.6-4.9,6.4-9.3,11.1-12.2c4.4-3.3,8.2-8,9-13.7
	c0.2-0.7,0.1-1.7,1-1.9c2.1-0.7,4.2-1.2,6.3-1.9c0.7,2.1,0.2,4.4-0.2,6.6c-1,4.7-3,9.3-6,13.1c-3.1,4-7.5,6.7-10.3,11
	c-1.8,2.3-2.7,5.2-3.2,8.1c-0.2-0.2-0.5-0.5-0.7-0.7c-2-0.4-3.9-0.9-6-1.2c-3.7-0.4-7.5,0.2-11.2-0.4c-1.9-0.8-4-1.6-5.5-3.1
	c-4.2-4.8-10.5-7.8-16.9-8.2c-6.8,0-11.6,7.7-9.6,13.9c1.5,5.5,6.4,9,11.3,11.4c0.7,0.1,1.5,0.3,2.3,0.5c-1.4,0.2-2.7,0.4-4,0.7
	c-4.6,0.1-9.3-0.9-13.1-3.4c-2.9-1.9-5.1-4.7-6.9-7.6c-3.8,0.4-7,2.5-10.1,4.6c-4.8,3.5-9.2,7.9-12,13.3c4.1,0.4,8.3,0.5,12.5,0.8
	c5.5,0.9,11.8,1.2,16.2,5c1.6,1.2,1.9,3.3,1.4,5.1c-1.1,2.2-3.2,3.7-5.3,5c-5.8,3.3-12.2,5-18.7,6.4c-2.4,0.4-4.9,0.8-7.3,1.1
	c-3,0.6-6.1,0.1-9.1,0.8c-4.7,0.4-9.3-0.4-14-0.6c-1.8-0.4-3.7-0.4-5.4-0.9c-0.2-0.1-0.6-0.3-0.8-0.4c-0.3-0.3-0.9-0.9-1.2-1.2
	c5.4-1.2,11.1-1.8,16.2-4.2c1.3-0.6,2.7-1.2,4.1-1.6c-3.9,0-7.8,0.9-11.7,0.2c-4.6-0.3-9.2-1-13.4-3c-6.4-3.1-13.6-3.6-20.6-3.3
	c-2.6,0.2-5.1,0.6-7.7,0.6c1.9-1.3,3.5-3,5.7-4c4.4-2.3,9.3-3,14.2-3.3c3-0.1,6.1,0.5,9.1,0.4c8.3-0.5,16.9-1.7,24.4-5.6
	c4.1-9.7,12.2-17.4,21.8-21.5c2-1,4.1-1.6,6.3-1.9c-6.9-0.8-13.7,0.6-20.2,2.5c-6.9,2.2-13.1,6.1-18.3,11.1
	c-8.3-16-21.6-30.1-38.8-36.6c7.8,9,13.6,19.9,16.5,31.5c0.7,2.9,1.5,5.9,1.5,9c-11.2,2.8-21.8,8-31.1,14.9
	c-3.8,2.9-7.5,5.9-10.7,9.5c12.8,0.9,25.9,2.3,37.7,7.8c-1.9,2-4,3.7-6,5.6c-0.3,0.2-0.9,0.5-1.2,0.7c8.1,0.1,16.1-0.2,24.2,0.1
	c10.5,0.9,21.3,1.5,31.3,5.2c-25.1,1.1-50.2,3.6-74.6,9.7l-0.7,0.8c0-0.4-0.1-1.2-0.2-1.6c3.3-2.7,6.6-5.5,9.8-8.2
	c0-0.2,0.1-0.6,0.1-0.8c-19.6-6.1-40.4-6.7-60.7-5c-15.7,1.5-31.2,5-46.3,9.9c-0.8,0.3-1.6,0.6-2.3,0.9c-0.3,0.1-0.9,0.2-1.3,0.3
	c-2.8,1.1-5.7,2-8.5,3.2c-1.4,0.6-2.8,0.9-4.3,0.9c0.3-0.2,1-0.6,1.3-0.7c9.4-11.3,20.6-20.9,31.9-30.3c0.7-0.6,1.6-1.1,2.4-1.6
	c-7-3.6-15.1-4.3-22.8-3.7c-2.2,0.4-4.5,0.8-6.7,1.2c-5.1,1.4-10,3.5-14.5,6.3c-4.2,2.7-8.8,5-13.6,6.4c-5.5,1.7-11.3,1.5-16.9,0.9
	c-3.9-1-7.8-2.5-11.1-4.8c-7.1-5.2-16.1-7.4-24.8-7.7c-3.2,0.4-6.7,0.2-9.7,1.7c-0.4,0.1-1.1,0.2-1.4,0.2c1.9,0.3,3.7,0.8,5.5,1.5
	c11.6,4,22.6,10.5,30.3,20.3c6.4,8.1,9.9,18.3,10.2,28.5c-6.6,1.3-13.4,1.9-20,2.9c-25.5,3.5-51,7.1-76.6,10.6
	c-0.3-4.6-2.1-9.2-5.7-12.1c-4.9-4.2-11.5-5.3-17.6-6.2c-0.4-10.8,1.4-21.5,4.3-31.8c6-21.4,19-41.1,37.3-53.9c1-0.5,2.2-0.7,3.3-1
	c5.5-1.3,10.3-4.4,14.7-7.8c6.7-5.5,12.2-12.4,16.8-19.9c2.8-4.6,5.1-9.4,7.8-14c7.7-12.8,17.2-24.4,27.3-35.4
	c9.8-10.2,20.1-20.2,31.5-28.6c3.2-2.3,6.6-4.6,10.2-6.3c-5.4-2.9-10.9-5.9-16.8-8c0-0.2-0.1-0.6-0.1-0.8
	c18.2-16.8,39.1-30.7,61.9-40.5C408.8,122.2,415.8,119.6,423.1,117.7L423.1,117.7z"/>
<path fill="#04244D" d="M527.9,174.4c9.2-9,21.7-14.4,34.5-15.7c6.6-0.3,13.4-0.4,19.8,1.3c7.5,1.7,14.6,4.8,21.2,8.7
	c0.1,0.4,0.2,1.2,0.3,1.7c-4-0.8-8.1-0.6-12.1-1.2c-3.1-0.3-6.2,0.3-9.3,0.4c-3.9,0.2-7.7,1.1-11.4,2c-0.6,0.2-1.2,0.4-1.8,0.6
	c-6.3,2.1-12.4,6.4-14.7,12.8c-0.2,0.8-0.4,1.7-0.6,2.5c0,1,0,2,0,3c1.7,8,8.3,13.9,15.2,17.7c0,0.7,0,1.4-0.1,2.1
	c-2.8,5.2-7.4,9.4-13,11.4c-2.6,0.6-5.3,1.4-8,1.2c-4.8-0.3-9.3-2-14-2.5c-8.7-1.4-17.9,0.2-25.4,4.9c5.6,0.7,12.5,0.2,16.6,5
	c3.3,3.6,7.8,5.6,12.1,7.7c-2.7,0.1-5.4,0.4-8.1,0.7c-3-0.7-6.2-0.1-9.2-0.8c-6.5-1.1-12.9-3.8-17.3-8.8c-4.4-4.8-6.6-11.3-6.8-17.7
	c4.8,3.6,11.4,3.5,16.9,1.4c3-0.6,6-0.9,9.1-0.9c-2.9-3.8-5.1-8.2-5.1-13C516.1,189.6,521.2,180.7,527.9,174.4L527.9,174.4z"/>
<path fill="#F7F6F5" d="M539.2,173.6c3.7-2.7,7.9-4.6,12.2-6.1c-6.2,4.5-12,10.1-14.6,17.5c-2,5.5-1.6,12.4,2.9,16.5
	c3.1,2.7,7.2,4.8,8.8,8.8c0.7,1.6-0.2,3.5-1.8,4.2c-5.6,0.9-11.9-0.4-15.8-4.7c-4.3-4.9-4.8-11.8-4.1-18
	C528.4,184.3,533.1,177.8,539.2,173.6L539.2,173.6z"/>
<path fill="#04244D" d="M656.4,178.3c1.6,3.1,3.5,6,4.7,9.2c3.4,9.7,4.6,20.2,3.2,30.5c-0.6,7.3-5.2,13.8-11.5,17.4
	c-7.2,4.3-15.8,6.1-24.2,6c4.8-7.8,11-15.1,14-23.9c0.2,1,0.5,1.9,0.8,2.8c1.3,3.3,0.8,6.9,0.8,10.4c5.8-3.6,8.8-10.1,10.6-16.5
	c0.3-1.2,0.5-2.4,0.8-3.5c1.6-8,1.6-16.2,1.3-24.4C656.5,183.7,656.4,181,656.4,178.3L656.4,178.3z"/>
<path fill="#04244D" d="M386,199.1c4.4-0.9,8.9-1.2,13.3-0.8c5,0.7,10,1.8,14.6,3.8c1.5,0.7,3.1,1.4,4.7,2c-7.3,0-14.6,0.5-21.9,1.5
	c-10,1.7-20.5,4.3-28.1,11.4c-5.5,5.2-10.8,10.8-16.4,15.8c-15.1,14.8-32.5,28-52.7,35c-2.5,0.6-3.4,3.3-3.9,5.6
	c-0.6,4.8-0.2,9.8,1.3,14.4c2.9,9.1,9.2,17.2,18,21.1c10.9,5.2,23.5,2.7,34.5-0.9c8.3-3,16.1-7.1,23.4-12c2.7-1.9,6.1-2.1,9.3-2.9
	c5.2-1.1,10.6-1,15.9-0.8c-0.2-1.2-0.5-2.4-0.9-3.6c-7.2-1.4-14.5,0.3-21.7,0.7c-8.5,5-17.1,9.9-26.7,12.5c-8.8,2.4-18.3,3-27,0
	c-7.8-2.6-14.3-8.2-19.2-14.8c1.4,0.2,2.9,0.5,4.2,1.2c8.3,3.9,17.7,5.7,26.7,3.7c13.5-2.6,24.9-11.1,35-20
	c4.1,0.9,7.8,3.2,11.9,4.3c5,1.3,10.3,2.9,15.5,1.5c0.2-4.6,2.7-8.9,6.4-11.7c0.8,0.1,1.6,0.1,2.5,0.2c2.8,0.7,5.7,1.4,8.4,2.8
	c2.8,1.2,5.1,3.2,7.7,4.7c0.1-1,0.7-2.1,0.3-3.2c-0.8-2.9-3.6-4.6-6.1-6.1c-2.2-1.2-4.1-2.9-6.5-3.8c1-0.2,1.9-0.4,2.9-0.6
	c9.8,0.5,19.7,1.2,29.1,4.3c-2.7-1.7-4.8-4.2-7.8-5.4c-4.7-3.2-10.6-1.8-15.9-2.3c-4.8-1.3-8.7-4.6-13.4-6
	c-5.3-1.6-10.8-3.6-16.4-2.9c-1.7,0.2-3.2,1.3-4.4,2.5c-4.5,4.4-9.3,8.7-14.7,12c-1,0.6-2.2,1-3.4,1.1c-7.3,0.4-14.7,0.4-22-1
	c-3.5,1.2-6.8,2.8-10.4,3.7l-0.5,0.2c-2.7,0.7-5.3,1.6-8.1,1.5c6-5.4,12.5-10.5,20.1-13.3c3.8-1.3,7.7-0.6,11.6-0.7
	c3.3,0,6.5,0.6,9.8,0.5c3.4-2.5,6.8-5,9.7-8.2c1.8-1.8,3.4-4.2,6.1-4.9c3-0.7,6.1-1.1,9.2-0.6c6.8,0.7,13.5,2.3,20,4.3
	c3.2,0.9,5.7,3.2,8.9,4c5.2,1.4,10.6,1.3,15.9,2.2c8.2,2.1,16.1,5.3,23.9,8.3c3.9,1.4,7,4.3,10,7.1c4.3,4.3,8.8,8.5,12.2,13.6
	c-0.6,10.1-1.5,20.2-4.5,30c-0.4,1-0.8,2.1-1.2,3.1c-1.1-0.5-2.2-1.1-3.3-1.8c-6.2-4-12.4-8-18.6-11.8c0.1,0.4,0.2,1.1,0.2,1.4
	c3.6,4.5,7.2,9.1,10.8,13.7c1.5,1.9,3.3,3.7,4.2,6c-5.2,0.9-10.7,0.7-15.9,0.2c-12.7-0.6-25.4-2.9-37.7-6.1c-4.2-1-8.2-2.5-12.4-3.4
	c-2.8-3.9-3.7-8.8-5.2-13.2c-5-0.4-9.8,1.2-14.4,3.1c-7,3-13.6,7-20,10.9c-7.7,4.6-16.5,7.2-25.3,8.7c-7.3,1.4-14.9,0.2-21.8-2.4
	c-6.3-2.5-12.3-5.6-17.7-9.7c-2.5-1.9-5.1-4-6.4-6.9c-1.5-3.2-2.8-6.7-5.4-9.3c-0.4-3.6-1.4-7-1.9-10.6c0.8-4.8-1.3-9.9,0.8-14.6
	c2.5-5.7,8.8-8.1,14.3-10.1c4.3-1.3,7.3-4.9,11.1-7.1c11.2-5.5,20.3-14.2,30.4-21.3c4.9-3.5,8.8-8.2,13.4-12.2
	C363.6,209,373.9,201.7,386,199.1L386,199.1z"/>
<path fill="#F7F6F5" d="M692.3,214c4.2-3.6,5.4-9.2,5.7-14.4c2.2,5.2,2.9,11.4,0.1,16.5c-3.8,7.1-11.3,11.3-18.8,13.6
	c1.1-3.7,2.1-7.5,2.8-11.3C685.7,217.5,689.5,216.6,692.3,214L692.3,214z"/>
<path fill="#04244D" d="M576.8,223.1c0.3,0,0.8-0.1,1.1-0.1c1.3,6.9,3.5,14,8.7,18.9c4.5,4.6,11.1,6.1,17.3,5.8
	c-3.5,1.4-6.8,3.1-10.2,4.7c0.2,6.9,0,13.8-2,20.4c-0.3,1-0.6,2.1-0.7,3.1c-1.2-4.7-2-9.5-3.5-14.1c-0.2-0.6-0.4-1.3-0.5-1.9
	l-0.2-0.4c-0.7-2.3-1.7-4.4-2.8-6.5c-2.5,0.1-5.1-0.1-7.5-0.7c-2.4-1.1-4.8-2.6-6.1-5c-1.5-2.8-3-5.8-5.5-7.9
	c-3.4-2.8-7.5-4.8-11.7-5.7c4.3-0.6,8.6-1.1,12.7-2.7C570.1,229.4,573.8,226.6,576.8,223.1L576.8,223.1z"/>
<path fill="#F7F6F5" d="M573.2,244.3c-1.6-3,0.1-6.2,1.3-9c0.9,1.7,1.9,3.4,2.9,5.1c-0.6,0.6-1.7,0.9-1.6,1.9
	c-0.1,2.7,2.4,4.6,4.7,5.4C577.9,247.2,574.7,246.8,573.2,244.3L573.2,244.3z"/>
<path fill="#04244D" d="M474.1,254.8c0.8-0.2,1.6-0.3,2.4-0.5c20.8,1.4,41.6,5,61,12.8c6.2,2.5,12.1,5.6,17.7,9.2
	c0.1,0.2,0.2,0.5,0.2,0.7c-5.6,1.6-11.2,3.4-16.9,4.4c-19.3-12.2-40.9-20.8-63.3-25C474.9,255.9,474.5,255.4,474.1,254.8
	L474.1,254.8z"/>
<path fill="#F7F6F5" d="M407.3,276.8c1.7,1.3,3.4,2.5,5.1,3.7c1,6.7,1.7,13.6,4.3,19.9c6.5,3.8,13.7,6.2,21,8.1l0.4,0.2
	c4.5,1.1,9,2.5,13.5,3.5c0.5,0.1,0.3,0.6,0.3,1l-0.3-0.7c-13.8-0.8-27.6-2.7-40.9-6.8C409.1,296.1,407.8,286.5,407.3,276.8
	L407.3,276.8z"/>
<path fill="#F7F6F5" d="M449,277.8c7.8,8.8,15.7,17.6,23.4,26.5c-8.1-6.7-16.3-13.4-24.3-20.2C448.4,282,448.7,279.9,449,277.8
	L449,277.8z"/>
<path fill="#F7F6F5" d="M591.8,297.1c-0.1-3.3,1.2-7.1,4.6-8.2c3.1,0.1,6,1.3,8.8,2.5c3.3,1.5,6.6,3.4,8.6,6.6
	c5.7-0.6,12.5-0.8,16.9,3.6c-6.3-0.4-12.7-0.9-18.9,0.1c-3.1-4.1-7.6-7.5-12.8-8.5C595.9,292.5,593,294.4,591.8,297.1L591.8,297.1z"
	/>
<path fill="#04244D" d="M179.7,306.8c10.5-5.7,21.3-10.6,31.9-16.1c-15.5,17.8-25.3,40.3-28.2,63.7c-6.4,0.7-13.1-0.7-18.4-4.4
	c-4-2.8-6.4-7.5-6.9-12.3c-0.6-6,0.5-12.4,4.1-17.3C166.7,314.4,173.3,310.5,179.7,306.8L179.7,306.8z"/>
<path fill="#F7F6F5" d="M566,305.7c1.1-0.6,2.1-1.1,3.2-1.7c5.4,2.9,10.2,6.7,14.9,10.7c-7.5-3.3-15.9-4-24-4.1
	c1.5-0.8,2.6-2.7,4.4-2.5c2.8,0.2,5.6,1,8.5,0.9C570.6,308.1,568.2,307,566,305.7L566,305.7z"/>
<path fill="#9A9DA3" d="M515.4,336c1.2,0,2.6-1.1,3.7-0.5c0.3,0.3,0.9,0.9,1.2,1.2c0.2,0.1,0.6,0.3,0.8,0.4
	C519.2,336.6,517.3,336.2,515.4,336L515.4,336z"/>
<path fill="#A6192E" d="M660.8,364.8c6.5,0.3,10.5,6,15,9.9c5.5,5,12.9,6.9,20.1,7.5c-1.7,0.5-3.5,1-5.2,1.5c-1,0-2,0-3-0.1
	c-3.3-0.5-6.5-1.6-9.9-1.6c0.2,0.2,0.6,0.5,0.8,0.7c3.2,5.2,8.5,9,10.7,14.8c-4.5,1.6-8.3,4.5-12.6,6.7c-4.5-7.8-11-15-19.6-18.2
	c-0.2-0.3-0.6-0.8-0.7-1.1C658.1,378.2,659.4,371.5,660.8,364.8L660.8,364.8z"/>
<path fill="#F7F6F5" d="M698.5,389.6c11.9,6.2,21.1,16.4,31.8,24.4c-5.1-2.7-10.1-5.7-14.8-9C709,400.8,703.2,395.7,698.5,389.6
	L698.5,389.6z"/>
<path fill="#04244D" d="M181.7,396.1c3-0.1,6-0.5,9-0.6c1.2-0.1,2.3,0.8,2.5,2c0.4,3.7-0.1,7.3-0.7,11c-1.6,8-3.2,16-6.3,23.5
	c-0.8,1.7-1.5,3.6-3,4.8c-3.3,1.7-7.1,1.8-10.8,2.4c2.2-11.9,5-23.6,7.5-35.5C180.4,401.1,180.9,398.6,181.7,396.1L181.7,396.1z"/>
<path fill="#04244D" d="M169.8,449.6c3.7-0.3,7.4-1.1,11.2-0.6c1.3,0.3,2.8,1,3,2.5c0.6,3.5-0.2,7-0.6,10.5
	c-1.3,6.5-2.1,13.3-5.2,19.3c-1.1,2.2-2.8,4.3-5.2,5c-3.6,1.1-7.3,1.5-11,1.7c2.2-11.8,5-23.5,7.2-35.3l0.2-0.4
	C169.6,451.4,169.7,450.5,169.8,449.6L169.8,449.6z"/>
<path fill="#A6192E" d="M629.2,452c3.6-0.9,7.4-1,11.1-1.6c2.4-0.4,4.8-0.5,7.2-0.4c-2.6,1.4-5,3.2-7.5,4.9
	c-0.3,1.6-0.6,3.1-0.9,4.7c-1.2,5.1-2,10.3-3.2,15.4c-3.6,0.5-7.2,1.5-10.9,1.7c-4.6-2.7-9.1-5.6-13.6-8.4c-2.1-1.2-4.1-3-6.6-3.4
	c-0.1,0.6-0.2,1.2-0.3,1.9c-1.1,4.1-1.7,8.4-2.9,12.5c-3.7,0.6-7.4,1-11.2,1.2c0.2-4.3,1.5-8.3,2.3-12.5c1-4.1,1.6-8.4,2.8-12.4
	c3.4-0.4,6.8-0.6,10.1-1.2c6.3,3.3,12.2,7.3,18.4,10.9c0.7,0.4,1.5,0.6,2.3,0.9c0.8-3.6,1.5-7.3,2.2-10.9
	C628.8,454.2,629,453.1,629.2,452L629.2,452z"/>
<path fill="#A6192E" d="M552,461c9.6-1,19.1-2.9,28.8-3c0.9,0.5,1.8,1.1,2.7,1.6c0.3,4-1,7.9-1.8,11.7c-0.8,3-1,6.2-2.8,8.8
	c-2.4,1.6-5.1,2.6-8,2.9c-8.7,1-17.4,2.2-26.1,3.2c-4.4,0.4-8.8,1.5-13.2,0.9c-1.1-0.2-1.7-1.2-2.5-1.9c0.9-5.5,2.1-11,3.3-16.4
	c0.5-2.5,2.4-4.4,4.7-5.3C541.8,461.8,547,461.8,552,461L552,461z"/>
<path fill="#04244D" d="M544,467.9c9-1.7,18.2-2.5,27.3-3.8c-0.4,4.5-1.9,8.9-2.7,13.3c-8.9,1-17.8,2.7-26.8,3.3c0.3-3,1-6,1.6-9
	C543.7,470.4,543.9,469.1,544,467.9L544,467.9z"/>
<path fill="#A6192E" d="M488.1,469.1c8.7-1.1,17.5-2.1,26.2-3.2c2.3-0.2,4.6,0,6.9,0c0.9,0.9,1.5,2,1.9,3.3c-0.3,1-0.5,1.9-0.7,2.9
	c-3.5,0-7-1-10.5-0.6c-2.5,0.3-4.9,0.6-7.4,1c-5.3,0.7-10.7,1.3-16,2.2c-0.1,1-0.2,2.1-0.2,3.1c5.1,0.1,10-1.2,15-1.5
	c5.3-0.8,10.7-1.5,16-1c0.6,0.5,1.3,1,1.9,1.5c0.1,1.6,0.1,3.3-0.4,4.8c-0.1,0.6-0.2,1.3-0.3,1.9c-1,3.9-4.7,6.2-8.5,6.7
	c-10.8,1.4-21.7,2.7-32.5,4.4c-1.9,0.2-4.1,0.1-5.6-1.3c-1.5-1.5-0.2-3.6,0-5.3c4.7-0.1,9.4,0.4,14.1-0.4c7.2-1,14.3-2,21.5-2.9
	c0.3-1.2,0.6-2.3,0.9-3.5c-6.7,0.6-13.3,1.7-20,2.5c-4.3,0.5-8.7,1.3-12.9-0.1c-0.4-1.2-0.6-2.5-0.6-3.8c0.9-2.6,0.7-5.7,3-7.6
	C482.2,470.1,485.3,469.6,488.1,469.1L488.1,469.1z"/>
<path fill="#A6192E" d="M458.3,472.4c3.2-0.6,6.4-1,9.6-1.1c-1.4,8.4-3.2,16.8-5,25.1c-3.9,0.6-7.8,0.9-11.7,1.2
	c1.4-8.4,3.2-16.7,5-24.9C456.9,472.6,457.6,472.5,458.3,472.4L458.3,472.4z"/>
<path fill="#A6192E" d="M396.3,480.1c12.6-1.7,25.1-3.2,37.7-4.9c3.3-0.3,6.7-0.5,9.9,0.5c1.2,1.7,1.5,3.8,0.6,5.8
	c-0.2,0.6-0.4,1.2-0.6,1.8c-0.8,0.6-1.6,1.2-2.4,1.8c0,0.2,0.1,0.6,0.1,0.8c0.5,0.7,1.4,1.3,1.3,2.2c0,2.5-0.6,5-1.5,7.4
	c-1.4,2.4-4.2,3.4-6.7,4.3c-11.6,2.1-23.5,2.7-35.2,4.2c-1.4,0.2-2.8,0.2-4.3,0.3c0.5-2.8,1.1-5.5,1.8-8.3c0.6-4.1,2.2-8.1,2.2-12.3
	c-1.8-1.1-3.5-2.4-5.5-3.1C394.5,480.5,395.4,480.3,396.3,480.1L396.3,480.1z"/>
<path fill="#04244D" d="M418.2,482.5c5-0.5,10-1.4,15-1.5c0,0.9-0.1,1.7-0.1,2.6c-5.3,1.2-10.8,1.5-16.2,2.3c-2.1,0.1-4.4,1-6.5,0.2
	c0.2-0.9,0.5-1.7,0.7-2.6C413.5,482.9,415.8,482.8,418.2,482.5L418.2,482.5z"/>
<path fill="#04244D" d="M409.5,491.6c7.5-0.5,14.9-2.4,22.5-2.1c-0.2,1.4-0.6,2.8-0.9,4.2c-0.2,0.3-0.6,0.9-0.8,1.2
	c-1.2,0.1-2.4,0.2-3.7,0.4c-6,0.8-12.1,1.5-18.1,2.3C408.7,495.6,409,493.6,409.5,491.6L409.5,491.6z"/>
<g>
	<path fill="#FFFFFF" stroke="#9A9DA3" stroke-width="2" stroke-miterlimit="10" d="M154.7,403c0.5-1.9,0.2-3.2-1.5-4l-7.6-3.2
		c-0.5-0.4-1.8-0.6-1.7-1.1c0.1-0.5,0.8-1,2-1.2l36.1-5.3c30-4.4,43.2,3.2,38.6,22c-4.4,17.8-15.9,25.4-28.1,30.8
		c10.5,1.5,19.6,6.4,15.4,23.6c-5.5,22.5-21.4,35.2-45.1,38.6l-45.3,6.6c-1.2,0.2-1.6-0.2-1.5-0.7c0.1-0.5,1.6-1,2.4-1.7l9.8-5.8
		c2.3-1.4,3.2-2.9,3.7-4.7L154.7,403z M153.2,497.2l9-1.3c12.7-1.9,17-7.9,22.1-28.8c3.7-15.2-0.9-20.1-15.1-18l-4.3,0.6
		L153.2,497.2z M166.7,442l4.3-0.6c14.1-2.1,21.7-9,26.2-27.6c3.9-15.8-0.9-20.1-15.1-18l-4.3,0.6L166.7,442z"/>
	<path fill="#FFFFFF" stroke="#9A9DA3" stroke-width="2" stroke-miterlimit="10" d="M252.7,443.2l4.9-0.7c1.1-0.2,2.1-0.5,2.7-1.2
		l9.8-9.5c0.6-0.5,0.8-0.8,1.5-0.9s0.8,0.1,0.7,0.6l-6.2,25.4c-0.1,0.4-0.4,0.6-1,0.7c-0.9,0.1-1-0.2-1.4-0.6l-5.4-7.6
		c-0.3-0.5-1.1-0.6-2.2-0.5l-4.9,0.7l-8.9,36.4l12.7-1.9c2.9-0.4,5.3-1.5,6.5-3l17.6-24.7c0.3-0.5,1.1-0.8,1.7-0.9
		c0.7-0.1,1,0.2,0.9,0.6l-7.3,30c-0.1,0.6-0.9,1.2-2,1.3l-57.6,8.5c-0.9,0.1-1.2-0.2-1.2-0.5s1.3-0.8,1.8-1.3l7.5-4.4
		c1.8-1.1,2.5-2.2,2.8-3.6l17.7-72.5c0.4-1.4,0.2-2.4-1.2-3.1l-5.8-2.5c-0.4-0.3-1.4-0.5-1.3-0.8s0.6-0.8,1.5-0.9l57.6-8.5
		c0.9-0.1,1.7,0.2,1.5,0.8l-7.3,29.8c-0.1,0.5-0.6,0.8-1.3,0.9c-0.9,0.1-1.5-0.1-1.6-0.6l-6.5-20.7c-0.5-1.4-2.3-1.8-5.2-1.4
		l-12.7,1.9L252.7,443.2z"/>
	<path fill="#FFFFFF" stroke="#9A9DA3" stroke-width="2" stroke-miterlimit="10" d="M313.9,472.8c-0.4,1.4-0.2,2.4,1.2,3.1l5.8,2.5
		c0.4,0.3,1.4,0.5,1.3,0.8s-0.6,0.8-1.5,0.9l-34.9,5.1c-0.9,0.1-1.2-0.2-1.2-0.5s1.3-0.9,1.8-1.3l7.5-4.4c1.8-1.1,2.5-2.2,2.8-3.6
		l17.7-72.5c0.4-1.4,0.2-2.4-1.2-3.1l-5.8-2.5c-0.4-0.3-1.4-0.5-1.3-0.8s0.6-0.8,1.5-0.9l27.8-4.1c23.1-3.4,33.5,1.4,29.8,17
		c-3.2,13.3-13.2,19.9-21.7,23.7c7,1,12.6,4.7,11,11.3l-6.1,25c-0.2,0.8,0.5,1.4,1.5,1.9l6.1,3c0.8,0.3,1.5,0.7,1.5,1.1
		c-0.1,0.4-1.2,0.5-2.3,0.7l-11.6,1.7c-10.2,1.5-13.4-1.5-12.4-5.6l6.3-25.7c1.3-5.3-3.8-8.3-11.5-7.2l-3.8,0.6L313.9,472.8z
		 M323.6,432.9l3.3-0.5c10.9-1.6,16.5-6.9,20-21.3c3-12.2-0.5-15.5-11.4-13.9l-3.3,0.5L323.6,432.9z"/>
	<path fill="#FFFFFF" stroke="#9A9DA3" stroke-width="2" stroke-miterlimit="10" d="M414.1,429.6c0.3-1.2-0.4-1.8-1.8-2.3l-5.5-2
		c-0.8-0.3-0.9-0.6-0.8-1c0.1-0.5,0.8-0.8,2-1l32.9-4.8c0.9-0.1,1.5,0,1.4,0.5c-0.1,0.5-0.6,0.8-1.4,1.4l-7.2,3.8
		c-1.7,0.8-2.6,1.8-2.9,3l-9.2,37.6c-0.1,0.4-0.6,0.7-1.3,0.8c-0.9,0.1-1.7,0-2.1-0.2l-5.9-2.3c-0.8-0.2-1.2-0.3-2.1-0.2
		c-0.7,0.1-1.4,0.3-2.3,0.8c-5.2,3-10,5-14.9,5.8c-27.8,4.1-22.3-23-17.4-43c3.6-14.7,11.5-42.6,38.8-46.6
		c7.3-1.1,11.4,0.1,13.3,0.7c0.8,0.2,2.3,0.4,3.2,0.2c1.1-0.2,3.5-1.3,6-2.7c2.2-1.3,3.7-2,4.8-2.2c1.1-0.2,1.4,0.6,1.1,1.8l-7,28.7
		c-0.1,0.5-0.7,0.9-1.3,1c-0.9,0.1-1.4-0.2-1.7-0.9c-2.5-8.3-8.3-22.3-18.1-20.9c-9.3,1.4-14.8,13.1-21,38.4
		c-8.4,34.4-7.4,40.8,0.6,39.6c6.9-1,12.9-6.3,15.7-17.6L414.1,429.6z"/>
	<path fill="#FFFFFF" stroke="#9A9DA3" stroke-width="2" stroke-miterlimit="10" d="M475.4,410.5l4.9-0.7c1.1-0.2,2.1-0.5,2.7-1.2
		l9.8-9.5c0.6-0.5,0.8-0.8,1.5-0.9c0.7-0.1,0.8,0.1,0.7,0.6l-6.2,25.4c-0.1,0.4-0.4,0.6-1,0.7c-0.9,0.1-1-0.2-1.4-0.6l-5.4-7.6
		c-0.3-0.5-1.1-0.6-2.2-0.5l-4.9,0.7l-8.9,36.4l12.7-1.9c2.9-0.4,5.3-1.5,6.5-3l17.6-24.7c0.3-0.5,1.1-0.8,1.7-0.9
		c0.7-0.1,1,0.2,0.9,0.6l-7.3,30c-0.1,0.6-0.9,1.2-2,1.3l-57.6,8.5c-0.9,0.1-1.2-0.2-1.2-0.5s1.3-0.8,1.8-1.3l7.5-4.4
		c1.8-1.1,2.5-2.2,2.8-3.6l17.7-72.5c0.4-1.4,0.2-2.4-1.2-3.1l-5.8-2.5c-0.4-0.3-1.4-0.5-1.3-0.8c0.1-0.4,0.6-0.8,1.5-0.9l57.6-8.5
		c0.9-0.1,1.7,0.2,1.5,0.8l-7.3,29.8c-0.1,0.5-0.6,0.8-1.3,0.9c-0.9,0.1-1.5-0.1-1.6-0.6l-6.5-20.7c-0.5-1.4-2.3-1.8-5.2-1.4
		l-12.7,1.9L475.4,410.5z"/>
	<path fill="#FFFFFF" stroke="#9A9DA3" stroke-width="2" stroke-miterlimit="10" d="M536,370.4c0.4-1.4-0.1-2.3-1.2-3.1l-4.7-2.7
		c-0.4-0.3-1.4-0.5-1.3-1c0.1-0.2,0.6-0.7,1.5-0.8L557,359c1.6-0.2,2,0.5,2.2,1.6l7.9,48.4l0.4-0.1l11-44.8c0.4-1.4,0.1-2.3-1.2-2.9
		l-5.4-2.7c-0.4-0.3-1.4-0.5-1.3-1c0.1-0.2,0.6-0.7,1.5-0.8l29.4-4.3c0.9-0.1,1.2,0.2,1.2,0.4c-0.1,0.5-1.1,1-1.8,1.4l-6.4,4.3
		c-1.6,1.2-2.5,2.2-2.8,3.6L572.2,442c-0.2,0.8-1,1.4-2.5,1.6l-9.3,1.4c-2,0.3-3.5-0.6-3.7-2.3l-10.1-61.4l-0.4,0.1l-14.5,59.6
		c-0.3,1.4,0.1,2.3,1.4,2.9l5.1,2.7c0.6,0.3,1.4,0.5,1.3,1c-0.1,0.2-0.6,0.7-1.5,0.8l-29.4,4.3c-0.9,0.1-1.2-0.2-1.2-0.4
		c0.1-0.5,1.3-1,1.8-1.4l6.4-4.3c1.6-1.2,2.5-2.2,2.8-3.6L536,370.4z"/>
	<path fill="#FFFFFF" stroke="#9A9DA3" stroke-width="2" stroke-miterlimit="10" d="M653.1,374.8c-0.1,0.4-0.6,0.7-1.5,0.8
		c-0.7,0.1-1-0.2-1.1-0.6c-1.2-9.2-8.2-22.7-18.4-21.2c-5.6,0.8-6.6,3.4-7.4,6.5c-1.4,5.9,0,11.3,11.9,27.7
		c11.3,15.4,12.1,19.1,9.8,28.5c-3.1,12.7-16.3,18.3-24.5,19.5c-6,0.9-9.5,0.1-11.9-0.4c-2.2-0.5-3.5-0.6-4.2-0.5
		c-0.9,0.1-2.9,1.2-7.8,3.7c-1,0.5-2,1.1-2.9,1.2c-0.9,0.1-1.1-0.1-1-0.4l7.4-30.1c0.1-0.4,0.4-0.9,1.3-1c0.7-0.1,1,0.3,1.1,0.6
		c1.7,9,4.9,23.2,18,21.2c4.2-0.6,7.1-3.5,8-7.2c2-8-2.6-15.8-11.8-28.3c-8.7-11.9-10.9-20.3-8.8-29c2.8-11.4,12.8-16.3,24.1-18
		c4.2-0.6,8.8,0,11.8,0.9c1,0.2,2.3,0.4,3.2,0.2c0.9-0.1,3.3-1.3,5.6-2.7c2.2-1.3,3.7-2,5.1-2.2c1.1-0.2,1.4,0.4,1.2,1.1
		L653.1,374.8z"/>
</g>
</svg>
