<?xml version="1.0" encoding="utf-8"?>
<!-- Generator: Adobe Illustrator 18.1.1, SVG Export Plug-In . SVG Version: 6.00 Build 0)  -->
<svg version="1.1" id="Layer_1" xmlns="http://www.w3.org/2000/svg" xmlns:xlink="http://www.w3.org/1999/xlink" x="0px" y="0px"
	 viewBox="0 0 134.5 139.3" enable-background="new 0 0 134.5 139.3" xml:space="preserve">
<g>
	<g>
		<path d="M134.5,14.9l-10,9.3v6.3c5.2-3.8,8.1-1.9,8.5,0.4c0.4,2.3-1.5,5.6-1.5,5.6c0.6,4.7-2.5,7.7-2.5,7.7
			c-0.5,6.3-4.5,8.5-4.5,8.5v6.4l-4.4,4.6l5.5-3.4c0,0,0.6-1.1,1-1.4c0.4-0.4,1.7-0.5,2.4,0.2c0.7,0.7,0.4,2,0.4,2s-8.8,21-9,21.3
			c-0.2,0.4-4.8,1.5-4.8,1.5l-4.1,9.7h-5.4l-9,13.2c-1.1-4.4-8.9-8.4-8.9-8.4L66,122l-11.6-12.7l-15.7,12.7c5.5,5,1.1,8.5-0.4,8.7
			c-1.5,0.1-2.2,1.4-4.2,1.4c-1.2,0-2.4-0.9-3.2-1.6c-2,1.7-8.5,7.1-10.3,8.2c-2.2,1.3-4.2-0.2-5.2-2.1c-1-1.9,1-3.5,1-3.5l3.7-3
			c0,0-1-1.8-1.3-2.5c-0.4-0.8-0.7-1.7-1-2.8c-0.7-3.3,2-4,2-4c0.3-2.2,3.4-3.1,3.4-3.1c1.2-2.4,3.8-2.4,3.8-2.4
			c1.4-1.1,4.2-0.9,4.2-0.9l2.3-4.6c-5.5,0.9-6.1-2.8-6.1-2.8c0.6,0,2.1-1,2.1-1c-1.4-0.6-2-2.7-2-2.7c5,0.1,6.8-3,8.2-5.7
			c1.4-2.7,2.3-6.2,0.4-7.8c-1.8-1.6-5,2-5,2s1.1,1.7-1.4,5.8s-7.2,1.1-7.2,1.1s-8.1,2.3-11.1-4c-3.6-7.6,3.6-13.5,3.6-13.5
			c1.3-6.5,5.3-10.9,5.3-10.9L9.8,59V24.3L0,14.9L134.5,14.9z"/>
		<path fill="#C2CBD3" d="M73.9,41.8c0,0-0.8,3.4-5,3.4c-4.2,0-7.9-0.5-8.8-0.6c-0.8-0.1-2.3,0.3-0.7,0.7c1.6,0.4,6.6,1,11.2,0.5
			c0,0-0.2,3.3-3.6,3.7c-3.4,0.4-9.3-0.6-9.3-0.6s-0.4-0.2-0.6,0.1c-0.2,0.3,0.4,0.5,0.9,0.6c0.5,0.1,5.1,0.9,8.2,0.8
			c0,0-0.4,5-4.8,5c-4.4,0-9.4-1.1-11.6-1.4c-2.2-0.4-6.2-0.7-8.4,1.3c-2.3,2-1.1,5.3,0.4,6.1l-4.2,1.3c0,0-4.1-2.3-1.8-6.9
			c2.3-4.6,11-8.7,16-10.8C56.6,42.8,65.3,41.3,73.9,41.8z"/>
		<path fill="#C2CBD3" d="M22.5,86.6c0,0,2.6-1.8,3.1-4.6c0.6-2.8,1.9-7.9,6.9-10.5c5-2.6,10.4-1.6,11.1,4c0,0-2.9-2-4.9-1.1
			c0,0,2.8,0.6,3.3,2.9c0,0-1.7-1.3-4.3,0.2c0,0,5.6,2.2,5.8,6.3c0,0-2.2-2-5.2-1.9c0,0,3.3,3.1,3.2,8.3c0,0-3.1-4-6-3.9
			c-2.8,0.1-5.8,3.8-5.8,3.8s-1-0.4-0.4-6.4C29.5,83.6,26.8,87.4,22.5,86.6z"/>
		<path fill="#0080C7" d="M25.9,79.2c0,0,1.8-8.6,11.9-9.9s18.8,7.9,15.3,20c0,0-1.7-5.5-3-6.3c0,0,1,6.7-0.6,10.5
			c0,0-1.3-4-2.3-4.5c0,0,1,7.8-4.1,12.4c0,0-0.3-4.5-0.6-4.7c0,0-2.4,4.1-5.4,5.7c0,0-2.4,3.7-5.6,5.7c0,0,4.2,0.4,9.9-6.3l0.2,2.2
			c0,0,1.5-1,2.7-0.4c0,0,1.1-0.8,2.3-0.8c0,0-0.3-3.1,2.2-3.5c0,0,0.7-3.1,3.8-2.2c0,0,0.7-0.6,2.4-0.2c0,0,2.3-3.8,2.9-5.8
			l-1.7,0.5c0,0,5.3-4.3,5.7-11c0.4-6.7-2.9-13.7-12.7-16.6c0,0-8.4-2.9-19.8,3.3C18.1,73.3,18,81.4,18,81.4s1.3-1,2-3.1
			c0.8-2.2,2.4-6.1,6.6-6.3c0,0-3.1,0.9-4.4,4.5C22.3,76.5,24.8,76.3,25.9,79.2z"/>
		<path fill="#0080C7" d="M32.9,56.8c0,0-0.8,4,3.2,6.3c0,0-4.6,1.3-9,3.9c0,0-3.3-2.2-1.5-5.6C27.5,58,32.9,56.8,32.9,56.8z"/>
		<path fill="#ED145B" d="M21.1,78.7c0,0,0.6-1.1,1.1-1.2s3.2,1.3,1.5,6.2C23.7,83.7,24.5,79.8,21.1,78.7z"/>
		<g>
			<g>
				<path fill="#FACA49" d="M27.7,86.8c-1.7,0.9-4.2,1.9-7.3,0.6c-3.1-1.3-2.5-4.6-2.5-4.6s-5.1,2.9-4.8,8.3c0.4,6,6.9,5,6.9,5
					c-0.6-1.8-1.2-3.4,1.4-5.4c2.6-2,6.3-2.6,6.3-2.6L27.7,86.8z M16.7,88.3c-0.1,0.6-1.5,0.8-1.5-0.1c0-0.9,2.1-1.5,2.1-1.2
					C17.3,87,16.8,87.6,16.7,88.3z"/>
			</g>
		</g>
		<path fill="#ED145B" d="M25.1,90.2c0,0,0.1,1.7-0.8,2.6c-0.9,0.9-1.4,1.6-1.4,1.6S22.7,90.2,25.1,90.2z"/>
		<path fill="#FACA49" d="M26.1,90l1.8-0.4c0,0,1.6,2.2,0.6,5.2c-1.1,3-2.8,3.6-4.8,2.2C23.7,97.1,25.9,95.9,26.1,90z"/>
		<path fill="#FFFFFF" d="M20.6,80.2c0,0,0.2-1.8,0.9-1.8c0.5,0,2.6,1.1,2.5,3.5c0,0.4-0.1,1.4-0.5,2.2c-0.4,0.7-1.2,1.3-1.6,1.4
			c-0.6,0.3-1.3,0.3-2-0.2c0,0-0.6-0.4-0.6-2.3c0,0,1.9,2.8,3.8,0.7C24.8,81.7,22.1,79.7,20.6,80.2z"/>
		<path fill="#FFFFFF" d="M20.1,82.5c0,0,1.4-0.1,1.4,0.5C21.4,83.6,20.4,83.9,20.1,82.5z"/>
		<path fill="#FACA49" d="M39.8,105.8c0,0-0.1,2.2-0.4,2.7c-0.4,0.5-0.5,1.4,0.1,2.5c0.6,1.1,1.2,2.3,0.6,3.9c0,0-0.9-1.6-2.4-1.4
			c-1.5,0.2-2.2,3.2-1.9,5.4l-2.7,2.5c0,0-1.2-1-2-0.4c-0.8,0.6-1.1,1-1.1,1s-0.4,0.6-0.9-0.2c-0.5-0.9-3.1-1.1-2.9,1.7
			c0,0-0.9-0.7-1.9-0.4c-1,0.4-1.4,1.5-0.6,2.7c0,0,0.2,0.2-0.4,0.7c0,0-0.9-1.6-2.9-0.1c0,0-0.6-0.6-0.6-1.6
			c-0.1-1.1,1.3-1.6,1.3-1.6l1.2,1.4c0,0-0.1-2.2,0.2-2.9c0.4-0.7,1.4-0.8,2-0.6c0.6,0.2,1.3,0.6,1.6,0.3c0,0-0.7-0.9-0.7-2.1
			c0-1.2,1.7-1.3,2.8-0.7c0,0,0.4-0.9,1.2-0.9c0.8,0,1.4,0.6,1.4,0.6s0.6,0.3,1-0.5c0.4-0.8,3.1-3.8,4-6.5c0.9-2.7,1.3-3.8,1.3-3.8
			L39.8,105.8z"/>
		<path fill="#FACA49" d="M37.2,123.8v1.8c0,0,1.6,0.6,1.2,2.2c-0.3,1.6-2.2,1.6-2.2,1.6s0.3-2.3-1.4-2.3l0.2-1.6L37.2,123.8z"/>
		<path fill="#FACA49" d="M61.3,88.1l1.7,2.7c0,0,0.9,1.3,0.8,2.7c0,0-1.2-1.2-2.8-0.6c-1.6,0.6-1.2,4.4-1.1,5.9l-2.1,1.8
			c0,0-1-1-1.6-1c-0.6,0-1.4,0.6-1.5,1.1c-0.1,0.4-0.6,1.6-1.6,0.9c-1.1-0.6-2.9-1.2-3,1.2c0,0-2.2-0.6-2.4,2c0,0-3.2-1-2.7,2.4
			c0,0-1.6-1.6,0-3.4c0,0,0.9-0.8,2.2-0.4c0,0,0.1-5,2.6-2.9c0,0-0.6-3.2,2.7-2.6c0,0,1-1.3,2.9-0.2c0,0,3.4-5.7,3.8-7.8L61.3,88.1z
			"/>
		<path fill="#FACA49" d="M62.4,103.4c0,0-0.1,1.7,0.1,2.4c0.2,0.7,0.9,1.4,0.5,2.6c-0.4,1.2-1.7,1.1-1.7,1.1s0.6-1.1,0.2-1.9
			c0,0-0.3-0.6-1.2-0.4c-0.9,0.2-1.4-0.1-0.9-0.9c0.6-0.7,1.1-0.4,1.2-1C60.6,104.7,61.1,104,62.4,103.4z"/>
		<path fill="#0080C7" d="M75,68.7c0,0,2.9,6.2,9.4,9.4c0,0,1.1-2.7,0.9-5.7C85.3,72.4,78.9,70.6,75,68.7z"/>
		<path fill="#0080C7" d="M83.1,79.5c0,0-3.7-2.6-6.4-6c-2.6-3.4-5-6.9-15.1-10.1c0,0-5.3-2-10.9-1c0,0,9.5,3.4,12.2,10.4
			c2.4,6.1,1.1,9.4,1.1,9.4s-0.4,1.8,0.5,3.3c0.9,1.5,1.5,2.8,1.2,3.1c-0.3,0.3-2.6-1-2.6-1s0.7,3,1.5,3c0.7,0,3.4-0.5,5.9-0.4
			L83.1,79.5z"/>
		<path fill="#0080C7" d="M89.2,81.5l-5.5,4.4c0,0,9,5,25.7,4.1l2.6-6.6C112,83.4,99.3,85.2,89.2,81.5z"/>
		<path fill="#0080C7" d="M82.2,87.2l-4.1,3.4c0,0,14.6,4,19.7,10.7l5.6-9.1C103.4,92.1,91.2,91.5,82.2,87.2z"/>
		<path fill="#0080C7" d="M94.3,74.4c0,0-0.6,2.9-1.6,4.1c-1,1.2-2.3,1.9-2.3,1.9s11.8,3.4,27.4-0.2l4.9-12.8
			C122.8,67.4,110.8,75,94.3,74.4z"/>
		<path fill="#0080C7" d="M95.2,60.8c0,0-0.9-8.5-3.3-13.5c0,0-0.5-2-3-1.5c-2.5,0.5-5.7,2.2-5.7,2.2s-1.6,0.9-1.1,2.8
			c0.5,1.9,2.4,7.5,2.7,10.4c0,0-6.7-0.4-9.7-1.2c-2.9-0.8-6.6-0.7-5.6,3.8c0,0-8-6.2-26.6-2.6c0,0-2.8-1.4-1.6-4.3
			c1.2-2.9,6.5-2,8.1-1.9c1.6,0.1,7,1.2,9.6,1.3c2.6,0.1,6.8-0.2,7.7-5.7c0,0,3.3,0.1,4.7-4.6c0,0,3.2-1.3,3.8-4.1
			c0,0,15.3,1.5,28.8-1.6c13.5-3.2,19.4-6.1,24.5-8.7c0,0,1.7-1.4,1.6,0.2c-0.1,1.5-1.1,7.1-12.8,12.4c-10.7,4.8-23.6,5.1-23.6,5.1
			s-0.5,1.6,5.5,1.1c5.9-0.5,21.3-2.9,30.1-13c0,0,0.7,6.5-9.3,11.7c-10,5.3-17.4,5.9-24.4,6.7c0,0,0.2,1.3,5.9,0.4
			c5.7-0.9,15.2-2.1,25.1-10.7c0,0-0.1,4.4-8,8.8C110.2,59,103.4,59.6,95.2,60.8z"/>
		<path fill="#C2CBD3" d="M92.5,52.6c0,0-1.1-3.7-1.5-4.6c-0.4-0.9-1.1-1.1-2.5-0.6c-1.4,0.4-3.9,1.5-3.9,1.5s-1.6,0.7-1.1,1.9
			c0.4,1.2,1.6,4.9,1.6,4.9S88.6,56.3,92.5,52.6z"/>
		<path fill="#FFFFFF" d="M94.3,63.5L86.1,61c0.2,0.9,0.3,1.7,0.4,2.5l7.8,2.3c0-0.7,0-1.5,0-2.2C94.3,63.5,94.3,63.5,94.3,63.5z
			 M86.7,70.2l6.9,1.9c0.1-0.6,0.3-1.5,0.4-2.8l-7.3-2.1C86.8,68.3,86.8,69.3,86.7,70.2z M94.1,60.4l-8.8-2.7
			c0.3,0.9,0.5,1.8,0.6,2.7l8.3,2.5C94.3,62.1,94.2,61.2,94.1,60.4z M86.7,66.7l7.3,2.1c0.1-0.8,0.1-1.7,0.2-2.6L86.5,64
			C86.6,64.9,86.7,65.9,86.7,66.7z M86.5,73.9c4.5,0.2,7-1.2,7-1.2c0,0,0-0.1,0.1-0.2l-6.8-1.9C86.7,72.7,86.5,73.9,86.5,73.9z
			 M93.6,57.2l-4.9-1.5c-2,0.7-3.7,0.9-3.7,0.9c0.1,0.2,0.2,0.5,0.2,0.7l8.9,2.7C93.9,58.9,93.8,58,93.6,57.2z M92.7,53.4
			c-1,0.9-2.2,1.6-3.3,2l4.2,1.3C93.1,54.7,92.7,53.4,92.7,53.4z"/>
		<path fill="#C2CBD3" d="M86.5,74.5c0,0,5,0.2,7.1-1.4c0,0-0.8,4-1.6,5c-0.8,1-35.7,29.4-35.7,29.4l-0.9-0.2l-0.1,0.8l-24.2,19.8
			l-0.6-0.5l-0.2,1L19.7,137c0,0-0.6,0.7-1.2,0.2c-0.6-0.5-1.1-1.3-1.1-1.3s-0.4-0.6,0.4-1.3c0.8-0.7,5.3-4.2,5.3-4.2s3,0.1,3.8-1.4
			l-1.9-0.5l0.6-0.6c0,0,1.8,0.9,4.2-0.2c0,0-1.2-0.6-1.9-1.4l0.3-0.4c0,0,2.2,1,4.1-0.1l-2.1-1.3l18.1-15c0,0,1.8,0.1,3.2-1
			l-0.8-0.6c0,0,2.8,0,3.4-0.6c0,0-1.4-1-1.9-1.8c0,0,3.5,1,4.2,0.3l-1.5-1.8l31.1-26.1C85.8,78.3,86.4,76.1,86.5,74.5z"/>
		<path fill="#FFFFFF" d="M47.8,109.6c0,0-0.9-0.8-1.9-1.1c-1-0.3-2.1-1.3-1.8-4c0,0-1.3,0.1-1.4,1.2c-0.1,1.1,0.9,2.4,1.8,2.9
			c0,0-1.3-0.2-2-0.6c-0.7-0.4-0.7-0.4-1.2,0.2c-0.5,0.7,0.1,2.2,0.4,3.2c0.3,1.1,0.6,2.7,0.6,2.7L47.8,109.6z"/>
		<path fill="#FFFFFF" d="M37.4,118.1l2.3-2c0,0-0.1-1-0.9-1.3C37.9,114.6,37.2,116,37.4,118.1z"/>
		<polygon fill="#FFFFFF" points="32.9,121.8 32,121.6 30.2,123.4 30.3,124 		"/>
		<path fill="#FFFFFF" d="M30.4,125.8c0,0-1.4-0.9-1.7-2.5c-0.3-1.6-1.1-1.6-1.7-1.3c-0.6,0.4-0.1,1.6,0.6,2.5
			C28.2,125.5,29.5,125.9,30.4,125.8z"/>
		<path fill="#FFFFFF" d="M28,127.6c0,0-1.7-1.1-2-2.3c-0.4-1.3-1-1.9-1.7-1.6c-0.7,0.3-0.6,1.6,0.4,2.7
			C25.7,127.5,26.6,127.6,28,127.6z"/>
		<path fill="#FFFFFF" d="M25.9,129.3c0,0-1.8,0-2.6-1.4c-0.8-1.4-1.4-1.8-2.2-1.1c-0.8,0.7,0.2,2.3,1.7,2.7
			C24.2,129.8,25.3,129.6,25.9,129.3z"/>
		<ellipse fill="#FFFFFF" cx="27.4" cy="125.6" rx="0.3" ry="0.4"/>
		<path fill="#FFFFFF" d="M34.6,126.4l-1.8,1.5c0,0,1.6-0.1,1.8-0.3C34.8,127.5,34.6,126.4,34.6,126.4z"/>
		<path fill="#FFFFFF" d="M35,127.8c0,0-1,1-3.6,0.7c0,0,0.4,1.3,2.4,1.6C35.7,130.4,35.9,128.6,35,127.8z"/>
		<path fill="#FFFFFF" d="M56.2,108.3c0,0,0.4,1.4,2.5,1.3c2.1-0.2,2.1-1,2-1.5c-0.1-0.5-0.8-0.2-1.6-0.1
			C58.3,108.2,57.2,108.4,56.2,108.3z"/>
		<path fill="#FFFFFF" d="M54.8,105.7c0,0-1.3-1.2-1.6-2.5c-0.3-1.3-1.1-1.7-1.8-1.5c-0.7,0.2-0.9,0.9,0,2.1
			C52.3,105,53.3,105.5,54.8,105.7z"/>
		<path fill="#FFFFFF" d="M52.3,107.5c0,0-1.3-1.3-1.6-2.5c-0.3-1.2-1-1.6-1.8-1.2c-0.8,0.3-0.7,1.4,0.2,2.2
			C50,106.9,50.8,107.5,52.3,107.5z"/>
		<path fill="#FFFFFF" d="M49.9,108.8c0,0-1.6-0.7-2.2-2.2c-0.6-1.6-1.2-1.6-2-1c-0.7,0.6,0.3,2.1,1.1,2.7
			C47.6,108.8,48.7,109,49.9,108.8z"/>
		<polygon fill="#FFFFFF" points="48.7,106.5 48.4,106.8 49.3,107.8 49.7,107.5 		"/>
		<g>
			<polygon stroke="#000000" stroke-width="0.2735" points="31.3,19.8 12,19.8 16,24.3 16,56.7 21.9,62.9 22.2,62.9 22.2,42.1 
				26.8,42.1 29.1,45.4 29.1,37.7 22.2,37.7 22.2,23.7 26.1,23.7 31.3,28.9 			"/>
			<g>
				<g>
					<path d="M39.1,19.8l-6.9,0l2,2.8l-4.9,30c0,0,3.2-2.5,6.2-3.7l0.6-5.5l4.3-2.4l1.3,3.3c0,0,3.5-1.9,5.3-2.4L39.1,19.8z
						 M36.7,38l0.9-5.7l1.7,4.8L36.7,38z"/>
				</g>
				<g>
					<path fill="none" stroke="#000000" stroke-width="0.2735" d="M39.1,19.8l-6.9,0l2,2.8l-4.9,30c0,0,3.2-2.5,6.2-3.7l0.6-5.5
						l4.3-2.4l1.3,3.3c0,0,3.5-1.9,5.3-2.4L39.1,19.8z M36.7,38l0.9-5.7l1.7,4.8L36.7,38z"/>
				</g>
			</g>
			<path stroke="#000000" stroke-width="0.2735" d="M42.9,19.8l2.8,3.1v13.4l2.3,5c0,0,5-1.7,9.6-2.9v-9.7h-0.4l-4.8,6.4l-1.8,0.4
				V19.8L42.9,19.8z"/>
			<path stroke="#000000" stroke-width="0.2735" d="M59.9,19.8l2.7,3.2l-4.4,7v4.4l2,3.2c0,0,4.5-0.9,10.9-0.9l2-7.2l-3.9,3
				c0,0-4-0.1-7.1,0.3l4.9-7.9l1.6,3.1l4.2-1.7L70,19.8L59.9,19.8z"/>
			<g>
				<g>
					<path d="M86.7,22.3L81,19.7l-6.9,8.1l-1.7,6.1l1.8,3c0,0,3.4,0.4,8.7,2.4l4-2.6L86.7,22.3z M76.9,33l5-7l0.2,8.8
						C80.9,34.4,76.9,33,76.9,33z"/>
				</g>
				<g>
					<path fill="none" stroke="#000000" stroke-width="0.2735" d="M86.7,22.3L81,19.7l-6.9,8.1l-1.7,6.1l1.8,3c0,0,3.4,0.4,8.7,2.4
						l4-2.6L86.7,22.3z M76.9,33l5-7l0.2,8.8C80.9,34.4,76.9,33,76.9,33z"/>
				</g>
			</g>
			<polygon stroke="#000000" stroke-width="0.2735" points="85.6,19.9 88.3,23 88.2,42.3 92.9,44.6 93.1,34.2 96.8,47 102.3,50.7 
				102.3,19.9 94.3,19.9 96.7,22.8 96.7,28.1 93.4,19.9 			"/>
			<path stroke="#000000" stroke-width="0.2735" d="M121.5,19.9l-4.2,4.1v5.5c0,0-2.1-1.1-4.8-1.7v-3.2l-0.7-0.7l-2.2,0l-0.6,0.8
				v9.8l8.3,3.7v19.4l-5.9,4.7c0,0-4.4-7.8-8.2-10v-9l5.4,2.6v5.5l3.7,3.6V41.5l-8.4-4.4V22.9c0,0,0.9-3,2.7-3
				S121.5,19.9,121.5,19.9z"/>
		</g>
		<g>
			<polygon fill="#FFFFFF" points="31.3,19.8 12,19.8 16,24.3 16,56.7 21.9,62.9 22.2,62.9 22.2,42.1 26.8,42.1 29.1,45.4 
				29.1,37.7 22.2,37.7 22.2,23.7 26.1,23.7 31.3,28.9 			"/>
			<g>
				<g>
					<path fill="#FFFFFF" d="M39.1,19.8l-6.9,0l2,2.8l-4.9,30c0,0,3.2-2.5,6.2-3.7l0.6-5.5l4.3-2.4l1.3,3.3c0,0,3.5-1.9,5.3-2.4
						L39.1,19.8z M36.7,38l0.9-5.7l1.7,4.8L36.7,38z"/>
				</g>
			</g>
			<path fill="#FFFFFF" d="M42.9,19.8l2.8,3.1v13.4l2.3,5c0,0,5-1.7,9.6-2.9v-9.7h-0.4l-4.8,6.4l-1.8,0.4V19.8L42.9,19.8z"/>
			<path fill="#FFFFFF" d="M59.9,19.8l2.7,3.2l-4.4,7v4.4l2,3.2c0,0,4.5-0.9,10.9-0.9l2-7.2l-3.9,3c0,0-4-0.1-7.1,0.3l4.9-7.9
				l1.6,3.1l4.2-1.7L70,19.8L59.9,19.8z"/>
			<g>
				<g>
					<path fill="#FFFFFF" d="M86.7,22.3L81,19.7l-6.9,8.1l-1.7,6.1l1.8,3c0,0,3.4,0.4,8.7,2.4l4-2.6L86.7,22.3z M76.9,33l5-7
						l0.2,8.8C80.9,34.4,76.9,33,76.9,33z"/>
				</g>
			</g>
			<polygon fill="#FFFFFF" points="85.6,19.9 88.3,23 88.2,42.3 92.9,44.6 93.1,34.2 96.8,47 102.3,50.7 102.3,19.9 94.3,19.9 
				96.7,22.8 96.7,28.1 93.4,19.9 			"/>
			<path fill="#FFFFFF" d="M121.5,19.9l-4.2,4.1v5.5c0,0-2.1-1.1-4.8-1.7v-3.2l-0.7-0.7l-2.2,0l-0.6,0.8v9.8l8.3,3.7v19.4l-5.9,4.7
				c0,0-4.4-7.8-8.2-10v-9l5.4,2.6v5.5l3.7,3.6V41.5l-8.4-4.4V22.9c0,0,0.9-3,2.7-3S121.5,19.9,121.5,19.9z"/>
		</g>
	</g>
	<polygon points="115.6,16.1 18.9,16.1 5.4,0 129.1,0 	"/>
</g>
<g>
	<g>
		<path fill="#FFFFFF" d="M35.7,5.8h-6.6v2.5h5.2v2.1h-5.2v4.4h-3.4V3.6h10V5.8z"/>
		<path fill="#FFFFFF" d="M42.6,15c-1.9,0-3.4-0.6-4.4-1.7c-1-1.1-1.6-2.5-1.6-4.1c0-1.6,0.5-3,1.6-4.1c1.1-1.1,2.5-1.7,4.5-1.7
			c2,0,3.4,0.6,4.4,1.8c1,1.2,1.5,2.5,1.5,4c0,1.6-0.5,3-1.5,4.1C46.1,14.5,44.6,15,42.6,15z M42.7,5.6c-1.7,0-2.6,1.2-2.6,3.6
			c0,2.4,0.9,3.7,2.6,3.7c1.7,0,2.5-1.2,2.5-3.6C45.3,6.8,44.4,5.6,42.7,5.6z"/>
		<path fill="#FFFFFF" d="M60.6,6.1l-2.8,0.8c-0.4-0.9-1.2-1.3-2.4-1.3c-1.3,0-2,0.3-2,1c0,0.3,0.1,0.5,0.4,0.7
			c0.2,0.2,0.8,0.3,1.7,0.5c1.4,0.2,2.5,0.5,3.2,0.7c0.7,0.2,1.2,0.6,1.7,1.1c0.5,0.5,0.7,1.1,0.7,1.8c0,1-0.5,1.9-1.5,2.6
			c-1,0.7-2.4,1.1-4.4,1.1c-1.4,0-2.7-0.3-3.7-0.8c-1-0.5-1.7-1.3-2-2.3l3.1-0.6c0.3,1.1,1.3,1.6,2.9,1.6c0.8,0,1.3-0.1,1.7-0.4
			c0.4-0.2,0.6-0.5,0.6-0.8c0-0.3-0.2-0.6-0.5-0.8c-0.3-0.2-1-0.4-1.9-0.5c-1.8-0.3-3.1-0.7-3.8-1.2C50.6,8.7,50.2,8,50.2,7
			c0-1,0.5-1.8,1.4-2.5c0.9-0.7,2.1-1,3.7-1C58,3.4,59.8,4.3,60.6,6.1z"/>
		<path fill="#FFFFFF" d="M72,3.6v2.2h-3.5v9h-3.3v-9h-3.5V3.6H72z"/>
		<path fill="#FFFFFF" d="M83.5,5.7h-6.7V8h5.3v2.1h-5.3v2.5h6.7v2.2H73.5V3.6h10.1V5.7z"/>
		<path fill="#FFFFFF" d="M88.8,10.4v4.5h-3.3V3.6h6.2c1.1,0,2.1,0.1,2.7,0.3c0.7,0.2,1.3,0.6,1.7,1.2c0.5,0.6,0.7,1.2,0.7,1.9
			c0,1.4-0.8,2.3-2.4,2.9l2.6,5h-3.6l-2.2-4.5H88.8z M88.8,5.6v2.9h2c0.7,0,1.1,0,1.4-0.1c0.3-0.1,0.6-0.2,0.8-0.5
			c0.2-0.3,0.4-0.5,0.4-0.9c0-0.3-0.1-0.6-0.4-0.8c-0.2-0.2-0.5-0.4-0.8-0.5c-0.3-0.1-0.8-0.1-1.5-0.1H88.8z"/>
		<path fill="#FFFFFF" d="M109.1,6.1l-2.8,0.8c-0.4-0.9-1.2-1.3-2.4-1.3c-1.3,0-2,0.3-2,1c0,0.3,0.1,0.5,0.4,0.7
			c0.2,0.2,0.8,0.3,1.7,0.5c1.4,0.2,2.5,0.5,3.2,0.7c0.7,0.2,1.2,0.6,1.7,1.1c0.5,0.5,0.7,1.1,0.7,1.8c0,1-0.5,1.9-1.5,2.6
			c-1,0.7-2.4,1.1-4.4,1.1c-1.4,0-2.7-0.3-3.7-0.8c-1-0.5-1.7-1.3-2-2.3l3.1-0.6c0.3,1.1,1.3,1.6,2.9,1.6c0.8,0,1.3-0.1,1.7-0.4
			c0.4-0.2,0.6-0.5,0.6-0.8c0-0.3-0.2-0.6-0.5-0.8c-0.3-0.2-1-0.4-1.9-0.5c-1.8-0.3-3.1-0.7-3.8-1.2C99.1,8.7,98.7,8,98.7,7
			c0-1,0.5-1.8,1.4-2.5c0.9-0.7,2.1-1,3.7-1C106.5,3.4,108.3,4.3,109.1,6.1z"/>
	</g>
</g>
</svg>
