<?xml version="1.0" encoding="utf-8"?>
<!-- Generator: Adobe Illustrator 18.1.1, SVG Export Plug-In . SVG Version: 6.00 Build 0)  -->
<svg version="1.1" id="Layer_1" xmlns="http://www.w3.org/2000/svg" xmlns:xlink="http://www.w3.org/1999/xlink" x="0px" y="0px"
	 viewBox="0 0 162.1 138.6" enable-background="new 0 0 162.1 138.6" xml:space="preserve">
<g>
	<path d="M19,122.1c-5.8-6.6-6.3-12.5-1.7-19.7c3.2-5.1,8-8.1,10.4-9.4c-4.5-9.2-5.2-20.5-5.2-25.3l-10.3,4.1l3.3-10L2.3,57.9
		l14.3-6.5L0,40l36-8.1C53.6,11.5,75,10.7,75,10.7l1.1,1.7l0.7-1.7c39.6-3.8,55.7,30.9,55.7,30.9l4.5,2.9c0.9,0.7,1.9,1.6,2.6,2.4
		c1.7,1.9-0.2,6.6-2.2,10.4c1.8,5.5,1,14.3,0.1,20.6c-0.1,0.5-0.1,0.8-0.1,1c-0.1,0.9,0,3.5,0.1,5.4l20.8-1.7l-30.2,21.9
		c0,0-12.6,17.6-34.5,22.4c-19.3,4.2-35-2.2-35-2.2s-5,11.5-20.1,8.6C28,131.1,19,122.1,19,122.1z"/>
	<path fill="#E8C43A" d="M153.3,84.5L136,85.9c0,0-0.3-5.6-0.1-7.2c0.1-1.6,2.5-15.1-0.1-21.6c0,0,4.2-7.6,2.7-9.2
		c-1.4-1.6-4-3.5-4-3.5l-3.3-2.1C113.6,8,77.6,11.9,77.6,11.9l-1.4,3l-1.6-3c-25.5,3.5-37.4,21.4-37.4,21.4L3.8,40.8l15.9,11
		l-13,5.9l10.7,3.2l-2.7,8.4l9.4-3.8c0,0-0.7,16.6,5.8,28.3c0,0-7.1,2.9-11.3,9.5c-4.2,6.6-3.8,11.8,1.6,17.9
		c5.3,6.1,15.1,10.1,21.2,10.8c0,0,10.4,1.5,15.5-7.5l1.1-2.3c0,0,20.7,9.5,42.1,0.7c20.3-8.3,27.1-20.2,27.1-20.2L153.3,84.5z"/>
	<path fill="#7C2336" d="M129.8,87.5c0,0,8.9-20.4-2.4-41.7c0,0-8.4-12.5-14.4-18c-6-5.5-20.1-12-34.9-11.2l-1.4,3.6l-2.2-3.7
		c0,0-24.6,3.5-38,26.5c0,0-19.2,19.2-2.1,51.9c0,0,20,37,61,23.4C116.2,111.3,125.8,95.4,129.8,87.5z"/>
	<g>
		<path fill="#FFFFFF" d="M115.1,96.4c0,0-8.4,11.8-26.3,15.7c-17.9,3.9-31.3-5.9-31.3-5.9l0.9-2.3c0,0,14-3.5,18.3-5.3
			c4.3-1.7,9.2-6.2,0.7-9.7c0,0,3.1-1.4,7-1.1c3.9,0.3,5.1,2.2,5.1,2.2s-1.8,0.9,0.5,1.3c2.3,0.4,4,0.6,3.7,2
			c-0.3,1.4-0.9,3.2,0.1,3.1c1.1-0.1,5.1-2.8,6.7-3.4c1.6-0.7,5,0,3.7,0.6c-1.2,0.7-3.7,2-3.7,2s5.7,0.3,4.9,2.5
			c-0.9,2.2-0.1,3.4,1.5,2.3c1.6-1.1,3.9-2.4,5.7-3.6C114.3,95.5,115.1,95.4,115.1,96.4z"/>
		<path fill="#808285" d="M94.3,97.3c-7.7-3.4-15.6,2.9-17,8.4c0,0,6.3-6.7,13.5-3.7c4.9,2,6.8,5.2,7.5,7c1.3-0.6,2.5-1.2,3.7-1.8
			C101.8,105.5,100.8,100.2,94.3,97.3z"/>
	</g>
	<g>
		<g>
			<g>
				<path fill="none" stroke="#000000" stroke-width="8.567" d="M51,131c0.2-0.9,0.5-1.9,0.7-2.8c1,0.3,2,0.5,3,0.7
					c0.8-3.7,1.6-7.3,2.4-11c-0.9-0.2-1.8-0.4-2.7-0.6c0.2-0.9,0.5-1.9,0.7-2.8c5.4,1.4,10.8,2.2,16.1,2.5c-0.1,1.7-0.2,3.5-0.3,5.2
					c-1.2-0.1-2.4-0.2-3.7-0.3c0.1-0.8,0.2-1.6,0.2-2.4c-1.9-0.2-3.7-0.4-5.6-0.8c-0.2,1.3-0.4,2.6-0.6,3.9c1.4,0.2,2.8,0.4,4.2,0.6
					c-0.1,0.9-0.2,1.9-0.3,2.8c-1.4-0.2-2.9-0.4-4.3-0.6c-0.2,1.5-0.5,2.9-0.7,4.4c1.1,0.2,2.1,0.3,3.2,0.5
					c-0.1,0.9-0.3,1.9-0.4,2.8C59,132.8,55,132,51,131z"/>
				<path fill="none" stroke="#000000" stroke-width="8.567" d="M71.5,134.1c0-1,0.1-1.9,0.1-2.9c1,0.1,2,0.1,3,0.1
					c0.1-3.7,0.2-7.5,0.2-11.2c-0.9,0-1.8-0.1-2.7-0.1c0-1,0.1-1.9,0.1-2.9c3.3,0.2,6.6,0.2,9.9,0c0.1,1,0.1,1.9,0.2,2.9
					c-0.9,0.1-1.8,0.1-2.7,0.1c0.1,3.7,0.2,7.5,0.4,11.2c2-0.1,4.1-0.2,6.1-0.4c-0.2-1.7-0.3-3.5-0.5-5.2c1.3-0.1,2.5-0.3,3.8-0.4
					c0.4,2.7,0.7,5.4,1.1,8C84.3,134.2,77.9,134.5,71.5,134.1z"/>
				<path fill="none" stroke="#000000" stroke-width="8.567" d="M96.1,132.5c-0.2-0.9-0.4-1.9-0.5-2.8c0.9-0.2,1.9-0.4,2.8-0.6
					c-0.3-1.5-0.6-3-1-4.5c-2.2-1.8-4.3-3.7-6.3-5.6c-0.7,0.1-1.5,0.2-2.2,0.3c-0.1-0.9-0.3-1.9-0.4-2.8c2.9-0.4,5.9-0.9,8.8-1.6
					c0.2,0.9,0.4,1.9,0.7,2.8c-0.6,0.1-1.2,0.3-1.8,0.4c1.2,1.2,2.4,2.3,3.6,3.4c0.6-1.6,1.1-3.1,1.6-4.7c-0.6,0.2-1.2,0.3-1.8,0.5
					c-0.2-0.9-0.5-1.8-0.7-2.8c2.5-0.7,5-1.4,7.5-2.3c0.3,0.9,0.6,1.8,1,2.7c-0.7,0.3-1.4,0.5-2.1,0.7c-0.8,2.6-1.7,5.2-2.8,7.8
					c0.4,1.5,0.8,3,1.2,4.4c0.9-0.3,1.8-0.5,2.8-0.8c0.3,0.9,0.6,1.8,0.8,2.7C103.6,130.9,99.9,131.8,96.1,132.5z"/>
				<path fill="none" stroke="#000000" stroke-width="8.567" d="M113,127.8c-0.3-0.9-0.7-1.8-1-2.7c0.8-0.3,1.5-0.6,2.3-0.9
					c-1.4-3.5-2.8-7-4.1-10.4c-0.7,0.3-1.4,0.5-2.1,0.8c-0.3-0.9-0.7-1.8-1-2.7c4.9-1.8,9.6-4,14.2-6.7c0.9,1.5,1.8,3.1,2.7,4.6
					c-1,0.6-2.1,1.2-3.2,1.8c-0.4-0.7-0.8-1.5-1.2-2.2c-1.7,0.9-3.4,1.7-5.1,2.5c0.5,1.2,1.1,2.4,1.6,3.6c1.5-0.7,2.9-1.4,4.3-2.1
					c0.4,0.8,0.9,1.7,1.3,2.5c-1.5,0.8-2.9,1.5-4.4,2.2c0.6,1.3,1.2,2.7,1.9,4c1.9-0.9,3.8-1.8,5.7-2.8c-0.4-0.7-0.8-1.5-1.2-2.2
					c1.1-0.6,2.3-1.2,3.4-1.9c0.9,1.6,1.8,3.1,2.7,4.7C124.5,123,118.9,125.7,113,127.8z"/>
				<path fill="none" stroke="#000000" stroke-width="8.567" d="M147.2,103.2c0.7,0.7,1.3,1.4,2,2.1c-1.6,1.5-3.2,3-4.9,4.4
					c-2.8-0.9-5.6-1.8-8.3-2.9c-0.6,0.5-1.2,0.9-1.8,1.4c0.9,1.2,1.8,2.5,2.7,3.7c0.7-0.5,1.4-1,2.1-1.6c0.6,0.8,1.2,1.5,1.7,2.3
					c-3,2.3-6,4.4-9.2,6.3c-0.5-0.8-1-1.6-1.5-2.4c0.8-0.5,1.6-1,2.4-1.5c-2-3.1-4.1-6.3-6.1-9.4c-0.7,0.5-1.4,0.9-2.1,1.3
					c-0.5-0.8-1-1.6-1.5-2.4c3.1-1.9,6-3.9,8.9-6.2c1.6-1.3,3-1.9,4.4-1.7c1.3,0.1,2.4,0.6,3.2,1.5c1.3,1.4,1.4,3.2,0.2,5.4
					c1.9,0.6,3.9,1.2,5.9,1.7C145.9,104.5,146.5,103.9,147.2,103.2z M132.6,106c0.5-0.3,0.9-0.7,1.4-1c1.7-1.3,2.1-2.5,1.3-3.5
					c-0.4-0.5-0.9-0.7-1.5-0.7c-0.6,0-1.2,0.3-1.8,0.8c-0.6,0.4-1.1,0.8-1.7,1.3C131,103.9,131.8,104.9,132.6,106z"/>
				<path fill="none" stroke="#000000" stroke-width="8.567" d="M150.2,104.3c-1.3-1.4-2.7-2.8-4-4.1c0.8-0.8,1.6-1.6,2.4-2.5
					c0.8,0.7,1.6,1,2.4,0.9c0.8-0.1,1.5-0.5,2.1-1.1c0.4-0.5,0.7-1,0.7-1.6c0-0.6-0.2-1-0.5-1.3c-0.4-0.3-0.9-0.5-1.4-0.4
					c-0.5,0.1-1.4,0.4-2.4,0.9c-2.3,1.1-4,1.6-5.1,1.7c-1.1,0.1-2.1-0.4-2.9-1.2c-1-1.1-1.5-2.2-1.3-3.5c0.1-1.3,0.6-2.4,1.5-3.3
					c1-1.1,2.1-1.6,3.4-1.5c-0.4-0.3-0.7-0.6-1.1-0.9c0.7-0.8,1.3-1.6,2-2.4c1.4,1.1,2.7,2.1,4.1,3.2c-0.7,0.9-1.4,1.7-2.1,2.6
					c-0.7-0.4-1.3-0.6-2-0.5c-0.7,0.1-1.2,0.4-1.7,0.9c-0.4,0.4-0.6,0.8-0.6,1.2c-0.1,0.4,0.1,0.8,0.3,1.1c0.3,0.2,0.6,0.4,1,0.3
					c0.4,0,1.4-0.4,2.8-1.1c1.4-0.7,2.5-1.3,3.3-1.6c0.9-0.3,1.7-0.5,2.6-0.4c0.9,0.1,1.7,0.4,2.4,1c1.3,1,2,2.3,1.8,3.8
					c-0.1,1.5-0.8,2.9-1.9,4.2c-1.3,1.4-2.7,2.2-4.2,2.1c0.3,0.3,0.7,0.7,1,1C152,102.6,151.1,103.5,150.2,104.3z"/>
			</g>
			<g>
				<path fill="none" stroke="#000000" stroke-width="8.567" d="M51,131c0.2-0.9,0.5-1.9,0.7-2.8c1,0.3,2,0.5,3,0.7
					c0.8-3.7,1.6-7.3,2.4-11c-0.9-0.2-1.8-0.4-2.7-0.6c0.2-0.9,0.5-1.9,0.7-2.8c5.4,1.4,10.8,2.2,16.1,2.5c-0.1,1.7-0.2,3.5-0.3,5.2
					c-1.2-0.1-2.4-0.2-3.7-0.3c0.1-0.8,0.2-1.6,0.2-2.4c-1.9-0.2-3.7-0.4-5.6-0.8c-0.2,1.3-0.4,2.6-0.6,3.9c1.4,0.2,2.8,0.4,4.2,0.6
					c-0.1,0.9-0.2,1.9-0.3,2.8c-1.4-0.2-2.9-0.4-4.3-0.6c-0.2,1.5-0.5,2.9-0.7,4.4c1.1,0.2,2.1,0.3,3.2,0.5
					c-0.1,0.9-0.3,1.9-0.4,2.8C59,132.8,55,132,51,131z"/>
				<path fill="none" stroke="#000000" stroke-width="8.567" d="M71.5,134.1c0-1,0.1-1.9,0.1-2.9c1,0.1,2,0.1,3,0.1
					c0.1-3.7,0.2-7.5,0.2-11.2c-0.9,0-1.8-0.1-2.7-0.1c0-1,0.1-1.9,0.1-2.9c3.3,0.2,6.6,0.2,9.9,0c0.1,1,0.1,1.9,0.2,2.9
					c-0.9,0.1-1.8,0.1-2.7,0.1c0.1,3.7,0.2,7.5,0.4,11.2c2-0.1,4.1-0.2,6.1-0.4c-0.2-1.7-0.3-3.5-0.5-5.2c1.3-0.1,2.5-0.3,3.8-0.4
					c0.4,2.7,0.7,5.4,1.1,8C84.3,134.2,77.9,134.5,71.5,134.1z"/>
				<path fill="none" stroke="#000000" stroke-width="8.567" d="M96.1,132.5c-0.2-0.9-0.4-1.9-0.5-2.8c0.9-0.2,1.9-0.4,2.8-0.6
					c-0.3-1.5-0.6-3-1-4.5c-2.2-1.8-4.3-3.7-6.3-5.6c-0.7,0.1-1.5,0.2-2.2,0.3c-0.1-0.9-0.3-1.9-0.4-2.8c2.9-0.4,5.9-0.9,8.8-1.6
					c0.2,0.9,0.4,1.9,0.7,2.8c-0.6,0.1-1.2,0.3-1.8,0.4c1.2,1.2,2.4,2.3,3.6,3.4c0.6-1.6,1.1-3.1,1.6-4.7c-0.6,0.2-1.2,0.3-1.8,0.5
					c-0.2-0.9-0.5-1.8-0.7-2.8c2.5-0.7,5-1.4,7.5-2.3c0.3,0.9,0.6,1.8,1,2.7c-0.7,0.3-1.4,0.5-2.1,0.7c-0.8,2.6-1.7,5.2-2.8,7.8
					c0.4,1.5,0.8,3,1.2,4.4c0.9-0.3,1.8-0.5,2.8-0.8c0.3,0.9,0.6,1.8,0.8,2.7C103.6,130.9,99.9,131.8,96.1,132.5z"/>
				<path fill="none" stroke="#000000" stroke-width="8.567" d="M113,127.8c-0.3-0.9-0.7-1.8-1-2.7c0.8-0.3,1.5-0.6,2.3-0.9
					c-1.4-3.5-2.8-7-4.1-10.4c-0.7,0.3-1.4,0.5-2.1,0.8c-0.3-0.9-0.7-1.8-1-2.7c4.9-1.8,9.6-4,14.2-6.7c0.9,1.5,1.8,3.1,2.7,4.6
					c-1,0.6-2.1,1.2-3.2,1.8c-0.4-0.7-0.8-1.5-1.2-2.2c-1.7,0.9-3.4,1.7-5.1,2.5c0.5,1.2,1.1,2.4,1.6,3.6c1.5-0.7,2.9-1.4,4.3-2.1
					c0.4,0.8,0.9,1.7,1.3,2.5c-1.5,0.8-2.9,1.5-4.4,2.2c0.6,1.3,1.2,2.7,1.9,4c1.9-0.9,3.8-1.8,5.7-2.8c-0.4-0.7-0.8-1.5-1.2-2.2
					c1.1-0.6,2.3-1.2,3.4-1.9c0.9,1.6,1.8,3.1,2.7,4.7C124.5,123,118.9,125.7,113,127.8z"/>
				<path fill="none" stroke="#000000" stroke-width="8.567" d="M147.2,103.2c0.7,0.7,1.3,1.4,2,2.1c-1.6,1.5-3.2,3-4.9,4.4
					c-2.8-0.9-5.6-1.8-8.3-2.9c-0.6,0.5-1.2,0.9-1.8,1.4c0.9,1.2,1.8,2.5,2.7,3.7c0.7-0.5,1.4-1,2.1-1.6c0.6,0.8,1.2,1.5,1.7,2.3
					c-3,2.3-6,4.4-9.2,6.3c-0.5-0.8-1-1.6-1.5-2.4c0.8-0.5,1.6-1,2.4-1.5c-2-3.1-4.1-6.3-6.1-9.4c-0.7,0.5-1.4,0.9-2.1,1.3
					c-0.5-0.8-1-1.6-1.5-2.4c3.1-1.9,6-3.9,8.9-6.2c1.6-1.3,3-1.9,4.4-1.7c1.3,0.1,2.4,0.6,3.2,1.5c1.3,1.4,1.4,3.2,0.2,5.4
					c1.9,0.6,3.9,1.2,5.9,1.7C145.9,104.5,146.5,103.9,147.2,103.2z M132.6,106c0.5-0.3,0.9-0.7,1.4-1c1.7-1.3,2.1-2.5,1.3-3.5
					c-0.4-0.5-0.9-0.7-1.5-0.7c-0.6,0-1.2,0.3-1.8,0.8c-0.6,0.4-1.1,0.8-1.7,1.3C131,103.9,131.8,104.9,132.6,106z"/>
				<path fill="none" stroke="#000000" stroke-width="8.567" d="M150.2,104.3c-1.3-1.4-2.7-2.8-4-4.1c0.8-0.8,1.6-1.6,2.4-2.5
					c0.8,0.7,1.6,1,2.4,0.9c0.8-0.1,1.5-0.5,2.1-1.1c0.4-0.5,0.7-1,0.7-1.6c0-0.6-0.2-1-0.5-1.3c-0.4-0.3-0.9-0.5-1.4-0.4
					c-0.5,0.1-1.4,0.4-2.4,0.9c-2.3,1.1-4,1.6-5.1,1.7c-1.1,0.1-2.1-0.4-2.9-1.2c-1-1.1-1.5-2.2-1.3-3.5c0.1-1.3,0.6-2.4,1.5-3.3
					c1-1.1,2.1-1.6,3.4-1.5c-0.4-0.3-0.7-0.6-1.1-0.9c0.7-0.8,1.3-1.6,2-2.4c1.4,1.1,2.7,2.1,4.1,3.2c-0.7,0.9-1.4,1.7-2.1,2.6
					c-0.7-0.4-1.3-0.6-2-0.5c-0.7,0.1-1.2,0.4-1.7,0.9c-0.4,0.4-0.6,0.8-0.6,1.2c-0.1,0.4,0.1,0.8,0.3,1.1c0.3,0.2,0.6,0.4,1,0.3
					c0.4,0,1.4-0.4,2.8-1.1c1.4-0.7,2.5-1.3,3.3-1.6c0.9-0.3,1.7-0.5,2.6-0.4c0.9,0.1,1.7,0.4,2.4,1c1.3,1,2,2.3,1.8,3.8
					c-0.1,1.5-0.8,2.9-1.9,4.2c-1.3,1.4-2.7,2.2-4.2,2.1c0.3,0.3,0.7,0.7,1,1C152,102.6,151.1,103.5,150.2,104.3z"/>
			</g>
		</g>
		<g>
			<g>
				<path fill="none" stroke="#E8C43A" stroke-width="5.3544" d="M51,131c0.2-0.9,0.5-1.9,0.7-2.8c1,0.3,2,0.5,3,0.7
					c0.8-3.7,1.6-7.3,2.4-11c-0.9-0.2-1.8-0.4-2.7-0.6c0.2-0.9,0.5-1.9,0.7-2.8c5.4,1.4,10.8,2.2,16.1,2.5c-0.1,1.7-0.2,3.5-0.3,5.2
					c-1.2-0.1-2.4-0.2-3.7-0.3c0.1-0.8,0.2-1.6,0.2-2.4c-1.9-0.2-3.7-0.4-5.6-0.8c-0.2,1.3-0.4,2.6-0.6,3.9c1.4,0.2,2.8,0.4,4.2,0.6
					c-0.1,0.9-0.2,1.9-0.3,2.8c-1.4-0.2-2.9-0.4-4.3-0.6c-0.2,1.5-0.5,2.9-0.7,4.4c1.1,0.2,2.1,0.3,3.2,0.5
					c-0.1,0.9-0.3,1.9-0.4,2.8C59,132.8,55,132,51,131z"/>
				<path fill="none" stroke="#E8C43A" stroke-width="5.3544" d="M71.5,134.1c0-1,0.1-1.9,0.1-2.9c1,0.1,2,0.1,3,0.1
					c0.1-3.7,0.2-7.5,0.2-11.2c-0.9,0-1.8-0.1-2.7-0.1c0-1,0.1-1.9,0.1-2.9c3.3,0.2,6.6,0.2,9.9,0c0.1,1,0.1,1.9,0.2,2.9
					c-0.9,0.1-1.8,0.1-2.7,0.1c0.1,3.7,0.2,7.5,0.4,11.2c2-0.1,4.1-0.2,6.1-0.4c-0.2-1.7-0.3-3.5-0.5-5.2c1.3-0.1,2.5-0.3,3.8-0.4
					c0.4,2.7,0.7,5.4,1.1,8C84.3,134.2,77.9,134.5,71.5,134.1z"/>
				<path fill="none" stroke="#E8C43A" stroke-width="5.3544" d="M96.1,132.5c-0.2-0.9-0.4-1.9-0.5-2.8c0.9-0.2,1.9-0.4,2.8-0.6
					c-0.3-1.5-0.6-3-1-4.5c-2.2-1.8-4.3-3.7-6.3-5.6c-0.7,0.1-1.5,0.2-2.2,0.3c-0.1-0.9-0.3-1.9-0.4-2.8c2.9-0.4,5.9-0.9,8.8-1.6
					c0.2,0.9,0.4,1.9,0.7,2.8c-0.6,0.1-1.2,0.3-1.8,0.4c1.2,1.2,2.4,2.3,3.6,3.4c0.6-1.6,1.1-3.1,1.6-4.7c-0.6,0.2-1.2,0.3-1.8,0.5
					c-0.2-0.9-0.5-1.8-0.7-2.8c2.5-0.7,5-1.4,7.5-2.3c0.3,0.9,0.6,1.8,1,2.7c-0.7,0.3-1.4,0.5-2.1,0.7c-0.8,2.6-1.7,5.2-2.8,7.8
					c0.4,1.5,0.8,3,1.2,4.4c0.9-0.3,1.8-0.5,2.8-0.8c0.3,0.9,0.6,1.8,0.8,2.7C103.6,130.9,99.9,131.8,96.1,132.5z"/>
				<path fill="none" stroke="#E8C43A" stroke-width="5.3544" d="M113,127.8c-0.3-0.9-0.7-1.8-1-2.7c0.8-0.3,1.5-0.6,2.3-0.9
					c-1.4-3.5-2.8-7-4.1-10.4c-0.7,0.3-1.4,0.5-2.1,0.8c-0.3-0.9-0.7-1.8-1-2.7c4.9-1.8,9.6-4,14.2-6.7c0.9,1.5,1.8,3.1,2.7,4.6
					c-1,0.6-2.1,1.2-3.2,1.8c-0.4-0.7-0.8-1.5-1.2-2.2c-1.7,0.9-3.4,1.7-5.1,2.5c0.5,1.2,1.1,2.4,1.6,3.6c1.5-0.7,2.9-1.4,4.3-2.1
					c0.4,0.8,0.9,1.7,1.3,2.5c-1.5,0.8-2.9,1.5-4.4,2.2c0.6,1.3,1.2,2.7,1.9,4c1.9-0.9,3.8-1.8,5.7-2.8c-0.4-0.7-0.8-1.5-1.2-2.2
					c1.1-0.6,2.3-1.2,3.4-1.9c0.9,1.6,1.8,3.1,2.7,4.7C124.5,123,118.9,125.7,113,127.8z"/>
				<path fill="none" stroke="#E8C43A" stroke-width="5.3544" d="M147.2,103.2c0.7,0.7,1.3,1.4,2,2.1c-1.6,1.5-3.2,3-4.9,4.4
					c-2.8-0.9-5.6-1.8-8.3-2.9c-0.6,0.5-1.2,0.9-1.8,1.4c0.9,1.2,1.8,2.5,2.7,3.7c0.7-0.5,1.4-1,2.1-1.6c0.6,0.8,1.2,1.5,1.7,2.3
					c-3,2.3-6,4.4-9.2,6.3c-0.5-0.8-1-1.6-1.5-2.4c0.8-0.5,1.6-1,2.4-1.5c-2-3.1-4.1-6.3-6.1-9.4c-0.7,0.5-1.4,0.9-2.1,1.3
					c-0.5-0.8-1-1.6-1.5-2.4c3.1-1.9,6-3.9,8.9-6.2c1.6-1.3,3-1.9,4.4-1.7c1.3,0.1,2.4,0.6,3.2,1.5c1.3,1.4,1.4,3.2,0.2,5.4
					c1.9,0.6,3.9,1.2,5.9,1.7C145.9,104.5,146.5,103.9,147.2,103.2z M132.6,106c0.5-0.3,0.9-0.7,1.4-1c1.7-1.3,2.1-2.5,1.3-3.5
					c-0.4-0.5-0.9-0.7-1.5-0.7c-0.6,0-1.2,0.3-1.8,0.8c-0.6,0.4-1.1,0.8-1.7,1.3C131,103.9,131.8,104.9,132.6,106z"/>
				<path fill="none" stroke="#E8C43A" stroke-width="5.3544" d="M150.2,104.3c-1.3-1.4-2.7-2.8-4-4.1c0.8-0.8,1.6-1.6,2.4-2.5
					c0.8,0.7,1.6,1,2.4,0.9c0.8-0.1,1.5-0.5,2.1-1.1c0.4-0.5,0.7-1,0.7-1.6c0-0.6-0.2-1-0.5-1.3c-0.4-0.3-0.9-0.5-1.4-0.4
					c-0.5,0.1-1.4,0.4-2.4,0.9c-2.3,1.1-4,1.6-5.1,1.7c-1.1,0.1-2.1-0.4-2.9-1.2c-1-1.1-1.5-2.2-1.3-3.5c0.1-1.3,0.6-2.4,1.5-3.3
					c1-1.1,2.1-1.6,3.4-1.5c-0.4-0.3-0.7-0.6-1.1-0.9c0.7-0.8,1.3-1.6,2-2.4c1.4,1.1,2.7,2.1,4.1,3.2c-0.7,0.9-1.4,1.7-2.1,2.6
					c-0.7-0.4-1.3-0.6-2-0.5c-0.7,0.1-1.2,0.4-1.7,0.9c-0.4,0.4-0.6,0.8-0.6,1.2c-0.1,0.4,0.1,0.8,0.3,1.1c0.3,0.2,0.6,0.4,1,0.3
					c0.4,0,1.4-0.4,2.8-1.1c1.4-0.7,2.5-1.3,3.3-1.6c0.9-0.3,1.7-0.5,2.6-0.4c0.9,0.1,1.7,0.4,2.4,1c1.3,1,2,2.3,1.8,3.8
					c-0.1,1.5-0.8,2.9-1.9,4.2c-1.3,1.4-2.7,2.2-4.2,2.1c0.3,0.3,0.7,0.7,1,1C152,102.6,151.1,103.5,150.2,104.3z"/>
			</g>
			<g>
				<path fill="none" stroke="#E8C43A" stroke-width="5.3544" d="M51,131c0.2-0.9,0.5-1.9,0.7-2.8c1,0.3,2,0.5,3,0.7
					c0.8-3.7,1.6-7.3,2.4-11c-0.9-0.2-1.8-0.4-2.7-0.6c0.2-0.9,0.5-1.9,0.7-2.8c5.4,1.4,10.8,2.2,16.1,2.5c-0.1,1.7-0.2,3.5-0.3,5.2
					c-1.2-0.1-2.4-0.2-3.7-0.3c0.1-0.8,0.2-1.6,0.2-2.4c-1.9-0.2-3.7-0.4-5.6-0.8c-0.2,1.3-0.4,2.6-0.6,3.9c1.4,0.2,2.8,0.4,4.2,0.6
					c-0.1,0.9-0.2,1.9-0.3,2.8c-1.4-0.2-2.9-0.4-4.3-0.6c-0.2,1.5-0.5,2.9-0.7,4.4c1.1,0.2,2.1,0.3,3.2,0.5
					c-0.1,0.9-0.3,1.9-0.4,2.8C59,132.8,55,132,51,131z"/>
				<path fill="none" stroke="#E8C43A" stroke-width="5.3544" d="M71.5,134.1c0-1,0.1-1.9,0.1-2.9c1,0.1,2,0.1,3,0.1
					c0.1-3.7,0.2-7.5,0.2-11.2c-0.9,0-1.8-0.1-2.7-0.1c0-1,0.1-1.9,0.1-2.9c3.3,0.2,6.6,0.2,9.9,0c0.1,1,0.1,1.9,0.2,2.9
					c-0.9,0.1-1.8,0.1-2.7,0.1c0.1,3.7,0.2,7.5,0.4,11.2c2-0.1,4.1-0.2,6.1-0.4c-0.2-1.7-0.3-3.5-0.5-5.2c1.3-0.1,2.5-0.3,3.8-0.4
					c0.4,2.7,0.7,5.4,1.1,8C84.3,134.2,77.9,134.5,71.5,134.1z"/>
				<path fill="none" stroke="#E8C43A" stroke-width="5.3544" d="M96.1,132.5c-0.2-0.9-0.4-1.9-0.5-2.8c0.9-0.2,1.9-0.4,2.8-0.6
					c-0.3-1.5-0.6-3-1-4.5c-2.2-1.8-4.3-3.7-6.3-5.6c-0.7,0.1-1.5,0.2-2.2,0.3c-0.1-0.9-0.3-1.9-0.4-2.8c2.9-0.4,5.9-0.9,8.8-1.6
					c0.2,0.9,0.4,1.9,0.7,2.8c-0.6,0.1-1.2,0.3-1.8,0.4c1.2,1.2,2.4,2.3,3.6,3.4c0.6-1.6,1.1-3.1,1.6-4.7c-0.6,0.2-1.2,0.3-1.8,0.5
					c-0.2-0.9-0.5-1.8-0.7-2.8c2.5-0.7,5-1.4,7.5-2.3c0.3,0.9,0.6,1.8,1,2.7c-0.7,0.3-1.4,0.5-2.1,0.7c-0.8,2.6-1.7,5.2-2.8,7.8
					c0.4,1.5,0.8,3,1.2,4.4c0.9-0.3,1.8-0.5,2.8-0.8c0.3,0.9,0.6,1.8,0.8,2.7C103.6,130.9,99.9,131.8,96.1,132.5z"/>
				<path fill="none" stroke="#E8C43A" stroke-width="5.3544" d="M113,127.8c-0.3-0.9-0.7-1.8-1-2.7c0.8-0.3,1.5-0.6,2.3-0.9
					c-1.4-3.5-2.8-7-4.1-10.4c-0.7,0.3-1.4,0.5-2.1,0.8c-0.3-0.9-0.7-1.8-1-2.7c4.9-1.8,9.6-4,14.2-6.7c0.9,1.5,1.8,3.1,2.7,4.6
					c-1,0.6-2.1,1.2-3.2,1.8c-0.4-0.7-0.8-1.5-1.2-2.2c-1.7,0.9-3.4,1.7-5.1,2.5c0.5,1.2,1.1,2.4,1.6,3.6c1.5-0.7,2.9-1.4,4.3-2.1
					c0.4,0.8,0.9,1.7,1.3,2.5c-1.5,0.8-2.9,1.5-4.4,2.2c0.6,1.3,1.2,2.7,1.9,4c1.9-0.9,3.8-1.8,5.7-2.8c-0.4-0.7-0.8-1.5-1.2-2.2
					c1.1-0.6,2.3-1.2,3.4-1.9c0.9,1.6,1.8,3.1,2.7,4.7C124.5,123,118.9,125.7,113,127.8z"/>
				<path fill="none" stroke="#E8C43A" stroke-width="5.3544" d="M147.2,103.2c0.7,0.7,1.3,1.4,2,2.1c-1.6,1.5-3.2,3-4.9,4.4
					c-2.8-0.9-5.6-1.8-8.3-2.9c-0.6,0.5-1.2,0.9-1.8,1.4c0.9,1.2,1.8,2.5,2.7,3.7c0.7-0.5,1.4-1,2.1-1.6c0.6,0.8,1.2,1.5,1.7,2.3
					c-3,2.3-6,4.4-9.2,6.3c-0.5-0.8-1-1.6-1.5-2.4c0.8-0.5,1.6-1,2.4-1.5c-2-3.1-4.1-6.3-6.1-9.4c-0.7,0.5-1.4,0.9-2.1,1.3
					c-0.5-0.8-1-1.6-1.5-2.4c3.1-1.9,6-3.9,8.9-6.2c1.6-1.3,3-1.9,4.4-1.7c1.3,0.1,2.4,0.6,3.2,1.5c1.3,1.4,1.4,3.2,0.2,5.4
					c1.9,0.6,3.9,1.2,5.9,1.7C145.9,104.5,146.5,103.9,147.2,103.2z M132.6,106c0.5-0.3,0.9-0.7,1.4-1c1.7-1.3,2.1-2.5,1.3-3.5
					c-0.4-0.5-0.9-0.7-1.5-0.7c-0.6,0-1.2,0.3-1.8,0.8c-0.6,0.4-1.1,0.8-1.7,1.3C131,103.9,131.8,104.9,132.6,106z"/>
				<path fill="none" stroke="#E8C43A" stroke-width="5.3544" d="M150.2,104.3c-1.3-1.4-2.7-2.8-4-4.1c0.8-0.8,1.6-1.6,2.4-2.5
					c0.8,0.7,1.6,1,2.4,0.9c0.8-0.1,1.5-0.5,2.1-1.1c0.4-0.5,0.7-1,0.7-1.6c0-0.6-0.2-1-0.5-1.3c-0.4-0.3-0.9-0.5-1.4-0.4
					c-0.5,0.1-1.4,0.4-2.4,0.9c-2.3,1.1-4,1.6-5.1,1.7c-1.1,0.1-2.1-0.4-2.9-1.2c-1-1.1-1.5-2.2-1.3-3.5c0.1-1.3,0.6-2.4,1.5-3.3
					c1-1.1,2.1-1.6,3.4-1.5c-0.4-0.3-0.7-0.6-1.1-0.9c0.7-0.8,1.3-1.6,2-2.4c1.4,1.1,2.7,2.1,4.1,3.2c-0.7,0.9-1.4,1.7-2.1,2.6
					c-0.7-0.4-1.3-0.6-2-0.5c-0.7,0.1-1.2,0.4-1.7,0.9c-0.4,0.4-0.6,0.8-0.6,1.2c-0.1,0.4,0.1,0.8,0.3,1.1c0.3,0.2,0.6,0.4,1,0.3
					c0.4,0,1.4-0.4,2.8-1.1c1.4-0.7,2.5-1.3,3.3-1.6c0.9-0.3,1.7-0.5,2.6-0.4c0.9,0.1,1.7,0.4,2.4,1c1.3,1,2,2.3,1.8,3.8
					c-0.1,1.5-0.8,2.9-1.9,4.2c-1.3,1.4-2.7,2.2-4.2,2.1c0.3,0.3,0.7,0.7,1,1C152,102.6,151.1,103.5,150.2,104.3z"/>
			</g>
		</g>
		<g>
			<g>
				<path fill="none" stroke="#7C2336" stroke-width="3.2126" d="M51,131c0.2-0.9,0.5-1.9,0.7-2.8c1,0.3,2,0.5,3,0.7
					c0.8-3.7,1.6-7.3,2.4-11c-0.9-0.2-1.8-0.4-2.7-0.6c0.2-0.9,0.5-1.9,0.7-2.8c5.4,1.4,10.8,2.2,16.1,2.5c-0.1,1.7-0.2,3.5-0.3,5.2
					c-1.2-0.1-2.4-0.2-3.7-0.3c0.1-0.8,0.2-1.6,0.2-2.4c-1.9-0.2-3.7-0.4-5.6-0.8c-0.2,1.3-0.4,2.6-0.6,3.9c1.4,0.2,2.8,0.4,4.2,0.6
					c-0.1,0.9-0.2,1.9-0.3,2.8c-1.4-0.2-2.9-0.4-4.3-0.6c-0.2,1.5-0.5,2.9-0.7,4.4c1.1,0.2,2.1,0.3,3.2,0.5
					c-0.1,0.9-0.3,1.9-0.4,2.8C59,132.8,55,132,51,131z"/>
				<path fill="none" stroke="#7C2336" stroke-width="3.2126" d="M71.5,134.1c0-1,0.1-1.9,0.1-2.9c1,0.1,2,0.1,3,0.1
					c0.1-3.7,0.2-7.5,0.2-11.2c-0.9,0-1.8-0.1-2.7-0.1c0-1,0.1-1.9,0.1-2.9c3.3,0.2,6.6,0.2,9.9,0c0.1,1,0.1,1.9,0.2,2.9
					c-0.9,0.1-1.8,0.1-2.7,0.1c0.1,3.7,0.2,7.5,0.4,11.2c2-0.1,4.1-0.2,6.1-0.4c-0.2-1.7-0.3-3.5-0.5-5.2c1.3-0.1,2.5-0.3,3.8-0.4
					c0.4,2.7,0.7,5.4,1.1,8C84.3,134.2,77.9,134.5,71.5,134.1z"/>
				<path fill="none" stroke="#7C2336" stroke-width="3.2126" d="M96.1,132.5c-0.2-0.9-0.4-1.9-0.5-2.8c0.9-0.2,1.9-0.4,2.8-0.6
					c-0.3-1.5-0.6-3-1-4.5c-2.2-1.8-4.3-3.7-6.3-5.6c-0.7,0.1-1.5,0.2-2.2,0.3c-0.1-0.9-0.3-1.9-0.4-2.8c2.9-0.4,5.9-0.9,8.8-1.6
					c0.2,0.9,0.4,1.9,0.7,2.8c-0.6,0.1-1.2,0.3-1.8,0.4c1.2,1.2,2.4,2.3,3.6,3.4c0.6-1.6,1.1-3.1,1.6-4.7c-0.6,0.2-1.2,0.3-1.8,0.5
					c-0.2-0.9-0.5-1.8-0.7-2.8c2.5-0.7,5-1.4,7.5-2.3c0.3,0.9,0.6,1.8,1,2.7c-0.7,0.3-1.4,0.5-2.1,0.7c-0.8,2.6-1.7,5.2-2.8,7.8
					c0.4,1.5,0.8,3,1.2,4.4c0.9-0.3,1.8-0.5,2.8-0.8c0.3,0.9,0.6,1.8,0.8,2.7C103.6,130.9,99.9,131.8,96.1,132.5z"/>
				<path fill="none" stroke="#7C2336" stroke-width="3.2126" d="M113,127.8c-0.3-0.9-0.7-1.8-1-2.7c0.8-0.3,1.5-0.6,2.3-0.9
					c-1.4-3.5-2.8-7-4.1-10.4c-0.7,0.3-1.4,0.5-2.1,0.8c-0.3-0.9-0.7-1.8-1-2.7c4.9-1.8,9.6-4,14.2-6.7c0.9,1.5,1.8,3.1,2.7,4.6
					c-1,0.6-2.1,1.2-3.2,1.8c-0.4-0.7-0.8-1.5-1.2-2.2c-1.7,0.9-3.4,1.7-5.1,2.5c0.5,1.2,1.1,2.4,1.6,3.6c1.5-0.7,2.9-1.4,4.3-2.1
					c0.4,0.8,0.9,1.7,1.3,2.5c-1.5,0.8-2.9,1.5-4.4,2.2c0.6,1.3,1.2,2.7,1.9,4c1.9-0.9,3.8-1.8,5.7-2.8c-0.4-0.7-0.8-1.5-1.2-2.2
					c1.1-0.6,2.3-1.2,3.4-1.9c0.9,1.6,1.8,3.1,2.7,4.7C124.5,123,118.9,125.7,113,127.8z"/>
				<path fill="none" stroke="#7C2336" stroke-width="3.2126" d="M147.2,103.2c0.7,0.7,1.3,1.4,2,2.1c-1.6,1.5-3.2,3-4.9,4.4
					c-2.8-0.9-5.6-1.8-8.3-2.9c-0.6,0.5-1.2,0.9-1.8,1.4c0.9,1.2,1.8,2.5,2.7,3.7c0.7-0.5,1.4-1,2.1-1.6c0.6,0.8,1.2,1.5,1.7,2.3
					c-3,2.3-6,4.4-9.2,6.3c-0.5-0.8-1-1.6-1.5-2.4c0.8-0.5,1.6-1,2.4-1.5c-2-3.1-4.1-6.3-6.1-9.4c-0.7,0.5-1.4,0.9-2.1,1.3
					c-0.5-0.8-1-1.6-1.5-2.4c3.1-1.9,6-3.9,8.9-6.2c1.6-1.3,3-1.9,4.4-1.7c1.3,0.1,2.4,0.6,3.2,1.5c1.3,1.4,1.4,3.2,0.2,5.4
					c1.9,0.6,3.9,1.2,5.9,1.7C145.9,104.5,146.5,103.9,147.2,103.2z M132.6,106c0.5-0.3,0.9-0.7,1.4-1c1.7-1.3,2.1-2.5,1.3-3.5
					c-0.4-0.5-0.9-0.7-1.5-0.7c-0.6,0-1.2,0.3-1.8,0.8c-0.6,0.4-1.1,0.8-1.7,1.3C131,103.9,131.8,104.9,132.6,106z"/>
				<path fill="none" stroke="#7C2336" stroke-width="3.2126" d="M150.2,104.3c-1.3-1.4-2.7-2.8-4-4.1c0.8-0.8,1.6-1.6,2.4-2.5
					c0.8,0.7,1.6,1,2.4,0.9c0.8-0.1,1.5-0.5,2.1-1.1c0.4-0.5,0.7-1,0.7-1.6c0-0.6-0.2-1-0.5-1.3c-0.4-0.3-0.9-0.5-1.4-0.4
					c-0.5,0.1-1.4,0.4-2.4,0.9c-2.3,1.1-4,1.6-5.1,1.7c-1.1,0.1-2.1-0.4-2.9-1.2c-1-1.1-1.5-2.2-1.3-3.5c0.1-1.3,0.6-2.4,1.5-3.3
					c1-1.1,2.1-1.6,3.4-1.5c-0.4-0.3-0.7-0.6-1.1-0.9c0.7-0.8,1.3-1.6,2-2.4c1.4,1.1,2.7,2.1,4.1,3.2c-0.7,0.9-1.4,1.7-2.1,2.6
					c-0.7-0.4-1.3-0.6-2-0.5c-0.7,0.1-1.2,0.4-1.7,0.9c-0.4,0.4-0.6,0.8-0.6,1.2c-0.1,0.4,0.1,0.8,0.3,1.1c0.3,0.2,0.6,0.4,1,0.3
					c0.4,0,1.4-0.4,2.8-1.1c1.4-0.7,2.5-1.3,3.3-1.6c0.9-0.3,1.7-0.5,2.6-0.4c0.9,0.1,1.7,0.4,2.4,1c1.3,1,2,2.3,1.8,3.8
					c-0.1,1.5-0.8,2.9-1.9,4.2c-1.3,1.4-2.7,2.2-4.2,2.1c0.3,0.3,0.7,0.7,1,1C152,102.6,151.1,103.5,150.2,104.3z"/>
			</g>
			<g>
				<path fill="none" stroke="#7C2336" stroke-width="3.2126" d="M51,131c0.2-0.9,0.5-1.9,0.7-2.8c1,0.3,2,0.5,3,0.7
					c0.8-3.7,1.6-7.3,2.4-11c-0.9-0.2-1.8-0.4-2.7-0.6c0.2-0.9,0.5-1.9,0.7-2.8c5.4,1.4,10.8,2.2,16.1,2.5c-0.1,1.7-0.2,3.5-0.3,5.2
					c-1.2-0.1-2.4-0.2-3.7-0.3c0.1-0.8,0.2-1.6,0.2-2.4c-1.9-0.2-3.7-0.4-5.6-0.8c-0.2,1.3-0.4,2.6-0.6,3.9c1.4,0.2,2.8,0.4,4.2,0.6
					c-0.1,0.9-0.2,1.9-0.3,2.8c-1.4-0.2-2.9-0.4-4.3-0.6c-0.2,1.5-0.5,2.9-0.7,4.4c1.1,0.2,2.1,0.3,3.2,0.5
					c-0.1,0.9-0.3,1.9-0.4,2.8C59,132.8,55,132,51,131z"/>
				<path fill="none" stroke="#7C2336" stroke-width="3.2126" d="M71.5,134.1c0-1,0.1-1.9,0.1-2.9c1,0.1,2,0.1,3,0.1
					c0.1-3.7,0.2-7.5,0.2-11.2c-0.9,0-1.8-0.1-2.7-0.1c0-1,0.1-1.9,0.1-2.9c3.3,0.2,6.6,0.2,9.9,0c0.1,1,0.1,1.9,0.2,2.9
					c-0.9,0.1-1.8,0.1-2.7,0.1c0.1,3.7,0.2,7.5,0.4,11.2c2-0.1,4.1-0.2,6.1-0.4c-0.2-1.7-0.3-3.5-0.5-5.2c1.3-0.1,2.5-0.3,3.8-0.4
					c0.4,2.7,0.7,5.4,1.1,8C84.3,134.2,77.9,134.5,71.5,134.1z"/>
				<path fill="none" stroke="#7C2336" stroke-width="3.2126" d="M96.1,132.5c-0.2-0.9-0.4-1.9-0.5-2.8c0.9-0.2,1.9-0.4,2.8-0.6
					c-0.3-1.5-0.6-3-1-4.5c-2.2-1.8-4.3-3.7-6.3-5.6c-0.7,0.1-1.5,0.2-2.2,0.3c-0.1-0.9-0.3-1.9-0.4-2.8c2.9-0.4,5.9-0.9,8.8-1.6
					c0.2,0.9,0.4,1.9,0.7,2.8c-0.6,0.1-1.2,0.3-1.8,0.4c1.2,1.2,2.4,2.3,3.6,3.4c0.6-1.6,1.1-3.1,1.6-4.7c-0.6,0.2-1.2,0.3-1.8,0.5
					c-0.2-0.9-0.5-1.8-0.7-2.8c2.5-0.7,5-1.4,7.5-2.3c0.3,0.9,0.6,1.8,1,2.7c-0.7,0.3-1.4,0.5-2.1,0.7c-0.8,2.6-1.7,5.2-2.8,7.8
					c0.4,1.5,0.8,3,1.2,4.4c0.9-0.3,1.8-0.5,2.8-0.8c0.3,0.9,0.6,1.8,0.8,2.7C103.6,130.9,99.9,131.8,96.1,132.5z"/>
				<path fill="none" stroke="#7C2336" stroke-width="3.2126" d="M113,127.8c-0.3-0.9-0.7-1.8-1-2.7c0.8-0.3,1.5-0.6,2.3-0.9
					c-1.4-3.5-2.8-7-4.1-10.4c-0.7,0.3-1.4,0.5-2.1,0.8c-0.3-0.9-0.7-1.8-1-2.7c4.9-1.8,9.6-4,14.2-6.7c0.9,1.5,1.8,3.1,2.7,4.6
					c-1,0.6-2.1,1.2-3.2,1.8c-0.4-0.7-0.8-1.5-1.2-2.2c-1.7,0.9-3.4,1.7-5.1,2.5c0.5,1.2,1.1,2.4,1.6,3.6c1.5-0.7,2.9-1.4,4.3-2.1
					c0.4,0.8,0.9,1.7,1.3,2.5c-1.5,0.8-2.9,1.5-4.4,2.2c0.6,1.3,1.2,2.7,1.9,4c1.9-0.9,3.8-1.8,5.7-2.8c-0.4-0.7-0.8-1.5-1.2-2.2
					c1.1-0.6,2.3-1.2,3.4-1.9c0.9,1.6,1.8,3.1,2.7,4.7C124.5,123,118.9,125.7,113,127.8z"/>
				<path fill="none" stroke="#7C2336" stroke-width="3.2126" d="M147.2,103.2c0.7,0.7,1.3,1.4,2,2.1c-1.6,1.5-3.2,3-4.9,4.4
					c-2.8-0.9-5.6-1.8-8.3-2.9c-0.6,0.5-1.2,0.9-1.8,1.4c0.9,1.2,1.8,2.5,2.7,3.7c0.7-0.5,1.4-1,2.1-1.6c0.6,0.8,1.2,1.5,1.7,2.3
					c-3,2.3-6,4.4-9.2,6.3c-0.5-0.8-1-1.6-1.5-2.4c0.8-0.5,1.6-1,2.4-1.5c-2-3.1-4.1-6.3-6.1-9.4c-0.7,0.5-1.4,0.9-2.1,1.3
					c-0.5-0.8-1-1.6-1.5-2.4c3.1-1.9,6-3.9,8.9-6.2c1.6-1.3,3-1.9,4.4-1.7c1.3,0.1,2.4,0.6,3.2,1.5c1.3,1.4,1.4,3.2,0.2,5.4
					c1.9,0.6,3.9,1.2,5.9,1.7C145.9,104.5,146.5,103.9,147.2,103.2z M132.6,106c0.5-0.3,0.9-0.7,1.4-1c1.7-1.3,2.1-2.5,1.3-3.5
					c-0.4-0.5-0.9-0.7-1.5-0.7c-0.6,0-1.2,0.3-1.8,0.8c-0.6,0.4-1.1,0.8-1.7,1.3C131,103.9,131.8,104.9,132.6,106z"/>
				<path fill="none" stroke="#7C2336" stroke-width="3.2126" d="M150.2,104.3c-1.3-1.4-2.7-2.8-4-4.1c0.8-0.8,1.6-1.6,2.4-2.5
					c0.8,0.7,1.6,1,2.4,0.9c0.8-0.1,1.5-0.5,2.1-1.1c0.4-0.5,0.7-1,0.7-1.6c0-0.6-0.2-1-0.5-1.3c-0.4-0.3-0.9-0.5-1.4-0.4
					c-0.5,0.1-1.4,0.4-2.4,0.9c-2.3,1.1-4,1.6-5.1,1.7c-1.1,0.1-2.1-0.4-2.9-1.2c-1-1.1-1.5-2.2-1.3-3.5c0.1-1.3,0.6-2.4,1.5-3.3
					c1-1.1,2.1-1.6,3.4-1.5c-0.4-0.3-0.7-0.6-1.1-0.9c0.7-0.8,1.3-1.6,2-2.4c1.4,1.1,2.7,2.1,4.1,3.2c-0.7,0.9-1.4,1.7-2.1,2.6
					c-0.7-0.4-1.3-0.6-2-0.5c-0.7,0.1-1.2,0.4-1.7,0.9c-0.4,0.4-0.6,0.8-0.6,1.2c-0.1,0.4,0.1,0.8,0.3,1.1c0.3,0.2,0.6,0.4,1,0.3
					c0.4,0,1.4-0.4,2.8-1.1c1.4-0.7,2.5-1.3,3.3-1.6c0.9-0.3,1.7-0.5,2.6-0.4c0.9,0.1,1.7,0.4,2.4,1c1.3,1,2,2.3,1.8,3.8
					c-0.1,1.5-0.8,2.9-1.9,4.2c-1.3,1.4-2.7,2.2-4.2,2.1c0.3,0.3,0.7,0.7,1,1C152,102.6,151.1,103.5,150.2,104.3z"/>
			</g>
		</g>
		<g>
			<g>
				<path fill="none" stroke="#808285" stroke-width="1.0709" d="M51,131c0.2-0.9,0.5-1.9,0.7-2.8c1,0.3,2,0.5,3,0.7
					c0.8-3.7,1.6-7.3,2.4-11c-0.9-0.2-1.8-0.4-2.7-0.6c0.2-0.9,0.5-1.9,0.7-2.8c5.4,1.4,10.8,2.2,16.1,2.5c-0.1,1.7-0.2,3.5-0.3,5.2
					c-1.2-0.1-2.4-0.2-3.7-0.3c0.1-0.8,0.2-1.6,0.2-2.4c-1.9-0.2-3.7-0.4-5.6-0.8c-0.2,1.3-0.4,2.6-0.6,3.9c1.4,0.2,2.8,0.4,4.2,0.6
					c-0.1,0.9-0.2,1.9-0.3,2.8c-1.4-0.2-2.9-0.4-4.3-0.6c-0.2,1.5-0.5,2.9-0.7,4.4c1.1,0.2,2.1,0.3,3.2,0.5
					c-0.1,0.9-0.3,1.9-0.4,2.8C59,132.8,55,132,51,131z"/>
				<path fill="none" stroke="#808285" stroke-width="1.0709" d="M71.5,134.1c0-1,0.1-1.9,0.1-2.9c1,0.1,2,0.1,3,0.1
					c0.1-3.7,0.2-7.5,0.2-11.2c-0.9,0-1.8-0.1-2.7-0.1c0-1,0.1-1.9,0.1-2.9c3.3,0.2,6.6,0.2,9.9,0c0.1,1,0.1,1.9,0.2,2.9
					c-0.9,0.1-1.8,0.1-2.7,0.1c0.1,3.7,0.2,7.5,0.4,11.2c2-0.1,4.1-0.2,6.1-0.4c-0.2-1.7-0.3-3.5-0.5-5.2c1.3-0.1,2.5-0.3,3.8-0.4
					c0.4,2.7,0.7,5.4,1.1,8C84.3,134.2,77.9,134.5,71.5,134.1z"/>
				<path fill="none" stroke="#808285" stroke-width="1.0709" d="M96.1,132.5c-0.2-0.9-0.4-1.9-0.5-2.8c0.9-0.2,1.9-0.4,2.8-0.6
					c-0.3-1.5-0.6-3-1-4.5c-2.2-1.8-4.3-3.7-6.3-5.6c-0.7,0.1-1.5,0.2-2.2,0.3c-0.1-0.9-0.3-1.9-0.4-2.8c2.9-0.4,5.9-0.9,8.8-1.6
					c0.2,0.9,0.4,1.9,0.7,2.8c-0.6,0.1-1.2,0.3-1.8,0.4c1.2,1.2,2.4,2.3,3.6,3.4c0.6-1.6,1.1-3.1,1.6-4.7c-0.6,0.2-1.2,0.3-1.8,0.5
					c-0.2-0.9-0.5-1.8-0.7-2.8c2.5-0.7,5-1.4,7.5-2.3c0.3,0.9,0.6,1.8,1,2.7c-0.7,0.3-1.4,0.5-2.1,0.7c-0.8,2.6-1.7,5.2-2.8,7.8
					c0.4,1.5,0.8,3,1.2,4.4c0.9-0.3,1.8-0.5,2.8-0.8c0.3,0.9,0.6,1.8,0.8,2.7C103.6,130.9,99.9,131.8,96.1,132.5z"/>
				<path fill="none" stroke="#808285" stroke-width="1.0709" d="M113,127.8c-0.3-0.9-0.7-1.8-1-2.7c0.8-0.3,1.5-0.6,2.3-0.9
					c-1.4-3.5-2.8-7-4.1-10.4c-0.7,0.3-1.4,0.5-2.1,0.8c-0.3-0.9-0.7-1.8-1-2.7c4.9-1.8,9.6-4,14.2-6.7c0.9,1.5,1.8,3.1,2.7,4.6
					c-1,0.6-2.1,1.2-3.2,1.8c-0.4-0.7-0.8-1.5-1.2-2.2c-1.7,0.9-3.4,1.7-5.1,2.5c0.5,1.2,1.1,2.4,1.6,3.6c1.5-0.7,2.9-1.4,4.3-2.1
					c0.4,0.8,0.9,1.7,1.3,2.5c-1.5,0.8-2.9,1.5-4.4,2.2c0.6,1.3,1.2,2.7,1.9,4c1.9-0.9,3.8-1.8,5.7-2.8c-0.4-0.7-0.8-1.5-1.2-2.2
					c1.1-0.6,2.3-1.2,3.4-1.9c0.9,1.6,1.8,3.1,2.7,4.7C124.5,123,118.9,125.7,113,127.8z"/>
				<path fill="none" stroke="#808285" stroke-width="1.0709" d="M147.2,103.2c0.7,0.7,1.3,1.4,2,2.1c-1.6,1.5-3.2,3-4.9,4.4
					c-2.8-0.9-5.6-1.8-8.3-2.9c-0.6,0.5-1.2,0.9-1.8,1.4c0.9,1.2,1.8,2.5,2.7,3.7c0.7-0.5,1.4-1,2.1-1.6c0.6,0.8,1.2,1.5,1.7,2.3
					c-3,2.3-6,4.4-9.2,6.3c-0.5-0.8-1-1.6-1.5-2.4c0.8-0.5,1.6-1,2.4-1.5c-2-3.1-4.1-6.3-6.1-9.4c-0.7,0.5-1.4,0.9-2.1,1.3
					c-0.5-0.8-1-1.6-1.5-2.4c3.1-1.9,6-3.9,8.9-6.2c1.6-1.3,3-1.9,4.4-1.7c1.3,0.1,2.4,0.6,3.2,1.5c1.3,1.4,1.4,3.2,0.2,5.4
					c1.9,0.6,3.9,1.2,5.9,1.7C145.9,104.5,146.5,103.9,147.2,103.2z M132.6,106c0.5-0.3,0.9-0.7,1.4-1c1.7-1.3,2.1-2.5,1.3-3.5
					c-0.4-0.5-0.9-0.7-1.5-0.7c-0.6,0-1.2,0.3-1.8,0.8c-0.6,0.4-1.1,0.8-1.7,1.3C131,103.9,131.8,104.9,132.6,106z"/>
				<path fill="none" stroke="#808285" stroke-width="1.0709" d="M150.2,104.3c-1.3-1.4-2.7-2.8-4-4.1c0.8-0.8,1.6-1.6,2.4-2.5
					c0.8,0.7,1.6,1,2.4,0.9c0.8-0.1,1.5-0.5,2.1-1.1c0.4-0.5,0.7-1,0.7-1.6c0-0.6-0.2-1-0.5-1.3c-0.4-0.3-0.9-0.5-1.4-0.4
					c-0.5,0.1-1.4,0.4-2.4,0.9c-2.3,1.1-4,1.6-5.1,1.7c-1.1,0.1-2.1-0.4-2.9-1.2c-1-1.1-1.5-2.2-1.3-3.5c0.1-1.3,0.6-2.4,1.5-3.3
					c1-1.1,2.1-1.6,3.4-1.5c-0.4-0.3-0.7-0.6-1.1-0.9c0.7-0.8,1.3-1.6,2-2.4c1.4,1.1,2.7,2.1,4.1,3.2c-0.7,0.9-1.4,1.7-2.1,2.6
					c-0.7-0.4-1.3-0.6-2-0.5c-0.7,0.1-1.2,0.4-1.7,0.9c-0.4,0.4-0.6,0.8-0.6,1.2c-0.1,0.4,0.1,0.8,0.3,1.1c0.3,0.2,0.6,0.4,1,0.3
					c0.4,0,1.4-0.4,2.8-1.1c1.4-0.7,2.5-1.3,3.3-1.6c0.9-0.3,1.7-0.5,2.6-0.4c0.9,0.1,1.7,0.4,2.4,1c1.3,1,2,2.3,1.8,3.8
					c-0.1,1.5-0.8,2.9-1.9,4.2c-1.3,1.4-2.7,2.2-4.2,2.1c0.3,0.3,0.7,0.7,1,1C152,102.6,151.1,103.5,150.2,104.3z"/>
			</g>
			<g>
				<path fill="none" stroke="#808285" stroke-width="1.0709" d="M51,131c0.2-0.9,0.5-1.9,0.7-2.8c1,0.3,2,0.5,3,0.7
					c0.8-3.7,1.6-7.3,2.4-11c-0.9-0.2-1.8-0.4-2.7-0.6c0.2-0.9,0.5-1.9,0.7-2.8c5.4,1.4,10.8,2.2,16.1,2.5c-0.1,1.7-0.2,3.5-0.3,5.2
					c-1.2-0.1-2.4-0.2-3.7-0.3c0.1-0.8,0.2-1.6,0.2-2.4c-1.9-0.2-3.7-0.4-5.6-0.8c-0.2,1.3-0.4,2.6-0.6,3.9c1.4,0.2,2.8,0.4,4.2,0.6
					c-0.1,0.9-0.2,1.9-0.3,2.8c-1.4-0.2-2.9-0.4-4.3-0.6c-0.2,1.5-0.5,2.9-0.7,4.4c1.1,0.2,2.1,0.3,3.2,0.5
					c-0.1,0.9-0.3,1.9-0.4,2.8C59,132.8,55,132,51,131z"/>
				<path fill="none" stroke="#808285" stroke-width="1.0709" d="M71.5,134.1c0-1,0.1-1.9,0.1-2.9c1,0.1,2,0.1,3,0.1
					c0.1-3.7,0.2-7.5,0.2-11.2c-0.9,0-1.8-0.1-2.7-0.1c0-1,0.1-1.9,0.1-2.9c3.3,0.2,6.6,0.2,9.9,0c0.1,1,0.1,1.9,0.2,2.9
					c-0.9,0.1-1.8,0.1-2.7,0.1c0.1,3.7,0.2,7.5,0.4,11.2c2-0.1,4.1-0.2,6.1-0.4c-0.2-1.7-0.3-3.5-0.5-5.2c1.3-0.1,2.5-0.3,3.8-0.4
					c0.4,2.7,0.7,5.4,1.1,8C84.3,134.2,77.9,134.5,71.5,134.1z"/>
				<path fill="none" stroke="#808285" stroke-width="1.0709" d="M96.1,132.5c-0.2-0.9-0.4-1.9-0.5-2.8c0.9-0.2,1.9-0.4,2.8-0.6
					c-0.3-1.5-0.6-3-1-4.5c-2.2-1.8-4.3-3.7-6.3-5.6c-0.7,0.1-1.5,0.2-2.2,0.3c-0.1-0.9-0.3-1.9-0.4-2.8c2.9-0.4,5.9-0.9,8.8-1.6
					c0.2,0.9,0.4,1.9,0.7,2.8c-0.6,0.1-1.2,0.3-1.8,0.4c1.2,1.2,2.4,2.3,3.6,3.4c0.6-1.6,1.1-3.1,1.6-4.7c-0.6,0.2-1.2,0.3-1.8,0.5
					c-0.2-0.9-0.5-1.8-0.7-2.8c2.5-0.7,5-1.4,7.5-2.3c0.3,0.9,0.6,1.8,1,2.7c-0.7,0.3-1.4,0.5-2.1,0.7c-0.8,2.6-1.7,5.2-2.8,7.8
					c0.4,1.5,0.8,3,1.2,4.4c0.9-0.3,1.8-0.5,2.8-0.8c0.3,0.9,0.6,1.8,0.8,2.7C103.6,130.9,99.9,131.8,96.1,132.5z"/>
				<path fill="none" stroke="#808285" stroke-width="1.0709" d="M113,127.8c-0.3-0.9-0.7-1.8-1-2.7c0.8-0.3,1.5-0.6,2.3-0.9
					c-1.4-3.5-2.8-7-4.1-10.4c-0.7,0.3-1.4,0.5-2.1,0.8c-0.3-0.9-0.7-1.8-1-2.7c4.9-1.8,9.6-4,14.2-6.7c0.9,1.5,1.8,3.1,2.7,4.6
					c-1,0.6-2.1,1.2-3.2,1.8c-0.4-0.7-0.8-1.5-1.2-2.2c-1.7,0.9-3.4,1.7-5.1,2.5c0.5,1.2,1.1,2.4,1.6,3.6c1.5-0.7,2.9-1.4,4.3-2.1
					c0.4,0.8,0.9,1.7,1.3,2.5c-1.5,0.8-2.9,1.5-4.4,2.2c0.6,1.3,1.2,2.7,1.9,4c1.9-0.9,3.8-1.8,5.7-2.8c-0.4-0.7-0.8-1.5-1.2-2.2
					c1.1-0.6,2.3-1.2,3.4-1.9c0.9,1.6,1.8,3.1,2.7,4.7C124.5,123,118.9,125.7,113,127.8z"/>
				<path fill="none" stroke="#808285" stroke-width="1.0709" d="M147.2,103.2c0.7,0.7,1.3,1.4,2,2.1c-1.6,1.5-3.2,3-4.9,4.4
					c-2.8-0.9-5.6-1.8-8.3-2.9c-0.6,0.5-1.2,0.9-1.8,1.4c0.9,1.2,1.8,2.5,2.7,3.7c0.7-0.5,1.4-1,2.1-1.6c0.6,0.8,1.2,1.5,1.7,2.3
					c-3,2.3-6,4.4-9.2,6.3c-0.5-0.8-1-1.6-1.5-2.4c0.8-0.5,1.6-1,2.4-1.5c-2-3.1-4.1-6.3-6.1-9.4c-0.7,0.5-1.4,0.9-2.1,1.3
					c-0.5-0.8-1-1.6-1.5-2.4c3.1-1.9,6-3.9,8.9-6.2c1.6-1.3,3-1.9,4.4-1.7c1.3,0.1,2.4,0.6,3.2,1.5c1.3,1.4,1.4,3.2,0.2,5.4
					c1.9,0.6,3.9,1.2,5.9,1.7C145.9,104.5,146.5,103.9,147.2,103.2z M132.6,106c0.5-0.3,0.9-0.7,1.4-1c1.7-1.3,2.1-2.5,1.3-3.5
					c-0.4-0.5-0.9-0.7-1.5-0.7c-0.6,0-1.2,0.3-1.8,0.8c-0.6,0.4-1.1,0.8-1.7,1.3C131,103.9,131.8,104.9,132.6,106z"/>
				<path fill="none" stroke="#808285" stroke-width="1.0709" d="M150.2,104.3c-1.3-1.4-2.7-2.8-4-4.1c0.8-0.8,1.6-1.6,2.4-2.5
					c0.8,0.7,1.6,1,2.4,0.9c0.8-0.1,1.5-0.5,2.1-1.1c0.4-0.5,0.7-1,0.7-1.6c0-0.6-0.2-1-0.5-1.3c-0.4-0.3-0.9-0.5-1.4-0.4
					c-0.5,0.1-1.4,0.4-2.4,0.9c-2.3,1.1-4,1.6-5.1,1.7c-1.1,0.1-2.1-0.4-2.9-1.2c-1-1.1-1.5-2.2-1.3-3.5c0.1-1.3,0.6-2.4,1.5-3.3
					c1-1.1,2.1-1.6,3.4-1.5c-0.4-0.3-0.7-0.6-1.1-0.9c0.7-0.8,1.3-1.6,2-2.4c1.4,1.1,2.7,2.1,4.1,3.2c-0.7,0.9-1.4,1.7-2.1,2.6
					c-0.7-0.4-1.3-0.6-2-0.5c-0.7,0.1-1.2,0.4-1.7,0.9c-0.4,0.4-0.6,0.8-0.6,1.2c-0.1,0.4,0.1,0.8,0.3,1.1c0.3,0.2,0.6,0.4,1,0.3
					c0.4,0,1.4-0.4,2.8-1.1c1.4-0.7,2.5-1.3,3.3-1.6c0.9-0.3,1.7-0.5,2.6-0.4c0.9,0.1,1.7,0.4,2.4,1c1.3,1,2,2.3,1.8,3.8
					c-0.1,1.5-0.8,2.9-1.9,4.2c-1.3,1.4-2.7,2.2-4.2,2.1c0.3,0.3,0.7,0.7,1,1C152,102.6,151.1,103.5,150.2,104.3z"/>
			</g>
		</g>
		<g>
			<g>
				<path fill="#FFFFFF" d="M51,131c0.2-0.9,0.5-1.9,0.7-2.8c1,0.3,2,0.5,3,0.7c0.8-3.7,1.6-7.3,2.4-11c-0.9-0.2-1.8-0.4-2.7-0.6
					c0.2-0.9,0.5-1.9,0.7-2.8c5.4,1.4,10.8,2.2,16.1,2.5c-0.1,1.7-0.2,3.5-0.3,5.2c-1.2-0.1-2.4-0.2-3.7-0.3
					c0.1-0.8,0.2-1.6,0.2-2.4c-1.9-0.2-3.7-0.4-5.6-0.8c-0.2,1.3-0.4,2.6-0.6,3.9c1.4,0.2,2.8,0.4,4.2,0.6c-0.1,0.9-0.2,1.9-0.3,2.8
					c-1.4-0.2-2.9-0.4-4.3-0.6c-0.2,1.5-0.5,2.9-0.7,4.4c1.1,0.2,2.1,0.3,3.2,0.5c-0.1,0.9-0.3,1.9-0.4,2.8C59,132.8,55,132,51,131z
					"/>
				<path fill="#FFFFFF" d="M71.5,134.1c0-1,0.1-1.9,0.1-2.9c1,0.1,2,0.1,3,0.1c0.1-3.7,0.2-7.5,0.2-11.2c-0.9,0-1.8-0.1-2.7-0.1
					c0-1,0.1-1.9,0.1-2.9c3.3,0.2,6.6,0.2,9.9,0c0.1,1,0.1,1.9,0.2,2.9c-0.9,0.1-1.8,0.1-2.7,0.1c0.1,3.7,0.2,7.5,0.4,11.2
					c2-0.1,4.1-0.2,6.1-0.4c-0.2-1.7-0.3-3.5-0.5-5.2c1.3-0.1,2.5-0.3,3.8-0.4c0.4,2.7,0.7,5.4,1.1,8
					C84.3,134.2,77.9,134.5,71.5,134.1z"/>
				<path fill="#FFFFFF" d="M96.1,132.5c-0.2-0.9-0.4-1.9-0.5-2.8c0.9-0.2,1.9-0.4,2.8-0.6c-0.3-1.5-0.6-3-1-4.5
					c-2.2-1.8-4.3-3.7-6.3-5.6c-0.7,0.1-1.5,0.2-2.2,0.3c-0.1-0.9-0.3-1.9-0.4-2.8c2.9-0.4,5.9-0.9,8.8-1.6c0.2,0.9,0.4,1.9,0.7,2.8
					c-0.6,0.1-1.2,0.3-1.8,0.4c1.2,1.2,2.4,2.3,3.6,3.4c0.6-1.6,1.1-3.1,1.6-4.7c-0.6,0.2-1.2,0.3-1.8,0.5c-0.2-0.9-0.5-1.8-0.7-2.8
					c2.5-0.7,5-1.4,7.5-2.3c0.3,0.9,0.6,1.8,1,2.7c-0.7,0.3-1.4,0.5-2.1,0.7c-0.8,2.6-1.7,5.2-2.8,7.8c0.4,1.5,0.8,3,1.2,4.4
					c0.9-0.3,1.8-0.5,2.8-0.8c0.3,0.9,0.6,1.8,0.8,2.7C103.6,130.9,99.9,131.8,96.1,132.5z"/>
				<path fill="#FFFFFF" d="M113,127.8c-0.3-0.9-0.7-1.8-1-2.7c0.8-0.3,1.5-0.6,2.3-0.9c-1.4-3.5-2.8-7-4.1-10.4
					c-0.7,0.3-1.4,0.5-2.1,0.8c-0.3-0.9-0.7-1.8-1-2.7c4.9-1.8,9.6-4,14.2-6.7c0.9,1.5,1.8,3.1,2.7,4.6c-1,0.6-2.1,1.2-3.2,1.8
					c-0.4-0.7-0.8-1.5-1.2-2.2c-1.7,0.9-3.4,1.7-5.1,2.5c0.5,1.2,1.1,2.4,1.6,3.6c1.5-0.7,2.9-1.4,4.3-2.1c0.4,0.8,0.9,1.7,1.3,2.5
					c-1.5,0.8-2.9,1.5-4.4,2.2c0.6,1.3,1.2,2.7,1.9,4c1.9-0.9,3.8-1.8,5.7-2.8c-0.4-0.7-0.8-1.5-1.2-2.2c1.1-0.6,2.3-1.2,3.4-1.9
					c0.9,1.6,1.8,3.1,2.7,4.7C124.5,123,118.9,125.7,113,127.8z"/>
				<path fill="#FFFFFF" d="M147.2,103.2c0.7,0.7,1.3,1.4,2,2.1c-1.6,1.5-3.2,3-4.9,4.4c-2.8-0.9-5.6-1.8-8.3-2.9
					c-0.6,0.5-1.2,0.9-1.8,1.4c0.9,1.2,1.8,2.5,2.7,3.7c0.7-0.5,1.4-1,2.1-1.6c0.6,0.8,1.2,1.5,1.7,2.3c-3,2.3-6,4.4-9.2,6.3
					c-0.5-0.8-1-1.6-1.5-2.4c0.8-0.5,1.6-1,2.4-1.5c-2-3.1-4.1-6.3-6.1-9.4c-0.7,0.5-1.4,0.9-2.1,1.3c-0.5-0.8-1-1.6-1.5-2.4
					c3.1-1.9,6-3.9,8.9-6.2c1.6-1.3,3-1.9,4.4-1.7c1.3,0.1,2.4,0.6,3.2,1.5c1.3,1.4,1.4,3.2,0.2,5.4c1.9,0.6,3.9,1.2,5.9,1.7
					C145.9,104.5,146.5,103.9,147.2,103.2z M132.6,106c0.5-0.3,0.9-0.7,1.4-1c1.7-1.3,2.1-2.5,1.3-3.5c-0.4-0.5-0.9-0.7-1.5-0.7
					c-0.6,0-1.2,0.3-1.8,0.8c-0.6,0.4-1.1,0.8-1.7,1.3C131,103.9,131.8,104.9,132.6,106z"/>
				<path fill="#FFFFFF" d="M150.2,104.3c-1.3-1.4-2.7-2.8-4-4.1c0.8-0.8,1.6-1.6,2.4-2.5c0.8,0.7,1.6,1,2.4,0.9
					c0.8-0.1,1.5-0.5,2.1-1.1c0.4-0.5,0.7-1,0.7-1.6c0-0.6-0.2-1-0.5-1.3c-0.4-0.3-0.9-0.5-1.4-0.4c-0.5,0.1-1.4,0.4-2.4,0.9
					c-2.3,1.1-4,1.6-5.1,1.7c-1.1,0.1-2.1-0.4-2.9-1.2c-1-1.1-1.5-2.2-1.3-3.5c0.1-1.3,0.6-2.4,1.5-3.3c1-1.1,2.1-1.6,3.4-1.5
					c-0.4-0.3-0.7-0.6-1.1-0.9c0.7-0.8,1.3-1.6,2-2.4c1.4,1.1,2.7,2.1,4.1,3.2c-0.7,0.9-1.4,1.7-2.1,2.6c-0.7-0.4-1.3-0.6-2-0.5
					c-0.7,0.1-1.2,0.4-1.7,0.9c-0.4,0.4-0.6,0.8-0.6,1.2c-0.1,0.4,0.1,0.8,0.3,1.1c0.3,0.2,0.6,0.4,1,0.3c0.4,0,1.4-0.4,2.8-1.1
					c1.4-0.7,2.5-1.3,3.3-1.6c0.9-0.3,1.7-0.5,2.6-0.4c0.9,0.1,1.7,0.4,2.4,1c1.3,1,2,2.3,1.8,3.8c-0.1,1.5-0.8,2.9-1.9,4.2
					c-1.3,1.4-2.7,2.2-4.2,2.1c0.3,0.3,0.7,0.7,1,1C152,102.6,151.1,103.5,150.2,104.3z"/>
			</g>
			<g>
				<path fill="#FFFFFF" d="M51,131c0.2-0.9,0.5-1.9,0.7-2.8c1,0.3,2,0.5,3,0.7c0.8-3.7,1.6-7.3,2.4-11c-0.9-0.2-1.8-0.4-2.7-0.6
					c0.2-0.9,0.5-1.9,0.7-2.8c5.4,1.4,10.8,2.2,16.1,2.5c-0.1,1.7-0.2,3.5-0.3,5.2c-1.2-0.1-2.4-0.2-3.7-0.3
					c0.1-0.8,0.2-1.6,0.2-2.4c-1.9-0.2-3.7-0.4-5.6-0.8c-0.2,1.3-0.4,2.6-0.6,3.9c1.4,0.2,2.8,0.4,4.2,0.6c-0.1,0.9-0.2,1.9-0.3,2.8
					c-1.4-0.2-2.9-0.4-4.3-0.6c-0.2,1.5-0.5,2.9-0.7,4.4c1.1,0.2,2.1,0.3,3.2,0.5c-0.1,0.9-0.3,1.9-0.4,2.8C59,132.8,55,132,51,131z
					"/>
				<path fill="#FFFFFF" d="M71.5,134.1c0-1,0.1-1.9,0.1-2.9c1,0.1,2,0.1,3,0.1c0.1-3.7,0.2-7.5,0.2-11.2c-0.9,0-1.8-0.1-2.7-0.1
					c0-1,0.1-1.9,0.1-2.9c3.3,0.2,6.6,0.2,9.9,0c0.1,1,0.1,1.9,0.2,2.9c-0.9,0.1-1.8,0.1-2.7,0.1c0.1,3.7,0.2,7.5,0.4,11.2
					c2-0.1,4.1-0.2,6.1-0.4c-0.2-1.7-0.3-3.5-0.5-5.2c1.3-0.1,2.5-0.3,3.8-0.4c0.4,2.7,0.7,5.4,1.1,8
					C84.3,134.2,77.9,134.5,71.5,134.1z"/>
				<path fill="#FFFFFF" d="M96.1,132.5c-0.2-0.9-0.4-1.9-0.5-2.8c0.9-0.2,1.9-0.4,2.8-0.6c-0.3-1.5-0.6-3-1-4.5
					c-2.2-1.8-4.3-3.7-6.3-5.6c-0.7,0.1-1.5,0.2-2.2,0.3c-0.1-0.9-0.3-1.9-0.4-2.8c2.9-0.4,5.9-0.9,8.8-1.6c0.2,0.9,0.4,1.9,0.7,2.8
					c-0.6,0.1-1.2,0.3-1.8,0.4c1.2,1.2,2.4,2.3,3.6,3.4c0.6-1.6,1.1-3.1,1.6-4.7c-0.6,0.2-1.2,0.3-1.8,0.5c-0.2-0.9-0.5-1.8-0.7-2.8
					c2.5-0.7,5-1.4,7.5-2.3c0.3,0.9,0.6,1.8,1,2.7c-0.7,0.3-1.4,0.5-2.1,0.7c-0.8,2.6-1.7,5.2-2.8,7.8c0.4,1.5,0.8,3,1.2,4.4
					c0.9-0.3,1.8-0.5,2.8-0.8c0.3,0.9,0.6,1.8,0.8,2.7C103.6,130.9,99.9,131.8,96.1,132.5z"/>
				<path fill="#FFFFFF" d="M113,127.8c-0.3-0.9-0.7-1.8-1-2.7c0.8-0.3,1.5-0.6,2.3-0.9c-1.4-3.5-2.8-7-4.1-10.4
					c-0.7,0.3-1.4,0.5-2.1,0.8c-0.3-0.9-0.7-1.8-1-2.7c4.9-1.8,9.6-4,14.2-6.7c0.9,1.5,1.8,3.1,2.7,4.6c-1,0.6-2.1,1.2-3.2,1.8
					c-0.4-0.7-0.8-1.5-1.2-2.2c-1.7,0.9-3.4,1.7-5.1,2.5c0.5,1.2,1.1,2.4,1.6,3.6c1.5-0.7,2.9-1.4,4.3-2.1c0.4,0.8,0.9,1.7,1.3,2.5
					c-1.5,0.8-2.9,1.5-4.4,2.2c0.6,1.3,1.2,2.7,1.9,4c1.9-0.9,3.8-1.8,5.7-2.8c-0.4-0.7-0.8-1.5-1.2-2.2c1.1-0.6,2.3-1.2,3.4-1.9
					c0.9,1.6,1.8,3.1,2.7,4.7C124.5,123,118.9,125.7,113,127.8z"/>
				<path fill="#FFFFFF" d="M147.2,103.2c0.7,0.7,1.3,1.4,2,2.1c-1.6,1.5-3.2,3-4.9,4.4c-2.8-0.9-5.6-1.8-8.3-2.9
					c-0.6,0.5-1.2,0.9-1.8,1.4c0.9,1.2,1.8,2.5,2.7,3.7c0.7-0.5,1.4-1,2.1-1.6c0.6,0.8,1.2,1.5,1.7,2.3c-3,2.3-6,4.4-9.2,6.3
					c-0.5-0.8-1-1.6-1.5-2.4c0.8-0.5,1.6-1,2.4-1.5c-2-3.1-4.1-6.3-6.1-9.4c-0.7,0.5-1.4,0.9-2.1,1.3c-0.5-0.8-1-1.6-1.5-2.4
					c3.1-1.9,6-3.9,8.9-6.2c1.6-1.3,3-1.9,4.4-1.7c1.3,0.1,2.4,0.6,3.2,1.5c1.3,1.4,1.4,3.2,0.2,5.4c1.9,0.6,3.9,1.2,5.9,1.7
					C145.9,104.5,146.5,103.9,147.2,103.2z M132.6,106c0.5-0.3,0.9-0.7,1.4-1c1.7-1.3,2.1-2.5,1.3-3.5c-0.4-0.5-0.9-0.7-1.5-0.7
					c-0.6,0-1.2,0.3-1.8,0.8c-0.6,0.4-1.1,0.8-1.7,1.3C131,103.9,131.8,104.9,132.6,106z"/>
				<path fill="#FFFFFF" d="M150.2,104.3c-1.3-1.4-2.7-2.8-4-4.1c0.8-0.8,1.6-1.6,2.4-2.5c0.8,0.7,1.6,1,2.4,0.9
					c0.8-0.1,1.5-0.5,2.1-1.1c0.4-0.5,0.7-1,0.7-1.6c0-0.6-0.2-1-0.5-1.3c-0.4-0.3-0.9-0.5-1.4-0.4c-0.5,0.1-1.4,0.4-2.4,0.9
					c-2.3,1.1-4,1.6-5.1,1.7c-1.1,0.1-2.1-0.4-2.9-1.2c-1-1.1-1.5-2.2-1.3-3.5c0.1-1.3,0.6-2.4,1.5-3.3c1-1.1,2.1-1.6,3.4-1.5
					c-0.4-0.3-0.7-0.6-1.1-0.9c0.7-0.8,1.3-1.6,2-2.4c1.4,1.1,2.7,2.1,4.1,3.2c-0.7,0.9-1.4,1.7-2.1,2.6c-0.7-0.4-1.3-0.6-2-0.5
					c-0.7,0.1-1.2,0.4-1.7,0.9c-0.4,0.4-0.6,0.8-0.6,1.2c-0.1,0.4,0.1,0.8,0.3,1.1c0.3,0.2,0.6,0.4,1,0.3c0.4,0,1.4-0.4,2.8-1.1
					c1.4-0.7,2.5-1.3,3.3-1.6c0.9-0.3,1.7-0.5,2.6-0.4c0.9,0.1,1.7,0.4,2.4,1c1.3,1,2,2.3,1.8,3.8c-0.1,1.5-0.8,2.9-1.9,4.2
					c-1.3,1.4-2.7,2.2-4.2,2.1c0.3,0.3,0.7,0.7,1,1C152,102.6,151.1,103.5,150.2,104.3z"/>
			</g>
		</g>
	</g>
	<path d="M128.1,99.1l16.7-10.8l-8.4,1.3l-4.8-2l2.2-4.9c0,0,0.2,0-1.5-0.7c-1.7-0.7-5.4-0.4-5.4-0.4l0.8-17.2c0,0,8-11.2,8.2-14.4
		c0,0-2.7-4-17.5-4.1c0,0-7.8-17-33.5-21.3c0,0-24.9-3-40.5,18.7l-3.2,1.3l-6.3-1.5l14.3-8.6l-39.7,7l15,10.4L13.7,57l7.1,2
		l-0.9,5.3l9.7-4.7l2.6-1.4l3.5,0.9l-1.6,6l-3,1.5l3,1c0,0,0.1,10.2,3.9,15.3l-6.4,3.6l6.9,0.8l4.4,4.1c0,0-14.3,5.8-18.3,8.5
		c-4,2.7-7.4,10.1-6.4,13.2c1,3.1,6.9,9.4,13.4,12.5c6.5,3.1,15.2,4.4,18.9,1c3.6-3.5,5.3-10.3,6-13c0.7-2.7,1.5-8.8,1.5-8.8
		s13.6-1.8,16-2.9c2.4-1.1,10-6.7,10-6.7l7.5,0.7l4.3,0.9l9.9,6l8.5-7.4L128.1,99.1z"/>
	<path fill="#FFFFFF" d="M45.2,41.9c0,0,3-4.6,6.2-6.5l6.3,2.3l1.6-2.3l10.1-1.6l5.9,1.6l4.6,5.5l3.8-4l6.4-2h5l6.4,4.9l1,2.1h4
		l1.8,2.4l-0.4,1.5c0,0-1.5-0.5-5,0c0,0-9.9-4.9-21.2-1.1l-1.6,0.1c0,0-12.7,1-18.2,6l-7.9-2.4c0,0,3.4-4.1,2.3-7.1
		C55.2,38.2,49.4,39.7,45.2,41.9z"/>
	<path fill="#808285" d="M109.9,45.8c0,0,0.4-4.9-6.1-5.8c0,0-0.8-7.4-9.3-8.9c-8.5-1.5-14.4,4-14.4,4s-1.6-6-11.8-7.1
		c0,0-7.8-0.1-11.5,5.5c0,0-1.6-0.5-3.3,0.3c-1.6,0.8-4.1,3.1-4.1,3.1s9.5-0.2,10.2,8.9c0,0,2.3-5.9-0.8-9.1c0,0,15-7.4,21.2,8.1
		l1.6-0.1v-4.3c0,0,4.8-6,12.1-4.4c7.4,1.6,9,9.8,9,9.8s0.9-7.6,5,0H109.9z"/>
	<g>
		<path fill="#7C2336" d="M125.7,47c-4.3-0.6-7.6-0.7-8.5-0.7c-0.9,0-2.7,8.4,0.2,11.5c3,3.1,8.6,4.4,9.6,4c1-0.3,6.8-7.5,7.9-11.9
			C134.9,49.9,130,47.6,125.7,47z M126.4,59.9c-2,0.5-6.3-1.6-6.7-3.3c0,0,3.9-0.3,7.3-2c3.5-1.7,5.4-3,5.4-3S128.4,59.4,126.4,59.9
			z"/>
		<g>
			<path fill="#808285" d="M119.2,46.3c0,0-4.8,3.6-2.5,10.5c0,0-5.9,1-6.8,2c0,0-14.6-7.3-21.3,7.1c0,0-9.1,4-17.4,9.9
				c0,0-1.1-6.3,4-10.5c5.1-4.3,8.4-6.9,8.4-6.9l-9.9-3.6c0,0,0.9-2.6,0.8-4.5C74.5,50.3,97.8,46.6,119.2,46.3z"/>
			<g>
				<path d="M113.7,50.5c0,0-2.1,2.2-4.3,2.5c0,0-1.1,2.2-4.7,2.2c-3.6-0.1-4.3-3.8-5.5-4.6s-2.7,0.5-4.4,1.3c0,0,1.9-3.6,5.7-3.6
					c3.7-0.1,2.6,1.7,7.1,2.2C112,50.8,113.7,50.5,113.7,50.5z"/>
				<path fill="#7C2336" d="M103.2,50.8c0,0,1.2-0.3,1.7,0.2c0.5,0.5,0.9,1.1,1.5,1.1c0.6,0,1.6-0.1,2.1,0c0.5,0.1,1.4,1.7-1.8,1.7
					C103.6,53.9,103.2,50.8,103.2,50.8z"/>
				<path fill="#FFFFFF" d="M100,50.1c0,0,2.7-0.6,3.3,0c0.1,0.1,0.2,0.2,0.3,0.4c0.5,0.9,1.3,2.7,2.3,2.8c1.1,0.2,2.5,0.2,2.5,0.2
					s-3.2,1.6-5.6,0C100.3,51.9,100,50.1,100,50.1z"/>
			</g>
			<path fill="#FFFFFF" d="M86.5,57.7c0.5-1.2-9.8-4.6-12.1-5.3c-0.2,1.3-0.6,2.4-0.6,2.4l9.9,3.6c0,0-2.2,1.8-5.7,4.7
				C82.2,62.6,85.9,58.9,86.5,57.7z"/>
		</g>
	</g>
	<g>
		<path fill="#FFFFFF" d="M123.9,64l-6.9,5.6c0,0-0.2-0.2-0.5-0.5c-1.3-1.1-5.5-3.6-14.5-3.1c-8,0.4-12.3,4.4-12.3,4.4
			s-1-1.7,1.6-6.4c2.6-4.7,9.1-7.8,17.3-4.5c8.2,3.3,8.5,4.6,11.2,4.8S123.9,64,123.9,64z"/>
		<path fill="none" stroke="#7C2336" stroke-width="0.6174" stroke-linecap="round" stroke-linejoin="round" d="M96.6,59.7
			c0,0-4.3,5.2-4.6,8.9c0,0,1.5-4.4,11.2-9.9c0,0-5.1,5.6-5.5,7.6c0,0,7-4.9,10.6-5.6l-4.5,4.5l8-3.3l-2,3.4l6.2-1.9l-3.3,3.5
			l5.6-1.7l-1.8,3.4"/>
	</g>
	<g>
		<path fill="none" stroke="#808285" stroke-width="0.4356" d="M100,46.3c0,0-4.7-2.7-13-1.6c-8.3,1.1-12,2.6-14.4,2.7
			c-2.4,0.1-7.5,2.1-9.3,3.9"/>
		<line fill="none" stroke="#808285" stroke-width="0.4356" x1="72.3" y1="48.9" x2="73.2" y2="47.4"/>
		<path fill="none" stroke="#808285" stroke-width="0.4356" d="M86.2,47.4c0,0,1.1-1.4,1.2-2.7"/>
	</g>
	<g>
		<g>
			<g>
				<polygon fill="#FFFFFF" points="116.9,71.2 111.4,74.6 115.5,77.6 121.6,75.8 				"/>
				<path fill="#808285" d="M120.1,69.1l-4.6,2.9c0,0,7.2,4.2,9.3,6.1c0,0,1.2-2.8,0.4-4.8C124.4,71.3,120.1,69.1,120.1,69.1z"/>
			</g>
			<path fill="#7C2336" d="M132.5,58.2c0,0-4.9,5.9-7.9,6.9c0,0,1,11.5-0.6,14.2c-1.7,2.7-1.6,2.4-1.6,2.4l2.8,1.5l7.3-2.5
				C132.5,80.6,135.4,67.6,132.5,58.2z"/>
		</g>
		<polygon fill="#808285" points="110,77.2 109.4,77.6 111.4,79.4 112,78.9 		"/>
		<path fill="#808285" d="M120.5,79.4l-19.3,9.3l4.9,0.8c0,0,11.8-6.2,13.2-7.1C120.5,81.6,120.5,79.4,120.5,79.4z"/>
		<polygon fill="#808285" points="119.9,83.8 119.2,84.5 120.5,85.6 121.4,84.7 		"/>
		<polygon fill="#808285" points="129.3,89.5 128.1,90.5 132.4,93.6 138.8,90.4 138.2,89.9 133,92.2 		"/>
		<polygon fill="#808285" points="130.7,84.7 129.7,86.9 117.5,94.4 112.8,93.6 		"/>
	</g>
	<polygon fill="#7C2336" points="107,95.9 103.6,94.9 110.1,91.3 106.5,94.6 107.9,94.9 	"/>
	<polygon fill="#7C2336" points="94.9,91 91.6,90 98.1,86.4 94.4,89.6 95.9,89.9 	"/>
	<path fill="#808285" d="M35.4,85.2c0,0,4.2,1.3,4.6,2.3L63,77.2c0,0-6.2-2.5-9.5-1.4C50.1,77,35.4,85.2,35.4,85.2z"/>
	<path fill="none" stroke="#808285" stroke-width="0.6174" stroke-linecap="round" stroke-linejoin="round" d="M41.5,89.5L64.4,79
		c0,0,3.8,5.8,9.9,8.9l-13.7,4.4"/>
	<path fill="#808285" d="M60.7,94.4l-0.8,8.4c0,0,14.6-4.6,16.9-5.4c2.3-0.8,4.2-2.4,3.9-4.2c-0.2-1.8-2.3-3.8-6.4-3
		C70.1,91,60.7,94.4,60.7,94.4z"/>
	<g>
		<g>
			<path fill="#808285" d="M72.8,57l-3.3,2.5c0,0,4.3,1.2,5.8,1.5c1.6,0.3,5-1.5,3.8-2C77.8,58.6,72.8,57,72.8,57z"/>
			<polygon fill="#808285" points="59.7,52.4 56.3,54.7 47.8,52.1 51.9,49.9 			"/>
			<polygon fill="#808285" points="38,45.4 34.4,47.4 19.9,42.3 38,37.6 28,42.5 			"/>
			<g>
				<path fill="#7C2336" d="M44.3,44.2l4.6-2.3c0,0,2.4-0.8,3.6-1.1c1.3-0.3,2.6,0,2.6,0s0.7,1,0.4,3c-0.3,2-1.4,2.8-2.8,3.9
					c-1.4,1.2-4.1,2.4-4.1,2.4L48,49.3c0,0,3-1.8,3.9-2.7c1-0.9,1.9-2.2,1.3-2.7c-0.5-0.5-1.1,0-2.9,0.9c-1.8,0.9-5.8,3.2-5.8,3.2
					L44.3,44.2z"/>
				<path fill="#808285" d="M45.5,43.6L45,43.8l-13.5,6c0,0-1.4,3-2.6,4.2c-1.2,1.2-7.3,4.6-7.3,4.6l-0.5,3.7l8.3-3.7l0.7-2.2l5-0.1
					l13.8-6.6l-0.6-0.8l-13.3,6.4l-6.2,0.1l17-8.2L45.5,43.6z"/>
			</g>
			<g>
				<path fill="#7C2336" d="M61.4,53.7l4.6-2.4c0,0,2.4-0.9,3.6-1.1c1.3-0.3,2.6,0,2.6,0s0.7,1,0.4,3c-0.3,2-1.4,2.8-2.8,4
					c-1.4,1.2-4.1,2.4-4.1,2.4l-0.6-0.8c0,0,3-1.9,3.9-2.7c0.9-0.9,1.9-2.2,1.3-2.7c-0.6-0.5-1.1,0-2.9,0.9
					c-1.8,0.9-5.8,3.3-5.8,3.3L61.4,53.7z"/>
				<path fill="#808285" d="M62.6,53.1l-0.5,0.2l-13.4,6.1c0,0-1.4,3-2.6,4.2c-1.2,1.2-7.2,4.7-7.2,4.7L38.5,72l8.3-3.8l0.7-2.2
					l5-0.1l13.8-6.7l-0.6-0.8L52.4,65l-6.2,0.1l16.9-8.3L62.6,53.1z"/>
			</g>
		</g>
		<g>
			<path fill="#7C2336" d="M44.3,44.2l4.6-2.3c0,0,2.4-0.8,3.6-1.1c1.3-0.3,2.6,0,2.6,0s0.7,1,0.4,3c-0.3,2-1.4,2.8-2.8,3.9
				c-1.4,1.2-4.1,2.4-4.1,2.4L48,49.3c0,0,3-1.8,3.9-2.7c1-0.9,1.9-2.2,1.3-2.7c-0.5-0.5-1.1,0-2.9,0.9c-1.8,0.9-5.8,3.2-5.8,3.2
				L44.3,44.2z"/>
			<path fill="#808285" d="M45.5,43.6L45,43.8l-13.5,6c0,0-1.4,3-2.6,4.2c-1.2,1.2-7.3,4.6-7.3,4.6l-0.5,3.7l8.3-3.7l0.7-2.2l5-0.1
				l13.8-6.6l-0.6-0.8l-13.3,6.4l-6.2,0.1l17-8.2L45.5,43.6z"/>
		</g>
		<polygon fill="#7C2336" points="39.6,67.2 34.1,66.7 42.9,61.8 38.3,66 40.8,66 		"/>
		<polygon fill="#7C2336" points="21.9,57.8 16.3,57.3 25.2,52.5 20.6,56.6 23.1,56.6 		"/>
	</g>
	<g>
		<polygon fill="#FFFFFF" points="31.6,99.1 57.9,85 41.8,101.8 38.6,100.4 49.7,90.4 35.6,99.8 		"/>
		<polygon fill="#FFFFFF" points="44.2,103.5 61.7,83.6 46.8,105.3 		"/>
		<path fill="#FFFFFF" d="M48.6,106.4l12.6-18.6l-7.8,24C53.4,111.7,49.9,108.2,48.6,106.4z"/>
		<path fill="#FFFFFF" d="M53.7,115c0,0-3.1-5.7-8.1-9.7c-5-4-11.8-4.9-11.8-4.9l8,4.9c0,0-5.8-2.8-8.8-3.5c0,0,6,3.4,6.7,4.2
			c0,0-6-1.8-8.1-1.7c0,0,13.8,4.6,20,14.6l-1.5-4.2c0,0,2.6,2.2,3.6,3.6c0,0-0.6-3.4-2.7-4.8C51,113.4,52.3,113.6,53.7,115z"/>
	</g>
	<path fill="#FFFFFF" d="M55.4,117.5C55.4,117.6,55.4,117.5,55.4,117.5c-0.5-2-2.9-9.4-12.4-14.7c-9.5-5.4-18.3-2.9-18.3-2.8
		c-0.1,0-0.4,0-0.3-0.1c0.1-0.1,0.7-0.5,0.9-0.5c0,0,0,0,0.1,0c2.4-0.5,9.9-1.5,17.9,3.1c8.7,4.9,11.5,11.4,12.4,14.2
		c0,0,0.1,0.1,0,0.1C55.6,116.7,55.6,117,55.4,117.5z"/>
	<path fill="#FFFFFF" d="M51.2,125.8C51.2,125.8,51.2,125.7,51.2,125.8c-0.1-1-1.1-11.8-12-16.6c-10.9-4.7-15.9-3.6-18.9-2.9
		c-0.2,0-0.4,0.1-0.6,0.1c0,0-0.1,0-0.1,0c0,0,0,0-0.1,0l0.2-0.5c0,0,0,0,0.1,0c0.1,0,0.2,0,0.3-0.1c3.1-0.7,8.2-1.9,19.2,2.9
		c10.2,4.5,12,14.1,12.3,16.5c0,0,0,0,0,0C51.5,125.3,51.4,125.5,51.2,125.8z"/>
	<path fill="#FFFFFF" d="M51.4,126"/>
	<g>
		<g>
			<path fill="none" stroke="#000000" stroke-width="4.3225" stroke-miterlimit="2.5" d="M25.9,51c-0.4-0.1-0.8-0.2-1.2-0.3
				c0.2-0.5,0.3-1.1,0.5-1.6c-1.5-0.5-3-1-4.6-1.5c-0.2,0.6-0.4,1.1-0.5,1.7c-0.4-0.1-0.8-0.2-1.2-0.3c0.7-2.2,1.4-4.4,2.2-6.5
				c0.4,0.2,0.8,0.3,1.1,0.5c-0.2,0.5-0.4,1.1-0.6,1.6c1.5,0.6,3,1.1,4.5,1.7c0.4-1,0.8-2,1.2-3c-0.7-0.3-1.4-0.6-2-0.9
				c0.3-0.7,0.6-1.4,0.9-2c1,0.5,2.1,1,3.1,1.5C28,44.7,26.9,47.7,25.9,51z"/>
			<path fill="none" stroke="#000000" stroke-width="4.3225" stroke-miterlimit="2.5" d="M34.9,30.4c0.3,0.3,0.6,0.5,1,0.8
				c-1,1.3-1.9,2.6-2.8,4c-0.3-0.2-0.7-0.4-1-0.7c0.2-0.4,0.5-0.7,0.7-1.1c-0.4-0.1-0.9-0.2-1.3-0.3c-0.5,0.8-1,1.5-1.5,2.3
				c0.3,0.4,0.5,0.8,0.8,1.1c0.2-0.4,0.5-0.8,0.7-1.2c0.3,0.2,0.7,0.4,1,0.7c-0.8,1.3-1.5,2.6-2.2,4c-0.4-0.2-0.7-0.4-1.1-0.6
				c0.2-0.4,0.4-0.8,0.6-1.2c-1.1-1.4-2.1-2.8-3.1-4.3c-0.3,0.4-0.5,0.9-0.7,1.3c-0.4-0.2-0.7-0.4-1.1-0.6c1.2-2.2,2.6-4.3,4-6.3
				c0.3,0.2,0.7,0.5,1,0.7c-0.3,0.4-0.6,0.8-0.9,1.2c1.7,0.3,3.5,0.6,5.2,1C34.4,31,34.7,30.7,34.9,30.4z M30.3,32.9
				c-0.8-0.2-1.5-0.3-2.3-0.4c0.4,0.7,0.9,1.4,1.3,2C29.6,33.9,30,33.4,30.3,32.9z"/>
			<path fill="none" stroke="#000000" stroke-width="4.3225" stroke-miterlimit="2.5" d="M39.9,24.8c0.3,0.3,0.6,0.6,0.9,0.9
				c-1.2,1.2-2.4,2.5-3.5,3.8c-0.3-0.3-0.6-0.5-0.9-0.8c0.3-0.3,0.6-0.6,0.8-1c-1.2-1.1-2.4-2.1-3.6-3.2c-0.3,0.3-0.6,0.7-0.9,1
				c-0.3-0.3-0.6-0.5-0.9-0.8c1.2-1.5,2.6-2.9,3.9-4.3c1-0.9,1.9-1.5,2.7-1.6c0.8-0.2,1.4,0,1.9,0.6c0.3,0.3,0.4,0.7,0.4,1.1
				c0,0.4,0,0.8-0.2,1.2c-0.2,0.4-0.4,0.8-0.7,1.1c-0.3,0.4-0.7,0.8-1.2,1.3c-0.2,0.2-0.5,0.5-0.7,0.7c0.3,0.3,0.7,0.7,1,1
				C39.2,25.5,39.5,25.1,39.9,24.8z M37,24c0.1-0.1,0.2-0.2,0.3-0.3c0.6-0.7,1-1.1,1-1.5c0-0.3,0-0.6-0.3-0.8
				c-0.2-0.2-0.4-0.3-0.7-0.3c-0.3,0-0.5,0.1-0.7,0.2c-0.2,0.1-0.5,0.4-0.9,0.8c-0.1,0.1-0.2,0.3-0.4,0.4C36,22.9,36.5,23.5,37,24z"
				/>
			<path fill="none" stroke="#000000" stroke-width="4.3225" stroke-miterlimit="2.5" d="M48.6,17.7c0.2,0.3,0.5,0.7,0.7,1
				c-1.4,0.9-2.7,1.9-4.1,2.9c-0.3-0.3-0.5-0.6-0.8-1c0.3-0.3,0.6-0.5,1-0.8c-1-1.3-1.9-2.6-2.9-3.8c-0.4,0.3-0.7,0.5-1.1,0.8
				c-0.3-0.3-0.5-0.6-0.8-1c1.5-1.2,3-2.3,4.6-3.3c1.1-0.7,2.1-1.1,2.9-1c0.8,0,1.4,0.3,1.8,0.9c0.2,0.3,0.3,0.7,0.2,1.1
				c0,0.4-0.2,0.8-0.4,1.1c-0.2,0.3-0.5,0.7-0.9,1c-0.4,0.3-0.8,0.6-1.4,1c-0.3,0.2-0.5,0.4-0.8,0.5c0.3,0.4,0.5,0.8,0.8,1.2
				C47.9,18.2,48.2,18,48.6,17.7z M46,16.3c0.1-0.1,0.2-0.1,0.3-0.2c0.7-0.5,1.2-0.9,1.3-1.2c0.1-0.3,0.1-0.6-0.1-0.9
				c-0.1-0.2-0.3-0.4-0.6-0.4c-0.3-0.1-0.5,0-0.7,0.1c-0.2,0.1-0.6,0.3-1,0.6c-0.1,0.1-0.3,0.2-0.4,0.3C45.2,15.1,45.6,15.7,46,16.3
				z"/>
			<path fill="none" stroke="#000000" stroke-width="4.3225" stroke-miterlimit="2.5" d="M54.3,15.8c-0.2-0.4-0.4-0.7-0.6-1.1
				c0.4-0.2,0.9-0.4,1.3-0.6c-0.7-1.4-1.4-2.9-2.1-4.3c-0.5,0.2-0.9,0.5-1.4,0.7c-0.2-0.4-0.4-0.7-0.6-1.1c1.8-0.9,3.6-1.7,5.4-2.5
				c0.2,0.4,0.3,0.8,0.5,1.1c-0.5,0.2-1,0.4-1.5,0.6c0.7,1.5,1.3,2.9,2,4.4c0.4-0.2,0.9-0.4,1.3-0.6c0.2,0.4,0.3,0.8,0.5,1.1
				C57.5,14.3,55.9,15,54.3,15.8z"/>
			<path fill="none" stroke="#000000" stroke-width="4.3225" stroke-miterlimit="2.5" d="M61.3,12.8c-0.1-0.4-0.3-0.8-0.4-1.1
				c0.4-0.1,0.8-0.3,1.2-0.4c-0.5-1.5-1-3-1.6-4.5c-0.4,0.1-0.9,0.3-1.3,0.4c-0.1-0.4-0.3-0.8-0.4-1.1c1.4-0.5,2.8-0.9,4.2-1.3
				c1.7,1.1,3.2,2.2,4.7,3.5C67.5,7.1,67.2,6,67,4.9c-0.4,0.1-0.9,0.2-1.3,0.3c-0.1-0.4-0.2-0.8-0.3-1.2c1.5-0.4,3.1-0.7,4.6-0.9
				c0.1,0.4,0.1,0.8,0.2,1.2c-0.5,0.1-0.9,0.2-1.4,0.3c0.4,2,0.8,4,1.2,5.9c-0.7,0.1-1.4,0.3-2,0.4c-1.7-1.4-3.5-2.8-5.5-4.1
				c0.4,1.3,0.8,2.6,1.2,3.9c0.4-0.1,0.8-0.2,1.1-0.3c0.1,0.4,0.2,0.8,0.3,1.2C63.9,12,62.6,12.4,61.3,12.8z"/>
			<path fill="none" stroke="#000000" stroke-width="4.3225" stroke-miterlimit="2.5" d="M73.3,8.1c-0.1-0.5-0.1-0.9-0.2-1.4
				c1.3-0.2,2.6-0.3,3.9-0.4c0,0.5,0.1,0.9,0.1,1.4C75.8,7.8,74.5,7.9,73.3,8.1z"/>
			<path fill="none" stroke="#000000" stroke-width="4.3225" stroke-miterlimit="2.5" d="M79.7,9.4c0-0.4,0-0.8,0-1.2
				c0.5,0,0.9,0,1.4,0c0-1.6,0-3.2,0-4.8c-0.5,0-1,0-1.5,0c0-0.4,0-0.8,0-1.2c3.1-0.1,6.2,0.1,9.3,0.4c-0.1,0.7-0.2,1.5-0.3,2.2
				c-0.6-0.1-1.3-0.1-1.9-0.2c0-0.3,0.1-0.7,0.1-1c-1-0.1-2-0.1-3.1-0.2c0,0.6,0,1.1-0.1,1.7c0.7,0,1.4,0.1,2.2,0.1
				c0,0.4-0.1,0.8-0.1,1.2c-0.7,0-1.4-0.1-2.1-0.1c0,0.6,0,1.3-0.1,1.9c0.5,0,1,0,1.5,0.1c0,0.4-0.1,0.8-0.1,1.2
				C83.2,9.4,81.5,9.4,79.7,9.4z"/>
			<path fill="none" stroke="#000000" stroke-width="4.3225" stroke-miterlimit="2.5" d="M97.3,4c1.8,0.4,3,1.2,3.8,2.2
				c0.8,1,0.9,2,0.6,3c-0.3,1-1.1,1.7-2.2,2.1c-1.1,0.4-2.4,0.4-4,0c-1.6-0.4-2.8-1-3.5-1.9c-0.8-0.9-1.1-1.8-0.9-2.8
				c0.2-1,0.8-1.8,1.9-2.4C94.1,3.6,95.6,3.5,97.3,4z M97,5.2c-0.8-0.2-1.5-0.1-2.1,0.2c-0.6,0.3-1,0.8-1.2,1.6
				c-0.1,0.7,0,1.3,0.4,1.8c0.4,0.5,1,0.9,1.7,1c0.7,0.2,1.4,0.1,2-0.1c0.6-0.3,1-0.8,1.3-1.5c0.2-0.7,0.1-1.3-0.3-1.9
				C98.4,5.8,97.8,5.4,97,5.2z"/>
			<path fill="none" stroke="#000000" stroke-width="4.3225" stroke-miterlimit="2.5" d="M112.4,16.7c-0.2,0.3-0.4,0.7-0.6,1
				c-0.8-0.5-1.6-1-2.5-1.4c-0.1-1.3-0.3-2.5-0.5-3.8c-0.3-0.2-0.7-0.3-1-0.5c-0.3,0.6-0.6,1.2-0.8,1.8c0.4,0.2,0.7,0.3,1.1,0.5
				c-0.2,0.4-0.4,0.7-0.6,1.1c-1.5-0.7-3-1.4-4.5-2c0.2-0.4,0.3-0.8,0.5-1.1c0.4,0.2,0.8,0.3,1.2,0.5c0.6-1.5,1.3-2.9,1.9-4.4
				c-0.4-0.2-0.9-0.4-1.3-0.5c0.2-0.4,0.3-0.8,0.5-1.1c2,0.8,3.9,1.6,5.8,2.6c1.1,0.5,1.7,1.1,2,1.8c0.3,0.6,0.2,1.2,0,1.6
				c-0.4,0.7-1.2,0.9-2.4,0.7c0.1,0.9,0.2,1.8,0.3,2.7C111.6,16.3,112,16.5,112.4,16.7z M108.3,11c0.3,0.1,0.5,0.3,0.8,0.4
				c1,0.5,1.6,0.5,1.9,0c0.1-0.2,0.1-0.5,0-0.7c-0.2-0.2-0.5-0.5-0.9-0.7c-0.3-0.2-0.7-0.3-1.1-0.5C108.7,10,108.5,10.5,108.3,11z"
				/>
			<path fill="none" stroke="#000000" stroke-width="4.3225" stroke-miterlimit="2.5" d="M114.8,19.7c0.2-0.3,0.5-0.7,0.7-1
				c0.4,0.3,0.8,0.6,1.2,0.8c1-1.3,1.9-2.6,2.9-3.9c-0.4-0.3-0.8-0.6-1.3-0.9c-0.3,0.5-0.7,0.9-1,1.4c-0.5-0.3-1-0.7-1.4-1
				c0.5-0.8,1.1-1.6,1.6-2.4c2.7,1.8,5.2,3.7,7.7,5.9c-0.7,0.7-1.3,1.4-2,2.2c-0.4-0.4-0.9-0.8-1.3-1.2c0.4-0.4,0.7-0.9,1.1-1.3
				c-0.4-0.4-0.8-0.7-1.3-1c-1,1.2-2,2.5-3,3.7c0.4,0.3,0.8,0.6,1.1,0.9c-0.3,0.3-0.5,0.6-0.8,0.9C117.7,21.8,116.2,20.7,114.8,19.7
				z"/>
			<path fill="none" stroke="#000000" stroke-width="4.3225" stroke-miterlimit="2.5" d="M122,25.8c0.3-0.3,0.6-0.6,0.9-0.9
				c0.4,0.4,0.7,0.7,1.1,1.1c1.2-1.1,2.3-2.2,3.5-3.3c-0.4-0.4-0.8-0.8-1.1-1.2c0.3-0.3,0.6-0.6,0.9-0.9c1.5,1.4,2.9,3,4.2,4.6
				c-0.3,0.3-0.6,0.5-0.9,0.8c-0.4-0.4-0.7-0.9-1.1-1.3c-1.2,1.1-2.4,2.1-3.6,3.2c0.3,0.4,0.7,0.8,1,1.2c-0.3,0.3-0.6,0.5-0.9,0.8
				C124.6,28.4,123.3,27.1,122,25.8z"/>
			<path fill="none" stroke="#000000" stroke-width="4.3225" stroke-miterlimit="2.5" d="M127.3,31.8c0.3-0.2,0.6-0.5,1-0.7
				c0.3,0.4,0.5,0.7,0.8,1.1c1.3-0.9,2.6-1.9,3.9-2.8c-0.3-0.4-0.6-0.8-0.9-1.2c0.3-0.2,0.6-0.5,1-0.7c0.9,1.3,1.8,2.6,2.7,3.9
				c-0.5,2-1.1,4-1.8,5.9c1-0.5,1.9-1.1,2.9-1.6c-0.2-0.4-0.5-0.9-0.7-1.3c0.4-0.2,0.7-0.4,1-0.6c0.9,1.5,1.7,3.1,2.5,4.7
				c-0.4,0.2-0.7,0.4-1.1,0.5c-0.2-0.5-0.5-1-0.7-1.5c-1.8,0.9-3.6,1.9-5.4,2.8c-0.4-0.7-0.7-1.4-1.1-2c0.8-2.2,1.5-4.5,2.1-6.8
				c-1.1,0.8-2.3,1.5-3.4,2.3c0.2,0.4,0.5,0.7,0.7,1.1c-0.3,0.2-0.7,0.4-1,0.7C129,34.2,128.1,33,127.3,31.8z"/>
			<path fill="none" stroke="#000000" stroke-width="4.3225" stroke-miterlimit="2.5" d="M134.3,44.1c0.8-0.3,1.5-0.7,2.3-1
				c0.2,0.6,0.5,1.2,0.7,1.8c-0.4,0.2-0.7,0.5-0.7,0.9c-0.1,0.4,0,0.8,0.1,1.2c0.1,0.3,0.3,0.6,0.5,0.8c0.2,0.2,0.4,0.2,0.6,0.2
				c0.2-0.1,0.3-0.2,0.4-0.5c0.1-0.3,0.1-0.7,0.1-1.4c-0.1-1.4-0.1-2.4,0-2.9c0.1-0.6,0.4-1,0.9-1.2c0.6-0.3,1.2-0.2,1.7,0.3
				c0.6,0.5,1,1.1,1.3,1.9c0.3,0.9,0.4,1.7,0.1,2.4c0.2-0.1,0.4-0.1,0.6-0.2c0.2,0.7,0.4,1.3,0.6,2c-0.7,0.2-1.4,0.4-2.1,0.6
				c-0.2-0.7-0.4-1.3-0.6-2c0.3-0.2,0.5-0.4,0.6-0.8c0.1-0.4,0-0.8-0.1-1.2c-0.1-0.3-0.3-0.6-0.4-0.7c-0.2-0.2-0.4-0.2-0.5-0.2
				c-0.1,0.1-0.2,0.2-0.3,0.4c-0.1,0.2,0,0.8,0,1.8c0.1,0.9,0.1,1.6,0,2.1c0,0.5-0.2,0.9-0.4,1.3c-0.2,0.3-0.5,0.6-0.9,0.7
				c-0.7,0.2-1.3,0-1.8-0.5c-0.5-0.5-0.9-1.2-1.2-2c-0.3-0.9-0.4-1.7-0.1-2.3c-0.2,0.1-0.4,0.2-0.6,0.2
				C134.7,45.2,134.5,44.6,134.3,44.1z"/>
		</g>
		<g>
			<path fill="none" stroke="#E8C43A" stroke-width="2.7018" stroke-miterlimit="2.5" d="M25.9,51c-0.4-0.1-0.8-0.2-1.2-0.3
				c0.2-0.5,0.3-1.1,0.5-1.6c-1.5-0.5-3-1-4.6-1.5c-0.2,0.6-0.4,1.1-0.5,1.7c-0.4-0.1-0.8-0.2-1.2-0.3c0.7-2.2,1.4-4.4,2.2-6.5
				c0.4,0.2,0.8,0.3,1.1,0.5c-0.2,0.5-0.4,1.1-0.6,1.6c1.5,0.6,3,1.1,4.5,1.7c0.4-1,0.8-2,1.2-3c-0.7-0.3-1.4-0.6-2-0.9
				c0.3-0.7,0.6-1.4,0.9-2c1,0.5,2.1,1,3.1,1.5C28,44.7,26.9,47.7,25.9,51z"/>
			<path fill="none" stroke="#E8C43A" stroke-width="2.7018" stroke-miterlimit="2.5" d="M34.9,30.4c0.3,0.3,0.6,0.5,1,0.8
				c-1,1.3-1.9,2.6-2.8,4c-0.3-0.2-0.7-0.4-1-0.7c0.2-0.4,0.5-0.7,0.7-1.1c-0.4-0.1-0.9-0.2-1.3-0.3c-0.5,0.8-1,1.5-1.5,2.3
				c0.3,0.4,0.5,0.8,0.8,1.1c0.2-0.4,0.5-0.8,0.7-1.2c0.3,0.2,0.7,0.4,1,0.7c-0.8,1.3-1.5,2.6-2.2,4c-0.4-0.2-0.7-0.4-1.1-0.6
				c0.2-0.4,0.4-0.8,0.6-1.2c-1.1-1.4-2.1-2.8-3.1-4.3c-0.3,0.4-0.5,0.9-0.7,1.3c-0.4-0.2-0.7-0.4-1.1-0.6c1.2-2.2,2.6-4.3,4-6.3
				c0.3,0.2,0.7,0.5,1,0.7c-0.3,0.4-0.6,0.8-0.9,1.2c1.7,0.3,3.5,0.6,5.2,1C34.4,31,34.7,30.7,34.9,30.4z M30.3,32.9
				c-0.8-0.2-1.5-0.3-2.3-0.4c0.4,0.7,0.9,1.4,1.3,2C29.6,33.9,30,33.4,30.3,32.9z"/>
			<path fill="none" stroke="#E8C43A" stroke-width="2.7018" stroke-miterlimit="2.5" d="M39.9,24.8c0.3,0.3,0.6,0.6,0.9,0.9
				c-1.2,1.2-2.4,2.5-3.5,3.8c-0.3-0.3-0.6-0.5-0.9-0.8c0.3-0.3,0.6-0.6,0.8-1c-1.2-1.1-2.4-2.1-3.6-3.2c-0.3,0.3-0.6,0.7-0.9,1
				c-0.3-0.3-0.6-0.5-0.9-0.8c1.2-1.5,2.6-2.9,3.9-4.3c1-0.9,1.9-1.5,2.7-1.6c0.8-0.2,1.4,0,1.9,0.6c0.3,0.3,0.4,0.7,0.4,1.1
				c0,0.4,0,0.8-0.2,1.2c-0.2,0.4-0.4,0.8-0.7,1.1c-0.3,0.4-0.7,0.8-1.2,1.3c-0.2,0.2-0.5,0.5-0.7,0.7c0.3,0.3,0.7,0.7,1,1
				C39.2,25.5,39.5,25.1,39.9,24.8z M37,24c0.1-0.1,0.2-0.2,0.3-0.3c0.6-0.7,1-1.1,1-1.5c0-0.3,0-0.6-0.3-0.8
				c-0.2-0.2-0.4-0.3-0.7-0.3c-0.3,0-0.5,0.1-0.7,0.2c-0.2,0.1-0.5,0.4-0.9,0.8c-0.1,0.1-0.2,0.3-0.4,0.4C36,22.9,36.5,23.5,37,24z"
				/>
			<path fill="none" stroke="#E8C43A" stroke-width="2.7018" stroke-miterlimit="2.5" d="M48.6,17.7c0.2,0.3,0.5,0.7,0.7,1
				c-1.4,0.9-2.7,1.9-4.1,2.9c-0.3-0.3-0.5-0.6-0.8-1c0.3-0.3,0.6-0.5,1-0.8c-1-1.3-1.9-2.6-2.9-3.8c-0.4,0.3-0.7,0.5-1.1,0.8
				c-0.3-0.3-0.5-0.6-0.8-1c1.5-1.2,3-2.3,4.6-3.3c1.1-0.7,2.1-1.1,2.9-1c0.8,0,1.4,0.3,1.8,0.9c0.2,0.3,0.3,0.7,0.2,1.1
				c0,0.4-0.2,0.8-0.4,1.1c-0.2,0.3-0.5,0.7-0.9,1c-0.4,0.3-0.8,0.6-1.4,1c-0.3,0.2-0.5,0.4-0.8,0.5c0.3,0.4,0.5,0.8,0.8,1.2
				C47.9,18.2,48.2,18,48.6,17.7z M46,16.3c0.1-0.1,0.2-0.1,0.3-0.2c0.7-0.5,1.2-0.9,1.3-1.2c0.1-0.3,0.1-0.6-0.1-0.9
				c-0.1-0.2-0.3-0.4-0.6-0.4c-0.3-0.1-0.5,0-0.7,0.1c-0.2,0.1-0.6,0.3-1,0.6c-0.1,0.1-0.3,0.2-0.4,0.3C45.2,15.1,45.6,15.7,46,16.3
				z"/>
			<path fill="none" stroke="#E8C43A" stroke-width="2.7018" stroke-miterlimit="2.5" d="M54.3,15.8c-0.2-0.4-0.4-0.7-0.6-1.1
				c0.4-0.2,0.9-0.4,1.3-0.6c-0.7-1.4-1.4-2.9-2.1-4.3c-0.5,0.2-0.9,0.5-1.4,0.7c-0.2-0.4-0.4-0.7-0.6-1.1c1.8-0.9,3.6-1.7,5.4-2.5
				c0.2,0.4,0.3,0.8,0.5,1.1c-0.5,0.2-1,0.4-1.5,0.6c0.7,1.5,1.3,2.9,2,4.4c0.4-0.2,0.9-0.4,1.3-0.6c0.2,0.4,0.3,0.8,0.5,1.1
				C57.5,14.3,55.9,15,54.3,15.8z"/>
			<path fill="none" stroke="#E8C43A" stroke-width="2.7018" stroke-miterlimit="2.5" d="M61.3,12.8c-0.1-0.4-0.3-0.8-0.4-1.1
				c0.4-0.1,0.8-0.3,1.2-0.4c-0.5-1.5-1-3-1.6-4.5c-0.4,0.1-0.9,0.3-1.3,0.4c-0.1-0.4-0.3-0.8-0.4-1.1c1.4-0.5,2.8-0.9,4.2-1.3
				c1.7,1.1,3.2,2.2,4.7,3.5C67.5,7.1,67.2,6,67,4.9c-0.4,0.1-0.9,0.2-1.3,0.3c-0.1-0.4-0.2-0.8-0.3-1.2c1.5-0.4,3.1-0.7,4.6-0.9
				c0.1,0.4,0.1,0.8,0.2,1.2c-0.5,0.1-0.9,0.2-1.4,0.3c0.4,2,0.8,4,1.2,5.9c-0.7,0.1-1.4,0.3-2,0.4c-1.7-1.4-3.5-2.8-5.5-4.1
				c0.4,1.3,0.8,2.6,1.2,3.9c0.4-0.1,0.8-0.2,1.1-0.3c0.1,0.4,0.2,0.8,0.3,1.2C63.9,12,62.6,12.4,61.3,12.8z"/>
			<path fill="none" stroke="#E8C43A" stroke-width="2.7018" stroke-miterlimit="2.5" d="M73.3,8.1c-0.1-0.5-0.1-0.9-0.2-1.4
				c1.3-0.2,2.6-0.3,3.9-0.4c0,0.5,0.1,0.9,0.1,1.4C75.8,7.8,74.5,7.9,73.3,8.1z"/>
			<path fill="none" stroke="#E8C43A" stroke-width="2.7018" stroke-miterlimit="2.5" d="M79.7,9.4c0-0.4,0-0.8,0-1.2
				c0.5,0,0.9,0,1.4,0c0-1.6,0-3.2,0-4.8c-0.5,0-1,0-1.5,0c0-0.4,0-0.8,0-1.2c3.1-0.1,6.2,0.1,9.3,0.4c-0.1,0.7-0.2,1.5-0.3,2.2
				c-0.6-0.1-1.3-0.1-1.9-0.2c0-0.3,0.1-0.7,0.1-1c-1-0.1-2-0.1-3.1-0.2c0,0.6,0,1.1-0.1,1.7c0.7,0,1.4,0.1,2.2,0.1
				c0,0.4-0.1,0.8-0.1,1.2c-0.7,0-1.4-0.1-2.1-0.1c0,0.6,0,1.3-0.1,1.9c0.5,0,1,0,1.5,0.1c0,0.4-0.1,0.8-0.1,1.2
				C83.2,9.4,81.5,9.4,79.7,9.4z"/>
			<path fill="none" stroke="#E8C43A" stroke-width="2.7018" stroke-miterlimit="2.5" d="M97.3,4c1.8,0.4,3,1.2,3.8,2.2
				c0.8,1,0.9,2,0.6,3c-0.3,1-1.1,1.7-2.2,2.1c-1.1,0.4-2.4,0.4-4,0c-1.6-0.4-2.8-1-3.5-1.9c-0.8-0.9-1.1-1.8-0.9-2.8
				c0.2-1,0.8-1.8,1.9-2.4C94.1,3.6,95.6,3.5,97.3,4z M97,5.2c-0.8-0.2-1.5-0.1-2.1,0.2c-0.6,0.3-1,0.8-1.2,1.6
				c-0.1,0.7,0,1.3,0.4,1.8c0.4,0.5,1,0.9,1.7,1c0.7,0.2,1.4,0.1,2-0.1c0.6-0.3,1-0.8,1.3-1.5c0.2-0.7,0.1-1.3-0.3-1.9
				C98.4,5.8,97.8,5.4,97,5.2z"/>
			<path fill="none" stroke="#E8C43A" stroke-width="2.7018" stroke-miterlimit="2.5" d="M112.4,16.7c-0.2,0.3-0.4,0.7-0.6,1
				c-0.8-0.5-1.6-1-2.5-1.4c-0.1-1.3-0.3-2.5-0.5-3.8c-0.3-0.2-0.7-0.3-1-0.5c-0.3,0.6-0.6,1.2-0.8,1.8c0.4,0.2,0.7,0.3,1.1,0.5
				c-0.2,0.4-0.4,0.7-0.6,1.1c-1.5-0.7-3-1.4-4.5-2c0.2-0.4,0.3-0.8,0.5-1.1c0.4,0.2,0.8,0.3,1.2,0.5c0.6-1.5,1.3-2.9,1.9-4.4
				c-0.4-0.2-0.9-0.4-1.3-0.5c0.2-0.4,0.3-0.8,0.5-1.1c2,0.8,3.9,1.6,5.8,2.6c1.1,0.5,1.7,1.1,2,1.8c0.3,0.6,0.2,1.2,0,1.6
				c-0.4,0.7-1.2,0.9-2.4,0.7c0.1,0.9,0.2,1.8,0.3,2.7C111.6,16.3,112,16.5,112.4,16.7z M108.3,11c0.3,0.1,0.5,0.3,0.8,0.4
				c1,0.5,1.6,0.5,1.9,0c0.1-0.2,0.1-0.5,0-0.7c-0.2-0.2-0.5-0.5-0.9-0.7c-0.3-0.2-0.7-0.3-1.1-0.5C108.7,10,108.5,10.5,108.3,11z"
				/>
			<path fill="none" stroke="#E8C43A" stroke-width="2.7018" stroke-miterlimit="2.5" d="M114.8,19.7c0.2-0.3,0.5-0.7,0.7-1
				c0.4,0.3,0.8,0.6,1.2,0.8c1-1.3,1.9-2.6,2.9-3.9c-0.4-0.3-0.8-0.6-1.3-0.9c-0.3,0.5-0.7,0.9-1,1.4c-0.5-0.3-1-0.7-1.4-1
				c0.5-0.8,1.1-1.6,1.6-2.4c2.7,1.8,5.2,3.7,7.7,5.9c-0.7,0.7-1.3,1.4-2,2.2c-0.4-0.4-0.9-0.8-1.3-1.2c0.4-0.4,0.7-0.9,1.1-1.3
				c-0.4-0.4-0.8-0.7-1.3-1c-1,1.2-2,2.5-3,3.7c0.4,0.3,0.8,0.6,1.1,0.9c-0.3,0.3-0.5,0.6-0.8,0.9C117.7,21.8,116.2,20.7,114.8,19.7
				z"/>
			<path fill="none" stroke="#E8C43A" stroke-width="2.7018" stroke-miterlimit="2.5" d="M122,25.8c0.3-0.3,0.6-0.6,0.9-0.9
				c0.4,0.4,0.7,0.7,1.1,1.1c1.2-1.1,2.3-2.2,3.5-3.3c-0.4-0.4-0.8-0.8-1.1-1.2c0.3-0.3,0.6-0.6,0.9-0.9c1.5,1.4,2.9,3,4.2,4.6
				c-0.3,0.3-0.6,0.5-0.9,0.8c-0.4-0.4-0.7-0.9-1.1-1.3c-1.2,1.1-2.4,2.1-3.6,3.2c0.3,0.4,0.7,0.8,1,1.2c-0.3,0.3-0.6,0.5-0.9,0.8
				C124.6,28.4,123.3,27.1,122,25.8z"/>
			<path fill="none" stroke="#E8C43A" stroke-width="2.7018" stroke-miterlimit="2.5" d="M127.3,31.8c0.3-0.2,0.6-0.5,1-0.7
				c0.3,0.4,0.5,0.7,0.8,1.1c1.3-0.9,2.6-1.9,3.9-2.8c-0.3-0.4-0.6-0.8-0.9-1.2c0.3-0.2,0.6-0.5,1-0.7c0.9,1.3,1.8,2.6,2.7,3.9
				c-0.5,2-1.1,4-1.8,5.9c1-0.5,1.9-1.1,2.9-1.6c-0.2-0.4-0.5-0.9-0.7-1.3c0.4-0.2,0.7-0.4,1-0.6c0.9,1.5,1.7,3.1,2.5,4.7
				c-0.4,0.2-0.7,0.4-1.1,0.5c-0.2-0.5-0.5-1-0.7-1.5c-1.8,0.9-3.6,1.9-5.4,2.8c-0.4-0.7-0.7-1.4-1.1-2c0.8-2.2,1.5-4.5,2.1-6.8
				c-1.1,0.8-2.3,1.5-3.4,2.3c0.2,0.4,0.5,0.7,0.7,1.1c-0.3,0.2-0.7,0.4-1,0.7C129,34.2,128.1,33,127.3,31.8z"/>
			<path fill="none" stroke="#E8C43A" stroke-width="2.7018" stroke-miterlimit="2.5" d="M134.3,44.1c0.8-0.3,1.5-0.7,2.3-1
				c0.2,0.6,0.5,1.2,0.7,1.8c-0.4,0.2-0.7,0.5-0.7,0.9c-0.1,0.4,0,0.8,0.1,1.2c0.1,0.3,0.3,0.6,0.5,0.8c0.2,0.2,0.4,0.2,0.6,0.2
				c0.2-0.1,0.3-0.2,0.4-0.5c0.1-0.3,0.1-0.7,0.1-1.4c-0.1-1.4-0.1-2.4,0-2.9c0.1-0.6,0.4-1,0.9-1.2c0.6-0.3,1.2-0.2,1.7,0.3
				c0.6,0.5,1,1.1,1.3,1.9c0.3,0.9,0.4,1.7,0.1,2.4c0.2-0.1,0.4-0.1,0.6-0.2c0.2,0.7,0.4,1.3,0.6,2c-0.7,0.2-1.4,0.4-2.1,0.6
				c-0.2-0.7-0.4-1.3-0.6-2c0.3-0.2,0.5-0.4,0.6-0.8c0.1-0.4,0-0.8-0.1-1.2c-0.1-0.3-0.3-0.6-0.4-0.7c-0.2-0.2-0.4-0.2-0.5-0.2
				c-0.1,0.1-0.2,0.2-0.3,0.4c-0.1,0.2,0,0.8,0,1.8c0.1,0.9,0.1,1.6,0,2.1c0,0.5-0.2,0.9-0.4,1.3c-0.2,0.3-0.5,0.6-0.9,0.7
				c-0.7,0.2-1.3,0-1.8-0.5c-0.5-0.5-0.9-1.2-1.2-2c-0.3-0.9-0.4-1.7-0.1-2.3c-0.2,0.1-0.4,0.2-0.6,0.2
				C134.7,45.2,134.5,44.6,134.3,44.1z"/>
		</g>
		<g>
			<path fill="none" stroke="#7C2336" stroke-width="1.9817" stroke-miterlimit="2.5" d="M25.9,51c-0.4-0.1-0.8-0.2-1.2-0.3
				c0.2-0.5,0.3-1.1,0.5-1.6c-1.5-0.5-3-1-4.6-1.5c-0.2,0.6-0.4,1.1-0.5,1.7c-0.4-0.1-0.8-0.2-1.2-0.3c0.7-2.2,1.4-4.4,2.2-6.5
				c0.4,0.2,0.8,0.3,1.1,0.5c-0.2,0.5-0.4,1.1-0.6,1.6c1.5,0.6,3,1.1,4.5,1.7c0.4-1,0.8-2,1.2-3c-0.7-0.3-1.4-0.6-2-0.9
				c0.3-0.7,0.6-1.4,0.9-2c1,0.5,2.1,1,3.1,1.5C28,44.7,26.9,47.7,25.9,51z"/>
			<path fill="none" stroke="#7C2336" stroke-width="1.9817" stroke-miterlimit="2.5" d="M34.9,30.4c0.3,0.3,0.6,0.5,1,0.8
				c-1,1.3-1.9,2.6-2.8,4c-0.3-0.2-0.7-0.4-1-0.7c0.2-0.4,0.5-0.7,0.7-1.1c-0.4-0.1-0.9-0.2-1.3-0.3c-0.5,0.8-1,1.5-1.5,2.3
				c0.3,0.4,0.5,0.8,0.8,1.1c0.2-0.4,0.5-0.8,0.7-1.2c0.3,0.2,0.7,0.4,1,0.7c-0.8,1.3-1.5,2.6-2.2,4c-0.4-0.2-0.7-0.4-1.1-0.6
				c0.2-0.4,0.4-0.8,0.6-1.2c-1.1-1.4-2.1-2.8-3.1-4.3c-0.3,0.4-0.5,0.9-0.7,1.3c-0.4-0.2-0.7-0.4-1.1-0.6c1.2-2.2,2.6-4.3,4-6.3
				c0.3,0.2,0.7,0.5,1,0.7c-0.3,0.4-0.6,0.8-0.9,1.2c1.7,0.3,3.5,0.6,5.2,1C34.4,31,34.7,30.7,34.9,30.4z M30.3,32.9
				c-0.8-0.2-1.5-0.3-2.3-0.4c0.4,0.7,0.9,1.4,1.3,2C29.6,33.9,30,33.4,30.3,32.9z"/>
			<path fill="none" stroke="#7C2336" stroke-width="1.9817" stroke-miterlimit="2.5" d="M39.9,24.8c0.3,0.3,0.6,0.6,0.9,0.9
				c-1.2,1.2-2.4,2.5-3.5,3.8c-0.3-0.3-0.6-0.5-0.9-0.8c0.3-0.3,0.6-0.6,0.8-1c-1.2-1.1-2.4-2.1-3.6-3.2c-0.3,0.3-0.6,0.7-0.9,1
				c-0.3-0.3-0.6-0.5-0.9-0.8c1.2-1.5,2.6-2.9,3.9-4.3c1-0.9,1.9-1.5,2.7-1.6c0.8-0.2,1.4,0,1.9,0.6c0.3,0.3,0.4,0.7,0.4,1.1
				c0,0.4,0,0.8-0.2,1.2c-0.2,0.4-0.4,0.8-0.7,1.1c-0.3,0.4-0.7,0.8-1.2,1.3c-0.2,0.2-0.5,0.5-0.7,0.7c0.3,0.3,0.7,0.7,1,1
				C39.2,25.5,39.5,25.1,39.9,24.8z M37,24c0.1-0.1,0.2-0.2,0.3-0.3c0.6-0.7,1-1.1,1-1.5c0-0.3,0-0.6-0.3-0.8
				c-0.2-0.2-0.4-0.3-0.7-0.3c-0.3,0-0.5,0.1-0.7,0.2c-0.2,0.1-0.5,0.4-0.9,0.8c-0.1,0.1-0.2,0.3-0.4,0.4C36,22.9,36.5,23.5,37,24z"
				/>
			<path fill="none" stroke="#7C2336" stroke-width="1.9817" stroke-miterlimit="2.5" d="M48.6,17.7c0.2,0.3,0.5,0.7,0.7,1
				c-1.4,0.9-2.7,1.9-4.1,2.9c-0.3-0.3-0.5-0.6-0.8-1c0.3-0.3,0.6-0.5,1-0.8c-1-1.3-1.9-2.6-2.9-3.8c-0.4,0.3-0.7,0.5-1.1,0.8
				c-0.3-0.3-0.5-0.6-0.8-1c1.5-1.2,3-2.3,4.6-3.3c1.1-0.7,2.1-1.1,2.9-1c0.8,0,1.4,0.3,1.8,0.9c0.2,0.3,0.3,0.7,0.2,1.1
				c0,0.4-0.2,0.8-0.4,1.1c-0.2,0.3-0.5,0.7-0.9,1c-0.4,0.3-0.8,0.6-1.4,1c-0.3,0.2-0.5,0.4-0.8,0.5c0.3,0.4,0.5,0.8,0.8,1.2
				C47.9,18.2,48.2,18,48.6,17.7z M46,16.3c0.1-0.1,0.2-0.1,0.3-0.2c0.7-0.5,1.2-0.9,1.3-1.2c0.1-0.3,0.1-0.6-0.1-0.9
				c-0.1-0.2-0.3-0.4-0.6-0.4c-0.3-0.1-0.5,0-0.7,0.1c-0.2,0.1-0.6,0.3-1,0.6c-0.1,0.1-0.3,0.2-0.4,0.3C45.2,15.1,45.6,15.7,46,16.3
				z"/>
			<path fill="none" stroke="#7C2336" stroke-width="1.9817" stroke-miterlimit="2.5" d="M54.3,15.8c-0.2-0.4-0.4-0.7-0.6-1.1
				c0.4-0.2,0.9-0.4,1.3-0.6c-0.7-1.4-1.4-2.9-2.1-4.3c-0.5,0.2-0.9,0.5-1.4,0.7c-0.2-0.4-0.4-0.7-0.6-1.1c1.8-0.9,3.6-1.7,5.4-2.5
				c0.2,0.4,0.3,0.8,0.5,1.1c-0.5,0.2-1,0.4-1.5,0.6c0.7,1.5,1.3,2.9,2,4.4c0.4-0.2,0.9-0.4,1.3-0.6c0.2,0.4,0.3,0.8,0.5,1.1
				C57.5,14.3,55.9,15,54.3,15.8z"/>
			<path fill="none" stroke="#7C2336" stroke-width="1.9817" stroke-miterlimit="2.5" d="M61.3,12.8c-0.1-0.4-0.3-0.8-0.4-1.1
				c0.4-0.1,0.8-0.3,1.2-0.4c-0.5-1.5-1-3-1.6-4.5c-0.4,0.1-0.9,0.3-1.3,0.4c-0.1-0.4-0.3-0.8-0.4-1.1c1.4-0.5,2.8-0.9,4.2-1.3
				c1.7,1.1,3.2,2.2,4.7,3.5C67.5,7.1,67.2,6,67,4.9c-0.4,0.1-0.9,0.2-1.3,0.3c-0.1-0.4-0.2-0.8-0.3-1.2c1.5-0.4,3.1-0.7,4.6-0.9
				c0.1,0.4,0.1,0.8,0.2,1.2c-0.5,0.1-0.9,0.2-1.4,0.3c0.4,2,0.8,4,1.2,5.9c-0.7,0.1-1.4,0.3-2,0.4c-1.7-1.4-3.5-2.8-5.5-4.1
				c0.4,1.3,0.8,2.6,1.2,3.9c0.4-0.1,0.8-0.2,1.1-0.3c0.1,0.4,0.2,0.8,0.3,1.2C63.9,12,62.6,12.4,61.3,12.8z"/>
			<path fill="none" stroke="#7C2336" stroke-width="1.9817" stroke-miterlimit="2.5" d="M73.3,8.1c-0.1-0.5-0.1-0.9-0.2-1.4
				c1.3-0.2,2.6-0.3,3.9-0.4c0,0.5,0.1,0.9,0.1,1.4C75.8,7.8,74.5,7.9,73.3,8.1z"/>
			<path fill="none" stroke="#7C2336" stroke-width="1.9817" stroke-miterlimit="2.5" d="M79.7,9.4c0-0.4,0-0.8,0-1.2
				c0.5,0,0.9,0,1.4,0c0-1.6,0-3.2,0-4.8c-0.5,0-1,0-1.5,0c0-0.4,0-0.8,0-1.2c3.1-0.1,6.2,0.1,9.3,0.4c-0.1,0.7-0.2,1.5-0.3,2.2
				c-0.6-0.1-1.3-0.1-1.9-0.2c0-0.3,0.1-0.7,0.1-1c-1-0.1-2-0.1-3.1-0.2c0,0.6,0,1.1-0.1,1.7c0.7,0,1.4,0.1,2.2,0.1
				c0,0.4-0.1,0.8-0.1,1.2c-0.7,0-1.4-0.1-2.1-0.1c0,0.6,0,1.3-0.1,1.9c0.5,0,1,0,1.5,0.1c0,0.4-0.1,0.8-0.1,1.2
				C83.2,9.4,81.5,9.4,79.7,9.4z"/>
			<path fill="none" stroke="#7C2336" stroke-width="1.9817" stroke-miterlimit="2.5" d="M97.3,4c1.8,0.4,3,1.2,3.8,2.2
				c0.8,1,0.9,2,0.6,3c-0.3,1-1.1,1.7-2.2,2.1c-1.1,0.4-2.4,0.4-4,0c-1.6-0.4-2.8-1-3.5-1.9c-0.8-0.9-1.1-1.8-0.9-2.8
				c0.2-1,0.8-1.8,1.9-2.4C94.1,3.6,95.6,3.5,97.3,4z M97,5.2c-0.8-0.2-1.5-0.1-2.1,0.2c-0.6,0.3-1,0.8-1.2,1.6
				c-0.1,0.7,0,1.3,0.4,1.8c0.4,0.5,1,0.9,1.7,1c0.7,0.2,1.4,0.1,2-0.1c0.6-0.3,1-0.8,1.3-1.5c0.2-0.7,0.1-1.3-0.3-1.9
				C98.4,5.8,97.8,5.4,97,5.2z"/>
			<path fill="none" stroke="#7C2336" stroke-width="1.9817" stroke-miterlimit="2.5" d="M112.4,16.7c-0.2,0.3-0.4,0.7-0.6,1
				c-0.8-0.5-1.6-1-2.5-1.4c-0.1-1.3-0.3-2.5-0.5-3.8c-0.3-0.2-0.7-0.3-1-0.5c-0.3,0.6-0.6,1.2-0.8,1.8c0.4,0.2,0.7,0.3,1.1,0.5
				c-0.2,0.4-0.4,0.7-0.6,1.1c-1.5-0.7-3-1.4-4.5-2c0.2-0.4,0.3-0.8,0.5-1.1c0.4,0.2,0.8,0.3,1.2,0.5c0.6-1.5,1.3-2.9,1.9-4.4
				c-0.4-0.2-0.9-0.4-1.3-0.5c0.2-0.4,0.3-0.8,0.5-1.1c2,0.8,3.9,1.6,5.8,2.6c1.1,0.5,1.7,1.1,2,1.8c0.3,0.6,0.2,1.2,0,1.6
				c-0.4,0.7-1.2,0.9-2.4,0.7c0.1,0.9,0.2,1.8,0.3,2.7C111.6,16.3,112,16.5,112.4,16.7z M108.3,11c0.3,0.1,0.5,0.3,0.8,0.4
				c1,0.5,1.6,0.5,1.9,0c0.1-0.2,0.1-0.5,0-0.7c-0.2-0.2-0.5-0.5-0.9-0.7c-0.3-0.2-0.7-0.3-1.1-0.5C108.7,10,108.5,10.5,108.3,11z"
				/>
			<path fill="none" stroke="#7C2336" stroke-width="1.9817" stroke-miterlimit="2.5" d="M114.8,19.7c0.2-0.3,0.5-0.7,0.7-1
				c0.4,0.3,0.8,0.6,1.2,0.8c1-1.3,1.9-2.6,2.9-3.9c-0.4-0.3-0.8-0.6-1.3-0.9c-0.3,0.5-0.7,0.9-1,1.4c-0.5-0.3-1-0.7-1.4-1
				c0.5-0.8,1.1-1.6,1.6-2.4c2.7,1.8,5.2,3.7,7.7,5.9c-0.7,0.7-1.3,1.4-2,2.2c-0.4-0.4-0.9-0.8-1.3-1.2c0.4-0.4,0.7-0.9,1.1-1.3
				c-0.4-0.4-0.8-0.7-1.3-1c-1,1.2-2,2.5-3,3.7c0.4,0.3,0.8,0.6,1.1,0.9c-0.3,0.3-0.5,0.6-0.8,0.9C117.7,21.8,116.2,20.7,114.8,19.7
				z"/>
			<path fill="none" stroke="#7C2336" stroke-width="1.9817" stroke-miterlimit="2.5" d="M122,25.8c0.3-0.3,0.6-0.6,0.9-0.9
				c0.4,0.4,0.7,0.7,1.1,1.1c1.2-1.1,2.3-2.2,3.5-3.3c-0.4-0.4-0.8-0.8-1.1-1.2c0.3-0.3,0.6-0.6,0.9-0.9c1.5,1.4,2.9,3,4.2,4.6
				c-0.3,0.3-0.6,0.5-0.9,0.8c-0.4-0.4-0.7-0.9-1.1-1.3c-1.2,1.1-2.4,2.1-3.6,3.2c0.3,0.4,0.7,0.8,1,1.2c-0.3,0.3-0.6,0.5-0.9,0.8
				C124.6,28.4,123.3,27.1,122,25.8z"/>
			<path fill="none" stroke="#7C2336" stroke-width="1.9817" stroke-miterlimit="2.5" d="M127.3,31.8c0.3-0.2,0.6-0.5,1-0.7
				c0.3,0.4,0.5,0.7,0.8,1.1c1.3-0.9,2.6-1.9,3.9-2.8c-0.3-0.4-0.6-0.8-0.9-1.2c0.3-0.2,0.6-0.5,1-0.7c0.9,1.3,1.8,2.6,2.7,3.9
				c-0.5,2-1.1,4-1.8,5.9c1-0.5,1.9-1.1,2.9-1.6c-0.2-0.4-0.5-0.9-0.7-1.3c0.4-0.2,0.7-0.4,1-0.6c0.9,1.5,1.7,3.1,2.5,4.7
				c-0.4,0.2-0.7,0.4-1.1,0.5c-0.2-0.5-0.5-1-0.7-1.5c-1.8,0.9-3.6,1.9-5.4,2.8c-0.4-0.7-0.7-1.4-1.1-2c0.8-2.2,1.5-4.5,2.1-6.8
				c-1.1,0.8-2.3,1.5-3.4,2.3c0.2,0.4,0.5,0.7,0.7,1.1c-0.3,0.2-0.7,0.4-1,0.7C129,34.2,128.1,33,127.3,31.8z"/>
			<path fill="none" stroke="#7C2336" stroke-width="1.9817" stroke-miterlimit="2.5" d="M134.3,44.1c0.8-0.3,1.5-0.7,2.3-1
				c0.2,0.6,0.5,1.2,0.7,1.8c-0.4,0.2-0.7,0.5-0.7,0.9c-0.1,0.4,0,0.8,0.1,1.2c0.1,0.3,0.3,0.6,0.5,0.8c0.2,0.2,0.4,0.2,0.6,0.2
				c0.2-0.1,0.3-0.2,0.4-0.5c0.1-0.3,0.1-0.7,0.1-1.4c-0.1-1.4-0.1-2.4,0-2.9c0.1-0.6,0.4-1,0.9-1.2c0.6-0.3,1.2-0.2,1.7,0.3
				c0.6,0.5,1,1.1,1.3,1.9c0.3,0.9,0.4,1.7,0.1,2.4c0.2-0.1,0.4-0.1,0.6-0.2c0.2,0.7,0.4,1.3,0.6,2c-0.7,0.2-1.4,0.4-2.1,0.6
				c-0.2-0.7-0.4-1.3-0.6-2c0.3-0.2,0.5-0.4,0.6-0.8c0.1-0.4,0-0.8-0.1-1.2c-0.1-0.3-0.3-0.6-0.4-0.7c-0.2-0.2-0.4-0.2-0.5-0.2
				c-0.1,0.1-0.2,0.2-0.3,0.4c-0.1,0.2,0,0.8,0,1.8c0.1,0.9,0.1,1.6,0,2.1c0,0.5-0.2,0.9-0.4,1.3c-0.2,0.3-0.5,0.6-0.9,0.7
				c-0.7,0.2-1.3,0-1.8-0.5c-0.5-0.5-0.9-1.2-1.2-2c-0.3-0.9-0.4-1.7-0.1-2.3c-0.2,0.1-0.4,0.2-0.6,0.2
				C134.7,45.2,134.5,44.6,134.3,44.1z"/>
		</g>
		<g>
			<path fill="none" stroke="#808285" stroke-width="0.7201" stroke-miterlimit="2.5" d="M25.9,51c-0.4-0.1-0.8-0.2-1.2-0.3
				c0.2-0.5,0.3-1.1,0.5-1.6c-1.5-0.5-3-1-4.6-1.5c-0.2,0.6-0.4,1.1-0.5,1.7c-0.4-0.1-0.8-0.2-1.2-0.3c0.7-2.2,1.4-4.4,2.2-6.5
				c0.4,0.2,0.8,0.3,1.1,0.5c-0.2,0.5-0.4,1.1-0.6,1.6c1.5,0.6,3,1.1,4.5,1.7c0.4-1,0.8-2,1.2-3c-0.7-0.3-1.4-0.6-2-0.9
				c0.3-0.7,0.6-1.4,0.9-2c1,0.5,2.1,1,3.1,1.5C28,44.7,26.9,47.7,25.9,51z"/>
			<path fill="none" stroke="#808285" stroke-width="0.7201" stroke-miterlimit="2.5" d="M34.9,30.4c0.3,0.3,0.6,0.5,1,0.8
				c-1,1.3-1.9,2.6-2.8,4c-0.3-0.2-0.7-0.4-1-0.7c0.2-0.4,0.5-0.7,0.7-1.1c-0.4-0.1-0.9-0.2-1.3-0.3c-0.5,0.8-1,1.5-1.5,2.3
				c0.3,0.4,0.5,0.8,0.8,1.1c0.2-0.4,0.5-0.8,0.7-1.2c0.3,0.2,0.7,0.4,1,0.7c-0.8,1.3-1.5,2.6-2.2,4c-0.4-0.2-0.7-0.4-1.1-0.6
				c0.2-0.4,0.4-0.8,0.6-1.2c-1.1-1.4-2.1-2.8-3.1-4.3c-0.3,0.4-0.5,0.9-0.7,1.3c-0.4-0.2-0.7-0.4-1.1-0.6c1.2-2.2,2.6-4.3,4-6.3
				c0.3,0.2,0.7,0.5,1,0.7c-0.3,0.4-0.6,0.8-0.9,1.2c1.7,0.3,3.5,0.6,5.2,1C34.4,31,34.7,30.7,34.9,30.4z M30.3,32.9
				c-0.8-0.2-1.5-0.3-2.3-0.4c0.4,0.7,0.9,1.4,1.3,2C29.6,33.9,30,33.4,30.3,32.9z"/>
			<path fill="none" stroke="#808285" stroke-width="0.7201" stroke-miterlimit="2.5" d="M39.9,24.8c0.3,0.3,0.6,0.6,0.9,0.9
				c-1.2,1.2-2.4,2.5-3.5,3.8c-0.3-0.3-0.6-0.5-0.9-0.8c0.3-0.3,0.6-0.6,0.8-1c-1.2-1.1-2.4-2.1-3.6-3.2c-0.3,0.3-0.6,0.7-0.9,1
				c-0.3-0.3-0.6-0.5-0.9-0.8c1.2-1.5,2.6-2.9,3.9-4.3c1-0.9,1.9-1.5,2.7-1.6c0.8-0.2,1.4,0,1.9,0.6c0.3,0.3,0.4,0.7,0.4,1.1
				c0,0.4,0,0.8-0.2,1.2c-0.2,0.4-0.4,0.8-0.7,1.1c-0.3,0.4-0.7,0.8-1.2,1.3c-0.2,0.2-0.5,0.5-0.7,0.7c0.3,0.3,0.7,0.7,1,1
				C39.2,25.5,39.5,25.1,39.9,24.8z M37,24c0.1-0.1,0.2-0.2,0.3-0.3c0.6-0.7,1-1.1,1-1.5c0-0.3,0-0.6-0.3-0.8
				c-0.2-0.2-0.4-0.3-0.7-0.3c-0.3,0-0.5,0.1-0.7,0.2c-0.2,0.1-0.5,0.4-0.9,0.8c-0.1,0.1-0.2,0.3-0.4,0.4C36,22.9,36.5,23.5,37,24z"
				/>
			<path fill="none" stroke="#808285" stroke-width="0.7201" stroke-miterlimit="2.5" d="M48.6,17.7c0.2,0.3,0.5,0.7,0.7,1
				c-1.4,0.9-2.7,1.9-4.1,2.9c-0.3-0.3-0.5-0.6-0.8-1c0.3-0.3,0.6-0.5,1-0.8c-1-1.3-1.9-2.6-2.9-3.8c-0.4,0.3-0.7,0.5-1.1,0.8
				c-0.3-0.3-0.5-0.6-0.8-1c1.5-1.2,3-2.3,4.6-3.3c1.1-0.7,2.1-1.1,2.9-1c0.8,0,1.4,0.3,1.8,0.9c0.2,0.3,0.3,0.7,0.2,1.1
				c0,0.4-0.2,0.8-0.4,1.1c-0.2,0.3-0.5,0.7-0.9,1c-0.4,0.3-0.8,0.6-1.4,1c-0.3,0.2-0.5,0.4-0.8,0.5c0.3,0.4,0.5,0.8,0.8,1.2
				C47.9,18.2,48.2,18,48.6,17.7z M46,16.3c0.1-0.1,0.2-0.1,0.3-0.2c0.7-0.5,1.2-0.9,1.3-1.2c0.1-0.3,0.1-0.6-0.1-0.9
				c-0.1-0.2-0.3-0.4-0.6-0.4c-0.3-0.1-0.5,0-0.7,0.1c-0.2,0.1-0.6,0.3-1,0.6c-0.1,0.1-0.3,0.2-0.4,0.3C45.2,15.1,45.6,15.7,46,16.3
				z"/>
			<path fill="none" stroke="#808285" stroke-width="0.7201" stroke-miterlimit="2.5" d="M54.3,15.8c-0.2-0.4-0.4-0.7-0.6-1.1
				c0.4-0.2,0.9-0.4,1.3-0.6c-0.7-1.4-1.4-2.9-2.1-4.3c-0.5,0.2-0.9,0.5-1.4,0.7c-0.2-0.4-0.4-0.7-0.6-1.1c1.8-0.9,3.6-1.7,5.4-2.5
				c0.2,0.4,0.3,0.8,0.5,1.1c-0.5,0.2-1,0.4-1.5,0.6c0.7,1.5,1.3,2.9,2,4.4c0.4-0.2,0.9-0.4,1.3-0.6c0.2,0.4,0.3,0.8,0.5,1.1
				C57.5,14.3,55.9,15,54.3,15.8z"/>
			<path fill="none" stroke="#808285" stroke-width="0.7201" stroke-miterlimit="2.5" d="M61.3,12.8c-0.1-0.4-0.3-0.8-0.4-1.1
				c0.4-0.1,0.8-0.3,1.2-0.4c-0.5-1.5-1-3-1.6-4.5c-0.4,0.1-0.9,0.3-1.3,0.4c-0.1-0.4-0.3-0.8-0.4-1.1c1.4-0.5,2.8-0.9,4.2-1.3
				c1.7,1.1,3.2,2.2,4.7,3.5C67.5,7.1,67.2,6,67,4.9c-0.4,0.1-0.9,0.2-1.3,0.3c-0.1-0.4-0.2-0.8-0.3-1.2c1.5-0.4,3.1-0.7,4.6-0.9
				c0.1,0.4,0.1,0.8,0.2,1.2c-0.5,0.1-0.9,0.2-1.4,0.3c0.4,2,0.8,4,1.2,5.9c-0.7,0.1-1.4,0.3-2,0.4c-1.7-1.4-3.5-2.8-5.5-4.1
				c0.4,1.3,0.8,2.6,1.2,3.9c0.4-0.1,0.8-0.2,1.1-0.3c0.1,0.4,0.2,0.8,0.3,1.2C63.9,12,62.6,12.4,61.3,12.8z"/>
			<path fill="none" stroke="#808285" stroke-width="0.7201" stroke-miterlimit="2.5" d="M73.3,8.1c-0.1-0.5-0.1-0.9-0.2-1.4
				c1.3-0.2,2.6-0.3,3.9-0.4c0,0.5,0.1,0.9,0.1,1.4C75.8,7.8,74.5,7.9,73.3,8.1z"/>
			<path fill="none" stroke="#808285" stroke-width="0.7201" stroke-miterlimit="2.5" d="M79.7,9.4c0-0.4,0-0.8,0-1.2
				c0.5,0,0.9,0,1.4,0c0-1.6,0-3.2,0-4.8c-0.5,0-1,0-1.5,0c0-0.4,0-0.8,0-1.2c3.1-0.1,6.2,0.1,9.3,0.4c-0.1,0.7-0.2,1.5-0.3,2.2
				c-0.6-0.1-1.3-0.1-1.9-0.2c0-0.3,0.1-0.7,0.1-1c-1-0.1-2-0.1-3.1-0.2c0,0.6,0,1.1-0.1,1.7c0.7,0,1.4,0.1,2.2,0.1
				c0,0.4-0.1,0.8-0.1,1.2c-0.7,0-1.4-0.1-2.1-0.1c0,0.6,0,1.3-0.1,1.9c0.5,0,1,0,1.5,0.1c0,0.4-0.1,0.8-0.1,1.2
				C83.2,9.4,81.5,9.4,79.7,9.4z"/>
			<path fill="none" stroke="#808285" stroke-width="0.7201" stroke-miterlimit="2.5" d="M97.3,4c1.8,0.4,3,1.2,3.8,2.2
				c0.8,1,0.9,2,0.6,3c-0.3,1-1.1,1.7-2.2,2.1c-1.1,0.4-2.4,0.4-4,0c-1.6-0.4-2.8-1-3.5-1.9c-0.8-0.9-1.1-1.8-0.9-2.8
				c0.2-1,0.8-1.8,1.9-2.4C94.1,3.6,95.6,3.5,97.3,4z M97,5.2c-0.8-0.2-1.5-0.1-2.1,0.2c-0.6,0.3-1,0.8-1.2,1.6
				c-0.1,0.7,0,1.3,0.4,1.8c0.4,0.5,1,0.9,1.7,1c0.7,0.2,1.4,0.1,2-0.1c0.6-0.3,1-0.8,1.3-1.5c0.2-0.7,0.1-1.3-0.3-1.9
				C98.4,5.8,97.8,5.4,97,5.2z"/>
			<path fill="none" stroke="#808285" stroke-width="0.7201" stroke-miterlimit="2.5" d="M112.4,16.7c-0.2,0.3-0.4,0.7-0.6,1
				c-0.8-0.5-1.6-1-2.5-1.4c-0.1-1.3-0.3-2.5-0.5-3.8c-0.3-0.2-0.7-0.3-1-0.5c-0.3,0.6-0.6,1.2-0.8,1.8c0.4,0.2,0.7,0.3,1.1,0.5
				c-0.2,0.4-0.4,0.7-0.6,1.1c-1.5-0.7-3-1.4-4.5-2c0.2-0.4,0.3-0.8,0.5-1.1c0.4,0.2,0.8,0.3,1.2,0.5c0.6-1.5,1.3-2.9,1.9-4.4
				c-0.4-0.2-0.9-0.4-1.3-0.5c0.2-0.4,0.3-0.8,0.5-1.1c2,0.8,3.9,1.6,5.8,2.6c1.1,0.5,1.7,1.1,2,1.8c0.3,0.6,0.2,1.2,0,1.6
				c-0.4,0.7-1.2,0.9-2.4,0.7c0.1,0.9,0.2,1.8,0.3,2.7C111.6,16.3,112,16.5,112.4,16.7z M108.3,11c0.3,0.1,0.5,0.3,0.8,0.4
				c1,0.5,1.6,0.5,1.9,0c0.1-0.2,0.1-0.5,0-0.7c-0.2-0.2-0.5-0.5-0.9-0.7c-0.3-0.2-0.7-0.3-1.1-0.5C108.7,10,108.5,10.5,108.3,11z"
				/>
			<path fill="none" stroke="#808285" stroke-width="0.7201" stroke-miterlimit="2.5" d="M114.8,19.7c0.2-0.3,0.5-0.7,0.7-1
				c0.4,0.3,0.8,0.6,1.2,0.8c1-1.3,1.9-2.6,2.9-3.9c-0.4-0.3-0.8-0.6-1.3-0.9c-0.3,0.5-0.7,0.9-1,1.4c-0.5-0.3-1-0.7-1.4-1
				c0.5-0.8,1.1-1.6,1.6-2.4c2.7,1.8,5.2,3.7,7.7,5.9c-0.7,0.7-1.3,1.4-2,2.2c-0.4-0.4-0.9-0.8-1.3-1.2c0.4-0.4,0.7-0.9,1.1-1.3
				c-0.4-0.4-0.8-0.7-1.3-1c-1,1.2-2,2.5-3,3.7c0.4,0.3,0.8,0.6,1.1,0.9c-0.3,0.3-0.5,0.6-0.8,0.9C117.7,21.8,116.2,20.7,114.8,19.7
				z"/>
			<path fill="none" stroke="#808285" stroke-width="0.7201" stroke-miterlimit="2.5" d="M122,25.8c0.3-0.3,0.6-0.6,0.9-0.9
				c0.4,0.4,0.7,0.7,1.1,1.1c1.2-1.1,2.3-2.2,3.5-3.3c-0.4-0.4-0.8-0.8-1.1-1.2c0.3-0.3,0.6-0.6,0.9-0.9c1.5,1.4,2.9,3,4.2,4.6
				c-0.3,0.3-0.6,0.5-0.9,0.8c-0.4-0.4-0.7-0.9-1.1-1.3c-1.2,1.1-2.4,2.1-3.6,3.2c0.3,0.4,0.7,0.8,1,1.2c-0.3,0.3-0.6,0.5-0.9,0.8
				C124.6,28.4,123.3,27.1,122,25.8z"/>
			<path fill="none" stroke="#808285" stroke-width="0.7201" stroke-miterlimit="2.5" d="M127.3,31.8c0.3-0.2,0.6-0.5,1-0.7
				c0.3,0.4,0.5,0.7,0.8,1.1c1.3-0.9,2.6-1.9,3.9-2.8c-0.3-0.4-0.6-0.8-0.9-1.2c0.3-0.2,0.6-0.5,1-0.7c0.9,1.3,1.8,2.6,2.7,3.9
				c-0.5,2-1.1,4-1.8,5.9c1-0.5,1.9-1.1,2.9-1.6c-0.2-0.4-0.5-0.9-0.7-1.3c0.4-0.2,0.7-0.4,1-0.6c0.9,1.5,1.7,3.1,2.5,4.7
				c-0.4,0.2-0.7,0.4-1.1,0.5c-0.2-0.5-0.5-1-0.7-1.5c-1.8,0.9-3.6,1.9-5.4,2.8c-0.4-0.7-0.7-1.4-1.1-2c0.8-2.2,1.5-4.5,2.1-6.8
				c-1.1,0.8-2.3,1.5-3.4,2.3c0.2,0.4,0.5,0.7,0.7,1.1c-0.3,0.2-0.7,0.4-1,0.7C129,34.2,128.1,33,127.3,31.8z"/>
			<path fill="none" stroke="#808285" stroke-width="0.7201" stroke-miterlimit="2.5" d="M134.3,44.1c0.8-0.3,1.5-0.7,2.3-1
				c0.2,0.6,0.5,1.2,0.7,1.8c-0.4,0.2-0.7,0.5-0.7,0.9c-0.1,0.4,0,0.8,0.1,1.2c0.1,0.3,0.3,0.6,0.5,0.8c0.2,0.2,0.4,0.2,0.6,0.2
				c0.2-0.1,0.3-0.2,0.4-0.5c0.1-0.3,0.1-0.7,0.1-1.4c-0.1-1.4-0.1-2.4,0-2.9c0.1-0.6,0.4-1,0.9-1.2c0.6-0.3,1.2-0.2,1.7,0.3
				c0.6,0.5,1,1.1,1.3,1.9c0.3,0.9,0.4,1.7,0.1,2.4c0.2-0.1,0.4-0.1,0.6-0.2c0.2,0.7,0.4,1.3,0.6,2c-0.7,0.2-1.4,0.4-2.1,0.6
				c-0.2-0.7-0.4-1.3-0.6-2c0.3-0.2,0.5-0.4,0.6-0.8c0.1-0.4,0-0.8-0.1-1.2c-0.1-0.3-0.3-0.6-0.4-0.7c-0.2-0.2-0.4-0.2-0.5-0.2
				c-0.1,0.1-0.2,0.2-0.3,0.4c-0.1,0.2,0,0.8,0,1.8c0.1,0.9,0.1,1.6,0,2.1c0,0.5-0.2,0.9-0.4,1.3c-0.2,0.3-0.5,0.6-0.9,0.7
				c-0.7,0.2-1.3,0-1.8-0.5c-0.5-0.5-0.9-1.2-1.2-2c-0.3-0.9-0.4-1.7-0.1-2.3c-0.2,0.1-0.4,0.2-0.6,0.2
				C134.7,45.2,134.5,44.6,134.3,44.1z"/>
		</g>
		<g>
			<path fill="#FFFFFF" d="M25.9,51c-0.4-0.1-0.8-0.2-1.2-0.3c0.2-0.5,0.3-1.1,0.5-1.6c-1.5-0.5-3-1-4.6-1.5
				c-0.2,0.6-0.4,1.1-0.5,1.7c-0.4-0.1-0.8-0.2-1.2-0.3c0.7-2.2,1.4-4.4,2.2-6.5c0.4,0.2,0.8,0.3,1.1,0.5c-0.2,0.5-0.4,1.1-0.6,1.6
				c1.5,0.6,3,1.1,4.5,1.7c0.4-1,0.8-2,1.2-3c-0.7-0.3-1.4-0.6-2-0.9c0.3-0.7,0.6-1.4,0.9-2c1,0.5,2.1,1,3.1,1.5
				C28,44.7,26.9,47.7,25.9,51z"/>
			<path fill="#FFFFFF" d="M34.9,30.4c0.3,0.3,0.6,0.5,1,0.8c-1,1.3-1.9,2.6-2.8,4c-0.3-0.2-0.7-0.4-1-0.7c0.2-0.4,0.5-0.7,0.7-1.1
				c-0.4-0.1-0.9-0.2-1.3-0.3c-0.5,0.8-1,1.5-1.5,2.3c0.3,0.4,0.5,0.8,0.8,1.1c0.2-0.4,0.5-0.8,0.7-1.2c0.3,0.2,0.7,0.4,1,0.7
				c-0.8,1.3-1.5,2.6-2.2,4c-0.4-0.2-0.7-0.4-1.1-0.6c0.2-0.4,0.4-0.8,0.6-1.2c-1.1-1.4-2.1-2.8-3.1-4.3c-0.3,0.4-0.5,0.9-0.7,1.3
				c-0.4-0.2-0.7-0.4-1.1-0.6c1.2-2.2,2.6-4.3,4-6.3c0.3,0.2,0.7,0.5,1,0.7c-0.3,0.4-0.6,0.8-0.9,1.2c1.7,0.3,3.5,0.6,5.2,1
				C34.4,31,34.7,30.7,34.9,30.4z M30.3,32.9c-0.8-0.2-1.5-0.3-2.3-0.4c0.4,0.7,0.9,1.4,1.3,2C29.6,33.9,30,33.4,30.3,32.9z"/>
			<path fill="#FFFFFF" d="M39.9,24.8c0.3,0.3,0.6,0.6,0.9,0.9c-1.2,1.2-2.4,2.5-3.5,3.8c-0.3-0.3-0.6-0.5-0.9-0.8
				c0.3-0.3,0.6-0.6,0.8-1c-1.2-1.1-2.4-2.1-3.6-3.2c-0.3,0.3-0.6,0.7-0.9,1c-0.3-0.3-0.6-0.5-0.9-0.8c1.2-1.5,2.6-2.9,3.9-4.3
				c1-0.9,1.9-1.5,2.7-1.6c0.8-0.2,1.4,0,1.9,0.6c0.3,0.3,0.4,0.7,0.4,1.1c0,0.4,0,0.8-0.2,1.2c-0.2,0.4-0.4,0.8-0.7,1.1
				c-0.3,0.4-0.7,0.8-1.2,1.3c-0.2,0.2-0.5,0.5-0.7,0.7c0.3,0.3,0.7,0.7,1,1C39.2,25.5,39.5,25.1,39.9,24.8z M37,24
				c0.1-0.1,0.2-0.2,0.3-0.3c0.6-0.7,1-1.1,1-1.5c0-0.3,0-0.6-0.3-0.8c-0.2-0.2-0.4-0.3-0.7-0.3c-0.3,0-0.5,0.1-0.7,0.2
				c-0.2,0.1-0.5,0.4-0.9,0.8c-0.1,0.1-0.2,0.3-0.4,0.4C36,22.9,36.5,23.5,37,24z"/>
			<path fill="#FFFFFF" d="M48.6,17.7c0.2,0.3,0.5,0.7,0.7,1c-1.4,0.9-2.7,1.9-4.1,2.9c-0.3-0.3-0.5-0.6-0.8-1
				c0.3-0.3,0.6-0.5,1-0.8c-1-1.3-1.9-2.6-2.9-3.8c-0.4,0.3-0.7,0.5-1.1,0.8c-0.3-0.3-0.5-0.6-0.8-1c1.5-1.2,3-2.3,4.6-3.3
				c1.1-0.7,2.1-1.1,2.9-1c0.8,0,1.4,0.3,1.8,0.9c0.2,0.3,0.3,0.7,0.2,1.1c0,0.4-0.2,0.8-0.4,1.1c-0.2,0.3-0.5,0.7-0.9,1
				c-0.4,0.3-0.8,0.6-1.4,1c-0.3,0.2-0.5,0.4-0.8,0.5c0.3,0.4,0.5,0.8,0.8,1.2C47.9,18.2,48.2,18,48.6,17.7z M46,16.3
				c0.1-0.1,0.2-0.1,0.3-0.2c0.7-0.5,1.2-0.9,1.3-1.2c0.1-0.3,0.1-0.6-0.1-0.9c-0.1-0.2-0.3-0.4-0.6-0.4c-0.3-0.1-0.5,0-0.7,0.1
				c-0.2,0.1-0.6,0.3-1,0.6c-0.1,0.1-0.3,0.2-0.4,0.3C45.2,15.1,45.6,15.7,46,16.3z"/>
			<path fill="#FFFFFF" d="M54.3,15.8c-0.2-0.4-0.4-0.7-0.6-1.1c0.4-0.2,0.9-0.4,1.3-0.6c-0.7-1.4-1.4-2.9-2.1-4.3
				c-0.5,0.2-0.9,0.5-1.4,0.7c-0.2-0.4-0.4-0.7-0.6-1.1c1.8-0.9,3.6-1.7,5.4-2.5c0.2,0.4,0.3,0.8,0.5,1.1c-0.5,0.2-1,0.4-1.5,0.6
				c0.7,1.5,1.3,2.9,2,4.4c0.4-0.2,0.9-0.4,1.3-0.6c0.2,0.4,0.3,0.8,0.5,1.1C57.5,14.3,55.9,15,54.3,15.8z"/>
			<path fill="#FFFFFF" d="M61.3,12.8c-0.1-0.4-0.3-0.8-0.4-1.1c0.4-0.1,0.8-0.3,1.2-0.4c-0.5-1.5-1-3-1.6-4.5
				c-0.4,0.1-0.9,0.3-1.3,0.4c-0.1-0.4-0.3-0.8-0.4-1.1c1.4-0.5,2.8-0.9,4.2-1.3c1.7,1.1,3.2,2.2,4.7,3.5C67.5,7.1,67.2,6,67,4.9
				c-0.4,0.1-0.9,0.2-1.3,0.3c-0.1-0.4-0.2-0.8-0.3-1.2c1.5-0.4,3.1-0.7,4.6-0.9c0.1,0.4,0.1,0.8,0.2,1.2c-0.5,0.1-0.9,0.2-1.4,0.3
				c0.4,2,0.8,4,1.2,5.9c-0.7,0.1-1.4,0.3-2,0.4c-1.7-1.4-3.5-2.8-5.5-4.1c0.4,1.3,0.8,2.6,1.2,3.9c0.4-0.1,0.8-0.2,1.1-0.3
				c0.1,0.4,0.2,0.8,0.3,1.2C63.9,12,62.6,12.4,61.3,12.8z"/>
			<path fill="#FFFFFF" d="M73.3,8.1c-0.1-0.5-0.1-0.9-0.2-1.4c1.3-0.2,2.6-0.3,3.9-0.4c0,0.5,0.1,0.9,0.1,1.4
				C75.8,7.8,74.5,7.9,73.3,8.1z"/>
			<path fill="#FFFFFF" d="M79.7,9.4c0-0.4,0-0.8,0-1.2c0.5,0,0.9,0,1.4,0c0-1.6,0-3.2,0-4.8c-0.5,0-1,0-1.5,0c0-0.4,0-0.8,0-1.2
				c3.1-0.1,6.2,0.1,9.3,0.4c-0.1,0.7-0.2,1.5-0.3,2.2c-0.6-0.1-1.3-0.1-1.9-0.2c0-0.3,0.1-0.7,0.1-1c-1-0.1-2-0.1-3.1-0.2
				c0,0.6,0,1.1-0.1,1.7c0.7,0,1.4,0.1,2.2,0.1c0,0.4-0.1,0.8-0.1,1.2c-0.7,0-1.4-0.1-2.1-0.1c0,0.6,0,1.3-0.1,1.9
				c0.5,0,1,0,1.5,0.1c0,0.4-0.1,0.8-0.1,1.2C83.2,9.4,81.5,9.4,79.7,9.4z"/>
			<path fill="#FFFFFF" d="M97.3,4c1.8,0.4,3,1.2,3.8,2.2c0.8,1,0.9,2,0.6,3c-0.3,1-1.1,1.7-2.2,2.1c-1.1,0.4-2.4,0.4-4,0
				c-1.6-0.4-2.8-1-3.5-1.9c-0.8-0.9-1.1-1.8-0.9-2.8c0.2-1,0.8-1.8,1.9-2.4C94.1,3.6,95.6,3.5,97.3,4z M97,5.2
				c-0.8-0.2-1.5-0.1-2.1,0.2c-0.6,0.3-1,0.8-1.2,1.6c-0.1,0.7,0,1.3,0.4,1.8c0.4,0.5,1,0.9,1.7,1c0.7,0.2,1.4,0.1,2-0.1
				c0.6-0.3,1-0.8,1.3-1.5c0.2-0.7,0.1-1.3-0.3-1.9C98.4,5.8,97.8,5.4,97,5.2z"/>
			<path fill="#FFFFFF" d="M112.4,16.7c-0.2,0.3-0.4,0.7-0.6,1c-0.8-0.5-1.6-1-2.5-1.4c-0.1-1.3-0.3-2.5-0.5-3.8
				c-0.3-0.2-0.7-0.3-1-0.5c-0.3,0.6-0.6,1.2-0.8,1.8c0.4,0.2,0.7,0.3,1.1,0.5c-0.2,0.4-0.4,0.7-0.6,1.1c-1.5-0.7-3-1.4-4.5-2
				c0.2-0.4,0.3-0.8,0.5-1.1c0.4,0.2,0.8,0.3,1.2,0.5c0.6-1.5,1.3-2.9,1.9-4.4c-0.4-0.2-0.9-0.4-1.3-0.5c0.2-0.4,0.3-0.8,0.5-1.1
				c2,0.8,3.9,1.6,5.8,2.6c1.1,0.5,1.7,1.1,2,1.8c0.3,0.6,0.2,1.2,0,1.6c-0.4,0.7-1.2,0.9-2.4,0.7c0.1,0.9,0.2,1.8,0.3,2.7
				C111.6,16.3,112,16.5,112.4,16.7z M108.3,11c0.3,0.1,0.5,0.3,0.8,0.4c1,0.5,1.6,0.5,1.9,0c0.1-0.2,0.1-0.5,0-0.7
				c-0.2-0.2-0.5-0.5-0.9-0.7c-0.3-0.2-0.7-0.3-1.1-0.5C108.7,10,108.5,10.5,108.3,11z"/>
			<path fill="#FFFFFF" d="M114.8,19.7c0.2-0.3,0.5-0.7,0.7-1c0.4,0.3,0.8,0.6,1.2,0.8c1-1.3,1.9-2.6,2.9-3.9
				c-0.4-0.3-0.8-0.6-1.3-0.9c-0.3,0.5-0.7,0.9-1,1.4c-0.5-0.3-1-0.7-1.4-1c0.5-0.8,1.1-1.6,1.6-2.4c2.7,1.8,5.2,3.7,7.7,5.9
				c-0.7,0.7-1.3,1.4-2,2.2c-0.4-0.4-0.9-0.8-1.3-1.2c0.4-0.4,0.7-0.9,1.1-1.3c-0.4-0.4-0.8-0.7-1.3-1c-1,1.2-2,2.5-3,3.7
				c0.4,0.3,0.8,0.6,1.1,0.9c-0.3,0.3-0.5,0.6-0.8,0.9C117.7,21.8,116.2,20.7,114.8,19.7z"/>
			<path fill="#FFFFFF" d="M122,25.8c0.3-0.3,0.6-0.6,0.9-0.9c0.4,0.4,0.7,0.7,1.1,1.1c1.2-1.1,2.3-2.2,3.5-3.3
				c-0.4-0.4-0.8-0.8-1.1-1.2c0.3-0.3,0.6-0.6,0.9-0.9c1.5,1.4,2.9,3,4.2,4.6c-0.3,0.3-0.6,0.5-0.9,0.8c-0.4-0.4-0.7-0.9-1.1-1.3
				c-1.2,1.1-2.4,2.1-3.6,3.2c0.3,0.4,0.7,0.8,1,1.2c-0.3,0.3-0.6,0.5-0.9,0.8C124.6,28.4,123.3,27.1,122,25.8z"/>
			<path fill="#FFFFFF" d="M127.3,31.8c0.3-0.2,0.6-0.5,1-0.7c0.3,0.4,0.5,0.7,0.8,1.1c1.3-0.9,2.6-1.9,3.9-2.8
				c-0.3-0.4-0.6-0.8-0.9-1.2c0.3-0.2,0.6-0.5,1-0.7c0.9,1.3,1.8,2.6,2.7,3.9c-0.5,2-1.1,4-1.8,5.9c1-0.5,1.9-1.1,2.9-1.6
				c-0.2-0.4-0.5-0.9-0.7-1.3c0.4-0.2,0.7-0.4,1-0.6c0.9,1.5,1.7,3.1,2.5,4.7c-0.4,0.2-0.7,0.4-1.1,0.5c-0.2-0.5-0.5-1-0.7-1.5
				c-1.8,0.9-3.6,1.9-5.4,2.8c-0.4-0.7-0.7-1.4-1.1-2c0.8-2.2,1.5-4.5,2.1-6.8c-1.1,0.8-2.3,1.5-3.4,2.3c0.2,0.4,0.5,0.7,0.7,1.1
				c-0.3,0.2-0.7,0.4-1,0.7C129,34.2,128.1,33,127.3,31.8z"/>
			<path fill="#FFFFFF" d="M134.3,44.1c0.8-0.3,1.5-0.7,2.3-1c0.2,0.6,0.5,1.2,0.7,1.8c-0.4,0.2-0.7,0.5-0.7,0.9
				c-0.1,0.4,0,0.8,0.1,1.2c0.1,0.3,0.3,0.6,0.5,0.8c0.2,0.2,0.4,0.2,0.6,0.2c0.2-0.1,0.3-0.2,0.4-0.5c0.1-0.3,0.1-0.7,0.1-1.4
				c-0.1-1.4-0.1-2.4,0-2.9c0.1-0.6,0.4-1,0.9-1.2c0.6-0.3,1.2-0.2,1.7,0.3c0.6,0.5,1,1.1,1.3,1.9c0.3,0.9,0.4,1.7,0.1,2.4
				c0.2-0.1,0.4-0.1,0.6-0.2c0.2,0.7,0.4,1.3,0.6,2c-0.7,0.2-1.4,0.4-2.1,0.6c-0.2-0.7-0.4-1.3-0.6-2c0.3-0.2,0.5-0.4,0.6-0.8
				c0.1-0.4,0-0.8-0.1-1.2c-0.1-0.3-0.3-0.6-0.4-0.7c-0.2-0.2-0.4-0.2-0.5-0.2c-0.1,0.1-0.2,0.2-0.3,0.4c-0.1,0.2,0,0.8,0,1.8
				c0.1,0.9,0.1,1.6,0,2.1c0,0.5-0.2,0.9-0.4,1.3c-0.2,0.3-0.5,0.6-0.9,0.7c-0.7,0.2-1.3,0-1.8-0.5c-0.5-0.5-0.9-1.2-1.2-2
				c-0.3-0.9-0.4-1.7-0.1-2.3c-0.2,0.1-0.4,0.2-0.6,0.2C134.7,45.2,134.5,44.6,134.3,44.1z"/>
		</g>
	</g>
</g>
</svg>
