<?xml version="1.0" encoding="utf-8"?>
<!-- Generator: Adobe Illustrator 18.1.1, SVG Export Plug-In . SVG Version: 6.00 Build 0)  -->
<svg version="1.1" id="Layer_1" xmlns="http://www.w3.org/2000/svg" xmlns:xlink="http://www.w3.org/1999/xlink" x="0px" y="0px"
	 viewBox="0 0 192.5 166.2" enable-background="new 0 0 192.5 166.2" xml:space="preserve">
<path d="M192.5,33.1c0,0-2.4-2.5-11-3.9l-2.9,5.1l-0.4-0.3l2-4.8l-9.2-0.9l-20.5,34.2l-0.9,0.9l-2.4-3.7c0,0,1.1-7.1-0.4-9.6
	c-1.5-2.5-6.3-4.1-7.9-4.6c-1.6-0.5-3-0.8-3.3-2.7c-0.3-1.9-1.7-5.1-2.9-6c0,0,1.7-0.5,2.8,0.1c0,0-0.9-4.1-5.5-8.6
	c0,0,1.1-8.9,0.8-11.8c0,0-0.8-0.6-1.9-0.9c-1.1-0.3-1.5-0.3-2.9-1.9c-1.4-1.6-2-1.3-4.2-6.3c-2.2-5-5.3-5.4-7.1-5.8
	c-1.8-0.4-4.5,0.9-8-0.6c-3.4-1.5-5.9-1.3-8.5,0.6c-2.6,1.9-3.5,4.3-3.5,4.3s-5.8-0.4-7,1.2c-1.2,1.6-1.6,3.3-2.5,4.1
	c-0.9,0.8-3.3,3.4-3,4.7c0.3,1.3,0.3,1.3,0.3,1.3s0.2,0.7-1,0.4c-1.3-0.2-3,0.2-3.9,0.5c-0.9,0.3-5.4,0.4-5.4,0.4s1.1,3.3,3.1,3.9
	c0,0,0.2,0.5-1.6,0.3C72,22.7,65.9,22,65.9,22s2.1,3.6,0.8,3.5c-1.3-0.2-11.4-0.4-16,1.7c-4.6,2.1-5.8,6.2-6.9,11
	c0,0-7.7-1.6-8.9,6.3c0,0-8,1.7-8,10.3c0,0-12.2,0.2-5.8,12.4c0,0-0.3,12.9,12.3,16.8c0,0-1.3,4-0.4,9.1l-1.7,16.3L5.3,120.1
	L1.9,121l6.2,6.3l0.6,30.6l-2.9,7.9l42.5-10.2l2.6,10.6l3.6-12.1l52-11l-2,3.8c0,0,8.4-1.9,10.8-2.8c2.4-0.9,4.8-3.2,4.8-3.2
	l25.4-4.3l27.8-3.4c0,0,7.9-0.9,9.9-2.8c2-2,1.7-8.5,1.7-10.7c0-2.2-1.1-5.4-2.4-6.9l2.4-0.2V101c0,0,0.6-3.5-5.5-5.4
	c-6.2-1.9-25.2-5-25.2-5s0.2-2.9-0.3-3.5c-0.6-0.6-0.6-2.6-0.5-3.8c0.2-1.2-0.4-5-1.2-6.1c-0.8-1-1.3-2-1.3-2l7.8,0.4l7.3-7.8
	l0.1-0.8l1.6,0.1l5.1-5.2l0.2-2.3l4.3-5.1l1.8-0.2l13.4-21"/>
<g>
	<path fill="#A62B43" d="M123.9,15.9c0,0-3.1-3-4.2-5.8c-1.1-2.8-2.3-4.4-6.2-4.9c-3.9-0.5-3.8,0.8-3.4,1.1c0.5,0.3,3.4,2.3,3.1,2.4
		c-0.3,0.1-3.7-0.2-5.8-1.4S101.4,4,100,5.1c-1.4,1.1-4.7,4.1-5.5,5.9c-0.8,1.7-1.1,2.4,1.6,3.5c2.7,1,10.3,3.1,16.2,3.3
		C118.3,17.9,123.9,15.9,123.9,15.9z"/>
	<path fill="#A62B43" d="M129,26v-5.4c0,0-1.7-0.5-2,1.4c-0.3,1.8-0.1,2.6,0.5,3C127.9,25.2,129,26,129,26z"/>
	<rect x="121.3" y="21" fill="#A62B43" width="2.7" height="3.6"/>
	<path fill="#A62B43" d="M119.2,21.4c0,0-3.6,0.4-11.4-0.9c0,0-7.4-1.9-10.2-3l-3.3,7.8l1.2,0.5c0,0,0.5-2.8,1.9-4.4
		c1.4-1.6,3.4-2.1,6-0.9s4.6,3.7,4.6,3.7s1.2-1.1,2.1,0c0.9,1.2,1.9,5.1,2.4,6.2c0.4,1.1,0.8,2.4,1.3,1.2c0.5-1.2,2.1-6,2.1-6
		l1.6,1.7c0,0,1-1.3,1.4-1.9C119.1,24.7,119.3,21.9,119.2,21.4z"/>
	<polygon fill="#A62B43" points="95.7,16.8 93.1,15.3 88.8,23.2 92.3,24.6 	"/>
	<polyline fill="#A62B43" points="90.7,14.1 89.1,13.3 84.9,20 86.3,21.3 90.7,14.3 	"/>
	<g>
		<path fill="#6E4D29" d="M111.1,33.2c0,0-0.9-5.9-1.8-7.2c0,0-1.3,1.3-1.5,1.9c-0.2,0.6-0.2-0.4-0.4-1.2c-0.2-0.8-0.9-2.4-1.1-1.5
			c-0.2,0.9,0,1.4,0,1.4s-1-1.9-2.2-3.3c-1.2-1.5-4.9-1.5-5.6-0.7c0,0-0.1,0.4,0.5,0.7c0.6,0.3,1,0.8,0.2,1.1
			c-0.8,0.3-2.4,1-2.8,1.4c-0.4,0.4-1,1.3,0.7,0.8c1.6-0.5,3.7-0.5,4.7,0.4c1,0.9,2.8,2.6,4.3,2.9c1.4,0.3,2.4,0.9,3.1,1.4
			C110,31.8,111.1,33.2,111.1,33.2z"/>
		<path fill="#6E4D29" d="M114.8,32.5l1.1-4.3l1.9,1c0,0,2.3-2.9,4.1-3.3v1.8c0,0,1.6-1.6,2.3-1.8c0.7-0.2,3.8-0.3,4.8,4.3
			C129,30.2,120.9,27.9,114.8,32.5z"/>
		<path fill="#6E4D29" d="M128.2,34.2l3.5,0.5c0,0-0.5-1.6-2.8-2.1c-2.3-0.5-3.6-0.9-3.6-0.9l-0.5,3.3c0,0-1.5-0.2-1.7-0.3
			c-0.2-0.1-1.8-0.1-2.1,0.3c-0.3,0.4-1.1,0.5-1.7,0c-0.6-0.5-1.3-1-1.3-1s1.5,4.3,2.6,4.4c1.1,0.2,4.4-1.3,6.5,2.4h-2.5
			c0,0,0.7,1,1.3,1.4c0.5,0.4,0.3,3,0.3,3.3c0,0.3-1-1.2-1-1.2s-0.5,2.1-1.4,1.9c-0.8-0.2-1.8-0.5-1.8-0.5s1.4,1.8,0.7,2.2
			c-0.7,0.4-2.6,1.2-2.8,2.2c-0.1,1,0,1.7-0.4,1.6c-0.4-0.1-2.3-0.6-3.3-1c-1-0.4-3-0.3-5.1,0.6c-2.1,0.9-4.3,2.2-4.3,2.2
			s1.6-2.5,3.6-3.8c0,0-2.8-0.6-4.9-0.3c-2.2,0.3-4.8,0.9-4.8,0.9s1.3-2.4,6.9-3c0,0,3.7-0.2,5.9,0.5c2.2,0.7,3.7,1.1,5.1-0.7
			c1.4-1.9,2.5-3.2,2.8-3.4c0.2-0.3,1-2.7-2.4-2.5c-3.3,0.2-8.4,0.6-12.1,1.3c-3.8,0.7-7.6,2.2-12.2,2.7c-4.6,0.5-9,0.3-9.4,0
			c-0.3-0.3,3.3-1.6,2.7-2.8c-0.6-1.2-0.7-4.8,1.1-6.7c0,0,0.3-0.5-0.8-0.4c-1.1,0.2-2.7,0.1-1.5-0.8c1.2-0.9,2.8-1.4,2.8-1.4
			s-0.6-0.8-1.1-1.1c-0.5-0.3,0.9-0.7,2.6,0c1.8,0.7,3,1.4,7.1,4.1c4.1,2.6,6.2,4.1,7.7,4.2c1.4,0.1,4.2,0,4.1-0.9
			c-0.1-0.8-2.1-4.7-2.7-5.3c-0.6-0.6-1.5-0.7-2-0.1c-0.5,0.5-1.6,1.5-2.2,0.5c-0.5-1.1-1.8-2.8-3-3c-1.2-0.2-1.5-1-0.9-1.3
			c0.6-0.4,0-0.8-1.3-0.9c-1.3-0.1-2.9-0.5-2.9-1.3c-0.1-0.8-0.9-1.9-5.7-1.9c-4.8,0-8.9,1.1-8,1.6c0.9,0.5,3.7,1.9,3.4,2.3
			c-0.3,0.4-1.9-0.4-4,1c-2.1,1.3-4.7,2.5-5.5,2.3c-0.8-0.2-1.2,0.6,0.6,1.8c1.8,1.2,3,1.5,3.9,1.5c0.9,0,2.9-0.1,2.6,0.4
			c-0.2,0.5-2.6,2.4-5.2,2.6c-2.7,0.2-5.1,0.3-5.1,0.3s2.4,2.5,5.8,4.5c3.3,2,5.9,2.9,5.2,3.5c-0.7,0.5-6,1.3-8.8,0.9
			c0,0,0,1.2,5,3.5c5,2.4,8.6,2,8.6,2s-2.1,2.5-8.1,3.3c0,0,3.1,2.9,7.3,3.4c4.2,0.5,8.7-1.2,8.7-1.2s-0.2,2-2.5,3.8
			c-2.3,1.8-3.5,2.4-3.5,2.4s4,3.6,8.2,3.5c4.2-0.1,4.7-0.4,5.8-2.2c1.1-1.7,2.5-2.1,3.6-2.2c1.1-0.2,3.1-0.6,3.6-1.3
			c0.5-0.7,2.7-1,3.2-2.1c0.6-1.1-0.4-3.4,3.8-4c4.3-0.6,7-0.4,7.7-0.7c0.7-0.3,1-4.7,1-5.6c0-0.8,0.1-1.6,1.3-0.7
			c1.2,0.9,3.5,2,3.6,1.8c0.1-0.1,0-3.5,0.2-4.7c0.3-1.2,1.1-4.2-0.1-5.8c-1.2-1.7-3.1-3.4-2.8-3.5c0.3,0,2.9,0,2.9,0L128.2,34.2z"
			/>
	</g>
	<path fill="#FFFFFF" d="M104,41.4c0,0-2.6,1.1-3.8,1.1v-1.4L104,41.4z"/>
	<path fill="#FFFFFF" d="M98.2,40.5h-2.6v3.2C95.7,43.7,98.9,43.9,98.2,40.5z"/>
	<path fill="#FFFFFF" d="M94.8,40.5h-4.4c0,0-0.3,1.9,1.9,2.7c2.2,0.8,2.5,0.3,2.5,0.3V40.5z"/>
	<path fill="#FFFFFF" d="M93,34.8v4.4h-3.4C89.6,39.1,89.5,34,93,34.8z"/>
	<polygon fill="#FFFFFF" points="95.7,36.3 95.7,39.5 101.1,40 	"/>
	<path fill="#FFFFFF" d="M100.8,28.1l6.6,3.4c0,0-1.8,2.1-4.6,0C99.9,29.5,100.8,28.1,100.8,28.1z"/>
	<path fill="#D8C5B0" d="M37.2,58.2c0,0-3-2.1-4.1-2.1l-2.7,2.5c0,0-3.1-0.4-5.6,0.4c-2.5,0.8-2.2,3.6,0.6,5.6
		c2.8,2,7.7,2.8,11.9,3.3c4.2,0.5,8.2,2,9.8,3.6c0,0-14.5-3.5-15.6,2c-1.2,5.4,9.5,8.9,22,8.3c0,0,5.1,0,7.4,1.2
		c2.3,1.3,3.5,2.7,4.1,4.4c0.6,1.7,0.9,5.2,2.8,6.3c1.9,1.1,3.8,0.5,4.2,0c0.4-0.5,1-0.5,1.4-0.1c0.4,0.4,2.2,0.9,3.9,0.1
		c1.7-0.8,1.9-1.2,2-1.9c0.1-0.7,0.7-0.9,1.3-0.5c0.6,0.4,2,0.2,3.3-0.1c1.3-0.4,1.7-2.5,1.7-2.5s0.9,1.2,2.3,0.4
		c1.4-0.7,2.6-1.7,2-3.6c-0.7-1.9-1.8-1.5-2.5-1.7c-0.7-0.1-3.8-1.9-4.7-4.1c0,0,2.5,1.4,2.3,0.9c-0.1-0.6-2.2-2-2.5-4
		c-0.2-2.1-0.1-4.3-0.1-4.3s1.2,3.8,1.7,3.8s0.9-3.1,0.9-3.1s1,1.1,2.2,1.4c1.2,0.3,1.2-1,0.5-2c-0.7-0.9-2.9-3-5-3.1
		c-2.1,0-4,0.8-4.3,1.5c-0.3,0.7-2.5,1.5-4.8,2.1s-5.1,2.2-6.8,4.8c0,0-0.7-1.4,0.6-4.2c0,0-2,0.3-2.8,2.2c0,0-0.7-2.4,0.1-2.8
		c0.7-0.4-0.3-1.3-1.3-2c-1-0.7-7.8-4.8-11.4-7.7c-3.5-2.8-5.4-4.3-9-4.2c-3.6,0.1-8,0.6-8,0.6L37.2,58.2z"/>
	<path fill="#6E4D29" d="M46.3,93.1c0,0-3.1-1.9-3.6-3.8l-5.8,2.2c0,0,1.3,3.2,3.4,3.4L46.3,93.1z"/>
	<polygon fill="#6E4D29" points="88,80.7 104,77.4 104,74.6 86.5,78.4 	"/>
	<path fill="#6E4D29" d="M132,71l1.1,2.5c0,0,18-0.3,25.8,0.6C158.8,74,147.3,70.7,132,71"/>
	<g>
		<path fill="#CFC08E" d="M108.7,33.5c0,0,1.4,5,4.6,5.5c3.2,0.5,4.4,0,3.9-2.1c-0.5-2.1-1.6-3-2.4-2.8
			C113.9,34.2,111.6,34.6,108.7,33.5z"/>
		<path fill="#CFC08E" d="M71.8,30.3c0,0-6.3-1.3-14.2-0.7l3,3.5L71.8,30.3z"/>
		<path fill="#CFC08E" d="M58.6,33.5L56,29.8c0,0-5.1,1-4.8,5.8L58.6,33.5z"/>
		<path fill="#CFC08E" d="M60.3,35.9l6,7.8l-9,3.3c0,0-4.8-6.2-5.5-8.4L60.3,35.9z"/>
		<path fill="#CFC08E" d="M62.2,35.5c0,0,3.2-1.6,7.2-2.4l4,3.8c0,0-1.9,0.5-6.1-0.6c0,0,0.1,3.3,3.3,6.2l-1.7,0.6L62.2,35.5z"/>
		<path fill="#CFC08E" d="M71.5,43.6l3.9,2.8c0,0-4,1.2-5.4-2L71.5,43.6z"/>
		<path fill="#CFC08E" d="M67.8,45.5l-6.3,3.3c0,0,4.9,3.3,9.5,4.8c0,0-5.5,3-13.4-1.4c0,0-1.6-0.6-0.3,1c1.3,1.6,8.8,6.8,13.7,6.2
			c4.8-0.6,4.5-3.5,4.4-4.3c-0.1-0.8-3.3-2.5-4.9-5.4C68.8,47,67.8,45.5,67.8,45.5z"/>
		<path fill="#CFC08E" d="M56,56c0,0-5.8-5.2-7.1-7.2c-1.3-2-4-5.7-4-5.7s-5.6-1.6-6.7,3.6c0,0,8.2,2.4,10.3,7.8
			c0,0-3.5-2.4-7.7-3.9c-4.3-1.5-6.9-1.6-7.7,0.9c0,0,8.1,2.7,9.7,5.1c0,0,7.2-0.3,9.4,1.7c2.2,2,3.8,3.4,5.5,4.6
			c1.7,1.2,3.3,2.8,3.3,2.8s2.4-0.7,2.2-3.2c-0.1-2.5-2-3-3.3-3.7C58.7,58,56,56,56,56z"/>
		<path fill="#CFC08E" d="M45.6,87l12,0.3l-10.5,3C47,90.3,44.9,89.7,45.6,87z"/>
		<path fill="#CFC08E" d="M42.7,86.6l-4.8-0.9c0,0-2.1,3-1,5.8l5.8-2V86.6z"/>
		<polygon fill="#CFC08E" points="86.5,76.6 104,72.3 104,74.6 86.5,78.4 		"/>
		<path fill="#CFC08E" d="M132,71l-0.3-1.7c0,0,10.5-1.9,18.4-1.6c0,0,0.7,2,0.7,3.7l5.1-7.3c0,0,8.4,2.2,8.6,3.7l-5.7,6.3
			C158.8,74,148.3,70.8,132,71z"/>
		<path fill="#CFC08E" d="M135.4,49.5c0,0,3.5,1.3,4.2,1.6c0.7,0.3,1.1,1.1,0.7,2.1c-0.4,1.1-1.5,3.1-2.9,3c-1.4-0.1-3.9-1-3.9-1
			s1.2-1.1,1.5-2.7C135.2,50.9,135.4,49.5,135.4,49.5z"/>
		<path fill="#CFC08E" d="M143.3,52.8c0,0,1.5,4.1,1.3,4.7c-0.2,0.6-3.4-0.6-3.4-0.6S143.2,54.3,143.3,52.8z"/>
		<polygon fill="#CFC08E" points="140.9,59.7 144.6,60.2 146.3,65 143.2,65.2 		"/>
		<polygon fill="#CFC08E" points="140.4,65.2 137.6,58.7 129.8,57.2 133,60.1 133.2,61.6 136.2,65.4 		"/>
	</g>
	<path fill="#D8C5B0" d="M131.7,64.5c0,0-0.4-1.8-1.5-3.2c-1.1-1.4-2.8-2-3.6-2c-0.9,0-6.9,0.6-7.7,0.6c-0.9-0.1-2.2,0.1-2.2,0.1
		s-0.9,0.6-0.7,3.6c0,0,0.5-0.1,0.8-0.7c0.3-0.6,1.9-1.6,3.1-1.6c1.2,0.1,2.2,0.1,2.5,0.6c0.3,0.5,1.3,0.4,2.3,0
		c1-0.4,2.6,0,3.1,0.5C128.1,63,130.6,64.8,131.7,64.5z"/>
	<path fill="#D8C5B0" d="M129.3,74.6c0,0-2.1-3.8-1.8-6.2c0.3-2.3,0.8-4.1-1-4.4c-1.8-0.3-3.8-0.3-3.8,2.6c0.1,2.9,0.4,5.5,0.7,6.8
		c0.3,1.3,0.4,2.2-0.3,2.3c-0.7,0.1-1.1-0.5-0.8-1.1c0.4-0.6-0.4-3.2-0.5-4.1c-0.2-1-0.4-4.4-0.3-5.3c0.1-0.9,0.1-2-1.9-1.8
		c-2,0.2-4,1.6-3.6,4.1c0.4,2.5,0.9,6.3,1.2,7.1c0.3,0.9,0.2,0.7-0.4,1.1c-0.6,0.4-1.7,0-1.3-0.6c0.5-0.6-0.5-5.2-0.5-6.9
		s0.1-3.4-1.5-3.5c-1.6-0.1-2.9,0.4-3,2.9c-0.1,2.5,0.1,8.3,0.4,8.8s0.5,1.1,0,1.4c-0.5,0.2-1.6,0.6-1.9-0.8
		c-0.3-1.4-0.3-6.5-0.3-7.8c0-1.3,0.1-2.3-1.4-2c-1.4,0.3-1.5,1.1-1.6,4.4c-0.1,3.3,0.1,8.4,1.1,10c1,1.7,3.2,1.7,4,1.3
		c0.8-0.3,1.3-0.6,1.5-0.9c0.2-0.4,0.4-0.6,1-0.1c0.6,0.5,1,0.8,2.7,0.8c1.7-0.1,2-0.8,2.3-1.2c0.2-0.4,0.6-0.6,0.9-0.2
		c0.3,0.4,1.7,0.7,2.8,0.2c1-0.4,2.4-1.4,2.4-1.8c0-0.4-0.5,1,2,0.2C129.1,79.1,131.2,77.2,129.3,74.6z"/>
	<path fill="#D8C5B0" d="M136,75.6h8.6c0,0,1.2,0.2,2.1,0.8c0.9,0.7,3.9,3.4,3.4,6c-0.5,2.5-3.1,2.5-5.2,2c-2.1-0.4-6.4-1.3-6.4-1.3
		s2.3,2.3,5.1,3.2c2.9,0.9,6,0.9,5.8,4c-0.2,3.1-1.9,4.4-4.5,4.4c-2.6,0.1-7.6-1.1-9.8-4.1c0,0,1.3,4.9,0.5,5.1
		c-0.8,0.2-6.3-0.4-9-2.6c-2.7-2.3-3.6-7.3-2.8-7.5c0.8-0.1,5-1,6.2-1.9c1.2-0.8,2.9-2.8,3.6-3.5c0.7-0.7,1.4-1.6,3.7-1.6
		c2.3-0.1,3.6,0.2,3.6,0.2L136,75.6z"/>
	<polygon fill="#FFFFFF" points="170.6,34.5 171.7,31.3 178.2,32 177.1,35 	"/>
	<path fill="#FFFFFF" d="M180.2,35.6l1.9-3.1c0,0,7.2,0.7,8.1,2.4l-2.1,2.6C188.1,37.6,183.4,35.9,180.2,35.6z"/>
	<path fill="#A62B43" d="M179.8,36.4l-4.2,4.9l1.5-5.6h-6.8l-3.2,7.4c0,0,10.7,1,15.5,2.8l5.2-7.6C187.7,38.4,184.2,37,179.8,36.4z"
		/>
	<path fill="#FFFFFF" d="M182.1,46.7l-4.3,7l-9.5-0.9l6.9,2l-3.5,4.5l-7.3-1.2l7,3.3l-4.5,4.5l-10.3-3.4l8-14.8l9.3,0.4
		c0,0-3.5-1-9.1-1l1.6-3.1C166.5,44,177.3,45.2,182.1,46.7z"/>
	<path fill="#FFFFFF" d="M120.3,31.7c0,0,1.8-0.4,2.7-0.5c0.9-0.1,1.4,0.2,0.7,1.1c-0.7,0.9-1.9,1.4-3.6,1.1c-1.7-0.3-2-0.3-2-0.3
		S117.8,32.5,120.3,31.7z"/>
</g>
<g>
	<g>
		<g>
			<path fill="#CFC08E" stroke="#000000" stroke-width="10.9922" stroke-miterlimit="10" d="M6.7,106.1c0.6-0.1,1.1-0.3,1.7-0.4
				c0.9,3.5,1.8,6.9,2.7,10.4c1.3-0.3,2.6-0.7,4-1c0.1,0.5,0.3,1.1,0.4,1.6c-1.9,0.5-3.7,0.9-5.6,1.4C8.8,114.1,7.8,110.1,6.7,106.1
				z"/>
			<path fill="#CFC08E" stroke="#000000" stroke-width="10.9922" stroke-miterlimit="10" d="M14.2,106c1.9-0.5,3.9-1,5.8-1.4
				c0.1,0.5,0.2,0.9,0.4,1.4c-1.5,0.4-2.9,0.7-4.4,1.1c0.2,0.9,0.4,1.7,0.6,2.6c1.5-0.4,2.9-0.7,4.4-1.1c0.1,0.5,0.2,0.9,0.3,1.4
				c-1.5,0.4-2.9,0.7-4.4,1.1c0.3,1.2,0.6,2.4,0.9,3.6c1.5-0.4,2.9-0.7,4.4-1.1c0.1,0.5,0.2,0.9,0.3,1.4c-1.9,0.5-3.9,0.9-5.8,1.4
				C15.9,112.9,15.1,109.5,14.2,106z"/>
			<path fill="#CFC08E" stroke="#000000" stroke-width="10.9922" stroke-miterlimit="10" d="M32.3,103.4c-0.3,0.4-0.5,0.9-0.8,1.3
				c-1.3-0.8-2.7-1-4.1-0.7c-1.2,0.3-2.2,0.9-2.8,1.9c-0.6,1-0.8,2-0.5,3.2c0.3,1,0.9,1.9,1.9,2.5c1,0.6,2.2,0.8,3.6,0.5
				c2.1-0.5,3.2-1.7,3.3-3.6c-0.9,0.2-1.9,0.4-2.8,0.7c-0.1-0.5-0.2-0.9-0.3-1.4c1.5-0.3,3-0.7,4.5-1c0.2,0.7,0.3,1.3,0.3,1.7
				c0,0.4-0.1,1-0.3,1.5c-0.2,0.6-0.5,1.1-0.9,1.6c-0.4,0.5-0.9,0.9-1.4,1.2c-0.5,0.3-1.2,0.6-2,0.7c-1.8,0.4-3.4,0.2-4.7-0.7
				c-1.4-0.9-2.2-2-2.6-3.5c-0.4-1.5-0.1-3,0.7-4.3c0.8-1.3,2.1-2.2,3.6-2.6c0.9-0.2,1.8-0.3,2.7-0.2
				C30.4,102.5,31.3,102.9,32.3,103.4z"/>
			<path fill="#CFC08E" stroke="#000000" stroke-width="10.9922" stroke-miterlimit="10" d="M35.6,106.4c-0.4-1.5-0.1-2.9,0.8-4.2
				c0.9-1.3,2.2-2.2,3.8-2.5c1.6-0.4,3.1-0.1,4.5,0.7c1.4,0.8,2.3,2,2.6,3.5c0.4,1.6,0.1,3-0.8,4.4c-0.9,1.3-2.1,2.2-3.8,2.5
				c-1.6,0.4-3.1,0.1-4.5-0.7C36.8,109.1,36,107.9,35.6,106.4z M45.7,104.2c-0.3-1.1-0.9-2-1.9-2.6c-1-0.6-2.2-0.8-3.4-0.5
				c-1.2,0.3-2.1,0.9-2.7,1.9c-0.6,1-0.8,2-0.6,3.2c0.3,1.1,0.9,2,1.9,2.6c1,0.6,2.2,0.8,3.4,0.5c1.1-0.3,2-0.9,2.7-1.9
				C45.8,106.3,46,105.3,45.7,104.2z"/>
			<path fill="#CFC08E" stroke="#000000" stroke-width="10.9922" stroke-miterlimit="10" d="M56.7,95.9c1.8,3.4,3.5,6.8,5.2,10.3
				c-0.5,0.1-0.9,0.2-1.4,0.3c-1.1-2.1-2.1-4.2-3.2-6.3c-0.5,2.6-1,5.1-1.5,7.7c-1.5-2.2-3-4.3-4.6-6.5c-0.1,2.4-0.2,4.7-0.3,7.1
				c-0.5,0.1-0.9,0.2-1.4,0.3c0.2-3.8,0.3-7.7,0.5-11.5c1.7,2.4,3.4,4.7,5,7.1C55.6,101.6,56.2,98.7,56.7,95.9z"/>
			<path fill="#CFC08E" stroke="#000000" stroke-width="10.9922" stroke-miterlimit="10" d="M68,95.3c-0.3,0.4-0.7,0.8-1,1.2
				c-0.4-0.3-0.7-0.4-1-0.5c-0.3-0.1-0.7-0.1-1.2,0c-0.5,0.1-0.9,0.3-1.2,0.6c-0.3,0.3-0.4,0.6-0.3,1c0.1,0.3,0.3,0.6,0.6,0.8
				c0.3,0.2,0.9,0.4,1.6,0.5c0.7,0.2,1.3,0.3,1.8,0.5c0.4,0.2,0.8,0.4,1.1,0.6c0.3,0.3,0.6,0.5,0.7,0.8c0.2,0.3,0.3,0.7,0.4,1
				c0.2,0.9,0,1.7-0.5,2.4c-0.5,0.7-1.2,1.2-2.1,1.4c-0.9,0.2-1.7,0.1-2.5-0.2c-0.8-0.3-1.5-1-2-1.8c0.5-0.2,0.9-0.5,1.4-0.7
				c0.8,1.1,1.7,1.5,2.8,1.3c0.5-0.1,0.9-0.3,1.2-0.7c0.3-0.4,0.4-0.8,0.3-1.3c-0.1-0.3-0.2-0.6-0.5-0.8c-0.2-0.3-0.5-0.4-0.8-0.6
				c-0.3-0.1-0.8-0.3-1.4-0.4c-0.6-0.1-1.2-0.2-1.5-0.4c-0.4-0.1-0.7-0.3-1-0.5c-0.3-0.2-0.5-0.5-0.7-0.7c-0.2-0.3-0.3-0.5-0.3-0.8
				c-0.2-0.7,0-1.4,0.5-2.1c0.5-0.7,1.2-1.1,2.1-1.2c0.6-0.1,1.2-0.1,1.9,0C66.9,94.6,67.5,94.9,68,95.3z"/>
			<path fill="#CFC08E" stroke="#000000" stroke-width="10.9922" stroke-miterlimit="10" d="M69.8,93.7c0.5-0.1,1-0.2,1.5-0.3
				c0.3,1.4,0.6,2.8,0.9,4.3c1.2-1.7,2.5-3.4,3.7-5.1c0.7-0.1,1.4-0.3,2-0.4c-1.4,1.9-2.8,3.9-4.2,5.8c2.1,1.5,4.2,3.1,6.3,4.6
				c-0.6,0.1-1.2,0.2-1.9,0.3c-1.9-1.4-3.8-2.8-5.8-4.2c0.3,1.7,0.7,3.4,1,5.1c-0.5,0.1-1,0.2-1.5,0.3
				C71.3,100.7,70.6,97.2,69.8,93.7z"/>
			<path fill="#CFC08E" stroke="#000000" stroke-width="10.9922" stroke-miterlimit="10" d="M79.4,91.9c0.5-0.1,1-0.2,1.5-0.3
				c0.7,3.5,1.4,7,2,10.5c-0.5,0.1-1,0.2-1.4,0.3C80.7,98.9,80,95.4,79.4,91.9z"/>
			<path fill="#CFC08E" stroke="#000000" stroke-width="10.9922" stroke-miterlimit="10" d="M90,91.2c-0.3,0.4-0.7,0.8-1,1.1
				c-0.4-0.3-0.7-0.4-1-0.6c-0.3-0.1-0.7-0.1-1.2,0c-0.5,0.1-0.9,0.3-1.2,0.6c-0.3,0.3-0.4,0.6-0.3,1c0.1,0.3,0.3,0.6,0.6,0.8
				c0.3,0.2,0.9,0.4,1.6,0.5c0.7,0.2,1.3,0.3,1.8,0.5c0.4,0.2,0.8,0.4,1.1,0.7c0.3,0.3,0.5,0.5,0.7,0.9c0.2,0.3,0.3,0.7,0.4,1
				c0.2,0.9,0,1.7-0.6,2.4s-1.3,1.2-2.2,1.3c-0.9,0.2-1.7,0.1-2.5-0.3c-0.8-0.4-1.4-1-2-1.9c0.5-0.2,0.9-0.4,1.4-0.7
				c0.8,1.1,1.7,1.5,2.8,1.3c0.5-0.1,0.9-0.3,1.2-0.7c0.3-0.4,0.4-0.8,0.3-1.3c-0.1-0.3-0.2-0.6-0.4-0.8c-0.2-0.3-0.5-0.5-0.8-0.6
				c-0.3-0.1-0.8-0.3-1.4-0.4c-0.6-0.1-1.2-0.3-1.5-0.4c-0.4-0.1-0.7-0.3-1-0.6c-0.3-0.2-0.5-0.5-0.7-0.7c-0.2-0.3-0.3-0.5-0.3-0.8
				c-0.1-0.8,0-1.4,0.6-2.1c0.5-0.6,1.2-1,2.1-1.2c0.6-0.1,1.2-0.1,1.9,0.1C88.9,90.5,89.5,90.8,90,91.2z"/>
		</g>
		<g>
			<path d="M6.7,106.1c0.6-0.1,1.1-0.3,1.7-0.4c0.9,3.5,1.8,6.9,2.7,10.4c1.3-0.3,2.6-0.7,4-1c0.1,0.5,0.3,1.1,0.4,1.6
				c-1.9,0.5-3.7,0.9-5.6,1.4C8.8,114.1,7.8,110.1,6.7,106.1z"/>
			<path d="M14.2,106c1.9-0.5,3.9-1,5.8-1.4c0.1,0.5,0.2,0.9,0.4,1.4c-1.5,0.4-2.9,0.7-4.4,1.1c0.2,0.9,0.4,1.7,0.6,2.6
				c1.5-0.4,2.9-0.7,4.4-1.1c0.1,0.5,0.2,0.9,0.3,1.4c-1.5,0.4-2.9,0.7-4.4,1.1c0.3,1.2,0.6,2.4,0.9,3.6c1.5-0.4,2.9-0.7,4.4-1.1
				c0.1,0.5,0.2,0.9,0.3,1.4c-1.9,0.5-3.9,0.9-5.8,1.4C15.9,112.9,15.1,109.5,14.2,106z"/>
			<path d="M32.3,103.4c-0.3,0.4-0.5,0.9-0.8,1.3c-1.3-0.8-2.7-1-4.1-0.7c-1.2,0.3-2.2,0.9-2.8,1.9c-0.6,1-0.8,2-0.5,3.2
				c0.3,1,0.9,1.9,1.9,2.5c1,0.6,2.2,0.8,3.6,0.5c2.1-0.5,3.2-1.7,3.3-3.6c-0.9,0.2-1.9,0.4-2.8,0.7c-0.1-0.5-0.2-0.9-0.3-1.4
				c1.5-0.3,3-0.7,4.5-1c0.2,0.7,0.3,1.3,0.3,1.7c0,0.4-0.1,1-0.3,1.5c-0.2,0.6-0.5,1.1-0.9,1.6c-0.4,0.5-0.9,0.9-1.4,1.2
				c-0.5,0.3-1.2,0.6-2,0.7c-1.8,0.4-3.4,0.2-4.7-0.7c-1.4-0.9-2.2-2-2.6-3.5c-0.4-1.5-0.1-3,0.7-4.3c0.8-1.3,2.1-2.2,3.6-2.6
				c0.9-0.2,1.8-0.3,2.7-0.2C30.4,102.5,31.3,102.9,32.3,103.4z"/>
			<path d="M35.6,106.4c-0.4-1.5-0.1-2.9,0.8-4.2c0.9-1.3,2.2-2.2,3.8-2.5c1.6-0.4,3.1-0.1,4.5,0.7c1.4,0.8,2.3,2,2.6,3.5
				c0.4,1.6,0.1,3-0.8,4.4c-0.9,1.3-2.1,2.2-3.8,2.5c-1.6,0.4-3.1,0.1-4.5-0.7C36.8,109.1,36,107.9,35.6,106.4z M45.7,104.2
				c-0.3-1.1-0.9-2-1.9-2.6c-1-0.6-2.2-0.8-3.4-0.5c-1.2,0.3-2.1,0.9-2.7,1.9c-0.6,1-0.8,2-0.6,3.2c0.3,1.1,0.9,2,1.9,2.6
				c1,0.6,2.2,0.8,3.4,0.5c1.1-0.3,2-0.9,2.7-1.9C45.8,106.3,46,105.3,45.7,104.2z"/>
			<path d="M56.7,95.9c1.8,3.4,3.5,6.8,5.2,10.3c-0.5,0.1-0.9,0.2-1.4,0.3c-1.1-2.1-2.1-4.2-3.2-6.3c-0.5,2.6-1,5.1-1.5,7.7
				c-1.5-2.2-3-4.3-4.6-6.5c-0.1,2.4-0.2,4.7-0.3,7.1c-0.5,0.1-0.9,0.2-1.4,0.3c0.2-3.8,0.3-7.7,0.5-11.5c1.7,2.4,3.4,4.7,5,7.1
				C55.6,101.6,56.2,98.7,56.7,95.9z"/>
			<path d="M68,95.3c-0.3,0.4-0.7,0.8-1,1.2c-0.4-0.3-0.7-0.4-1-0.5c-0.3-0.1-0.7-0.1-1.2,0c-0.5,0.1-0.9,0.3-1.2,0.6
				c-0.3,0.3-0.4,0.6-0.3,1c0.1,0.3,0.3,0.6,0.6,0.8c0.3,0.2,0.9,0.4,1.6,0.5c0.7,0.2,1.3,0.3,1.8,0.5c0.4,0.2,0.8,0.4,1.1,0.6
				c0.3,0.3,0.6,0.5,0.7,0.8c0.2,0.3,0.3,0.7,0.4,1c0.2,0.9,0,1.7-0.5,2.4c-0.5,0.7-1.2,1.2-2.1,1.4c-0.9,0.2-1.7,0.1-2.5-0.2
				c-0.8-0.3-1.5-1-2-1.8c0.5-0.2,0.9-0.5,1.4-0.7c0.8,1.1,1.7,1.5,2.8,1.3c0.5-0.1,0.9-0.3,1.2-0.7c0.3-0.4,0.4-0.8,0.3-1.3
				c-0.1-0.3-0.2-0.6-0.5-0.8c-0.2-0.3-0.5-0.4-0.8-0.6c-0.3-0.1-0.8-0.3-1.4-0.4c-0.6-0.1-1.2-0.2-1.5-0.4c-0.4-0.1-0.7-0.3-1-0.5
				c-0.3-0.2-0.5-0.5-0.7-0.7c-0.2-0.3-0.3-0.5-0.3-0.8c-0.2-0.7,0-1.4,0.5-2.1c0.5-0.7,1.2-1.1,2.1-1.2c0.6-0.1,1.2-0.1,1.9,0
				C66.9,94.6,67.5,94.9,68,95.3z"/>
			<path d="M69.8,93.7c0.5-0.1,1-0.2,1.5-0.3c0.3,1.4,0.6,2.8,0.9,4.3c1.2-1.7,2.5-3.4,3.7-5.1c0.7-0.1,1.4-0.3,2-0.4
				c-1.4,1.9-2.8,3.9-4.2,5.8c2.1,1.5,4.2,3.1,6.3,4.6c-0.6,0.1-1.2,0.2-1.9,0.3c-1.9-1.4-3.8-2.8-5.8-4.2c0.3,1.7,0.7,3.4,1,5.1
				c-0.5,0.1-1,0.2-1.5,0.3C71.3,100.7,70.6,97.2,69.8,93.7z"/>
			<path d="M79.4,91.9c0.5-0.1,1-0.2,1.5-0.3c0.7,3.5,1.4,7,2,10.5c-0.5,0.1-1,0.2-1.4,0.3C80.7,98.9,80,95.4,79.4,91.9z"/>
			<path d="M90,91.2c-0.3,0.4-0.7,0.8-1,1.1c-0.4-0.3-0.7-0.4-1-0.6c-0.3-0.1-0.7-0.1-1.2,0c-0.5,0.1-0.9,0.3-1.2,0.6
				c-0.3,0.3-0.4,0.6-0.3,1c0.1,0.3,0.3,0.6,0.6,0.8c0.3,0.2,0.9,0.4,1.6,0.5c0.7,0.2,1.3,0.3,1.8,0.5c0.4,0.2,0.8,0.4,1.1,0.7
				c0.3,0.3,0.5,0.5,0.7,0.9c0.2,0.3,0.3,0.7,0.4,1c0.2,0.9,0,1.7-0.6,2.4s-1.3,1.2-2.2,1.3c-0.9,0.2-1.7,0.1-2.5-0.3
				c-0.8-0.4-1.4-1-2-1.9c0.5-0.2,0.9-0.4,1.4-0.7c0.8,1.1,1.7,1.5,2.8,1.3c0.5-0.1,0.9-0.3,1.2-0.7c0.3-0.4,0.4-0.8,0.3-1.3
				c-0.1-0.3-0.2-0.6-0.4-0.8c-0.2-0.3-0.5-0.5-0.8-0.6c-0.3-0.1-0.8-0.3-1.4-0.4c-0.6-0.1-1.2-0.3-1.5-0.4c-0.4-0.1-0.7-0.3-1-0.6
				c-0.3-0.2-0.5-0.5-0.7-0.7c-0.2-0.3-0.3-0.5-0.3-0.8c-0.1-0.8,0-1.4,0.6-2.1c0.5-0.6,1.2-1,2.1-1.2c0.6-0.1,1.2-0.1,1.9,0.1
				C88.9,90.5,89.5,90.8,90,91.2z"/>
		</g>
	</g>
	<g>
		<path d="M6.6,105.3c0.7-0.2,1.4-0.3,2-0.5c1.1,4.3,2.2,8.5,3.3,12.8c1.6-0.4,3.2-0.8,4.9-1.2c0.2,0.7,0.3,1.3,0.5,2
			c-2.3,0.6-4.6,1.1-6.9,1.7C9.1,115.2,7.9,110.3,6.6,105.3z"/>
		<path d="M15.8,105.3c2.4-0.6,4.8-1.2,7.2-1.7c0.1,0.6,0.3,1.2,0.4,1.7c-1.8,0.4-3.6,0.9-5.4,1.3c0.3,1.1,0.5,2.1,0.8,3.2
			c1.8-0.4,3.6-0.9,5.4-1.3c0.1,0.6,0.3,1.1,0.4,1.7c-1.8,0.4-3.6,0.9-5.4,1.3c0.4,1.5,0.7,2.9,1.1,4.4c1.8-0.4,3.6-0.9,5.4-1.3
			c0.1,0.6,0.3,1.1,0.4,1.7c-2.4,0.6-4.7,1.1-7.1,1.7C17.9,113.8,16.8,109.5,15.8,105.3z"/>
		<path d="M38.1,102.2c-0.3,0.5-0.7,1-1,1.6c-1.6-1-3.3-1.3-5.1-0.9c-1.5,0.4-2.7,1.1-3.5,2.3c-0.8,1.2-1,2.5-0.6,4
			c0.3,1.3,1.1,2.3,2.3,3.1c1.2,0.8,2.7,1,4.4,0.6c2.6-0.6,3.9-2.1,4.1-4.4c-1.2,0.3-2.3,0.5-3.5,0.8c-0.1-0.6-0.3-1.2-0.4-1.7
			c1.8-0.4,3.7-0.8,5.5-1.2c0.2,0.9,0.3,1.6,0.3,2.1c0,0.5-0.1,1.2-0.3,1.9c-0.2,0.7-0.6,1.4-1.1,2c-0.5,0.6-1.1,1.1-1.7,1.5
			c-0.7,0.4-1.5,0.7-2.5,0.9c-2.2,0.5-4.2,0.2-5.8-0.8c-1.7-1.1-2.7-2.5-3.1-4.3c-0.5-1.9-0.2-3.6,0.9-5.3c1-1.6,2.5-2.7,4.5-3.1
			c1.2-0.3,2.3-0.3,3.3-0.2C35.7,101.1,36.9,101.5,38.1,102.2z"/>
		<path d="M42.1,105.8c-0.4-1.8-0.1-3.6,1-5.2c1.1-1.6,2.7-2.7,4.7-3.1c2-0.4,3.8-0.1,5.5,0.9c1.7,1,2.8,2.5,3.1,4.3
			c0.4,1.9,0.1,3.7-1,5.4c-1.1,1.6-2.6,2.7-4.7,3.1c-2,0.4-3.8,0.1-5.5-0.9C43.6,109.2,42.5,107.7,42.1,105.8z M54.6,103.2
			c-0.3-1.4-1.1-2.5-2.3-3.2c-1.3-0.7-2.6-1-4.2-0.6c-1.4,0.3-2.6,1.1-3.4,2.3c-0.8,1.2-1,2.5-0.7,3.9c0.3,1.4,1.1,2.5,2.4,3.2
			c1.3,0.7,2.7,0.9,4.2,0.6c1.4-0.3,2.5-1.1,3.3-2.3C54.6,105.8,54.9,104.6,54.6,103.2z"/>
		<path d="M68.2,93.2c2.1,4.2,4.2,8.5,6.3,12.7c-0.6,0.1-1.2,0.2-1.7,0.3c-1.3-2.6-2.5-5.2-3.8-7.8c-0.7,3.1-1.3,6.3-1.9,9.4
			c-1.8-2.7-3.7-5.3-5.6-8c-0.1,2.9-0.3,5.8-0.4,8.7c-0.6,0.1-1.2,0.2-1.7,0.4c0.2-4.7,0.5-9.4,0.7-14.1c2.1,2.9,4.1,5.8,6.1,8.7
			C66.8,100.1,67.5,96.6,68.2,93.2z"/>
		<path d="M82.1,92.6c-0.4,0.5-0.8,0.9-1.2,1.4c-0.5-0.3-0.9-0.5-1.2-0.7c-0.4-0.1-0.8-0.1-1.4,0c-0.6,0.1-1.1,0.4-1.5,0.7
			c-0.3,0.4-0.5,0.8-0.4,1.2c0.1,0.4,0.3,0.7,0.7,0.9c0.4,0.2,1.1,0.4,2,0.6c0.9,0.2,1.6,0.4,2.2,0.6c0.5,0.2,1,0.5,1.4,0.8
			c0.4,0.3,0.7,0.7,0.9,1c0.2,0.4,0.4,0.8,0.5,1.3c0.2,1.1,0,2.1-0.7,3c-0.6,0.9-1.5,1.5-2.7,1.7c-1.1,0.2-2.1,0.1-3.1-0.3
			c-1-0.4-1.8-1.2-2.5-2.3c0.6-0.3,1.1-0.6,1.7-0.8c0.9,1.3,2.1,1.9,3.4,1.6c0.7-0.1,1.2-0.4,1.5-0.9c0.4-0.5,0.5-1,0.4-1.6
			c-0.1-0.4-0.2-0.7-0.5-1c-0.3-0.3-0.6-0.5-1-0.7c-0.4-0.2-1-0.3-1.8-0.5c-0.8-0.2-1.4-0.3-1.9-0.5c-0.4-0.2-0.8-0.4-1.2-0.7
			c-0.4-0.3-0.6-0.6-0.8-0.9c-0.2-0.3-0.3-0.7-0.4-1c-0.2-0.9,0-1.8,0.7-2.6c0.6-0.8,1.5-1.3,2.6-1.5c0.7-0.1,1.5-0.1,2.3,0
			C80.8,91.7,81.5,92,82.1,92.6z"/>
		<path d="M84.4,90.7c0.6-0.1,1.2-0.2,1.8-0.3c0.3,1.7,0.7,3.5,1,5.2c1.5-2.1,3.1-4.2,4.6-6.2c0.8-0.1,1.7-0.3,2.5-0.4
			c-1.8,2.4-3.5,4.7-5.3,7.1c2.6,1.9,5.1,3.9,7.7,5.8c-0.8,0.1-1.5,0.3-2.3,0.4c-2.3-1.8-4.7-3.5-7-5.3c0.4,2.1,0.8,4.2,1.2,6.3
			c-0.6,0.1-1.2,0.2-1.8,0.3C86.1,99.3,85.2,95,84.4,90.7z"/>
		<path d="M96.2,88.6c0.6-0.1,1.2-0.2,1.8-0.3c0.8,4.3,1.6,8.6,2.3,12.9c-0.6,0.1-1.2,0.2-1.8,0.3C97.7,97.2,96.9,92.9,96.2,88.6z"
			/>
		<path d="M109.3,87.9c-0.4,0.5-0.9,0.9-1.3,1.4c-0.5-0.3-0.9-0.6-1.2-0.7c-0.4-0.1-0.8-0.2-1.4-0.1c-0.7,0.1-1.2,0.3-1.5,0.7
			c-0.4,0.4-0.5,0.8-0.4,1.2c0.1,0.4,0.3,0.7,0.7,0.9c0.4,0.2,1.1,0.5,2,0.7c0.9,0.2,1.6,0.4,2.2,0.7c0.5,0.2,1,0.5,1.3,0.8
			c0.4,0.3,0.7,0.7,0.9,1.1c0.2,0.4,0.4,0.8,0.4,1.3c0.2,1.1-0.1,2.1-0.7,2.9c-0.7,0.9-1.6,1.4-2.7,1.6c-1.1,0.2-2.1,0-3.1-0.4
			c-1-0.5-1.8-1.2-2.4-2.3c0.6-0.3,1.1-0.5,1.7-0.8c0.9,1.3,2,1.9,3.4,1.7c0.7-0.1,1.2-0.4,1.5-0.8c0.4-0.5,0.5-1,0.4-1.6
			c-0.1-0.4-0.2-0.7-0.5-1c-0.3-0.3-0.6-0.6-1-0.7c-0.4-0.2-1-0.4-1.8-0.5c-0.8-0.2-1.4-0.4-1.9-0.5c-0.4-0.2-0.8-0.4-1.2-0.7
			c-0.4-0.3-0.6-0.6-0.8-0.9c-0.2-0.3-0.3-0.7-0.4-1.1c-0.2-0.9,0.1-1.8,0.7-2.6c0.6-0.8,1.5-1.3,2.6-1.4c0.7-0.1,1.5-0.1,2.3,0.1
			C108,87,108.7,87.4,109.3,87.9z"/>
	</g>
	<g>
		<path fill="#CFC08E" d="M3.9,105.2c1.1-0.3,2.2-0.7,3.3-1c1.2,3.9,2.4,7.9,3.6,11.8c1.5-0.4,3-0.9,4.5-1.3
			c0.3,1.1,0.6,2.2,0.9,3.3c-2.6,0.7-5.2,1.5-7.7,2.3C7.1,115.3,5.5,110.2,3.9,105.2z"/>
		<path fill="#CFC08E" d="M14.7,104.4c2.5-0.7,5-1.4,7.6-2.1c0.2,0.9,0.5,1.7,0.7,2.6c-1.6,0.4-3.1,0.8-4.7,1.3
			c0.3,0.9,0.5,1.7,0.8,2.6c1.5-0.4,3.1-0.8,4.6-1.3c0.2,0.8,0.5,1.7,0.7,2.5c-1.5,0.4-3.1,0.8-4.6,1.3c0.3,0.9,0.5,1.8,0.8,2.7
			c1.5-0.4,3.1-0.8,4.6-1.2c0.2,0.9,0.5,1.7,0.7,2.6c-2.5,0.7-4.9,1.3-7.4,2C17.2,113.1,15.9,108.7,14.7,104.4z"/>
		<path fill="#CFC08E" d="M37,101.6c-0.5,0.7-1,1.5-1.5,2.2c-0.6-0.6-1.2-1-1.9-1.2c-0.7-0.2-1.4-0.2-2,0c-1.1,0.3-1.9,0.9-2.4,1.9
			c-0.6,1-0.7,2-0.4,3c0.3,1.1,0.9,2,1.9,2.6c1,0.6,2,0.7,3.1,0.5c0.6-0.1,1.1-0.4,1.6-0.9c0.5-0.4,0.8-1.1,0.9-2
			c-1.1,0.3-2.1,0.5-3.2,0.8c-0.2-0.9-0.4-1.7-0.7-2.6c2.1-0.5,4.1-1,6.2-1.5c0.1,0.6,0.3,1.1,0.4,1.7c0.2,0.9,0.1,1.9-0.2,3
			c-0.4,1.2-1,2.1-1.9,2.8c-0.9,0.7-1.8,1.2-2.8,1.4c-1.8,0.5-3.5,0.2-5.2-0.8c-1.6-1-2.7-2.4-3.2-4.3c-0.5-1.8-0.3-3.6,0.7-5.2
			c1-1.6,2.4-2.7,4.3-3.2C33.1,99.3,35.2,99.9,37,101.6z"/>
		<path fill="#CFC08E" d="M40.5,104.7c-0.5-1.9-0.2-3.7,0.8-5.3c1-1.6,2.5-2.6,4.3-3c2-0.5,3.9-0.2,5.5,0.8c1.6,1,2.7,2.5,3.1,4.4
			c0.4,1.9,0.1,3.7-0.9,5.2c-1,1.6-2.5,2.6-4.5,3c-2,0.4-3.7,0.2-5.3-0.8C42,108.1,41,106.7,40.5,104.7z M46.4,99.1
			c-1.2,0.2-2,0.8-2.5,1.8c-0.5,0.9-0.6,2-0.3,3.3c0.3,1.2,0.9,2.1,1.8,2.7c0.9,0.6,1.9,0.8,2.9,0.6c1.1-0.3,2-0.8,2.5-1.7
			c0.5-0.9,0.6-2,0.4-3.2c-0.3-1.2-0.9-2.1-1.7-2.7C48.5,99,47.5,98.8,46.4,99.1z"/>
		<path fill="#CFC08E" d="M56.2,94.3c1.2-0.2,2.4-0.5,3.6-0.7c1.4,2.5,2.9,5,4.3,7.4c0.3-2.8,0.6-5.6,0.9-8.4
			c1.1-0.2,2.3-0.4,3.4-0.6c1.5,4.3,3,8.6,4.4,13c-0.9,0.2-1.9,0.3-2.8,0.5c-1-3-2-6.1-3.1-9.1c-0.4,3.3-0.8,6.6-1.1,9.9
			c-0.4,0.1-0.9,0.2-1.3,0.3c-1.7-2.9-3.4-5.9-5.1-8.8c0.3,3.2,0.6,6.4,0.9,9.6c-0.9,0.2-1.9,0.4-2.8,0.6
			C57,103.4,56.6,98.9,56.2,94.3z"/>
		<path fill="#CFC08E" d="M80.5,91.2c-0.5,0.8-1,1.5-1.5,2.3c-1.1-0.4-1.9-0.5-2.3-0.5c-0.3,0.1-0.6,0.2-0.8,0.5
			c-0.2,0.3-0.3,0.6-0.2,0.9c0.1,0.7,0.9,1.1,2.2,1.4c1,0.2,1.7,0.4,2.3,0.7c0.5,0.2,1,0.6,1.4,1.1c0.4,0.5,0.7,1,0.8,1.7
			c0.2,1.1-0.1,2.2-0.9,3.2c-0.8,1-1.9,1.6-3.2,1.8c-1.4,0.2-2.9-0.2-4.6-1.2c0.5-0.8,1-1.7,1.5-2.5c1,0.7,1.9,1,2.7,0.9
			c0.4-0.1,0.7-0.3,0.9-0.6c0.3-0.4,0.4-0.7,0.3-1c-0.1-0.7-1-1.2-2.6-1.5c-0.9-0.2-1.6-0.3-2-0.5c-0.4-0.2-0.8-0.5-1.1-1
			c-0.3-0.5-0.6-1-0.7-1.5c-0.2-1.2,0-2.2,0.7-3.1c0.7-0.9,1.7-1.4,3-1.6C77.9,90.2,79.3,90.4,80.5,91.2z"/>
		<path fill="#CFC08E" d="M82.9,89.5c1-0.2,2-0.3,3-0.5c0.3,1.9,0.6,3.8,1,5.6c0,0,0,0,0,0c1.2-2.1,2.5-4.2,3.7-6.3
			c1.2-0.2,2.5-0.4,3.7-0.5c-1.5,2.4-2.9,4.8-4.3,7.1c2.2,2.1,4.4,4.1,6.6,6.2c-1.2,0.2-2.4,0.3-3.6,0.5c-2-1.9-3.9-3.7-5.9-5.5
			c0,0,0,0,0,0c0.3,2.1,0.7,4.2,1,6.2c-1,0.1-2,0.3-3,0.5C84.4,98.4,83.7,94,82.9,89.5z"/>
		<path fill="#CFC08E" d="M96.7,87.6c1-0.1,2-0.3,3.1-0.4c0.7,4.5,1.3,8.9,1.9,13.4c-1,0.1-2,0.3-3,0.4C98,96.5,97.4,92,96.7,87.6z"
			/>
		<path fill="#CFC08E" d="M110.8,87.1c-0.6,0.7-1.1,1.5-1.6,2.2c-1.1-0.4-1.8-0.6-2.3-0.6c-0.3,0-0.6,0.2-0.8,0.5
			c-0.2,0.3-0.3,0.6-0.2,0.9c0.1,0.7,0.8,1.2,2.1,1.5c1,0.3,1.7,0.5,2.2,0.8c0.5,0.3,1,0.6,1.4,1.1c0.4,0.5,0.6,1.1,0.7,1.7
			c0.1,1.2-0.2,2.2-1.1,3.2c-0.9,1-2,1.5-3.3,1.7c-1.4,0.2-3-0.3-4.6-1.4c0.6-0.8,1.1-1.6,1.7-2.5c1,0.8,1.9,1.1,2.7,1
			c0.4,0,0.7-0.2,1-0.6c0.3-0.3,0.4-0.7,0.4-1c-0.1-0.7-0.9-1.2-2.6-1.6c-0.9-0.2-1.6-0.4-2-0.6c-0.4-0.2-0.8-0.6-1.1-1.1
			c-0.3-0.5-0.5-1-0.6-1.5c-0.2-1.2,0.1-2.2,0.8-3c0.7-0.8,1.7-1.3,3.1-1.5C108.2,86,109.6,86.3,110.8,87.1z"/>
	</g>
</g>
<g>
	<polygon fill="#CFC08E" points="17.6,153.4 17.6,124.3 19.8,120.7 9.7,123.5 11.7,125.9 12,158.2 10.6,162 21.7,158.5 23.4,149.3 
		20,152.9 	"/>
	<path fill="#CFC08E" d="M78.1,138.4c0-0.7,0.3-7.1,0-9.2c-0.2-1.4-0.8-2.3-1.5-2.8l1.3-2.9l0-0.2c0-0.1,0.4-2.9,0-8.1
		c-0.2-3.2-2.3-5-5.8-5c-0.9,0-1.5,0.1-1.6,0.1l-9.3,1.8l0,0l-5.6,0.9L51,130.8l-5.4-15.6l-6.2,1.4l0.1-0.3l-8.9,2.3l0,0l-8.2,1.8
		l1.8,2.3l0.3,33.9h4.3l10.8-2.9l-0.2,0.4l9.7-2.5l-1.4-2.6l0-5.3l3.5,13.4l3.2-15.6l0.1,5.3l-1.5,4l9.2-2.5l-0.1-0.1l1.3-0.1
		c0.2,0,4.1-0.5,9.3-2.2C77.3,144.2,78.2,140.3,78.1,138.4z M69.2,123.8V116c0.4-0.1,0.8-0.1,1.2-0.1c1.6,0,1.9,0.9,1.9,1.2
		c0.1,2.4,0.1,5.1,0.1,6.1C71.8,123.4,70.5,123.6,69.2,123.8z M72.4,139.4c0,1.2-1.9,1.9-3.2,2.2v-13.3l3.2-0.6
		C72.4,130.4,72.4,137.2,72.4,139.4z M31.4,119.9l1,1.5v28.3l-1.9,0.5l-0.3-28.8L31.4,119.9z M38.3,151.1l-0.3-31.2l1.5-3.3l2.2,2.5
		l0.1,31.3l-1.8,2.8L38.3,151.1z M60.3,145.5l-0.3-30.1l1.7-2.6l1.6,1.7l0.2,30.3l-1.9,2.7L60.3,145.5z"/>
	<polygon fill="#CFC08E" points="86.9,137.1 86.4,125.7 90.1,124.8 92.1,119.1 86.4,119.9 86.4,113.6 89,113 91.6,114.4 91.6,107.1 
		78.1,108.8 80.7,111.7 80.6,122.1 78.6,126.9 80.8,126.9 80.8,141 78,144.7 91.6,141.8 91.6,133.6 88.5,136.9 	"/>
	<path fill="#CFC08E" d="M107,121.4l1.6-3.8l0-0.1c0-0.1,0.6-3.6,0-7.7c-0.4-2.7-2.9-4.3-6.8-4.3c-0.4,0-0.7,0-0.7,0l-9,1.5l1.8,2.6
		v28.9l-2.2,3.3l8.8-1.5l-0.1-15.5c1,0,1.4,0.4,1.4,0.7l0,0l0.4,14.3l6.5-1.2l0-0.8c0-0.4,0.2-10.6,0-13.1
		C108.8,122.9,107.8,121.9,107,121.4z M102.9,112v6.1c-0.5,0.2-1.4,0.4-3.1,0.6v-7.8c0.3,0,0.6-0.1,0.9-0.1
		C102.9,110.8,102.9,111.7,102.9,112z"/>
	<path fill="#CFC08E" d="M111.6,106.9c0,3.4-0.2,27.7-0.2,29.8c0,2-0.6,3.3-0.6,3.4l-0.6,1.4l1.5,0.1c0.1,0,0.2,0,0.3,0
		c3.8,0,5.5-3.3,5.8-5.1l0-0.1v-32.8l-8,1.5L111.6,106.9z"/>
	<path fill="#CFC08E" d="M122.3,103l1.6,2.8l-5.4,31.6l6.9-1.3l0.4-4.2l2.5-0.2l0.3,4.2l7.1-1.6l-5.4-32L122.3,103z M127.1,118.4
		l0.9,7.8l-1.9,0.2L127.1,118.4z"/>
	<path fill="#CFC08E" d="M143.8,127.6l-1,0.1l-0.2-21.2c0.2-0.1,0.4-0.1,0.7-0.1c0.2,0,0.4,0,0.6,0l0.1,6.9l6.1-0.7v-7.9
		c0-0.3,0-1-0.5-1.8c-0.7-1-2-1.6-3.9-1.9c-0.6-0.1-1.2-0.1-1.7-0.1c-4.2,0-7.3,2-7.4,4.8c-0.1,2.7,0,23.6,0,24.8
		c0,0.3,0,1.1,0.8,1.9c0.9,0.9,2.4,1.4,4.5,1.4c0.2,0,0.5,0,0.7,0c6-0.3,7.6-3.7,7.6-5.4c0-1.5,0-6.6,0-6.7l0-1.1l-6,0.7
		L143.8,127.6z"/>
	<path fill="#CFC08E" d="M166.5,127.7l-3.7-14.6l3.7-10.8l2.2-2.7h-7.9v0.6h-9.9l2.1,2.7l-0.1,9.5l-1.9,3.9l1.9,0.4l0.1,12.9
		l-2.5,2.8l10.4-1.2l-0.1-0.1l7.8-1L166.5,127.7z M160.8,101.5l-2,5.3l-0.1-4.2l2-2.1V101.5z M160.7,131.1l-1.9-2.5l0.1-6.7l2,7.1
		L160.7,131.1z"/>
	<path fill="#CFC08E" d="M182.3,118.9c0-0.1-0.4-3.4-3.2-5.9c-0.5-0.5-1-0.9-1.4-1.3c-1.7-1.4-2.7-2.3-3-4.4
		c-0.2-1.5-0.2-2.6-0.2-3.2h1.7l0.1,5.7h5.8v-8.3l-0.1-0.2c-0.1-0.1-1.6-2.8-6.4-2.6c-4.7,0.2-6.7,2.6-6.9,4.1c-0.1,1,0,6.3,0,6.8
		l0,0.1l0,0.1c0,0.1,0.7,2.6,2.9,4.4l0.5,0.4c1.7,1.4,4,3.3,4,4.9v4.7l-1.8,0.1v-6.1l-5.9,0.7v7.6l0,0c0,0.1,0.2,3.1,5.1,3.1
		c0.4,0,0.9,0,1.3-0.1c4.8-0.4,7-1.7,7.3-4.2c0.1-1.4,0.2-6.3,0.2-6.5L182.3,118.9L182.3,118.9z"/>
</g>
<g>
	<g>
		<polygon fill="#FFFFFF" stroke="#000000" stroke-width="0.6072" points="11.5,124 12.7,125.5 13,158.4 12.3,160.4 20.8,157.7 
			21.8,152.4 20.5,153.8 16.6,154.7 16.6,124 17.7,122.3 		"/>
		<polygon fill="#FFFFFF" stroke="#000000" stroke-width="0.6072" points="25.3,122.3 24.2,121 30.2,119.7 29.2,121 29.5,151.5 
			33.4,150.5 33.4,121.1 32.2,119.2 37.8,117.8 36.9,119.7 37.3,151.5 38.5,153 28.8,155.6 25.6,155.6 		"/>
		<polygon fill="#FFFFFF" stroke="#000000" stroke-width="0.6072" points="42.6,118.7 41.3,117.2 45,116.3 51.1,134.2 56.5,114.1 
			60.1,113.5 59.1,115 59.3,145.8 60.5,147.6 54.6,149.2 55.5,146.9 55.2,132.2 50.9,153.5 46.6,134.3 46.7,149.2 47.6,150.9 
			41.6,152.4 42.7,150.6 		"/>
		<path fill="#FFFFFF" stroke="#000000" stroke-width="0.6072" d="M77.1,129.3c-0.3-2.1-1.8-2.5-1.8-2.5l1.6-3.6c0,0,0.3-2.7,0-7.9
			c-0.3-5.1-6.2-3.9-6.2-3.9l-7.5,1.5l1.1,1.2l0.2,31l-1.3,1.8c0,0,3.9-0.4,9.1-2.1c5.1-1.7,4.8-6.3,4.8-6.3S77.4,131.5,77.1,129.3z
			 M68.1,115.2c4.9-1.4,5.1,1.8,5.1,1.8s0.3,6.1,0,6.8c-0.3,0.7-5.1,1.1-5.1,1.1V115.2z M73.4,139.4c-0.1,2.9-5.2,3.3-5.2,3.3v-15.3
			l5.2-1C73.4,126.4,73.5,136.5,73.4,139.4z"/>
		<polygon fill="#FFFFFF" stroke="#000000" stroke-width="0.6072" points="90.6,108.2 80.1,109.6 81.8,111.3 81.6,122.3 80.1,125.9 
			81.8,125.9 81.8,141.4 80.5,143.1 90.6,141 90.6,136.1 88.9,137.8 86,138.2 85.4,124.9 89.3,123.9 90.6,120.3 85.4,121.1 
			85.4,112.8 89.1,112 90.6,112.7 		"/>
		<path fill="#FFFFFF" stroke="#000000" stroke-width="0.6072" d="M107.9,124.9c-0.2-2.5-2.1-3-2.1-3l1.9-4.5c0,0,0.6-3.4,0-7.4
			c-0.6-3.9-6.4-3.4-6.4-3.4l-7.3,1.2l1.1,1.5v29.5l-1.1,1.6l5.7-0.9l-0.1-15.6c3.6-0.4,3.5,1.7,3.5,1.7l0.4,13.1l4.5-0.9
			C107.9,137.9,108,127.4,107.9,124.9z M103.9,118.7c0,0-0.9,0.7-5.1,1V110c0,0,5.1-1.1,5.1,2C103.9,115,103.9,118.7,103.9,118.7z"
			/>
		<path fill="#FFFFFF" stroke="#000000" stroke-width="0.6072" d="M112.6,106.5l-0.9-0.9l5-0.9v31.5c0,0-0.9,4.4-5,4.3
			c0,0,0.7-1.5,0.7-3.8C112.4,134.5,112.6,106.5,112.6,106.5z"/>
		<path fill="#FFFFFF" stroke="#000000" stroke-width="0.6072" d="M129.4,103.3l-5.5,0.5l1,1.8l-5.2,30.5l4.7-0.9l0.4-4.3l4.4-0.4
			l0.3,4.1l5-1.1L129.4,103.3z M125,127.5l2.1-17.5l2.1,17.1L125,127.5z"/>
	</g>
	<g>
		<path fill="#FFFFFF" stroke="#000000" stroke-width="0.6072" d="M144.9,112l4-0.5v-7.1c0,0,0.4-2.1-3.5-2.6c-3.9-0.5-7.9,1-8,3.7
			c-0.1,2.8,0,24.8,0,24.8s-0.2,2.5,4.9,2.2c5.1-0.2,6.6-2.9,6.6-4.4c0-1.5,0-6.7,0-6.7l-4,0.5l-0.2,6.6l-3,0.2l-0.2-22.8
			c0,0,0.5-0.5,1.6-0.6c1.1-0.1,1.6,0,1.6,0L144.9,112z"/>
		<polygon fill="#FFFFFF" stroke="#000000" stroke-width="0.6072" points="154,102.5 153,101.2 158.8,101.2 157.8,102.3 
			157.9,112.3 161.8,101.7 161.8,100.6 166.6,100.6 165.6,101.7 161.8,113 165.6,128.2 166.6,129.4 161.9,130 162,129 158,115 
			157.8,128.9 158.9,130.4 153,131.1 154,129.9 153.9,115.8 152.5,115.5 153.9,112.6 		"/>
		<path fill="#FFFFFF" stroke="#000000" stroke-width="0.6072" d="M177.3,108.8h3.7v-7.1c0,0-1.3-2.2-5.4-2.1
			c-4.2,0.2-5.8,2.2-5.9,3.2c-0.1,1,0,6.7,0,6.7s0.6,2.3,2.5,3.9c1.9,1.6,4.8,3.9,4.8,6.1c0,2.2,0,5.6,0,5.6l-3.8,0.3v-6.1l-3.9,0.5
			v6.7c0,0,0.1,2.5,5.3,2.1c5.2-0.5,6.2-1.9,6.3-3.3c0.1-1.4,0.2-6.4,0.2-6.4s-0.4-3-2.8-5.3c-2.5-2.3-4.3-3.2-4.7-6.3
			c-0.4-3.1-0.1-4.3-0.1-4.3h3.6L177.3,108.8z"/>
	</g>
</g>
</svg>
