<?xml version="1.0" encoding="utf-8"?>
<!-- Generator: Adobe Illustrator 18.1.1, SVG Export Plug-In . SVG Version: 6.00 Build 0)  -->
<svg version="1.1" id="Layer_1" xmlns="http://www.w3.org/2000/svg" xmlns:xlink="http://www.w3.org/1999/xlink" x="0px" y="0px"
	 viewBox="0 0 800 600" enable-background="new 0 0 800 600" xml:space="preserve">
<path fill="#FFC422" d="M207,95.7c70.6-29.8,148.2-42.8,224.6-37.2c56.1,3.7,111.2,18,162.7,40.3c5.3,2.5,11.8,4.8,14.3,10.6
	c1.7,3.2,1.6,7,1.5,10.5c4.7,3.8,9.6,7.4,13.8,11.7c4.2,4.3,10,6.7,16,6.9c10.2,0.9,19.6-3.5,28.9-6.8c-3.4,11.6-7.6,23.1-13.8,33.5
	c-1.4,1.9-2.4,5,0.5,6.2c6.9-1.5,14.6-2.9,21.2,0.5c15.6,6.9,22.4,27.5,15.4,42.7c-2,4.4-6,7.5-9.3,10.9
	c9.4,14.6,16.4,31.9,14.2,49.6c-1.6,13.3-10.3,24.8-21.2,32.1c-5.2-0.8-11.1-1.8-15.8,1.3c-4.3,2.3-6.8,6.6-8.7,10.9
	c-9.6,4.7-20.9,4.1-31,1.2c4.1,7.3,4.8,16.3,1.2,23.9c-10.9,22.3-29.7,40.2-51.6,51.7c-12.4,6.4-25.5,11.7-39.1,15.1
	c8.8,15.2,16.1,33.1,11.6,50.9c-5,19.2-20.6,32.8-36,44c0.3-2.5,0.5-5,0.8-7.5c-16,14.5-37.3,21.8-58.4,24.6
	c-12,12.3-28.2,19.3-44.1,25.4c-3.5,1.1-7.3,3.6-11,1.6c-14-5.2-28.1-10.8-40.2-19.7c-4-2.8-7-7.7-12.3-8
	c-19.9-3-39.3-10.6-54.6-23.8c0.5,2.4,0.8,4.9,1.3,7.4c-14.1-9.7-27.6-21.7-34.3-37.7c-3.9-9.3-4.2-19.6-2.4-29.4
	c-7.4-10.5-11.1-23.2-12.3-36c-22.7-9.3-43.7-24-57.9-44.3c-5.6-7.7-11.4-16.4-11-26.4c-0.2-4.3,2-8.1,3.7-12
	c-10.1,2.6-21.3,4.3-31-0.4c-4.2-4-5.9-10.9-12.1-12.6c-4.4-2.4-9.4-0.2-14-0.9c-9.1-5.1-18.8-12.2-20.7-23.2
	c-1.9-5.6,1.6-10.8,4.6-15.2c3.6-5.5,8.9-9.6,14.2-13.4c-2.7-3-5.8-5.8-7.3-9.6c-2.5-6.9-1.6-14.5,1.7-21c-4-3.6-8.1-7.5-9.6-12.9
	c-4.7-13.9,1.4-30.4,13.8-38c7.2-4.5,16.4-4.3,24.2-1.5c1-1.9,3.4-4.2,1.5-6.3c-6.5-10.5-10.9-22-14.4-33.8
	c12,4.7,25.8,10.1,38.5,4.5c7.2-3.9,12.1-10.8,19-15.1c2.1-3.8,0.6-9,3.2-12.8C190.6,101.2,199.5,99.1,207,95.7L207,95.7z"/>
<path fill="#231F20" d="M399.8,65.9c65.1,0,129.9,14.5,189.5,40.3c4.2,2,9.4,3.3,11.8,7.6c0.8,3.9,0.3,7.9,0.4,11.9
	c10.9,4.5,17,16,28.3,19.8c8.1,3.1,17.1,1.9,25.3-0.2c-3.2,7.9-6.7,15.7-12.2,22.3c2.3,6.3,6.8,11.7,12.6,15.2
	c4.7-4.7,12.1-5.3,18-2.8c10.8,5.4,15.8,19.8,10.9,30.8c-1.7,4-5.5,6.5-9.4,8.1c0,3.5-0.4,6.9-0.4,10.4c8.5,11.8,14.6,26,14,40.8
	c0.1,10.9-5.6,21.8-14.8,27.7c-8.6-0.5-18.1,1.1-24.1,7.9c-2.8,2.8-3.9,7.9-8.5,8.2c-8.5,2.1-17.1-0.6-24.8-4.2
	c-1.6,4.9-4.4,9.4-8,13.1c2.5,2,5.6,3.9,6.3,7.3c1.8,8-3.1,15.1-7.3,21.4c-9.2,13.8-21.7,25.5-36,33.9
	c-16.8,9.8-35.2,16.4-54.1,20.7c1.9,4.8,5.2,8.7,7.6,13.2c5.6,9.8,10.2,20.6,10.1,32.1c-0.2,13.1-7.4,25.3-17.2,33.7
	c0.2-3.6,0.4-7.1,0.4-10.6c-5.4,4.4-9.2,10.3-14.2,15.1c-13.5,14.1-32.6,21.4-51.6,24.4c1.9-3.5,3.4-7.2,3.1-11.2
	c-6.9,4.4-10,12.5-16.1,17.7c-12.1,10.6-27.4,16.3-42.2,22.1c-14.9-5.3-30.1-11.2-42.3-21.6c-6.6-5.2-9.7-13.7-16.9-18.1
	c-0.2,4.1,1.3,7.9,3.5,11.3c-14.6-2.4-29.2-7.1-41.5-15.6c-9.9-6.2-16-16.5-24.7-24c0,3.7,0.3,7.4,0.5,11c-7.9-7.6-14.7-17-16.5-28
	c-2.1-10.6,1.2-21.2,5.6-30.8c1.8-3.2-0.8-6.6-1.4-9.9c-3.8,4.3-5.2,9.9-6.8,15.2c-6.2-10.4-9.4-22.5-9.1-34.7
	c-12.7-4.7-24.9-10.9-35.8-19c-11.7-8.6-21.4-19.8-28.9-32.1c-2.8-4.8-5.3-10.5-3.9-16.2c0.9-3.3,3.7-5.3,6.2-7.2
	c-3.7-3.8-6.6-8.4-8.1-13.5c-9.1,4.3-19.6,7.3-29.5,3.6c-2.9-6.2-8.1-11.6-14.8-13.6c-4.5-1.8-9.4-1.1-14.1-1.6
	c-6-3.5-12.6-8-14.1-15.3c-1-3.1,1.3-6,2.7-8.5c5.5-8.7,14.9-14,24.6-16.8c0-3.4,0-6.8-0.1-10.2c-2.3,0.7-4.6,1.6-6.6,3
	c-4.9-1.3-9.8-4.8-10.3-10.2c-1.4-7.4,3.4-13.7,7.3-19.5c-5.4-1.3-11-4.1-13.5-9.4c-5-10.7,0-24.9,10.4-30.4c6-3,13.8-2.2,18.8,2.5
	c5.6-4,9.9-9.5,12.7-15.8c-4.9-6.6-9.1-13.8-11.9-21.6c7.9,2.1,16.4,3.2,24.3,0.4c11.6-3.6,17.9-15.4,29-20.1
	c0.1-5.8-1.6-13.8,5.4-16.3C260.7,80.6,330.2,65.2,399.8,65.9L399.8,65.9z"/>
<path fill="#FFC424" d="M328,81.9c33-5.1,66.6-6.1,99.9-4.2c38.5,2.5,76.6,10.1,113.4,21.8c0.4,2.1,0.7,4.3,1,6.4
	c1.2-1.6,2.3-3.2,3.5-4.8c13.6,4.4,27,9.8,40.2,15.3c1.8,0.8,4.2,1.8,4.2,4.2c0.6,7,0,13.9,0.2,20.9c1.2-2.5,2.4-5,3.7-7.4
	c11.6,3.8,17.7,16,29,20.3c4.4,1.8,9.2,2.2,13.9,2.5c-6,4.3-12.9,8.1-20.5,8.4c-10.3,0.7-19.7-4.3-28.8-8.4
	c-28.5-12.7-58.3-22.6-88.8-29.4c-1-0.2-1.9-0.5-2.8-1c-0.6-3.2-0.9-6.4-1.4-9.6c-1.3,2.9-2.6,5.8-4,8.6
	c-76.5-15.1-156.9-11.8-231.4,11.3c-3.6,1.1-7.1,2.3-10.7,3.2c-0.6-0.9-1.6-2.8-2.2-3.7c-0.6,1.8-1.1,3.6-1.7,5.3
	c-16.1,5.3-31.7,11.9-47.2,18.9c-7.9,3.7-16.9,6-25.6,3.8c-5.6-1.2-10.6-4.1-15-7.5c7.5-0.3,15.3-2.1,21.3-7
	c7-5.1,12.3-13.1,21-15.4c2.4,1.5,2.8,4.7,4,7.1c0.5-7.9-1.3-16.2,1.3-23.9c37.7-16.2,77.2-28.7,117.8-34.9c1.8,2.5,3.6,5.1,5.6,7.5
	C327.9,87.6,328,84.7,328,81.9L328,81.9z"/>
<path fill="#FFC523" d="M345.1,91.5c4-0.5,8.4-1.5,12.2,0.6c3.8,2.3,3.7,8.2,1,11.4c-3.5,3.4-8.6,3.5-13.2,4.1
	C345.1,102.2,345.1,96.9,345.1,91.5L345.1,91.5z"/>
<path fill="#FFCC31" d="M305.7,101c1.5,2.2,3,4.4,4.6,6.5c-3,0.6-6.1,1.2-9.1,1.8C302.7,106.6,304.2,103.8,305.7,101L305.7,101z"/>
<path fill="#FFC324" d="M511.9,105.3c8-3.8,18.4,4,15.8,12.8c-1.6,4.9-8.3,3.5-11.8,1.5C510.6,117.1,509.3,110.3,511.9,105.3
	L511.9,105.3z"/>
<path fill="#FFC41E" d="M261.8,108.3c3-0.9,6.2-1.7,9.2-0.4c-1,4.4-5.2,6.1-9.3,6.7C261.8,112.5,261.8,110.4,261.8,108.3
	L261.8,108.3z"/>
<path fill="#FFC822" d="M222.5,122c2.2-0.8,4.4-1.5,6.6-2.2c3.3,4.8-3.2,7.2-6.6,8.7C222.5,126.4,222.5,124.2,222.5,122L222.5,122z"
	/>
<path fill="#FFFFFF" d="M383.1,127.1c6.6,0.2,13.2-0.2,19.8,0c-0.1,24,0,48,0,72c-0.2,3.4,1.2,7,4.4,8.5c3,1.6,6.7-0.5,7.8-3.5
	c1.7-4.4,1.6-9.1,1.7-13.7c0-21,0-42,0-63c6.6,0.2,13.1,1.1,19.7,1.2c-2.3,2.1-4.7,4.6-4.4,8c0,24.1,0,48.1,0,72.2
	c-0.1,3.3,2.3,5.8,4.3,8.1c-5.8-0.5-11.7-1.1-17.5-1.3c-0.3-1.7-0.7-3.4-1-5.1c-6.3,8.8-22.1,9.1-27.7-0.6c-2.2-4-2.5-8.8-2.7-13.3
	c0-20.4,0-40.8,0-61.3C387.7,131.9,385.4,129.3,383.1,127.1L383.1,127.1z"/>
<path fill="#FFFFFF" d="M340.4,130.2c9.1-0.4,18.1-1.8,27.1-2.2c-2.4,2.6-3.6,6.1-2.4,9.6c4.7,22.9,9.4,45.8,14.1,68.7
	c0.4,3.8,3.3,6.5,6.1,8.9c-8.1,0.3-16.2,0.4-24.2,1.4c1.8-2.2,3.7-4.8,2.9-7.9c-1.3-8.2-3.3-16.3-4.9-24.5c-9.3,4.1-16,12.6-19.4,22
	c-1.2,3.1-1.5,6.5-0.6,9.8c2.9-0.7,5.9-1.6,8.8-2.2c-6,6.6-15.2,10.5-24,8.3c-9.7-1.8-17-11-17.5-20.7c-0.3-4.6,0.3-10-3.2-13.6
	c-2.2-2.4-5.6-1.8-8.4-2.1c0,11-0.1,22,0,33.1c-0.2,2.9,2.1,5,3.7,7.2c-15.3,2.9-30.3,7.4-45.2,12.1c1.5-2.6,3.5-5.3,2.7-8.5
	c-1.3-7.4-3.2-14.7-4.4-22.1c-7.8,4.9-13.1,12.9-17,21.1c-2.1,4.6-3.7,9.6-2.8,14.7c2.4-0.6,4.8-1.4,7.1-2.2c-2,4-4.3,8.3-8.7,10.1
	c-7.6,3.3-17.3,2-22.8-4.6c-3.3,2.1-6.9,3.5-10.7,4.1c3.8-4.1,7.1-9.1,7-14.9c0.1-14.3,0.2-28.6,0-42.8c-1.7-3-4.9-4.9-7.1-7.6
	c-2.7,1.8-5.4,3.6-8.2,5.2c-0.1,22,0,44,0,66c-0.2,3.8,1.6,7.3,4.4,9.7c-8.9,0.8-13.2-8.5-20.9-10.7c1.9-3,3.1-6.5,3-10.1
	c0-16.2,0-32.5,0-48.7c-3.6-1.8-6.9-4.2-10.3-6.3c-2.5,1.8-6.2,3.7-5.5,7.3c0.1,25.2-0.1,50.5,0.1,75.7c6.3-0.1,12.2-2.4,17.4-5.8
	c-0.9,4.2-1.9,8.5-4.6,12c-3,4.4-7.8,6.9-12.3,9.4c-5.6-4.8-11.8-9.5-19.2-11.3c-8.2-2.3-18.4-1.2-24,5.8
	c-0.9-6.6,5.1-10.9,10.2-13.7c5.1-2.9,11.1-3.6,16.9-3c-0.2-9.1,0.1-18.3-0.1-27.4c-0.1-3.5-3-6.7-6.6-6.6
	c-4.1-0.4-7.5,2.3-10.9,4.2c0.9-8.4,9.5-14.2,17.7-13.3c-0.2-6.8-0.1-13.6-0.1-20.4c-7.6,2.4-16.8,3.9-23.7-1
	c-5.5-3.5-5-13.3,1.6-15.3c4-2.1,9.2,0.1,10.1,4.6c-1.4,2.3-3.4,4-5.8,5.3c2,1.8,4.6,3.4,7.3,2c12.4-4.6,21.2-15.9,25.9-28
	c5,5.8,11.6,9.8,18.5,13c8.1-3.9,15.8-9,21.6-15.9c3.7,8.9,12.1,15.8,21.7,17.3c-1.8,2.1-3.5,4.5-3.4,7.5c-0.1,11.4,0,22.8-0.1,34.2
	c-0.1,5.4,0.7,11.5,5.1,15c4.5-26.2,9.4-52.4,13.9-78.6c0.8-2.7-1-4.8-2.6-6.6c8.4-3.1,17-5.9,25.4-9c-1.6,3.4-3,7-1.8,10.8
	c4.5,21.9,9,43.7,13.7,65.6c0.5,3.1,2.9,5.1,5.4,6.6c1.8-3,3.8-6.1,3.4-9.8c0-23.7,0.1-47.5-0.1-71.2c0.4-3-2.1-4.8-4.1-6.5
	c9.1-2.3,18.3-5.2,27.7-6.1c6.6-0.7,14.1,1.3,17.6,7.3c6.5,11.9,2.9,30.2-10.9,35c5.5,1.8,10.3,6,11,12c1,7.7,0,17.4,7.6,22.1
	c5-24.9,9.9-49.9,14.7-74.8C344.1,135.6,342.7,132.4,340.4,130.2L340.4,130.2z"/>
<path fill="#FFC525" d="M222.4,131.4c3-0.8,8.8-4.4,10.1,0.3c-1.5,4.3-6.3,5.7-10,7.3C222.4,136.5,222.4,133.9,222.4,131.4
	L222.4,131.4z"/>
<path fill="#FEFFFF" d="M445.4,129.6c11.6,1.8,24.7,1.1,34.2,9.1c10,8.4,13.6,22,14.6,34.5c0.8,11.9,0.3,24.5-5.1,35.5
	c-3.3,6.9-10.3,12.5-18.3,12.1c-8.5-0.6-16.9-2.6-25.5-3c2.2-2.1,4.6-4.4,4.3-7.7c0-24.1,0-48.2,0-72.3
	C449.8,134.4,447.4,131.9,445.4,129.6L445.4,129.6z"/>
<path fill="#231F20" d="M465.1,140.1c5,2,8.8,6.2,10.7,11.3c4.2,11.3,4,23.6,3.7,35.4c-0.6,7.6-0.7,16.2-5.9,22.4
	c-2.1,2.6-5.6,2.9-8.7,2.9C465,188.1,464.7,164.1,465.1,140.1L465.1,140.1z"/>
<path fill="#FFFEFF" d="M502.6,139.2c12,3.1,23.9,6.5,35.8,10c1.2-0.5,2.5-1,3.7-1.6c2.5,10.2,5.6,20.3,8,30.5
	c-3.8-7.7-8.2-15.7-15.7-20.3c-3.9-2.1-8.3-3-12.5-4c0,9.7,0.1,19.5,0,29.2c6.3-2.4,13.9-3.3,19.9,0.5c5.2,2.9,8.9,9.7,6.1,15.4
	c-3.3,6.5-14.6,6.3-16.8-0.9c-1.9-3.6,1.2-6.9,4.5-7.8c-4.7-2.8-9.5,0.6-13.6,2.7c0,10,0.1,20.1-0.1,30.1c5.4,1.4,10.7,4.2,16.4,3.9
	c6.1-0.5,10.2-5.5,13.9-9.7c-2.7,7.3-5,14.8-7.4,22.2c-13.8-4.5-27.7-8.6-41.8-11.9c2-1.7,4.3-3.6,4.2-6.5c0.2-7.8,0-15.7,0.1-23.5
	c-3.3-1.2-6.4-3-9.1-5.2c3,0.1,6,0.3,9.1,0.2c0.1-14.6,0.1-29.1,0-43.7C507.3,145,504.9,141.9,502.6,139.2L502.6,139.2z"/>
<path fill="#231F20" d="M294.7,146.7c3.7-0.6,8.2-1.3,11.1,1.8c3.9,4.4,3.2,11,2.3,16.3c-1.2,6.8-6.6,12.3-13.3,13.8
	C294.7,167.9,294.8,157.3,294.7,146.7L294.7,146.7z"/>
<path fill="#211C1E" d="M343.6,185.9c2.2-13.2,5.6-26.1,7.3-39.4c2.9,9.7,4.2,19.8,6.6,29.6C352.3,178.4,347.8,182,343.6,185.9
	L343.6,185.9z"/>
<path fill="#FFFFFF" d="M554.3,154.6c12.3,5.4,26,8.6,36.2,17.7c8.8,7.6,12.1,20.4,9.1,31.5c-1.3,4.3-4.8,7.6-9,8.9
	c3.8,3.6,7.3,7.9,8.1,13.2c1.2,8.3-0.4,16.9,2.3,24.9c1.2,3.9,4.6,6.3,8,8.2c-1.1-6-2.8-12.2-1.6-18.4c1.3-6.6,7.4-11.9,14.2-11.9
	c10.1-0.3,20.4,4.4,26.4,12.6c2.9,4,4.8,9.2,3.4,14.1c-1.1,3.4-5.6,5.3-8.7,3.3c-4.9-2.6-8.7-8.9-6.5-14.4c0.9-0.4,2.6-1.2,3.5-1.5
	c-3.2-3-7.2-5.5-11.7-5.5c-3.2-0.2-7.1-0.3-9.2,2.7c-2.7,4.1-1.4,9.3,0.3,13.5c3.5,7.5,9.2,13.7,15.6,18.7
	c7.4-3.6,15.7-5.4,23.9-3.6c4.3-5.4,5.5-12.6,3.3-19.1c-3.9-12.1-12.7-22.6-23.7-28.8c-5.5-3.2-13.6-4.8-18.4,0.4
	c-0.2-3.9,1.4-7.3,2.9-10.8c-7.2-7-13.3-15.1-18.2-23.8c11.4-0.9,21.9-7,29.4-15.3c5.6,9.4,13.2,17.8,22.3,23.9
	c3,2,7.2,3.9,10.4,1.4c-1.8-2.7-6.6-4.3-5-8.5c4.4-6.4,14.8-0.6,14.7,6.1c0.1,5.7-5.5,9.6-10.8,9.9c-11.5,0.6-21.8-6.3-29.1-14.6
	c-3.4,2.8-7.3,5-11.3,6.9c6.7,7,13.2,15.2,22.8,18.2c4.8,1.4,10.8,2.6,14.6-1.6c2.6,4.3,0.9,10-3.8,11.8
	c11.3,10.3,20.3,24.7,19.6,40.5c0.3,6.6-1.2,13.3-5.2,18.6c-4.3-5.7-12.2-6.7-18.8-5.9c-7.9,1.3-14.2,6.9-19.2,12.8
	c-10.4-6-19.2-15-23.9-26.2c-7.4-0.9-15-3.8-19.5-10c-5.2-6.7-7.5-15.2-7.5-23.6c0-4.8-0.2-9.9-2.8-14c-1.9-3-5.3-4.6-8.3-6.2
	c-0.2,10-0.1,20-0.1,30c-0.3,4.2,1.9,7.8,4,11.3c-7.5-3.3-15-6.4-22.8-8.9c0.8-0.5,2.3-1.4,3.1-1.9c0.8-2.1,1.4-4.3,1.3-6.5
	c-0.1-23.3,0-46.6,0-69.9C558.7,160.9,556.4,157.6,554.3,154.6L554.3,154.6z"/>
<path fill="#211D1E" d="M236.2,212.4c2.9-13.9,4.6-28.1,8-41.9c1.4,9.6,3.7,19.2,5.7,28.7C244.6,202.8,240.2,207.5,236.2,212.4
	L236.2,212.4z"/>
<path fill="#231F20" d="M573.1,170.4c5.3,2.1,10.4,5.8,12.2,11.5c1.8,5.9,2.4,13.2-1.9,18.2c-2.6,2.9-6.6,3.3-10.3,3.5
	C573,192.6,573.1,181.5,573.1,170.4L573.1,170.4z"/>
<path fill="#FFC423" d="M192.7,276.1c48.7-23.8,101.2-40.3,155.1-46.8c0,0.1,0.1,0.4,0.2,0.6c-6.1,2.5-11,7.8-17.7,8.6
	c-14.2,2.4-28.3,5.5-42.2,9.3c5.4,2.9,11.3,7,12.1,13.7c1.7,9-6.6,17.2-15.4,16.9c-4.5,0.7-9.5-2.3-10.2-7c-0.4-4.8,5.7-8.4,9.7-5.6
	c2.6,1.3,2.6,4.4,3.2,6.8c3.4-2.8,6.4-7.4,4.2-11.8c-3.5-7.9-14.2-10.3-21.5-6.3c-9.1,4.5-12,15.1-14.4,24.2
	c-2.9,10-6.2,20.7-14.4,27.6c-8.7,7.1-21.3,9.7-32,6c-7.6-2.9-14.4-9.1-16.7-17c-1.2-3.9-0.6-8-0.1-11.9c-4.7,2.5-9.4,4.8-14.1,7.2
	c1.9-3.2,3.5-6.7,5.9-9.5C186.7,278.8,189.8,277.6,192.7,276.1L192.7,276.1z"/>
<path fill="#FFC423" d="M445.2,229.3c55.9,6.4,110.3,24,160.5,49.1c5.1,2.1,7.2,7.6,9.7,12.1c-4.6-2.4-9.3-4.9-14-7.1
	c2.3,8.3-0.8,17.4-7.3,22.9c-13.8,13.3-39.2,8.1-48.3-8.2c-4.6-7.9-6.9-16.8-9.3-25.5c-2.4-7.8-6.5-16.4-14.9-19.1
	c-7.1-2.8-16.4,0.1-19.5,7.3c-1.6,4.5,0.8,9,4.2,11.8c-0.1-3.6,2-7.8,6.1-7.9c4.7-0.5,8.9,5.8,5.6,9.6c-3.8,5.8-12.2,4.6-17.5,1.6
	c-6.6-3.6-9.2-12.9-5.3-19.4c1.9-4.1,6.1-6,9.6-8.4c0-0.2-0.1-0.5-0.1-0.6c-13.3-3.9-27-6.7-40.7-9
	C456.9,237.8,451.6,232.3,445.2,229.3L445.2,229.3z"/>
<path fill="#FFFEFF" d="M349.2,243.9c11.7-6.8,25-10.4,38.4-11.3c11.8-0.5,23.9-0.4,35.4,2.6c13,3.2,24.9,9.6,35.2,18
	c12.3,10.1,23.1,21.8,34.8,32.6c24.4,21.8,55.1,35.9,87,42.3c6.8,1.5,14,2,20.4,5.1c0,6.8-5.1,11.9-8.1,17.5
	c0.9-3.1,2.5-6.4,1.7-9.8c-3.8-3.2-8.9-3.6-13.6-4.5c-34.4-5.8-67.6-20.8-93-44.9c-15.6-13.9-29.2-30.7-48.1-40.3
	c-15.4-7.9-33.1-10.4-50.2-9.1c-12.7,0.6-25.3,4-36.5,10.1c-13.9,7.5-25,18.9-36.1,29.9c-7.5,6.8-14.6,14.1-22.7,20.2
	c-24,18.5-52.9,29.8-82.7,34.5c-4.1,0.6-8,1.9-11.6,4c0,3.1,0.7,6,1.6,9c-3.4-5-7.1-10.1-8.1-16.2c4.1-2.3,8.6-3.3,13.2-4
	c31.4-5.2,62-17.5,87-37.4C312.6,276.8,327.6,256.3,349.2,243.9L349.2,243.9z"/>
<path fill="#231F20" d="M222,270.3c12-5.1,24.3-9.6,36.7-13.7c-2.3,3.8-4.6,7.6-6.1,11.9c-3.2,8.6-4.3,18.2-9.6,25.9
	c-4.5,7.3-13.4,11.1-21.8,10.8c-5,0-10.5-1.4-13.7-5.5c-4.2-4.8-6.2-12.8-2.1-18.3c1.5-2.3,4.2-3.2,6.6-4.2c0.8,3.5,1.6,7.9,5.6,9.1
	c5.6,2.6,12.6-2.8,11.3-8.9C228.3,273.6,224.9,271.8,222,270.3L222,270.3z"/>
<path fill="#231F20" d="M535.5,256.7c12.2,4.1,24.2,8.7,36.2,13.5c-3.3,1.8-7.1,4.2-6.9,8.4c-0.3,6.1,7.1,10.4,12.3,7.2
	c3.4-1.5,3.8-5.5,4.7-8.6c3.3,1.2,6.7,3,8,6.6c2.8,8-2,18.2-10.3,20.5c-10,2.9-22.3-0.1-28.3-9.1c-6.8-9.5-7-21.7-12.4-31.8
	C537.8,261,536.6,258.9,535.5,256.7L535.5,256.7z"/>
<path fill="#EE3A43" d="M329,324.1c42.2-17.9,91.5-17.9,133.9-0.8c3.1,1.2,5.2,4,7.4,6.3c-7.6-2-15.1-4.2-22.9-5
	c9.7,3.7,19.5,7.5,28.9,12c1.3,2.2,2.6,4.5,4,6.7c-15.9-5.7-32-11-48.7-13.4c-39.5-6.7-80.5-1.3-117.6,13.3c1.2-2.9,2.5-6.2,5.6-7.6
	c8.5-4.2,17.5-7.4,26.4-10.9c-7.6,0.6-14.9,3-22.2,4.9C325.4,327.6,326.7,325.3,329,324.1L329,324.1z"/>
<path fill="#EDC088" d="M357.1,339.3c25.3-5.4,51.5-4.7,77.1-1.4c-26.2,0.5-52.3,3-78.1,7.7c1.1-2.2,2.2-4.4,3.4-6.6
	C358.8,339,357.6,339.2,357.1,339.3L357.1,339.3z"/>
<path fill="#FDFEFE" d="M328.9,352.1c7.2-7.9,18.1-10.6,28.1-12.8c0.6-0.1,1.8-0.3,2.4-0.4c-1.1,2.2-2.3,4.4-3.4,6.6l-0.1,0.2
	C346.9,347.6,338,350.1,328.9,352.1L328.9,352.1z"/>
<path fill="#F13B41" d="M298,343.4c2.6-2.7,6.5-3,10-3.1c-1.8,2.5-5,4.8-4.1,8.3c1.1,3.3,5,4.1,7.6,5.8c-3,3-7.1,6.6-11.7,4.9
	C293.4,357,293.4,347.6,298,343.4L298,343.4z"/>
<path fill="#E7BB85" d="M396.9,346.7c10.6-1.1,21.3-1.9,32-2.1c-5,6-13.3,6.3-20.4,7.8c-3.2,0.6-4.9,4-4.7,7
	c0.3,7.9,2.7,15.6,4.1,23.3c1.4-4.3,3.4-8.3,6.3-11.7c2.4,6.2,5.7,12.5,5.6,19.3c-3.2,2.9-8.3,2.4-12.4,3.3c-0.4,1.5-0.8,3-1.2,4.5
	c-4.4,1.8-9.3,1.2-13.9,1.2c-2,0.1-3.9-0.6-5.5-1.7c3.2-1.4,6.5-2.6,9.8-3.7C397.2,378.1,396.7,362.4,396.9,346.7L396.9,346.7z"/>
<path fill="#FFFEFF" d="M444.5,346.8c3.6-1.1,7.3-1.4,11-1.4c0.6,3.2,1,6.9-1.2,9.7c-5.7,7.5-15.8,11.1-25.1,9.7
	c-4.3-0.7-7.6-3.8-9.5-7.5c3.6-0.6,7-1.5,10.4-2.9c2,5.1,8.5,7.5,13.1,4.3c2.7-1.5,3.5-4.6,4-7.3c-2.1-0.2-5.9,1.6-6.3-1.6
	C440.6,347.6,443.2,347.6,444.5,346.8L444.5,346.8z"/>
<path fill="#FEFEFF" d="M385.3,382.8c2.9-11.9,4.8-24,7.6-35.9c1-0.1,3-0.2,4-0.3c-0.2,15.7,0.2,31.4-0.2,47.2
	c-3.3,1.1-6.6,2.3-9.8,3.7c-0.4-1.4-0.8-2.8-1.2-4.2c-4-0.8-8.7-0.4-11.9-3.2c0.1-6.7,3.2-12.8,5.5-18.9
	C382.3,374.6,384.2,378.6,385.3,382.8L385.3,382.8z"/>
<path fill="#EF3942" d="M266,375c5.6-7.9,13.5-14.3,22.4-18.2c-1.7,3.9-4,7.5-6.1,11.2c4.5-1.8,8.2-5,11.9-8.1
	c-3.1,8.9-9.6,15.9-16.9,21.6c-7.7,6.1-16.1,12.6-18.8,22.6C256.4,393.8,260.4,383.4,266,375L266,375z"/>
<path fill="#E7BB83" d="M457.9,367.4c4.1-2.7,6.7-6.9,8.5-11.4c3.5,8.7,10.6,16,11.5,25.6c0.7,5.4-3.6,9.5-8.2,11.3
	c-1.9-2.1-4-4.2-6-6.3c2.4,0.3,4.8,0.6,7.2,0.9c-3.8-3.4-8.3-6.8-13.6-7c-9.3-0.5-18.2,3-27.1,5.5c-1.7-5.8-4.5-11.3-8-16.2
	C433.5,375.1,447.5,374.2,457.9,367.4L457.9,367.4z"/>
<path fill="#FEFEFE" d="M315.9,380.1c1.3-6.8,5.3-12.6,8.8-18.5c2.4,3.2,5.1,6.2,8.1,8.9c-1.9,3.6-5.4,7.3-3.9,11.6
	c-2.2,1.8-4.5,3.5-6.7,5.4c2.6-0.3,5.1-0.6,7.7-1c-2,2-3.6,4.6-6.2,5.9C318.3,391.3,314.8,385.4,315.9,380.1L315.9,380.1z"/>
<path fill="#ECBC82" d="M358.1,377.1c5.8-1.8,10.7-5.7,14.8-10.1c-3.6,6.1-7.4,12.1-9.4,18.9c-11.1-3.3-23-8.1-34.5-3.9
	c-1.5-4.3,2-8,3.9-11.6C340,375.8,349.1,379.2,358.1,377.1L358.1,377.1z"/>
<path fill="#F23A41" d="M287.1,383.8c4.3-4.8,8.5-9.6,12.3-14.8c-0.5,8-6.2,14.2-9.5,21.2c-6,11.7-11.1,25.2-7.4,38.4
	c-7.6-4.6-9.7-14.3-9.6-22.6c-0.2-3.6,1-6.9,2.4-10.1c1.1,2.2,2.6,4.2,4.2,6.2C280.7,395.5,282.5,388.8,287.1,383.8L287.1,383.8z"/>
<path fill="#FFC521" d="M493.4,387.4c6.5,5.1,10.2,14,8.2,22.2c-0.7,2.6-3,4.1-4.8,5.9c-12.3-0.5-18.6-16.2-14.2-26.5
	c1.3,1.1,4,0.8,4.2,3c1.5,7.2,3.7,16.4,11.8,18.6c-0.4-0.4-1.1-1.3-1.4-1.7c0.2-3.2,0.6-6.5-0.5-9.6
	C495.5,395.3,492.4,391.8,493.4,387.4L493.4,387.4z"/>
<path fill="#FFFFFF" d="M344.8,414.4c-3.4-5.3,3.1-14.9,9.7-11.6c16.1,5.8,33.3,6.4,50.2,5.8c9-0.7,18.2-1,26.9-3.5
	c3.8-1.2,7.7-2.3,11.6-3.4c2.4,1.3,4.7,3,6.2,5.4c0.2,2.5,0.2,5,0.2,7.6c-9.2-0.6-18.5-2-27.7-1.5c3.7,1,7.4,1.8,11.2,2.5
	c6.9,1.3,14,2.9,20.4,5.9c-2.6,3.8-5.7,7.3-9.3,10.3c-29.3-14.4-65.3-14.3-94.6,0c-3.4-3.2-6.6-6.5-9.2-10.3
	c9.8-4.4,20.5-6.3,31.1-7.8c-4.1-1.9-8.8-0.2-13.1-0.2C353.7,413.7,349.2,414.9,344.8,414.4L344.8,414.4z"/>
<path fill="#3A3839" d="M449.4,407.2c1,2.7,0.9,5.6,0.5,8.5c-5.6,0.3-11.7-3.3-16.8,0c-3.8-0.7-7.5-1.5-11.2-2.5
	c9.3-0.5,18.5,0.9,27.7,1.5C449.6,412.2,449.6,409.7,449.4,407.2L449.4,407.2z"/>
<path fill="#FEFEFF" d="M323.5,448.7c-3.1-10.1,1.5-20.4,5.4-29.5c2.4,4,5.4,7.5,8.8,10.7c-2.5,8.7-3.2,17.9-1,26.8
	c1.1,0.5,2.2,1,3.3,1.5C333.4,457.9,325.9,455.4,323.5,448.7L323.5,448.7z"/>
<path fill="#E6BA83" d="M451.6,433.2c5.6-3.7,10.1-8.8,13.7-14.4c3.7,8.6,7.6,17.9,6.2,27.5c-0.9,5.8-6,10.1-11.6,11
	c-11.5,2.2-22.9,5-34.4,7.2c-1.3-3.6-2.8-7.1-4.3-10.6c7.8,1.1,16.2,2.6,23.7-0.6c3.1-1.2,4.9-4.1,6.7-6.8c-5.3,1.1-10.8,2.4-16,0.5
	c-25-7.9-52.4-7.8-77.4,0.1c-5.2,1.8-10.7,0.3-15.9-0.6c2.3,3.6,5.4,7,9.8,7.8c6.8,1.9,13.9,0.4,20.7-0.4c-1.5,3.5-2.9,7-4.3,10.5
	c-9.5-2.2-19.1-3.7-28.4-6.4c-1.1-0.5-2.2-1-3.3-1.5c-2.1-8.8-1.5-18.1,1-26.8c3.9,2.6,8,5.4,8.9,10.3c31.4-14.5,69.2-14.4,100.6,0
	C448.3,437.6,449,434.7,451.6,433.2L451.6,433.2z"/>
<g>
	<path fill="#FFC424" stroke="#FFC424" stroke-width="2" d="M360.5,295.9c0,0,15.4-0.3,17-0.8c1.6-0.5,3.4-1.5,6.7-4.7l34.4-34.4
		l1.8,1.8l-41.5,41.5c0,0-1.2,1-7,1.3l-11.2,0.2V295.9z"/>
	<path fill="#FFC424" stroke="#FFC424" stroke-width="2" d="M428.6,295.9c0,0-15.4-0.3-17-0.8c-1.6-0.5-3.4-1.5-6.7-4.7L370.6,256
		l-1.8,1.8l41.5,41.5c0,0,1.2,1,7,1.3l11.2,0.2V295.9z"/>
</g>
<g>
	<path stroke="#000000" stroke-miterlimit="10" d="M240.2,135.5c0.3-0.1,0.5-0.2,0.6-0.4s0.2-0.5,0.1-0.7l-6.7-22.2
		c-0.1-0.3-0.2-0.5-0.5-0.5c-0.2-0.1-0.5,0-0.7,0l-0.3-0.9l9-2.7l0.3,0.9c-0.2,0-0.3,0.1-0.5,0.3c-0.1,0.2-0.2,0.3-0.1,0.5
		c0,0.2,0.2,0.4,0.4,0.6c0.2,0.2,0.4,0.5,0.7,0.7l10.7,10.6l3.1-14.6c0.1-0.5,0.2-0.9,0.2-1.2c0-0.3,0-0.5,0-0.7
		c-0.1-0.4-0.4-0.5-0.8-0.3l-0.3-0.9l8.9-2.7l0.3,0.9c-0.3,0.1-0.5,0.2-0.6,0.4c-0.2,0.2-0.2,0.4-0.1,0.7l6.7,22.2
		c0.1,0.3,0.3,0.5,0.5,0.6c0.2,0.1,0.5,0.1,0.7,0l0.3,0.9l-7.5,2.3l-0.3-0.9c0.9-0.3,1.2-0.7,1-1.3l-4.9-16.2l-0.1,0l-4.3,20.9
		l-0.1,0L241,116.6l-0.1,0l4.9,16.2c0.2,0.6,0.7,0.7,1.6,0.5l0.3,0.9l-7.2,2.2L240.2,135.5z"/>
	<path stroke="#000000" stroke-miterlimit="10" d="M295.7,105c0-0.1,0-0.1-0.1-0.2c0-0.1-0.1-0.1-0.1-0.2c0-0.2-0.3-0.4-0.6-0.6
		c-0.4-0.2-0.9-0.4-1.6-0.5c-0.7-0.1-1.4-0.2-2.3-0.2c-0.9,0-1.8,0.1-2.8,0.3c-1.2,0.3-2.2,0.7-3.1,1.2c-0.9,0.5-1.6,1.2-2.2,2
		c-0.6,0.8-1,1.7-1.1,2.7c-0.2,1-0.1,2.1,0.1,3.3c0.3,1.2,0.7,2.2,1.4,3.1c0.7,0.8,1.4,1.5,2.3,2c0.9,0.5,1.8,0.8,2.8,1
		c1,0.1,2,0.1,2.9-0.1c0.9-0.2,1.8-0.5,2.6-1c0.9-0.4,1.6-0.9,2.3-1.4c0.7-0.5,1.2-1,1.6-1.4c0.4-0.5,0.6-0.9,0.5-1.2l-0.1-0.4
		c0-0.2-0.1-0.4-0.2-0.5l0.4-0.6l4.8,4.4l-0.4,0.4c-0.4-0.1-0.7-0.1-0.9-0.1c-0.3,0.1-0.7,0.3-1.2,0.7c-0.5,0.4-1.2,0.9-2,1.5
		c-0.8,0.6-1.8,1.1-2.9,1.7c-1.1,0.5-2.4,1-3.9,1.3c-1.5,0.3-3,0.5-4.6,0.4c-1.6-0.1-3-0.5-4.4-1.2c-1.4-0.7-2.6-1.6-3.6-2.9
		c-1-1.2-1.8-2.8-2.2-4.6c-0.4-1.9-0.4-3.6,0-5.1c0.4-1.6,1.1-2.9,2-4.1c1-1.2,2.1-2.2,3.6-3c1.4-0.8,2.9-1.4,4.5-1.8
		c1.2-0.3,2.4-0.4,3.5-0.4c1.1,0,2,0.1,2.9,0.2c0.9,0.1,1.6,0.2,2.1,0.3c0.6,0.1,1,0.1,1.2,0.1c0.2,0,0.3-0.1,0.4-0.2
		c0.1-0.1,0.2-0.2,0.3-0.3l0.7,0.2l-2.2,5.5L295.7,105z"/>
	<path stroke="#000000" stroke-miterlimit="10" d="M338.6,109.9c-0.1,0-0.2,0-0.3,0c-0.1,0-0.2,0-0.3,0c-0.2,0-0.6,0.3-1.3,0.8
		c-0.7,0.5-1.5,1.1-2.6,1.8c-1.1,0.7-2.3,1.3-3.7,1.9c-1.4,0.6-2.9,1-4.5,1.3c-2.1,0.3-4.1,0.4-6.1,0.2c-2-0.2-3.8-0.8-5.5-1.7
		c-1.7-0.9-3-2.1-4.2-3.6c-1.1-1.5-1.9-3.4-2.2-5.7c-0.4-2.2-0.2-4.2,0.3-6.1c0.6-1.8,1.5-3.4,2.8-4.8c1.3-1.4,2.8-2.5,4.7-3.4
		c1.8-0.9,3.8-1.5,5.9-1.8c1.7-0.3,3.2-0.4,4.6-0.3c1.4,0,2.7,0.1,3.7,0.3c1.1,0.1,1.9,0.3,2.6,0.5c0.6,0.2,1,0.2,1.2,0.2
		c0.2,0,0.3-0.1,0.4-0.3c0.1-0.2,0.2-0.3,0.2-0.4l0.8,0.5l-2.9,6.7l-0.6-0.3c0-0.1,0-0.2-0.1-0.3c0-0.1-0.1-0.2-0.1-0.3
		c-0.1-0.4-0.5-0.7-1.2-1c-0.7-0.3-1.4-0.5-2.4-0.7s-1.9-0.3-2.9-0.3c-1,0-1.9,0-2.8,0.1c-1.4,0.2-2.7,0.6-3.9,1.2
		c-1.2,0.6-2.2,1.4-3,2.3c-0.8,0.9-1.4,2-1.8,3.2c-0.4,1.2-0.5,2.5-0.2,4c0.2,1.4,0.7,2.7,1.5,3.7c0.7,1,1.6,1.9,2.7,2.5
		c1.1,0.6,2.3,1,3.6,1.2s2.7,0.2,4.1,0c1.1-0.2,2.1-0.5,3.3-0.9c1.1-0.4,2.1-0.9,3-1.5c0.9-0.5,1.6-1.1,2.2-1.7
		c0.6-0.6,0.8-1.1,0.7-1.5c0-0.2-0.1-0.4-0.3-0.6l0.6-0.5l4.1,4.8L338.6,109.9z"/>
	<path stroke="#000000" stroke-miterlimit="10" d="M362.4,84c1.8-0.2,3.7,0,5.7,0.4c1.9,0.4,3.8,1.1,5.4,2.1c1.7,1,3.1,2.3,4.2,3.9
		c1.1,1.6,1.8,3.6,2,5.9c0.2,2.3-0.1,4.4-1,6.2c-0.9,1.8-2,3.3-3.5,4.6s-3.1,2.2-5,2.9c-1.9,0.7-3.7,1.1-5.5,1.2
		c-1.8,0.2-3.7,0.1-5.7-0.3c-1.9-0.4-3.7-1-5.4-2c-1.7-1-3.1-2.3-4.2-3.9c-1.1-1.6-1.8-3.6-2-5.9c-0.2-2.3,0.1-4.4,1-6.2
		c0.9-1.8,2-3.3,3.5-4.6c1.5-1.2,3.1-2.2,5-2.9C358.7,84.6,360.5,84.1,362.4,84z M362.7,88.7c-1.3,0.1-2.5,0.4-3.8,0.9
		c-1.2,0.5-2.3,1.2-3.3,2c-1,0.8-1.7,1.9-2.2,3c-0.5,1.2-0.8,2.5-0.6,3.9s0.5,2.7,1.3,3.7c0.7,1.1,1.6,1.9,2.7,2.6
		c1.1,0.7,2.3,1.2,3.6,1.5c1.3,0.3,2.6,0.4,3.9,0.3c1.3-0.1,2.5-0.4,3.8-0.9c1.2-0.5,2.3-1.2,3.3-2c1-0.8,1.7-1.9,2.2-3
		c0.5-1.2,0.8-2.5,0.6-3.9s-0.5-2.7-1.3-3.7s-1.6-1.9-2.7-2.6c-1.1-0.7-2.3-1.2-3.6-1.5C365.3,88.7,364,88.6,362.7,88.7z"/>
	<path stroke="#000000" stroke-miterlimit="10" d="M414.8,110.3c0-0.5-0.2-0.8-0.5-0.9c-0.3-0.1-0.7-0.1-1.2-0.1l-23.9,0.1l0-0.9
		c1,0,1.5-0.3,1.5-0.9l-0.1-23.1c0-0.6-0.5-0.9-1.5-0.9l0-0.9l8.6,0l0,0.9c-0.9,0-1.4,0.3-1.4,0.9l0.1,20.3l16.7-0.1
		c0.5,0,0.9-0.1,1.2-0.4c0.3-0.2,0.5-0.6,0.5-1l0.9,0l0,7L414.8,110.3z"/>
	<path stroke="#000000" stroke-miterlimit="10" d="M448.2,92.8l-1-0.4c0.1-0.2,0.1-0.4,0.1-0.6c0-0.5-0.2-1-0.8-1.4
		c-0.6-0.5-1.3-0.9-2.3-1.2c-0.9-0.4-1.9-0.6-3.1-0.9c-1.1-0.2-2.2-0.4-3.2-0.4c-1.2-0.1-2.5,0-3.7,0.3c-1.2,0.3-2.4,0.7-3.4,1.4
		c-1,0.7-1.8,1.6-2.5,2.7c-0.7,1.1-1.1,2.6-1.2,4.3c-0.1,1.7,0.1,3.1,0.6,4.4c0.5,1.2,1.2,2.3,2.1,3.1c0.9,0.8,1.9,1.4,3.1,1.9
		c1.2,0.4,2.4,0.7,3.6,0.8c1.9,0.1,3.6,0.1,5.2-0.1c1.5-0.2,2.9-0.5,4-0.8l0.3-4.4l-6.4-0.5c-0.5,0-0.8,0-1.1,0.2
		c-0.2,0.2-0.4,0.6-0.5,1.3l-0.9-0.1l0.5-6.5l0.9,0.1c0,0.6,0.1,1,0.4,1.1c0.2,0.2,0.6,0.3,1,0.3l12.5,0.9l-0.1,0.9
		c-0.7,0.1-1.1,0.1-1.3,0.3c-0.2,0.1-0.3,0.4-0.3,0.8l-0.4,5.7c0,0.3,0.1,0.6,0.3,0.7c0.2,0.1,0.4,0.3,0.7,0.4l-0.1,0.8
		c-1.2,0.7-2.4,1.3-3.6,1.7c-1.3,0.4-2.5,0.7-3.8,0.9c-1.3,0.2-2.5,0.3-3.8,0.3c-1.3,0-2.5-0.1-3.7-0.2c-2.3-0.2-4.4-0.6-6.3-1.4
		c-1.9-0.7-3.5-1.7-4.7-3c-1.3-1.3-2.2-2.8-2.9-4.5s-0.9-3.7-0.7-5.8c0.2-2.1,0.7-4,1.6-5.6c0.9-1.6,2-3,3.5-4.1
		c1.5-1.1,3.2-1.9,5.1-2.3c2-0.5,4.1-0.6,6.5-0.5c1.5,0.1,2.9,0.3,4.2,0.6c1.3,0.3,2.5,0.6,3.5,1c1,0.3,1.9,0.6,2.5,0.9
		c0.7,0.3,1.1,0.4,1.3,0.4c0.3,0,0.5,0,0.7-0.2c0.2-0.1,0.4-0.2,0.5-0.3l0.6,0.4L448.2,92.8z"/>
	<path stroke="#000000" stroke-miterlimit="10" d="M457.7,111.4c0.4,0,0.8-0.2,1.1-0.5c0.3-0.3,0.6-0.7,0.9-1.1l12.4-18
		c0.3-0.4,0.6-0.8,0.8-1.1c0.2-0.3,0.4-0.6,0.4-0.9c0.1-0.3,0-0.6-0.2-0.8c-0.2-0.2-0.4-0.3-0.7-0.4l0.1-0.9l8.4,1.4l-0.1,0.9
		c-0.2,0-0.5,0.1-0.7,0.2c-0.3,0.1-0.4,0.3-0.5,0.7c0,0.3,0,0.5,0,0.8c0.1,0.3,0.2,0.7,0.3,1.1l6.9,22.1c0.1,0.4,0.3,0.7,0.5,0.9
		c0.3,0.2,0.5,0.4,0.9,0.7l-0.1,0.9l-8.7-1.4l0.1-0.9c0.1,0,0.3,0,0.5-0.1c0.2-0.1,0.3-0.2,0.4-0.4c0.1-0.3,0-0.8-0.2-1.4l-1.3-4
		l-12.1-2l-2.4,3.3c-0.4,0.6-0.7,1.1-0.7,1.4c-0.1,0.4,0.2,0.6,0.8,0.7l-0.1,0.9l-7-1.2L457.7,111.4z M477.9,105.2l-2.6-10l-6.2,8.6
		L477.9,105.2z"/>
	<path stroke="#000000" stroke-miterlimit="10" d="M496,118.1c0.6,0.2,1,0,1.2-0.6l6-22.3c0.2-0.6-0.1-1-0.7-1.1l0.2-0.9l8.3,2.2
		l-0.2,0.9c-0.3-0.1-0.4,0.1-0.5,0.4c-0.1,0.3,0.1,0.8,0.6,1.6l10,18.4L525,101c0.2-0.6-0.2-1-1-1.2l0.2-0.9l7.3,2l-0.2,0.9
		c-0.6-0.2-1,0-1.2,0.6l-6,22.3c-0.2,0.6,0.1,1,0.7,1.1l-0.2,0.9l-7.9-2.1l0.2-0.9c0.4,0.1,0.7,0,0.8-0.3c0.1-0.2-0.1-0.7-0.5-1.3
		l-10.6-19.6l-4.4,16.3c-0.2,0.6,0.1,1,0.9,1.2l-0.2,0.9l-7.2-1.9L496,118.1z"/>
	<path stroke="#000000" stroke-miterlimit="10" d="M539.6,123l0.4,0.4c-0.1,0.3-0.1,0.6-0.1,0.8c0.1,0.5,0.4,1,0.9,1.6
		c0.5,0.6,1.1,1.2,1.8,1.8c0.7,0.6,1.5,1.2,2.3,1.7c0.8,0.5,1.6,0.9,2.3,1.2c0.5,0.2,1.2,0.4,2.1,0.7c0.9,0.2,1.8,0.4,2.7,0.5
		c0.9,0.1,1.7,0,2.5-0.2c0.8-0.2,1.3-0.7,1.6-1.4c0.3-0.7,0.2-1.4-0.2-1.9c-0.4-0.6-1-1.1-1.9-1.6c-0.8-0.5-1.8-1-2.9-1.5
		c-1.1-0.5-2.3-1-3.4-1.5c-1.2-0.5-2.3-1.2-3.3-1.8c-1.1-0.7-1.9-1.4-2.6-2.3c-0.7-0.9-1.1-1.9-1.3-3c-0.2-1.1,0-2.4,0.5-3.9
		c0.4-1,1-1.9,1.8-2.6c0.8-0.8,1.8-1.4,3-1.7c1.2-0.4,2.6-0.5,4.2-0.4c1.6,0.1,3.4,0.5,5.3,1.2c1.7,0.6,3,1.3,4.2,2
		c1.1,0.7,2.1,1.4,2.9,2c0.8,0.6,1.4,1.2,1.9,1.7c0.5,0.5,1,0.8,1.4,1c0.4,0.2,0.8,0.2,1,0.1l0.4,0.6l-5.5,4.7l-0.4-0.4
		c0.1-0.5,0.1-0.9,0-1.2c-0.1-0.5-0.4-1-0.8-1.6c-0.4-0.6-1-1.2-1.7-1.8c-0.7-0.6-1.4-1.1-2.3-1.7c-0.8-0.5-1.7-1-2.6-1.3
		c-0.7-0.3-1.4-0.5-2.2-0.6c-0.8-0.2-1.5-0.3-2.2-0.3c-0.7,0-1.3,0.1-1.8,0.3c-0.5,0.2-0.9,0.6-1.1,1.1c-0.3,0.8-0.2,1.4,0.2,2
		s1,1.1,1.8,1.7c0.8,0.5,1.8,1,2.9,1.5s2.3,1,3.4,1.6c1.2,0.5,2.3,1.2,3.3,1.8c1,0.7,1.9,1.4,2.6,2.3s1.1,1.8,1.3,2.9
		c0.2,1.1,0,2.4-0.5,3.8c-0.6,1.6-1.6,2.8-2.8,3.6c-1.3,0.7-2.6,1.1-4.2,1.2c-1.5,0.1-3.1,0-4.6-0.4c-1.6-0.4-3-0.8-4.3-1.3
		c-1.8-0.7-3.2-1.4-4.4-2s-2-1.3-2.7-1.9c-0.7-0.6-1.2-1.1-1.6-1.5c-0.4-0.4-0.7-0.7-1.1-0.8c-0.2-0.1-0.5,0-0.8,0.1l-0.5-0.6
		L539.6,123z"/>
</g>
</svg>
