<?xml version="1.0" encoding="utf-8"?>
<!-- Generator: Adobe Illustrator 18.1.1, SVG Export Plug-In . SVG Version: 6.00 Build 0)  -->
<svg version="1.1" xmlns="http://www.w3.org/2000/svg" xmlns:xlink="http://www.w3.org/1999/xlink" x="0px" y="0px"
	 viewBox="0 0 792 612" enable-background="new 0 0 792 612" xml:space="preserve">
<g id="GUIDES">
</g>
<g id="original_photo" display="none">
</g>
<g id="WHITE_BOLOCK_OUT_DELETE_AFTER" display="none">
	<rect x="1224" y="1226.5" display="inline" fill="#FFFFFF" width="919.5" height="165"/>
</g>
<g id="green_circle">
</g>
<g id="blue_box_border">
</g>
<g id="yellow_cirlce">
</g>
<g id="grey_main">
</g>
<g id="black_outlines">
</g>
<g id="hockey_puck_2">
</g>
<g id="top_of_horn">
</g>
<g id="hockey_puck_lines">
</g>
<g id="hockey_puck_tear">
</g>
<g id="Layer_15">
</g>
<g id="red_x">
</g>
<g id="grey_tops">
</g>
<g id="white_tops">
</g>
<g id="behind_rhinos">
</g>
<g id="behind_reynolds">
</g>
<g id="RHINOS">
</g>
<g id="REYNOLDS">
	<polygon fill="#CB2027" points="483.9,161.5 494.7,170.2 495.8,178.5 493.8,183 486.9,178.7 487.5,176 482,170.2 477.2,175.6 
		487.3,183.8 488,190.2 481.1,202.9 472.2,203.7 463.2,198.1 459.7,187.5 462.2,182 468.3,187.5 467.8,191.3 473.1,194.8 479,189.2 
		479.3,186.9 469.2,179.1 467.6,172.4 473.7,162.7 	"/>
	<polygon fill="#CB2027" points="252.9,183.8 234.1,205.8 238.9,211.8 240.8,209.7 257.6,226.7 256.4,228.7 261.5,235.1 
		280.5,212.6 273.6,204.9 268.1,209.3 270.6,212.4 263.8,219.6 258.4,213.4 264.5,205.6 259.4,200.6 253.2,208.4 248.3,201.6 
		253,194.8 255.5,196.7 260.5,190.7 	"/>
	<polygon fill="#CB2027" points="273.7,166 264.2,173.1 267.6,179.9 269.5,179.3 286.3,187.6 289.3,193.8 287.4,196.5 291.4,202.7 
		303.8,194.2 300.3,187.8 297.5,189.2 293.9,182.6 291.8,163.4 293.7,160.9 289.8,154.5 279.4,161.5 283.1,167.9 284.4,168.9 
		285.6,178.7 276.6,174.3 276.9,171.8 	"/>
	<polygon fill="#CB2027" points="304.7,146.4 314.3,142 332.8,159.8 329.1,145.6 326.5,145.6 324.5,140 336,135 338.1,141.2 
		336.7,143.3 345.9,173.9 338,177 317.3,158.4 322.6,175.1 325.8,174.5 328.4,182.2 316.7,186.1 314.3,180.1 316.2,177.8 
		308.8,154.4 305.2,154.2 	"/>
	<polygon fill="#CB2027" points="395.3,130 409.1,130.9 408.7,139.8 405.2,140.2 401.8,165.2 410,164.8 411.2,158.8 419.2,160 
		416.2,175.1 390.3,171 390.9,163.8 393.5,163.4 396.2,138.5 394,137.7 	"/>
	<path fill="#CB2027" d="M252,252.7l5.8-12l-6.9-4.5l-1.4,2.7l-10.8-0.6l-2.1-6.8l-10.1-5l-7.6,3.3l-9.4,19l5.8,6l1.6-2.5l19.1,11.6
		l0.4,3.3l6,2.7l5.7-12.6l-5.5-3.1l-1.2,1.7l-6.7-4.3l2.3-5.2l8.8,0.6l-0.2,2.1L252,252.7z M227.6,247.3l-6.9-4.3l3.7-6.4l3.9-0.2
		l3,4.3L227.6,247.3z"/>
	<path fill="#CB2027" d="M379.4,136.5l-7.3-7.5l-14.3,1.5l-5.5,7.7l1.9,27.5l7.6,7.4l14-1.9l5.5-7.5L379.4,136.5z M363.4,164
		l-1.6-25.4l7.1-1.4l3.5,25.4L363.4,164z"/>
	<path fill="#CB2027" d="M457.9,147.2l-21.9-9.1l-1.4,7.4l1.9,1.4l-8,23.8l-2.7-0.8l-1.9,7.2l20.2,8.5l8.8-3.9l8.1-26.1L457.9,147.2
		z M445.2,176.2l-1.8,1l-6.4-3.5l7.4-24l0.7,0.2l6.9,5L445.2,176.2z"/>
	<g>
		<path d="M250.7,233.2l9.6,5.8l-8.1,16.1l-9.1-5.5l0.5-1l-5.9-0.5l-1.3,2.6l4.7,2.8l1-2l9.1,5.5l-8.2,16.4l-9.6-5.8l1.4-2.8
			l-17.5-10.5l-1.4,2.8l-9.6-5.7l12.2-24.4l9.7-3l10.3,6.2l1.5,5.8l8.8,0.7L250.7,233.2z M252.1,238.5l-1.2,2.3l-13.3-1l-1.8-6.8
			l-8-4.8l-6.9,2.1l-9.6,19.2l3.3,2l1.4-2.8l23.7,14.2l-1.4,2.8l3.3,2l4.8-9.6l-3.3-2l-1,2l-10.2-6.1l3.9-7.8l12.7,1l-1.1,2.2l3.3,2
			l4.6-9.1L252.1,238.5z M226.5,233.3l5.8,3.5l1,3.9l-4.7,9.4l-10.2-6.1l4.9-9.7L226.5,233.3z M225.8,237.5l-2.4,4.9l3.8,2.3
			l2.4-4.9L225.8,237.5z"/>
		<path d="M253.1,180.5l9.8,10l-7.6,9l-1.8-1.9l-3.7,4.3l3.3,3.3l6.7-7.9l7.8,7.9l-6.7,7.9l3.5,3.6l3.7-4.3l-2.2-2.2l7.6-9
			l10.3,10.4l-21.8,25.7l-8-8.2l2-2.3L241.2,212l-2,2.3l-8-8.1L253.1,180.5z M253.2,186.2l-16.8,19.8l2.8,2.9l2-2.3l19.9,20.2
			l-2,2.3l2.7,2.8l16.8-19.8l-4.9-5l-2.6,3l2.2,2.2l-8.8,10.4l-8.9-9l6.8-8.1l-2.5-2.5l-6.8,8l-8.5-8.6l8.8-10.4l1.7,1.8l2.6-3
			L253.2,186.2z"/>
		<path d="M290.5,151.4l6.1,9.9l-3,2.2l1.8,18.6l2.7,4.4l2.5-1.8l6.1,10l-15.2,11.1l-6.1-10l2.5-1.8l-2.7-4.4l-15-8.9l-3,2.2
			l-6.1-9.9l13.8-10.1l5.7,9.4l-1,0.8l4.9,2.8l-0.6-6l-1,0.8l-5.7-9.4L290.5,151.4z M289.4,157l-7.6,5.6l2.1,3.5l1.7-1.2l1.6,16.4
			l-13.5-7.7l1.8-1.3l-2.1-3.5l-7.7,5.6l2.1,3.5l1.9-1.4l17.6,10.2l5.3,8.6l-2.5,1.8l2.1,3.4l9.1-6.6l-2.1-3.4l-2.5,1.8l-5.3-8.6
			l-2-21.7l1.9-1.4L289.4,157z"/>
		<path d="M337.5,131.6l3.6,11.3l-2.7,1l10.2,31.9l-10.4,4l-17.5-17.5l3.3,10.5l3.1-1.2l3.5,11.1l-15.9,6.1l-3.6-11.3l2.8-1.1
			l-6.6-20.6l-2.8,1.1l-3.6-11.3l14.3-5.5l15.8,15.8l-2.8-8.7l-2.8,1.1l-3.5-10.8L337.5,131.6z M335.2,136.7l-8.8,3.4l1.3,4l2.4-0.9
			l7.8,24.4l-23.6-22.8l-8.7,3.3l1.3,4l2.8-1.1l8.9,27.9l-2.8,1.1l1.2,3.8l9.1-3.5l-1.2-3.8l-2.7,1l-8.5-26.6l25.4,24.5l4.8-1.8
			l-10.2-31.8l2.7-1L335.2,136.7z"/>
		<path d="M380.9,134.4l2.4,29.5l-6.7,8.7l-15.8,1.5l-7.8-7.4l-2.4-29.7l6.7-8.6l15.6-1.5L380.9,134.4z M377.4,136.4l-5.7-5.3
			l-12.4,1.2l-4.9,6.2l2.1,26.1l5.5,5.4l12.6-1.2l4.9-6.2L377.4,136.4z M372.4,137.9l1.9,24.1l-2.2,3l-8.3,0.8l-2.5-2.5l-1.9-24.1
			l2.3-2.9l8-0.8L372.4,137.9z M368.8,139.4l-5.6,0.5l1.7,21.7l5.6-0.5L368.8,139.4z"/>
		<path d="M411.6,129.5l-1.5,11.8l-3.4-0.5l-2.7,21.6l4.6,0.7l0.9-7.3l11.1,1.7l-2.4,19.2l-30.8-4.6l1.5-12l2.9,0.4l2.7-21.6
			l-2.9-0.4l1.5-11.8L411.6,129.5z M407.4,132.9l-11.3-1.7l-0.5,4.1l2.9,0.4l-3.7,29.2l-2.9-0.4l-0.5,4.1l23.5,3.5l1.4-11.4
			l-3.7-0.6l-0.9,7.3l-11.9-1.8l3.7-29.2l3.4,0.5L407.4,132.9z"/>
		<path d="M463.6,155.1l-9.5,27.8l-9.3,4.7l-24-9.9l3.9-11.3l2.8,1.1l7-20.4l-2.8-1.1l3.8-11.2l24,9.9L463.6,155.1z M459.6,155.2
			l-3-7.4l-18.6-7.7l-1.3,3.9l2.3,1l-9.5,27.7l-2.4-1l-1.3,3.9l18.6,7.6l6.7-3.2L459.6,155.2z M454.5,154.4l-7.8,22.7l-3,1.5
			l-9.6-3.9l9.5-27.7l9.4,3.9L454.5,154.4z M450.7,153.9l-4.8-2l-7,20.4l4.8,2L450.7,153.9z"/>
		<path d="M490.2,191.1l-7.9,12.7l-10.3,2l-12.6-9.4l-1.8-10.7l4.3-6.9l10,7.5l-2.1,3.3l4.2,3.1l3.3-5.3l-9.9-7.3l-1.4-8.7l6.7-10.8
			l10-2l12.9,9.6l1.7,10.1l-3.9,6.2l-9.6-7.2l1.5-2.4l-4.5-3.3l-2.3,3.6l10.1,7.5L490.2,191.1z M486.3,190.2l-1-5.6l-10.3-7.7
			l-0.4-2.2l4-6.4l3.3-0.6l6.5,4.9l0.5,3.5l-0.4,0.6l4.2,3.1l0.9-1.4l-1.3-7.8l-10.1-7.6l-7.1,1.4l-5,8.1l1,5.9l10.2,7.6l0.3,2.1
			l-5.1,8.1l-3.4,0.7l-6.3-4.7l-0.6-3.6l1-1.6l-4.1-3.1l-1.5,2.3l1.3,8l9.8,7.3l7.5-1.4L486.3,190.2z"/>
	</g>
	<circle fill="#1C3664" stroke="#000000" stroke-width="8" cx="377.7" cy="307" r="135.3"/>
	<polygon fill="#1C3664" points="555.3,448.1 184.9,448.1 204.8,372.2 575.7,372.2 	"/>
	<path fill="none" stroke="#000000" stroke-width="8" d="M497.7,368.5c1.8,0,0.2,0,0.2,0h78.3l-20.5,78.7H183.3l20.5-78.7h54.7"/>
	<circle fill="#FFFFFF" stroke="#000000" stroke-width="9" cx="377.7" cy="307" r="109.7"/>
	<path fill="#999898" d="M402.1,210.9c0,0-7.9-3.8-12.3-7.4c0,0-6.9-4.7-12.4-5.3c0,0-12.5-0.3-47.4,10.1c0,0-35.8,17.5-53.2,54.2
		c0,0-24.4,60.7,16.9,107.5c0,0,30.6,13.9,70.9,3.1c0,0,9.9-3.2,15.5-9.5c5.6-6.4,0,1.2,0,1.2s1.6-7.3,8.3,0c0,0,8.3,22.4,22.4,15.3
		c0,0,25.4-7.7,30.6-8.7c0,0,11.3,1.2,13.1-3.4c0,0,15.9-18.9,20.5-19.3c0,0,4.6-7.2,3.2-10.9l-1.2-3.2c0,0,3.6-4.2,3.4-7l-0.4-2.6
		c0,0,7.2-7.5,7-10.3l0.4-1.4c0,0,10.1-1.6,15.3-9.9l1.6-5.4L475,270.9c0,0-6.2,1.6-7,3.6c0,0-14.9-4.2-19.3,2.2c0,0-5.4-2-7.2-1.8
		c0,0-9.1-8.5-10.1-12.1c0,0-4-37.3-10.7-39.7l-1.4-2.2c0,0,16.1-3.4,18.3-11.9c0,0,12.7-10.3,13.3-16.3c0,0,3.5-6.3,0.6-8.9
		c0,0-6.6-1.8-12.9,4.8c0,0-11.9,10.3-19.9,9.5C418.8,197.9,408.1,199.9,402.1,210.9z"/>
	<path d="M402.9,210.5l1.1,3c0,0,1.4-12.2,14.1-12.9c0,0,13.9-3.3,17.2-7.7c0,0,8.2-6.7,10.5-7.5c0,0,7.3-2.7,4.7,3.7
		c0,0-2.6,15.2-21.8,19.5c0,0-9.4-0.1-12.5,2.8c0,0-4.8,3.7-4.7,9.1c0,0,7,2.4,13.7,0c0,0,7.1-2.1,11.7-8.1c0,0,6.5-9.4,11-11.9
		c0,0,7.4-8.8,4.7-16.5c0,0-6.8-4-14.7,3.3c0,0-7.4,5-11.2,8.1c0,0-7.4,2.3-10.5,2.1c0,0-9.5,0.4-14.1,10.8L402.9,210.5z"/>
	<path d="M364.5,205c0,0,12.8-7.1,19.1-2.1c0,0,5.4,2.5,10.4,6.8c0.2,0.2,0.2-0.1,0.2-0.1s3.8,4.2,9.9,3.9l-0.9-6.5c0,0-1.8,1-1.6,2
		c0,0-4.4-1-8.1-4.4c0,0-10-9.5-18.2-5.1c0,0-7,1.3-10.4,3.7c0,0,4.3-17.6,0.7-25c0,0-8.3-21.1-20.1-5.8c0,0,0.9,7.8-1.1,12.4
		c0,0-0.6,4.3-1.8,5.3c0,0-9.1,12.7-6.5,20.8c0,0,1.3,19.5,23.6,21.5c0,0,9-3.9,5.3-10.3C364.9,221.9,359,212.1,364.5,205z"/>
	<path d="M412.7,220.5c0,0,9-0.6,13.4,6.6c0,0,5.8,8.3,3.9,18.9c0,0,0.6,10.5,1.6,12.9c0,0,4.3,14.4,10.2,14.5c0,0,2.2,0.7,3,1.7
		c0,0,0.7,1.8,3.1-0.2c0,0,8.5-7.6,17-1.2c0,0,1.1,0.8,3.4-1.7c0.1-0.1,0.1-0.2,0.2-0.2c2.5-2.9,15.1-4.1,20.3-1.2
		c0,0,20.6,13.8,20.1,19.4c0,0-7.1,22-15.2,24.3c0,0-4.8,0.8-5.5,0.7c0,0-3.1,8.9-7.6,11.4c0,0,0.6,4.6-1.4,7.9c0,0,0.7,7.8-0.5,9.8
		c0,0-1.9,5.8-7.8,9.1c0,0-1.4-2.1-18.6,19.8c0,0-2.1,2-5.9-0.2c0,0-11.6,0-12.6,2.1c0,0-10.3,1-17.2,5.2c0,0-5.8,0-8.9,0.7
		c0,0-9.8,3.6-12.9-2.9c0,0-10.3-13.3-12.6-13.4c0,0-1.5-2.8-4.6,3.1c0,0-0.5-4-3.3-5.2c-2.8-1.2,0.4-0.3,0.4-0.3
		s-25.4-1.8-30.9-25.3l-0.3-4.7c0,0,2.5,0.7,4.7,0c2.2-0.7,0.4,0,0.4,0s-3.6,15.6,20.2,24.9c0,0,19,0.3,23.1,13.4
		c0,0,3,10.9,11.8,9.3c0,0,4.4,0.9,19.3-3.6c0,0,3.2,0,3-1.8l0.9-1.5c0,0,4.7,1.4,7.2-0.4c0,0,4.5-0.9,13.6-1.7c0,0,3.5,0,6.4-5
		c0,0,7-9.4,8.9-9.7c0,0,1.4-2.9-1.6-1.3c0,0-2.7,0.4-1.3-1.5c0,0,0.1-2.6,7.5-1.6c0,0,6.1,0.2,6.9-9.7c0,0,0.8-6-3-6.3
		c0,0-5.9,0.4-13.2-3.3c0,0,11.4,3,16.8,1c0,0,3.5-1.6,3-5.3c0,0-6.3,3.6-14.8,1.8c0,0-4.7-0.7-6.1-1.7c0,0,19.7,2.3,25.5-9.4
		c0,0,3.5-3.3-0.5-7.9c0,0,4.1,3.9,8.2,0.4c0,0,8.6-2.7,9.2-7.7c0,0,0.5-2.4-1.2-3.5c0,0-18.6-9.2-27.6-24.5c0,0-3.9-1.2-2.9,6.4
		c1.1,7.7-0.3-0.4-0.3-0.4s0.7,12.2,4.1,15.7c0,0-6.7-5.1-6.6-18c0,0,0.6-5.7-10.3-3.2c0,0-11.3-0.5-12.7,21.5
		c0,0,1.9,19.8,9.2,24.9c0,0,2.2,5.1-3.8-1.8c0,0-13.8-14.8-5.4-40.6c0,0,2.5-3.1-1.5-3.8c0,0-3.3,0.6-4.5-0.1c0,0-6.9-7.2-9.1-17.3
		c0,0-4.3-18.2-4.4-26.2c0,0-2-10.5-11.3-12.2C402.4,218.9,412.7,220.5,412.7,220.5z"/>
	<path d="M433.4,283.4c0,0-7.7,16.6,6.8,40.1c0,0,1.5,2.5,0.5-0.8c0,0-10.8-22-6.6-34.5C434.1,288.2,437.2,279.8,433.4,283.4z"/>
	<path d="M414.5,286.8c0,0-3.2-1.3-5.4-8.1c0,0-3.2-11.5-10.7-13.7c0,0-2.8,0.2-0.8,0.9c0,0,6.2,2.3,7.7,10.1c0,0,1.4,10.7,8,13.3
		c0,0,1.8,0.7,3.2-0.4c0,0,1.2-1.8-2.1-2.5"/>
	<path d="M409.3,300.7c0,0,5.6-0.9,5.5,1.7c0,0,0.8,2.7-2.9,2.8c-0.1,0-0.3,0-0.4,0c-4.2-0.1-4.5-0.6-5.9-3.1c0,0-0.4-2.3-2.8,0.3
		c0,0-1.7,1.5-3.2,1.7c0,0,3.9-2.3,4.3-3.7c0,0,1.1-3.9-0.7-3.9c0,0-0.9,0.4-1,0.9c0,0-2.7,8.6-8.1,3.5c0,0-7-5.4-0.6-14.4
		c0,0,1.7-1.9-1.7-1.7c0,0-2.8-0.5-5.2,1.2c0,0-1.5,1-0.6-1c0.9-2.1,0.1-0.3,0.1-0.3s3.4-3.6,6.9-3c0.1,0,0.2,0,0.3,0.1
		c0,0,1.2,2.1,1.7,0.7c0,0-0.2-4.4-9.6-6.3c0,0-1.7-0.5-0.9-1c0,0-0.2-1.3,3.1,0c0,0,11.7,4.2,14.2,11.9
		C401.5,286.8,405,299.2,409.3,300.7z"/>
	<path d="M390.9,307.6c0,0-9.3-5.5-14.3-16.4c0,0-1.8-3.1-0.6,0.9c0,0,3.3,10.9,15.2,19.1c0,0,2.2,0.4,2.1-1.3
		C393.3,309.8,393.7,308.4,390.9,307.6z"/>
	<path d="M384.8,310.5c0,0-5.4-2.6-10.8-10.8c0,0-2.4-3.5-0.5,0.6c0,0,3.7,7.7,12,14.3c0,0,3.9,1.2,2.9-1.2
		C388.4,313.4,387.7,311.7,384.8,310.5z"/>
	<path d="M397.1,312c0,0,3.3,1.6,5.7,1c0,0,2-0.7-1.5-2.2c0,0-4.3-2.2-4.3-0.8c0,0-0.2,1.1,0,1.6"/>
	<path d="M398.9,316.9c0,0-3.7-2.4-5.3-1.3c0,0-3.3,1.5-0.1,1.8C393.6,317.4,399.9,318.8,398.9,316.9z"/>
	<path d="M442.1,339.6c0,0-3-3.8-9.3-2.1c0,0-8,2-11,10.5c0,0-0.8,2.2,1-0.3c0,0,5.2-8.6,12.1-7.7c0,0,3.4,0.4,4.4,1.2
		c0,0,1.3,1.2,2.7,0.6C441.9,341.9,443,341,442.1,339.6z"/>
	<path d="M449.4,352.5c0,0-6.7-8.1-11.6-8.3c0,0-8.3-0.8-9.9,6.1c0,0-0.3,2,1.7-0.8c0,0,1.9-4.1,6-3c0,0,1.8,0-0.1,1.6
		c0,0-2,3-0.3,6.4c0,0,2,4.5,6.5,4.3c0,0,6.8,0,7.5-3.3c0,0,0.3-0.5,1.1-0.5c0,0,4.6,0.3,4.9-0.2c0,0,1.1-1.9-0.4-2
		c0,0-3.4-0.3-4.6-0.1C450.1,352.7,449.6,352.8,449.4,352.5z"/>
	<path d="M427.1,373.3c0,0-0.4-4.3-14.1-7.4c0,0-14.9-0.8-20.7-13.2c-0.1-0.1-0.1-0.3-0.2-0.4c-5.7-12.8-6-15.7-6-17.5
		c0,0,0.4-11.6-9.7-11.5c0,0-8.6,0.1-21.1,6.9c0,0-2.5,2.7-11.8,1.9l-0.1,3.2c0,0,5.4,0.9,8,0c0,0,4.1,12.2,16.1,17.3
		c0,0,1.8,0.1-0.1-0.9c0,0-10.5-7.7-12.7-15.7c0,0-1.3-1.8,3.2-2.2c0,0,4.2-0.7,4.1,0.1c0,0,9.8,13.4,23.3,18.5c0,0,3.1,0.5,4.5,4.5
		c0,0,2.1,6.6,13.8,9.7c0,0,8.3,0.9,15,4.8c0,0,4.6,3.1,7.4,3L427.1,373.3z"/>
	<path d="M374,362.1c0,0,2.1,0.7,0.8,2c0,0-6.9,7.7-13.3,7.4c0,0-4,1.3-11.4-5.4c-0.1-0.1-0.1-0.1-0.2-0.2
		c-7.5-6.9-12-15.3-13.3-17.8c0,0-8.4-15-19.8-18.6c0,0-14.3-4.3-23.7-25.4c0,0-11.4-33.7,0-53.2c0,0,10.3-24.6,42.6-38l1.2-0.2
		l-0.7-2.3c0,0-43.7,13.9-52,54.6c0,0-2.5,25.7,4.7,39.1c0,0,9.7,21.3,24.8,30.2c0,0,12.1,4.5,19.1,14.8c0,0,10.4,18.7,26.3,26.3
		c0,0,13.6,3.2,16.6-4.7c3.1-8,0.1-0.3,0.1-0.3s4-6.4,5.2-6.2L374,362.1z"/>
	<path d="M337.7,217c0,0,0.9,4.8-13.7,17.3c0,0-25.8,19-24.5,42.1c0,0-0.4,18.6,4.9,24.8c0,0,12.5,32.3,39.1,34.5l0.1-3.7
		c0,0-25.6,0.3-39.9-42.1c0,0-4.8-30.5,13.7-45.3c0,0,21.1-15.3,22.1-21.3c0,0,0.9-1.3,1.2-2.5c0-0.2,0.1-0.4,0.1-0.6
		C340.7,219.2,337.7,217,337.7,217z"/>
	<path d="M226,262.1"/>
	<path d="M333.8,350.3c0,0,1.5,0.9-1.5,2.6c0,0-14.3,14.1-30.1-2.6c0,0-13-14.5-17.3-16.4c0,0-9-1.1-12.8-5.5
		c0,0-20.5-79.6,63.4-121.2l0.6-2.8c0,0-84.7,30.1-66.1,129.9l2.6,0.4l0.2-1.1c0,0,7.3,0.6,13.2,4.7c0,0,10,16.4,17.1,20.1
		c0,0,5.8,4.5,16.2,3.6c0,0,12.2,0.9,17.5-6.4L333.8,350.3z"/>
	<path d="M272.2,328.6c0,0,10.6,33.8,17.8,41.6c7.2,7.7-5.3-1.8-5.3-1.8s-13.3-20.8-16.2-39.2"/>
	<path fill="#333333" d="M476.8,228.5l-3.2,4.4c0,0-3,14.7,13.2,28.9c13.7,12,32.1,28.7,70,30l5.9-7.8c0,0-43.1,3.9-60.1-17.8
		C502.7,266.2,475,249.3,476.8,228.5z"/>
	<g>
		
			<ellipse transform="matrix(-0.8515 -0.5243 0.5243 -0.8515 828.5234 746.5178)" fill="#080A0B" cx="520" cy="255.9" rx="51.2" ry="21.3"/>
		<path fill="#080A0B" d="M473.7,232.8l-11.8,19c0,0-6.8,18.7,36.6,46c0,0,29.4,18.1,45.3,11l14.7-19.2c0,0-19.9,5.6-50.2-12.9
			C508.3,276.7,471.6,253.9,473.7,232.8z"/>
	</g>
	<path fill="#999898" d="M546.2,169.4c0,0-11.6,66-37.4,80.3l19,11.3C527.8,260.9,560.9,216.1,546.2,169.4z"/>
	<path d="M546.1,165.8c0,0-14.3,73-41,86l3.4,1.5c0,0,23-7.3,38.8-77.9L546.1,165.8z"/>
	<path d="M546.1,165.9c0,0,0.6-0.5,3.4,6.9c0,0,10.2,52.8-21.1,92.3c0,0-6.1,0.1-3.4-3c16.4-19.2,27.3-54.2,22.2-87.3L546.1,165.9z"
		/>
	<g>
		<polyline fill="none" stroke="#333333" stroke-width="3" stroke-linecap="square" points="511.1,251 505.5,248.2 505.7,251.3 
			501.3,249.6 498.1,252.3 495.9,250.7 491.6,254.3 486.1,251 483,251.9 		"/>
		<polyline fill="none" stroke="#333333" stroke-width="3" stroke-linecap="square" points="512,252.1 526.4,260.4 529,259.9 
			529.8,258.1 530.3,257.7 534.1,255 535.1,262.3 541.8,257.3 541.1,253.5 544.2,256.6 545.8,253.2 548.3,254.9 		"/>
		<polyline fill="none" stroke="#333333" stroke-width="3" stroke-linecap="square" points="517.5,278.8 516.8,277.2 520.4,275.1 
			518.2,271.5 520.1,267.2 518.2,261.5 520.3,259.2 		"/>
		<path fill="#333333" stroke="#333333" stroke-width="3" stroke-linecap="square" d="M518.4,246.8c0,1.6-2.9,2.8-5.3,4.3l0.5-5.7
			l-4.3-6.9l5.7,1.9l3.7-3.1l0.7,4.3C519.5,241.6,518.5,245,518.4,246.8z"/>
		<polygon fill="#333333" stroke="#333333" stroke-width="3" stroke-linecap="square" points="513.1,252.1 517.2,249.8 519.6,250.7 
			523.3,251.4 525.8,247.4 528,249.9 528.7,253.5 528.9,256.1 529,258.6 526.4,260.4 		"/>
		<polyline fill="none" stroke="#333333" stroke-width="3" stroke-linecap="square" points="511.7,246.4 504.3,240.7 497.9,240.9 
			498.3,236.4 494.2,238.1 494.2,232.6 491,232.4 		"/>
		<polyline fill="none" stroke="#333333" stroke-width="3" stroke-linecap="square" points="529,261.4 530.5,267.8 534.6,268 
			534.1,271 535.6,270.8 535.6,273.1 537.8,273.1 		"/>
	</g>
	<path fill="#DEDDDD" d="M436.2,208.3c0,0-6,4-16.4,3.8c0,0-5.8,0.4-5.7,7.5C414.1,219.7,428.4,224.1,436.2,208.3z"/>
	<path fill="#999898" d="M362.7,177.7c0,0-3.4-9.2-10.7-8.3c0,0-4.3,2.1-4.2,6.6l-0.3,7.1c0,0-0.7,3.9-2.6,6.7c0,0-6,9.4-6,13.2
		c0,0-4.2,20.2,18.2,27.4c0,0,3.2,0.2-1.6-3.1c0,0-12.3-8.2-11.1-20.1c0,0-0.5-15.7,13.1-14.1c0,0,2.5-6.4-0.9-11.6
		c0,0-1-3.2,2.8,1.7c0,0,1.5,5.4-0.4,13.9c0,0-5.5,22.9,2.8,26.7c0,0,3.2,1.4-1.3-6.5c0,0-2.3-6.9,1.4-14.7c0,0,3.6-10.1,2.8-16.3
		C364.8,186.4,364.7,181.5,362.7,177.7z"/>
	<path fill="#FFFFFF" d="M395.2,287.7c0,0-3.2,1.3-3.4,4.7c0,0,0.4,6.2,3.4,3.2C395.2,295.7,398.3,287,395.2,287.7z"/>
	<path fill="#F7F9F9" d="M436.7,348.9c0,0-1.6,5.2,1.6,6.3c0,0,0.6,0.3,0.6-1.8c0,0,0-2.8,1-3c0,0,2.1-0.5,1.4-1.9
		c0,0-0.4-1.2-1.9-1.1C439.4,347.3,436.9,347.6,436.7,348.9z"/>
	<path fill="#FFFFFF" d="M364.8,333.6c0,0,1.6,3.4,4.6,5.3c0,0,1.3,1.6,2.5-0.4c0,0,2.3-2.2,3.8-4.6c0,0,2.1-1.5,0.6,0.4
		c0,0-6.3,6.1-3.4,7.9c0,0,5.3,6.7,7,4.3c0,0,1.9-1.6,2.7-3.4c0.7-1.8,0.6-9.2-2.6-13.4c0,0-3.4-4.4-8.3-1.7
		C371.8,327.9,362.3,330.9,364.8,333.6z"/>
	<path fill="#FFFFFF" d="M383,345.2c0,0-3.6,1.7-0.9,3.6c0,0,3.8,3.6,3.3,0.3C385.4,349.2,384.3,344.1,383,345.2z"/>
	<polygon fill="#CB2027" points="280.3,379.1 300.2,380.6 298.5,389.3 295.8,391.9 293.7,403.8 307.1,404.2 311.1,391.5 
		308.3,390.6 310.5,380.6 332.6,379.4 330.9,391.3 326,392.7 314.9,430.4 319.4,431.4 316.6,442.1 294.9,443.1 297.7,431.7 
		300.7,431.2 304.5,417 290.1,417 285.6,430.8 288.8,432.3 286,441.6 265.2,441.9 267.1,431.5 271.8,431 282.2,392.5 279,391.1 	"/>
	<polygon fill="#CB2027" points="349.6,378.7 372.7,380.2 371.1,392.1 366.8,392.1 357,429.3 361.1,430 357.7,442.7 332.6,443.1 
		336.8,431.5 341.9,431 350.2,393 347.4,390.8 	"/>
	<polygon fill="#CB2027" points="391.9,380 411.9,380.4 421.9,417.2 429.3,391.7 425.5,390.2 428.2,379.6 449.3,378.9 447.4,391.3 
		440.8,392.1 428.2,441.9 413.8,441.9 402.7,399.3 394.9,429.7 398.9,431.4 397,442.9 374.2,443.3 376.4,431.5 382.5,430.8 
		393.2,392.3 388.3,391 	"/>
	<polygon fill="#CB2027" points="560.9,389.8 554.3,380.4 530.7,379.6 518.8,388.3 514.3,404.7 517.8,413.2 538.6,414.9 
		537.1,425.9 532.9,431.2 523.1,429.8 523.1,425.3 508.2,424.2 506.9,434.2 514.8,441.6 535.8,441.9 549.4,432.5 554.8,411.2 
		550.7,404.5 529.2,403.4 531.2,393.8 535.6,391.3 544.3,391.9 546.2,394.7 555,396.1 558.8,396.4 	"/>
	<path fill="#CB2027" d="M495.6,379.4l-22.8-0.2l-11.1,10.4l-13,42.3l7.4,10.2l23.2,0.8l15.1-11.1l9.3-40.8L495.6,379.4z
		 M480.1,426.6l-5.3,3.6l-9.6-0.2l1.7-7.4l5.9-27.8l3.4-2.6l9.6-0.4l1.3,10.6L480.1,426.6z"/>
	<path fill="#CB2027" d="M256.7,389.3l-5.7-9.3l-37.2-0.2l-3.6,10.8l4.2,1.9l-10,37.6l-4.9,1.7l-2.1,10.4l21.7,1.3l2.6-11.3
		l-3.2-1.9l4.3-14l7.9,1.3l3,12.6l-2.6,1.3l-2.6,10.4l22.3,1.3l2.1-13l-3.6-0.9l-3.4-15.7l8.9-7.9L256.7,389.3z M240,404.5
		l-11.7,0.3l2.6-12.2l11.7,0.9l0.3,6L240,404.5z"/>
	<g>
		<path d="M257.2,427.2l-4.8,18.1h-27.6l4.6-17h1.7l-1.7-8.8h-4.4l-2.4,8.8h3.5l-4.6,17h-28.2l4.8-18.1h4.9l8.8-32.8h-4.9l4.8-18
			h41.8l8.5,11.9l-5.2,19.3l-8.2,6.4l2.5,13.2L257.2,427.2z M249.7,433.1h-4l-4-19.9l9.5-7.5l4-14.9l-6-8.4h-33l-1.7,6.2h4.8
			l-11.9,44.5h-4.8l-1.7,6.2h16.4l1.7-6.2h-3.4l5.1-19.1l13.4,0l3.7,19.1l-3.8,0l-1.7,6.2h15.6L249.7,433.1z M247.2,392.4l-2.9,10.9
			l-5.5,4.3h-16.2l5.1-19.1h16.6L247.2,392.4z M240.6,394.4h-8.4l-1.9,7.1h8.4L240.6,394.4z"/>
		<path d="M337.2,376.4l-4.8,18h-4.9l-8.8,32.8h4.9l-4.8,18.1h-28l4.7-17.5h3.4l2.2-8.4h-9.6l-2.2,8.4h3.2l-4.7,17.5h-27.9l4.8-18.1
			h4.8l8.8-32.8h-4.8l4.8-18h27.9l-4.6,17.2h-3.2l-2,7.3h9.6l2-7.3h-3.4l4.6-17.2H337.2z M329.5,382.4h-15.8l-1.7,6.3h2.7l-4.9,18.3
			h-20.4l4.9-18.3h2.6l1.7-6.3h-14.9l-1.7,6.3h3.9L274,433.1h-3.9l-1.7,6.2h14.9l1.7-6.2h-2.6l5.4-20h20.4l-5.4,20h-2.7l-1.7,6.2
			h15.8l1.7-6.2h-4.9l11.9-44.4h4.9L329.5,382.4z"/>
		<path d="M378.3,376.4l-4.8,18h-4.8l-8.8,32.8h4.8l-4.8,18.1h-30.1l4.8-18.1h4.8l8.8-32.8h-4.8l4.8-18H378.3z M370.6,382.4h-17.9
			l-1.7,6.3h4.8l-11.9,44.5h-4.8l-1.6,6.1h17.9l1.6-6.1h-4.8l11.9-44.5h4.8L370.6,382.4z"/>
		<path d="M453.1,376.4l-4.8,18h-4.8l-13.6,50.9h-18.1l-9.4-34.3l-4.5,16.7h5.5l-4.7,17.7h-27.8l4.8-18.1h4.9l8.8-32.8h-4.9l4.8-18
			h24.9l8.3,31l3.7-13.8h-4.9l4.6-17.2H453.1z M445.4,382.4h-15.3l-1.7,6.3h4.2l-10.4,38.9l-13.3-45.2h-15.1l-1.7,6.3h4.9
			l-11.9,44.5h-4.9l-1.6,6.1h15.9l1.6-6.1h-4.8l11.4-42.4l14.3,48.5h8.4l13.6-50.6h4.8L445.4,382.4z"/>
		<path d="M507.6,388.6l-12,44.6l-15.4,12.1h-26.1l-8.6-12.2l12-44.8l15.4-11.9h25.8L507.6,388.6z M500.9,391.1l-6.4-8.7H474
			l-11.1,8.6l-10.6,39.5l5.9,8.8h20.8l11.2-8.6L500.9,391.1z M492.1,392.6l-9.7,36.4l-5.1,4.1h-13.6L461,429l9.7-36.4l5.2-4h13.2
			L492.1,392.6z M485.5,394.4h-9.2l-8.8,32.7h9.2L485.5,394.4z"/>
		<path d="M558.7,410.1l-6.2,23.1L537,445.3h-25l-8.3-11.7L507,421h19.9l-1.6,6.1h8.4l2.6-9.7h-19.6l-6.6-9.5l5.3-19.7l15.1-11.8
			H556l7.9,11.1l-3,11.4h-19.1l1.2-4.4h-8.9l-1.8,6.6h20L558.7,410.1z M552,412.6l-4.5-6.1h-20.4l-1.7-2.4l3.1-11.7l4.9-3.8h13
			l2.6,3.8l-0.3,1h8.4l0.7-2.6l-6.1-8.5h-20.2l-10.8,8.4l-3.9,14.7l4.6,6.4h20.2l1.5,2.4l-4,14.8l-5.2,4h-12.5l-2.9-4l0.8-2.8h-8.2
			l-1.2,4.3l6.3,8.8h19.4l11.4-8.7L552,412.6z"/>
	</g>
</g>
<g id="Layer_21">
</g>
<g id="Layer_22">
</g>
</svg>
