<?xml version="1.0" encoding="utf-8"?>
<!-- Generator: Adobe Illustrator 18.1.1, SVG Export Plug-In . SVG Version: 6.00 Build 0)  -->
<svg version="1.1" id="Layer_1" xmlns="http://www.w3.org/2000/svg" xmlns:xlink="http://www.w3.org/1999/xlink" x="0px" y="0px"
	 viewBox="0 0 1280 720" enable-background="new 0 0 1280 720" xml:space="preserve">
<g>
	<g>
		<path fill="#000100" d="M375.3,386.5c14.5,32.8,27.3,107.3-40.5,137.4c-67.8,30.1-116.8,86.6-132.8,129c0,0,134.7-62.2,523.9-48.3
			c0,0-22.6,29.5-28.3,42.7c0,0,58,43.9,139.5,36.4c0,0-13.3-39.6,3-59c0,0,140.6,7.5,195.9-103c55.2-110.5,54-226,0-318.9
			c-54-92.9-154.4-125.6-262.4-106.7c-108,18.8-94.6,38.5-174.7,23.4c0,0,8.2-53.2-48-69.7V38.5c0,0-2-4.5-13-4.5
			c-11,0-12.4,5.2-12.4,5.2v11.1c0,0-48,10.8-49,79.6c0,0-50.4,0.2-95.6,20.6c-45.2,20.4-68.3,59-43.8,104.7L325,273.9l-43.8,0.1
			l10.4,42.3c0,0-7.1,41.3-5.7,43C287.3,361,354.1,338.5,375.3,386.5z"/>
	</g>
	<g>
		<g>
			<polygon fill="#B8B8BB" points="538.6,216 538.6,180.5 483.6,155.7 			"/>
		</g>
		<g>
			<polygon fill="#A2A3A7" points="537.9,133.7 538.6,180.5 593.5,155.7 			"/>
		</g>
		<g>
			<polygon fill="#FFFFFF" points="483.6,155.7 538.6,180.5 537.9,133.7 			"/>
		</g>
	</g>
	<g>
		<g>
			<path fill="#F8FBF7" d="M885.3,495.2c29.8-27.7,45.2-48.3,53.1-62.5c-2.7,2.9-5.5,5.7-8.4,8.6C831.1,539,769.9,562.5,736,640.7
				c0,0,5.5,9.7,22,17.9C767.2,625.8,824.8,551.3,885.3,495.2z"/>
		</g>
		<g>
			<path fill="#000100" d="M1023.9,334l-1.9-0.2c0.4-5.5,0.3-8.6,0.3-8.6l1.9-0.1C1024.2,325.2,1024.5,328.3,1023.9,334z"/>
		</g>
		<g>
			<path fill="#BEA884" d="M1036.4,242c-32-71.3-76.3-108.9-151.6-132.5c-75.3-23.5-195.9,24.2-195.9,24.2s-57.8,15.1-89.8,0
				l-0.3,5.7c0,0,15.1,0.3,13.8,16.3c-1.3,16-3.8,24.8-16.6,30.1v19.8c0,0,23.9-20.4,33.3-40.2v25.1c0,0,45.2-35.2,124.6-51.2
				c79.4-16,155.4,9.1,207.2,57.4c50.3,46.9,66.8,141.1-22.7,235.9c-7.9,14.2-23.3,34.8-53.1,62.5
				C824.8,551.3,767.2,625.8,758,658.6c12.6,6.3,31.8,11.7,60,11.3c0,0-17.1-54.7,102.7-171.4c86.2-83.9,100.3-143.3,102.4-164.6
				c0.4-5.6,0.3-8.7,0.3-8.7s0.3,3-0.3,8.7c-1.3,20.3-8.5,74.1-46.8,138.2c-49,81.9-56.5,124.3-56.5,124.3s77.2-20.7,110.2-104.5
				C1062.8,408.1,1068.4,313.3,1036.4,242z"/>
		</g>
	</g>
	<g>
		<g>
			<g>
				<polygon fill="#000100" points="507.3,150.4 503.1,162.3 503.1,171.1 500.4,161.7 				"/>
			</g>
			<g>
				<polygon fill="#000100" points="518.5,148.5 513.8,167.3 516.1,182.4 510.2,166.2 				"/>
			</g>
			<g>
				<polygon fill="#000100" points="531,145.2 528.7,175.2 532,196.8 523.5,173.4 				"/>
			</g>
		</g>
		<g>
			<g>
				<polygon fill="#000100" points="569.5,150.4 573.7,162.3 573.7,171.1 576.4,161.7 				"/>
			</g>
			<g>
				<polygon fill="#000100" points="558.3,148.5 563.1,167.3 560.7,182.4 566.7,166.2 				"/>
			</g>
			<g>
				<polygon fill="#000100" points="545.8,145.2 548.1,175.2 544.8,196.8 553.3,173.4 				"/>
			</g>
		</g>
	</g>
	<g>
		<path fill="#BEA884" d="M344.9,242l7.5-8.2c0,0-12.6-24.2,9.4-44.9c22-20.7,50.9-13.5,102.6,24.2c0,0,2.5-19.1,19.1-21.3v-4.4
			c0,0-29.2-5.3-17.6-43.6c0,0-69.4,3.8-104.2,32.6C327,205.3,344.9,242,344.9,242z"/>
	</g>
	<g>
		<path fill="#BEA884" d="M791.3,374.8c0,0,63.4,60.9,77.2,104.8l15.7-11.3C884.2,468.3,854.7,397.4,791.3,374.8z"/>
	</g>
	<g>
		<path fill="#B8B8BB" d="M477,148.5v7.2c0,0-7,5.7-6.4,15.4c0,0-4.7-13.1-1.6-20.7C472.1,142.7,477,148.5,477,148.5z"/>
	</g>
	<g>
		<path fill="#B8B8BB" d="M490.2,192.9c0,0,11.9,29.4,37.5,42.8c0,0-6.8,13.8,7.4,31.4c0,0-44.3-24.8-49.9-48L490.2,192.9z"/>
	</g>
	<g>
		<path fill="#B2B3B6" d="M623.6,283.8c0,0,8.9,12.2,15.9,15.1c0,0,37.7-20.1,44-38.6C683.6,260.2,674.5,272.5,623.6,283.8z"/>
	</g>
	<g>
		<path fill="#B8B8BB" d="M405.5,285.3c0,0,10,7.8,41.1,4.1v17.3C446.6,306.7,421.8,302.6,405.5,285.3z"/>
	</g>
	<g>
		<path fill="#B2B3B6" d="M624.2,211.5l20.2-13c0,0-11.1,60.7-59.8,71.8C584.6,270.4,621.8,236.7,624.2,211.5z"/>
	</g>
	<g>
		<path fill="#FFFFFF" d="M483.6,200.7c0,0-16,10.6-6.6,25.4c9.4,14.8,38.2,35.9,58.1,41C535.1,267.1,477.5,232.4,483.6,200.7z"/>
	</g>
	<g>
		<path fill="#B8B8BB" d="M431.8,207.5l18.8,13.8c0,0,11.3,36.4,40.2,55.6C490.9,276.9,438.1,261.2,431.8,207.5z"/>
	</g>
	<g>
		<path fill="#B8B8BB" d="M340.3,285.3v17.3c0,0,23.4-0.6,35.4,8.5c11.9,9.1,8.8,20.1,10,20.1c1.3,0,18.5-4.1,7.8-24.5
			C382.9,286.3,340.3,285.3,340.3,285.3z"/>
	</g>
	<g>
		<g>
			<path fill="#FFFFFF" d="M387,216c11.1-10.9,24.2-16.1,30.4-18.1l-5.4-3.5c0,0-25,7.2-41.7,32c-16.6,24.8-34.8,47.4-34.8,47.4
				s0.3,2.1,1.7,4l7.8-7.6C359.7,253.7,374.6,228.1,387,216z"/>
		</g>
		<g>
			<path fill="#B8B8BB" d="M345,270.1l-7.8,7.6c0,0,0.1,0.1,0.1,0.1C339.9,275.6,342.5,273,345,270.1z"/>
		</g>
		<g>
			<path fill="#B8B8BB" d="M417.7,239.8c0,0-19.5-10.4-20.7-20c0-0.1,0-0.3,0-0.4c0,0-0.3-4.6,9.8-9c4.6-2,11.4-4,21.3-5.5l-9.3-6.2
				l-1.5-1c-6.2,2-19.3,7.3-30.4,18.1c-12.4,12.1-27.3,37.7-41.9,54.2c-2.6,2.9-5.2,5.5-7.7,7.7c1.1,1.3,2.8,2.5,5.4,2.5
				c6.3,0,16.6-2.2,34.8,0c0,0-0.3-10.4-12.2-18.2l5.6-8.2c0,0,16.8,15.1,41,13.2c0,0-25.3-16-25.3-31.7
				C386.6,235.4,397.6,243,417.7,239.8z"/>
		</g>
	</g>
	<g>
		<g>
			<path fill="#FFFFFF" d="M525.5,76.8v-16C480.2,84,486,135.7,486.4,139C493.2,98.7,515.5,82.3,525.5,76.8z"/>
		</g>
		<g>
			<path fill="#B8B8BB" d="M486.4,139c0,0.1,0,0.2,0,0.2c9.4-27.5,39.1-45.2,39.1-45.2V76.8C515.5,82.3,493.2,98.7,486.4,139z"/>
		</g>
	</g>
	<g>
		<path fill="#FFFFFF" d="M538.6,123.1l4.7-78.2c0,0-4.7-5-9.7,0L538.6,123.1z"/>
	</g>
	<g>
		<g>
			<path fill="#FFFFFF" d="M716,185.3c-3.1,0.3-5.1,0.6-6.3,0.2c-2.2-0.6-6.1-2.6-9.8-4.7c-5.4-3-10.6-6.3-10.6-6.3
				c-1.8,0.4-3.6,1-5.4,1.8c-0.4,0.2-0.9,0.4-1.3,0.6c7.1,3.5,19.4,10.4,24.6,18c0,0,13.6-3.9,34.1-2.6c14.6,0.9,32.7,4.4,51.9,13.8
				c0.9-5.4,6.2-7.6,6.2-7.6C748.9,182.1,726.2,184.1,716,185.3z"/>
		</g>
		<g>
			<path fill="#B2B3B6" d="M798.2,219.4c-4.3-5.4-5.4-9.6-5.1-12.7c0-0.2,0-0.4,0.1-0.6c-19.2-9.4-37.3-12.9-51.9-13.8
				c-20.5-1.3-34.1,2.6-34.1,2.6c-5.2-7.6-17.5-14.5-24.6-18c-7.7,3.7-14.7,9.5-14.7,9.5c20.1,4.7,26.4,12.1,26.4,12.1
				c-17,16.5-38.6,21.5-38.6,21.5c22.6,7.5,41.1-8.8,41.1-8.8c-3.1,13.5-25.1,28.9-25.1,28.9c31.4,3.5,60-32.6,60-32.6
				c5.3,11-3.5,26.1-3.5,26.1c20.7,0.3,35.2-22,35.2-22c3.8,9.7,0,28.6,0,28.6C772.1,239.8,798.2,219.4,798.2,219.4z"/>
		</g>
	</g>
	<g>
		<g>
			<path fill="#B2B3B6" d="M839.2,189.3L839.2,189.3l-17.5,33.9l0,0c0,0,6,1.5,15,0.6c5.7-0.6,10.8-2.1,10.8-2.1
				S841.6,193.2,839.2,189.3z"/>
		</g>
		<g>
			<path fill="#FFFFFF" d="M807.6,208.7c0,0,5,10.1,14.2,14.5l17.5-33.9C839.2,189.3,809,203.5,807.6,208.7z"/>
		</g>
	</g>
	<g>
		<path fill="#B2B3B6" d="M856.6,216c0,0,6.4,28.7-3.5,42.1c0,0,16.5-5.4,20-30.4c0,0,7.5,11.5,0,35.5c0,0,13.4-10.4,14.4-38.1
			C887.4,225.2,888.6,220.7,856.6,216z"/>
	</g>
	<g>
		<path fill="#B2B3B6" d="M899.9,214.3l15.1-7.7c0,0,32.7,18.3,26.1,50.5C941.1,257.2,930,222.6,899.9,214.3z"/>
	</g>
	<g>
		<g>
			<path fill="#FFFFFF" d="M927.2,280.9c-11.3,2.5-22.3,16.6-19.5,26.4c2.2,7.5,9.8,9.2,13.1,9.6c-0.9-1.9-12.7-27.7,14.2-31.9
				c7.2-1.1,13.4-1,18.6-0.1c-0.3-0.2-0.7-0.5-1-0.7c0.4,0.2,0.7,0.5,1,0.7c9.9,1.6,16.3,5.8,19.5,8.5
				C972.8,276.9,937.4,278.7,927.2,280.9z"/>
		</g>
		<g>
			<path fill="#B2B3B6" d="M975.5,305.7c-4.7-4.7-3.5-6.7-3.5-6.7c0.7-2.1,1.1-3.9,1-5.6c-3.2-2.6-9.6-6.8-19.5-8.5
				c11.9,8.8-20.5,18.6-20.5,18.6c9.4,8.2,26.1,1.6,26.1,1.6c-6,8.8-27.6,11.9-27.6,11.9c5,11.9,31.4,5.3,31.4,5.3
				c-7.5,10-30.1,7.2-30.1,7.2s7.2,11.3,24.5,9.8c17.3-1.6,13.8-17.3,13.8-17.3C974,318.9,980.2,310.5,975.5,305.7z"/>
		</g>
	</g>
	<g>
		<path fill="#B2B3B6" d="M961.4,345.9c0,0-13.5,17.6-25.7,0C935.7,345.9,949.2,349.4,961.4,345.9z"/>
	</g>
	<g>
		<path fill="#B8B8BB" d="M301.4,328c0,0-6.8,13.1-4.7,21.2c0,0,29.2-13.2,51.3-10.6C348,338.6,341.4,331.8,301.4,328z"/>
	</g>
	<g>
		<g>
			<path fill="#B8B8BB" d="M325.2,285.8h-28.9l24.3,20.6C326.6,298,325.2,285.8,325.2,285.8z"/>
		</g>
		<g>
			<path fill="#FFFFFF" d="M296.3,285.8L296.3,285.8l7.7,28.4c8.4,0,13.5-3.3,16.6-7.7L296.3,285.8z"/>
		</g>
	</g>
	<g>
		<g>
			<path fill="#B2B3B6" d="M532.6,421.7L532.6,421.7l10-120.7l0,0c0,0-19.5,3-44.8,16.7c-15.9,8.6-29.2,19.4-29.2,19.4
				S520.7,413.2,532.6,421.7z"/>
		</g>
		<g>
			<path fill="#BEA884" d="M601.7,326.3c0,0-27.1-23.7-59.2-25.3l-10,120.7C532.6,421.7,603.9,343.2,601.7,326.3z"/>
		</g>
	</g>
	<g>
		<g>
			<path fill="#FFFFFF" d="M354.1,421l389.4-49.7c0,0,31.2,0.2,52.1,15.1c0,0-15.1,17.6-47.1,25.9c-32,8.3-407.4,52.8-407.4,52.8
				L354.1,421z"/>
		</g>
		<g>
			<g>
				<path fill="#000100" d="M748.7,377.5L356,427.2c0,0-2.4-14.1-11.5-14.9c-9.2-0.8-16.5,11.7-17.2,14.8c0,0,1.9-18.4,18.6-19.1
					l29.9-27.8c0,0-22.4-45.1-100.3-21c0,0,7.1,29,4.7,42.7c-2.4,13.7-10.8,10.8-22.1,34.8c0,0-18.4,7.1-32.2,14.9
					c0,0-13.8,0.3-19.2-2.8l-2.5,23.9c0,0,15.7-7.9,18.8-8.2c3.1-0.3,4.7,0.9,4.7,0.9s5.7,24.2,32,37.7c26.4,13.5,72.2-5.6,76.9-10
					c4.7-4.4,0.9-26.1,14.8-37L736,408.5c0,0,35.4-12.9,48.5-22.1C784.5,386.5,760,379.8,748.7,377.5z M256.4,448.3
					c0,1.2,0,5.6,0,5.6H240C244.4,450.9,256.4,447.2,256.4,448.3z M326.4,488.8c-1.9,1.6-24.9,12.3-56,8
					c-18.6-2.6-29.2-28.5-29.2-28.5h18.4c0,0,17.7,43.6,66.9,15.5C326.4,483.9,328.3,487.2,326.4,488.8z"/>
			</g>
		</g>
		<g>
			<g>
				<path fill="#FFFFFF" d="M300.3,365.5c-3.2,0.6-6.8,1.2-10.6,2.1c0,0,3.8,31.1,0,37.7c-3.2,5.7-19.3,23.1-23.8,39.3
					c11.1-14.2,30.2-30.8,32.9-40.2C301.2,395.9,300.6,374.8,300.3,365.5z"/>
			</g>
			<g>
				<path fill="#B8B8BB" d="M316,462.5c-4.9-4.2-7.8-16.2-6.6-20c0,0-4.2,0.9-4.7,4.7c-0.5,3.8-8.5-11.1,7.1-20.4
					c15.5-9.3,0.9,0,0.9,0s4,3.9,9.5,1.1c5.5-2.8-10.9-13.8-12.8-22c-1.9-8.2,6-11.6,12.8-14.4l-15-12.2c0,0,17.3-11,28.3-11.6
					c0,0-1.8-7.8-35.2-2.1c0.4,9.3,0.9,30.3-1.5,38.8c-2.7,9.4-21.8,26-32.9,40.2c-0.7,2.7-1.2,5.3-1.2,7.8
					c0,17.9,15.5,29.2,22.1,31.5c0,0-1.6-5.9-0.7-7.3c0.9-1.4,4.5,8,12.7,9.2c8.2,1.2,9.4-2.6,9.4-2.6s-11.5-4.2-9.2-11.3
					c0,0,19.8,16.9,30.1-5.9C329.2,466,321,466.7,316,462.5z"/>
			</g>
		</g>
		<g>
			<path fill="#B8B8BB" d="M356.5,434.9l-2.6,8.5l409.9-53.7c0,0-9.4-4.6-27.8-3.3C717.7,387.8,356.5,434.9,356.5,434.9z"/>
		</g>
		<g>
			<path fill="#FFFFFF" d="M348,424.7c0,0-21,4.4-12.6,35.8c0,0-10.1-7.8-6.3-25.4C333.1,417.2,348,419.7,348,424.7z"/>
		</g>
		<g>
			<path fill="#B8B8BB" d="M313.8,435.4h10.4c0,0-0.9,9.8-3.8,9.2l-1.4,13.1l-2.7-13.1l-2.5-3.2V435.4z"/>
		</g>
	</g>
	<g>
		<g>
			<g>
				<g>
					<path d="M218.4,608.4c2.2-0.4,4.1-1,5.7-1.8c1.5-0.8,2.8-1.8,3.9-3.1c1.1-1.3,2.1-3,3-5.2l37.5-85.6h79.3l39.6,84.1
						c0.4,0.7,0.8,1.7,1.2,3c0.4,1.3,1.3,2.6,2.7,3.9c1.3,1.3,3.3,2.5,5.9,3.6c2.6,1.1,6.3,1.8,11.2,2v20.1H302.9v-19.8
						c3.6-0.9,6.5-1.9,8.6-3.2c2.2-1.3,3.2-3.4,3.2-6.5v-1.3c0-2-1.7-3.3-5-4c-3.3-0.6-6.8-1-10.4-1h-7.6c-6.3,0-11,0.3-14,1
						c-3.1,0.6-4.6,2.2-4.6,4.6c0,1.7,0.6,3.2,1.8,4.5c1.2,1.3,2.5,2.4,3.9,3.2c1.4,0.9,3.3,1.7,5.7,2.6v19.8h-74.4v-19.8
						C213.4,609.2,216.1,608.9,218.4,608.4z M291.6,557.1l-9.2,21.1h27l-10.2-21.1H291.6z"/>
				</g>
				<g>
					<path d="M443.1,616.9c2.3-0.5,4.3-1.5,6-3c1.8-1.4,3-3.1,3.7-4.9v-31.3c0-0.9-0.3-1.8-0.8-2.8c-0.5-1-1.1-1.8-1.8-2.5
						c-0.7-0.7-1.4-1.3-2.2-1.8c-0.8-0.4-1.5-0.7-2-0.7h-2.5c-0.9,0-1.7,0.3-2.5,0.9c-0.7,0.6-1.4,1.3-2,2.1
						c-0.6,0.8-1.1,1.7-1.7,2.5c-0.6,0.9-1.1,1.6-1.7,2.2h-17.5v-21.9h122.1v21.9h-17.5c-0.6-0.6-1.1-1.4-1.7-2.2
						c-0.6-0.9-1.1-1.7-1.7-2.5c-0.6-0.8-1.2-1.5-2-2.1c-0.7-0.6-1.6-0.9-2.5-0.9l-3.4,0.1l-4.2,3.7c-0.2,0.5-0.5,1.1-0.8,1.8
						c-0.3,0.6-0.5,1.4-0.8,2.2v30.7c0,3.1,0.9,5.1,2.7,6.1c1.8,1,4.5,1.7,8,2.4v12.5h-73.4V616.9z"/>
				</g>
				<g>
					<path d="M576.1,616.9c2.3-0.5,4.3-1.5,6-3c1.8-1.4,3-3.1,3.7-4.9v-31.3c0-0.9-0.3-1.8-0.8-2.8c-0.5-1-1.1-1.8-1.8-2.5
						c-0.7-0.7-1.4-1.3-2.2-1.8c-0.8-0.4-1.5-0.7-2-0.7h-2.5c-0.9,0-1.7,0.3-2.5,0.9c-0.7,0.6-1.4,1.3-2,2.1
						c-0.6,0.8-1.1,1.7-1.7,2.5c-0.6,0.9-1.1,1.6-1.7,2.2h-17.5v-21.9h122.1v21.9h-17.5c-0.6-0.6-1.1-1.4-1.7-2.2
						c-0.6-0.9-1.1-1.7-1.7-2.5c-0.6-0.8-1.2-1.5-2-2.1c-0.7-0.6-1.6-0.9-2.5-0.9l-3.4,0.1l-4.2,3.7c-0.2,0.5-0.5,1.1-0.8,1.8
						c-0.3,0.6-0.5,1.4-0.8,2.2v30.7c0,3.1,0.9,5.1,2.7,6.1c1.8,1,4.5,1.7,8,2.4v12.5h-73.4V616.9z"/>
				</g>
				<g>
					<path d="M686.6,616.2c1.4-0.3,2.6-0.7,3.6-1.2c1-0.5,1.8-1.2,2.5-2c0.7-0.8,1.3-1.9,1.9-3.3l23.6-54H768l25,53
						c0.2,0.5,0.5,1.1,0.8,1.9c0.3,0.8,0.8,1.6,1.7,2.4c0.8,0.8,2.1,1.6,3.7,2.2c1.6,0.7,4,1.1,7,1.3v12.6h-66.4v-12.5
						c2.3-0.5,4.1-1.2,5.4-2c1.4-0.8,2-2.2,2-4.1v-0.8c0-1.3-1-2.1-3.1-2.5c-2.1-0.4-4.3-0.6-6.5-0.6h-4.8c-4,0-6.9,0.2-8.8,0.6
						c-1.9,0.4-2.9,1.4-2.9,2.9c0,1.1,0.4,2,1.1,2.8c0.7,0.8,1.6,1.5,2.5,2c0.9,0.5,2.1,1.1,3.6,1.6v12.5h-46.9v-12.5
						C683.4,616.7,685.2,616.5,686.6,616.2z M732.7,583.8l-5.8,13.3h17l-6.5-13.3H732.7z"/>
				</g>
				<g>
					<path d="M817.3,567.8c1.5-2.1,3.2-4,5.2-5.8c2-1.8,4.2-3.2,6.6-4.4c2.4-1.2,5-1.8,7.6-1.8h69.8c2.1,0,4.5,0.6,7.1,1.8
						c2.5,1.2,4.9,2.7,7,4.4c2.2,1.8,3.9,3.6,5.4,5.6c1.4,2,2.1,3.8,2.1,5.4v11.5h-46.7v-7.7c0-2.4-1.1-4.1-3.2-4.8
						c-2.2-0.8-4.5-1.2-7.1-1.2c-1.9,0-3.7,0.4-5.3,1.3c-1.6,0.9-2.5,2.3-2.5,4.4v34c0,1.5,0.8,2.7,2.5,3.6c1.7,0.9,3.5,1.3,5.4,1.3
						c0.2,0,0.8,0,1.9-0.1c1-0.1,2.1-0.3,3.2-0.7c1.1-0.4,2.2-0.8,3.2-1.4c1-0.6,1.6-1.4,1.9-2.5v-10.5H928v13.5
						c0,1.7-0.6,3.5-1.9,5.4c-1.2,1.9-2.8,3.5-4.8,5c-1.9,1.5-4,2.7-6.3,3.7c-2.3,1-4.5,1.5-6.6,1.5h-71.9c-5,0-8.9-0.5-11.9-1.6
						c-2.9-1.1-5.2-2.4-6.7-4.1c-1.5-1.6-2.5-3.3-3-5.1c-0.5-1.8-0.7-3.3-0.7-4.7v-40.4C814.8,571.8,815.8,569.9,817.3,567.8z"/>
				</g>
				<g>
					<path d="M1003.5,585.7c2.7-0.2,4.7-1.1,5.9-2.6c1.2-1.6,2.2-3.5,2.7-5.6c0.6-2.2,1-4.5,1.2-7.1c0.2-2.5,0.7-4.9,1.4-7.1
						c0.7-2.2,1.8-4,3.2-5.4c1.5-1.4,3.8-2.1,7-2.1h43v12.5c-2.4,0.6-4.2,1.5-5.4,2.6c-1.2,1.1-2.2,2.4-2.9,3.9
						c-0.7,1.5-1.4,3-2,4.6c-0.6,1.6-1.3,3.1-2.3,4.6c-1,1.5-2.3,2.9-4.1,4.2c-1.8,1.3-4.2,2.4-7.4,3.2l-1.2,1.2l1.2,1.5
						c3.2,0.8,5.6,1.9,7.4,3.1c1.8,1.3,3.1,2.6,4.1,4.1c1,1.5,1.7,3,2.3,4.6c0.6,1.5,1.2,3,2,4.4c0.7,1.4,1.7,2.7,2.9,3.8
						c1.2,1.1,3,2,5.4,2.6v12.5h-43c-3.1,0-5.4-0.7-6.9-2.1c-1.5-1.4-2.7-3.2-3.4-5.2c-0.7-2.1-1.2-4.4-1.4-6.9
						c-0.2-2.5-0.6-4.8-1.1-7c-0.5-2.2-1.4-4.1-2.6-5.6c-1.2-1.6-3.2-2.6-5.8-2.9l-5.8,1.2c-0.5,0.5-0.7,1.6-0.7,3.1v1.9
						c0,1.1,0.1,2.3,0.2,3.5c0.1,1.3,0.4,2.4,0.9,3.5c0.5,1,1.3,1.9,2.5,2.6c1.1,0.7,2.7,1,4.6,1v12.9h-66.4v-12.9
						c1,0,2.2-0.5,3.5-1.4c1.3-0.9,2.7-2,4.3-3.3c1-1.7,1.7-3.1,2-4.2c0.3-1.1,0.4-2.7,0.4-4.9V584c0-3.4-0.5-6-1.5-8.1
						c-1-2-3.3-4-6.8-5.9c-0.2-0.2-0.6-0.4-1.1-0.8c-0.5-0.4-0.8-0.6-0.8-0.8v-12.5h66.4v12.4c0,0.4-0.4,0.7-1.2,1.1
						c-0.8,0.4-1.7,1-2.7,2c-1,0.9-1.9,2.3-2.7,4.1c-0.8,1.8-1.2,4.3-1.2,7.5v1.6L1003.5,585.7z"/>
				</g>
			</g>
			<g>
				<g>
					<path fill="#C5B280" d="M423.6,644.7H194.8v-49.2l14-1.2c2.7-0.2,4.9-0.5,6.7-0.9c0.4-0.1,0.7-0.2,1-0.2
						c0.1-0.2,0.2-0.5,0.4-0.8l41.6-95h99l43.8,92.9c0.3,0.5,0.7,1.4,1.1,2.5c0.2,0.1,0.5,0.2,0.8,0.3c0,0,1.6,0.6,6.3,0.9l14.4,0.9
						V644.7z M325.4,614.1h54.5c-2.8-2.8-4.8-6-5.9-9.3c-0.2-0.4-0.3-0.9-0.4-1.2L338,528h-59.6l-33.5,76.5
						c-1.4,3.4-3.1,6.3-5.2,8.8c-0.2,0.3-0.5,0.5-0.7,0.8h24.7c0,0-0.1-0.1-0.1-0.1c-3.7-4.1-5.7-9.2-5.7-14.8
						c0-4.4,1.4-8.5,3.8-11.7l19.8-45.7h27.2l25.1,51.7h-4.4c0.5,1.7,0.7,3.4,0.7,5v1.3C330.1,605.3,328.4,610.2,325.4,614.1z"/>
				</g>
				<g>
					<path fill="#C5B280" d="M531.7,644.7h-104v-39.9l9.7-2.3V593h-34.7v-52.5h152.7V593H521v9.1l10.7,1.9V644.7z M467.2,614.1H491
						c-0.4-1.7-0.6-3.6-0.6-5.6v-32.8l0.5-2c0.2-0.9,0.5-1.7,0.8-2.5H467c0.7,2.1,1.1,4.3,1.1,6.6v34L467.2,614.1z"/>
				</g>
				<g>
					<path fill="#C5B280" d="M664.8,644.7h-104v-39.9l9.7-2.3V593h-34.7v-52.5h152.7V593h-34.5v9.1l10.7,1.9V644.7z M600.2,614.1
						H624c-0.4-1.7-0.6-3.6-0.6-5.6v-32.8l0.5-2c0.2-0.9,0.5-1.7,0.8-2.5H600c0.7,2.1,1.1,4.3,1.1,6.6v34L600.2,614.1z"/>
				</g>
				<g>
					<path fill="#C5B280" d="M821.5,644.7H666.1v-41.8l13.9-1.2c0.5,0,0.9-0.1,1.4-0.1l26.7-60.9h69.7l28.7,60.9
						c0.2,0,0.5,0,0.7,0.1l14.4,0.8V644.7z M762.4,614.1h16.2l-20.2-42.9h-10l20,41.3h-5.8C762.5,613,762.4,613.5,762.4,614.1z"/>
				</g>
				<g>
					<path fill="#C5B280" d="M908.5,644.7h-71.9c-6.9,0-12.5-0.8-17.2-2.6c-5.2-1.9-9.4-4.6-12.6-8c-3.3-3.5-5.5-7.5-6.6-11.8
						c-0.8-3-1.2-5.8-1.2-8.5v-42.3l0.5-1.9c0.9-3.5,2.6-7,5.2-10.7c2.1-3,4.7-5.8,7.5-8.4c3-2.7,6.5-5,10.2-6.8
						c4.5-2.2,9.3-3.3,14.2-3.3h69.8c4.4,0,8.9,1.1,13.4,3.2c3.7,1.7,7.2,3.9,10.4,6.5c3.2,2.6,5.9,5.5,8.1,8.6
						c3.3,4.6,5,9.5,5,14.3v40.6c0,4.8-1.5,9.5-4.5,13.9c-2.1,3.2-4.9,6.1-8.1,8.6c-2.9,2.3-6.1,4.2-9.5,5.7
						C917.1,643.7,912.8,644.7,908.5,644.7z M829.7,613.2c0.1,0,0.2,0.1,0.4,0.1c0.3,0.1,2.1,0.7,6.6,0.7h11.5
						c-0.2-1.1-0.3-2.3-0.3-3.5v-34c0-1.9,0.2-3.7,0.7-5.5l-11.9,0c-0.2,0-0.5,0-0.9,0.2c-1.1,0.6-2.2,1.2-3.1,2
						c-1.1,1-2.1,2.1-2.9,3.2c0,0-0.1,0.1-0.1,0.1V613.2z"/>
				</g>
				<g>
					<path fill="#C5B280" d="M1083.2,644.7h-58.3c-1.5,0-2.9-0.1-4.2-0.3v0.3h-97v-43.5h10.2V584c0-0.1,0-0.3,0-0.4
						c-0.1-0.1-0.2-0.1-0.3-0.2l-2.8-1.9c-6.2-4.3-7.1-10.1-7.1-13.2v-27.8l97,0.3c1.4-0.2,2.8-0.3,4.2-0.3h58.3v39.6l-10.4,2.8
						c-0.2,0.5-0.4,1.1-0.7,1.7c-0.9,2.6-2.2,5.2-3.8,7.7c-0.1,0.1-0.2,0.3-0.3,0.4c0.1,0.1,0.2,0.3,0.3,0.4c1.6,2.5,2.9,5,3.8,7.6
						c0.2,0.5,0.4,1,0.6,1.6l10.1,2.7l0.4,11.9V644.7z M962.7,614.1h20c-0.2-1.1-0.4-2.2-0.5-3.3c-0.2-1.8-0.2-3.4-0.2-4.9V604
						c0-2.5,0.3-4.8,0.9-6.8l-0.6-0.1v-14.1c0-4.5,0.6-8.4,1.7-11.7h-21.7c1.5,3.7,2.2,8,2.2,12.8v18.8c0,3.5-0.3,6.3-0.9,8.7
						C963.3,612.3,963,613.2,962.7,614.1z M1028.4,614.1h16c-0.4-0.9-0.8-1.8-1.1-2.8c-0.2-0.5-0.5-1-0.8-1.6c0,0.1-0.6-0.3-2.4-0.7
						l-5-1.3l-12.8-16.1l13.6-14l4.2-1.1c1.6-0.4,2.2-0.8,2.2-0.8c0.2-0.1,0.3-0.3,0.3-0.3c0.2-0.3,0.4-0.8,0.6-1.3
						c0.4-1.1,0.8-2.1,1.2-3.2h-15.8c0,0.2,0,0.4-0.1,0.6c-0.3,3.4-0.9,6.6-1.6,9.6c-1.1,4.3-3,8-5.5,11.3c-0.1,0.1-0.1,0.2-0.2,0.2
						c0.1,0.1,0.1,0.2,0.2,0.3c2.6,3.3,4.5,7.2,5.5,11.6c0.7,2.8,1.1,5.9,1.4,9.1C1028.4,613.9,1028.4,614,1028.4,614.1z"/>
				</g>
			</g>
			<g>
				<g>
					<path fill="#FFFFFF" d="M414.5,635.5H296.8v-30.8l4.7-1.1c3-0.7,5.3-1.6,6.9-2.5c0.1,0,0.2-0.2,0.2-0.5c-2.9-0.6-6-0.9-9.2-0.9
						h-7.6c-5.9,0-9.4,0.3-11.5,0.6c0.6,0.6,1.1,1,1.7,1.4c1.1,0.7,2.7,1.4,4.6,2.1l4,1.5v30.2H204v-31.6l5.6-0.5
						c3-0.3,5.6-0.6,7.6-1c1.7-0.3,3-0.7,4-1.3c0.8-0.4,1.5-0.9,2-1.6c0.5-0.6,1.2-1.7,2-3.6l39.1-89.4h87.2l41.3,87.6
						c0.4,0.8,0.9,2,1.5,3.6c0,0.1,0.2,0.6,1.2,1.5c0.4,0.4,1.6,1.3,4,2.3c1.3,0.6,4,1.3,9.2,1.6l5.8,0.3V635.5z M309,623.2h93.2
						v-8.4c-2.9-0.4-5.4-1.1-7.4-1.9c-3.4-1.4-5.9-3-7.8-4.8c-2.1-2-3.5-4.1-4.2-6.3c-0.3-0.9-0.6-1.7-0.9-2.3l-38-80.7h-71.4
						l-35.9,82c-1.1,2.7-2.4,4.9-3.9,6.6c-1.6,1.9-3.5,3.5-5.8,4.7c-2.1,1.1-4.5,1.9-7.3,2.4c-1,0.2-2.1,0.4-3.3,0.5v8.3h62.2v-9.6
						c-1-0.5-1.9-0.9-2.7-1.4c-2-1.2-3.7-2.7-5.3-4.4c-2.2-2.4-3.3-5.4-3.3-8.6c0-5.4,3.5-9.4,9.4-10.6c3.5-0.7,8.5-1.1,15.3-1.1
						h7.6c4,0,7.9,0.4,11.6,1.1c9.2,1.8,9.9,8.1,9.9,10v1.3c0,5.2-2.2,9.3-6.2,11.7c-1.6,1-3.5,1.8-5.7,2.6V623.2z M309.4,584.4
						h-36.3l14.5-33.4H303l16.2,33.4H309.4z M291.7,572.1h7.9l-4.2-8.6L291.7,572.1z"/>
				</g>
				<g>
					<path fill="#FFFFFF" d="M522.6,635.5h-85.6V612l4.7-1.1c1.4-0.3,2.5-0.9,3.6-1.8c0.6-0.5,1.1-1,1.4-1.6v-29.9
						c-0.3-0.4-0.6-0.8-0.9-1.1c-0.2-0.2-0.4-0.4-0.6-0.5h-0.9c-0.1,0.1-0.2,0.2-0.3,0.4c-0.6,0.8-1.1,1.6-1.6,2.4
						c-0.7,1.1-1.5,2.1-2.3,3l-1.8,2H412v-34.1h134.4v34.1H520l-1.8-2c-0.8-0.8-1.5-1.8-2.3-3c-0.5-0.8-1.1-1.6-1.6-2.4
						c-0.1-0.1-0.2-0.2-0.2-0.3l-0.1,0l-1.8,1.9c-0.1,0.2-0.1,0.4-0.2,0.6v29.8c0,0.4,0,0.7,0.1,0.9c0.9,0.4,2.6,1,5.6,1.5l5,0.9
						V635.5z M449.2,623.2h61.1v-1.5c-1.8-0.5-3.4-1.1-4.7-1.8c-2.2-1.2-6-4.2-6-11.5l0.2-32.3c0.3-1.2,0.7-2.2,1.1-3.1l1.3-3l6.9-6
						l5.5-0.2c0,0,0,0,0,0c2.5,0,4.7,0.8,6.5,2.2c1.2,1,2.3,2.1,3.2,3.4c0.5,0.7,1,1.4,1.5,2.1h8.3V562H424.2v9.6h8.3
						c0.5-0.7,1-1.4,1.5-2.1c0.9-1.3,2-2.4,3.1-3.4c1.8-1.5,4-2.2,6.3-2.2h2.5c1.6,0,3.3,0.5,5.1,1.5c1.4,0.8,2.6,1.7,3.7,2.9
						c1,1.1,2,2.4,2.7,3.8c1,1.8,1.5,3.7,1.5,5.7v32.4l-0.4,1c-1.1,2.8-2.9,5.3-5.5,7.5c-1.2,1-2.4,1.8-3.8,2.5V623.2z"/>
				</g>
				<g>
					<path fill="#FFFFFF" d="M655.6,635.5h-85.6V612l4.7-1.1c1.4-0.3,2.5-0.9,3.6-1.8c0.6-0.5,1.1-1,1.4-1.6v-29.9
						c-0.3-0.4-0.6-0.8-0.9-1.1c-0.2-0.2-0.4-0.4-0.6-0.5h-0.9c-0.1,0.1-0.2,0.2-0.3,0.4c-0.6,0.8-1.1,1.6-1.6,2.4
						c-0.7,1.1-1.5,2.1-2.3,3l-1.8,2H545v-34.1h134.4v34.1H653l-1.8-2c-0.8-0.8-1.5-1.8-2.3-3c-0.5-0.8-1.1-1.6-1.6-2.4
						c-0.1-0.1-0.2-0.2-0.2-0.3l-0.1,0l-1.8,1.9c-0.1,0.2-0.1,0.4-0.2,0.6v29.8c0,0.4,0,0.7,0.1,0.9c0.9,0.4,2.7,1,5.6,1.5l5,0.9
						V635.5z M582.2,623.2h61.1v-1.5c-1.8-0.5-3.4-1.1-4.7-1.8c-2.2-1.2-6-4.2-6-11.5l0.2-32.3c0.3-1.2,0.7-2.2,1.1-3.1l1.3-3l6.9-6
						l5.5-0.2c0,0,0,0,0,0c2.5,0,4.7,0.8,6.5,2.2c1.2,1,2.3,2.1,3.2,3.4c0.5,0.7,1,1.4,1.5,2.1h8.3V562H557.2v9.6h8.3
						c0.5-0.7,1-1.4,1.5-2.1c0.9-1.3,2-2.4,3.1-3.4c1.8-1.5,4-2.2,6.3-2.2h2.5c1.6,0,3.3,0.5,5.1,1.5c1.4,0.8,2.6,1.7,3.7,2.9
						c1,1.1,2,2.4,2.7,3.8c1,1.8,1.5,3.7,1.5,5.7v32.4l-0.4,1c-1.1,2.8-2.9,5.3-5.5,7.5c-1.2,1-2.4,1.8-3.8,2.5V623.2z"/>
				</g>
				<g>
					<path fill="#FFFFFF" d="M812.4,635.5H675.3v-24.2l5.6-0.5c1.8-0.2,3.3-0.4,4.6-0.6c1.1-0.2,1.7-0.5,1.9-0.6
						c0.2-0.1,0.4-0.3,0.6-0.5c0.1-0.1,0.5-0.6,0.9-1.7l25.3-57.7h57.8l26.6,56.5c0.3,0.5,0.6,1.4,1,2.5c0.2,0.1,0.6,0.5,2,1.1
						c0.5,0.2,1.8,0.6,5.1,0.8l5.8,0.3V635.5z M745.9,623.2h54.2v-1.2c-1.2-0.3-2.3-0.6-3.3-1c-2.4-1-4.2-2.1-5.6-3.5
						c-1.6-1.5-2.7-3.1-3.2-4.9c-0.2-0.5-0.3-0.9-0.5-1.2L764.1,562h-42.1l-22,50.3c-0.8,1.8-1.7,3.4-2.8,4.7
						c-1.2,1.5-2.7,2.6-4.4,3.5c-1.5,0.8-3.2,1.3-5.2,1.7c-0.1,0-0.1,0-0.2,0v1h34.6v-2.4c-0.2-0.1-0.4-0.2-0.6-0.3
						c-1.4-0.9-2.7-1.9-3.9-3.2c-1.8-1.9-2.7-4.3-2.7-7c0-2.4,1-5.2,3.5-7.1h-0.9l11.1-25.6h12.6l12.4,25.6h-3.7
						c2.5,1.8,3.5,4.4,3.5,6.7v0.8c0,4.1-1.8,7.4-5,9.3c-0.8,0.4-1.6,0.9-2.5,1.2V623.2z"/>
				</g>
				<g>
					<path fill="#FFFFFF" d="M908.5,635.5h-71.9c-5.8,0-10.4-0.7-14-2c-3.8-1.4-6.9-3.3-9.1-5.6c-2.2-2.4-3.7-5-4.4-7.8
						c-0.6-2.3-0.9-4.3-0.9-6.2l0.2-41.9c0.6-2.5,1.9-5,3.8-7.7c1.7-2.5,3.8-4.7,6.1-6.8c2.4-2.1,5.1-3.9,8-5.4
						c3.3-1.6,6.7-2.4,10.2-2.4h69.8c3,0,6.3,0.8,9.6,2.3c3,1.4,5.8,3.2,8.4,5.2c2.6,2.1,4.7,4.4,6.5,6.8c2.2,3.1,3.3,6.1,3.3,9
						v17.7h-59v-13.2c-1.8-0.5-4.1-0.9-5.9-0.3l0,31.8c0.6,0.2,1.2,0.3,1.9,0.3c0.1,0,0.6,0,1.3-0.1c0.6,0,1.2-0.2,1.9-0.4
						c0.3-0.1,0.6-0.2,0.9-0.3v-14.4h59v19.6c0,3-1,5.9-2.9,8.8c-1.6,2.4-3.6,4.6-6.1,6.4c-2.3,1.8-4.9,3.3-7.6,4.5
						C914.6,634.8,911.5,635.5,908.5,635.5z M820.5,574.4v39.4c0,0.6,0.1,1.6,0.5,3.2c0.2,0.8,0.7,1.6,1.5,2.4
						c0.6,0.6,1.8,1.6,4.4,2.5c1.6,0.6,4.5,1.3,9.8,1.3h71.9c1.3,0,2.7-0.3,4.2-1c1.8-0.8,3.5-1.8,5-3c1.4-1.1,2.6-2.3,3.4-3.6
						c0.8-1.1,0.8-1.7,0.8-2v-7.3h-34.5l-0.1,5.6c-0.6,2.8-2.3,5.1-4.8,6.6c-1.4,0.8-2.9,1.5-4.4,2c-1.5,0.5-3.1,0.8-4.6,0.9
						c-1.3,0.1-2.1,0.2-2.4,0.2c-2.9,0-5.6-0.7-8.2-1.9c-3.7-1.9-5.9-5.2-5.9-9.1v-34c0-4.3,2.1-7.9,5.7-9.8c2.5-1.3,5.3-2,8.2-2
						l0,0c3.3,0,6.4,0.5,9.2,1.5c4.6,1.6,7.3,5.6,7.3,10.6v1.6h34.5v-5.4l0,0c0,0-0.1-0.6-1-1.9c-1.1-1.5-2.5-3-4.2-4.5
						c-1.7-1.4-3.7-2.6-5.7-3.6c-1.7-0.8-3.2-1.2-4.5-1.2h-69.8c-1.7,0-3.3,0.4-4.9,1.2c-1.9,0.9-3.7,2.1-5.2,3.5
						c-1.6,1.5-3.1,3-4.3,4.7C821.3,572.7,820.8,573.7,820.5,574.4z"/>
				</g>
				<g>
					<path fill="#FFFFFF" d="M1074,635.5h-49.1c-4.6,0-8.3-1.3-11-3.7c-0.9-0.8-1.7-1.7-2.4-2.7v6.4h-78.7v-25.2h5.7
						c0.1-0.1,0.2-0.1,0.4-0.3c0.9-0.7,2-1.4,3.1-2.3c0.6-1.1,0.7-1.6,0.8-1.7c0-0.1,0.2-1,0.2-3.3V584c0-3-0.5-4.5-0.9-5.3
						c-0.1-0.1-0.8-1.4-4.2-3.3l-1.8-1.2c-2.2-1.5-3.3-3.5-3.3-5.8v-18.6h78.7v6.4c0.7-0.9,1.4-1.8,2.2-2.6
						c2.6-2.5,6.4-3.8,11.2-3.8h49.1v23.3l-4.6,1.2c-1.9,0.5-2.6,1.1-2.7,1.2c-0.7,0.7-1.2,1.4-1.6,2.2c-0.6,1.2-1.2,2.5-1.7,3.9
						c-0.7,2-1.7,3.9-2.9,5.9c-1.3,2-3,3.8-5.1,5.4c2.1,1.6,3.8,3.4,5.1,5.4c1.2,1.9,2.2,3.8,2.9,5.8c0.5,1.3,1,2.5,1.6,3.7
						c0.4,0.8,1,1.6,1.7,2.2c0.1,0.1,0.8,0.6,2.7,1.2l4.6,1.2V635.5z M1003.4,593.4l1.1,0.1c4.2,0.6,7.5,2.3,9.8,5.2
						c1.8,2.3,3.1,5,3.8,8c0.6,2.4,1,5.1,1.2,7.8c0.2,2,0.6,3.8,1.1,5.4c0.4,1.1,1,2,1.8,2.8c0.1,0.1,0.9,0.5,2.7,0.5h36.9v-2.2
						c-1.3-0.7-2.5-1.5-3.4-2.4c-1.7-1.6-3.1-3.4-4.1-5.4c-0.8-1.6-1.6-3.3-2.3-5.1c-0.4-1.1-1-2.2-1.7-3.4
						c-0.5-0.8-1.4-1.7-2.5-2.5c-0.8-0.6-2.3-1.4-5.3-2.2l-2-0.5l-5.8-7.3l6.1-6.3l1.7-0.4c3-0.8,4.5-1.6,5.2-2.2
						c1.2-0.9,2-1.7,2.6-2.6c0.7-1.1,1.3-2.2,1.7-3.4c0.7-1.9,1.4-3.6,2.3-5.3c1-2.1,2.4-3.9,4.1-5.5c1-0.9,2.1-1.7,3.5-2.4V562
						h-36.9c-2.1,0-2.8,0.4-2.8,0.4c-0.7,0.7-1.2,1.6-1.6,2.7c-0.5,1.8-0.9,3.7-1.1,5.8c-0.3,2.9-0.7,5.6-1.4,8.1
						c-0.8,3-2.1,5.7-3.8,7.9c-1.6,2-4.7,4.6-10.3,5l-0.8,0.1l-11.6-2.4v-6.6c0-4.2,0.6-7.5,1.7-10.1c1.1-2.5,2.5-4.5,4.1-6
						c0.7-0.6,1.3-1.2,2-1.6V562H945v3.4c3.9,2.3,6.6,4.9,8,7.8c1.5,2.9,2.2,6.5,2.2,10.8v18.8c0,2.7-0.2,4.8-0.6,6.4
						c-0.4,1.7-1.3,3.6-2.6,5.8l-0.6,1l-0.9,0.7c-1.7,1.4-3.3,2.5-4.7,3.5c-0.3,0.2-0.6,0.4-0.9,0.6v2.6h54.2v-1.8
						c-0.6-0.2-1.1-0.5-1.6-0.8c-2.2-1.3-3.8-3-4.8-5.2c-0.8-1.7-1.3-3.6-1.5-5.6c-0.1-1.5-0.2-2.8-0.2-4.1V604c0-1.9,0.2-4.8,2.1-7
						l1.4-1.6L1003.4,593.4z M1003.3,605.9c0,0.9,0,1.9,0.1,2.9c0,0.5,0.2,1,0.3,1.3c0.1,0,0.5,0.2,1.6,0.2h0.9
						c-0.1-0.3-0.1-0.5-0.2-0.8c-0.3-1.3-0.8-2.4-1.5-3.3c-0.1-0.1-0.4-0.3-0.9-0.5L1003.3,605.9z M1006.4,575.1
						c-0.2,0.1-0.5,0.4-0.8,0.7c-0.2,0.2-0.7,0.7-1.3,2.1c-0.1,0.2-0.3,0.7-0.4,1.7c0.6-0.1,0.8-0.3,0.8-0.3c0.7-0.9,1.2-2,1.6-3.4
						C1006.3,575.6,1006.4,575.3,1006.4,575.1z"/>
				</g>
			</g>
			<g>
				<g>
					<path d="M218.4,608.4c2.2-0.4,4.1-1,5.7-1.8c1.5-0.8,2.8-1.8,3.9-3.1c1.1-1.3,2.1-3,3-5.2l37.5-85.6h79.3l39.6,84.1
						c0.4,0.7,0.8,1.7,1.2,3c0.4,1.3,1.3,2.6,2.7,3.9c1.3,1.3,3.3,2.5,5.9,3.6c2.6,1.1,6.3,1.8,11.2,2v20.1H302.9v-19.8
						c3.6-0.9,6.5-1.9,8.6-3.2c2.2-1.3,3.2-3.4,3.2-6.5v-1.3c0-2-1.7-3.3-5-4c-3.3-0.6-6.8-1-10.4-1h-7.6c-6.3,0-11,0.3-14,1
						c-3.1,0.6-4.6,2.2-4.6,4.6c0,1.7,0.6,3.2,1.8,4.5c1.2,1.3,2.5,2.4,3.9,3.2c1.4,0.9,3.3,1.7,5.7,2.6v19.8h-74.4v-19.8
						C213.4,609.2,216.1,608.9,218.4,608.4z M291.6,557.1l-9.2,21.1h27l-10.2-21.1H291.6z"/>
				</g>
				<g>
					<path d="M443.1,616.9c2.3-0.5,4.3-1.5,6-3c1.8-1.4,3-3.1,3.7-4.9v-31.3c0-0.9-0.3-1.8-0.8-2.8c-0.5-1-1.1-1.8-1.8-2.5
						c-0.7-0.7-1.4-1.3-2.2-1.8c-0.8-0.4-1.5-0.7-2-0.7h-2.5c-0.9,0-1.7,0.3-2.5,0.9c-0.7,0.6-1.4,1.3-2,2.1
						c-0.6,0.8-1.1,1.7-1.7,2.5c-0.6,0.9-1.1,1.6-1.7,2.2h-17.5v-21.9h122.1v21.9h-17.5c-0.6-0.6-1.1-1.4-1.7-2.2
						c-0.6-0.9-1.1-1.7-1.7-2.5c-0.6-0.8-1.2-1.5-2-2.1c-0.7-0.6-1.6-0.9-2.5-0.9l-3.4,0.1l-4.2,3.7c-0.2,0.5-0.5,1.1-0.8,1.8
						c-0.3,0.6-0.5,1.4-0.8,2.2v30.7c0,3.1,0.9,5.1,2.7,6.1c1.8,1,4.5,1.7,8,2.4v12.5h-73.4V616.9z"/>
				</g>
				<g>
					<path d="M576.1,616.9c2.3-0.5,4.3-1.5,6-3c1.8-1.4,3-3.1,3.7-4.9v-31.3c0-0.9-0.3-1.8-0.8-2.8c-0.5-1-1.1-1.8-1.8-2.5
						c-0.7-0.7-1.4-1.3-2.2-1.8c-0.8-0.4-1.5-0.7-2-0.7h-2.5c-0.9,0-1.7,0.3-2.5,0.9c-0.7,0.6-1.4,1.3-2,2.1
						c-0.6,0.8-1.1,1.7-1.7,2.5c-0.6,0.9-1.1,1.6-1.7,2.2h-17.5v-21.9h122.1v21.9h-17.5c-0.6-0.6-1.1-1.4-1.7-2.2
						c-0.6-0.9-1.1-1.7-1.7-2.5c-0.6-0.8-1.2-1.5-2-2.1c-0.7-0.6-1.6-0.9-2.5-0.9l-3.4,0.1l-4.2,3.7c-0.2,0.5-0.5,1.1-0.8,1.8
						c-0.3,0.6-0.5,1.4-0.8,2.2v30.7c0,3.1,0.9,5.1,2.7,6.1c1.8,1,4.5,1.7,8,2.4v12.5h-73.4V616.9z"/>
				</g>
				<g>
					<path d="M686.6,616.2c1.4-0.3,2.6-0.7,3.6-1.2c1-0.5,1.8-1.2,2.5-2c0.7-0.8,1.3-1.9,1.9-3.3l23.6-54H768l25,53
						c0.2,0.5,0.5,1.1,0.8,1.9c0.3,0.8,0.8,1.6,1.7,2.4c0.8,0.8,2.1,1.6,3.7,2.2c1.6,0.7,4,1.1,7,1.3v12.6h-66.4v-12.5
						c2.3-0.5,4.1-1.2,5.4-2c1.4-0.8,2-2.2,2-4.1v-0.8c0-1.3-1-2.1-3.1-2.5c-2.1-0.4-4.3-0.6-6.5-0.6h-4.8c-4,0-6.9,0.2-8.8,0.6
						c-1.9,0.4-2.9,1.4-2.9,2.9c0,1.1,0.4,2,1.1,2.8c0.7,0.8,1.6,1.5,2.5,2c0.9,0.5,2.1,1.1,3.6,1.6v12.5h-46.9v-12.5
						C683.4,616.7,685.2,616.5,686.6,616.2z M732.7,583.8l-5.8,13.3h17l-6.5-13.3H732.7z"/>
				</g>
				<g>
					<path d="M817.3,567.8c1.5-2.1,3.2-4,5.2-5.8c2-1.8,4.2-3.2,6.6-4.4c2.4-1.2,5-1.8,7.6-1.8h69.8c2.1,0,4.5,0.6,7.1,1.8
						c2.5,1.2,4.9,2.7,7,4.4c2.2,1.8,3.9,3.6,5.4,5.6c1.4,2,2.1,3.8,2.1,5.4v11.5h-46.7v-7.7c0-2.4-1.1-4.1-3.2-4.8
						c-2.2-0.8-4.5-1.2-7.1-1.2c-1.9,0-3.7,0.4-5.3,1.3c-1.6,0.9-2.5,2.3-2.5,4.4v34c0,1.5,0.8,2.7,2.5,3.6c1.7,0.9,3.5,1.3,5.4,1.3
						c0.2,0,0.8,0,1.9-0.1c1-0.1,2.1-0.3,3.2-0.7c1.1-0.4,2.2-0.8,3.2-1.4c1-0.6,1.6-1.4,1.9-2.5v-10.5H928v13.5
						c0,1.7-0.6,3.5-1.9,5.4c-1.2,1.9-2.8,3.5-4.8,5c-1.9,1.5-4,2.7-6.3,3.7c-2.3,1-4.5,1.5-6.6,1.5h-71.9c-5,0-8.9-0.5-11.9-1.6
						c-2.9-1.1-5.2-2.4-6.7-4.1c-1.5-1.6-2.5-3.3-3-5.1c-0.5-1.8-0.7-3.3-0.7-4.7v-40.4C814.8,571.8,815.8,569.9,817.3,567.8z"/>
				</g>
				<g>
					<path d="M1003.5,585.7c2.7-0.2,4.7-1.1,5.9-2.6c1.2-1.6,2.2-3.5,2.7-5.6c0.6-2.2,1-4.5,1.2-7.1c0.2-2.5,0.7-4.9,1.4-7.1
						c0.7-2.2,1.8-4,3.2-5.4c1.5-1.4,3.8-2.1,7-2.1h43v12.5c-2.4,0.6-4.2,1.5-5.4,2.6c-1.2,1.1-2.2,2.4-2.9,3.9
						c-0.7,1.5-1.4,3-2,4.6c-0.6,1.6-1.3,3.1-2.3,4.6c-1,1.5-2.3,2.9-4.1,4.2c-1.8,1.3-4.2,2.4-7.4,3.2l-1.2,1.2l1.2,1.5
						c3.2,0.8,5.6,1.9,7.4,3.1c1.8,1.3,3.1,2.6,4.1,4.1c1,1.5,1.7,3,2.3,4.6c0.6,1.5,1.2,3,2,4.4c0.7,1.4,1.7,2.7,2.9,3.8
						c1.2,1.1,3,2,5.4,2.6v12.5h-43c-3.1,0-5.4-0.7-6.9-2.1c-1.5-1.4-2.7-3.2-3.4-5.2c-0.7-2.1-1.2-4.4-1.4-6.9
						c-0.2-2.5-0.6-4.8-1.1-7c-0.5-2.2-1.4-4.1-2.6-5.6c-1.2-1.6-3.2-2.6-5.8-2.9l-5.8,1.2c-0.5,0.5-0.7,1.6-0.7,3.1v1.9
						c0,1.1,0.1,2.3,0.2,3.5c0.1,1.3,0.4,2.4,0.9,3.5c0.5,1,1.3,1.9,2.5,2.6c1.1,0.7,2.7,1,4.6,1v12.9h-66.4v-12.9
						c1,0,2.2-0.5,3.5-1.4c1.3-0.9,2.7-2,4.3-3.3c1-1.7,1.7-3.1,2-4.2c0.3-1.1,0.4-2.7,0.4-4.9V584c0-3.4-0.5-6-1.5-8.1
						c-1-2-3.3-4-6.8-5.9c-0.2-0.2-0.6-0.4-1.1-0.8c-0.5-0.4-0.8-0.6-0.8-0.8v-12.5h66.4v12.4c0,0.4-0.4,0.7-1.2,1.1
						c-0.8,0.4-1.7,1-2.7,2c-1,0.9-1.9,2.3-2.7,4.1c-0.8,1.8-1.2,4.3-1.2,7.5v1.6L1003.5,585.7z"/>
				</g>
			</g>
		</g>
		<g>
			<g>
				<g>
					<path d="M408.6,505c1.6-0.3,2.9-0.7,4-1.3c1.1-0.5,2-1.3,2.7-2.2c0.8-0.9,1.4-2.1,2.1-3.6l26.3-60h55.6l27.8,59
						c0.3,0.5,0.5,1.2,0.8,2.1c0.3,0.9,0.9,1.8,1.9,2.7c0.9,0.9,2.3,1.7,4.2,2.5c1.8,0.8,4.4,1.2,7.8,1.4v14.1h-73.9v-13.9
						c2.5-0.6,4.5-1.4,6-2.3c1.5-0.9,2.3-2.4,2.3-4.5v-0.9c0-1.4-1.2-2.3-3.5-2.8c-2.3-0.5-4.8-0.7-7.3-0.7h-5.3
						c-4.4,0-7.7,0.2-9.8,0.7c-2.1,0.5-3.2,1.5-3.2,3.2c0,1.2,0.4,2.3,1.2,3.2c0.8,0.9,1.7,1.7,2.7,2.3c1,0.6,2.3,1.2,4,1.8v13.9
						h-52.2v-13.9C405.1,505.6,407.1,505.3,408.6,505z M460,469l-6.4,14.8h18.9l-7.2-14.8H460z"/>
				</g>
				<g>
					<path d="M589.4,506.6c0,1.1,0.5,1.9,1.6,2.5c1.1,0.6,2.3,0.9,3.6,0.9c0.2,0,0.6,0,1.4-0.1c0.8-0.1,1.6-0.2,2.4-0.5
						c0.8-0.3,1.6-0.6,2.4-1c0.8-0.4,1.2-1,1.4-1.8v-38.5h40.8v8.8c-0.7,0.3-1.5,0.7-2.4,1.3c-0.9,0.5-1.7,1.2-2.6,1.9
						c-0.8,0.7-1.6,1.4-2.1,2.2c-0.6,0.8-0.9,1.5-1,2.2v24.3c0,1.2-0.4,2.5-1.3,3.8c-0.9,1.3-2,2.5-3.3,3.5c-1.3,1-2.8,1.9-4.4,2.6
						c-1.6,0.7-3.2,1-4.7,1h-50.4c-3.5,0-6.3-0.4-8.3-1.1c-2-0.8-3.6-1.7-4.7-2.9c-1.1-1.1-1.8-2.3-2.1-3.6
						c-0.3-1.2-0.5-2.3-0.5-3.3v-24.5c-0.2-1.5-1.1-3-2.4-4.4c-1.4-1.4-2.8-2.4-4.1-3v-8.8h40.7V506.6z"/>
				</g>
				<g>
					<path d="M663.4,500.6c-1.7,0-3.4-0.5-4.9-1.5c-1.5-1-2.9-2.3-4.1-3.9c-1.2-1.6-2.1-3.3-2.8-5.3c-0.7-2-1-3.9-1-5.8
						c0-1.9,0.4-3.8,1.1-5.7c0.8-1.9,1.8-3.6,3.1-5.1c1.3-1.5,2.8-2.8,4.4-3.7c1.6-1,3.4-1.4,5.2-1.4h64.1v14.2h-12.6l-5.7-4.3
						h-18.8c-2.1,0-3.7,0.3-4.8,0.9c-1.2,0.6-1.7,1.8-1.7,3.6c0,3.2,1.6,4.9,4.8,4.9h27.9c1.3,0,2.8,0.5,4.3,1.4
						c1.5,1,2.9,2.2,4.2,3.8c1.3,1.6,2.3,3.3,3.2,5.3c0.8,2,1.2,4,1.2,6.1c0,1.1-0.3,2.6-0.8,4.4c-0.5,1.8-1.3,3.5-2.3,5.2
						c-1,1.7-2.3,3.1-3.9,4.3c-1.5,1.2-3.3,1.8-5.3,1.8h-66.1v-14.1h12.6l5.5,4.1h18.7c2.1,0,3.9-0.3,5.2-0.9c1.3-0.6,2-1.7,2-3.5
						c0-1.8-0.5-3.1-1.6-3.7c-1-0.6-2.5-1-4.4-1.1H663.4z"/>
				</g>
				<g>
					<path d="M755.4,510.9c1.6-0.4,3-1.1,4.2-2.1c1.2-1,2.1-2.2,2.6-3.4v-21.9c0-0.6-0.2-1.3-0.5-2c-0.4-0.7-0.8-1.3-1.2-1.8
						c-0.5-0.5-1-0.9-1.6-1.2c-0.6-0.3-1-0.5-1.4-0.5h-1.8c-0.6,0-1.2,0.2-1.7,0.6c-0.5,0.4-1,0.9-1.4,1.5c-0.4,0.6-0.8,1.2-1.2,1.8
						c-0.4,0.6-0.8,1.1-1.2,1.6h-12.3v-15.3h85.6v15.3h-12.3c-0.4-0.4-0.8-1-1.2-1.6c-0.4-0.6-0.8-1.2-1.2-1.8
						c-0.4-0.6-0.9-1.1-1.4-1.5c-0.5-0.4-1.1-0.6-1.7-0.6l-2.4,0.1l-3,2.6c-0.2,0.4-0.3,0.8-0.5,1.2c-0.2,0.4-0.4,1-0.5,1.5V505
						c0,2.2,0.6,3.6,1.9,4.2c1.3,0.7,3.1,1.2,5.6,1.7v8.8h-51.4V510.9z"/>
				</g>
				<g>
					<path d="M881.6,512v7.7h-50.5V512c0.6,0,1.3-0.2,2.2-0.6c0.9-0.4,1.8-0.9,2.7-1.4c0.9-0.6,1.6-1.2,2.3-1.8c0.7-0.6,1-1.2,1-1.7
						v-22c-0.2-0.8-0.5-1.5-1.1-2.3c-0.6-0.8-1.3-1.5-2.1-2.1c-0.8-0.7-1.7-1.3-2.6-1.8c-0.9-0.5-1.7-1-2.3-1.3v-8.8h50.5v8.8
						c-0.7,0.3-1.5,0.7-2.4,1.3c-0.9,0.5-1.8,1.1-2.6,1.8c-0.8,0.7-1.5,1.4-2.1,2.1c-0.6,0.8-0.9,1.5-1,2.3v22
						c0,0.5,0.3,1.1,0.9,1.7c0.6,0.6,1.4,1.2,2.3,1.8c0.9,0.6,1.8,1,2.7,1.4C880.3,511.8,881,512,881.6,512z"/>
				</g>
				<g>
					<path d="M941.4,468.2h40.8v8.8c-0.7,0.3-1.5,0.7-2.4,1.3c-0.9,0.5-1.7,1.2-2.6,1.9c-0.8,0.7-1.5,1.4-2.1,2.2
						c-0.6,0.8-0.9,1.5-1,2.2v35.2h-18.5l-25.8-17.4v17.4h-40.6V512c0.6,0,1.3-0.2,2.2-0.6c0.9-0.4,1.8-0.9,2.7-1.4
						c0.9-0.6,1.6-1.2,2.3-1.8c0.7-0.6,1-1.2,1-1.7v-22c-0.2-0.8-0.5-1.5-1.1-2.3c-0.6-0.8-1.3-1.5-2.1-2.1
						c-0.8-0.7-1.7-1.3-2.6-1.8c-0.9-0.5-1.7-1-2.3-1.3v-8.8h26.7l25.5,17.5V468.2z"/>
				</g>
				<g>
					<path d="M1002.7,500.6c-1.7,0-3.4-0.5-4.9-1.5c-1.5-1-2.9-2.3-4.1-3.9c-1.2-1.6-2.1-3.3-2.8-5.3c-0.7-2-1-3.9-1-5.8
						c0-1.9,0.4-3.8,1.1-5.7c0.8-1.9,1.8-3.6,3.1-5.1c1.3-1.5,2.8-2.8,4.4-3.7c1.6-1,3.4-1.4,5.2-1.4h64.1v14.2h-12.6l-5.7-4.3
						h-18.8c-2.1,0-3.7,0.3-4.8,0.9c-1.2,0.6-1.7,1.8-1.7,3.6c0,3.2,1.6,4.9,4.8,4.9h27.9c1.3,0,2.8,0.5,4.3,1.4
						c1.5,1,2.9,2.2,4.2,3.8c1.3,1.6,2.3,3.3,3.2,5.3c0.8,2,1.2,4,1.2,6.1c0,1.1-0.3,2.6-0.8,4.4c-0.5,1.8-1.3,3.5-2.3,5.2
						c-1,1.7-2.3,3.1-3.9,4.3c-1.5,1.2-3.3,1.8-5.3,1.8h-66.1v-14.1h12.6l5.5,4.1h18.7c2.1,0,3.9-0.3,5.2-0.9c1.3-0.6,2-1.7,2-3.5
						c0-1.8-0.5-3.1-1.6-3.7c-1-0.6-2.5-1-4.4-1.1H1002.7z"/>
				</g>
			</g>
			<g>
				<g>
					<path fill="#C5B280" d="M552.5,530.4H392.1V496l9.8-0.9c1.9-0.2,3.4-0.4,4.7-0.6c0.3-0.1,0.5-0.1,0.7-0.1
						c0.1-0.1,0.2-0.3,0.2-0.5l29.2-66.6h69.4l30.7,65.1c0.2,0.4,0.5,1,0.8,1.8c0.1,0.1,0.3,0.1,0.5,0.2c0,0,1.1,0.5,4.4,0.6
						l10.1,0.6V530.4z M483.7,509h38.2c-1.9-2-3.3-4.1-4.1-6.4c-0.1-0.4-0.2-0.7-0.3-0.9l-25-53h-41.8l-23.5,53.6
						c-1,2.4-2.2,4.5-3.7,6.2c-0.2,0.2-0.3,0.4-0.5,0.5h17.3c0,0,0,0-0.1-0.1c-2.6-2.9-4-6.5-4-10.4c0-3.1,1-5.9,2.7-8.2l13.9-32
						H472l17.6,36.3h-3.1c0.3,1.2,0.5,2.4,0.5,3.5v0.9C486.9,502.8,485.8,506.2,483.7,509z"/>
				</g>
				<g>
					<path fill="#C5B280" d="M621.2,530.4h-50.4c-4.8,0-8.8-0.6-12.1-1.8c-3.5-1.3-6.4-3.1-8.6-5.4c-2.5-2.5-4.1-5.4-4.9-8.4
						c-0.5-2.1-0.8-4-0.8-5.9v-21.9c-0.3-0.2-0.4-0.3-0.4-0.3l-5.8-3l-0.4-6.7v-19.5h115.8v26.5l-6.4,2.8c-0.3,0.1-0.7,0.4-1.1,0.6
						c-0.2,0.1-0.4,0.3-0.6,0.4v21c0,3.4-1.1,6.6-3.1,9.7c-1.5,2.2-3.3,4.2-5.5,5.9c-2.1,1.7-4.4,3-6.9,4.1
						C627.1,529.8,624.1,530.4,621.2,530.4z M612.6,509h8.5c0.1,0,0.2,0,0.5-0.2c0.7-0.3,1.4-0.7,1.9-1.1c0.2-0.2,0.4-0.3,0.6-0.5
						l0.1-23.9c0.2-1.5,0.6-3,1.2-4.4h-12.6l-0.2,30C612.6,508.9,612.6,508.9,612.6,509z M565.9,508.4c0.1,0,0.2,0.1,0.4,0.2
						c0.1,0,1.3,0.5,4.5,0.5h8.1c-0.1-0.8-0.2-1.6-0.2-2.4v-27.7h-13.9c0.5,1.2,0.8,2.5,1.1,3.8l0.1,1.7V508.4z"/>
				</g>
				<g>
					<path fill="#C5B280" d="M718,530.4h-76.8v-35.6h0.8c-0.2-0.5-0.4-1-0.6-1.5c-1.1-3.1-1.6-6.2-1.6-9.3c0-3.3,0.6-6.5,1.9-9.7
						c1.2-2.9,2.8-5.7,4.9-8.1c2.1-2.4,4.5-4.4,7.1-6c3.3-1.9,6.9-2.9,10.6-2.9h74.8v35.7h-0.6c0.1,0.2,0.2,0.5,0.3,0.7
						c1.4,3.3,2.1,6.8,2.1,10.3c0,2.2-0.4,4.6-1.2,7.4c-0.8,2.7-1.9,5.3-3.5,7.8c-1.8,2.8-4,5.3-6.6,7.2
						C726.4,529.1,722.3,530.4,718,530.4z M706.3,509h11c0.3-0.3,0.5-0.6,0.7-0.9c0.5-0.8,0.9-1.7,1.1-2.6c0.2-0.6,0.3-1.1,0.4-1.6
						c0-0.5-0.1-1.2-0.4-1.9c-0.4-1-1-1.9-1.6-2.7c-0.4-0.5-0.8-0.9-1.2-1.2h-11.2c1,2.1,1.6,4.5,1.6,7.2
						C706.7,506.6,706.5,507.8,706.3,509z M664,489.8h11.5c-1-2.1-1.6-4.6-1.6-7.3c0-1.3,0.1-2.5,0.4-3.7h-10
						c-0.4,0.3-0.9,0.8-1.4,1.4c-0.5,0.6-1,1.3-1.3,2.1c-0.2,0.6-0.4,1.2-0.4,1.7c0,0.7,0.1,1.5,0.4,2.3c0.3,0.9,0.7,1.6,1.2,2.3
						C663.3,489.1,663.6,489.5,664,489.8z"/>
				</g>
				<g>
					<path fill="#C5B280" d="M817.5,530.4h-72.9v-28l6.8-1.6v-6.6h-24.3v-36.8h107.1v36.8H810v6.4l7.5,1.3V530.4z M772.3,509H789
						c-0.3-1.2-0.4-2.5-0.4-3.9v-23l0.4-1.4c0.2-0.6,0.4-1.3,0.6-1.8h-17.4c0.5,1.5,0.8,3,0.8,4.6v23.9L772.3,509z"/>
				</g>
				<g>
					<path fill="#C5B280" d="M892.3,530.4h-71.9v-29.2h8.2v-13.4c-0.2-0.2-0.4-0.3-0.6-0.4c-0.6-0.4-1.2-0.7-1.7-0.9l-5.9-3v-26.1
						h71.9v26.5l-6.4,2.8c-0.4,0.2-0.8,0.4-1.4,0.7c-0.2,0.1-0.3,0.2-0.5,0.3v13.5h8.2V530.4z M849.8,509h13.1
						c-0.2-0.9-0.3-1.8-0.3-2.5l0.1-23.1c0.2-1.5,0.6-3.1,1.2-4.5h-15.2c0.5,1.1,0.9,2.2,1.1,3.4l0.2,2.2v22
						C850,507.2,850,508.1,849.8,509z"/>
				</g>
				<g>
					<path fill="#C5B280" d="M984.8,530.4h-32.5l-11.8-8v8h-62.1v-29.2h8.2v-13.4c-0.2-0.2-0.4-0.3-0.6-0.4
						c-0.6-0.4-1.2-0.7-1.7-0.9l-5.9-3v-26.1h40.7l11.4,7.9v-7.9h62.3v26.5l-6.4,2.8c-0.3,0.1-0.7,0.4-1.1,0.6
						c-0.2,0.1-0.4,0.3-0.6,0.4V530.4z M958.9,509h4.4l0.1-25.7c0.2-1.5,0.6-3,1.2-4.4h-12.6v25.5L958.9,509z M907.9,509h11.2v-25.6
						l-6.5-4.5h-5.8c0.5,1.1,0.9,2.2,1.1,3.4l0.2,2.2v22C908.1,507.2,908.1,508.1,907.9,509z"/>
				</g>
				<g>
					<path fill="#C5B280" d="M1057.2,530.4h-76.8v-35.6h0.8c-0.2-0.5-0.4-1-0.6-1.5c-1.1-3.1-1.6-6.2-1.6-9.3c0-3.3,0.6-6.5,1.9-9.7
						c1.2-2.9,2.8-5.7,4.9-8.1c2.1-2.4,4.5-4.4,7.1-6c3.3-1.9,6.9-2.9,10.6-2.9h74.8v35.7h-0.6c0.1,0.2,0.2,0.5,0.3,0.7
						c1.4,3.3,2.1,6.8,2.1,10.3c0,2.2-0.4,4.6-1.2,7.4c-0.8,2.7-1.9,5.3-3.5,7.8c-1.8,2.8-4,5.3-6.6,7.2
						C1065.6,529.1,1061.5,530.4,1057.2,530.4z M1045.5,509h11c0.3-0.3,0.5-0.6,0.7-0.9c0.5-0.8,0.9-1.7,1.1-2.6
						c0.2-0.6,0.3-1.1,0.4-1.6c0-0.5-0.1-1.2-0.4-1.9c-0.4-1-1-1.9-1.6-2.7c-0.4-0.5-0.8-0.9-1.2-1.2h-11.2c1,2.1,1.6,4.5,1.6,7.2
						C1045.9,506.6,1045.8,507.8,1045.5,509z M1003.3,489.8h11.5c-1-2.1-1.6-4.6-1.6-7.3c0-1.3,0.1-2.5,0.4-3.7h-10
						c-0.4,0.3-0.9,0.8-1.4,1.4c-0.5,0.6-1,1.3-1.3,2.1c-0.2,0.6-0.4,1.2-0.4,1.7c0,0.7,0.1,1.5,0.4,2.3c0.3,0.9,0.7,1.6,1.2,2.3
						C1002.5,489.1,1002.9,489.5,1003.3,489.8z"/>
				</g>
			</g>
			<g>
				<g>
					<path fill="#FFFFFF" d="M546.1,524h-82.5v-21.6l3.3-0.8c2.1-0.5,3.7-1.1,4.8-1.8c0,0,0.1-0.1,0.2-0.4c-2-0.4-4.2-0.6-6.4-0.6
						h-5.3c-4.2,0-6.6,0.2-8.1,0.4c0.4,0.4,0.8,0.7,1.2,1c0.6,0.3,1.5,0.8,3.3,1.5l2.8,1V524h-60.7v-22.1l3.9-0.4
						c2.1-0.2,3.9-0.4,5.3-0.7c1.2-0.2,2.1-0.5,2.8-0.9c0.6-0.3,1-0.7,1.4-1.1c0.3-0.4,0.8-1.1,1.4-2.5l27.4-62.7H502l28.9,61.4
						c0.3,0.5,0.6,1.4,1,2.5c0,0.1,0.2,0.4,0.8,1c0.3,0.3,1.1,0.9,2.8,1.6c0.9,0.4,2.8,0.9,6.5,1.1l4,0.2V524z M472.2,515.4h65.3
						v-5.9c-2-0.3-3.8-0.8-5.2-1.4c-2.3-1-4.1-2.1-5.5-3.4c-1.4-1.4-2.4-2.9-3-4.4c-0.2-0.7-0.4-1.2-0.6-1.6l-26.7-56.6h-50
						l-25.1,57.5c-0.8,1.9-1.7,3.4-2.7,4.7c-1.1,1.3-2.5,2.5-4.1,3.3c-1.4,0.7-3.1,1.3-5.1,1.7c-0.7,0.1-1.5,0.3-2.3,0.4v5.8h43.6
						v-6.8c-0.7-0.3-1.3-0.7-1.9-1c-1.3-0.8-2.6-1.8-3.7-3.1c-1.5-1.7-2.3-3.8-2.3-6.1c0-3.8,2.5-6.6,6.6-7.4
						c2.4-0.5,5.9-0.8,10.7-0.8h5.3c2.8,0,5.5,0.3,8.1,0.8c6.3,1.2,7,5.3,7,7v0.9c0,3.6-1.5,6.5-4.4,8.2c-1.1,0.7-2.5,1.3-4,1.8
						V515.4z M479.3,488.2H447l10.2-23.4h10.8L479.3,488.2z M460.1,479.6h5.5l-2.9-6L460.1,479.6z"/>
				</g>
				<g>
					<path fill="#FFFFFF" d="M621.2,524h-50.4c-4,0-7.2-0.5-9.8-1.4c-2.6-1-4.7-2.3-6.3-3.9c-1.7-1.7-2.7-3.6-3.2-5.5
						c-0.4-1.6-0.6-3-0.6-4.3v-24c-0.2-0.5-0.6-1.2-1.2-1.8c-1-1-2-1.8-2.9-2.2l-2.5-1.2v-15.8h49.3v41.7c0.3,0.1,0.6,0.1,0.9,0.1
						l1-0.1c0.5,0,1-0.1,1.5-0.3c0.2-0.1,0.5-0.2,0.7-0.3v-41.2h49.4v15.9l-2.6,1.1c-0.6,0.3-1.2,0.6-1.9,1
						c-0.7,0.4-1.4,0.9-2.1,1.5c-0.6,0.5-1.1,1-1.5,1.5l-0.1,23.9c0,2.1-0.7,4.1-2,6.1c-1.1,1.7-2.5,3.2-4.2,4.5
						c-1.6,1.3-3.4,2.4-5.4,3.2C625.4,523.5,623.2,524,621.2,524z M552.9,474.5c1,0.7,1.9,1.5,2.9,2.4c2,2,3.2,4.3,3.6,6.7l0.1,0.7
						v24.5c0,0.4,0.1,1.1,0.3,2.2c0.1,0.5,0.5,1.1,1.1,1.6c0.6,0.7,1.7,1.3,3.1,1.8c1.1,0.4,3.1,0.9,6.8,0.9h50.4
						c0.9,0,1.9-0.2,3-0.7c1.3-0.5,2.4-1.2,3.4-2c1-0.8,1.8-1.6,2.4-2.6c0.5-0.8,0.6-1.2,0.6-1.4v-24.3c0.2-2,0.8-3.4,1.9-4.8
						c0.8-1,1.7-1.9,2.8-2.8c1-0.8,2-1.6,3.1-2.2c0.1-0.1,0.2-0.1,0.4-0.2v-1.9h-32.3l-0.1,35.1c-0.4,2-1.6,3.6-3.5,4.6
						c-1,0.6-2.1,1-3.2,1.4c-1.1,0.3-2.2,0.6-3.3,0.6c-0.9,0.1-1.5,0.1-1.7,0.1c-2.1,0-4-0.5-5.7-1.5c-2.4-1.4-3.8-3.6-3.8-6.3
						v-34.1h-32.1V474.5z"/>
				</g>
				<g>
					<path fill="#FFFFFF" d="M718,524h-70.4v-22.7h6.8c-1.2-1-2.4-2.2-3.4-3.5c-1.5-1.9-2.6-4.1-3.5-6.5c-0.8-2.4-1.2-4.8-1.2-7.2
						c0-2.4,0.5-4.9,1.4-7.3c0.9-2.3,2.2-4.4,3.8-6.3c1.6-1.9,3.5-3.4,5.5-4.6c2.3-1.3,4.8-2,7.3-2h68.4v22.8h-6.8
						c1.1,0.9,2.2,2,3.2,3.2c1.5,1.9,2.8,4,3.8,6.4c1.1,2.5,1.6,5.2,1.6,7.8c0,1.6-0.3,3.4-0.9,5.6c-0.6,2.1-1.5,4.2-2.8,6.2
						c-1.3,2.1-3,4-4.9,5.5C723.6,523.1,720.9,524,718,524z M656.2,515.4H718c1,0,1.9-0.3,2.7-0.9c1.1-0.9,2.1-1.9,2.8-3.1
						c0.8-1.3,1.4-2.7,1.9-4.1c0.5-1.8,0.6-2.8,0.6-3.2c0-1.5-0.3-3-0.9-4.5c-0.7-1.6-1.5-3-2.5-4.3c-1-1.2-2-2.1-3.1-2.8
						c-0.8-0.5-1.5-0.8-2-0.8h-27.9c-5.6,0-9.1-3.5-9.1-9.2c0-4.6,2.5-6.6,4-7.4c1.8-0.9,4-1.4,6.8-1.4h20.2l5.7,4.3h6.9v-5.6h-59.8
						c-1.1,0-2,0.3-3,0.8c-1.2,0.7-2.3,1.7-3.3,2.8c-1,1.2-1.8,2.5-2.4,3.9c-0.6,1.4-0.8,2.7-0.8,4.1c0,1.4,0.3,2.9,0.8,4.4
						c0.5,1.5,1.2,2.9,2.1,4.1c0.9,1.2,1.9,2.1,3.1,2.9c0.9,0.6,1.7,0.8,2.6,0.8H690c2.9,0.2,5,0.7,6.6,1.7c1.7,1,3.7,3.1,3.7,7.4
						c0,3.5-1.7,6.2-4.6,7.5c-1.9,0.8-4.2,1.2-6.9,1.2h-20.1l-5.5-4.1h-6.9V515.4z M671.4,505.4h17.3c1.3,0,2.3-0.1,2.9-0.3
						c-0.4-0.1-1-0.2-1.9-0.3l-19,0L671.4,505.4z M689.1,483.1c0.1,0,0.2,0,0.4,0h20.2l-1-0.8h-17.4c-1.1,0-1.8,0.1-2.2,0.2
						C689.1,482.8,689.1,483,689.1,483.1C689.1,483.1,689.1,483.1,689.1,483.1z"/>
				</g>
				<g>
					<path fill="#FFFFFF" d="M811.1,524h-60v-16.4l3.3-0.8c0.9-0.2,1.8-0.6,2.5-1.2c0.4-0.4,0.8-0.7,1-1.1v-20.9
						c-0.2-0.3-0.4-0.5-0.6-0.8c-0.1-0.1-0.3-0.3-0.4-0.4h-0.6c-0.1,0.1-0.1,0.2-0.2,0.2l-1.2,1.7c-0.5,0.8-1,1.5-1.6,2l-1.3,1.4
						h-18.5v-23.9h94.2v23.9h-18.5l-1.3-1.4c-0.5-0.6-1.1-1.3-1.6-2.1l-1.1-1.6c-0.1-0.1-0.1-0.2-0.2-0.2l-0.1,0l-1.3,1.3
						c-0.1,0.1-0.1,0.3-0.2,0.4V505c0,0.3,0,0.5,0,0.6c0.7,0.3,1.9,0.7,3.9,1l3.5,0.6V524z M759.6,515.4h42.9v-1.1
						c-1.3-0.4-2.4-0.8-3.3-1.3c-1.6-0.8-4.2-2.9-4.2-8l0.1-22.7c0.2-0.8,0.5-1.5,0.8-2.1l0.9-2.1l4.9-4.2l3.9-0.2c0,0,0,0,0,0
						c1.8,0,3.3,0.5,4.6,1.6c0.9,0.7,1.6,1.5,2.2,2.4c0.3,0.5,0.7,1,1,1.5h5.8v-6.8h-77v6.8h5.8c0.4-0.5,0.7-1,1-1.5
						c0.6-0.9,1.3-1.7,2.2-2.4c1.3-1,2.8-1.6,4.4-1.6h1.8c1.2,0,2.3,0.3,3.6,1c0.9,0.5,1.8,1.2,2.5,2c0.8,0.8,1.4,1.7,1.9,2.7
						c0.7,1.3,1,2.6,1,4l-0.3,23.4c-0.7,2-2,3.7-3.8,5.2c-0.8,0.7-1.7,1.3-2.7,1.8V515.4z"/>
				</g>
				<g>
					<path fill="#FFFFFF" d="M885.9,524h-59.1v-16.3h4.2c0,0,0.2-0.1,0.6-0.2c0.7-0.3,1.3-0.6,2-1.1c0.5-0.3,1-0.7,1.4-1v-20.2
						c0-0.1-0.1-0.2-0.2-0.3c-0.4-0.5-0.9-1-1.4-1.4c-0.7-0.6-1.4-1-2.1-1.5c-0.8-0.5-1.5-0.9-2.1-1.1l-2.4-1.2v-15.7h59.1v15.8
						l-2.5,1.1c-0.6,0.3-1.3,0.6-2,1.1c-0.7,0.4-1.4,0.9-2.1,1.5c-0.6,0.5-1.1,0.9-1.5,1.4l-0.1,20.6c0.4,0.3,0.8,0.6,1.3,0.9
						c0.7,0.4,1.4,0.8,2.1,1.1c0.5,0.2,0.7,0.3,0.8,0.3h4.3l-0.2,4.3V524z M835.4,515.4l41.9-0.2c-1-0.4-1.9-0.9-2.9-1.6
						c-1.2-0.8-2.2-1.6-3.1-2.4c-1.5-1.4-2.2-3.1-2.2-4.8v-22c0.2-2,0.8-3.5,1.9-4.9c0.8-1.1,1.8-2,2.9-2.9c1-0.8,2-1.5,3.1-2.1
						c0.1-0.1,0.2-0.1,0.3-0.2v-1.9h-41.9v1.9c0.1,0,0.1,0.1,0.2,0.1c1.1,0.6,2.1,1.4,3.1,2.2c1.1,0.9,2,1.8,2.8,2.8
						c1,1.3,1.7,2.7,2,4.1l0.1,0.9v22c0,1.7-0.8,3.4-2.4,4.8c-0.8,0.8-1.8,1.5-2.9,2.3c-1,0.6-2,1.2-2.9,1.6V515.4z"/>
				</g>
				<g>
					<path fill="#FFFFFF" d="M978.4,524h-24.1l-20.2-13.7V524h-49.2v-16.3h4.2c0,0,0.2-0.1,0.6-0.2c0.7-0.3,1.3-0.6,2-1.1
						c0.5-0.3,1-0.7,1.4-1v-20.2c0-0.1-0.1-0.2-0.2-0.3c-0.4-0.5-0.9-1-1.4-1.4c-0.7-0.6-1.4-1-2.1-1.5c-0.8-0.5-1.5-0.9-2.1-1.1
						l-2.4-1.2v-15.7h32.3l19.9,13.7v-13.7h49.4v15.9l-2.6,1.1c-0.6,0.3-1.2,0.6-1.9,1c-0.7,0.4-1.4,0.9-2.1,1.5
						c-0.6,0.5-1.1,1-1.5,1.5L978.4,524z M957,515.4h12.9v-31c0.2-2,0.8-3.4,1.9-4.8c0.8-1,1.7-1.9,2.8-2.8c1-0.8,2-1.6,3.1-2.2
						c0.1-0.1,0.2-0.1,0.4-0.2v-1.9h-32.3v21.4l-31.1-21.4h-21.1v1.9c0.1,0,0.1,0.1,0.2,0.1c1.1,0.6,2.1,1.4,3.1,2.2
						c1.1,0.9,2,1.8,2.8,2.8c1,1.3,1.7,2.7,2,4.1l0.1,0.9v22c0,1.7-0.8,3.4-2.4,4.8c-0.8,0.8-1.8,1.5-2.9,2.3c-1,0.6-2,1.2-2.9,1.6
						v0.2h32v-21.2L957,515.4z"/>
				</g>
				<g>
					<path fill="#FFFFFF" d="M1057.2,524h-70.4v-22.7h6.8c-1.2-1-2.4-2.2-3.4-3.5c-1.5-1.9-2.6-4.1-3.5-6.5
						c-0.8-2.4-1.2-4.8-1.2-7.2c0-2.4,0.5-4.9,1.4-7.3c0.9-2.3,2.2-4.4,3.8-6.3c1.6-1.9,3.5-3.4,5.5-4.6c2.3-1.3,4.8-2,7.3-2h68.4
						v22.8h-6.8c1.1,0.9,2.2,2,3.2,3.2c1.5,1.9,2.8,4,3.8,6.4c1.1,2.5,1.6,5.2,1.6,7.8c0,1.6-0.3,3.4-0.9,5.6
						c-0.6,2.1-1.6,4.2-2.8,6.2c-1.3,2.1-3,4-4.9,5.5C1062.8,523.1,1060.2,524,1057.2,524z M995.4,515.4h61.8c1,0,1.9-0.3,2.7-0.9
						c1.1-0.9,2.1-1.9,2.8-3.1c0.8-1.3,1.4-2.7,1.9-4.1c0.5-1.8,0.6-2.8,0.6-3.2c0-1.5-0.3-3-0.9-4.5c-0.7-1.6-1.5-3-2.5-4.3
						c-1-1.2-2-2.1-3.1-2.8c-0.8-0.5-1.5-0.8-2-0.8h-27.9c-5.6,0-9.1-3.5-9.1-9.2c0-4.6,2.5-6.6,4-7.4c1.8-0.9,4-1.4,6.8-1.4h20.2
						l5.7,4.3h6.9v-5.6h-59.8c-1.1,0-2,0.3-3,0.8c-1.2,0.7-2.3,1.7-3.3,2.8c-1,1.2-1.8,2.5-2.4,3.9c-0.6,1.4-0.8,2.7-0.8,4.1
						c0,1.4,0.3,2.9,0.8,4.4c0.5,1.5,1.2,2.9,2.1,4.1c0.9,1.2,1.9,2.1,3.1,2.9c0.9,0.6,1.7,0.8,2.6,0.8h26.6c2.9,0.2,5,0.7,6.6,1.7
						c1.7,1,3.7,3.1,3.7,7.4c0,3.5-1.7,6.2-4.6,7.5c-1.9,0.8-4.2,1.2-6.9,1.2h-20.1l-5.5-4.1h-6.9V515.4z M1010.7,505.4h17.3
						c1.3,0,2.3-0.1,2.9-0.3c-0.4-0.1-1-0.2-1.9-0.3l-19,0L1010.7,505.4z M1028.4,483.1c0.1,0,0.2,0,0.4,0h20.2l-1-0.8h-17.4
						c-1.1,0-1.8,0.1-2.2,0.2C1028.3,482.8,1028.3,483,1028.4,483.1C1028.4,483.1,1028.4,483.1,1028.4,483.1z"/>
				</g>
			</g>
			<g>
				<g>
					<path d="M408.6,505c1.6-0.3,2.9-0.7,4-1.3c1.1-0.5,2-1.3,2.7-2.2c0.8-0.9,1.4-2.1,2.1-3.6l26.3-60h55.6l27.8,59
						c0.3,0.5,0.5,1.2,0.8,2.1c0.3,0.9,0.9,1.8,1.9,2.7c0.9,0.9,2.3,1.7,4.2,2.5c1.8,0.8,4.4,1.2,7.8,1.4v14.1h-73.9v-13.9
						c2.5-0.6,4.5-1.4,6-2.3c1.5-0.9,2.3-2.4,2.3-4.5v-0.9c0-1.4-1.2-2.3-3.5-2.8c-2.3-0.5-4.8-0.7-7.3-0.7h-5.3
						c-4.4,0-7.7,0.2-9.8,0.7c-2.1,0.5-3.2,1.5-3.2,3.2c0,1.2,0.4,2.3,1.2,3.2c0.8,0.9,1.7,1.7,2.7,2.3c1,0.6,2.3,1.2,4,1.8v13.9
						h-52.2v-13.9C405.1,505.6,407.1,505.3,408.6,505z M460,469l-6.4,14.8h18.9l-7.2-14.8H460z"/>
				</g>
				<g>
					<path d="M589.4,506.6c0,1.1,0.5,1.9,1.6,2.5c1.1,0.6,2.3,0.9,3.6,0.9c0.2,0,0.6,0,1.4-0.1c0.8-0.1,1.6-0.2,2.4-0.5
						c0.8-0.3,1.6-0.6,2.4-1c0.8-0.4,1.2-1,1.4-1.8v-38.5h40.8v8.8c-0.7,0.3-1.5,0.7-2.4,1.3c-0.9,0.5-1.7,1.2-2.6,1.9
						c-0.8,0.7-1.6,1.4-2.1,2.2c-0.6,0.8-0.9,1.5-1,2.2v24.3c0,1.2-0.4,2.5-1.3,3.8c-0.9,1.3-2,2.5-3.3,3.5c-1.3,1-2.8,1.9-4.4,2.6
						c-1.6,0.7-3.2,1-4.7,1h-50.4c-3.5,0-6.3-0.4-8.3-1.1c-2-0.8-3.6-1.7-4.7-2.9c-1.1-1.1-1.8-2.3-2.1-3.6
						c-0.3-1.2-0.5-2.3-0.5-3.3v-24.5c-0.2-1.5-1.1-3-2.4-4.4c-1.4-1.4-2.8-2.4-4.1-3v-8.8h40.7V506.6z"/>
				</g>
				<g>
					<path d="M663.4,500.6c-1.7,0-3.4-0.5-4.9-1.5c-1.5-1-2.9-2.3-4.1-3.9c-1.2-1.6-2.1-3.3-2.8-5.3c-0.7-2-1-3.9-1-5.8
						c0-1.9,0.4-3.8,1.1-5.7c0.8-1.9,1.8-3.6,3.1-5.1c1.3-1.5,2.8-2.8,4.4-3.7c1.6-1,3.4-1.4,5.2-1.4h64.1v14.2h-12.6l-5.7-4.3
						h-18.8c-2.1,0-3.7,0.3-4.8,0.9c-1.2,0.6-1.7,1.8-1.7,3.6c0,3.2,1.6,4.9,4.8,4.9h27.9c1.3,0,2.8,0.5,4.3,1.4
						c1.5,1,2.9,2.2,4.2,3.8c1.3,1.6,2.3,3.3,3.2,5.3c0.8,2,1.2,4,1.2,6.1c0,1.1-0.3,2.6-0.8,4.4c-0.5,1.8-1.3,3.5-2.3,5.2
						c-1,1.7-2.3,3.1-3.9,4.3c-1.5,1.2-3.3,1.8-5.3,1.8h-66.1v-14.1h12.6l5.5,4.1h18.7c2.1,0,3.9-0.3,5.2-0.9c1.3-0.6,2-1.7,2-3.5
						c0-1.8-0.5-3.1-1.6-3.7c-1-0.6-2.5-1-4.4-1.1H663.4z"/>
				</g>
				<g>
					<path d="M755.4,510.9c1.6-0.4,3-1.1,4.2-2.1c1.2-1,2.1-2.2,2.6-3.4v-21.9c0-0.6-0.2-1.3-0.5-2c-0.4-0.7-0.8-1.3-1.2-1.8
						c-0.5-0.5-1-0.9-1.6-1.2c-0.6-0.3-1-0.5-1.4-0.5h-1.8c-0.6,0-1.2,0.2-1.7,0.6c-0.5,0.4-1,0.9-1.4,1.5c-0.4,0.6-0.8,1.2-1.2,1.8
						c-0.4,0.6-0.8,1.1-1.2,1.6h-12.3v-15.3h85.6v15.3h-12.3c-0.4-0.4-0.8-1-1.2-1.6c-0.4-0.6-0.8-1.2-1.2-1.8
						c-0.4-0.6-0.9-1.1-1.4-1.5c-0.5-0.4-1.1-0.6-1.7-0.6l-2.4,0.1l-3,2.6c-0.2,0.4-0.3,0.8-0.5,1.2c-0.2,0.4-0.4,1-0.5,1.5V505
						c0,2.2,0.6,3.6,1.9,4.2c1.3,0.7,3.1,1.2,5.6,1.7v8.8h-51.4V510.9z"/>
				</g>
				<g>
					<path d="M881.6,512v7.7h-50.5V512c0.6,0,1.3-0.2,2.2-0.6c0.9-0.4,1.8-0.9,2.7-1.4c0.9-0.6,1.6-1.2,2.3-1.8c0.7-0.6,1-1.2,1-1.7
						v-22c-0.2-0.8-0.5-1.5-1.1-2.3c-0.6-0.8-1.3-1.5-2.1-2.1c-0.8-0.7-1.7-1.3-2.6-1.8c-0.9-0.5-1.7-1-2.3-1.3v-8.8h50.5v8.8
						c-0.7,0.3-1.5,0.7-2.4,1.3c-0.9,0.5-1.8,1.1-2.6,1.8c-0.8,0.7-1.5,1.4-2.1,2.1c-0.6,0.8-0.9,1.5-1,2.3v22
						c0,0.5,0.3,1.1,0.9,1.7c0.6,0.6,1.4,1.2,2.3,1.8c0.9,0.6,1.8,1,2.7,1.4C880.3,511.8,881,512,881.6,512z"/>
				</g>
				<g>
					<path d="M941.4,468.2h40.8v8.8c-0.7,0.3-1.5,0.7-2.4,1.3c-0.9,0.5-1.7,1.2-2.6,1.9c-0.8,0.7-1.5,1.4-2.1,2.2
						c-0.6,0.8-0.9,1.5-1,2.2v35.2h-18.5l-25.8-17.4v17.4h-40.6V512c0.6,0,1.3-0.2,2.2-0.6c0.9-0.4,1.8-0.9,2.7-1.4
						c0.9-0.6,1.6-1.2,2.3-1.8c0.7-0.6,1-1.2,1-1.7v-22c-0.2-0.8-0.5-1.5-1.1-2.3c-0.6-0.8-1.3-1.5-2.1-2.1
						c-0.8-0.7-1.7-1.3-2.6-1.8c-0.9-0.5-1.7-1-2.3-1.3v-8.8h26.7l25.5,17.5V468.2z"/>
				</g>
				<g>
					<path d="M1002.7,500.6c-1.7,0-3.4-0.5-4.9-1.5c-1.5-1-2.9-2.3-4.1-3.9c-1.2-1.6-2.1-3.3-2.8-5.3c-0.7-2-1-3.9-1-5.8
						c0-1.9,0.4-3.8,1.1-5.7c0.8-1.9,1.8-3.6,3.1-5.1c1.3-1.5,2.8-2.8,4.4-3.7c1.6-1,3.4-1.4,5.2-1.4h64.1v14.2h-12.6l-5.7-4.3
						h-18.8c-2.1,0-3.7,0.3-4.8,0.9c-1.2,0.6-1.7,1.8-1.7,3.6c0,3.2,1.6,4.9,4.8,4.9h27.9c1.3,0,2.8,0.5,4.3,1.4
						c1.5,1,2.9,2.2,4.2,3.8c1.3,1.6,2.3,3.3,3.2,5.3c0.8,2,1.2,4,1.2,6.1c0,1.1-0.3,2.6-0.8,4.4c-0.5,1.8-1.3,3.5-2.3,5.2
						c-1,1.7-2.3,3.1-3.9,4.3c-1.5,1.2-3.3,1.8-5.3,1.8h-66.1v-14.1h12.6l5.5,4.1h18.7c2.1,0,3.9-0.3,5.2-0.9c1.3-0.6,2-1.7,2-3.5
						c0-1.8-0.5-3.1-1.6-3.7c-1-0.6-2.5-1-4.4-1.1H1002.7z"/>
				</g>
			</g>
		</g>
	</g>
</g>
</svg>
