<?xml version="1.0" encoding="utf-8"?>
<!-- Generator: Adobe Illustrator 18.1.1, SVG Export Plug-In . SVG Version: 6.00 Build 0)  -->
<svg version="1.1" id="Layer_1" xmlns="http://www.w3.org/2000/svg" xmlns:xlink="http://www.w3.org/1999/xlink" x="0px" y="0px"
	 viewBox="0 0 1280 720" enable-background="new 0 0 1280 720" xml:space="preserve">
<g>
	<path fill="#3197CE" d="M1005.2,148.7c0,0,18.8-9.4,19.4-17.1c0,0-43-54.2-150.8-80.1c0,0-78.9-20-170.8-3.5
		c0,0-98.9-46.5-210.3-4.1l43,15.3l2.4,5.9c0,0-63,14.1-113.7,50.6c-50.6,36.5-53.6,88.3-53.6,88.3s-21.8,11.2-25.3,30.6
		c-3.5,19.4,25.3,14.7,25.3,14.7s-11.2,11.8-13,33.6c0,0-58.3,38.9-105.4,110.1l98.9-44.2c0,0-25.3,19.4-11.8,37.1
		c13.5,17.7,63.6-5.9,63.6-5.9s-49.5,26.5-66,48.9c-16.5,22.4-23,45.9-10,77.2c0,0-10.4,15.3-20.4,48.7c-10,33.4-6.6,69.1-6.6,69.1
		s-25.9,9-45.9,13.7l-17.5,35.7c0,0,39.6,22.5,93.9,9.6l6.1,2.9l5-10.7l6.4,4.3l2.1-10l5,5l3.9-9.3l6.4,3.2l3.2-9.3l6.4,2.1
		l2.9-13.6l4.3,1.4c0,0,18.2-22.2,33.9-60.4c0,0,60.7-18.2,101.8-31.1c41.1-12.9,85-26.8,85-26.8l5.7-5.4c0,0,4.6,6.8,6.1,8.6
		l2.5-1.4v5l6.4-1.1l0.4,6.1l5.7-1.8l0.7,7.1l4.3-4.3l0.4,4.6l4.6-3.6l0.7,5l5.4-3.9l0.4,6.8c0,0,29.3,1.8,53.9-11.8
		c24.6-13.6,46.4-35,52.9-51.1l29.7-10.4l-12.1,30c0,0,83.2-26.4,121.8-57.9c38.6-31.4,36.4-56.4,34.3-78.6l-7.1-8.6
		c0,0,7.9-6.8,13.2-9.6c5.4-2.9,12.1-6.4,12.1-6.4l18.6-39.6l-32.9,3.2c0,0,20-49.6,16.1-84.7c0,0-15.7,44.6-52.1,77.5
		c0,0-16.8,20.4-52.9,30.4l4.3-11.4c0,0,28.2-13.2,51.1-35.7c22.9-22.5,38.6-52.9,35.7-87.9c0,0,42.2-2.9,66.8-16.1
		c24.6-13.2,25.4-39.6,25.4-39.6S1008,148.4,1005.2,148.7z"/>
</g>
<g>
	<path fill="#1D365B" d="M773.2,303.5c0,0,38.7-4.2,60.9-45.3c21.2-39.3-5.6-61.3-5.6-61.3s-3.5-3,3-3c6.5,0,61.3-1.3,103.6-3
		c42.3-1.7,77.3-16.8,80.3-36.7l-30.7,5.2h-6l4.7-8.2c0,0,28.1-10.4,31.5-17.7c0,0-1.7-2.6-13.4-12.5C990,111,938.6,72.1,859.2,57
		c-79.4-15.1-114.8-7.8-156.3,0c0,0-28.9-19.4-91.5-23.7c-62.6-4.3-94.6,11.7-94.6,11.7l23.3,7.8l10.4,22.5l-18.1,8.6l24.2,3.5
		l6.9,14.2l-12.1,6.5l16,1.3l4.7,9.5c0,0-48.8,28.9-91.1,98c0,0-24.6-18.6-71.7-15.5c0,0-24.2,0.4-47.1,18.6c0,0-12.1,10.8-6.5,19
		c5.6,8.2,23.7,0,26.8-0.9c3-0.9,15.1-3,22-1.7c0,0-36.3,17.3-36.3,38.4c0,0,5.6,0,9.9-1.7c4.3-1.7,19.9-5.2,26.3-4.7
		c0,0-75.1,26.3-121.3,101.5c0,0,115.7-71.2,204.2-38.9c0,0-50.5,7.8-76.4,39.7c0,0,78.6-18.1,98.9-9.1c0,0-72.5,9.5-126.1,44.5
		c-53.5,35-55.3,61.7-46.6,90.2c0,0,20.3-44.5,127.8-69.5c107.5-25,147.7-14.2,202.5-66.1c0,0,27.2-25.9,39.3-55.7
		c0,0,31.1,1.3,66.5-24.6l14.7,7.3L773.2,303.5z"/>
</g>
<g>
	<path fill="#DFE1E5" d="M825.2,80.7c0,0-48.1,16.8-64.5,46.2c-16.4,29.4,6.9,62.2,39.3,59.5c0,0-29.8-17.5-14.1-46.5
		c0,0,6.5-4.6,7.2,0.4c0.8,5,8,17.9,10.7,17.9c0,0,5.3-17.5,18.3-25.6c13-8,30.9-13.7,58-9.9c27.1,3.8,43.9,26.7,82,21
		c0,0,24-4.6,33.6-13c0,0-13-19.8-77.1-43.9c-64.1-24-117.9-34.3-203.3-23.3c0,0-77.8,13.4-136.9,62.9
		c-59.1,49.6-93.1,111-101.8,135.4c0,0,9.9-0.4,22.1,0.4c0,0,14.5-25.2,40.4-60.7c25.9-35.5,57.6-61.4,89.3-79.3
		c31.7-17.9,88.1-37.4,108.7-42c20.6-4.6,63.3-4.6,63.3-4.6l27.1,1.5L825.2,80.7z"/>
</g>
<g>
	<path fill="#FFFFFF" d="M758.7,204.1c0,0-16.7-14.6-41.8-15.5c-1.9,1.5-6.8,7-8.3,8.6c15.3,1,36,14.5,36,14.5L758.7,204.1z"/>
</g>
<g>
	<path fill="#FFFFFF" d="M740.3,216.1c0,0-11.9-12.4-37-13.4c-1.9,1.5-6.9,7-8.3,8.6c15.3,1,26.5,17.8,26.5,17.8L740.3,216.1z"/>
</g>
<g>
	<path fill="#DFE1E5" d="M743.1,161.1c0,0,6.1,21.6,34.2,32l-12.6,6.8c0,0-11.3-9.4-39.9-17.9C724.8,182,735.5,167.8,743.1,161.1z"
		/>
</g>
<g>
	<path fill="#A0ACB5" d="M788.4,201.6c0,0,24.1,18.4,17.9,43.6c-5.7,22.9-14.2,30.3-14.2,30.3l-8.3-3.1c0,0,7.7-19,7.7-28.5
		c0-9.6-5.7-26.8-15.8-36.4L788.4,201.6z"/>
</g>
<g>
	<path fill="#A0ACB5" d="M767.1,214c0,0,19.5,20.6,13.3,45.8c-5.7,22.9-14.2,30.3-14.2,30.3l-8.3-3.1c0,0,7.7-19,7.7-28.5
		c0-9.6-0.7-28.3-10.8-37.9L767.1,214z"/>
</g>
<g>
	<path fill="#DFE1E5" d="M809.6,196.4c0,0,21.4,13.5,17.9,37.9c-3.5,24.4-22.2,39-22.2,39s27-47.3-5-74.5L809.6,196.4z"/>
</g>
<g>
	<path fill="#A0ACB5" d="M989.7,128.7c0,0-24.5,17.7-50.6,10.1c-26.1-7.6-41.3-17.7-66.2-23.6c0,0,9.3-2.5,11.8-8
		c0,0,10.5,1.7,10.5-0.4c0-2.1-8.9-5.1-10.5-5.1c-1.7,0-38.4-20.2-41.7-20.2c-3.4,0-7.2-2.5-7.2-2.5l4.6-9.3c0,0,20.7-2.5,38.4,14.3
		C878.8,84,941.2,97.1,989.7,128.7z"/>
</g>
<g>
	<path fill="#A0ACB5" d="M855.6,115.2c0,0-0.4-0.1-1-0.3c-3.4-1.2-14.1-6.2-18.4-20.7c0,0,0-5.1-3.4-5.9c-3.4-0.8-8-1.3-8-1.3
		s-1.3-1.3,3.4-1.3c4.6,0,8.4-5.9,9.3-8c0.8-2.1,0.8-2.1,0.8-2.1s-12.6-2.1-41.3-4.2c0,0,8.4-8.9-29.5-8.4c0,0,18.1,7.2,16.4,8.4
		c0,0-9.3,0.4-29.5,2.5c0,0,8-8.4-1.3-8.9c-9.3-0.4-26.1,2.1-26.1,2.1s2.5,2.5,8.9,2.5c6.3,0,13.1,3,5.9,4.6c0,0-13.5,1.7-28.7,5.9
		c0,0,3.8-8.9,0.8-8.9c-3,0-10.1,0-29.5,5.5l18.5,1.3c0,0,0,3.8-3.4,5.1c-3.4,1.3-21.5,7.2-30.8,10.5c0,0,5.9-11-3-9.3
		c-8.9,1.7-17.7,5.5-24.9,9.3c0,0,18.5-2.1,18.5-0.4c0,1.7-0.8,4.2-3.4,5.5c-2.5,1.3-22.8,12.2-28.7,14.3c0,0,2.1-8.9-1.7-8.9
		c-3.8,0-18.5,8.9-25.3,13.9c0,0,16.9-5.5,16.9-3.8c0,1.7,0.8,5.1-3.8,8.4c-4.6,3.4-17.3,12.2-22.3,16c0,0-2.5-7.6-8-6.3
		c-5.5,1.3-16.9,13.9-19.8,19.4c0,0,15.2-8.9,16.4-8c1.3,0.8,0,4.2-3.8,7.2c-3.8,2.9-16.4,15.2-16.4,15.2s-4.2-4.2-10.5,1.7
		c-6.3,5.9-12.2,13.9-13.5,16c0,0,13.9-8,13.9-6.7c0,1.3-15.6,19.8-20.2,26.1c0,0-4.6-3-11,2.5c-6.3,5.5-13.1,13.1-13.1,15.6
		c0,0,11-5.1,13.1-6.7c2.1-1.7,4.6,0.8,1.3,4.2c-3.4,3.4-21.1,32.5-24.4,43c0,0,14.3,1.7,16.9,3.4c0,0,32.8-84.8,123.9-137.9
		c0,0,71.6-45.8,151.4-42.2c0,0,10,0,18.1-2.3c8.2-2.3,18.6-3.2,18.6-3.2s-37.2,21.3-52.6,50.3c-15.4,29,13.2,54.9,24.9,57.6
		c11.8,2.7,25.8-7.3,94.3-5c68.5,2.3,95.7-8.6,109.7-18.6c0,0-29,9.1-63.5,5.9c-34.5-3.2-64.4-1.8-93.9,4.5
		c-29.5,6.3-33.6,9.1-42.6-0.9c-9.1-10-9.5-25.4-6.3-31.3c0,0,5,11.3,11.3,1.4C811.9,133.8,818.7,120.7,855.6,115.2z"/>
</g>
<g>
	<path fill="#1D365B" d="M904.4,105.7c0,0-17.2-7.3-25.4-15s-21.5-18.1-41-16.3c0,0-1.9,4.7-5.2,9.5c0,0,1.7,1.8,7.1,2.3
		c0,0,4.3,27.6,22.6,28.2c16.7,0.6,21.4-9.2,21.4-9.2S893.5,106.6,904.4,105.7z"/>
</g>
<g>
	<path fill="#DFE1E5" d="M776.7,94.5c0,0-10.8,6.8-20.8,17.6c0,0-102.4,9.2-170.4,71.6C585.5,183.7,661.9,94.5,776.7,94.5z"/>
</g>
<g>
	<path fill="none" stroke="#FFF200" stroke-width="8.144400e-02" d="M756.3,142.1"/>
</g>
<g>
	<path fill="#FFFFFF" d="M693.5,140.1c0,0-52.8,19.6-82,60c0,0-14.8,23.6-7.2,47.6h1.6c0,0,15.6-49.6,56.8-75.2L693.5,140.1z"/>
</g>
<g>
	<path fill="#DFE1E5" d="M699.1,158.5c0,0-37.2,14.8-59.6,47.2c-22.4,32.4-28,53.2-28,53.2s6,8.8,12.8,14.8c0,0,5.2-31.2,20.4-52.8
		C659.9,199.3,699.1,158.5,699.1,158.5z"/>
</g>
<g>
	<path fill="#DFE1E5" d="M687.5,192.9c0,0-36.4,34.8-45.6,68.8c-9.2,34,14,35.2,30,35.6c0,0-17.6-9.2-11.6-37.6
		C666.3,231.3,677.9,206.1,687.5,192.9z"/>
</g>
<g>
	<path fill="#FFFFFF" d="M590.1,251.6c0,0,15.9,42.1,67.9,55.7c0,0-29.2,11.4-86.4-21.1C571.6,286.3,582.5,261.7,590.1,251.6z"/>
</g>
<g>
	<circle fill="#FFFFFF" cx="861.6" cy="96" r="2.3"/>
</g>
<g>
	<path fill="#FFFFFF" d="M872.1,96.6l5,4c0,0-6.5,7.8-12.8,7c-6.3-0.8-9.6-4.9-9.6-4.9S868.8,106.4,872.1,96.6z"/>
</g>
<g>
	<g>
		<path fill="#FFFFFF" d="M818,156.5l13.2,12.4l-15.8,2.8C815.3,171.7,815.6,163.8,818,156.5z"/>
	</g>
	<g>
		<path fill="#FFFFFF" d="M833,140.1l-2,20.7c0,0-8.8-8.7-8.8-11.5C822.1,146.6,831.7,140.1,833,140.1z"/>
	</g>
	<g>
		<path fill="#FFFFFF" d="M838.9,150.1l-2.3,16.9l12.1-1.7C848.6,165.3,840.1,149.5,838.9,150.1z"/>
	</g>
	<g>
		<path fill="#FFFFFF" d="M839.6,137.4l10.4,17.6l6.2-20.9C856.2,134.2,847.8,133,839.6,137.4z"/>
	</g>
	<g>
		<path fill="#FFFFFF" d="M858.2,142.4l-4.3,21l11-0.6C864.9,162.8,861.1,144.9,858.2,142.4z"/>
	</g>
	<g>
		<polygon fill="#FFFFFF" points="861.3,133.1 877.1,133.1 868.6,151.8 867.2,151.8 		"/>
	</g>
	<g>
		<path fill="#FFFFFF" d="M877.7,145.7v16.3h-6.4C871.4,161.9,874.2,151.3,877.7,145.7z"/>
	</g>
	<g>
		<path fill="#FFFFFF" d="M881.8,135.2v18.3l10.7-14.7C892.5,138.8,888.9,135.2,881.8,135.2z"/>
	</g>
	<g>
		<path fill="#FFFFFF" d="M894.8,144.9v14.5h-8.4C886.4,159.4,890.7,150,894.8,144.9z"/>
	</g>
	<g>
		<path fill="#FFFFFF" d="M898.8,141.3l2.3,13.5l7.4-8.4C908.5,146.4,904.7,143.1,898.8,141.3z"/>
	</g>
	<g>
		<path fill="#FFFFFF" d="M910.5,152.5v7.9h-6.1C904.4,160.4,907,154.6,910.5,152.5z"/>
	</g>
	<g>
		<path fill="#FFFFFF" d="M914.4,148.5l1.8,8.6l6.6-5.1C922.7,152,919.2,150,914.4,148.5z"/>
	</g>
	<g>
		<polygon fill="#FFFFFF" points="929.6,153.8 931.4,160.2 937,155.3 		"/>
	</g>
	<g>
		<polygon fill="#FFFFFF" points="922.5,158.1 926,158.1 927.1,161.7 921,160.7 		"/>
	</g>
	<g>
		<polygon fill="#FFFFFF" points="939.8,159.9 939.8,162.5 937.2,162.5 		"/>
	</g>
	<g>
		<polygon fill="#FFFFFF" points="943.3,155.1 951.5,155.1 946.1,160.7 		"/>
	</g>
	<g>
		<polygon fill="#FFFFFF" points="959.4,154 959.4,162.3 951.8,162.3 		"/>
	</g>
	<g>
		<path fill="#FFFFFF" d="M963.6,152.7l2.2,8.1c0,0,6.7-8.1,6.7-10.5L963.6,152.7z"/>
	</g>
</g>
<g>
	<path fill="#A0ACB5" d="M551.8,50l9.9,18.7c0,0,50.2-19.8,113.2-9.5C674.9,59.2,628.7,33.9,551.8,50z"/>
</g>
<g>
	<path fill="#A0ACB5" d="M568.1,79.1l7.2,14.6c0,0,41.5-20.7,85.6-27.4C660.8,66.3,614,59.4,568.1,79.1z"/>
</g>
<g>
	<path fill="#A0ACB5" d="M579.5,104.6l3.4,5.6c0,0,31.7-21.1,59.6-30.9c0,0-12.2,1-31.3,8.6C592.1,95.5,579.5,104.6,579.5,104.6z"/>
</g>
<g>
	<path fill="#009A94" d="M474.5,229.6l-12.6,27.3c0,0-30-7.5-67.9,1.7c0,0,9.5-16.4,53.5-26.6c0,0-18.1-14.7-71.3-3.1
		C376.3,228.9,412.8,193.8,474.5,229.6z"/>
</g>
<g>
	<path fill="#009A94" d="M678.5,321.1c0,0-48.9,12-106.7-16.1c-57.8-28.1-104.1-36.4-150.5-23.4c-46.3,13-81.7,45.3-81.7,45.3
		s114.5-51.5,199.4,10.9c0,0-56.2,4.7-64,8.9c0,0,53.1,0.5,94.8,9.4c0,0-17.2,4.2-57.3,13c-40.1,8.9-49.5,15.1-60.4,20.3
		c0,0,31.8-8.9,62.5-14.1c30.7-5.2,99.4-10.9,130.2-39.6c0,0,2.6,15.6-40.6,43.7C604,379.4,652.4,362.2,678.5,321.1z"/>
</g>
<g>
	<path fill="#78C5C0" d="M632.1,331c0,0-36.4,31.2-89.6-3.1l27.6,5.2c0,0-32.3-33.8-92.2-45.8c0,0,24-4.7,67.7,18.7
		C589.4,329.4,592.6,327.9,632.1,331z"/>
</g>
<g>
	<path fill="#A0ACB5" d="M849.5,359.8c0,0-8.9,1-14.8,5.6c0,0-1.5,2.8,2.5,0.8c4.1-2,12-3.8,12-3.8L849.5,359.8z"/>
</g>
<g>
	<path fill="#1D365B" d="M712,312.3c0,0,1.2,26.6-1.2,39.7c0,0,58.5-7.4,82.2-18c0,0,2.5-0.8,6.9-9c4.5-8.2,24.1-34.8,67.1-51.9
		l-14.7,33.1c0,0,76.1-38,69.1-106.7l-80.2,0.8c0,0,20.4,29.4-4.5,65.8c-24.9,36.4-54.4,44.6-88.3,48.3c0,0,24.9-19.2,28.2-25.8
		l-4.1-1.2C772.6,287.4,749.7,305.4,712,312.3z"/>
</g>
<g>
	<path fill="#1D365B" d="M707.5,312.3c0,0,4,20.1-2.2,38c-6.3,17.9-24.6,24.1-31.7,23.2c-7.1-0.9-6.3-11.6,9.8-25
		c16.1-13.4,20.5-27.7,21-31.7C704.8,312.7,707,309.2,707.5,312.3z"/>
</g>
<g>
	<path fill="#1D365B" d="M442,337.4c0,0-26.2-0.4-61,10.5c-34.8,10.9-34.1,24.3-28.8,29.6c5.2,5.2,19.8,4.5,34.8-7.5
		C401.9,358,409.8,350.5,442,337.4z"/>
</g>
<g>
	<path fill="#009A94" d="M389.5,354.9c0,0-21.3,19.3-30.7,16.7C358.8,371.6,366.1,361.2,389.5,354.9z"/>
</g>
<g>
	<path fill="#1D365B" d="M717.8,361.4c0,0,0,25-4,32.2c0,0,14.7-21.4,34.8-20.1l25.5-24.6l-7.1,33.5c0,0,15.2-19.2,24.1-21.4
		c0,0,2.7-3.1,6.3-11.6c3.6-8.5,16.1-43.3,51.4-55.8c0,0-16.1,36.6-27.7,72.4c0,0,22.8-31.7,58.1-26.8l-0.4,5.8
		c0,0,21.4-26.4,69.2-24.6c0,0-6.7,15.6-9.4,20.1c-2.7,4.5-29.5,15.2-30.4,25c0,0,5.4,6.2,8.5,10.3c3.1,4,9.4,38-27.2,65.7
		c-36.6,27.7-93.8,48.7-100.5,50.9c0,0,9.4-28.1,15.2-30.4l-59.4,20.5c0,0-9.8,41.6-76.4,59c0,0-11.2,2.2-13.8-0.9l-0.9-7.1
		l-4.5,1.3l-0.4-6.3l-4.9,2.7v-4.5l-5.8,3.6l-0.4-5.4l-5.8,4l-0.4-6.3l-4.5,2.7l-0.4-6.7l-7.6,2.2c0,0-6.3-6.7-6.3-18.3
		c0,0-8.9,17.9-14.3,20.1c-5.4,2.2-189,58.1-189,58.1s-17.9,39.3-24.6,48.7l-5.4-0.9l0.9,9.4l-9.4-5.8l-0.9,15.6l-7.1-5.4l-1.3,14.3
		l-7.1-5.4l-0.9,10.7l-6.3-3.6l-1.8,9.8l-8.9-6.3l-0.9,10.7l-4-1.3c0,0-29.9,17-80-3.6l10.7-21.4c0,0,44.2-13,48.7-16.5
		c0,0-7.1-44.2,15.6-100.1c22.8-55.8,53.2-80.4,124.6-92.9l-6.7,32.2c0,0,23.2-23.7,52.7-18.8v4c0,0,13.8-19.7,29.5-22.3l-3.6,13
		l10.7-0.9c0,0,8.9-21.4,34.4-28.1l-5.4,16.5c0,0,18.3-8.9,23.2-2.2c0,0,20.6-23.7,47.4-16.5l0.4,4.5
		C633.8,418.2,649.4,377.5,717.8,361.4z"/>
</g>
<g>
	<path fill="#FFFFFF" d="M441.5,446.1c0,0-10.1,65.4-41.8,91.5l11.8,8c0,0-8,39.2-21.5,55.3l-7.6-7.2v10.5l-8.9-3.8l0.8,11.4
		l-6.3-7.6l-2.1,16.9l-5.1-3l-1.7,8.4l-6.3-4.6l-2.5,14.3l-8-10.5l-1.7,13.5l-4.2-3.8l-0.4,10.1c0,0-17.7,8.4-46,2.1
		c0,0,71.3-20.2,92.4-91.9l-25.3,3.4c0,0,41.3-35.9,55.7-83.1c0,0-29.1,3.4-54,58.6c0,0-24,58.2-28.3,78.4c0,0-9.1-31,8-88.6
		C355.4,467.6,420.4,448.6,441.5,446.1z"/>
</g>
<g>
	<path fill="#A0ACB5" d="M433,449.9l5.5-0.8c0,0-6.7,55.7-41.3,89l11.8,9.3c0,0-6.7,35.4-19,49.8l-3-3.8c0,0,14.3-21.5,15.6-47.2
		l-9.7-7.6C392.9,538.5,418.7,516.9,433,449.9z"/>
</g>
<g>
	<path fill="#A0ACB5" d="M402.2,476.8c0,0-0.1,0-0.2,0c-2.5,0.7-32.2,9.3-50.8,55.8c-19.4,48.7-20.1,51-20.1,51V601
		c0,0,10.2-31.6,25-65.4C371,501.8,384.8,487.9,402.2,476.8z"/>
</g>
<g>
	<g>
		<path fill="#FFFFFF" d="M442,484v1.5c0,0,18.2-8.3,22-8.3l-0.5,2c0,0-17.2,9.9-29.1,30.3c-11.9,20.5-20,43.5-20,43.5
			s20.2-3.8,50.1-14.2l1.5-0.8c0,0,16.4-28.8,21.7-81.2C487.8,457,465.6,455.7,442,484z M459.5,515.9c-1.5,2.8-15.4,11.4-15.4,11.4
			s-1.5,0.5,1-4.8c2.5-5.3,16.9-34.9,22.5-35.7C467.6,486.8,461,513.1,459.5,515.9z"/>
	</g>
</g>
<g>
	<path fill="#A0ACB5" d="M449.6,479.2c0,0,3.8-6.1,21-8.1c0,0,0.8,1.3-4.3,3C461.3,475.9,453.4,478,449.6,479.2z"/>
</g>
<g>
	<path fill="#A0ACB5" d="M469.8,474.9c0,0-10.1,7.6-20,24.5c-9.9,16.9-18.7,36.4-18.7,36.4s-0.3,3.5,2.5,1c2.8-2.5,4.6-4.3,5.1-5.3
		c0.5-1,10.4-23,18.5-35.4c8.1-12.4,11.9-15.9,11.9-15.9L469.8,474.9z"/>
</g>
<g>
	<path fill="#A0ACB5" d="M485.8,459.5c0,0-5.6,47.5-21.2,76.6c0,0-29.3,10.9-46.3,13.7l0.3-2.3c0,0,22.5-5.8,41.7-13.7
		c0,0,15.2-28.1,20.7-72.8L485.8,459.5z"/>
</g>
<g>
	<path fill="#FFFFFF" d="M478.2,536.1c0,0,14.6-73.7,35.8-88.8l-1.4,14.9c0,0,13.1-11.9,23.9-10.4c0,0-30,14.9-36.7,78.4
		L478.2,536.1z"/>
</g>
<g>
	<path fill="#FFFFFF" d="M554.3,430.7c0,0-12.8,9.9-20.3,31.8c-7.4,21.9-13.3,53.8-13.3,62l21.9-7c0,0,1.1-57.9,37.2-81.8
		c0,0-14.9,0.5-25.2,11.9l-2-0.5L554.3,430.7z"/>
</g>
<g>
	<path fill="#A0ACB5" d="M511.5,452.3c0,0-5,4.1-7,11.5c-2,7.4-2,9.5-2,9.5s4.5-0.9,6.8-8.6C511.5,457,511.5,452.3,511.5,452.3z"/>
</g>
<g>
	<path fill="#A0ACB5" d="M528.4,455.2c0,0-9.5-0.2-19.4,17.3c-9.9,17.6-14,43.7-15.3,52l-0.2,1.1l-11.9,4.7v2l16.2-3.6
		c0,0,2.5-27.7,11.9-47.1C519.2,462.5,528.4,455.2,528.4,455.2z"/>
</g>
<g>
	<path fill="#A0ACB5" d="M551.2,436.1c0,0-4.5,3.4-6.1,10.4c-1.6,7-2.5,12.8-2.5,12.8s4.5-3.2,6.8-10.1
		C551.6,442.2,551.2,436.1,551.2,436.1z"/>
</g>
<g>
	<path fill="#A0ACB5" d="M569.9,439.7c0,0-12.4,3.8-19.8,19.4c-7.4,15.5-13.5,39.2-14,54.3l-12.6,5.2l0.2,2.2l16.7-4.7
		c0,0,2-27.9,9.9-46.9c0,0,5.6-14.4,14.6-23.2c0,0,3.8-3.8,4.5-4.7C570.1,440.4,569.9,439.7,569.9,439.7z"/>
</g>
<g>
	<g>
		<path fill="#FFFFFF" d="M582,445.4l20.6-6.7c0,0-17.7,12.2-31,35.7c-13.3,23.5-17.1,38.6-17.1,38.6c16.2-3.5,50.2-17.1,50.2-17.1
			c14.8-25.5,20.9-75.7,20.9-75.7C599.6,419.6,582,445.4,582,445.4z M597.6,475.8c-2,3.5-14.5,9.6-14.5,9.6s10.4-24.9,22.6-38
			C605.7,447.4,599.6,472.3,597.6,475.8z"/>
	</g>
</g>
<g>
	<path fill="#A0ACB5" d="M606,432.9c0,0-4.9,0.3-9.3,2c-4.3,1.7-7,5.2-7,5.2s5.5-1.7,8.1-2.6C600.5,436.7,605.4,434.1,606,432.9z"/>
</g>
<g>
	<path fill="#A0ACB5" d="M607.5,434.4c0,0-9.6,11-18,23.8c-8.4,12.8-20,37.1-20,37.1s6.4-3.2,8.7-6.4c2.3-3.2,11.6-26.4,29-49
		C607.2,439.9,608.3,437,607.5,434.4z"/>
</g>
<g>
	<path fill="#A0ACB5" d="M617.9,422.5c0,0-5.5,47.3-19.1,69.3l-40.6,15.9v2.9c0,0,30.4-10.1,43.8-15.7c0,0,12.2-15.9,21.2-72.8
		L617.9,422.5z"/>
</g>
<g>
	<path fill="#FFFFFF" d="M710.6,371.7c0,0-3,0.5-7.7,1.9c-14.3,4.2-44.9,16.1-59.7,44.4c-19.7,37.7-14.9,66.1-9,75.1l7.3-5.2
		l-0.3,6.6l7.3-8l-1,8.7l5.9-7.3l-0.3,8.7l5.5-3.8l0.3,7.3l3.5-1.7v5.2l2.8-1.7l1,3.5l4.2-3.5v12.1c0,0,26.6,0.7,54.3-24.6
		c0,0-45.7,14.5-63.3-2.4c-17.6-17-11.1-59.2,28-84.4l-5.2,20.1C684,422.6,708.6,400.8,710.6,371.7z"/>
</g>
<g>
	<path fill="#A0ACB5" d="M690.2,411.8l-0.3-5.9c0,0,10.8-14.5,13-32.3l4.3-0.9C707.2,372.7,707.5,391.8,690.2,411.8z"/>
</g>
<g>
	<path fill="#A0ACB5" d="M684,398.3l1.7,2.4c0,0-27,22.5-34.3,47.1c-7.3,24.6,1.4,35.3,1.4,35.3l-1.7,3.1c0,0-11.8-11.4-2.8-41.2
		C657.3,415.3,684,398.3,684,398.3z"/>
</g>
<g>
	<path fill="#3197CE" d="M686.1,440.9l-17,42.6c0,0-10.4-5.9-10.4-16.6c0-10.7,2.4-13.5,2.8-16.3c0.3-2.8,4.1-6.9,3.5-1.7
		c-0.7,5.2-3.1,18.7-3.1,18.7L686.1,440.9z"/>
</g>
<g>
	<path fill="#FFFFFF" d="M734.7,385.2c0,0-19.8,12.8-33.3,42.8c-13.6,30-19.3,48.6-19.3,48.6s16.9,1.2,45.7-21l4.9,1.6
		c0,0,19.8-56.8,28-82.3c0,0-15.6,15.2-24.3,35.8c-8.6,20.6-15.2,32.5-25.1,32.5C711.2,443.2,732.6,393,734.7,385.2z"/>
</g>
<g>
	<g>
		<path fill="#FFFFFF" d="M798,366.3c0,0-23.9,12.3-39.1,44.5c-15.2,32.1-20.2,49-20.2,49l56-19.8c0,0,11.9-68.3,36.2-126.8
			C831,313.2,816.2,321.8,798,366.3z M783.2,418.1l-14.4,9.9c14-44,27.2-46.5,27.2-46.5C786.5,399.6,783.2,418.1,783.2,418.1z"/>
	</g>
</g>
<g>
	<path fill="#A0ACB5" d="M701.7,448.2l5.4,0.4l22.6-56.8c0,0-7,4.9-9.1,10.3C718.6,407.4,701.7,448.2,701.7,448.2z"/>
</g>
<g>
	<path fill="#A0ACB5" d="M728.1,450.6l3.3,3.3c0,0,17.7-51,23.5-67.9c0,0-8.6,7-11.5,17.3C740.4,413.6,728.1,450.6,728.1,450.6z"/>
</g>
<g>
	<path fill="#A0ACB5" d="M685.7,472l0.4,2.5c0,0,21-2.9,40.3-21.4l-2.5-2.5C724,450.6,713.7,463,685.7,472z"/>
</g>
<g>
	<path fill="#A0ACB5" d="M800.1,371.2l-2.5,4.9c0,0-13.6,6.6-22.2,27.6c-8.6,21-10.7,33.3-18.5,35.4c0,0,7.8-17.3,10.3-28
		C769.6,400.4,784,375.3,800.1,371.2z"/>
</g>
<g>
	<path fill="#A0ACB5" d="M825.2,321.8c0,0-7.8,7-17.7,37c-9.9,30-18.1,75.7-18.1,75.7l-45.7,17.7l-1.7,3.7l50.2-17.7
		C792.3,438.3,805.5,372,825.2,321.8z"/>
</g>
<g>
	<g>
		<path fill="#FFFFFF" d="M826.9,372l19.8-6.2c0,0-28.8,16.5-44,72.4l45.7-15.2c0,0,10.3-12.3,22.2-76.1
			C870.5,346.9,845,346.1,826.9,372z M842.6,403l-14.2,8.1C837,389,850.3,374,850.3,374C848,385,842.6,403,842.6,403z"/>
	</g>
</g>
<g>
	<path fill="#FFFFFF" d="M923.8,329.8c0,0-21.9,17-29,32l13.7,16c0,0,3.1,2.8-0.3,9.4c-3.3,6.6-19.6,34.6-74.8,60.5
		c0,0,10.4-8.6,24.9-22.9c14.5-14.2,30.8-35.1,29-38.1c-1.8-3-16-22.1-16-22.1S889.9,338.4,923.8,329.8z"/>
</g>
<g>
	<path fill="#A0ACB5" d="M862.2,349.4l5.8-0.4c0,0-9.1,54.3-21,71.6l-41.2,14l0.5-2.7l37.8-14.3
		C844.2,417.6,856.9,393.6,862.2,349.4z"/>
</g>
<g>
	<path fill="#A0ACB5" d="M888.9,364.4l11.9,15.5c0,0,2.5,2.8,0,6.9c-2.5,4.1-18.1,23.7-50.4,47.8c0,0,17.8-5.8,35.6-22.9
		c17.8-17,22.1-26.7,20.9-31.5l-14.8-18.6c0,0,2.5-6.6,20.6-25.7c0,0-3.1-0.5-9.4,4.6c-6.4,5.1-15,18.1-15,18.1
		S885.9,361.1,888.9,364.4z"/>
</g>
<g>
	<path fill="#A0ACB5" d="M853.8,360l-1.3,6.6c0,0-5.6,6.9-15,20.8c-9.4,14-13.2,27.5-13.2,27.5l-5.1,2.3
		C819.2,417.3,824.8,390.8,853.8,360z"/>
</g>
<g>
	<path fill="#009A94" d="M697.7,346.6c0,0-6.8,17.2-18.2,17.2C679.5,363.8,689.4,354.4,697.7,346.6z"/>
</g>
<g>
	<path fill="#1D365B" d="M479.9,206c0,0-6.4-18.2-26.7-27.1c-20.3-8.9-39.2-1.1-42.4,3.2c-3.2,4.3-6.4,12.1,16.4,13.9
		C449.9,197.8,464.2,199.6,479.9,206z"/>
</g>
<g>
	<path fill="#1D365B" d="M484.3,196.4c0,0,31.3-44.7,74-78.1l-31.8-3.1l27.7-15.9c0,0,1.5-4.6-7.2-7.2c-8.7-2.6-34.9-7.7-41.6-5.7
		c-6.7,2.1-57.5,20.5-89.9,54.4c-32.4,33.9-32.4,58-32.4,58l19.5-5.7c0,0-11.8-11.8,18.5-23.6C451.5,157.9,482.3,190.8,484.3,196.4z
		"/>
</g>
<g>
	<path fill="#009A94" d="M456.8,191.8c0,0-8.5-7.5-19.1-8.2c-10.6-0.7-11.3,0.3-11.3,3.1C426.4,189.4,439.7,187,456.8,191.8z"/>
</g>
<g>
	<path fill="#FFFFFF" d="M588.7,188.5c0,0-48.8,45.6-57.2,82.4l12.8,6.8c0,0,20.8-38.8,32.8-57.6c12-18.8,19.6-34.8,19.6-34.8
		L588.7,188.5z"/>
</g>
<g>
	<path fill="#A0ACB5" d="M531.5,270.9c0,0,38.8-64.8,58.4-76.8c0,0-35.6,44.8-46.4,83.2l15.2,7.6c0,0,19.6-34.8,27.6-45.6
		c0,0-9.3-43.8,51.6-82.8c50-32,92-33.2,92-33.2s-48.6,16.6-85.6,52.4c-24,23.2-38.4,70.8-38.4,70.8s22.4-72.4,115.6-104.4
		c0,0-43.6,27.2-67.6,59.6c-22,29.6-30,45.2-29.6,72c0,0,14.4-47.2,44.8-76.8c30.4-29.6,56-42.8,56-42.8l-0.8,2c0,0-33.6,28-50,53.6
		c-16.4,25.6-28.8,75.6-2.4,87.6c0,0-22.8-23.2,2-68.8c24.8-45.6,68.4-68.8,68.4-68.8s-8.9-28.4,22.3-56c0,0-79,0.9-151.5,56
		c-68.4,52-90.4,108.4-90.4,108.4L531.5,270.9z"/>
</g>
<g>
	<g>
		<path fill="#FFFFFF" d="M400.1,434l-41.1,20.8l-20.6-40.7l40.8-20.7c6.4-3.2,10.3-3.3,11.9-0.1l4.3,8.5c0.7,1.4,0.8,2.7,0.3,3.8
			c-0.5,1.2-1.6,2.5-3.3,4.2l-3.4,3.2l4.9-1c2.4-0.5,4.3-0.6,5.6-0.3c1.3,0.3,2.3,1.2,3,2.5l5.1,10C409,427.5,406.6,430.7,400.1,434
			z M373.5,405.8l-12.5,6.3l4.3,8.5l8.3-4.2l3.4-3.7L373.5,405.8z M382.7,422.6l-5.1,0.9l-8.6,4.4l5,10l13.1-6.6L382.7,422.6z"/>
		<path fill="#1D365B" d="M356.6,462l-25.4-50.2l45.5-23.1c4-2,7.3-3,10.2-3c3.9,0,7.2,1.9,8.9,5.3l4.3,8.5c1.2,2.4,1.5,4.9,0.8,7.2
			c2.7,0.7,4.8,2.5,6.2,5.2l5.1,10c1.7,3.4,1.3,7.2-1.1,10.4c-1.7,2.3-4.5,4.4-8.5,6.4L356.6,462z M345.5,416.5l15.8,31.2l9.4-4.8
			l-15.8-31.2L345.5,416.5z M386.8,418.9l6.4,12.6l4.5-2.3c3-1.5,4.2-2.6,4.7-3.2l-4.7-9.2l0,0c-0.8,0-1.6,0.1-2.8,0.3L386.8,418.9z
			 M376.1,430.2l0.2,0.5l3.6-1.8l-0.2-0.4l-0.5,0.1L376.1,430.2z M376.8,400.6l5.7,11.2l6.2-5.8c1-0.9,1.5-1.6,1.8-2l-3.9-7.7
			c-0.8,0.1-2.4,0.5-5.1,1.8L376.8,400.6z"/>
	</g>
	<g>
		<path fill="#FFFFFF" d="M416.4,427.5l-12.7-43.8l47.3-13.7l2.5,8.7l-27,7.8l2.4,8.4l21.7-6.3l2.4,8.4l-21.7,6.3l2.8,9.7l27.3-7.9
			l2.5,8.7L416.4,427.5z"/>
		<path fill="#1D365B" d="M412.7,434.1L397.1,380l57.5-16.6l5.5,18.9l-5.3,1.5l4.7,16.3l5.6-1.6l5.5,18.9L412.7,434.1z M410.3,387.2
			l9.7,33.6l10.1-2.9l-9.7-33.6L410.3,387.2z"/>
	</g>
	<g>
		<path fill="#FFFFFF" d="M505.3,405.8l-16.2-14.5l-1.6-8l10.9-2.1l-2.2-11.4l-13.2,2.6l7.1,36.4l-20.7,4l-8.7-44.8l44.2-8.6
			c7.1-1.4,11-0.3,11.6,3.2l3,15.5c0.7,3.5-2.5,5.9-9.6,7.3l-1.1,0.2l18.2,15.6l0.1,0.4L505.3,405.8z"/>
		<path fill="#1D365B" d="M465.2,419.1l-10.8-55.2l49.4-9.6c2.4-0.5,4.4-0.7,6.3-0.7c9,0,11.1,5.6,11.6,8l3,15.5
			c0.7,3.7-0.7,7.3-3.9,9.7c-0.4,0.3-0.9,0.6-1.4,0.9l12.5,10.7l1.4,7l-5.1,1.4l-24.3,4.7l-9.4-8.3l1.9,9.8L465.2,419.1z
			 M466.9,372.2l6.7,34.4l10.3-2l-6.7-34.4L466.9,372.2z M494,388.6l12.9,11.5l8.7-1.7l-14.4-12.3l-7.4,1.4L494,388.6z M500.8,365.6
			l3,15.5l5-1c3.2-0.6,4.7-1.3,5.3-1.7l-2.8-14.2c-0.8-0.1-3-0.1-5.5,0.4L500.8,365.6z"/>
	</g>
	<g>
		<path fill="#FFFFFF" d="M576.6,393.6l-35.3,6.2c-7,1.2-10.8,0.1-11.4-3.4l-6-34.5c-0.6-3.5,2.6-5.9,9.7-7.1l35.1-6.1
			c7.2-1.3,11.1-0.1,11.7,3.4l1.5,8.5l-20.9,3.7l-0.9-5.3l-14.8,2.6l4.9,28l14.8-2.6l-1.6-9.1l-10.9,1.9l-1.5-8.4l31.8-5.6l3.6,20.7
			C587,389.9,583.7,392.3,576.6,393.6z"/>
		<path fill="#1D365B" d="M536.5,405.5c-9.4,0-11.4-5.8-11.9-8.3l-6-34.5c-0.7-3.9,0.2-10.8,14.1-13.2l35.1-6.1
			c2.2-0.4,4.2-0.6,5.9-0.6c9.5,0,11.5,5.8,11.9,8.3l6,34.5c0.7,3.7-0.9,7.3-4.1,9.6c-2.3,1.7-5.6,2.9-10.1,3.6l-35.3,6.2
			C540.1,405.3,538.2,405.5,536.5,405.5z M535,394.8c0.8,0.1,2.9,0.2,5.4-0.3l5.1-0.9l-6-34.5l-4.9,0.9c-3.2,0.6-4.7,1.2-5.3,1.6
			L535,394.8z M568,373.7l2.7,15.5l4.9-0.9c3.3-0.6,4.8-1.3,5.4-1.6l-2.6-14.8L568,373.7z M564.7,354.7l0.6,3.3l10.5-1.8l-0.5-2.6
			c-0.8-0.2-3-0.2-5.7,0.3L564.7,354.7z"/>
	</g>
	<g>
		<path fill="#FFFFFF" d="M640.9,368.4l-30,16.4c-6.3,3.4-10.3,3.6-12,0.5l-4.8-8.8l18.6-10.1l3.4,6.2l11.9-6.5l-3.2-5.8l-32.2,5.9
			c-1.5,0.3-2.5,0.3-3.3,0c-0.7-0.2-1.3-0.8-1.8-1.7l-5.4-9.9c-1.7-3.1,0.6-6.4,7-9.8l30.1-16.4c6.3-3.4,10.3-3.6,12-0.6l4.6,8.5
			l-18.7,10.2l-3.2-5.8l-11.9,6.5l3.1,5.8l32-5.9c1.5-0.3,2.6-0.3,3.4,0c0.8,0.2,1.4,0.8,1.9,1.7l5.4,9.9
			C649.6,361.7,647.3,365,640.9,368.4z"/>
		<path fill="#1D365B" d="M602.8,392.8c-3.8,0-6.9-1.8-8.6-5l-7.3-13.5l5.1-2.8c-1.9,0.2-3.2,0-4.5-0.4c-1.3-0.5-3.2-1.6-4.7-4.2
			l-5.4-9.9c-1.9-3.5-3.2-10.3,9.1-17l30.1-16.4c4.2-2.3,7.7-3.4,10.6-3.4c3.7,0,6.9,1.8,8.6,4.9l7.2,13.2l-6,3.2
			c2.2-0.3,3.7-0.2,5.1,0.2c1.5,0.5,3.6,1.6,5.1,4.3l5.4,9.9c1.9,3.5,3.2,10.3-9.2,17.1l-30,16.4
			C609.2,391.7,605.8,392.8,602.8,392.8z M601.2,378.6l1.9,3.6c0.7-0.1,2.3-0.5,5.2-2l4.4-2.4l-2.3-4.2L601.2,378.6z M627.5,354.3
			l6.5,11.8l4.4-2.4c2.9-1.6,4.1-2.7,4.6-3.3l-4.5-8.3c-0.1,0-0.2,0-0.3,0l-35.8,6.6l-6.4-11.8l-4.4,2.4c-2.8,1.6-4,2.7-4.5,3.2
			l4.5,8.3c0,0,0,0,0,0L627.5,354.3z M617.2,335.4l2.1,3.8l9.3-5.1l-1.7-3.2c-0.8,0.1-2.4,0.5-5.2,2L617.2,335.4z"/>
	</g>
</g>
<g>
	<g>
		<path fill="#FFFFFF" d="M400.1,434l-41.1,20.8l-20.6-40.7l40.8-20.7c6.4-3.2,10.3-3.3,11.9-0.1l4.3,8.5c0.7,1.4,0.8,2.7,0.3,3.8
			c-0.5,1.2-1.6,2.5-3.3,4.2l-3.4,3.2l4.9-1c2.4-0.5,4.3-0.6,5.6-0.3c1.3,0.3,2.3,1.2,3,2.5l5.1,10C409,427.5,406.6,430.7,400.1,434
			z M373.5,405.8l-12.5,6.3l4.3,8.5l8.3-4.2l3.4-3.7L373.5,405.8z M382.7,422.6l-5.1,0.9l-8.6,4.4l5,10l13.1-6.6L382.7,422.6z"/>
	</g>
	<g>
		<path fill="#FFFFFF" d="M416.4,427.5l-12.7-43.8l47.3-13.7l2.5,8.7l-27,7.8l2.4,8.4l21.7-6.3l2.4,8.4l-21.7,6.3l2.8,9.7l27.3-7.9
			l2.5,8.7L416.4,427.5z"/>
	</g>
	<g>
		<path fill="#FFFFFF" d="M505.3,405.8l-16.2-14.5l-1.6-8l10.9-2.1l-2.2-11.4l-13.2,2.6l7.1,36.4l-20.7,4l-8.7-44.8l44.2-8.6
			c7.1-1.4,11-0.3,11.6,3.2l3,15.5c0.7,3.5-2.5,5.9-9.6,7.3l-1.1,0.2l18.2,15.6l0.1,0.4L505.3,405.8z"/>
	</g>
	<g>
		<path fill="#FFFFFF" d="M576.6,393.6l-35.3,6.2c-7,1.2-10.8,0.1-11.4-3.4l-6-34.5c-0.6-3.5,2.6-5.9,9.7-7.1l35.1-6.1
			c7.2-1.3,11.1-0.1,11.7,3.4l1.5,8.5l-20.9,3.7l-0.9-5.3l-14.8,2.6l4.9,28l14.8-2.6l-1.6-9.1l-10.9,1.9l-1.5-8.4l31.8-5.6l3.6,20.7
			C587,389.9,583.7,392.3,576.6,393.6z"/>
	</g>
	<g>
		<path fill="#FFFFFF" d="M640.9,368.4l-30,16.4c-6.3,3.4-10.3,3.6-12,0.5l-4.8-8.8l18.6-10.1l3.4,6.2l11.9-6.5l-3.2-5.8l-32.2,5.9
			c-1.5,0.3-2.5,0.3-3.3,0c-0.7-0.2-1.3-0.8-1.8-1.7l-5.4-9.9c-1.7-3.1,0.6-6.4,7-9.8l30.1-16.4c6.3-3.4,10.3-3.6,12-0.6l4.6,8.5
			l-18.7,10.2l-3.2-5.8l-11.9,6.5l3.1,5.8l32-5.9c1.5-0.3,2.6-0.3,3.4,0c0.8,0.2,1.4,0.8,1.9,1.7l5.4,9.9
			C649.6,361.7,647.3,365,640.9,368.4z"/>
	</g>
</g>
<g>
	<g>
		<g>
			<path fill="#C2CBD3" d="M1052.9,227.5c-35.4-5.4-47.7-26.5-48.2-27.4c-0.6-1-0.5-2.3,0.2-3.3c0.1-0.2,14.5-20.6,19-27.6
				c2.2-3.4,5.5-5.1,9.7-5.1c4.5,0,8.4,2.1,8.9,2.3c0.7,0.4,15.5,8.6,23.4,14.2c6.4,4.5,12.4,10.3,8,19.4
				c-2.9,5.9-17.3,25.5-17.9,26.3c-0.6,0.8-1.5,1.3-2.5,1.3C1053.2,227.6,1053,227.6,1052.9,227.5z"/>
			<path fill="#1D365B" d="M1033.5,167.2c3.8,0,7.4,1.9,7.4,1.9s15.2,8.5,23.1,14c7.8,5.5,9.7,9.8,7,15.6
				c-2.8,5.8-17.6,25.8-17.6,25.8c-34.4-5.2-46-25.9-46-25.9s14.5-20.5,19.1-27.7C1028.2,168.1,1030.9,167.2,1033.5,167.2
				 M1033.5,161c-5.2,0-9.6,2.3-12.3,6.6c-4.5,7-18.8,27.3-18.9,27.5c-1.4,1.9-1.5,4.5-0.3,6.6c0.5,0.9,13.5,23.3,50.4,29
				c0.3,0,0.6,0.1,0.9,0.1c1.9,0,3.8-0.9,5-2.5c1.6-2.1,15.2-20.7,18.2-26.8c6.1-12.7-4.8-20.4-9-23.3c-8-5.6-23-14-23.6-14.3
				C1043.3,163.4,1038.7,161,1033.5,161L1033.5,161z"/>
		</g>
		<g>
			<path fill="#FFFFFF" d="M952.5,311.9c-0.7-0.3-17.9-7.6-35-32l-1.4-2.1l2.2-1.3c0.1,0,7.1-4.1,17.4-11.5l2.4-1.7
				c5.2-3.8,10.4-7.9,15.5-12.1l2.3-1.9c4.7-3.9,9.2-8,13.5-12.1l2.2-2.1c4-3.9,7.8-7.8,11.4-11.8l2.1-2.4
				c4.1-4.6,7.9-9.4,11.5-14.1l2-2.7c0.9-1.3,1.9-2.6,2.8-4l1.6-2.4l2,2.2c0.1,0.1,7.4,8,18.9,15.3l0.7,0.4l0,0.1l3.2,1.8
				c7.7,4.4,15.4,7.3,22.9,8.8l3.5,0.7l-2,2.9c-0.2,0.3-5.3,7.7-13.8,17.7l-2.5,3l0,0c-4,4.6-8.1,9-12.3,13l-2.5,2.5l0,0
				c-4.2,4-8.4,7.7-12.5,11.1l-2.5,2l0,0l-0.4,0.3c-4.1,3.1-8,6.1-11.8,8.8l-2.4,1.7l0,0c-4.8,3.4-9.6,6.6-14.3,9.6l-0.8,0.5l-1.5,1
				l-0.1,0.1c-6.1,3.8-12,7.2-16.2,9.3l-0.6,0.3l0,0l-0.9,0.4l-0.7,0.4l0,0l-0.5,0.2c-0.7,0.3-1.2,0.5-1.6,0.5l-0.7,0.1L952.5,311.9
				z"/>
			<path fill="#1D365B" d="M1003,201.4c0,0,7.4,8.1,19.4,15.7l11.8,31.4c-3.7,4.2-7.9,8.8-12.5,13.4l-21.4-56.4
				C1001.1,204.1,1002.1,202.8,1003,201.4 M998.2,208.2l21.2,55.8c-4,3.8-8.2,7.6-12.7,11.2l-20.1-52.8
				C990.6,218,994.5,213.2,998.2,208.2 M1026.3,219.5c6.8,3.9,14.9,7.4,23.6,9.1c0,0-5.1,7.5-13.6,17.5L1026.3,219.5 M984.5,224.9
				l19.9,52.2c-0.2,0.1-0.4,0.3-0.5,0.4c-4,3.1-8,6-11.7,8.7L973,236.8C976.8,233,980.7,229.1,984.5,224.9 M970.8,238.9l19,49
				c-5.1,3.6-9.9,6.8-14.2,9.5l-18.3-46.3C961.6,247.4,966.2,243.3,970.8,238.9 M954.9,253.1l18.2,46c-7,4.4-12.6,7.5-16,9.2
				l-17.7-43C944,261.7,949.3,257.7,954.9,253.1 M937,266.9l17.5,42.5c-0.5,0.2-0.9,0.4-1.1,0.4c0,0-17.1-7-34-31.2
				C919.4,278.6,926.4,274.5,937,266.9 M1002.5,194l-3.3,4.8c-0.9,1.3-1.8,2.6-2.8,3.9l-1,1.3l-1,1.3c-3.5,4.7-7.3,9.4-11.3,14
				l-1,1.1l-1.1,1.3c-3.6,3.9-7.3,7.9-11.3,11.7l-1,1l-1.2,1.1c-4.2,4.1-8.7,8.1-13.4,12l-1,0.8l-1.3,1.1c-5,4.1-10.1,8.1-15.3,12
				l-1.2,0.9l-1.1,0.8c-10.2,7.3-17.1,11.4-17.2,11.4l-4.3,2.5l2.9,4.1c17.5,25,35.3,32.6,36,32.9l1.3,0.5l1.4-0.3
				c0.1,0,0.2,0,0.3-0.1l0.1,0.3l2.8-1.4l3-1.3l-0.1-0.2c3.6-1.9,8.1-4.4,12.9-7.3l0,0l3.1-1.9l2.5-1.5l0,0
				c3.7-2.4,7.4-4.8,11.2-7.4l0,0l3.7-2.7l1.6-1.2l0,0c3.1-2.2,6.2-4.5,9.3-6.9l0,0.1l4.5-3.6l0.7-0.6l0,0c3.3-2.6,6.6-5.5,9.9-8.6
				l0,0.1l4-3.9l1-1l0,0l0.1-0.1c3.3-3.3,6.6-6.7,9.8-10.3l0,0.1l4-4.7l0.7-0.9l0,0l0.3-0.4c8.6-10.1,13.7-17.6,13.9-17.9l4-5.8
				l-6.9-1.3c-7.3-1.4-14.7-4.3-22.2-8.5l-2.4-1.4l0,0l-1.3-0.8c-11.2-7.1-18.3-14.8-18.4-14.9L1002.5,194L1002.5,194z"/>
		</g>
		<g>
			<path fill="#C2CBD3" d="M920.3,325.8c-8.3-0.3-451.1-103-470-107.3c-2.6-0.2-8.1-2-7.8-7.6c0.3-5,2.2-11.2,2.2-11.5
				c0.5-1.8,2.9-4.9,8-4.9c0.8,0,1.8,0.1,2.8,0.3c6.8,1.2,411.9,89.6,438,95.3c2.9-1.3,14.2-6.4,21.7-11.1l1.8-1.1l1.3,1.8
				c0.2,0.3,18.7,25.6,34.5,30.1l5.8,1.6l-5.4,2.7c-2.4,1.2-24,11.7-32.7,11.7L920.3,325.8z"/>
			<path fill="#1D365B" d="M452.8,196.8c0.7,0,1.5,0.1,2.4,0.2c6.9,1.3,438.7,95.5,438.7,95.5s13.8-6,22.7-11.6
				c0,0,18.9,26.2,35.8,31c0,0-23.2,11.5-31.7,11.5c-0.1,0-0.2,0-0.3,0c-8.1-0.3-469.5-107.3-469.5-107.3s-6.3-0.4-6-5.2
				c0.2-4.8,2.1-10.9,2.1-10.9S448,196.8,452.8,196.8 M452.8,192.2c-6.5,0-9.5,4.1-10.2,6.6c-0.1,0.2-2.1,6.7-2.3,12
				c-0.3,6,4.7,9.5,9.9,10.1c77.9,18.1,461.9,107,470.1,107.3l0.5,0c9.1,0,29.7-10,33.7-12l10.8-5.3l-11.5-3.3
				c-12.5-3.6-28.3-22.3-33.3-29.3l-2.5-3.5l-3.7,2.3c-6.9,4.3-17.1,9-20.7,10.7c-32.2-7-430.6-94-437.4-95.2
				C454.9,192.3,453.8,192.2,452.8,192.2L452.8,192.2z"/>
		</g>
	</g>
	<g>
		<path fill="#1D365B" d="M682.5,188.5c0,0,9.8,2.8,7,18.5c0,0,25.2,20,39.5,38.2c0,0,22.2-7.8,25.6,1.9c3.5,9.7,6.2,17.6,6.2,17.6
			l-23.3-4.5c0,0,5.6,11.2,5.7,15.5c0.1,4.2-0.2,12.9-0.2,12.9s4.4-1.6,7.3,1.3c2.9,2.9-2.8-6.7,6.7-5.8c10.2,0.9,15,1.4,15,13.7
			c0,16.4-1.8,21.8-7.9,29.2c-6.1,7.4-9.6,11.4-18.7,11.1c0,0-7.3,5.4-19.4,6.2c-12.1,0.8-15.8-0.3-22.2-3.7c0,0-11.5,1-23.6-12
			c-12.2-13-35.8-39-35.8-39s-22.6-6.9-32.4-19.1c0,0-9.6-1.2-14.1-9.5c-4.5-8.3,13.4-30.5,21.3-35.4c7.9-4.9,43.2-24.6,47.1-29.3
			C670.1,191.7,682.5,188.5,682.5,188.5z"/>
		<g>
			<g>
				<path fill="#009A94" d="M609.9,267.1c0,0,3.8-23.1,26.4-32.6c22.6-9.6,52-22.5,50.4-35.2c-1.5-12.8-5.9-8.9-22,2.9
					c-16,11.8-41.6,18.8-53.4,35.8C599.5,254.9,594,263.1,609.9,267.1z"/>
				<path fill="#009A94" d="M728.9,248c0,0,14.6-4.9,20.5-3.8c5.9,1.1,7.2,15.9,7.2,15.9l-9.3-1.2l-13.1-0.7c0,0,7.5,14.9,7.6,18.7
					c0.1,3.8-1,14.4-1,14.4s7-4.1,10.4,3c3.4,7.1,5.5,10.9,5.5,10.9s-0.8-11.6-3.2-15.1c-2.4-3.5,11.9-4.4,15.5-0.7
					c3.6,3.7-5.9,24.9-5.9,24.9s-29.1-3-47.9-39.4L728.9,248z"/>
				<path fill="#009A94" d="M707,284l18.2,20.7l-12.4,8.3c0,0-6.1,2.1-21.1-17.9C691.7,295.1,702,290,707,284z"/>
				<path fill="#009A94" d="M679.5,304.1l10.2-6.8c0,0,9.6,14.6,32.8,27.4c0,0-2,5.9-16.2,6.5C706.4,331.2,684,316.9,679.5,304.1z"
					/>
				<path fill="#009A94" d="M720,319.4l12.2-8c0,0,17,12.7,28.7,15.3c0,0-7.2,9.3-11.4,8.9C745.2,335.1,741.7,334.5,720,319.4z"/>
				<path fill="#009A94" d="M722.9,334.7l10.4-3.6l10.3,5.1C743.7,336.2,736.7,342.4,722.9,334.7z"/>
				<path fill="#78C5C0" d="M706.8,339.1c0,0,12.7-6.2,21.5,2.1C728.3,341.2,714.9,345.1,706.8,339.1z"/>
				<path fill="#78C5C0" d="M675,305.2c0,0,14.3,17.6,26.9,26.1c0,0-6.5,4.5-12.2,1.6c-5.6-2.9-22.4-20.9-25.8-26.1L675,305.2z"/>
				<path fill="#FFFFFF" d="M710.9,279.6c0,0,31.5,37,52.8,36.8l5.6-15.1c0,0,1.9,13.9-5.4,22C763.9,323.3,724.9,315.8,710.9,279.6z
					"/>
				<polygon fill="#FFFFFF" points="713.7,315.2 726.2,306 731.1,310.3 718.3,317.9 				"/>
				<path fill="#FFFFFF" d="M712.7,332.4c0,0,10.2-1.3,12.7-6.8l5.3,3.3C730.7,328.8,719.5,336.8,712.7,332.4z"/>
				<path fill="#FFFFFF" d="M695.6,335.8c0,0,5.5,0.7,9.3-3.1l6.7,2.2C711.5,334.9,700.8,341.2,695.6,335.8z"/>
				<path fill="#FFFFFF" d="M647.4,288.7c0,0,36.4-7.5,60.4-61.9l3.5,3.3C711.3,230.1,689.9,283.5,647.4,288.7z"/>
			</g>
			<g>
				<path fill="#78C5C0" d="M623.3,247c-9.8,9.7-9.4,21.3-9.4,21.3c6.5,10.7,32.1,19,32.1,19c6.3-2.1,12.1-4.9,17.3-8.2
					C643.3,283.5,624.2,248.7,623.3,247z"/>
				<path fill="#009A94" d="M631.1,241.2c-3.1,1.8-5.7,3.8-7.8,5.8c0,0,0,0,0,0c0.9,1.7,20,36.4,39.9,32.2c0,0,0,0,0,0
					c30.6-19.3,41.8-54.6,41.8-54.6l-17.7-15.5C671.3,227,649,231.1,631.1,241.2z"/>
			</g>
			<path fill="#78C5C0" d="M667.4,285.9c-10,5.3-17.3,6.5-17.3,6.5l10.3,11.3c5.1,0.1,10.1-0.8,14.8-2.5
				C667.7,297.5,667.2,289.1,667.4,285.9z"/>
			<path fill="#009A94" d="M668,285.6c-0.2,0.1-0.4,0.2-0.6,0.3c-0.1,3.2,0.3,11.6,7.9,15.3c0.3-0.1,0.7-0.2,1-0.4
				c30-11.5,50.5-53.5,50.5-53.5l-13-15.2C701.1,262.8,682,278.1,668,285.6z"/>
		</g>
	</g>
</g>
</svg>
