<?xml version="1.0" encoding="utf-8"?>
<!-- Generator: Adobe Illustrator 18.1.1, SVG Export Plug-In . SVG Version: 6.00 Build 0)  -->
<svg version="1.1" id="Layer_1" xmlns="http://www.w3.org/2000/svg" xmlns:xlink="http://www.w3.org/1999/xlink" x="0px" y="0px"
	 viewBox="0 0 1280 720" enable-background="new 0 0 1280 720" xml:space="preserve">
<g>
	<g>
		<g>
			<g>
				<path fill="#A7A9AC" d="M921.6,168C903,91,864.7,40.5,863.2,38.4L848,16.9l-28.6,15c-14.1,7-77.9,28.5-190.6,29.4
					c-126.4,1-192.2-32.6-192.7-32.9l-19.6-11.7l-14.8,18.6C382.5,55.6,338,142.2,332.2,226c-9.9,143,93.2,274.5,99.2,282.8
					c66.9,97,177.2,167,181.7,169.7l18.2,12.4l21-14c3.8-2.2,87.2-54.6,167.5-155.6c45.5-57.1,69.8-102,90-165.6
					C929.1,294.6,935.8,226.7,921.6,168z M886.2,348.3c-19.1,60.4-42.3,103.1-85.7,157.7c-77.5,97.4-164,148.2-167.6,150.3l-1.6,0.9
					l-1.6-0.9c-4.4-2.6-107.3-64.7-171.2-157.3l-0.2-0.3c-4.4-5.9-106.5-146.4-97.2-281.5c5.4-78.2,44-149.6,58.5-164.8l1.6-1.7
					l2.1,1.1c0.7,0.4,69.9,36.1,200.1,36.1c1.9,0,3.9,0,5.8,0c121.2-1,192.1-25.9,207.4-34.5l1.5-0.8l2.8-2.8l2.1,3
					c1.4,1.9,33.3,47.7,50.9,120.2C907.1,227.3,904.3,291.3,886.2,348.3z"/>
			</g>
		</g>
		<g>
			<path d="M631.2,671.6l-7.8-4.7c-4.4-2.7-109.7-66.1-175-160.9c-6.4-8.7-109.2-150.7-99.6-289.7c5.7-82.4,46-155.7,61.8-172.4
				l8.1-8.5l10.4,5.5c0.6,0.3,69.2,35.7,200.1,34.6c122.3-1,190.6-26.8,201.4-32.9l12-12l10.6,14.9c1.4,2,34.7,49.6,52.8,124.4
				c13.7,56.6,10.8,123-7.9,182.1c-19.6,62-43.4,105.8-87.8,161.6C731.2,612.9,642.8,664.9,639,667L631.2,671.6L631.2,671.6z
				 M426.7,73.6c-14.4,22.2-42.6,79.5-47.1,144.8c-8.9,128.9,92.7,268,93.7,269.4l0.3,0.4c51.6,75.1,132.4,130.8,157.7,147.2
				c23-14.8,92.7-63.1,154.6-141c41.8-52.6,64.2-93.7,82.6-151.7c24.2-76.6,13.2-141.3,7.3-165.5c-11.9-49-30.9-85.6-41.1-102.9
				c-30,12.5-98.7,31.1-205.4,32C520.8,107.2,452.9,84.5,426.7,73.6L426.7,73.6z"/>
		</g>
		<g>
			<path fill="#B8292F" d="M421.8,54.5c0,0,70.3,37.6,207.5,36.5c137.2-1.1,207.1-32.3,211.2-36.5c0,0,32.8,46.4,50.4,119.1
				c10.6,43.7,13.6,106.8-7.6,173.8c-20.2,63.9-45,106.2-85.2,156.7c-78,98.1-166.8,149.6-166.8,149.6S525.1,590.3,460.9,497
				c0,0-106.2-143.3-96.7-279.7C369.6,139.5,408.3,68.7,421.8,54.5z"/>
		</g>
		<g>
			<g>
				<path d="M631.3,104.5"/>
			</g>
		</g>
	</g>
	<g>
		<path fill="#FFFFFF" d="M631.3,637.7c0,0-113.8-69.6-202.2-208.8c-108.3-170.4-9.7-353.8-2.4-353.8c0,0,77.6,32,204.7,29.4V637.7z
			"/>
	</g>
	<g>
		<g>
			<path d="M478.6,120l-13.2-2.9c2-7.5,0.2-12.1-5.5-13.7c-6.5-1.9-11.3,2.9-14.7,14.4c-1.9,6.6-2.3,11.4-1.3,14.2
				c1.1,2.9,3.2,4.8,6.3,5.7c5.1,1.5,9.2-0.9,12.3-7.2l11.8,4.2c-2.6,6.1-6.3,10.2-11.2,12.3c-4.9,2.1-10.2,2.4-15.9,0.7
				c-7-2-11.9-6.1-14.9-12.2c-3-6.1-3.2-13.4-0.8-21.9c2.3-8,6.3-13.9,12-17.7c5.7-3.8,12.2-4.7,19.5-2.6
				C475.8,97.1,481,105.9,478.6,120z"/>
		</g>
		<g>
			<path d="M498.6,136.6l-3.7,21.4l-12.8-2.2l9.4-54.1l23.8,4.1c4.4,0.8,7.8,1.9,10.3,3.4c2.5,1.5,4.4,3.7,5.6,6.7
				c1.3,3,1.6,6.2,1,9.5c-1.1,6.5-5.1,10.6-11.8,12.4l5.8,25.6l-14-2.4l-4.6-22.9L498.6,136.6z M502.6,113.6l-2.4,13.8l7.8,1.3
				c2.5,0.4,4.4,0.6,5.6,0.4c1.2-0.2,2.4-0.8,3.5-1.8c1.1-1.1,1.8-2.4,2.1-4c0.3-1.5,0-2.9-0.6-4.3c-0.7-1.3-1.5-2.2-2.6-2.7
				c-1-0.5-3-0.9-5.9-1.4L502.6,113.6z"/>
		</g>
		<g>
			<path d="M560.5,167.6c-7.4-0.6-12.8-3.8-16.4-9.7c-3.6-5.9-5-12.7-4.4-20.6c0.7-8,3.2-14.5,7.8-19.5c4.5-5,10.6-7.2,18.1-6.6
				c7.6,0.6,13.2,4,16.6,10c3.4,6,4.8,12.7,4.2,20.1c-0.7,7.9-3.2,14.5-7.7,19.6C574.3,166,568.2,168.2,560.5,167.6z M564.7,121.7
				c-6.7-0.6-10.6,5.1-11.5,16.9c-1,11.8,1.9,18,8.6,18.6c6.5,0.5,10.2-5.1,11.2-16.9C573.9,128.4,571.2,122.2,564.7,121.7z"/>
		</g>
		<g>
			<path d="M640,114.4l-0.2,34.2c0,5.5-0.7,9.6-2,12.3c-1.3,2.7-3.6,4.9-7,6.6c-3.4,1.7-7.7,2.5-13,2.5c-5.3,0-9.5-0.8-12.6-2.4
				c-3.1-1.6-5.4-3.8-7-6.7c-1.5-2.9-2.3-7.1-2.3-12.6l0.2-34.2l14,0.1l-0.2,34.2c0,2.9,0.2,5.1,0.7,6.5c0.5,1.4,1.5,2.5,3,3.3
				c1.5,0.8,3.3,1.2,5.5,1.3c2.4,0,4.4-0.4,5.9-1.2c1.5-0.8,2.5-1.9,3-3.2c0.5-1.3,0.8-3.5,0.8-6.6l0.2-34.2L640,114.4z"/>
		</g>
		<g>
			<path d="M684.6,112.3l0.5,10.8l-13.6,0.7l2.1,44l-13,0.6l-2.1-44l-13.7,0.7l-0.5-10.8L684.6,112.3z"/>
		</g>
		<g>
			<path d="M729.8,118.3l-26,2.7l1.2,11.2l20.4-2.1l1.1,10.3l-20.4,2.1l1.2,11.9l26-2.7l1.1,10.8l-39,4l-5.7-54.6l39-4L729.8,118.3z
				"/>
		</g>
		<g>
			<path d="M754.8,137.2l3.9,21.4l-12.7,2.3l-9.8-54l23.7-4.3c4.4-0.8,8-0.9,10.8-0.4c2.8,0.5,5.4,2,7.6,4.4
				c2.2,2.4,3.7,5.3,4.3,8.6c1.2,6.5-1.1,11.7-6.8,15.7l14.3,22.1l-14,2.5l-12.2-19.9L754.8,137.2z M750.6,114.2l2.5,13.8l7.8-1.4
				c2.5-0.5,4.3-1,5.4-1.5c1.1-0.6,2-1.5,2.6-2.9c0.7-1.4,0.9-2.9,0.6-4.5c-0.3-1.5-1-2.8-2.1-3.8c-1.1-1-2.2-1.6-3.3-1.7
				c-1.1-0.1-3.1,0.1-6,0.7L750.6,114.2z"/>
		</g>
		<g>
			<path d="M830.1,97.1l-9.4,6.7c-2.7-3.7-6.3-4.9-10.8-3.5c-4.9,1.5-6.8,3.8-5.8,7c0.4,1.3,1.2,2.2,2.3,2.8
				c1.2,0.6,3.5,0.7,6.9,0.4c5.7-0.6,9.9-0.7,12.8-0.3c2.8,0.3,5.5,1.5,7.9,3.4c2.5,1.9,4.1,4.4,5.1,7.4c1.4,4.7,0.9,9.4-1.7,14
				c-2.6,4.6-7.5,8-14.6,10.1c-5.4,1.6-10.3,1.8-14.9,0.5c-4.5-1.3-8.1-4.2-10.8-8.6l10.6-6.1c2.8,4.5,7.1,5.9,12.9,4.1
				c2.8-0.9,4.8-2,5.8-3.6c1-1.5,1.3-3,0.9-4.5c-0.5-1.5-1.5-2.5-3-3c-1.5-0.5-4.2-0.5-8-0.2c-7.1,0.7-12.4,0.2-16-1.3
				c-3.6-1.5-6.1-4.6-7.5-9.2c-1.4-4.7-0.9-9.1,1.5-13.4c2.4-4.2,6.5-7.2,12.3-9C816.8,87.7,824.6,89.8,830.1,97.1z"/>
		</g>
	</g>
	<g>
		<g>
			<g>
				<path fill="#A7A9AC" d="M289.7,235.2c-5.3,0.8-11.4,2.5-14.1,3.6v-52.4h-22.8c-1.2-0.2-5.7,0-12,0c-13.5,0-38.9,3.3-58.9,25.5
					c-8.1,8.5-45.3,52.1-42.2,135.8c3.7,99,42,158.1,102.4,158.1c2.7,0,33.5,0,33.5,0v-16.6h142.6l54.8,114l-1.5-114H519
					c0,0,11,28.1,22,49.9c8.4,16.7,31.3,51,31.3,51V280.3l40-46.8h-291C321.3,233.6,299.8,233.7,289.7,235.2z"/>
			</g>
			<g>
				<path fill="#A7A9AC" d="M1122,439.3l-0.1-3.2l-0.8-3c-13-46.7-29.3-105.3-39.5-142.3l40.5,38.8V197h-95.6
					c-24.8,0-39.6,18.5-42.9,35.5l-0.2,1H870.1l0.1,0.2c-2.3-0.1-8.2-0.2-10.6-0.2c-27.8,0-40.8,10.1-49.5,21.1
					c-16.1-15.7-38.5-20.9-52.5-21.1h-98.3l33.6,46v163l-28.3,46.6H983v15.6h96.3c21.2,0,36.8-10.8,41.7-28.8
					C1122.1,472,1123.2,465.5,1122,439.3z"/>
			</g>
		</g>
		<g>
			<g>
				<path d="M361.6,275.2v172l-2.6,3.6l-2.5-4V277.3c0-13.6-16-28.3-51.2-28.3c-39.1,0-43.6,24.5-43.8,25.6l-0.2,1v57l-13.8,39.1
					h14.5v75l-2,3v-55.9l-27.8,31.5c-1.1-0.7-2.8-2.1-4.9-5.1c-9.6-13-15.5-37.5-17.6-72.9c-2.1-36.4,14.5-76,20.3-80.4
					c1.3-0.9,2.3-1.6,3.2-2c2.2,3.1,4.5,6.2,4.5,6.2l22.3,25.3v-92.1l-10.1-1.8c-0.6-0.1-4.1-0.7-9.3-0.7
					c-10.9,0-31.6,2.7-47.5,20.5c-4.7,4.8-41.1,45.1-38.1,124.7c3.3,89.7,35.9,143.2,87,143.2c2.2,0,4.6-0.1,6.9-0.3l11.2-1v-15.2
					h165.5l-15-26.3V421l23.1,65.9l22.3,48.8v-62h70.2l-16-26.4v-28.1l26.8,74l19.8,39.7V274.6l21.9-25.6H342.2L361.6,275.2z
					 M456,453.3V274.5l2.1-2.5l2.5,3.2v171.8L456,453.3z"/>
			</g>
			<g>
				<path d="M1106.6,440l-0.1-1.4l-0.4-1.3c-14.4-51.6-38.7-139.1-46.8-168.8h21.2l26.1,25v-81h-80.1c-18.4,0-26.2,15.1-27.8,23.1
					l-0.2,1.2v28l1.9,7c24.1,86.8,39.7,142.7,45.5,163.8h-19.8l-17-15.3l5.6-25.9l-33.5,30.6h-5.5V275.1l17-26.1h-90l21.4,26.1
					v171.6l-3.7,5.1l-3.5-5.1V277.3c0-13.6-16.8-28.3-53.8-28.3c-40.8,0-45.7,24.4-45.9,25.4l-0.2,1.1v56.9l-12.4,33
					c-2.6-3.4-5.3-6.2-7.7-8.3c9.1-9.5,20.7-28.4,16.6-61.6c-4.5-36.3-38.4-46.3-55.9-46.6h-67.9l18.7,25.6v172.3l-16.3,26.8h67.8
					l0.8-0.1c36.2-4.5,52.3-22.2,55.6-61.1c1.6-18.3-2.2-31.4-7.5-40.8h9.1v74.8l-19.4,27.2h198.9l1-4.7v20.4h80.9
					c19.2,0,25.1-11,26.9-17.5C1106.5,470.4,1107.7,466,1106.6,440z M760.2,331.4v-30.5c2.4,1.7,4.8,4.7,5.6,10.5
					c1.9,12.9-3.2,18.7-5.1,19.8C760.7,331.3,760.5,331.3,760.2,331.4z M760.2,386.1c2.4,2.1,4.7,5.7,5.6,12.2
					c2.1,15.6-3.8,22.6-5.5,23.6c0,0-0.1,0-0.1,0V386.1z"/>
			</g>
		</g>
		<g>
			<g>
				<path fill="#FFFFFF" d="M240.8,208.1c-9.9,0-28.7,2.4-43,18.6c-3,3.1-39.4,42.1-36.5,120.2c3.2,85.9,33.4,137.3,80.8,137.3
					c2.1,0,4.2-0.1,6.3-0.3l5.6-0.5v-73.1l-19.3,21.9c-1.6,0.3-6,0.1-12.2-8.2c-10.3-14-16.7-39.7-18.8-76.2
					c-2.2-37.7,15.1-80.2,22.9-85.8c5.2-3.8,7.9-4.2,8.9-4.2c0.4,0,0.5,0.1,0.5,0.1c2.2,3.3,6.7,9.4,6.9,9.6l11.1,15.1v-73.1
					l-5.1-0.9C248.6,208.6,245.5,208.1,240.8,208.1z"/>
			</g>
			<g>
				<path fill="#FFFFFF" d="M511.1,272.9v30.8l-17.9-48.5h-29.1H453h-52.5l10.5,17.7v29.9l-17.1-47.6h-39.5l13.3,18v176l-9,12.7
					l-8.4-13.2V277.3c0-8.9-12-22.1-45-22.1c-33.9,0-37.5,19.6-37.7,20.4l-0.1,0.5v57.5l-11.3,31.9h12v83.1l-12.6,18.9h99h7.6h54.5
					l-12.4-18.2v-64.5l18.4,52.5l18.9,52.1l8,15.4V272.3l8.5-10.1l8.4,11.1v175.9l-13.5,18.4h63.5l-12.7-18.3v-65.4l34.6,96.2
					l12,29.4V272.3l14.7-17.2h-65L511.1,272.9z M304.3,328.5v-37.7h9.8v37.7H304.3z M304.3,448.9v-83.7h10.2v82.5l-5.2,8.5
					L304.3,448.9z"/>
			</g>
			<g>
				<path fill="#FFFFFF" d="M969.6,431.1V273.3l11.8-18.1h-65.6l14.5,17.7v175.8l-10,13.9l-9.5-14V277.3c0-8.9-12.7-22.1-47.6-22.1
					c-35.8,0-39.6,19.5-39.8,20.3l-0.1,0.5v57.5l-12,32H824v83l-13.5,19h106.2h6.9h68.9l12.1-55.6l-20.9,19.1H969.6z M861.5,328.5
					v-37.7h11.3v37.7H861.5z M861.5,448.8v-83.6h11.7v82.4l-5.9,9.1L861.5,448.8z"/>
			</g>
			<g>
				<path fill="#FFFFFF" d="M1100.4,440.3l0-0.7l-0.2-0.7c-15.5-55.8-44.3-159.3-48.9-176.6h31.7l17.4,16.7v-60.4h-74
					c-14.4,0-20.5,11.8-21.7,18.1l-0.1,0.6v26.6l0.2,0.8c1.9,6.7,44.4,159.7,49.2,177h-30.3l-19.1-17.1v58.6h74.7
					c14.4,0,19.3-7,20.9-12.9C1101.4,465.9,1100.8,449.6,1100.4,440.3z"/>
			</g>
			<g>
				<path fill="#FFFFFF" d="M787.3,357.5L787.3,357.5c8.2-6.2,24.7-23.5,20.1-61.2c-4-32-34.2-40.9-49.7-41.1h-55.8l12.7,17.4v176
					L703,467.5h56.5l0.4,0c33.1-4.1,47.1-19.6,50.2-55.5C813.1,375.8,794.4,362.5,787.3,357.5z M756.9,292.6l0.8,0.3
					c3.7,1.3,12.3,4.4,14.3,17.6c2.4,15.8-4.3,24-8.2,26.1c-2,1.1-5.4,1.7-9.7,1.9v-46c0.2,0,0.5,0,0.7,0
					C756.3,292.4,756.9,292.6,756.9,292.6L756.9,292.6z M754.1,377.1c0.2,0,0.5,0,0.7,0c1.4,0,2,0.2,1.9,0.1l0.8,0.3
					c3.7,1.5,12.4,4.9,14.5,20c2.4,18.1-4.5,27.4-8.5,29.8c-1.9,1.1-5.3,1.9-9.4,2V377.1z"/>
			</g>
		</g>
		<g>
			<g>
				<path fill="#B8292F" d="M247.8,263.8v-49.1c0,0-27-4.9-45.6,16.1c0,0-37.7,37.8-34.8,115.8c2.9,78,29.7,135.8,80.4,131v-51.2
					l-9.6,10.9c0,0-9.4,5.4-20.7-9.8c-11.3-15.2-17.8-41.7-20-79.5c-2.2-37.7,14.9-83.5,25.4-91.1c10.5-7.6,16-5.8,18.1-2.5
					C243.3,257.7,247.8,263.8,247.8,263.8z"/>
			</g>
			<g>
				<path fill="#B8292F" d="M313.4,461.3h37.8l-6.9-10.9c0,0,0-168.1,0-173.1c0-5.1-9.8-16-38.8-16c-29,0-31.6,15.2-31.6,15.2v58.1
					l-8.7,24.7h9.4v91.1l-7.3,10.9h38.1l-7.3-10.5V359h22.5v90.4L313.4,461.3z M320.3,334.7h-22.1v-50.1h22.1V334.7z"/>
			</g>
			<g>
				<path fill="#B8292F" d="M871.6,461.3h40.3l-7.4-10.9c0,0,0-168.1,0-173.1c0-5.1-10.5-16-41.5-16c-31,0-33.7,15.2-33.7,15.2v58.1
					l-9.3,24.7h10.1v91.1l-7.7,10.9h40.7l-7.8-10.5V359h24v90.4L871.6,461.3z M879,334.7h-23.6v-50.1H879V334.7z"/>
			</g>
			<g>
				<polygon fill="#B8292F" points="366.7,261.3 389.6,261.3 417.2,338.3 417.2,271.1 411.4,261.3 450.9,261.3 443.7,270.1 
					443.7,478 398.3,348.5 398.3,451.2 405.2,461.3 366.7,461.3 374,451.2 374,271.1 				"/>
			</g>
			<g>
				<polygon fill="#B8292F" points="465.5,261.3 488.9,261.3 517.3,338.3 517.3,271.1 511.3,261.3 551.9,261.3 544.5,270.1 
					544.5,478 497.9,348.5 497.9,451.2 505,461.3 465.5,461.3 472.9,451.2 472.9,271.1 				"/>
			</g>
			<g>
				<polygon fill="#B8292F" points="928.8,261.3 969.9,261.3 963.4,271.4 963.4,437.3 986,437.3 994.4,429.6 987.4,461.3 
					928.8,461.3 936.4,450.7 936.4,270.7 				"/>
			</g>
			<g>
				<path fill="#B8292F" d="M1010.8,438.4l10.6,9.5h37.5c0,0,3.6,1.1,1.5-6.6c-2.2-7.7-49.6-178.2-49.6-178.2v-25.1
					c0,0,2.6-13.1,15.7-13.1c13.1,0,67.8,0,67.8,0v39.7l-8.8-8.4h-40.1c0,0-2.2-1.2-0.7,5.2c1.5,6.4,49.6,179.2,49.6,179.2
					s1.1,24.1,0,28.1c-1.1,4-4.4,8.4-14.9,8.4c-10.6,0-68.5,0-68.5,0V438.4z"/>
			</g>
			<g>
				<path fill="#B8292F" d="M782.1,361.3c-5.4-4.1-1.3-7-1.3-7c9.4-5.4,24.8-22.1,20.5-57.3c-4.4-35.2-43.6-35.7-43.6-35.7H714
					l6.7,9.2v179.8l-6.7,11h45.1c27.7-3.4,41.8-14.4,44.8-49.9C806.9,375.9,787.5,365.5,782.1,361.3z M766.7,432.5
					c-6.7,4-18.8,2.7-18.8,2.7v-63.7c0,0,8.1-1.3,11.2,0c3.2,1.3,16.3,5.4,19,25.2C780.8,416.4,773.4,428.5,766.7,432.5z M766.7,342
					c-6.7,3.6-18.8,2.4-18.8,2.4v-57.6c0,0,8.1-1.2,11.2,0c3.2,1.2,16.3,4.9,19,22.8C780.8,327.5,773.4,338.4,766.7,342z"/>
			</g>
		</g>
	</g>
	<g>
		<g>
			<path fill="#FFFFFF" d="M623.7,609.4c-17.5,0-27.4-20.3-29.7-34c-0.9-5-1.9-12.4-3.1-20.7c-1.4-9.9-3-21.2-4.6-30.6
				c-2-12-8-37.4-12.7-57.8c-2-8.7-3.9-16.6-5.1-22.3c-4.3-19.4-8.9-30.8-10.3-33c0,0,0,0,0,0c-1,0.1-2.3,0.3-3.6,0.5
				c-9.7,1.5-25.5-9.4-30.5-20.9c-2-4.7-6.5-8.3-12.7-13.2c-3-2.4-6.4-5.1-10-8.3c-13.4-12-12.2-31.6-6.6-45.9
				c4.9-12.6,17.8-30.9,24.1-34.4c1.6-0.8,3.2-1.3,5-1.3c6.3,0,11.1,5.5,14.6,10.5c4.7-21.9,20.1-38.3,25.6-43.6
				c5.5-5.2,13.1-10,20.5-13.7c-10.1-0.8-16.5-8.7-17.2-21.1c-1.7-0.3-4.2-0.4-5.9-0.5c-1.1-0.1-2.2-0.1-3.3-0.2
				c-3.9-0.3-7.1-2.1-9.2-5.2c-3.4-5.2-2.3-12.3-1.1-15.7c0.8-2.3,2.3-5.3,4.1-8.9c1.6-3.2,3.2-6.4,4.1-8.8c2.5-6.3,7.4-7,9.4-7
				c3.3,0,6.7,1.6,10.4,4.8c3.5,3,11.8,9,14.2,10.2c1,0.5,4.1,0.9,6.2,1.3c3,0.4,5.8,0.9,8.1,1.7c1.1,0.4,3.1,0.8,5,0.8
				c1.6,0,2.4-0.3,2.6-0.4c1.9-3.5,5.8-5.8,10.1-5.8c4.7,0,9.4,2.6,12.8,7.2c1.1-0.7,2.9-2.3,3.9-3.2l1.2-1c2.2-1.9,4.8-2.9,7.6-2.9
				c4.7,0,8.6,2.8,10.4,4.4c0.3,0,0.6,0,1.1,0c3,0,7.3-0.9,9.5-2c2.6-1.3,11.3-10.7,16-15.7c2.5-2.6,4.8-5.1,6.6-7
				c3.3-3.4,8.6-7.9,15.2-7.9c3.6,0,7.2,1.3,10.9,4c7.2,5.2,15.9,18.3,13.8,27.9c-1.8,8.2-10.4,15.2-15,19c3,2.5,4.9,6.7,4.9,10.9
				c0,6.6-8.2,15.8-13.8,19.6c-2.5,1.7-5.3,2.5-8.4,2.5c-6.7,0-12.5-4.2-14.2-5.5c-1.5-1.2-11.1-7.7-16.8-11.5c-0.6-0.4-2.8-1-6.1-1
				c-1,0-1.8,0-2.3,0.1c-1.6,0.3-3.5,0.4-4.5,0.4c-4,0-6.9-0.7-9-2.1c-0.2,1.3-0.3,2.9-0.3,4.9c0,3.1,0.8,3.8,5.5,6.3l1,0.5
				c1.8,1,5.3,2.6,9.4,4.4c6.2,2.8,13.9,6.4,20.8,10.1c11.7,6.3,25,20.6,32.3,34.6c3.1,6,4.7,11,5.3,15.3c2.9-2.6,5.7-3.2,7.7-3.2
				c2.7,0,6.7,1.1,10.3,6.2c8.2,11.8,13.5,21.4,16,28.6c4.1,12.1,0,22.9-4.2,26.8c-0.6,0.6-2,2.2-3.8,4.4
				c-6.2,7.3-16.5,19.5-24.4,25.3c-8.5,6.3-15.6,6.7-19.8,6.9c-0.2,0-0.4,0-0.7,0c-2.1,4.2-6.2,16-9,24c-2.3,6.6-4.4,12.8-6.2,17.3
				c-3.6,9-5.5,23.7-5.9,43.9c-0.3,13.8-4.7,46-16,77.8c-10.1,28.4-20,52.1-39.6,52.7L623.7,609.4z M558.9,398.6
				c5.5,0,7.8,3,9.6,5.7c2.7,4.2,7.6,17.6,12,36.9c1.3,5.7,3.1,13.5,5.1,22.2c4.8,20.6,10.8,46.2,12.9,58.5
				c1.6,9.6,3.2,20.9,4.6,30.9c1.1,8.2,2.2,15.5,3,20.4c1.7,9.9,8.8,23.7,17.6,23.7v6.2l0.3-6.2c9.4-0.3,16.9-12,28.4-44.5
				c10.7-30.2,15.1-61.3,15.3-73.9c0.4-22,2.6-37.8,6.8-48.2c1.7-4.2,3.8-10.3,6-16.8c8.8-25.5,10.7-29.6,14.8-31.3
				c2-0.8,4-0.9,5.9-1c3.3-0.2,7.5-0.4,13.1-4.5c6.7-5,16.8-16.9,22.3-23.4c2.9-3.4,4-4.8,4.9-5.6c0.6-0.7,3.4-6.1,0.8-13.7
				c-1.4-4.2-5.1-12-14.4-25.5c0-0.1-0.1-0.1-0.2-0.2c-1,1-2,2.1-3.1,3.3c-7.5,8-8.9,9.3-11,10l-1,0.3l-4.6,0l-2.1-2.9
				c-2.2-3.3-0.8-7.1,1.4-12.1c0.6-1.4,2.3-7-3.5-18.1c-6.1-11.9-17.6-24.2-27.2-29.4c-6.5-3.5-14-7-20.1-9.7
				c-4.4-2-7.9-3.6-10.1-4.8l-0.9-0.5c-4.8-2.6-12-6.5-12-17.2c0-14.6,5.1-18.5,9.5-19.3c5.5-0.9,8.6,1.9,10.3,3.9
				c1,0.1,3.5,0.1,3.9,0c1.7-0.3,3.7-0.4,4.8-0.4c3.8,0,9.1,0.5,13,3.1c2.5,1.7,15.3,10.2,17.7,12.1c1.7,1.4,4.5,2.8,6.5,2.8
				c0.7,0,1.1-0.2,1.4-0.4c4.2-2.8,8-8.2,8.5-9.9c0-0.3-0.4-0.9-0.6-1c-2.4-1.2-4.3-4.1-4.7-7.6c-0.5-4.2,1.3-8.5,4.7-11.3
				c2.7-2.2,9.9-8.2,10.8-12.2c0.6-2.7-3.7-11.5-8.9-15.2c-1.5-1.1-2.8-1.7-3.7-1.7c-1.5,0-3.7,1.5-6.4,4.2c-1.8,1.8-4,4.2-6.4,6.8
				c-9,9.7-15.2,16.2-19.5,18.4c-4.5,2.3-10.8,3.3-15,3.3c-4.1,0-7.1-0.9-9-2.9c-0.7-0.8-1.7-1.3-2.2-1.5l-0.7,0.7
				c-3.1,2.8-7.4,6.7-12.8,6.7c-3.6,0-6.8-1.8-9.1-5c-1.4-1.9-2.7-2.5-3.1-2.5c-0.9,2.2-4.4,6.2-12.7,6.2c-3.1,0-6.6-0.6-9.3-1.6
				c-1.1-0.4-3.5-0.8-5.7-1.1c-3.6-0.5-7-1-9.6-2.3c-4.2-2-13.6-9-17.1-12c-0.4-0.3-0.7-0.6-1-0.8c-1.1,2.5-2.5,5.3-3.8,7.9
				c-1.5,2.9-3,6-3.5,7.5c-0.6,1.6-0.6,3.6-0.3,4.5c1,0.1,1.9,0.1,2.8,0.1c6.6,0.3,17.6,0.8,17.6,10.5c0,5,1.1,11,6.4,11.1
				c0,0,0,0,0,0c5.1,0,5.5-1.2,7.1-5.1c0.5-1.2,0.9-2.3,1.5-3.4c3.3-6.4,6.1-10.3,17.1-10.6c2.4-0.1,4.3-0.1,6-0.1
				c4.1,0,15.1,0,15.1,9.2c0,7.1-0.7,14.1-5.4,17c-1.2,0.7-2.6,1.4-4,2c-0.7,0.3-1.8,0.8-2.2,1l-0.2,0.3c-1.7,2.2-5.7,7.6-14,6.9
				c-4.7,0-24.1,7.6-34.5,17.6c-5.9,5.7-25.1,26.2-23.1,51.4l1.7,20.9L538.4,319c-0.3-0.4-6.7-8.8-9.7-13.2
				c-2.4-3.5-3.9-4.9-4.7-5.5c-3.6,3.2-13.6,16.6-17.8,27.4c-4.1,10.5-5.3,24.4,3.4,32.2c3.3,3,6.4,5.4,9.4,7.8
				c7,5.6,13.1,10.4,16.4,17.9c3,6.9,12.9,13.6,17,13.6C555.3,398.9,557.2,398.6,558.9,398.6z M617.7,221.7c-1.6,0-3.4,0-5.3,0.1
				c-4.9,0.1-4.9,0.1-6.6,3.5c-0.6,1.1-0.9,1.9-1.2,2.7c-0.7,1.8-1.7,4.2-3.3,6.4c2.3-0.6,4.3-0.9,5.8-0.9l0.9,0
				c1.5,0,2-0.4,3.3-2.1c0.6-0.8,1.1-1.4,1.6-1.9c1.6-1.5,3.6-2.4,5.5-3.2c0.5-0.2,1-0.4,1.5-0.7c0.2-0.6,0.4-1.8,0.5-3.9
				C619.7,221.7,618.8,221.7,617.7,221.7z"/>
		</g>
		<g>
			<path d="M671.4,219.7c0,0,15,10,17.3,11.8c2.3,1.8,9.5,6.6,15.2,2.7c5.7-3.9,11.1-11.4,11.1-14.5c0-3.2-1.8-5.9-3.6-6.8
				c-1.8-0.9-2.9-5.7,0.9-8.9c3.9-3.2,11.6-9.5,12.9-15.7c1.4-6.1-5-17-11.4-21.6c-6.4-4.5-11.4-3.7-18.2,3.3
				c-6.8,6.9-19.3,21.5-24.3,24c-5,2.5-14.8,3.6-16.8,1.6c-2-2-6.8-5.2-10.4-2c-3.6,3.2-9.5,9.5-13.8,3.6c-4.3-5.9-10.5-6.6-13.1-2
				c-2.6,4.5-11.1,3.4-14.8,2c-3.7-1.4-11.4-1.6-14.8-3.2c-3.4-1.6-12.3-8.2-15.7-11.1c-3.4-2.9-7.9-5.5-10-0.2
				c-2,5.2-6.8,13.7-8.2,17.5c-1.4,3.8-1.8,12.2,4.9,12.7c6.7,0.5,14.9,0,14.9,4.5c0,4.5,1,17,12.4,17.3c11.4,0.2,11.7-7,14.2-11.8
				c2.5-4.8,3.4-7,11.8-7.3c8.4-0.2,14.8-0.4,14.8,2.9c0,3.4-0.2,10.3-2.5,11.8c-2.3,1.4-5.5,2.3-7,3.7c-1.4,1.4-3.5,6.1-9.6,5.7
				c-6.1-0.5-27.9,8.4-39.3,19.3c-11.4,10.9-26.9,32-25,56.3c0,0-6.6-8.6-9.5-12.9c-3-4.3-7.7-10.4-12-8
				c-4.3,2.3-16.6,18.9-21.3,31.2c-4.8,12.3-6.1,29.1,5,39c11.1,10,20.4,14.8,24.3,23.6c3.9,8.9,16.8,18.4,23.8,17.3
				c7-1.1,7.7-0.9,9.8,2.3c2,3.2,6.8,15.7,11.1,35c4.3,19.3,15,63.1,17.9,80.4c3,17.2,5.8,40.4,7.7,51.3
				c1.9,10.9,10.1,29.3,24.2,28.8c14.1-0.5,22.7-16.6,34-48.6c11.4-32,15.4-63.8,15.7-75.8c0.2-12,1.1-32.9,6.4-46.1
				c5.2-13.2,14.3-43.4,17.5-44.7c3.2-1.4,10.2,1.2,20.2-6.2c10-7.4,25.4-27.3,27.7-29.4c2.3-2.1,5.9-10.3,2.5-20.2
				c-3.4-10-12.7-23.4-15.2-27.1c-2.5-3.6-5.7-5.1-9.1-1.6c-3.4,3.5-10.9,11.9-12.3,12.3c-1.4,0.5-0.2-2.7,1.4-6.4
				c1.6-3.6,2.7-11.1-3.6-23.4c-6.4-12.3-18.4-25.9-29.7-32c-11.4-6.1-25.2-11.8-30.2-14.5c-5-2.7-9.8-4.8-9.8-12.3
				c0-7.5,1.6-12.7,4.3-13.2c2.7-0.5,4.1,1.1,5.2,2.7c1.1,1.6,7.1,1.6,9.2,1.1C660.5,217.4,667.8,217.3,671.4,219.7z"/>
		</g>
		<g>
			<path fill="#FFFFFF" d="M605.2,274.4l13.3,13c0,0-9,5-6.7,9.6c2.3,4.7,7.7,8.6,10.3,7.1c2.7-1.5,5.2-4,5.2-4l7,9
				c0,0-8.1,8.1-17.5,3.8c-9.3-4.3-17.5-12.5-16.6-20.4C601,284.5,605.2,274.4,605.2,274.4z"/>
		</g>
		<g>
			<path fill="#FFFFFF" d="M655,302.8c0,0,4.5,6,8.3,5c3.8-1,8-6.5,4.2-11.6l9.8-6.5c0,0,2.5,6.1,0,13.3
				c-2.5,7.2-13.5,14.1-19.8,14.1c-6.3,0-12-4.3-11.3-8L655,302.8z"/>
		</g>
		<g>
			<path fill="#B8292F" d="M660.4,297.7c0,0,2.5-2.1,5.1,1.4c2.1,2.7-1.3,6.5-3.3,5.9C660.3,304.4,655.6,301.3,660.4,297.7z"/>
		</g>
		<g>
			<path fill="#B8292F" d="M618.2,292.5c0,0,2.7-2.3,5.6,1.5c2.3,3-1.4,7.1-3.6,6.5C618.1,299.8,612.9,296.5,618.2,292.5z"/>
		</g>
		<g>
			<path fill="#FFFFFF" d="M662.3,331.5l29.6-8.5l-12,53.9c0,0-10.2,0.4-17.7,4.8L662.3,331.5z"/>
		</g>
		<g>
			<path fill="#FFFFFF" d="M629.9,384.1l4.3-51.1c0,0-30.5-0.2-63.7-26c0,0,1.4,39.7,19.9,64.9l4.7-40.2c0,0,2.2-3.2,1.5,4.6
				c-0.7,7.8-1.3,37.5-1.3,37.5s5.7,5.9,14,3.5l3.9-37.3c0,0,3.8-9.2,3.9,2.4c0.1,11.6-1.3,33.2-1.3,33.2s-1.9,6.8,4.3,7.6
				C626.4,384.1,629.9,384.1,629.9,384.1z"/>
		</g>
		<g>
			<path fill="#FFFFFF" d="M601.8,443.2c0,0,3.2,14.8,3.6,16.8c0.4,2,2.9,4.5,3,2.2c0.1-2.3-1.7-20.7-1.7-20.7s7.2-4.5,13.3-3.3
				c0,0,6.5,20.8,8.1,19.7c1.6-1.2-1.7-19.4-3.9-22.7c0,0,18.1-2.2,18.7-0.7c0.6,1.4,1,21.4,1.3,22.4c0.3,1,2.5,1.7,3.6-5.2
				c1.2-6.9,3.6-16.8,4.9-16.1c1.3,0.7,3.3,8.1,3.5,17.3c0.1,9.3-1.2,22.4-2.6,21c-1.4-1.4-7.2-11.7-22.3-9c0,0-9.4,3-13.7,14.7
				c-4.3,11.7-6.8,17.8-7.4,17.5c-0.6-0.3-6.2-12.7-8.4-26.6C599.6,456.7,599.2,442.5,601.8,443.2z"/>
		</g>
		<g>
			<path fill="#FFFFFF" d="M657.3,212.6c0,0-2.5-0.5-2.7-4.8c-0.2-4.3,0.9-8.6,3.8-8.4c2.8,0.2,13.7-0.7,16.9-1.8
				c3.2-1.1,13.4-9.1,17.8-15.7c4.4-6.6,7.8-11.1,11.9-11.8c4.1-0.7,7.7,1.1,12.5,8.4c4.8,7.3,2.3,14.1-1.4,16.8
				c-3.6,2.7-15.4,14.8-13.8,17.2c1.6,2.5,8.4,1.6,7.3,8.2c-1.1,6.6-7.5,11.8-14.8,8.4c-7.3-3.4-19.8-15.7-24.5-15.9
				C665.5,213.1,657.3,212.6,657.3,212.6z"/>
		</g>
		<g>
			<path fill="#FFFFFF" d="M612.1,211.5l1.1-9.3c0,0-20.9-0.5-27.2-3.4c-6.4-3-12.7-9.8-14.3-10.9c-1.6-1.1-5.9-3.9-9.8,4.8
				c-3.9,8.6-4.5,16.3-0.9,16.6c3.6,0.2,17.3-2,17.9,7.9c0.7,10,2.4,12.8,7,13.1c4.6,0.3,7.5-6.1,8.7-9.9c1.1-3.9,5.3-8.2,7.8-8.9
				C604.8,210.8,612.1,211.5,612.1,211.5z"/>
		</g>
		<g>
			<path fill="#A7A9AC" d="M744.2,338.7c-1.1-12.8-10.3-25.9-16.3-27.2c-6-1.4-13.6,9-16.6,13.1c-3,4.1-4.9,9-4.9,9
				s-1.4-0.3-1.6-6.8c-0.3-6.5-0.8-9.6-0.8-9.6l-7.4,2.1c0,0-7.9,36.6-12.5,50.7c-4.6,14.2-22.1,66.4-22.6,73
				c-0.5,6.5-6.8,45.7-5.4,61.5c0,0-1.1,0-2.7-9.3c-1.6-9.3-7.1-26.1-11.4-27.8c-4.4-1.6-18.8,3.3-24.8,25.3c-6,22.1-4.6,40-4.6,40
				l-10.6-41.9l-26.1-125l-11.4-59.3c0,0-3,5.4-4.4,6c-1.4,0.5-3.5-5.1,0.5-11.9c4.1-6.8,10.9-13.6,12.5-12.3c0,0-6,9.6-3.8,12.3
				c2.2,2.7,30.8,28.3,69.4,27.7c38.7-0.5,59.6-15.8,62.6-18.8c3-3,7.6-7,3.8-19.8c-3.8-12.8-21.3-30.3-38.8-37.9
				c-17.5-7.6-18.3-6.5-24.5,2.2c0,0-7.2-1.6-11.6-6c-4.4-4.4-14.2-6.5-21.5-4.6c-7.3,1.9-39.7,21.2-50.1,37.3
				c-10.3,16.1-12.5,29.1-10.1,54.4c2.4,25.3,3.8,32.9,3.8,32.9s-6-19.1-6.8-27c-0.8-7.9-8.4-22.3-15.5-28
				c-7.1-5.7-13.6-9.9-18.8,4.1c-5.2,13.9-9.8,27-5.4,36.2c4.4,9.3,10.6,13.1,14.7,16.6c4.1,3.5,13.6,16.1,18.8,22
				c5.2,6,13.3,9.3,19.6,9.3c6.3,0,10.9-4.6,10.9,1.4c0,6,19.1,83,25.6,112.7c6.5,29.7,6.8,47.6,11.4,60.4
				c4.6,12.8,9,13.3,16.6,14.2c7.6,0.8,14.2-4.6,22.3-23.7c8.2-19.1,16.1-47.1,20.1-72.1c4.1-25,3.5-57.2,8.2-69.4
				c4.6-12.3,21.2-50.4,21.2-50.4s0.8,8.4,7.3,8.7c6.5,0.3,19.1-10.3,27-18.2C737.4,356.9,745.3,351.5,744.2,338.7z M590.6,281.1
				c0,0,2-7.4,3.4-11.1c1.5-3.7,2.5-6.2,0.5-9.8c0,0,38.7,33.7,44.8,43.3c0,0,9.4-1,5.4-43.3c0,0,10.6,12.8,4.2,37.4
				c0,0,14.5-13.8,44.1-9.4l-4.9,1.5c0,0-0.7,15.8-15.3,24.4c-8.6,5.1-18.3,6.6-24.5,3.7c-2.6-1.2-3.5-2.3-4.5-5
				c-0.7-1.9-1.1-4.8-1.8-7.5c0,0-2.4,3.1-5.6,6c-3.7,3.5-9,6.8-18.5,4.8C600.2,312.4,588.9,297.8,590.6,281.1z M547.7,380.3
				c-1.7,0-4.1-3.2-5.8-3.7c-1.7-0.6-6.5-2.4-7.8-2.8c-1.3-0.4-3-6.3-4.1-10.8c-1.1-4.5-5-8.9-13-17.3c0,0,9.5,3.7,19.9,14.7
				C547.4,371.4,549.4,380.3,547.7,380.3z M729.7,355c-2.8,4-11.7,15.2-16.9,12.9c0,0,2.8-6.3,0-4.3c-2.8,2-11,8.3-2.6-3.2
				c8.4-11.5,8.4-11.5,8.4-11.5s11.5-11.5,12.7-12.4c1.2-0.9,2.6,3.8,2.6,6.2C733.9,345.1,732.5,351,729.7,355z"/>
		</g>
	</g>
</g>
</svg>
