<?xml version="1.0" encoding="utf-8"?>
<!-- Generator: Adobe Illustrator 18.1.1, SVG Export Plug-In . SVG Version: 6.00 Build 0)  -->
<svg version="1.1" id="Layer_1" xmlns="http://www.w3.org/2000/svg" xmlns:xlink="http://www.w3.org/1999/xlink" x="0px" y="0px"
	 viewBox="0 0 161.2 147.2" enable-background="new 0 0 161.2 147.2" xml:space="preserve">
<g>
	<g>
		<g>
			<path fill="#000100" d="M8.7,41.9l72.9,103.2l66.1-103.2H8.7z M80.9,139.5L15.1,46h126.2L80.9,139.5z"/>
			<path fill="#79A0B1" d="M147.7,41.9L81.6,145.1L8.7,41.9H147.7 M80.9,139.5L141.3,46H15.1L80.9,139.5 M149.9,40.7h-2.2H8.7H6.4
				l1.3,1.9l72.9,103.2l1,1.5l1-1.5l66.1-103.2L149.9,40.7L149.9,40.7z M17.4,47.2h121.7l-58.2,90.2L17.4,47.2L17.4,47.2z"/>
		</g>
		<polygon fill="#FFFFFF" points="15.1,46 80.9,139.5 141.3,46 		"/>
	</g>
	<g>
		<path fill="#000100" d="M85,107.8c0,0-1.7,6.2,1.7,12c0,0,7.7-9.8,9.3-14.6c0,0-3.4,27,18,30.3c0,0-31.7,8.2-57.3-10.3
			c0,0,11.7,3.4,21.5-0.2c0,0-12.9-8.1-6.4-17.3H85z"/>
		<path fill="#C42631" d="M71.5,108.6c-0.6,2.8-1.8,11.6,9.8,16.4c0,0-7.5,4.7-20.5,2.1c0,0,16.4,11.6,46.6,8.4
			c0,0-15.8-5.1-12.5-25.8c0,0-5.2,9.3-8.5,11.7c0,0-4.2-6.3-1.9-12.4l0.4-0.9h-13C71.9,107.9,71.7,108.1,71.5,108.6z"/>
		<path fill="#FAFDF9" d="M89.8,119.4l3.6-5.1l0.6,7c0,0-0.9-2.3-1.7-2.9C91.4,117.8,89.8,119.4,89.8,119.4z"/>
		<path fill="#FAFDF9" d="M97.7,129.7c0,0,3.3,4,5.6,5.3c0,0-3.2,0.4-10.9,0c0,0,6.1-0.2,6.4-1.7C99.1,131.7,97.7,129.7,97.7,129.7z
			"/>
		<path fill="#000100" d="M71.6,128.4c0,0-2.6,0.5-1.3,1.6c1.3,1,3.9,2,3.9,2s-6.8-1.9-9-3.6C65.2,128.4,68,128.7,71.6,128.4z"/>
		<path fill="#79A0B1" d="M47.2,127.1c0,0,2.9,6.2,16.3,12.6C63.4,139.6,49.4,134.4,47.2,127.1z"/>
		<path fill="#79A0B1" d="M51.9,129.7c0,0,9.4,11,27.6,14.1C79.4,143.8,63.4,139.6,51.9,129.7z"/>
		<path fill="#79A0B1" d="M58.5,130.2c0,0,9.8,9.3,27.7,14C86.2,144.2,67.8,141.2,58.5,130.2z"/>
		<path fill="#000100" d="M76.1,107.8c0,0-6,8.4,6.3,16.2c0,0-13-3.9-9.3-16.2L76.1,107.8z"/>
	</g>
	<g>
		<g>
			<g>
				<polygon fill="#000100" points="69.5,106.2 34.8,111.2 34.8,63 59.2,63 61.2,71.6 47,71.6 47,78.9 63,78.9 65.1,88.2 47.1,88.2 
					47.1,98.3 66.9,95.8 				"/>
				<path fill="#000100" d="M31.6,114.9V59.8h30.1l3.5,15h-15v0.9h15.3l3.7,15.7H50.3v3.2l19.1-2.3l4,16.5L31.6,114.9z M38,66.2
					v41.3l27.6-4l-1-4.2l-20.6,2.5V85h17.2l-0.7-3H43.8V68.4h13.3l-0.5-2.2H38z"/>
			</g>
			<g>
				<path fill="#000100" d="M60.7,63l10.3,43.3c0,0,3.6-0.1,14.2-0.1l10-43.2h-9.6l-7.3,32.7L70.7,63H60.7z"/>
				<path fill="#000100" d="M78.6,109.9l-0.1-0.5c-5.3,0-7.3,0-7.3,0l-2.6,0L56.7,59.8h16.5l5.1,21.6l4.8-21.6h16.1l-11.4,49.6h-2.5
					c-2.6,0-4.8,0-6.6,0L78.6,109.9z M64.8,66.2l8.8,36.9c0.9,0,2,0,3.3,0l-8.8-36.9H64.8z M88.3,66.2L80.1,103c0.8,0,1.7,0,2.7,0
					l8.5-36.9H88.3z"/>
			</g>
			<g>
				<polygon fill="#000100" points="96.7,63 96.7,106.8 105.9,107.7 105.9,63 				"/>
				<path fill="#000100" d="M109.1,111.2l-15.6-1.5V59.8h15.6V111.2z M99.8,103.9l2.8,0.3v-38h-2.8V103.9z"/>
			</g>
			<g>
				<path fill="#000100" d="M107.5,63.2v44.7c0,0,14.9,2.2,25.2,5.3V104c0,0-8-3-14.7-3.7v-37H107.5z"/>
				<path fill="#000100" d="M135.9,117.5l-4.1-1.2c-9.9-3-24.6-5.2-24.7-5.2l-2.7-0.4V60h16.9v37.5c6.1,1.1,12.3,3.4,12.6,3.5
					l2.1,0.8V117.5z M110.7,105.2c4,0.7,11.8,2,18.8,3.8v-2.8c-2.7-0.9-7.6-2.4-11.8-2.9l-2.8-0.3V66.4h-4.2V105.2z"/>
			</g>
			<g>
				<path fill="#000100" d="M157.2,81.2V69.3c0,0,0.2-6.3-7.2-6.3c-7.4,0-10.4,0-10.4,0s-5.4-0.7-5.4,7.1c0,7.8,0,12.3,0,12.3
					s0.1,3.5,7.2,7.9c5.1,3.2,5,3.8,5,3.8v9.4c0,0,0.1,1.9-1.1,1.9c-1.2,0-1.1-1.6-1.1-2.1c0-0.5,0-8.2,0-8.2l-10.1-2.4v15.5
					c0,0-0.8,3.9,3.1,6.2c3.9,2.3,10.5,3.8,10.5,3.8s9.2,1.7,10-6.1V94.4c0,0,0.8-4.5-2.8-7.3c-3.6-2.8-10-7-10-7V73
					c0,0-0.3-2,1.1-2c1.4,0,1,2,1,2v7.2L157.2,81.2z"/>
				<path fill="#000100" d="M149.9,121.6c-1.4,0-2.5-0.2-2.6-0.2l-0.1,0c-0.3-0.1-7.2-1.6-11.4-4.1c-4.4-2.6-5-6.8-4.7-9.2V88.8
					l4.4,1c-4-3.6-4.4-6.4-4.4-7.4l0-0.1V70c0-7.6,4.4-10.3,8.2-10.3c0.2,0,0.4,0,0.5,0H150c4.1,0,6.5,1.6,7.8,2.9
					c2.6,2.6,2.6,6,2.6,6.6v15.4l-3.7-0.4c0.1,0.1,0.2,0.1,0.3,0.2c3.9,3,4.4,7.6,4.1,10v17.7l0,0.2
					C160.5,118.2,156.3,121.6,149.9,121.6z M148.5,115.1c0.1,0,0.7,0.1,1.4,0.1c4.2,0,4.7-2.1,4.8-3.2V94.1l0-0.3
					c0-0.1,0.4-2.7-1.7-4.2c-3.5-2.7-9.7-6.8-9.8-6.8l-1.4-0.9v-8.7c-0.1-0.8-0.1-2.5,1.1-3.9c0.8-0.9,1.9-1.4,3.2-1.4
					c1.3,0,2.4,0.5,3.2,1.5c1.1,1.4,1.1,3.1,1,3.9v4.1l3.6,0.4v-8.4c0-1.4-0.8-3.1-4.1-3.1l-10.7,0c-1.5,0.1-1.8,2.4-1.8,3.9v12
					c0.2,0.5,1.1,2.6,5.7,5.5c5.2,3.2,6.7,4.7,6.5,6.7v9.2c0,0.7,0,2.6-1.3,3.9c-0.8,0.8-1.8,1.3-3,1.3c-1.1,0-2.2-0.4-2.9-1.2
					c-1.4-1.4-1.3-3.3-1.3-4l0-0.1v-5.7l-3.7-0.9v11.9l-0.1,0.2c-0.1,0.5-0.1,1.8,1.6,2.8C141.8,113.4,146.7,114.7,148.5,115.1z"/>
			</g>
			<g>
				<g>
					<path fill="#000100" d="M33.5,92.5c0-11.7,0-22.9,0-22.9s1.1-6.6-7.7-6.6c-10.3,0-22.5,0-22.5,0v55.4c0,0,20.9-3.6,26.5-5.6
						C35.2,110.8,33.5,104.2,33.5,92.5z M20.8,103.1c-1.2,0.4-5.5,1.2-5.5,1.2V74.2c0,0,2.6,0,4.7,0c1.8,0,1.6,1.4,1.6,1.4
						s0,20.9,0,23.3C21.6,101.3,22,102.7,20.8,103.1z"/>
					<path fill="#000100" d="M0,122.2V59.8h25.7c4,0,7,1.2,9,3.4c2.1,2.5,2.1,5.5,2,6.6v22.7c0,2.4,0.1,4.7,0.2,6.7
						c0.3,8,0.5,14.2-6.1,16.6c-5.8,2.1-26.1,5.6-27,5.7L0,122.2z M6.4,66.2v48.4c7.1-1.3,18.6-3.5,22.2-4.8
						c1.9-0.7,2.1-2.7,1.8-10.4c-0.1-2-0.2-4.4-0.2-6.9V69.3l0-0.2c0-0.2,0.1-1.1-0.5-1.8c-0.7-0.7-2.1-1.1-4.1-1.1H6.4z
						 M12.1,108.1v-37H20c2,0,3.2,0.9,3.8,1.6c1,1.1,1,2.4,1,3.1v23.2c0,0.5,0,0.9,0,1.3c0.1,1.7,0.2,4.8-2.9,5.9
						c-1.3,0.5-5,1.1-6,1.3L12.1,108.1z"/>
				</g>
			</g>
		</g>
		<g>
			<g>
				<linearGradient id="SVGID_1_" gradientUnits="userSpaceOnUse" x1="52.113" y1="111.1937" x2="52.113" y2="62.9768">
					<stop  offset="0" style="stop-color:#FFFFFF"/>
					<stop  offset="6.587386e-02" style="stop-color:#F5F8FA"/>
					<stop  offset="0.5055" style="stop-color:#BACEDB"/>
					<stop  offset="0.8293" style="stop-color:#94B4C7"/>
					<stop  offset="1" style="stop-color:#86AAC0"/>
				</linearGradient>
				<polygon fill="url(#SVGID_1_)" points="69.5,106.2 34.8,111.2 34.8,63 59.2,63 61.2,71.6 47,71.6 47,78.9 63,78.9 65.1,88.2 
					47.1,88.2 47.1,98.3 66.9,95.8 				"/>
				<path fill="#EE2327" d="M33.2,113V61.4h27.3l2.7,11.8H48.6v4.1h15.6l2.9,12.6H48.7v6.6l19.5-2.4l3.3,13.5L33.2,113z M36.4,64.6
					v44.8l31.1-4.5l-1.8-7.3l-20.2,2.5V86.6h17.6l-1.4-6.2H45.4V70h13.7l-1.3-5.4H36.4z"/>
			</g>
			<g>
				<linearGradient id="SVGID_2_" gradientUnits="userSpaceOnUse" x1="78.0005" y1="106.2591" x2="78.0005" y2="62.9768">
					<stop  offset="0" style="stop-color:#FFFFFF"/>
					<stop  offset="6.587386e-02" style="stop-color:#F5F8FA"/>
					<stop  offset="0.5055" style="stop-color:#BACEDB"/>
					<stop  offset="0.8293" style="stop-color:#94B4C7"/>
					<stop  offset="1" style="stop-color:#86AAC0"/>
				</linearGradient>
				<path fill="url(#SVGID_2_)" d="M60.7,63l10.3,43.3c0,0,3.6-0.1,14.2-0.1l10-43.2h-9.6l-7.3,32.6L70.7,63H60.7z"/>
				<path fill="#EE2327" d="M69.8,107.9L58.7,61.4H72l6.4,27.1l6-27.1h12.8l-10.7,46.4h-1.3c-10.5,0-14.2,0.1-14.2,0.1L69.8,107.9z
					 M62.8,64.6l9.6,40.1c1.7,0,5.4,0,11.7,0l9.2-40H87l-8.5,38.2l-9.1-38.2H62.8z"/>
			</g>
			<g>
				<linearGradient id="SVGID_3_" gradientUnits="userSpaceOnUse" x1="101.2683" y1="107.7216" x2="101.2683" y2="62.9768">
					<stop  offset="0" style="stop-color:#FFFFFF"/>
					<stop  offset="6.587386e-02" style="stop-color:#F5F8FA"/>
					<stop  offset="0.5055" style="stop-color:#BACEDB"/>
					<stop  offset="0.8293" style="stop-color:#94B4C7"/>
					<stop  offset="1" style="stop-color:#86AAC0"/>
				</linearGradient>
				<polygon fill="url(#SVGID_3_)" points="96.7,63 96.7,106.8 105.9,107.7 105.9,63 				"/>
				<path fill="#EE2327" d="M107.5,109.5l-12.4-1.2V61.4h12.4V109.5z M98.3,105.4l6,0.6V64.6h-6V105.4z"/>
			</g>
			<g>
				<linearGradient id="SVGID_4_" gradientUnits="userSpaceOnUse" x1="120.0908" y1="113.214" x2="120.0908" y2="63.197">
					<stop  offset="0" style="stop-color:#FFFFFF"/>
					<stop  offset="6.587386e-02" style="stop-color:#F5F8FA"/>
					<stop  offset="0.5055" style="stop-color:#BACEDB"/>
					<stop  offset="0.8293" style="stop-color:#94B4C7"/>
					<stop  offset="1" style="stop-color:#86AAC0"/>
				</linearGradient>
				<path fill="url(#SVGID_4_)" d="M107.5,63.2v44.7c0,0,14.9,2.2,25.2,5.3V104c0,0-8-3-14.7-3.7v-37H107.5z"/>
				<path fill="#EE2327" d="M134.3,115.4l-2.1-0.6c-10.1-3-24.8-5.2-25-5.2l-1.4-0.2V61.6h13.7v37.3c6.4,1,13.3,3.5,13.6,3.6l1,0.4
					V115.4z M109.1,106.6c3.6,0.6,13.7,2.3,22,4.5v-6c-2.4-0.8-8.3-2.7-13.2-3.3l-1.4-0.2V64.8h-7.3V106.6z"/>
			</g>
			<g>
				<linearGradient id="SVGID_5_" gradientUnits="userSpaceOnUse" x1="146.0732" y1="118.4076" x2="146.0732" y2="62.9765">
					<stop  offset="0" style="stop-color:#FFFFFF"/>
					<stop  offset="6.587386e-02" style="stop-color:#F5F8FA"/>
					<stop  offset="0.5055" style="stop-color:#BACEDB"/>
					<stop  offset="0.8293" style="stop-color:#94B4C7"/>
					<stop  offset="1" style="stop-color:#86AAC0"/>
				</linearGradient>
				<path fill="url(#SVGID_5_)" d="M157.2,81.2V69.3c0,0,0.2-6.3-7.2-6.3c-7.4,0-10.4,0-10.4,0s-5.4-0.7-5.4,7.1
					c0,7.8,0,12.3,0,12.3s0.1,3.5,7.2,7.9c5.1,3.2,5,3.8,5,3.8v9.4c0,0,0.1,1.9-1.1,1.9c-1.2,0-1.1-1.6-1.1-2.1c0-0.5,0-8.2,0-8.2
					l-10.1-2.4v15.5c0,0-0.8,3.9,3.1,6.2c3.9,2.3,10.5,3.8,10.5,3.8s9.2,1.7,10-6.1V94.4c0,0,0.8-4.5-2.8-7.3c-3.6-2.8-10-7-10-7V73
					c0,0-0.3-2,1.1-2c1.4,0,1,2,1,2v7.2L157.2,81.2z"/>
				<path fill="#EE2327" d="M149.9,120c-1.3,0-2.2-0.2-2.3-0.2l-0.1,0c-0.3-0.1-6.9-1.6-11-3.9c-4.3-2.5-4-6.7-3.9-7.7V90.8
					l10.4,2.4c-0.6-0.4-1.4-0.9-2.4-1.6c-7.6-4.8-8-8.8-8-9.2l0-0.1V70c0-8.2,5.5-8.7,6.6-8.7c0.2,0,0.3,0,0.4,0H150
					c2.8,0,5.1,0.8,6.7,2.4c2.2,2.3,2.2,5.4,2.2,5.5l0,13.6l-7.8-0.8c1.7,1.2,3.6,2.5,5.1,3.7c4,3.1,3.6,7.7,3.5,8.7l0,17.8
					C159,117.2,155.5,120,149.9,120z M148.2,116.7c0.1,0,0.8,0.1,1.7,0.1c3.9,0,6-1.6,6.4-4.7V94.2l0-0.1c0-0.1,0.5-3.6-2.3-5.7
					c-3.5-2.7-9.8-6.9-9.9-6.9l-0.7-0.5v-7.9c-0.1-0.5-0.1-1.8,0.7-2.8c0.5-0.6,1.2-0.9,2-0.9c0.8,0,1.5,0.3,2,0.9
					c0.8,0.9,0.7,2.2,0.6,2.8v5.6l6.8,0.7V69.3c0-0.1,0-1.9-1.3-3.3c-1-1-2.4-1.4-4.3-1.4l-10.6,0c0,0-0.1,0-0.1,0
					c-1.3,0-3.4,0.7-3.4,5.5v12.2c0.1,0.3,0.7,3.1,6.5,6.7c5.3,3.3,5.8,4.3,5.8,5.3v9.3c0,0.5,0,1.8-0.9,2.8
					c-0.5,0.5-1.1,0.8-1.8,0.8c-0.7,0-1.3-0.3-1.8-0.7c-0.9-0.9-0.9-2.2-0.9-2.9l0-0.1v-6.9l-6.9-1.6v13.7l0,0.2
					c0,0.3-0.4,2.9,2.4,4.5C141.6,115.2,147.7,116.6,148.2,116.7z"/>
			</g>
			<g>
				<g>
					<linearGradient id="SVGID_6_" gradientUnits="userSpaceOnUse" x1="18.4625" y1="118.4081" x2="18.4625" y2="62.9768">
						<stop  offset="0" style="stop-color:#FFFFFF"/>
						<stop  offset="6.587386e-02" style="stop-color:#F5F8FA"/>
						<stop  offset="0.5055" style="stop-color:#BACEDB"/>
						<stop  offset="0.8293" style="stop-color:#94B4C7"/>
						<stop  offset="1" style="stop-color:#86AAC0"/>
					</linearGradient>
					<path fill="url(#SVGID_6_)" d="M33.5,92.5c0-11.7,0-22.9,0-22.9s1.1-6.6-7.7-6.6c-10.3,0-22.5,0-22.5,0v55.4
						c0,0,20.9-3.6,26.5-5.6C35.2,110.8,33.5,104.2,33.5,92.5z M20.8,103.1c-1.2,0.4-5.5,1.2-5.5,1.2V74.2c0,0,2.6,0,4.7,0
						c1.8,0,1.6,1.4,1.6,1.4s0,20.9,0,23.3C21.6,101.3,22,102.7,20.8,103.1z"/>
					<path fill="#EE2327" d="M1.6,120.3V61.4h24.1c3.5,0,6.1,1,7.8,2.9c1.8,2.2,1.7,4.8,1.6,5.5v22.8c0,2.5,0.1,4.7,0.2,6.8
						c0.3,7.6,0.5,13.1-5,15c-5.6,2-25.9,5.5-26.7,5.7L1.6,120.3z M4.8,64.6v51.9c5.2-0.9,19.9-3.6,24.3-5.2
						c3.2-1.1,3.2-4.3,2.9-11.9c-0.1-2-0.2-4.3-0.2-6.9V69.5l0-0.1c0,0,0.3-1.8-0.9-3.1c-1-1.1-2.8-1.7-5.3-1.7H4.8z M13.7,106.2
						V72.6H20c1.4,0,2.2,0.6,2.6,1c0.5,0.6,0.7,1.4,0.6,2v23.2c0,0.5,0,1,0,1.4c0.1,1.7,0.1,3.6-1.9,4.4c-1.2,0.4-5,1.1-5.8,1.2
						L13.7,106.2z M16.9,75.8v26.6c1.2-0.2,2.5-0.5,3.2-0.7c0-0.3,0-0.9,0-1.3c0-0.4,0-0.9,0-1.5V75.8c0,0,0,0,0,0H16.9z"/>
				</g>
			</g>
		</g>
		<g>
			<g>
				<linearGradient id="SVGID_7_" gradientUnits="userSpaceOnUse" x1="52.1127" y1="111.1937" x2="52.1127" y2="62.9765">
					<stop  offset="0" style="stop-color:#FFFFFF"/>
					<stop  offset="6.587386e-02" style="stop-color:#F5F8FA"/>
					<stop  offset="0.5055" style="stop-color:#BACEDB"/>
					<stop  offset="0.8293" style="stop-color:#94B4C7"/>
					<stop  offset="1" style="stop-color:#86AAC0"/>
				</linearGradient>
				<polygon fill="url(#SVGID_7_)" points="69.5,106.2 34.8,111.2 34.8,63 59.2,63 61.2,71.6 47,71.6 47,78.9 63,78.9 65.1,88.2 
					47.1,88.2 47.1,98.3 66.9,95.8 				"/>
				<path fill="#FFFFFF" d="M58.5,63.8l1.6,7H47h-0.8v0.8v7.3v0.8H47h15.3l1.8,7.8h-17h-0.8v0.8v10v0.9l0.9-0.1l19.1-2.3l2.1,8.8
					l-32.9,4.7V63.8H58.5 M59.2,63H34.8v48.2l34.7-5l-2.5-10.4l-19.8,2.4v-10h18L63,78.9H47v-7.3h14.2L59.2,63L59.2,63z"/>
			</g>
			<g>
				<linearGradient id="SVGID_8_" gradientUnits="userSpaceOnUse" x1="78.001" y1="106.2591" x2="78.001" y2="62.9765">
					<stop  offset="0" style="stop-color:#FFFFFF"/>
					<stop  offset="6.587386e-02" style="stop-color:#F5F8FA"/>
					<stop  offset="0.5055" style="stop-color:#BACEDB"/>
					<stop  offset="0.8293" style="stop-color:#94B4C7"/>
					<stop  offset="1" style="stop-color:#86AAC0"/>
				</linearGradient>
				<path fill="url(#SVGID_8_)" d="M60.7,63l10.3,43.3c0,0,3.6-0.1,14.2-0.1l10-43.2h-9.6l-7.3,32.7L70.7,63H60.7z"/>
				<path fill="#FFFFFF" d="M94.3,63.8l-9.6,41.6c-7.7,0-11.6,0-13,0l-10-41.7h8.3l7.6,32l0.8,3.4l0.8-3.4l7.1-32H94.3 M95.3,63
					h-9.6l-7.3,32.7L70.7,63h-10l10.3,43.3c0,0,3.6-0.1,14.2-0.1L95.3,63L95.3,63z"/>
			</g>
			<g>
				<linearGradient id="SVGID_9_" gradientUnits="userSpaceOnUse" x1="101.2688" y1="107.7216" x2="101.2688" y2="62.9765">
					<stop  offset="0" style="stop-color:#FFFFFF"/>
					<stop  offset="6.587386e-02" style="stop-color:#F5F8FA"/>
					<stop  offset="0.5055" style="stop-color:#BACEDB"/>
					<stop  offset="0.8293" style="stop-color:#94B4C7"/>
					<stop  offset="1" style="stop-color:#86AAC0"/>
				</linearGradient>
				<polygon fill="url(#SVGID_9_)" points="96.7,63 96.7,106.8 105.9,107.7 105.9,63 				"/>
				<path fill="#FFFFFF" d="M105.1,63.8v43.1l-7.6-0.8V63.8H105.1 M105.9,63h-9.2v43.8l9.2,0.9V63L105.9,63z"/>
			</g>
			<g>
				<linearGradient id="SVGID_10_" gradientUnits="userSpaceOnUse" x1="120.0912" y1="113.214" x2="120.0912" y2="63.1968">
					<stop  offset="0" style="stop-color:#FFFFFF"/>
					<stop  offset="6.587386e-02" style="stop-color:#F5F8FA"/>
					<stop  offset="0.5055" style="stop-color:#BACEDB"/>
					<stop  offset="0.8293" style="stop-color:#94B4C7"/>
					<stop  offset="1" style="stop-color:#86AAC0"/>
				</linearGradient>
				<path fill="url(#SVGID_10_)" d="M107.5,63.2v44.7c0,0,14.9,2.2,25.2,5.3V104c0,0-8-3-14.7-3.7v-37H107.5z"/>
				<path fill="#FFFFFF" d="M117.2,64v36.3v0.7l0.7,0.1c5.5,0.6,12.1,2.9,13.9,3.5v7.6c-8.9-2.5-20.7-4.4-23.6-4.9V64H117.2
					 M118,63.2h-10.5v44.7c0,0,14.9,2.2,25.2,5.3V104c0,0-8-3-14.7-3.7V63.2L118,63.2z"/>
			</g>
			<g>
				<linearGradient id="SVGID_11_" gradientUnits="userSpaceOnUse" x1="146.0735" y1="118.4076" x2="146.0735" y2="62.9765">
					<stop  offset="0" style="stop-color:#FFFFFF"/>
					<stop  offset="6.587386e-02" style="stop-color:#F5F8FA"/>
					<stop  offset="0.5055" style="stop-color:#BACEDB"/>
					<stop  offset="0.8293" style="stop-color:#94B4C7"/>
					<stop  offset="1" style="stop-color:#86AAC0"/>
				</linearGradient>
				<path fill="url(#SVGID_11_)" d="M157.2,81.2V69.3c0,0,0.2-6.3-7.2-6.3c-7.4,0-10.4,0-10.4,0s-5.4-0.7-5.4,7.1s0,12.3,0,12.3
					s0.1,3.5,7.2,7.9c5.1,3.2,5,3.8,5,3.8v9.4c0,0,0.1,1.9-1.1,1.9c-1.2,0-1.1-1.6-1.1-2.1c0-0.5,0-8.2,0-8.2l-10.1-2.4v15.5
					c0,0-0.8,3.9,3.1,6.2c3.9,2.3,10.5,3.8,10.5,3.8s9.2,1.7,10-6.1V94.4c0,0,0.8-4.5-2.8-7.3c-3.6-2.8-10-7-10-7V73
					c0,0-0.3-2,1.1-2c1.4,0,1,2,1,2v7.2L157.2,81.2z"/>
				<path fill="#FFFFFF" d="M139.2,63.8L139.2,63.8c0.2,0,0.3,0,0.3,0h0l0.1,0h0.1H150c2.2,0,3.8,0.6,4.9,1.7
					c1.6,1.6,1.5,3.8,1.5,3.8v11l-8.4-0.9V73c0.1-0.4,0.2-1.5-0.4-2.2c-0.2-0.3-0.7-0.6-1.4-0.6c-0.7,0-1.2,0.3-1.4,0.6
					c-0.6,0.7-0.6,1.9-0.5,2.2v7.1v0.4l0.4,0.2c0.1,0,6.4,4.2,9.9,6.9c3.2,2.5,2.6,6.3,2.5,6.5l0,0.1v0.1v17.7
					c-0.5,4.5-4.2,5.5-7.2,5.5c-1,0-1.8-0.1-1.9-0.1c-0.4-0.1-6.6-1.5-10.3-3.7c-3.3-1.9-2.8-5.2-2.7-5.3l0-0.1v-0.1V93.8l8.5,2v7.6
					l0,0.1c0,0.5,0,1.6,0.6,2.3c0.3,0.3,0.7,0.5,1.2,0.5c0.5,0,0.9-0.2,1.3-0.5c0.7-0.7,0.7-1.9,0.6-2.2v-9.3
					c0.1-0.4-0.1-1.3-5.4-4.6c-6.5-4-6.9-7.2-6.9-7.3V70c0-2.6,0.6-4.4,1.8-5.4C137.7,63.9,138.7,63.8,139.2,63.8 M139.2,63
					c-1.2,0-5,0.5-5,7.1c0,7.8,0,12.3,0,12.3s0.1,3.5,7.2,7.9c5.1,3.2,5,3.8,5,3.8v9.4c0,0,0.1,1.9-1.1,1.9c-1.2,0-1.1-1.6-1.1-2.1
					c0-0.5,0-8.2,0-8.2l-10.1-2.4v15.5c0,0-0.8,3.9,3.1,6.2c3.9,2.3,10.5,3.8,10.5,3.8s0.8,0.2,2,0.2c2.8,0,7.4-0.8,8-6.3V94.4
					c0,0,0.8-4.5-2.8-7.3c-3.6-2.8-10-7-10-7V73c0,0-0.3-2,1.1-2c1.4,0,1,2,1,2v7.2l10,1V69.3c0,0,0.2-6.3-7.2-6.3
					c-7.4,0-10.4,0-10.4,0S139.5,63,139.2,63L139.2,63z"/>
			</g>
			<g>
				<g>
					<linearGradient id="SVGID_12_" gradientUnits="userSpaceOnUse" x1="18.4625" y1="118.4081" x2="18.4625" y2="62.9765">
						<stop  offset="0" style="stop-color:#FFFFFF"/>
						<stop  offset="6.587386e-02" style="stop-color:#F5F8FA"/>
						<stop  offset="0.5055" style="stop-color:#BACEDB"/>
						<stop  offset="0.8293" style="stop-color:#94B4C7"/>
						<stop  offset="1" style="stop-color:#86AAC0"/>
					</linearGradient>
					<path fill="url(#SVGID_12_)" d="M33.5,92.5c0-11.7,0-22.9,0-22.9s1.1-6.6-7.7-6.6c-10.3,0-22.5,0-22.5,0v55.4
						c0,0,20.9-3.6,26.5-5.6C35.2,110.8,33.5,104.2,33.5,92.5z M20.8,103.1c-1.2,0.4-5.5,1.2-5.5,1.2V74.2c0,0,2.6,0,4.7,0
						c1.8,0,1.6,1.4,1.6,1.4s0,20.9,0,23.3C21.6,101.3,22,102.7,20.8,103.1z"/>
					<path fill="#FFFFFF" d="M25.7,63.8c2.8,0,4.8,0.7,5.9,2c1.4,1.6,1,3.7,1,3.7l0,0.1v0.1v22.9c0,2.5,0.1,4.8,0.2,6.8
						c0.3,7.9,0.3,11.4-3.4,12.7c-4.8,1.7-21.3,4.7-25.4,5.4V63.8H25.7 M14.5,105.2l0.9-0.2c0.5-0.1,4.5-0.8,5.6-1.2
						c1.5-0.5,1.4-1.9,1.4-3.6c0-0.4,0-0.9,0-1.4V75.7c0-0.2,0-0.9-0.4-1.5c-0.4-0.5-1.1-0.8-2-0.8h-4.7h-0.8v0.8v30.1V105.2
						 M25.7,63c-10.3,0-22.5,0-22.5,0v55.4c0,0,20.9-3.6,26.5-5.6c5.6-2,3.8-8.6,3.8-20.3c0-11.7,0-22.9,0-22.9S34.6,63,25.7,63
						L25.7,63z M15.3,104.3V74.2c0,0,2.6,0,4.7,0c1.8,0,1.6,1.4,1.6,1.4s0,20.9,0,23.3c0,2.4,0.4,3.8-0.8,4.2
						C19.6,103.5,15.3,104.3,15.3,104.3L15.3,104.3z"/>
				</g>
			</g>
		</g>
	</g>
	<g>
		<polygon fill="#000100" points="18.6,47.7 26.1,58.4 131.1,58.4 138,47.7 		"/>
	</g>
	<text transform="matrix(1 0 0 1 29.5102 56.3827)"><tspan x="0" y="0" fill="#FFFFFF" font-family="'CopperplateGothic-Bold'" font-size="9.667" letter-spacing="4">DE SOUZA</tspan><tspan x="90.6" y="0" fill="#FFFFFF" font-family="'CopperplateGothic-Bold'" font-size="9.667">S</tspan></text>
	<g>
		<path fill="#000100" d="M46,44.8c0,0,0.4-2.7-0.3-3.7c-0.7-1,0.3-11-1.1-16.1c-1.3-5.1-3.4-6.8-2.1-7.5c1.3-0.6,2.4,0.6,3.9,2.9
			c1.5,2.3,3.7,4.1,3.7,4.1c1.9-6.5,3.9-7.3,3.9-7.3C49.3,6.7,62.9,0,62.9,0C59.8,5.1,62,9.6,62,9.6s8.2-6.1,15.9-6.1
			c7.8,0,15.5,5.6,15.5,5.6c1.4-4-0.8-9.1-0.8-9.1c12.6,6.4,9.4,16.4,9.4,16.4c3.8,3.5,4,7.8,4,7.8s1.9-0.6,3.6-3.5
			c1.6-2.8,3.4-4,4-3.5c0.6,0.5,0.3,1.1-0.8,3.8c-1.1,2.7-2,6.4-2,8.7s0.1,9.6-0.2,11.5c-0.3,1.9,0.2,3.7,0.2,3.7l0.1,0.5H46.1
			L46,44.8z"/>
		<path fill="#C42631" d="M107.8,44.8c0,0,0.7-2.2-1.4-5.6c-2.1-3.4-5.4-4.2-5.4-4.2c1.9-0.4,4.9,1.7,4.9,1.7c0-5.3,0.2-9.2-1-13.3
			c-1.2-4.1-3.5-6.1-3.5-6.1c-7.2,3.4-11.2-5-11.2-5l2.1-1.7c0,0-7-5.2-14.5-5c-8,0.2-15,5.6-15,5.6l2.1,1.7
			c-2.9,6.6-10.5,5.3-10.5,5.3s-3.3,3.2-3.7,7.3c-0.5,4.1-0.2,11.1-0.2,11.1c2.1-2.1,4.3-1.5,4.3-1.5c-6.8,2-6.7,9.9-6.7,9.9h20.7
			c0,0,5.1,6.4,9.7,6.8c4.6,0.4,9.9-6.8,9.9-6.8H107.8z"/>
		<path fill="#FFFFFF" d="M67.6,9.6c0,0,3.8-2.1,9.8-2.3c5.9-0.2,9,1.1,9,1.1S84,6.2,78.1,6.1C72.2,6,67.6,9.6,67.6,9.6z"/>
		<path fill="#FFFFFF" d="M59.1,3.5c0,0-4,4.1-3,8c1,3.9,3,5.2,3,5.2s-1.9,1.1-3.2,0.7c0,0-2-2.8-1.7-6.9
			C54.5,6.4,59.1,3.5,59.1,3.5z"/>
		<path fill="#FFFFFF" d="M96.2,3.5c0,0,4.2,3.7,3.4,7.9s-3.1,5-3.1,5s1.4,1.1,3.6,0.7C100.1,17.1,105,9,96.2,3.5z"/>
		<path fill="#FFFFFF" d="M74.4,28.1c0,0,1.2,2.3,3.5,2.3c2.2,0,3.6-2.3,3.6-2.3s-1.4,3.5-3.5,3.5C75.8,31.6,74.4,28.1,74.4,28.1z"
			/>
		<path fill="#000100" d="M74.4,30.1c0,0,1.2,2.3,3.5,2.3c2.2,0,3.6-2.3,3.6-2.3s-1.4,3.5-3.5,3.5C75.8,33.5,74.4,30.1,74.4,30.1z"
			/>
		<path fill="#FFFFFF" d="M78.5,35.3l1,9.1c0,0,1.3,0.9-0.7,3.3c0,0-2.3-2.3-0.7-3.3L78.5,35.3z"/>
		<path fill="#FFFFFF" d="M75.6,47.9c0,0,3,2.1,6,0.3c0,0-1.3,1.8-3,1.5C76.8,49.4,75.6,47.9,75.6,47.9z"/>
		<path fill="#000100" d="M79.9,36c0,0,3.7-3.3,7.1-4.4c0,0-4.3,4.4-5,5.2c0,0,8.1,0.4,12.7-1c4.6-1.4,6.2-6.1,8.1-6.3
			c1.9-0.2,1.6,4.2,1.6,4.2s1.4-2.8-1.1-5.1s-1.1,0.6-12,0.8C83.4,29.4,79.9,36,79.9,36z"/>
		<path fill="#FAFDF9" d="M83.6,35.8c0,0,4.2-4.7,7.2-4.8c3.1-0.1,4.4,1.5,7.3,1.2c0,0-2.2,3.5-7,4C86.3,36.7,83.6,35.8,83.6,35.8z"
			/>
		<path fill="#000100" d="M102.9,23.2c0,0-2.9-2.1-5.5-1.7c-2.7,0.4-5.8,2.3-13.4,7.1c0,0,9.1-7.8,12.3-8.1
			C99.7,20.1,101.4,21.5,102.9,23.2z"/>
		<path fill="#000100" d="M86.5,20.9c0,0-4.5,2.7-6.1,7.2C80.4,28.1,81.2,22.2,86.5,20.9z"/>
		<path fill="#000100" d="M85.1,43c0,0,1.3-2.2,2.4-2.7c0.5-0.2,2.1,0.3,2.1,0.3s-1.1-1.4-2.3-1.4S85.5,41.3,85.1,43z"/>
		<path fill="#FFFFFF" d="M97.2,36c0,0,4.2-0.7,7.1,3.8C104.3,39.7,103.8,34.4,97.2,36z"/>
		<path fill="#000100" d="M100.4,38.6c0,0,2.9,2,2.5,3.4c-0.7,2-3.3,2.8-3.3,2.8h4.5C104.1,44.8,106.3,40.4,100.4,38.6z"/>
		<path fill="#000100" d="M90.1,13.8c0,0,1.8,5.2,9.8,4.8C99.9,18.6,91.4,20.7,90.1,13.8z"/>
		<circle fill="#C42631" cx="90.9" cy="33.4" r="2.4"/>
		<circle fill="#000100" cx="90.8" cy="33.3" r="1.3"/>
		<path fill="#FFFFFF" d="M80.1,35.3c0,0,4.6-6.6,8.7-7.2c3.4-0.5,5.8,0.6,8.6,0.3c2.7-0.3,4.6-1.9,5.3-2.5c0.6-0.6,0.9-0.8,1.8,0.7
			c0.8,1.5,1,3.2,0.4,6.2c0,0,0.2-2.9-1.7-4.1c-1.9-1.1-2.8,0.6-8,0.8C90,29.7,87.5,29.2,80.1,35.3z"/>
		<path fill="#79A0B1" d="M90.2,32.3c0,0-1.3,1.2,0.2,2.1C90.4,34.4,89.7,33.7,90.2,32.3z"/>
		<path fill="#C42631" d="M106,25.4c0,0,3-2.3,4.1-4.3c1.1-2,2.4-2.1,2.5-1.5c0.1,0.6-1.2,2.9-2.1,6.7s-0.5,8.6-0.5,10.9
			c0,2.3,0.2,3.6-1.2,3c-1.4-0.6-2.3-2.6-2.3-2.6S106.5,26.9,106,25.4z"/>
		<path fill="#000100" d="M108.9,30.2c0,0-0.3-2.4,0-3.8c0.4-1.5,0.5-1.8,0.7-2.2c0.1-0.4-0.6,0.8-1.4,2.2c-0.7,1.4-1.9,1.9-1.9,1.9
			s0.7,1.3,0.9,2c0.1,0.7,0.1,2.6-0.9,3c-1,0.4,0.4,1,0.9,1.4c0.5,0.4,1.1,1.1,1.1,1.1s-0.1-1-1.4-2.1c0,0,1.7-1.7,0.5-4.4l0.7-0.6
			C108.1,28.7,108.4,29.8,108.9,30.2z"/>
		<path fill="#FAFDF9" d="M110.1,21.6c0,0,1.3-1.5,1.6-1.4c0.3,0.1,0.3,0.7,0.3,0.7s0.4-0.6,0-1.1C111.6,19.4,110.5,20.8,110.1,21.6
			z"/>
		<path fill="#000100" d="M86.2,37.1c0,0,3.4,1.6,5.9,0C92.1,37.1,88.8,37.5,86.2,37.1z"/>
		<path fill="#000100" d="M76.3,36c0,0-3.7-3.3-7.1-4.4c0,0,4.3,4.4,5,5.2c0,0-8.1,0.4-12.7-1c-4.6-1.4-6.2-6.1-8.1-6.3
			c-1.9-0.2-1.6,4.2-1.6,4.2s-1.4-2.8,1.1-5.1c2.5-2.3,1.1,0.6,12,0.8C72.8,29.4,76.3,36,76.3,36z"/>
		<path fill="#FAFDF9" d="M72.6,35.8c0,0-4.2-4.7-7.2-4.8c-3.1-0.1-4.4,1.5-7.3,1.2c0,0,2.2,3.5,7,4C69.9,36.7,72.6,35.8,72.6,35.8z
			"/>
		<path fill="#000100" d="M53.3,23.2c0,0,2.9-2.1,5.5-1.7c2.7,0.4,5.8,2.3,13.4,7.1c0,0-9.1-7.8-12.3-8.1
			C56.5,20.1,54.9,21.5,53.3,23.2z"/>
		<path fill="#000100" d="M69.8,20.9c0,0,4.5,2.7,6.1,7.2C75.9,28.1,75,22.2,69.8,20.9z"/>
		<path fill="#000100" d="M71.1,43c0,0-1.3-2.2-2.4-2.7c-0.5-0.2-2.1,0.3-2.1,0.3s1.1-1.4,2.3-1.4S70.7,41.3,71.1,43z"/>
		<path fill="#FFFFFF" d="M59,36c0,0-4.2-0.7-7.1,3.8C51.9,39.7,52.5,34.4,59,36z"/>
		<path fill="#000100" d="M55.8,38.6c0,0-2.9,2-2.5,3.4c0.7,2,3.3,2.8,3.3,2.8h-4.5C52.2,44.8,50,40.4,55.8,38.6z"/>
		<path fill="#000100" d="M66.1,13.8c0,0-1.8,5.2-9.8,4.8C56.3,18.6,64.9,20.7,66.1,13.8z"/>
		<circle fill="#C42631" cx="65.4" cy="33.4" r="2.4"/>
		<circle fill="#000100" cx="65.5" cy="33.3" r="1.3"/>
		<path fill="#FFFFFF" d="M76.1,35.3c0,0-4.6-6.6-8.7-7.2c-3.4-0.5-5.8,0.6-8.6,0.3c-2.7-0.3-4.6-1.9-5.3-2.5
			c-0.6-0.6-0.9-0.8-1.8,0.7c-0.8,1.5-1,3.2-0.4,6.2c0,0-0.2-2.9,1.7-4.1c1.9-1.1,2.8,0.6,8,0.8C66.2,29.7,68.7,29.2,76.1,35.3z"/>
		<path fill="#79A0B1" d="M66,32.3c0,0,1.3,1.2-0.2,2.1C65.8,34.4,66.6,33.7,66,32.3z"/>
		<path fill="#C42631" d="M50.2,25.4c0,0-3-2.3-4.1-4.3c-1.1-2-2.4-2.1-2.5-1.5c-0.1,0.6,1.2,2.9,2.1,6.7c0.8,3.7,0.5,8.6,0.5,10.9
			c0,2.3-0.2,3.6,1.2,3c1.4-0.6,2.3-2.6,2.3-2.6S49.7,26.9,50.2,25.4z"/>
		<path fill="#000100" d="M47.3,30.2c0,0,0.3-2.4,0-3.8c-0.4-1.5-0.5-1.8-0.7-2.2c-0.1-0.4,0.6,0.8,1.4,2.2c0.7,1.4,1.9,1.9,1.9,1.9
			s-0.7,1.3-0.9,2c-0.1,0.7-0.1,2.6,0.9,3c1,0.4-0.4,1-0.9,1.4c-0.5,0.4-1.1,1.1-1.1,1.1s0.1-1,1.4-2.1c0,0-1.7-1.7-0.5-4.4
			l-0.7-0.6C48.1,28.7,47.8,29.8,47.3,30.2z"/>
		<path fill="#FAFDF9" d="M46.1,21.6c0,0-1.3-1.5-1.6-1.4c-0.3,0.1-0.3,0.7-0.3,0.7s-0.4-0.6,0-1.1C44.6,19.4,45.8,20.8,46.1,21.6z"
			/>
		<path fill="#000100" d="M70,37.1c0,0-3.4,1.6-5.9,0C64.1,37.1,67.4,37.5,70,37.1z"/>
		<path fill="#000100" d="M68.9,41.9c0,0-1,0.6-0.3,1.6c0.7,0.9,6,7.2,10.1,7.2c4.1,0,10.2-6.9,10.3-7.7c0-0.8-0.5-1.1-0.5-1.1
			s1.6,0.2,1.2,2.1c-0.4,1.8-7.5,8.1-11,8.1c-3.4,0-9.7-5.4-11-8.2C67,42.5,68.9,41.9,68.9,41.9z"/>
	</g>
</g>
</svg>
