<?xml version="1.0" encoding="utf-8"?>
<!-- Generator: Adobe Illustrator 18.1.1, SVG Export Plug-In . SVG Version: 6.00 Build 0)  -->
<svg version="1.1" id="Layer_1" xmlns="http://www.w3.org/2000/svg" xmlns:xlink="http://www.w3.org/1999/xlink" x="0px" y="0px"
	 viewBox="0 0 177.8 149.1" enable-background="new 0 0 177.8 149.1" xml:space="preserve">
<g>
	<g>
		<path fill="#808285" d="M162.6,143.4c-47.2-19.6-100.3-19.6-147.5,0c-4.6-11.1-9.2-22.3-13.9-33.4c56.1-23.2,119.1-23.2,175.2,0
			C171.9,121.1,167.3,132.2,162.6,143.4z"/>
		<path fill="none" stroke="#C7C8CA" stroke-width="2" d="M162.6,143.4c-47.2-19.6-100.3-19.6-147.5,0c-4.6-11.1-9.2-22.3-13.9-33.4
			c56.1-23.2,119.1-23.2,175.2,0C171.9,121.1,167.3,132.2,162.6,143.4z"/>
	</g>
	<polygon fill="#C7C8CA" points="163.6,39.9 120.3,39.9 101.4,41.9 52.5,43.9 51.6,39.9 14.2,39.9 88,149.1 	"/>
	<polygon fill="#808285" points="158.7,42.1 18.9,42.1 88,144.6 	"/>
	<polygon fill="#264D2E" points="152.3,46.8 29,46.8 89.8,137.1 	"/>
	<g>
		<path fill="#AD8636" stroke="#000000" stroke-width="2" d="M38.4,48.8c0,0-4.1-4-4.2-9.6c-0.1-5.6,4.5-21.2,5.5-24.7
			c0,0,1.2-2.1-2.7-5.2c-4-3-10.8-6.6-12.5-7.1c-1.7-0.5-4.1-0.8-5.2,7.9c-1.1,8.7-0.3,21.7,6,32.5c6.3,10.8,11.3,11.6,11.3,11.6
			l3.8,1.4l2.7-2.9L38.4,48.8z"/>
		<path stroke="#000000" stroke-width="0.2249" d="M38.8,18.2l0.9-3.4l0,0c0,0-0.9-0.7-3.5-2.1C33.5,11.4,25,7.2,24.3,6.8
			c-0.3-0.2-0.8-0.3-1.3-0.3c-0.6,0-1.2,0.1-1.7,0.2c-1.1,0.2-2,0.6-2.4,2.4c-0.1,0.6-0.1,4.6-0.2,5.6l0.1,4.8c0,0,0.2,0,0.5-0.2
			c0.3-0.2,0.6-0.6,1-0.9c0.1-0.1,0.4-0.3,0.6-0.4c0.3-0.2,0.4-0.3,0.8-0.5c0.2-0.1,0.4-0.1,0.6-0.1c0.9,0,1.2,0.4,2.3,1l0.8,0.6
			c1,0.5,0.8,0.7,0.3,0.4c-1.5-0.7-3-1.2-3.4-1.2c-0.4,0-1.3,0.1-2.2,0.5c-0.6,0.3-1.3,0.9-1.3,0.9l0,4l0,0.3
			c0.1,0.9,0.3,2.2,0.3,2.3c0,0.2,0.4,0.8,0.4,0.8c0.7,3,1.1,3,1.3,3l0.1,0l0.1,0c0.1,0,0.2-0.1,0.3-0.2c0.5-0.3,1.8-1.2,2.6-1.2
			c0.1,0,0.1,0,0.2,0c0.6,0.1,3.7,1.5,6.2,2.7c3.3,1.5,3.9,1.7,4.1,1.7c0.7,0,1.2-1.2,1.2-1.7c0,0,0-0.1,0-0.2c0-0.4,0-1-0.4-1.5
			c0.7-0.1,0.7-1.6,0.7-2.2c0-0.4-0.2-0.8,0.1-0.8c0.2,0,0.4-0.1,0.5-0.2c0.3-0.3,0.8-1.9,0.6-2.4l0.6-1.9L38,22l0.6-3.1
			c0,0-3.5-2.3-7-4.2C35.9,16.9,38.8,18.2,38.8,18.2z"/>
		<g>
			<path fill="#FFFFFF" stroke="#000000" stroke-width="0.3967" d="M39.5,15.1c0,0-0.7-0.7-3.4-2.1c-2.7-1.3-11.2-5.5-11.9-5.9
				c-0.7-0.4-1.7-0.2-2.8,0c-1.1,0.2-1.8,0.6-2.2,2.1c-0.3,1.6,0,2.5,0.8,1.9c0.8-0.6,2.4-1.3,4.1-0.6c1.6,0.8,14.7,7.2,14.7,7.2
				L39.5,15.1z"/>
			<path fill="#FFFFFF" stroke="#000000" stroke-width="0.3967" d="M38.3,19c0,0-6.7-3.9-10-5.8c-3.3-1.8-5.1-2.6-5.9-2.6
				c-0.7,0-3.4,1.5-3.3,1.7c0,0.2-0.2,2.9-0.2,2.9s1.6-1.2,2.2-1.4c0.5-0.2,1.1-0.7,2.7,0.3C25.4,15,37.7,22,37.7,22L38.3,19z"/>
			<path fill="#FFFFFF" stroke="#000000" stroke-width="0.3967" d="M37.6,22.4L37.1,24c0,0-3.8-1.4-7-2.9c-2-1-3.9-2-4.5-2.4
				c-1.5-0.8-2.9-2-4.1-1.4c-1.2,0.6-2.3,1.6-2.3,1.6v-3.4c0,0,2.1-1.6,3.1-1.6c1,0,3.5,1.8,6.5,3.5C31.6,18.9,37.6,22.4,37.6,22.4z
				"/>
			<path fill="#FFFFFF" stroke="#000000" stroke-width="0.3967" d="M19.1,19.8l0,3.2c0,0,0.9-0.6,1.5-1c0.6-0.4,1.7-1.3,3.5-0.4
				c1.8,0.9,10.6,4.6,10.6,4.6s1.4,0.7,1.7,0.4c0.3-0.3,0.7-1.7,0.5-2c-0.1-0.3-6.4-2.6-7.8-3.2c-1.4-0.7-5.6-2.2-6.3-2.5
				C22.2,18.6,21,18.7,19.1,19.8z"/>
			<path fill="#FFFFFF" stroke="#000000" stroke-width="0.3967" d="M19.1,23.6c0,0,1.4-1.1,2-1.5c0.6-0.4,1.3-0.8,2.5-0.3
				c1.2,0.5,8.4,3.6,9.5,4.1c1.1,0.5,2.7,1.2,2.7,1.9c0,0.7-0.1,2-0.5,1.9c-0.4-0.1-5.8-2.2-7.6-3c-1.9-0.8-4.5-1.9-5.5-1.5
				c-1,0.4-2.7,1.5-2.7,1.2C19.4,26.1,19.1,23.6,19.1,23.6z"/>
			<path fill="#FFFFFF" stroke="#000000" stroke-width="0.3967" d="M19.9,27.1c0,0,0.7,2.9,1,2.7c0.3-0.1,2.2-1.6,3.4-1.4
				c1.2,0.2,9.9,4.4,10.3,4.4c0.4,0,0.9-0.9,0.9-1.3c0-0.4,0.1-1.3-0.5-1.6c-0.6-0.3-9.7-3.9-10.6-4.3C23.5,25.5,22,24.9,19.9,27.1z
				"/>
		</g>
	</g>
	<path d="M149.1,48.4h-17.5c0,0-2.9-4.7-5.7-5.1c-2.8-0.4-7.1-0.3-6.2-2.7c0.9-2.4,1.8-5.6,0.4-7.4c-1.4-1.8-5.4-3.1-6.3-3.2
		c-0.9-0.1-4.3-1.9-5.5-2.8c-1.1-0.9-4.1-1.7-6.3-0.6c-2.2,1.1-3.5,0.5-6.2-0.5c-2.7-1-7.2-2.7-9.8-1.9c-2.6,0.9-2.5,7.3-2.5,7.3
		s-3.5-0.8-5.3-0.1c-1.7,0.7-2.5,2.7-3.9,2.2c-1.4-0.5-5-0.5-5.3,1.3c-0.3,1.8-0.7,2.1-0.7,2.1s-4.2,0.1-7,0.9
		c-2.8,0.9-5.3,1.9-5.6,1c-0.3-0.9-2.4-0.7-2.5,0.8c-0.1,1.5,0.3,1.5-0.5,2.3c-0.8,0.8-4.1,3.5-4.6,6c0,0-9.6,0.9-11.3-0.5
		c-1.8-1.4-5.1-6.4-5.2-8.3c0,0-0.1,5.5,4.4,9l5.6,3.6L39.9,54c0,0-6.1-5.1-8.2-7.5c-2.1-2.5-7-8.6-7.1-13.2c0,0-0.4,9.4,4.5,14.9
		c0,0,4.2,4.4,6.6,5.8l4,5.2c0,0-0.9,6.2,3.9,6.6c0,0-0.5,2.9,2.9,4l43.2,64.2l34.4-47.3c0,0,5.3-2,8.6-3.2
		c3.4-1.2,8.3-3.4,10.3-4.2c2-0.9,7.1-7.2-5.3-14L149.1,48.4z"/>
	<path fill="#264C2C" d="M113.3,31.7c0,0,2.9,0.7,4.4,2c1.5,1.3,1.5,2.7,0.7,3.8c-0.8,1.1-1.8,3-1.1,3.8c0.6,0.8,1.4,1.6,0.2,2.5
		c-1.2,0.8-4.8-0.5-6.6-1.2c-1.8-0.7-5.2-1.6-5.7-1.6c-0.5,0-2.2-0.1-2.9-0.9c-0.6-0.8-5.7-4.4-8.9-5.8c-3.2-1.4-6.5-2.9-7.4-3.1
		c0,0,0.2-0.5,0.5-1.2c0.3-0.7,0.4-3.6,2.6-3.9c2.2-0.3,5,1.5,6.4,2.1c1.4,0.5,2.9,1.4,3.5,1.3c0,0-2.2,1.4-1.4,1.5
		c0.8,0.1,3.2-0.1,4.3-0.8c1.1-0.8,2.2-2.4,5.3-1c3.1,1.4,4.7,2.9,5.4,3.8c0.6,0.9,2.6,2.6,2.9,1.9
		C115.7,33.9,113.3,31.7,113.3,31.7z"/>
	<path fill="#264C2C" d="M124,45c0,0,1.7-0.7,4.3,2.5c2.6,3.2,2.2,8.6-3.4,8.5c-5.5-0.1-13.6-2.8-20.2-7.3
		c-6.6-4.5-13.6-6.5-19.8-6.9c-6.1-0.4-9.8-1.6-11.4-2.8C72,37.9,72.5,36,74.1,36s3.5,0.4,3.9,0.9c0,0-0.7-3.2,2.9-3.2
		c3.6,0,10.6,1.4,16.2,5.3c5.6,3.9,11.2,9.8,14.3,10.2c0,0-1.3-1.1-1.8-2.2c0,0,4.1,3.4,9.2,2.9c0,0,1.8-0.4,2.1-2.9
		c0.3-2.6,0.8-2.7,1.9-1.4c1.1,1.3,1.8,4.4,0.5,5.4c-1.2,0.9-2.4,0.5-2.4,0.5s1.8,1.1,3.6-0.1C126.5,50.3,126,46.9,124,45z"/>
	<path fill="#C7C8CA" d="M118.4,49.3c0,0,0.9-0.3,1.1-1.5c0.3-1.2,0.2-2.7,0-3.1c-0.2-0.4-1.1,0-1.1,0l-0.8,0V45l0.5,0.2l-0.1,0.6
		l-1.2,0v0.4l1.1,0.1l-0.1,0.6h-1.4v0.4l1.4,0.5l-0.1,0.4l-2,0C115.8,48.3,115.6,49.2,118.4,49.3z"/>
	<path fill="#C7C8CA" d="M102.5,44.9c0,0-4.3-5.6-10.6-8.3c-6.3-2.7-14.4-4.2-13.2,1.4c0,0-2.2-2-4.3-1c0,0,3.2,0.6,4.6,2.2
		c0,0,0.8,0.8,1,0c0.1-0.8,0-3.6,3.1-3.5c3.1,0.1,7.5,1.5,11.6,3.7C98.8,41.4,102.5,44.9,102.5,44.9z"/>
	<path fill="#264C2C" d="M60.7,51.2c0,0-2.7-2.6-5.1-2.9c-2.4-0.4-3.8,1.1-3.9,2.1c0,1,1.3,3.3,4.5,4c3.2,0.7,4.6-0.3,5.1-0.9
		C61.9,52.6,60.7,51.2,60.7,51.2z"/>
	<path fill="#264C2C" d="M62.5,69.3c0,0,0.7-3.4,2.4-5.1c1.7-1.7,2.1-3,1-3.8c-1.1-0.8-3.7-0.3-5.6,1.8c-2,2.1-2.6,3.2-2.6,3.2
		s-0.4-1.5,0.4-2.8c0.8-1.3,2.4-3,3-3.4c0.5-0.4,0-2.4-2.7-2.1c-2.7,0.3-6,4.3-6.2,5.3c0,0-0.2-1.2,1.1-2.8c1.3-1.7,2.1-3.9,0.7-4.9
		c-1.4-1.1-3.8,0.1-4.8,1.3c-1,1.2-2.3,2.1-1.3,0c1.1-2.1,1.4-3.5,0-4.3c-1.5-0.8-4.4,1.3-5.5,4c-1.1,2.7-0.4,8.3,3,7.2
		c0,0-0.4,5,4.9,4.2c0,0,1,5,5.5,2.9c0,0,1.1,2.1,2.4,2.2c1.3,0.1,2,0.3,2.4,0.5c0.4,0.2,1.9,0.2,1.9-0.7
		C62.5,71.2,62.4,69.9,62.5,69.3z"/>
	<path fill="#BECECA" d="M66.1,58v-2.3c0,0,2.9,0.8,5.9,0.5c3-0.4,4.2-0.7,5.5-0.8c1.3-0.2,3.7,0.9,3.1,1.6c-0.5,0.6-1.1,0.2-2.5,1
		c-1.4,0.9-2.1,1.8-1.5,2.8c0.6,1,1.4,1.5,3.6,1.4c2.3-0.1,3.9,0.1,3.2,1c-0.7,0.8-3,2.4-5.3,2.4c-2.3,0-4.2-0.4-4.2-0.4l3.3,3.9
		c0,0-7.2-3.3-9-3.9c0,0,0.3-1,1.1-2.2c0.8-1.2,1.4-3.3,0.2-4.3C68.1,57.8,66.1,58,66.1,58z"/>
	<polygon fill="#AD8636" points="72.6,69.1 68.4,66.4 65.9,69.1 65.9,71 77.3,76.8 68.4,69.8 75.1,72.3 68.8,68.2 	"/>
	<path fill="#AD8636" d="M118.5,61.4c0,0-8.6,0-13.7-3.2c-5.1-3.2-9.5-7-11.7-9c-2.2-1.9-5.9-3.1-8.7-2.4c0,0,2.4,1.2,4.4,3.8
		c0,0-2.6,0-3.8-0.9c-1.2-0.9-2-0.9-2-0.9s0.4,3.2,5.2,4.7c0,0-2.9-0.5-4.4-0.9c-1.5-0.4-3.2,0.2-3.2,0.2s2.4,1,3.6,2
		c1.1,1,1.3,2.3,5.9,3.1c0,0-3.1,0.6-3.8,0.8c0,0,1.7,0.7,2.9,1.6c1.2,0.9,3.9,3.6,4.9,4.2c1,0.6,5.8,2.5,7.7,5.6
		c0,0,4.2-2.9,9.2-2.9c0,0,3.3-0.3,6.8,2.3c0,0,1.6-3.2-1.7-4.8C116.1,64.8,118.9,63.2,118.5,61.4z"/>
	<path fill="#CEAF87" d="M112.1,54.6c0,0,2.8,0.8,3.2,1.8c0.5,1.1,0.6,2.9,1.5,3.7c0,0-4.2-0.1-5.6-1.4c-1.4-1.2,0.4-2.2,1.4-1.7
		C112.7,57,111.9,55.9,112.1,54.6z"/>
	<path fill="#C7C8CA" d="M110.7,54.9c0,0-2.4-0.7-3.4-1.8c-1-1.1-2.3-1.8-3.5-2c-1.2-0.2-1.7,0.5-1.4,0.9c0.3,0.4,0.7,0,1.3,0
		c0.7,0,1.9-0.2,2.4,1C106.7,54.3,108,55.3,110.7,54.9z"/>
	<path fill="#CEAF87" d="M102.5,49.7c0,0-1-1-2.9-1.4c-1.9-0.4-2.1,0.7-2.1,0.7S98.4,48.6,102.5,49.7z"/>
	<path fill="#BECECA" d="M133.2,79.4c0,0-3.2,3.3-3.3,3.8c0,0,3.5-2.2,7.6-3.4c4.1-1.2,7.7-2.8,6.8-6.2c-0.9-3.4-7.9-7.2-12.2-9.2
		c-4.3-2-7-3.3-8.8-4c-1.8-0.7-2.5,0.2-2.8,1.8c-0.3,1.6-1.6,2.4-1.6,2.4l2,3.2l3.3,0.5l-3.8,2.4c0,0,4.1,2.8,4.9,7
		c0.8,4.2-0.7,8.2-0.7,8.2S131.4,78.8,133.2,79.4z"/>
	<path fill="#264C2C" d="M123,79.6c-0.4-4.4-6.2-11.2-14.9-9.4c0,0-4,1.3-8.1,3c-4.1,1.7-11.8,2.8-14.7,2.9c-2.9,0.2-3.9,1-4.8,4.2
		c-0.9,3.2-2.2,8.9,2.6,9.7c0,0-0.3-5.2,1.9-6.5c0,0-2.5,8.4,2.7,9.1c0,0,0.1-5.6,0.9-6.4c0,0-1.1,8.3,5.9,8.3c0,0-1.9-6.1,0.4-8.3
		c0,0-0.1,5.7,3,8.3c3,2.6,6.4,1.1,7.7-1.1c0,0-0.9-2-3.8-1.2c0,0,1.1-2.6-0.6-5.4c0,0,2.8,0.1,3.6-0.2c0.8-0.3,1.3-1.3,2.7-0.5
		c1.5,0.8,5.9,4.3,10.2,4.6C117.7,90.6,123.4,83.9,123,79.6z M106.6,83c-2-4.4-10.8-6.7-10.8-6.7s1.9-0.3,4.8-1.9
		c2.9-1.6,4.1-1.1,4.1-1.1c-1.7,0.6-2.8,2.6-2.8,2.6C107.4,79.7,106.6,83,106.6,83z M118.9,79.9c-1.2-5.4-11.4-7.9-11.4-7.9
		s5-1.1,9.4,2.2C121.4,77.4,118.9,79.9,118.9,79.9z"/>
	<path fill="#AD8636" d="M81.9,44.1c-1.2-0.6-5.2-1.1-7.5-1.7c-2.3-0.6-6.8-0.2-9.2,0.2c-2.4,0.4-8,1-10.6-2.6c0,0,0.3,6.8,6.2,8
		c5.9,1.2,8.3-1.7,9.9-2.5c1.6-0.8,4.2-1.4,4.5-0.9c0.3,0.5-1.3,1.7-2.6,2.2c-1.3,0.5-4.3,3.2-5.9,3.2c-1.6,0.1-3.3-0.1-4.3-0.6
		c0,0,3.3,3.8,7.7,3.8c4.4,0,5.3-3.5,5.6-5.1c0,0,2.1,0.7,4,0.3C81.5,47.9,83,44.6,81.9,44.1z M65.5,46c-3.5,1-5.8-1.9-5.8-1.9
		c1,1,4.5,1.2,4.2,1.1c-0.4-0.1-1.9-1.5-1.9-1.5c1.8,0.9,4.2,0.8,5.6,0.4c1.4-0.4,4.2-0.4,4.2-0.4C70,44.1,69,45,65.5,46z
		 M74.1,49.3C72,51.2,70,50,70,50s1.7-0.1,3-1c1.4-0.9,1.9-2.7,2.1-2.5C75.3,46.7,76.3,47.4,74.1,49.3z"/>
	<g>
		<g>
			<path fill="#FFFFFF" d="M48.8,98.7h-7V96H43v-6h-1.2v-2.7h11.3V91H50v-1h-2.6v1.8h2v2.3h-2V96h1.3V98.7z"/>
			<path fill="#FFFFFF" d="M60.3,98.7h-6.2V96H55v-6h-0.9v-2.7h6.2c0.6,0,1.1,0,1.6,0c0.5,0,0.9,0,1.2,0.1c0.3,0,0.7,0.1,0.9,0.1
				c0.8,0.2,1.5,0.5,2,1.1c0.5,0.6,0.8,1.3,0.8,2.1c0,0.6-0.2,1.1-0.5,1.6c-0.3,0.5-0.7,0.8-1.2,1.1l1.6,2.6h0.8v2.7h-4.1L60.9,94
				h-1.4V96h0.9V98.7z M59.5,89.7v2.2h0.5c0.6,0,1.1,0,1.3-0.1c0.2,0,0.5-0.1,0.6-0.3c0.2-0.2,0.3-0.4,0.3-0.7
				c0-0.3-0.1-0.5-0.3-0.7c-0.2-0.2-0.4-0.3-0.7-0.3c-0.3,0-0.7-0.1-1.4-0.1H59.5z"/>
			<path fill="#FFFFFF" d="M74.9,98.7h-6.5V96h1.1v-6h-1.1v-2.7h6.5V90h-1v6h1V98.7z"/>
			<path fill="#FFFFFF" d="M87.2,98.7h-11V96h0.9v-6h-0.9v-2.7h11v3.7h-3V90h-2.6v1.8h2.3v2.3h-2.3V96h2.6V95h3V98.7z"/>
			<path fill="#FFFFFF" d="M91.5,98.7H89V95h2.6c0.3,1,0.9,1.5,1.7,1.5c0.6,0,0.9-0.2,0.9-0.7c0-0.3-0.1-0.5-0.3-0.6
				c-0.2-0.2-0.7-0.4-1.5-0.8c-0.9-0.4-1.6-0.8-2.1-1.1c-0.4-0.3-0.8-0.7-1.1-1.2c-0.3-0.5-0.4-1-0.4-1.6c0-1.1,0.3-1.9,1-2.5
				c0.7-0.6,1.5-0.9,2.5-0.9c1,0,1.9,0.3,2.6,0.9v-0.7h2.6v3.3H95c-0.3-0.9-0.9-1.4-1.7-1.4c-0.6,0-0.8,0.2-0.8,0.7
				c0,0.2,0.1,0.4,0.2,0.5c0.2,0.1,0.7,0.4,1.5,0.8c1.1,0.6,1.9,1,2.3,1.2c0.2,0.1,0.4,0.3,0.6,0.5c0.2,0.2,0.4,0.5,0.5,0.7
				c0.3,0.5,0.5,1.1,0.5,1.8c0,1-0.4,1.8-1.1,2.4c-0.7,0.7-1.6,1-2.7,1c-1,0-1.9-0.3-2.7-0.9V98.7z"/>
			<path fill="#FFFFFF" d="M110.5,98.7h-11V96h0.9v-6h-0.9v-2.7h11v3.7h-3V90h-2.6v1.8h2.3v2.3h-2.3V96h2.6V95h3V98.7z"/>
			<path fill="#FFFFFF" d="M116.7,98.7H112V96h1v-6h-1v-2.7h5.4l4.2,6V90h-0.9v-2.7h4.6V90h-1v8.9h-3.8l-4.8-6.9v4h1V98.7z"/>
			<path fill="#FFFFFF" d="M129.2,98.7h-2.6V95h2.6c0.3,1,0.9,1.5,1.7,1.5c0.6,0,0.9-0.2,0.9-0.7c0-0.3-0.1-0.5-0.3-0.6
				c-0.2-0.2-0.7-0.4-1.5-0.8c-0.9-0.4-1.6-0.8-2.1-1.1c-0.4-0.3-0.8-0.7-1.1-1.2c-0.3-0.5-0.4-1-0.4-1.6c0-1.1,0.3-1.9,1-2.5
				c0.7-0.6,1.5-0.9,2.5-0.9c1,0,1.9,0.3,2.6,0.9v-0.7h2.6v3.3h-2.6c-0.3-0.9-0.9-1.4-1.7-1.4c-0.6,0-0.8,0.2-0.8,0.7
				c0,0.2,0.1,0.4,0.2,0.5c0.2,0.1,0.7,0.4,1.5,0.8c1.1,0.6,1.9,1,2.3,1.2c0.2,0.1,0.4,0.3,0.6,0.5c0.2,0.2,0.4,0.5,0.5,0.7
				c0.3,0.5,0.5,1.1,0.5,1.8c0,1-0.4,1.8-1.1,2.4c-0.7,0.7-1.6,1-2.7,1c-1,0-1.9-0.3-2.7-0.9V98.7z"/>
		</g>
		<g>
			<path fill="none" stroke="#000000" stroke-width="1.3" d="M48.8,98.7h-7V96H43v-6h-1.2v-2.7h11.3V91H50v-1h-2.6v1.8h2v2.3h-2V96
				h1.3V98.7z"/>
			<path fill="none" stroke="#000000" stroke-width="1.3" d="M60.3,98.7h-6.2V96H55v-6h-0.9v-2.7h6.2c0.6,0,1.1,0,1.6,0
				c0.5,0,0.9,0,1.2,0.1c0.3,0,0.7,0.1,0.9,0.1c0.8,0.2,1.5,0.5,2,1.1c0.5,0.6,0.8,1.3,0.8,2.1c0,0.6-0.2,1.1-0.5,1.6
				c-0.3,0.5-0.7,0.8-1.2,1.1l1.6,2.6h0.8v2.7h-4.1L60.9,94h-1.4V96h0.9V98.7z M59.5,89.7v2.2h0.5c0.6,0,1.1,0,1.3-0.1
				c0.2,0,0.5-0.1,0.6-0.3c0.2-0.2,0.3-0.4,0.3-0.7c0-0.3-0.1-0.5-0.3-0.7c-0.2-0.2-0.4-0.3-0.7-0.3c-0.3,0-0.7-0.1-1.4-0.1H59.5z"
				/>
			<path fill="none" stroke="#000000" stroke-width="1.3" d="M74.9,98.7h-6.5V96h1.1v-6h-1.1v-2.7h6.5V90h-1v6h1V98.7z"/>
			<path fill="none" stroke="#000000" stroke-width="1.3" d="M87.2,98.7h-11V96h0.9v-6h-0.9v-2.7h11v3.7h-3V90h-2.6v1.8h2.3v2.3
				h-2.3V96h2.6V95h3V98.7z"/>
			<path fill="none" stroke="#000000" stroke-width="1.3" d="M91.5,98.7H89V95h2.6c0.3,1,0.9,1.5,1.7,1.5c0.6,0,0.9-0.2,0.9-0.7
				c0-0.3-0.1-0.5-0.3-0.6c-0.2-0.2-0.7-0.4-1.5-0.8c-0.9-0.4-1.6-0.8-2.1-1.1c-0.4-0.3-0.8-0.7-1.1-1.2c-0.3-0.5-0.4-1-0.4-1.6
				c0-1.1,0.3-1.9,1-2.5c0.7-0.6,1.5-0.9,2.5-0.9c1,0,1.9,0.3,2.6,0.9v-0.7h2.6v3.3H95c-0.3-0.9-0.9-1.4-1.7-1.4
				c-0.6,0-0.8,0.2-0.8,0.7c0,0.2,0.1,0.4,0.2,0.5c0.2,0.1,0.7,0.4,1.5,0.8c1.1,0.6,1.9,1,2.3,1.2c0.2,0.1,0.4,0.3,0.6,0.5
				c0.2,0.2,0.4,0.5,0.5,0.7c0.3,0.5,0.5,1.1,0.5,1.8c0,1-0.4,1.8-1.1,2.4c-0.7,0.7-1.6,1-2.7,1c-1,0-1.9-0.3-2.7-0.9V98.7z"/>
			<path fill="none" stroke="#000000" stroke-width="1.3" d="M110.5,98.7h-11V96h0.9v-6h-0.9v-2.7h11v3.7h-3V90h-2.6v1.8h2.3v2.3
				h-2.3V96h2.6V95h3V98.7z"/>
			<path fill="none" stroke="#000000" stroke-width="1.3" d="M116.7,98.7H112V96h1v-6h-1v-2.7h5.4l4.2,6V90h-0.9v-2.7h4.6V90h-1v8.9
				h-3.8l-4.8-6.9v4h1V98.7z"/>
			<path fill="none" stroke="#000000" stroke-width="1.3" d="M129.2,98.7h-2.6V95h2.6c0.3,1,0.9,1.5,1.7,1.5c0.6,0,0.9-0.2,0.9-0.7
				c0-0.3-0.1-0.5-0.3-0.6c-0.2-0.2-0.7-0.4-1.5-0.8c-0.9-0.4-1.6-0.8-2.1-1.1c-0.4-0.3-0.8-0.7-1.1-1.2c-0.3-0.5-0.4-1-0.4-1.6
				c0-1.1,0.3-1.9,1-2.5c0.7-0.6,1.5-0.9,2.5-0.9c1,0,1.9,0.3,2.6,0.9v-0.7h2.6v3.3h-2.6c-0.3-0.9-0.9-1.4-1.7-1.4
				c-0.6,0-0.8,0.2-0.8,0.7c0,0.2,0.1,0.4,0.2,0.5c0.2,0.1,0.7,0.4,1.5,0.8c1.1,0.6,1.9,1,2.3,1.2c0.2,0.1,0.4,0.3,0.6,0.5
				c0.2,0.2,0.4,0.5,0.5,0.7c0.3,0.5,0.5,1.1,0.5,1.8c0,1-0.4,1.8-1.1,2.4c-0.7,0.7-1.6,1-2.7,1c-1,0-1.9-0.3-2.7-0.9V98.7z"/>
		</g>
	</g>
	<g>
		<g>
			<path fill="#264C2C" d="M32.2,129.9c-3.7,1.3-7.5,2.7-11.1,4.2c-0.6-1.4-1.2-2.8-1.7-4.2c0.7-0.3,1.3-0.5,2-0.8
				c-1.2-3-2.4-6.1-3.7-9.1c-0.7,0.3-1.4,0.6-2.1,0.9c-0.6-1.4-1.2-2.8-1.7-4.2c6.6-2.7,13.3-5.1,20.1-7.1c0.6,2,1.2,4,1.7,6
				c-1.8,0.5-3.5,1.1-5.3,1.6c-0.2-0.5-0.3-1.1-0.5-1.6c-1.5,0.5-3,1-4.5,1.5c0.3,0.9,0.6,1.8,1,2.7c1.1-0.4,2.3-0.8,3.4-1.2
				c0.4,1.2,0.8,2.4,1.2,3.6c-1.1,0.4-2.2,0.7-3.3,1.1c0.3,1,0.7,1.9,1,2.9c0.7-0.3,1.5-0.5,2.2-0.8C31.2,127,31.7,128.5,32.2,129.9
				z"/>
			<path fill="#264C2C" d="M38.3,116.6c-0.4,0.1-0.8,0.2-1.2,0.3c-0.3-1.1-0.6-2.2-0.9-3.3c2.6-0.7,5.3-1.4,7.9-2.1
				c0.3,1.1,0.5,2.2,0.8,3.3c-0.2,0.1-0.5,0.1-0.7,0.2c0.4,1.6,0.8,3.1,1.1,4.7c0.3,1.1,0.6,1.9,0.9,2.2c0.3,0.3,0.8,0.5,1.3,0.3
				c0.5-0.1,0.8-0.4,0.9-0.8c0.1-0.4,0.1-1.1-0.1-2.1c-0.4-1.7-0.8-3.4-1.1-5c-0.3,0.1-0.5,0.1-0.8,0.2c-0.3-1.1-0.5-2.2-0.8-3.3
				c1.9-0.4,3.9-0.9,5.8-1.3c0.2,1.1,0.4,2.2,0.7,3.4c-0.4,0.1-0.8,0.2-1.2,0.2c0.3,1.7,0.7,3.4,1,5.1c0.3,1.3,0.3,2.4,0.1,3.3
				c-0.2,0.9-0.7,1.7-1.5,2.3c-0.8,0.7-1.8,1.1-3.1,1.5c-1,0.3-2,0.4-2.9,0.3c-0.9,0-1.6-0.2-2.2-0.6c-0.6-0.4-1.1-0.8-1.5-1.5
				c-0.4-0.6-0.8-1.6-1.2-3C39.1,119.6,38.7,118.1,38.3,116.6z"/>
			<path fill="#264C2C" d="M66.2,117.1c-0.5,0.1-1,0.1-1.5,0.2c-0.1-0.9-0.2-1.8-0.4-2.7c2.3-0.3,4.5-0.6,6.8-0.8
				c0.1,1.6,0.1,2.7,0,3.5c-0.2,0.8-0.5,1.5-1.2,2.4c-0.6,0.8-1.4,1.4-2.3,1.9c-0.9,0.5-1.9,0.8-3,0.9c-1.6,0.2-3.2,0.2-4.6-0.1
				c-1.4-0.3-2.6-1-3.6-2c-1-1-1.6-2.3-1.9-3.7c-0.4-2.2,0-4.1,1.4-5.7c1.3-1.6,3.2-2.6,5.5-3c1.9-0.3,3.5,0,4.7,0.7
				c0-0.3-0.1-0.7-0.1-1c1.3-0.1,2.5-0.3,3.8-0.4c0.2,1.7,0.3,3.3,0.5,5c-1.2,0.1-2.5,0.3-3.7,0.4c-0.4-0.6-0.9-1-1.4-1.2
				c-0.6-0.2-1.2-0.3-1.9-0.2c-1,0.1-1.7,0.5-2,1.2c-0.4,0.7-0.4,1.8-0.2,3.3c0.2,1.6,0.6,2.6,1.2,3.1c0.5,0.5,1.3,0.7,2.1,0.6
				C65.8,119.1,66.4,118.4,66.2,117.1z"/>
			<path fill="#264C2C" d="M82,120.8c-2.8,0.1-5.6,0.3-8.3,0.5c-0.1-1.1-0.2-2.3-0.3-3.4c0.5,0,0.9-0.1,1.4-0.1
				c-0.2-2.5-0.4-5-0.6-7.4c-0.5,0-1,0.1-1.4,0.1c-0.1-1.1-0.2-2.3-0.3-3.4c3-0.3,6-0.4,9-0.6c0,1.1,0.1,2.3,0.1,3.4
				c-0.5,0-0.9,0-1.4,0.1c0.1,2.5,0.2,5,0.3,7.5c0.5,0,0.9,0,1.4-0.1C81.9,118.5,82,119.6,82,120.8z"/>
			<path fill="#264C2C" d="M95,120.7c-2.7-0.1-5.5-0.1-8.2-0.1c0-1.1,0-2.3,0-3.4c0.4,0,0.9,0,1.3,0c0-2.5,0-5,0-7.5
				c-0.6,0-1.2,0-1.8,0c0,0.9,0,1.7,0,2.6c-1,0-1.9,0-2.9,0.1c-0.1-2-0.1-4-0.2-6c5.2-0.1,10.5-0.1,15.7,0.2c-0.1,2-0.2,4-0.3,6
				c-1-0.1-1.9-0.1-2.9-0.1c0-0.9,0.1-1.7,0.1-2.6c-0.6,0-1.2,0-1.8-0.1c-0.1,2.5-0.1,5-0.2,7.5c0.4,0,0.9,0,1.3,0
				C95.1,118.5,95,119.6,95,120.7z"/>
			<path fill="#264C2C" d="M108,121.7c-2.8-0.3-5.5-0.5-8.3-0.7c0.1-1.1,0.1-2.3,0.2-3.4c0.5,0,0.9,0.1,1.4,0.1
				c0.2-2.5,0.3-5,0.5-7.4c-0.5,0-1-0.1-1.4-0.1c0.1-1.1,0.1-2.3,0.2-3.4c3,0.2,6,0.4,9,0.8c-0.1,1.1-0.2,2.3-0.4,3.4
				c-0.5-0.1-0.9-0.1-1.4-0.1c-0.3,2.5-0.5,5-0.8,7.4c0.5,0,0.9,0.1,1.4,0.1C108.3,119.4,108.1,120.6,108,121.7z"/>
			<path fill="#264C2C" d="M119.2,123.4c-1.5-0.3-3-0.5-4.5-0.7c-1-3.9-2.1-7.7-3.3-11.6c-0.4,0-0.8-0.1-1.1-0.1
				c0.1-1.1,0.3-2.3,0.4-3.4c2.8,0.3,5.6,0.7,8.4,1.2c-0.2,1.1-0.4,2.3-0.5,3.4c-0.4-0.1-0.9-0.1-1.3-0.2c0.5,2.1,0.9,4.3,1.3,6.4
				c1.1-1.9,2.2-3.7,3.4-5.6c-0.4-0.1-0.8-0.1-1.3-0.2c0.2-1.1,0.4-2.3,0.6-3.4c2.1,0.4,4.2,0.8,6.3,1.2c-0.2,1.1-0.5,2.2-0.7,3.4
				c-0.4-0.1-0.8-0.2-1.1-0.2C123.4,116.7,121.3,120,119.2,123.4z"/>
			<path fill="#264C2C" d="M139.4,128c-4.5-1.3-9-2.5-13.6-3.5c0.2-1.1,0.5-2.2,0.7-3.4c0.4,0.1,0.8,0.2,1.1,0.2
				c0.5-2.4,1.1-4.9,1.6-7.3c-0.4-0.1-0.8-0.2-1.2-0.3c0.2-1.1,0.5-2.2,0.7-3.4c5,1.1,9.9,2.3,14.7,3.8c-0.4,1.5-0.9,2.9-1.3,4.4
				c-1.3-0.4-2.6-0.8-3.9-1.1c0.1-0.4,0.2-0.7,0.3-1.1c-1.1-0.3-2.3-0.6-3.4-0.9c-0.2,0.7-0.4,1.4-0.5,2.1c1,0.3,2,0.5,3,0.8
				c-0.3,0.9-0.5,1.9-0.8,2.8c-1-0.3-1.9-0.5-2.9-0.8c-0.2,0.8-0.4,1.5-0.6,2.3c1.1,0.3,2.2,0.6,3.3,0.9c0.1-0.4,0.2-0.7,0.3-1.1
				c1.3,0.4,2.6,0.7,3.8,1.1C140.2,125.1,139.8,126.6,139.4,128z"/>
			<path fill="#264C2C" d="M146,130.2c-1.4-0.5-2.8-0.9-4.2-1.4c0.6-1.9,1.2-3.9,1.8-5.8c1.4,0.5,2.9,0.9,4.3,1.4
				c0,1.7,0.7,2.8,2.1,3.3c1,0.4,1.7,0.2,1.9-0.6c0.1-0.4,0.1-0.8-0.2-1.2c-0.3-0.4-0.9-1.1-2-2.1c-1.3-1.2-2.3-2.2-2.9-2.9
				c-0.6-0.7-1-1.5-1.2-2.4c-0.3-0.9-0.2-1.9,0-2.8c0.5-1.7,1.5-2.8,3.1-3.3c1.5-0.5,3.2-0.5,5,0.1c1.8,0.6,3.1,1.6,4,3
				c0.1-0.4,0.3-0.7,0.4-1.1c1.5,0.6,3.1,1.2,4.6,1.8c-0.7,1.7-1.4,3.3-2,5c-1.5-0.6-2.9-1.2-4.4-1.7c0-1.6-0.7-2.7-2.1-3.2
				c-1-0.4-1.6-0.2-1.9,0.6c-0.1,0.4-0.1,0.7,0.1,1c0.2,0.3,0.9,1,2.1,2.2c1.6,1.6,2.6,2.7,3.1,3.4c0.2,0.3,0.5,0.7,0.7,1.2
				c0.2,0.5,0.3,1,0.4,1.4c0.2,1,0,2-0.3,3c-0.6,1.5-1.7,2.5-3.3,3c-1.6,0.6-3.2,0.5-4.9-0.1c-1.6-0.6-2.9-1.6-3.9-3
				C146.2,129.4,146.1,129.8,146,130.2z"/>
		</g>
		<g>
			<path fill="none" stroke="#000000" stroke-width="5" d="M32.2,129.9c-3.7,1.3-7.5,2.7-11.1,4.2c-0.6-1.4-1.2-2.8-1.7-4.2
				c0.7-0.3,1.3-0.5,2-0.8c-1.2-3-2.4-6.1-3.7-9.1c-0.7,0.3-1.4,0.6-2.1,0.9c-0.6-1.4-1.2-2.8-1.7-4.2c6.6-2.7,13.3-5.1,20.1-7.1
				c0.6,2,1.2,4,1.7,6c-1.8,0.5-3.5,1.1-5.3,1.6c-0.2-0.5-0.3-1.1-0.5-1.6c-1.5,0.5-3,1-4.5,1.5c0.3,0.9,0.6,1.8,1,2.7
				c1.1-0.4,2.3-0.8,3.4-1.2c0.4,1.2,0.8,2.4,1.2,3.6c-1.1,0.4-2.2,0.7-3.3,1.1c0.3,1,0.7,1.9,1,2.9c0.7-0.3,1.5-0.5,2.2-0.8
				C31.2,127,31.7,128.5,32.2,129.9z"/>
			<path fill="none" stroke="#000000" stroke-width="5" d="M38.3,116.6c-0.4,0.1-0.8,0.2-1.2,0.3c-0.3-1.1-0.6-2.2-0.9-3.3
				c2.6-0.7,5.3-1.4,7.9-2.1c0.3,1.1,0.5,2.2,0.8,3.3c-0.2,0.1-0.5,0.1-0.7,0.2c0.4,1.6,0.8,3.1,1.1,4.7c0.3,1.1,0.6,1.9,0.9,2.2
				c0.3,0.3,0.8,0.5,1.3,0.3c0.5-0.1,0.8-0.4,0.9-0.8c0.1-0.4,0.1-1.1-0.1-2.1c-0.4-1.7-0.8-3.4-1.1-5c-0.3,0.1-0.5,0.1-0.8,0.2
				c-0.3-1.1-0.5-2.2-0.8-3.3c1.9-0.4,3.9-0.9,5.8-1.3c0.2,1.1,0.4,2.2,0.7,3.4c-0.4,0.1-0.8,0.2-1.2,0.2c0.3,1.7,0.7,3.4,1,5.1
				c0.3,1.3,0.3,2.4,0.1,3.3c-0.2,0.9-0.7,1.7-1.5,2.3c-0.8,0.7-1.8,1.1-3.1,1.5c-1,0.3-2,0.4-2.9,0.3c-0.9,0-1.6-0.2-2.2-0.6
				c-0.6-0.4-1.1-0.8-1.5-1.5c-0.4-0.6-0.8-1.6-1.2-3C39.1,119.6,38.7,118.1,38.3,116.6z"/>
			<path fill="none" stroke="#000000" stroke-width="5" d="M66.2,117.1c-0.5,0.1-1,0.1-1.5,0.2c-0.1-0.9-0.2-1.8-0.4-2.7
				c2.3-0.3,4.5-0.6,6.8-0.8c0.1,1.6,0.1,2.7,0,3.5c-0.2,0.8-0.5,1.5-1.2,2.4c-0.6,0.8-1.4,1.4-2.3,1.9c-0.9,0.5-1.9,0.8-3,0.9
				c-1.6,0.2-3.2,0.2-4.6-0.1c-1.4-0.3-2.6-1-3.6-2c-1-1-1.6-2.3-1.9-3.7c-0.4-2.2,0-4.1,1.4-5.7c1.3-1.6,3.2-2.6,5.5-3
				c1.9-0.3,3.5,0,4.7,0.7c0-0.3-0.1-0.7-0.1-1c1.3-0.1,2.5-0.3,3.8-0.4c0.2,1.7,0.3,3.3,0.5,5c-1.2,0.1-2.5,0.3-3.7,0.4
				c-0.4-0.6-0.9-1-1.4-1.2c-0.6-0.2-1.2-0.3-1.9-0.2c-1,0.1-1.7,0.5-2,1.2c-0.4,0.7-0.4,1.8-0.2,3.3c0.2,1.6,0.6,2.6,1.2,3.1
				c0.5,0.5,1.3,0.7,2.1,0.6C65.8,119.1,66.4,118.4,66.2,117.1z"/>
			<path fill="none" stroke="#000000" stroke-width="5" d="M82,120.8c-2.8,0.1-5.6,0.3-8.3,0.5c-0.1-1.1-0.2-2.3-0.3-3.4
				c0.5,0,0.9-0.1,1.4-0.1c-0.2-2.5-0.4-5-0.6-7.4c-0.5,0-1,0.1-1.4,0.1c-0.1-1.1-0.2-2.3-0.3-3.4c3-0.3,6-0.4,9-0.6
				c0,1.1,0.1,2.3,0.1,3.4c-0.5,0-0.9,0-1.4,0.1c0.1,2.5,0.2,5,0.3,7.5c0.5,0,0.9,0,1.4-0.1C81.9,118.5,82,119.6,82,120.8z"/>
			<path fill="none" stroke="#000000" stroke-width="5" d="M95,120.7c-2.7-0.1-5.5-0.1-8.2-0.1c0-1.1,0-2.3,0-3.4c0.4,0,0.9,0,1.3,0
				c0-2.5,0-5,0-7.5c-0.6,0-1.2,0-1.8,0c0,0.9,0,1.7,0,2.6c-1,0-1.9,0-2.9,0.1c-0.1-2-0.1-4-0.2-6c5.2-0.1,10.5-0.1,15.7,0.2
				c-0.1,2-0.2,4-0.3,6c-1-0.1-1.9-0.1-2.9-0.1c0-0.9,0.1-1.7,0.1-2.6c-0.6,0-1.2,0-1.8-0.1c-0.1,2.5-0.1,5-0.2,7.5
				c0.4,0,0.9,0,1.3,0C95.1,118.5,95,119.6,95,120.7z"/>
			<path fill="none" stroke="#000000" stroke-width="5" d="M108,121.7c-2.8-0.3-5.5-0.5-8.3-0.7c0.1-1.1,0.1-2.3,0.2-3.4
				c0.5,0,0.9,0.1,1.4,0.1c0.2-2.5,0.3-5,0.5-7.4c-0.5,0-1-0.1-1.4-0.1c0.1-1.1,0.1-2.3,0.2-3.4c3,0.2,6,0.4,9,0.8
				c-0.1,1.1-0.2,2.3-0.4,3.4c-0.5-0.1-0.9-0.1-1.4-0.1c-0.3,2.5-0.5,5-0.8,7.4c0.5,0,0.9,0.1,1.4,0.1
				C108.3,119.4,108.1,120.6,108,121.7z"/>
			<path fill="none" stroke="#000000" stroke-width="5" d="M119.2,123.4c-1.5-0.3-3-0.5-4.5-0.7c-1-3.9-2.1-7.7-3.3-11.6
				c-0.4,0-0.8-0.1-1.1-0.1c0.1-1.1,0.3-2.3,0.4-3.4c2.8,0.3,5.6,0.7,8.4,1.2c-0.2,1.1-0.4,2.3-0.5,3.4c-0.4-0.1-0.9-0.1-1.3-0.2
				c0.5,2.1,0.9,4.3,1.3,6.4c1.1-1.9,2.2-3.7,3.4-5.6c-0.4-0.1-0.8-0.1-1.3-0.2c0.2-1.1,0.4-2.3,0.6-3.4c2.1,0.4,4.2,0.8,6.3,1.2
				c-0.2,1.1-0.5,2.2-0.7,3.4c-0.4-0.1-0.8-0.2-1.1-0.2C123.4,116.7,121.3,120,119.2,123.4z"/>
			<path fill="none" stroke="#000000" stroke-width="5" d="M139.4,128c-4.5-1.3-9-2.5-13.6-3.5c0.2-1.1,0.5-2.2,0.7-3.4
				c0.4,0.1,0.8,0.2,1.1,0.2c0.5-2.4,1.1-4.9,1.6-7.3c-0.4-0.1-0.8-0.2-1.2-0.3c0.2-1.1,0.5-2.2,0.7-3.4c5,1.1,9.9,2.3,14.7,3.8
				c-0.4,1.5-0.9,2.9-1.3,4.4c-1.3-0.4-2.6-0.8-3.9-1.1c0.1-0.4,0.2-0.7,0.3-1.1c-1.1-0.3-2.3-0.6-3.4-0.9c-0.2,0.7-0.4,1.4-0.5,2.1
				c1,0.3,2,0.5,3,0.8c-0.3,0.9-0.5,1.9-0.8,2.8c-1-0.3-1.9-0.5-2.9-0.8c-0.2,0.8-0.4,1.5-0.6,2.3c1.1,0.3,2.2,0.6,3.3,0.9
				c0.1-0.4,0.2-0.7,0.3-1.1c1.3,0.4,2.6,0.7,3.8,1.1C140.2,125.1,139.8,126.6,139.4,128z"/>
			<path fill="none" stroke="#000000" stroke-width="5" d="M146,130.2c-1.4-0.5-2.8-0.9-4.2-1.4c0.6-1.9,1.2-3.9,1.8-5.8
				c1.4,0.5,2.9,0.9,4.3,1.4c0,1.7,0.7,2.8,2.1,3.3c1,0.4,1.7,0.2,1.9-0.6c0.1-0.4,0.1-0.8-0.2-1.2c-0.3-0.4-0.9-1.1-2-2.1
				c-1.3-1.2-2.3-2.2-2.9-2.9c-0.6-0.7-1-1.5-1.2-2.4c-0.3-0.9-0.2-1.9,0-2.8c0.5-1.7,1.5-2.8,3.1-3.3c1.5-0.5,3.2-0.5,5,0.1
				c1.8,0.6,3.1,1.6,4,3c0.1-0.4,0.3-0.7,0.4-1.1c1.5,0.6,3.1,1.2,4.6,1.8c-0.7,1.7-1.4,3.3-2,5c-1.5-0.6-2.9-1.2-4.4-1.7
				c0-1.6-0.7-2.7-2.1-3.2c-1-0.4-1.6-0.2-1.9,0.6c-0.1,0.4-0.1,0.7,0.1,1c0.2,0.3,0.9,1,2.1,2.2c1.6,1.6,2.6,2.7,3.1,3.4
				c0.2,0.3,0.5,0.7,0.7,1.2c0.2,0.5,0.3,1,0.4,1.4c0.2,1,0,2-0.3,3c-0.6,1.5-1.7,2.5-3.3,3c-1.6,0.6-3.2,0.5-4.9-0.1
				c-1.6-0.6-2.9-1.6-3.9-3C146.2,129.4,146.1,129.8,146,130.2z"/>
		</g>
		<g>
			<path d="M32.2,129.9c-3.7,1.3-7.5,2.7-11.1,4.2c-0.6-1.4-1.2-2.8-1.7-4.2c0.7-0.3,1.3-0.5,2-0.8c-1.2-3-2.4-6.1-3.7-9.1
				c-0.7,0.3-1.4,0.6-2.1,0.9c-0.6-1.4-1.2-2.8-1.7-4.2c6.6-2.7,13.3-5.1,20.1-7.1c0.6,2,1.2,4,1.7,6c-1.8,0.5-3.5,1.1-5.3,1.6
				c-0.2-0.5-0.3-1.1-0.5-1.6c-1.5,0.5-3,1-4.5,1.5c0.3,0.9,0.6,1.8,1,2.7c1.1-0.4,2.3-0.8,3.4-1.2c0.4,1.2,0.8,2.4,1.2,3.6
				c-1.1,0.4-2.2,0.7-3.3,1.1c0.3,1,0.7,1.9,1,2.9c0.7-0.3,1.5-0.5,2.2-0.8C31.2,127,31.7,128.5,32.2,129.9z"/>
			<path d="M38.3,116.6c-0.4,0.1-0.8,0.2-1.2,0.3c-0.3-1.1-0.6-2.2-0.9-3.3c2.6-0.7,5.3-1.4,7.9-2.1c0.3,1.1,0.5,2.2,0.8,3.3
				c-0.2,0.1-0.5,0.1-0.7,0.2c0.4,1.6,0.8,3.1,1.1,4.7c0.3,1.1,0.6,1.9,0.9,2.2c0.3,0.3,0.8,0.5,1.3,0.3c0.5-0.1,0.8-0.4,0.9-0.8
				c0.1-0.4,0.1-1.1-0.1-2.1c-0.4-1.7-0.8-3.4-1.1-5c-0.3,0.1-0.5,0.1-0.8,0.2c-0.3-1.1-0.5-2.2-0.8-3.3c1.9-0.4,3.9-0.9,5.8-1.3
				c0.2,1.1,0.4,2.2,0.7,3.4c-0.4,0.1-0.8,0.2-1.2,0.2c0.3,1.7,0.7,3.4,1,5.1c0.3,1.3,0.3,2.4,0.1,3.3c-0.2,0.9-0.7,1.7-1.5,2.3
				c-0.8,0.7-1.8,1.1-3.1,1.5c-1,0.3-2,0.4-2.9,0.3c-0.9,0-1.6-0.2-2.2-0.6c-0.6-0.4-1.1-0.8-1.5-1.5c-0.4-0.6-0.8-1.6-1.2-3
				C39.1,119.6,38.7,118.1,38.3,116.6z"/>
			<path d="M66.2,117.1c-0.5,0.1-1,0.1-1.5,0.2c-0.1-0.9-0.2-1.8-0.4-2.7c2.3-0.3,4.5-0.6,6.8-0.8c0.1,1.6,0.1,2.7,0,3.5
				c-0.2,0.8-0.5,1.5-1.2,2.4c-0.6,0.8-1.4,1.4-2.3,1.9c-0.9,0.5-1.9,0.8-3,0.9c-1.6,0.2-3.2,0.2-4.6-0.1c-1.4-0.3-2.6-1-3.6-2
				c-1-1-1.6-2.3-1.9-3.7c-0.4-2.2,0-4.1,1.4-5.7c1.3-1.6,3.2-2.6,5.5-3c1.9-0.3,3.5,0,4.7,0.7c0-0.3-0.1-0.7-0.1-1
				c1.3-0.1,2.5-0.3,3.8-0.4c0.2,1.7,0.3,3.3,0.5,5c-1.2,0.1-2.5,0.3-3.7,0.4c-0.4-0.6-0.9-1-1.4-1.2c-0.6-0.2-1.2-0.3-1.9-0.2
				c-1,0.1-1.7,0.5-2,1.2c-0.4,0.7-0.4,1.8-0.2,3.3c0.2,1.6,0.6,2.6,1.2,3.1c0.5,0.5,1.3,0.7,2.1,0.6
				C65.8,119.1,66.4,118.4,66.2,117.1z"/>
			<path d="M82,120.8c-2.8,0.1-5.6,0.3-8.3,0.5c-0.1-1.1-0.2-2.3-0.3-3.4c0.5,0,0.9-0.1,1.4-0.1c-0.2-2.5-0.4-5-0.6-7.4
				c-0.5,0-1,0.1-1.4,0.1c-0.1-1.1-0.2-2.3-0.3-3.4c3-0.3,6-0.4,9-0.6c0,1.1,0.1,2.3,0.1,3.4c-0.5,0-0.9,0-1.4,0.1
				c0.1,2.5,0.2,5,0.3,7.5c0.5,0,0.9,0,1.4-0.1C81.9,118.5,82,119.6,82,120.8z"/>
			<path d="M95,120.7c-2.7-0.1-5.5-0.1-8.2-0.1c0-1.1,0-2.3,0-3.4c0.4,0,0.9,0,1.3,0c0-2.5,0-5,0-7.5c-0.6,0-1.2,0-1.8,0
				c0,0.9,0,1.7,0,2.6c-1,0-1.9,0-2.9,0.1c-0.1-2-0.1-4-0.2-6c5.2-0.1,10.5-0.1,15.7,0.2c-0.1,2-0.2,4-0.3,6c-1-0.1-1.9-0.1-2.9-0.1
				c0-0.9,0.1-1.7,0.1-2.6c-0.6,0-1.2,0-1.8-0.1c-0.1,2.5-0.1,5-0.2,7.5c0.4,0,0.9,0,1.3,0C95.1,118.5,95,119.6,95,120.7z"/>
			<path d="M108,121.7c-2.8-0.3-5.5-0.5-8.3-0.7c0.1-1.1,0.1-2.3,0.2-3.4c0.5,0,0.9,0.1,1.4,0.1c0.2-2.5,0.3-5,0.5-7.4
				c-0.5,0-1-0.1-1.4-0.1c0.1-1.1,0.1-2.3,0.2-3.4c3,0.2,6,0.4,9,0.8c-0.1,1.1-0.2,2.3-0.4,3.4c-0.5-0.1-0.9-0.1-1.4-0.1
				c-0.3,2.5-0.5,5-0.8,7.4c0.5,0,0.9,0.1,1.4,0.1C108.3,119.4,108.1,120.6,108,121.7z"/>
			<path d="M119.2,123.4c-1.5-0.3-3-0.5-4.5-0.7c-1-3.9-2.1-7.7-3.3-11.6c-0.4,0-0.8-0.1-1.1-0.1c0.1-1.1,0.3-2.3,0.4-3.4
				c2.8,0.3,5.6,0.7,8.4,1.2c-0.2,1.1-0.4,2.3-0.5,3.4c-0.4-0.1-0.9-0.1-1.3-0.2c0.5,2.1,0.9,4.3,1.3,6.4c1.1-1.9,2.2-3.7,3.4-5.6
				c-0.4-0.1-0.8-0.1-1.3-0.2c0.2-1.1,0.4-2.3,0.6-3.4c2.1,0.4,4.2,0.8,6.3,1.2c-0.2,1.1-0.5,2.2-0.7,3.4c-0.4-0.1-0.8-0.2-1.1-0.2
				C123.4,116.7,121.3,120,119.2,123.4z"/>
			<path d="M139.4,128c-4.5-1.3-9-2.5-13.6-3.5c0.2-1.1,0.5-2.2,0.7-3.4c0.4,0.1,0.8,0.2,1.1,0.2c0.5-2.4,1.1-4.9,1.6-7.3
				c-0.4-0.1-0.8-0.2-1.2-0.3c0.2-1.1,0.5-2.2,0.7-3.4c5,1.1,9.9,2.3,14.7,3.8c-0.4,1.5-0.9,2.9-1.3,4.4c-1.3-0.4-2.6-0.8-3.9-1.1
				c0.1-0.4,0.2-0.7,0.3-1.1c-1.1-0.3-2.3-0.6-3.4-0.9c-0.2,0.7-0.4,1.4-0.5,2.1c1,0.3,2,0.5,3,0.8c-0.3,0.9-0.5,1.9-0.8,2.8
				c-1-0.3-1.9-0.5-2.9-0.8c-0.2,0.8-0.4,1.5-0.6,2.3c1.1,0.3,2.2,0.6,3.3,0.9c0.1-0.4,0.2-0.7,0.3-1.1c1.3,0.4,2.6,0.7,3.8,1.1
				C140.2,125.1,139.8,126.6,139.4,128z"/>
			<path d="M146,130.2c-1.4-0.5-2.8-0.9-4.2-1.4c0.6-1.9,1.2-3.9,1.8-5.8c1.4,0.5,2.9,0.9,4.3,1.4c0,1.7,0.7,2.8,2.1,3.3
				c1,0.4,1.7,0.2,1.9-0.6c0.1-0.4,0.1-0.8-0.2-1.2c-0.3-0.4-0.9-1.1-2-2.1c-1.3-1.2-2.3-2.2-2.9-2.9c-0.6-0.7-1-1.5-1.2-2.4
				c-0.3-0.9-0.2-1.9,0-2.8c0.5-1.7,1.5-2.8,3.1-3.3c1.5-0.5,3.2-0.5,5,0.1c1.8,0.6,3.1,1.6,4,3c0.1-0.4,0.3-0.7,0.4-1.1
				c1.5,0.6,3.1,1.2,4.6,1.8c-0.7,1.7-1.4,3.3-2,5c-1.5-0.6-2.9-1.2-4.4-1.7c0-1.6-0.7-2.7-2.1-3.2c-1-0.4-1.6-0.2-1.9,0.6
				c-0.1,0.4-0.1,0.7,0.1,1c0.2,0.3,0.9,1,2.1,2.2c1.6,1.6,2.6,2.7,3.1,3.4c0.2,0.3,0.5,0.7,0.7,1.2c0.2,0.5,0.3,1,0.4,1.4
				c0.2,1,0,2-0.3,3c-0.6,1.5-1.7,2.5-3.3,3c-1.6,0.6-3.2,0.5-4.9-0.1c-1.6-0.6-2.9-1.6-3.9-3C146.2,129.4,146.1,129.8,146,130.2z"
				/>
		</g>
		<g>
			<path fill="none" stroke="#000000" d="M32.2,129.9c-3.7,1.3-7.5,2.7-11.1,4.2c-0.6-1.4-1.2-2.8-1.7-4.2c0.7-0.3,1.3-0.5,2-0.8
				c-1.2-3-2.4-6.1-3.7-9.1c-0.7,0.3-1.4,0.6-2.1,0.9c-0.6-1.4-1.2-2.8-1.7-4.2c6.6-2.7,13.3-5.1,20.1-7.1c0.6,2,1.2,4,1.7,6
				c-1.8,0.5-3.5,1.1-5.3,1.6c-0.2-0.5-0.3-1.1-0.5-1.6c-1.5,0.5-3,1-4.5,1.5c0.3,0.9,0.6,1.8,1,2.7c1.1-0.4,2.3-0.8,3.4-1.2
				c0.4,1.2,0.8,2.4,1.2,3.6c-1.1,0.4-2.2,0.7-3.3,1.1c0.3,1,0.7,1.9,1,2.9c0.7-0.3,1.5-0.5,2.2-0.8C31.2,127,31.7,128.5,32.2,129.9
				z"/>
			<path fill="none" stroke="#000000" d="M38.3,116.6c-0.4,0.1-0.8,0.2-1.2,0.3c-0.3-1.1-0.6-2.2-0.9-3.3c2.6-0.7,5.3-1.4,7.9-2.1
				c0.3,1.1,0.5,2.2,0.8,3.3c-0.2,0.1-0.5,0.1-0.7,0.2c0.4,1.6,0.8,3.1,1.1,4.7c0.3,1.1,0.6,1.9,0.9,2.2c0.3,0.3,0.8,0.5,1.3,0.3
				c0.5-0.1,0.8-0.4,0.9-0.8c0.1-0.4,0.1-1.1-0.1-2.1c-0.4-1.7-0.8-3.4-1.1-5c-0.3,0.1-0.5,0.1-0.8,0.2c-0.3-1.1-0.5-2.2-0.8-3.3
				c1.9-0.4,3.9-0.9,5.8-1.3c0.2,1.1,0.4,2.2,0.7,3.4c-0.4,0.1-0.8,0.2-1.2,0.2c0.3,1.7,0.7,3.4,1,5.1c0.3,1.3,0.3,2.4,0.1,3.3
				c-0.2,0.9-0.7,1.7-1.5,2.3c-0.8,0.7-1.8,1.1-3.1,1.5c-1,0.3-2,0.4-2.9,0.3c-0.9,0-1.6-0.2-2.2-0.6c-0.6-0.4-1.1-0.8-1.5-1.5
				c-0.4-0.6-0.8-1.6-1.2-3C39.1,119.6,38.7,118.1,38.3,116.6z"/>
			<path fill="none" stroke="#000000" d="M66.2,117.1c-0.5,0.1-1,0.1-1.5,0.2c-0.1-0.9-0.2-1.8-0.4-2.7c2.3-0.3,4.5-0.6,6.8-0.8
				c0.1,1.6,0.1,2.7,0,3.5c-0.2,0.8-0.5,1.5-1.2,2.4c-0.6,0.8-1.4,1.4-2.3,1.9c-0.9,0.5-1.9,0.8-3,0.9c-1.6,0.2-3.2,0.2-4.6-0.1
				c-1.4-0.3-2.6-1-3.6-2c-1-1-1.6-2.3-1.9-3.7c-0.4-2.2,0-4.1,1.4-5.7c1.3-1.6,3.2-2.6,5.5-3c1.9-0.3,3.5,0,4.7,0.7
				c0-0.3-0.1-0.7-0.1-1c1.3-0.1,2.5-0.3,3.8-0.4c0.2,1.7,0.3,3.3,0.5,5c-1.2,0.1-2.5,0.3-3.7,0.4c-0.4-0.6-0.9-1-1.4-1.2
				c-0.6-0.2-1.2-0.3-1.9-0.2c-1,0.1-1.7,0.5-2,1.2c-0.4,0.7-0.4,1.8-0.2,3.3c0.2,1.6,0.6,2.6,1.2,3.1c0.5,0.5,1.3,0.7,2.1,0.6
				C65.8,119.1,66.4,118.4,66.2,117.1z"/>
			<path fill="none" stroke="#000000" d="M82,120.8c-2.8,0.1-5.6,0.3-8.3,0.5c-0.1-1.1-0.2-2.3-0.3-3.4c0.5,0,0.9-0.1,1.4-0.1
				c-0.2-2.5-0.4-5-0.6-7.4c-0.5,0-1,0.1-1.4,0.1c-0.1-1.1-0.2-2.3-0.3-3.4c3-0.3,6-0.4,9-0.6c0,1.1,0.1,2.3,0.1,3.4
				c-0.5,0-0.9,0-1.4,0.1c0.1,2.5,0.2,5,0.3,7.5c0.5,0,0.9,0,1.4-0.1C81.9,118.5,82,119.6,82,120.8z"/>
			<path fill="none" stroke="#000000" d="M95,120.7c-2.7-0.1-5.5-0.1-8.2-0.1c0-1.1,0-2.3,0-3.4c0.4,0,0.9,0,1.3,0c0-2.5,0-5,0-7.5
				c-0.6,0-1.2,0-1.8,0c0,0.9,0,1.7,0,2.6c-1,0-1.9,0-2.9,0.1c-0.1-2-0.1-4-0.2-6c5.2-0.1,10.5-0.1,15.7,0.2c-0.1,2-0.2,4-0.3,6
				c-1-0.1-1.9-0.1-2.9-0.1c0-0.9,0.1-1.7,0.1-2.6c-0.6,0-1.2,0-1.8-0.1c-0.1,2.5-0.1,5-0.2,7.5c0.4,0,0.9,0,1.3,0
				C95.1,118.5,95,119.6,95,120.7z"/>
			<path fill="none" stroke="#000000" d="M108,121.7c-2.8-0.3-5.5-0.5-8.3-0.7c0.1-1.1,0.1-2.3,0.2-3.4c0.5,0,0.9,0.1,1.4,0.1
				c0.2-2.5,0.3-5,0.5-7.4c-0.5,0-1-0.1-1.4-0.1c0.1-1.1,0.1-2.3,0.2-3.4c3,0.2,6,0.4,9,0.8c-0.1,1.1-0.2,2.3-0.4,3.4
				c-0.5-0.1-0.9-0.1-1.4-0.1c-0.3,2.5-0.5,5-0.8,7.4c0.5,0,0.9,0.1,1.4,0.1C108.3,119.4,108.1,120.6,108,121.7z"/>
			<path fill="none" stroke="#000000" d="M119.2,123.4c-1.5-0.3-3-0.5-4.5-0.7c-1-3.9-2.1-7.7-3.3-11.6c-0.4,0-0.8-0.1-1.1-0.1
				c0.1-1.1,0.3-2.3,0.4-3.4c2.8,0.3,5.6,0.7,8.4,1.2c-0.2,1.1-0.4,2.3-0.5,3.4c-0.4-0.1-0.9-0.1-1.3-0.2c0.5,2.1,0.9,4.3,1.3,6.4
				c1.1-1.9,2.2-3.7,3.4-5.6c-0.4-0.1-0.8-0.1-1.3-0.2c0.2-1.1,0.4-2.3,0.6-3.4c2.1,0.4,4.2,0.8,6.3,1.2c-0.2,1.1-0.5,2.2-0.7,3.4
				c-0.4-0.1-0.8-0.2-1.1-0.2C123.4,116.7,121.3,120,119.2,123.4z"/>
			<path fill="none" stroke="#000000" d="M139.4,128c-4.5-1.3-9-2.5-13.6-3.5c0.2-1.1,0.5-2.2,0.7-3.4c0.4,0.1,0.8,0.2,1.1,0.2
				c0.5-2.4,1.1-4.9,1.6-7.3c-0.4-0.1-0.8-0.2-1.2-0.3c0.2-1.1,0.5-2.2,0.7-3.4c5,1.1,9.9,2.3,14.7,3.8c-0.4,1.5-0.9,2.9-1.3,4.4
				c-1.3-0.4-2.6-0.8-3.9-1.1c0.1-0.4,0.2-0.7,0.3-1.1c-1.1-0.3-2.3-0.6-3.4-0.9c-0.2,0.7-0.4,1.4-0.5,2.1c1,0.3,2,0.5,3,0.8
				c-0.3,0.9-0.5,1.9-0.8,2.8c-1-0.3-1.9-0.5-2.9-0.8c-0.2,0.8-0.4,1.5-0.6,2.3c1.1,0.3,2.2,0.6,3.3,0.9c0.1-0.4,0.2-0.7,0.3-1.1
				c1.3,0.4,2.6,0.7,3.8,1.1C140.2,125.1,139.8,126.6,139.4,128z"/>
			<path fill="none" stroke="#000000" d="M146,130.2c-1.4-0.5-2.8-0.9-4.2-1.4c0.6-1.9,1.2-3.9,1.8-5.8c1.4,0.5,2.9,0.9,4.3,1.4
				c0,1.7,0.7,2.8,2.1,3.3c1,0.4,1.7,0.2,1.9-0.6c0.1-0.4,0.1-0.8-0.2-1.2c-0.3-0.4-0.9-1.1-2-2.1c-1.3-1.2-2.3-2.2-2.9-2.9
				c-0.6-0.7-1-1.5-1.2-2.4c-0.3-0.9-0.2-1.9,0-2.8c0.5-1.7,1.5-2.8,3.1-3.3c1.5-0.5,3.2-0.5,5,0.1c1.8,0.6,3.1,1.6,4,3
				c0.1-0.4,0.3-0.7,0.4-1.1c1.5,0.6,3.1,1.2,4.6,1.8c-0.7,1.7-1.4,3.3-2,5c-1.5-0.6-2.9-1.2-4.4-1.7c0-1.6-0.7-2.7-2.1-3.2
				c-1-0.4-1.6-0.2-1.9,0.6c-0.1,0.4-0.1,0.7,0.1,1c0.2,0.3,0.9,1,2.1,2.2c1.6,1.6,2.6,2.7,3.1,3.4c0.2,0.3,0.5,0.7,0.7,1.2
				c0.2,0.5,0.3,1,0.4,1.4c0.2,1,0,2-0.3,3c-0.6,1.5-1.7,2.5-3.3,3c-1.6,0.6-3.2,0.5-4.9-0.1c-1.6-0.6-2.9-1.6-3.9-3
				C146.2,129.4,146.1,129.8,146,130.2z"/>
		</g>
	</g>
	<g>
		<g>
			<path fill="#264C2C" d="M32.2,126.3c-3.7,1.3-7.5,2.7-11.1,4.2c-0.6-1.4-1.2-2.8-1.7-4.2c0.7-0.3,1.3-0.5,2-0.8
				c-1.2-3-2.4-6.1-3.7-9.1c-0.7,0.3-1.4,0.6-2.1,0.9c-0.6-1.4-1.2-2.8-1.7-4.2c6.6-2.7,13.3-5.1,20.1-7.1c0.6,2,1.2,4,1.7,6
				c-1.8,0.5-3.5,1.1-5.3,1.6c-0.2-0.5-0.3-1.1-0.5-1.6c-1.5,0.5-3,1-4.5,1.5c0.3,0.9,0.6,1.8,1,2.7c1.1-0.4,2.3-0.8,3.4-1.2
				c0.4,1.2,0.8,2.4,1.2,3.6c-1.1,0.4-2.2,0.7-3.3,1.1c0.3,1,0.7,1.9,1,2.9c0.7-0.3,1.5-0.5,2.2-0.8
				C31.2,123.4,31.7,124.9,32.2,126.3z"/>
			<path fill="#264C2C" d="M38.3,113c-0.4,0.1-0.8,0.2-1.2,0.3c-0.3-1.1-0.6-2.2-0.9-3.3c2.6-0.7,5.3-1.4,7.9-2.1
				c0.3,1.1,0.5,2.2,0.8,3.3c-0.2,0.1-0.5,0.1-0.7,0.2c0.4,1.6,0.8,3.1,1.1,4.7c0.3,1.1,0.6,1.9,0.9,2.2c0.3,0.3,0.8,0.5,1.3,0.3
				c0.5-0.1,0.8-0.4,0.9-0.8c0.1-0.4,0.1-1.1-0.1-2.1c-0.4-1.7-0.8-3.4-1.1-5c-0.3,0.1-0.5,0.1-0.8,0.2c-0.3-1.1-0.5-2.2-0.8-3.3
				c1.9-0.4,3.9-0.9,5.8-1.3c0.2,1.1,0.4,2.2,0.7,3.4c-0.4,0.1-0.8,0.2-1.2,0.2c0.3,1.7,0.7,3.4,1,5.1c0.3,1.3,0.3,2.4,0.1,3.3
				c-0.2,0.9-0.7,1.7-1.5,2.3c-0.8,0.7-1.8,1.1-3.1,1.5c-1,0.3-2,0.4-2.9,0.3c-0.9,0-1.6-0.2-2.2-0.6c-0.6-0.4-1.1-0.8-1.5-1.5
				c-0.4-0.6-0.8-1.6-1.2-3C39.1,116,38.7,114.5,38.3,113z"/>
			<path fill="#264C2C" d="M66.2,113.5c-0.5,0.1-1,0.1-1.5,0.2c-0.1-0.9-0.2-1.8-0.4-2.7c2.3-0.3,4.5-0.6,6.8-0.8
				c0.1,1.6,0.1,2.7,0,3.5c-0.2,0.8-0.5,1.5-1.2,2.4c-0.6,0.8-1.4,1.4-2.3,1.9c-0.9,0.5-1.9,0.8-3,0.9c-1.6,0.2-3.2,0.2-4.6-0.1
				c-1.4-0.3-2.6-1-3.6-2c-1-1-1.6-2.3-1.9-3.7c-0.4-2.2,0-4.1,1.4-5.7c1.3-1.6,3.2-2.6,5.5-3c1.9-0.3,3.5,0,4.7,0.7
				c0-0.3-0.1-0.7-0.1-1c1.3-0.1,2.5-0.3,3.8-0.4c0.2,1.7,0.3,3.3,0.5,5c-1.2,0.1-2.5,0.3-3.7,0.4c-0.4-0.6-0.9-1-1.4-1.2
				c-0.6-0.2-1.2-0.3-1.9-0.2c-1,0.1-1.7,0.5-2,1.2c-0.4,0.7-0.4,1.8-0.2,3.3c0.2,1.6,0.6,2.6,1.2,3.1c0.5,0.5,1.3,0.7,2.1,0.6
				C65.8,115.5,66.4,114.8,66.2,113.5z"/>
			<path fill="#264C2C" d="M82,117.2c-2.8,0.1-5.6,0.3-8.3,0.5c-0.1-1.1-0.2-2.3-0.3-3.4c0.5,0,0.9-0.1,1.4-0.1
				c-0.2-2.5-0.4-5-0.6-7.4c-0.5,0-1,0.1-1.4,0.1c-0.1-1.1-0.2-2.3-0.3-3.4c3-0.3,6-0.4,9-0.6c0,1.1,0.1,2.3,0.1,3.4
				c-0.5,0-0.9,0-1.4,0.1c0.1,2.5,0.2,5,0.3,7.5c0.5,0,0.9,0,1.4-0.1C81.9,114.9,82,116,82,117.2z"/>
			<path fill="#264C2C" d="M95,117.1c-2.7-0.1-5.5-0.1-8.2-0.1c0-1.1,0-2.3,0-3.4c0.4,0,0.9,0,1.3,0c0-2.5,0-5,0-7.5
				c-0.6,0-1.2,0-1.8,0c0,0.9,0,1.7,0,2.6c-1,0-1.9,0-2.9,0.1c-0.1-2-0.1-4-0.2-6c5.2-0.1,10.5-0.1,15.7,0.2c-0.1,2-0.2,4-0.3,6
				c-1-0.1-1.9-0.1-2.9-0.1c0-0.9,0.1-1.7,0.1-2.6c-0.6,0-1.2,0-1.8-0.1c-0.1,2.5-0.1,5-0.2,7.5c0.4,0,0.9,0,1.3,0
				C95.1,114.9,95,116,95,117.1z"/>
			<path fill="#264C2C" d="M108,118.1c-2.8-0.3-5.5-0.5-8.3-0.7c0.1-1.1,0.1-2.3,0.2-3.4c0.5,0,0.9,0.1,1.4,0.1
				c0.2-2.5,0.3-5,0.5-7.4c-0.5,0-1-0.1-1.4-0.1c0.1-1.1,0.1-2.3,0.2-3.4c3,0.2,6,0.4,9,0.8c-0.1,1.1-0.2,2.3-0.4,3.4
				c-0.5-0.1-0.9-0.1-1.4-0.1c-0.3,2.5-0.5,5-0.8,7.4c0.5,0,0.9,0.1,1.4,0.1C108.3,115.8,108.1,117,108,118.1z"/>
			<path fill="#264C2C" d="M119.2,119.8c-1.5-0.3-3-0.5-4.5-0.7c-1-3.9-2.1-7.7-3.3-11.6c-0.4,0-0.8-0.1-1.1-0.1
				c0.1-1.1,0.3-2.3,0.4-3.4c2.8,0.3,5.6,0.7,8.4,1.2c-0.2,1.1-0.4,2.3-0.5,3.4c-0.4-0.1-0.9-0.1-1.3-0.2c0.5,2.1,0.9,4.3,1.3,6.4
				c1.1-1.9,2.2-3.7,3.4-5.6c-0.4-0.1-0.8-0.1-1.3-0.2c0.2-1.1,0.4-2.3,0.6-3.4c2.1,0.4,4.2,0.8,6.3,1.2c-0.2,1.1-0.5,2.2-0.7,3.4
				c-0.4-0.1-0.8-0.2-1.1-0.2C123.4,113.1,121.3,116.4,119.2,119.8z"/>
			<path fill="#264C2C" d="M139.4,124.4c-4.5-1.3-9-2.5-13.6-3.5c0.2-1.1,0.5-2.2,0.7-3.4c0.4,0.1,0.8,0.2,1.1,0.2
				c0.5-2.4,1.1-4.9,1.6-7.3c-0.4-0.1-0.8-0.2-1.2-0.3c0.2-1.1,0.5-2.2,0.7-3.4c5,1.1,9.9,2.3,14.7,3.8c-0.4,1.5-0.9,2.9-1.3,4.4
				c-1.3-0.4-2.6-0.8-3.9-1.1c0.1-0.4,0.2-0.7,0.3-1.1c-1.1-0.3-2.3-0.6-3.4-0.9c-0.2,0.7-0.4,1.4-0.5,2.1c1,0.3,2,0.5,3,0.8
				c-0.3,0.9-0.5,1.9-0.8,2.8c-1-0.3-1.9-0.5-2.9-0.8c-0.2,0.8-0.4,1.5-0.6,2.3c1.1,0.3,2.2,0.6,3.3,0.9c0.1-0.4,0.2-0.7,0.3-1.1
				c1.3,0.4,2.6,0.7,3.8,1.1C140.2,121.5,139.8,123,139.4,124.4z"/>
			<path fill="#264C2C" d="M146,126.6c-1.4-0.5-2.8-0.9-4.2-1.4c0.6-1.9,1.2-3.9,1.8-5.8c1.4,0.5,2.9,0.9,4.3,1.4
				c0,1.7,0.7,2.8,2.1,3.3c1,0.4,1.7,0.2,1.9-0.6c0.1-0.4,0.1-0.8-0.2-1.2c-0.3-0.4-0.9-1.1-2-2.1c-1.3-1.2-2.3-2.2-2.9-2.9
				c-0.6-0.7-1-1.5-1.2-2.4c-0.3-0.9-0.2-1.9,0-2.8c0.5-1.7,1.5-2.8,3.1-3.3c1.5-0.5,3.2-0.5,5,0.1c1.8,0.6,3.1,1.6,4,3
				c0.1-0.4,0.3-0.7,0.4-1.1c1.5,0.6,3.1,1.2,4.6,1.8c-0.7,1.7-1.4,3.3-2,5c-1.5-0.6-2.9-1.2-4.4-1.7c0-1.6-0.7-2.7-2.1-3.2
				c-1-0.4-1.6-0.2-1.9,0.6c-0.1,0.4-0.1,0.7,0.1,1c0.2,0.3,0.9,1,2.1,2.2c1.6,1.6,2.6,2.7,3.1,3.4c0.2,0.3,0.5,0.7,0.7,1.2
				c0.2,0.5,0.3,1,0.4,1.4c0.2,1,0,2-0.3,3c-0.6,1.5-1.7,2.5-3.3,3c-1.6,0.6-3.2,0.5-4.9-0.1c-1.6-0.6-2.9-1.6-3.9-3
				C146.2,125.8,146.1,126.2,146,126.6z"/>
		</g>
		<g>
			<path fill="none" stroke="#000000" stroke-width="5" d="M32.2,126.3c-3.7,1.3-7.5,2.7-11.1,4.2c-0.6-1.4-1.2-2.8-1.7-4.2
				c0.7-0.3,1.3-0.5,2-0.8c-1.2-3-2.4-6.1-3.7-9.1c-0.7,0.3-1.4,0.6-2.1,0.9c-0.6-1.4-1.2-2.8-1.7-4.2c6.6-2.7,13.3-5.1,20.1-7.1
				c0.6,2,1.2,4,1.7,6c-1.8,0.5-3.5,1.1-5.3,1.6c-0.2-0.5-0.3-1.1-0.5-1.6c-1.5,0.5-3,1-4.5,1.5c0.3,0.9,0.6,1.8,1,2.7
				c1.1-0.4,2.3-0.8,3.4-1.2c0.4,1.2,0.8,2.4,1.2,3.6c-1.1,0.4-2.2,0.7-3.3,1.1c0.3,1,0.7,1.9,1,2.9c0.7-0.3,1.5-0.5,2.2-0.8
				C31.2,123.4,31.7,124.9,32.2,126.3z"/>
			<path fill="none" stroke="#000000" stroke-width="5" d="M38.3,113c-0.4,0.1-0.8,0.2-1.2,0.3c-0.3-1.1-0.6-2.2-0.9-3.3
				c2.6-0.7,5.3-1.4,7.9-2.1c0.3,1.1,0.5,2.2,0.8,3.3c-0.2,0.1-0.5,0.1-0.7,0.2c0.4,1.6,0.8,3.1,1.1,4.7c0.3,1.1,0.6,1.9,0.9,2.2
				c0.3,0.3,0.8,0.5,1.3,0.3c0.5-0.1,0.8-0.4,0.9-0.8c0.1-0.4,0.1-1.1-0.1-2.1c-0.4-1.7-0.8-3.4-1.1-5c-0.3,0.1-0.5,0.1-0.8,0.2
				c-0.3-1.1-0.5-2.2-0.8-3.3c1.9-0.4,3.9-0.9,5.8-1.3c0.2,1.1,0.4,2.2,0.7,3.4c-0.4,0.1-0.8,0.2-1.2,0.2c0.3,1.7,0.7,3.4,1,5.1
				c0.3,1.3,0.3,2.4,0.1,3.3c-0.2,0.9-0.7,1.7-1.5,2.3c-0.8,0.7-1.8,1.1-3.1,1.5c-1,0.3-2,0.4-2.9,0.3c-0.9,0-1.6-0.2-2.2-0.6
				c-0.6-0.4-1.1-0.8-1.5-1.5c-0.4-0.6-0.8-1.6-1.2-3C39.1,116,38.7,114.5,38.3,113z"/>
			<path fill="none" stroke="#000000" stroke-width="5" d="M66.2,113.5c-0.5,0.1-1,0.1-1.5,0.2c-0.1-0.9-0.2-1.8-0.4-2.7
				c2.3-0.3,4.5-0.6,6.8-0.8c0.1,1.6,0.1,2.7,0,3.5c-0.2,0.8-0.5,1.5-1.2,2.4c-0.6,0.8-1.4,1.4-2.3,1.9c-0.9,0.5-1.9,0.8-3,0.9
				c-1.6,0.2-3.2,0.2-4.6-0.1c-1.4-0.3-2.6-1-3.6-2c-1-1-1.6-2.3-1.9-3.7c-0.4-2.2,0-4.1,1.4-5.7c1.3-1.6,3.2-2.6,5.5-3
				c1.9-0.3,3.5,0,4.7,0.7c0-0.3-0.1-0.7-0.1-1c1.3-0.1,2.5-0.3,3.8-0.4c0.2,1.7,0.3,3.3,0.5,5c-1.2,0.1-2.5,0.3-3.7,0.4
				c-0.4-0.6-0.9-1-1.4-1.2c-0.6-0.2-1.2-0.3-1.9-0.2c-1,0.1-1.7,0.5-2,1.2c-0.4,0.7-0.4,1.8-0.2,3.3c0.2,1.6,0.6,2.6,1.2,3.1
				c0.5,0.5,1.3,0.7,2.1,0.6C65.8,115.5,66.4,114.8,66.2,113.5z"/>
			<path fill="none" stroke="#000000" stroke-width="5" d="M82,117.2c-2.8,0.1-5.6,0.3-8.3,0.5c-0.1-1.1-0.2-2.3-0.3-3.4
				c0.5,0,0.9-0.1,1.4-0.1c-0.2-2.5-0.4-5-0.6-7.4c-0.5,0-1,0.1-1.4,0.1c-0.1-1.1-0.2-2.3-0.3-3.4c3-0.3,6-0.4,9-0.6
				c0,1.1,0.1,2.3,0.1,3.4c-0.5,0-0.9,0-1.4,0.1c0.1,2.5,0.2,5,0.3,7.5c0.5,0,0.9,0,1.4-0.1C81.9,114.9,82,116,82,117.2z"/>
			<path fill="none" stroke="#000000" stroke-width="5" d="M95,117.1c-2.7-0.1-5.5-0.1-8.2-0.1c0-1.1,0-2.3,0-3.4c0.4,0,0.9,0,1.3,0
				c0-2.5,0-5,0-7.5c-0.6,0-1.2,0-1.8,0c0,0.9,0,1.7,0,2.6c-1,0-1.9,0-2.9,0.1c-0.1-2-0.1-4-0.2-6c5.2-0.1,10.5-0.1,15.7,0.2
				c-0.1,2-0.2,4-0.3,6c-1-0.1-1.9-0.1-2.9-0.1c0-0.9,0.1-1.7,0.1-2.6c-0.6,0-1.2,0-1.8-0.1c-0.1,2.5-0.1,5-0.2,7.5
				c0.4,0,0.9,0,1.3,0C95.1,114.9,95,116,95,117.1z"/>
			<path fill="none" stroke="#000000" stroke-width="5" d="M108,118.1c-2.8-0.3-5.5-0.5-8.3-0.7c0.1-1.1,0.1-2.3,0.2-3.4
				c0.5,0,0.9,0.1,1.4,0.1c0.2-2.5,0.3-5,0.5-7.4c-0.5,0-1-0.1-1.4-0.1c0.1-1.1,0.1-2.3,0.2-3.4c3,0.2,6,0.4,9,0.8
				c-0.1,1.1-0.2,2.3-0.4,3.4c-0.5-0.1-0.9-0.1-1.4-0.1c-0.3,2.5-0.5,5-0.8,7.4c0.5,0,0.9,0.1,1.4,0.1
				C108.3,115.8,108.1,117,108,118.1z"/>
			<path fill="none" stroke="#000000" stroke-width="5" d="M119.2,119.8c-1.5-0.3-3-0.5-4.5-0.7c-1-3.9-2.1-7.7-3.3-11.6
				c-0.4,0-0.8-0.1-1.1-0.1c0.1-1.1,0.3-2.3,0.4-3.4c2.8,0.3,5.6,0.7,8.4,1.2c-0.2,1.1-0.4,2.3-0.5,3.4c-0.4-0.1-0.9-0.1-1.3-0.2
				c0.5,2.1,0.9,4.3,1.3,6.4c1.1-1.9,2.2-3.7,3.4-5.6c-0.4-0.1-0.8-0.1-1.3-0.2c0.2-1.1,0.4-2.3,0.6-3.4c2.1,0.4,4.2,0.8,6.3,1.2
				c-0.2,1.1-0.5,2.2-0.7,3.4c-0.4-0.1-0.8-0.2-1.1-0.2C123.4,113.1,121.3,116.4,119.2,119.8z"/>
			<path fill="none" stroke="#000000" stroke-width="5" d="M139.4,124.4c-4.5-1.3-9-2.5-13.6-3.5c0.2-1.1,0.5-2.2,0.7-3.4
				c0.4,0.1,0.8,0.2,1.1,0.2c0.5-2.4,1.1-4.9,1.6-7.3c-0.4-0.1-0.8-0.2-1.2-0.3c0.2-1.1,0.5-2.2,0.7-3.4c5,1.1,9.9,2.3,14.7,3.8
				c-0.4,1.5-0.9,2.9-1.3,4.4c-1.3-0.4-2.6-0.8-3.9-1.1c0.1-0.4,0.2-0.7,0.3-1.1c-1.1-0.3-2.3-0.6-3.4-0.9c-0.2,0.7-0.4,1.4-0.5,2.1
				c1,0.3,2,0.5,3,0.8c-0.3,0.9-0.5,1.9-0.8,2.8c-1-0.3-1.9-0.5-2.9-0.8c-0.2,0.8-0.4,1.5-0.6,2.3c1.1,0.3,2.2,0.6,3.3,0.9
				c0.1-0.4,0.2-0.7,0.3-1.1c1.3,0.4,2.6,0.7,3.8,1.1C140.2,121.5,139.8,123,139.4,124.4z"/>
			<path fill="none" stroke="#000000" stroke-width="5" d="M146,126.6c-1.4-0.5-2.8-0.9-4.2-1.4c0.6-1.9,1.2-3.9,1.8-5.8
				c1.4,0.5,2.9,0.9,4.3,1.4c0,1.7,0.7,2.8,2.1,3.3c1,0.4,1.7,0.2,1.9-0.6c0.1-0.4,0.1-0.8-0.2-1.2c-0.3-0.4-0.9-1.1-2-2.1
				c-1.3-1.2-2.3-2.2-2.9-2.9c-0.6-0.7-1-1.5-1.2-2.4c-0.3-0.9-0.2-1.9,0-2.8c0.5-1.7,1.5-2.8,3.1-3.3c1.5-0.5,3.2-0.5,5,0.1
				c1.8,0.6,3.1,1.6,4,3c0.1-0.4,0.3-0.7,0.4-1.1c1.5,0.6,3.1,1.2,4.6,1.8c-0.7,1.7-1.4,3.3-2,5c-1.5-0.6-2.9-1.2-4.4-1.7
				c0-1.6-0.7-2.7-2.1-3.2c-1-0.4-1.6-0.2-1.9,0.6c-0.1,0.4-0.1,0.7,0.1,1c0.2,0.3,0.9,1,2.1,2.2c1.6,1.6,2.6,2.7,3.1,3.4
				c0.2,0.3,0.5,0.7,0.7,1.2c0.2,0.5,0.3,1,0.4,1.4c0.2,1,0,2-0.3,3c-0.6,1.5-1.7,2.5-3.3,3c-1.6,0.6-3.2,0.5-4.9-0.1
				c-1.6-0.6-2.9-1.6-3.9-3C146.2,125.8,146.1,126.2,146,126.6z"/>
		</g>
		<g>
			<path fill="#264C2C" d="M32.2,126.3c-3.7,1.3-7.5,2.7-11.1,4.2c-0.6-1.4-1.2-2.8-1.7-4.2c0.7-0.3,1.3-0.5,2-0.8
				c-1.2-3-2.4-6.1-3.7-9.1c-0.7,0.3-1.4,0.6-2.1,0.9c-0.6-1.4-1.2-2.8-1.7-4.2c6.6-2.7,13.3-5.1,20.1-7.1c0.6,2,1.2,4,1.7,6
				c-1.8,0.5-3.5,1.1-5.3,1.6c-0.2-0.5-0.3-1.1-0.5-1.6c-1.5,0.5-3,1-4.5,1.5c0.3,0.9,0.6,1.8,1,2.7c1.1-0.4,2.3-0.8,3.4-1.2
				c0.4,1.2,0.8,2.4,1.2,3.6c-1.1,0.4-2.2,0.7-3.3,1.1c0.3,1,0.7,1.9,1,2.9c0.7-0.3,1.5-0.5,2.2-0.8
				C31.2,123.4,31.7,124.9,32.2,126.3z"/>
			<path fill="#264C2C" d="M38.3,113c-0.4,0.1-0.8,0.2-1.2,0.3c-0.3-1.1-0.6-2.2-0.9-3.3c2.6-0.7,5.3-1.4,7.9-2.1
				c0.3,1.1,0.5,2.2,0.8,3.3c-0.2,0.1-0.5,0.1-0.7,0.2c0.4,1.6,0.8,3.1,1.1,4.7c0.3,1.1,0.6,1.9,0.9,2.2c0.3,0.3,0.8,0.5,1.3,0.3
				c0.5-0.1,0.8-0.4,0.9-0.8c0.1-0.4,0.1-1.1-0.1-2.1c-0.4-1.7-0.8-3.4-1.1-5c-0.3,0.1-0.5,0.1-0.8,0.2c-0.3-1.1-0.5-2.2-0.8-3.3
				c1.9-0.4,3.9-0.9,5.8-1.3c0.2,1.1,0.4,2.2,0.7,3.4c-0.4,0.1-0.8,0.2-1.2,0.2c0.3,1.7,0.7,3.4,1,5.1c0.3,1.3,0.3,2.4,0.1,3.3
				c-0.2,0.9-0.7,1.7-1.5,2.3c-0.8,0.7-1.8,1.1-3.1,1.5c-1,0.3-2,0.4-2.9,0.3c-0.9,0-1.6-0.2-2.2-0.6c-0.6-0.4-1.1-0.8-1.5-1.5
				c-0.4-0.6-0.8-1.6-1.2-3C39.1,116,38.7,114.5,38.3,113z"/>
			<path fill="#264C2C" d="M66.2,113.5c-0.5,0.1-1,0.1-1.5,0.2c-0.1-0.9-0.2-1.8-0.4-2.7c2.3-0.3,4.5-0.6,6.8-0.8
				c0.1,1.6,0.1,2.7,0,3.5c-0.2,0.8-0.5,1.5-1.2,2.4c-0.6,0.8-1.4,1.4-2.3,1.9c-0.9,0.5-1.9,0.8-3,0.9c-1.6,0.2-3.2,0.2-4.6-0.1
				c-1.4-0.3-2.6-1-3.6-2c-1-1-1.6-2.3-1.9-3.7c-0.4-2.2,0-4.1,1.4-5.7c1.3-1.6,3.2-2.6,5.5-3c1.9-0.3,3.5,0,4.7,0.7
				c0-0.3-0.1-0.7-0.1-1c1.3-0.1,2.5-0.3,3.8-0.4c0.2,1.7,0.3,3.3,0.5,5c-1.2,0.1-2.5,0.3-3.7,0.4c-0.4-0.6-0.9-1-1.4-1.2
				c-0.6-0.2-1.2-0.3-1.9-0.2c-1,0.1-1.7,0.5-2,1.2c-0.4,0.7-0.4,1.8-0.2,3.3c0.2,1.6,0.6,2.6,1.2,3.1c0.5,0.5,1.3,0.7,2.1,0.6
				C65.8,115.5,66.4,114.8,66.2,113.5z"/>
			<path fill="#264C2C" d="M82,117.2c-2.8,0.1-5.6,0.3-8.3,0.5c-0.1-1.1-0.2-2.3-0.3-3.4c0.5,0,0.9-0.1,1.4-0.1
				c-0.2-2.5-0.4-5-0.6-7.4c-0.5,0-1,0.1-1.4,0.1c-0.1-1.1-0.2-2.3-0.3-3.4c3-0.3,6-0.4,9-0.6c0,1.1,0.1,2.3,0.1,3.4
				c-0.5,0-0.9,0-1.4,0.1c0.1,2.5,0.2,5,0.3,7.5c0.5,0,0.9,0,1.4-0.1C81.9,114.9,82,116,82,117.2z"/>
			<path fill="#264C2C" d="M95,117.1c-2.7-0.1-5.5-0.1-8.2-0.1c0-1.1,0-2.3,0-3.4c0.4,0,0.9,0,1.3,0c0-2.5,0-5,0-7.5
				c-0.6,0-1.2,0-1.8,0c0,0.9,0,1.7,0,2.6c-1,0-1.9,0-2.9,0.1c-0.1-2-0.1-4-0.2-6c5.2-0.1,10.5-0.1,15.7,0.2c-0.1,2-0.2,4-0.3,6
				c-1-0.1-1.9-0.1-2.9-0.1c0-0.9,0.1-1.7,0.1-2.6c-0.6,0-1.2,0-1.8-0.1c-0.1,2.5-0.1,5-0.2,7.5c0.4,0,0.9,0,1.3,0
				C95.1,114.9,95,116,95,117.1z"/>
			<path fill="#264C2C" d="M108,118.1c-2.8-0.3-5.5-0.5-8.3-0.7c0.1-1.1,0.1-2.3,0.2-3.4c0.5,0,0.9,0.1,1.4,0.1
				c0.2-2.5,0.3-5,0.5-7.4c-0.5,0-1-0.1-1.4-0.1c0.1-1.1,0.1-2.3,0.2-3.4c3,0.2,6,0.4,9,0.8c-0.1,1.1-0.2,2.3-0.4,3.4
				c-0.5-0.1-0.9-0.1-1.4-0.1c-0.3,2.5-0.5,5-0.8,7.4c0.5,0,0.9,0.1,1.4,0.1C108.3,115.8,108.1,117,108,118.1z"/>
			<path fill="#264C2C" d="M119.2,119.8c-1.5-0.3-3-0.5-4.5-0.7c-1-3.9-2.1-7.7-3.3-11.6c-0.4,0-0.8-0.1-1.1-0.1
				c0.1-1.1,0.3-2.3,0.4-3.4c2.8,0.3,5.6,0.7,8.4,1.2c-0.2,1.1-0.4,2.3-0.5,3.4c-0.4-0.1-0.9-0.1-1.3-0.2c0.5,2.1,0.9,4.3,1.3,6.4
				c1.1-1.9,2.2-3.7,3.4-5.6c-0.4-0.1-0.8-0.1-1.3-0.2c0.2-1.1,0.4-2.3,0.6-3.4c2.1,0.4,4.2,0.8,6.3,1.2c-0.2,1.1-0.5,2.2-0.7,3.4
				c-0.4-0.1-0.8-0.2-1.1-0.2C123.4,113.1,121.3,116.4,119.2,119.8z"/>
			<path fill="#264C2C" d="M139.4,124.4c-4.5-1.3-9-2.5-13.6-3.5c0.2-1.1,0.5-2.2,0.7-3.4c0.4,0.1,0.8,0.2,1.1,0.2
				c0.5-2.4,1.1-4.9,1.6-7.3c-0.4-0.1-0.8-0.2-1.2-0.3c0.2-1.1,0.5-2.2,0.7-3.4c5,1.1,9.9,2.3,14.7,3.8c-0.4,1.5-0.9,2.9-1.3,4.4
				c-1.3-0.4-2.6-0.8-3.9-1.1c0.1-0.4,0.2-0.7,0.3-1.1c-1.1-0.3-2.3-0.6-3.4-0.9c-0.2,0.7-0.4,1.4-0.5,2.1c1,0.3,2,0.5,3,0.8
				c-0.3,0.9-0.5,1.9-0.8,2.8c-1-0.3-1.9-0.5-2.9-0.8c-0.2,0.8-0.4,1.5-0.6,2.3c1.1,0.3,2.2,0.6,3.3,0.9c0.1-0.4,0.2-0.7,0.3-1.1
				c1.3,0.4,2.6,0.7,3.8,1.1C140.2,121.5,139.8,123,139.4,124.4z"/>
			<path fill="#264C2C" d="M146,126.6c-1.4-0.5-2.8-0.9-4.2-1.4c0.6-1.9,1.2-3.9,1.8-5.8c1.4,0.5,2.9,0.9,4.3,1.4
				c0,1.7,0.7,2.8,2.1,3.3c1,0.4,1.7,0.2,1.9-0.6c0.1-0.4,0.1-0.8-0.2-1.2c-0.3-0.4-0.9-1.1-2-2.1c-1.3-1.2-2.3-2.2-2.9-2.9
				c-0.6-0.7-1-1.5-1.2-2.4c-0.3-0.9-0.2-1.9,0-2.8c0.5-1.7,1.5-2.8,3.1-3.3c1.5-0.5,3.2-0.5,5,0.1c1.8,0.6,3.1,1.6,4,3
				c0.1-0.4,0.3-0.7,0.4-1.1c1.5,0.6,3.1,1.2,4.6,1.8c-0.7,1.7-1.4,3.3-2,5c-1.5-0.6-2.9-1.2-4.4-1.7c0-1.6-0.7-2.7-2.1-3.2
				c-1-0.4-1.6-0.2-1.9,0.6c-0.1,0.4-0.1,0.7,0.1,1c0.2,0.3,0.9,1,2.1,2.2c1.6,1.6,2.6,2.7,3.1,3.4c0.2,0.3,0.5,0.7,0.7,1.2
				c0.2,0.5,0.3,1,0.4,1.4c0.2,1,0,2-0.3,3c-0.6,1.5-1.7,2.5-3.3,3c-1.6,0.6-3.2,0.5-4.9-0.1c-1.6-0.6-2.9-1.6-3.9-3
				C146.2,125.8,146.1,126.2,146,126.6z"/>
		</g>
		<g>
			<path fill="none" stroke="#FFFFFF" d="M32.2,126.3c-3.7,1.3-7.5,2.7-11.1,4.2c-0.6-1.4-1.2-2.8-1.7-4.2c0.7-0.3,1.3-0.5,2-0.8
				c-1.2-3-2.4-6.1-3.7-9.1c-0.7,0.3-1.4,0.6-2.1,0.9c-0.6-1.4-1.2-2.8-1.7-4.2c6.6-2.7,13.3-5.1,20.1-7.1c0.6,2,1.2,4,1.7,6
				c-1.8,0.5-3.5,1.1-5.3,1.6c-0.2-0.5-0.3-1.1-0.5-1.6c-1.5,0.5-3,1-4.5,1.5c0.3,0.9,0.6,1.8,1,2.7c1.1-0.4,2.3-0.8,3.4-1.2
				c0.4,1.2,0.8,2.4,1.2,3.6c-1.1,0.4-2.2,0.7-3.3,1.1c0.3,1,0.7,1.9,1,2.9c0.7-0.3,1.5-0.5,2.2-0.8
				C31.2,123.4,31.7,124.9,32.2,126.3z"/>
			<path fill="none" stroke="#FFFFFF" d="M38.3,113c-0.4,0.1-0.8,0.2-1.2,0.3c-0.3-1.1-0.6-2.2-0.9-3.3c2.6-0.7,5.3-1.4,7.9-2.1
				c0.3,1.1,0.5,2.2,0.8,3.3c-0.2,0.1-0.5,0.1-0.7,0.2c0.4,1.6,0.8,3.1,1.1,4.7c0.3,1.1,0.6,1.9,0.9,2.2c0.3,0.3,0.8,0.5,1.3,0.3
				c0.5-0.1,0.8-0.4,0.9-0.8c0.1-0.4,0.1-1.1-0.1-2.1c-0.4-1.7-0.8-3.4-1.1-5c-0.3,0.1-0.5,0.1-0.8,0.2c-0.3-1.1-0.5-2.2-0.8-3.3
				c1.9-0.4,3.9-0.9,5.8-1.3c0.2,1.1,0.4,2.2,0.7,3.4c-0.4,0.1-0.8,0.2-1.2,0.2c0.3,1.7,0.7,3.4,1,5.1c0.3,1.3,0.3,2.4,0.1,3.3
				c-0.2,0.9-0.7,1.7-1.5,2.3c-0.8,0.7-1.8,1.1-3.1,1.5c-1,0.3-2,0.4-2.9,0.3c-0.9,0-1.6-0.2-2.2-0.6c-0.6-0.4-1.1-0.8-1.5-1.5
				c-0.4-0.6-0.8-1.6-1.2-3C39.1,116,38.7,114.5,38.3,113z"/>
			<path fill="none" stroke="#FFFFFF" d="M66.2,113.5c-0.5,0.1-1,0.1-1.5,0.2c-0.1-0.9-0.2-1.8-0.4-2.7c2.3-0.3,4.5-0.6,6.8-0.8
				c0.1,1.6,0.1,2.7,0,3.5c-0.2,0.8-0.5,1.5-1.2,2.4c-0.6,0.8-1.4,1.4-2.3,1.9c-0.9,0.5-1.9,0.8-3,0.9c-1.6,0.2-3.2,0.2-4.6-0.1
				c-1.4-0.3-2.6-1-3.6-2c-1-1-1.6-2.3-1.9-3.7c-0.4-2.2,0-4.1,1.4-5.7c1.3-1.6,3.2-2.6,5.5-3c1.9-0.3,3.5,0,4.7,0.7
				c0-0.3-0.1-0.7-0.1-1c1.3-0.1,2.5-0.3,3.8-0.4c0.2,1.7,0.3,3.3,0.5,5c-1.2,0.1-2.5,0.3-3.7,0.4c-0.4-0.6-0.9-1-1.4-1.2
				c-0.6-0.2-1.2-0.3-1.9-0.2c-1,0.1-1.7,0.5-2,1.2c-0.4,0.7-0.4,1.8-0.2,3.3c0.2,1.6,0.6,2.6,1.2,3.1c0.5,0.5,1.3,0.7,2.1,0.6
				C65.8,115.5,66.4,114.8,66.2,113.5z"/>
			<path fill="none" stroke="#FFFFFF" d="M82,117.2c-2.8,0.1-5.6,0.3-8.3,0.5c-0.1-1.1-0.2-2.3-0.3-3.4c0.5,0,0.9-0.1,1.4-0.1
				c-0.2-2.5-0.4-5-0.6-7.4c-0.5,0-1,0.1-1.4,0.1c-0.1-1.1-0.2-2.3-0.3-3.4c3-0.3,6-0.4,9-0.6c0,1.1,0.1,2.3,0.1,3.4
				c-0.5,0-0.9,0-1.4,0.1c0.1,2.5,0.2,5,0.3,7.5c0.5,0,0.9,0,1.4-0.1C81.9,114.9,82,116,82,117.2z"/>
			<path fill="none" stroke="#FFFFFF" d="M95,117.1c-2.7-0.1-5.5-0.1-8.2-0.1c0-1.1,0-2.3,0-3.4c0.4,0,0.9,0,1.3,0c0-2.5,0-5,0-7.5
				c-0.6,0-1.2,0-1.8,0c0,0.9,0,1.7,0,2.6c-1,0-1.9,0-2.9,0.1c-0.1-2-0.1-4-0.2-6c5.2-0.1,10.5-0.1,15.7,0.2c-0.1,2-0.2,4-0.3,6
				c-1-0.1-1.9-0.1-2.9-0.1c0-0.9,0.1-1.7,0.1-2.6c-0.6,0-1.2,0-1.8-0.1c-0.1,2.5-0.1,5-0.2,7.5c0.4,0,0.9,0,1.3,0
				C95.1,114.9,95,116,95,117.1z"/>
			<path fill="none" stroke="#FFFFFF" d="M108,118.1c-2.8-0.3-5.5-0.5-8.3-0.7c0.1-1.1,0.1-2.3,0.2-3.4c0.5,0,0.9,0.1,1.4,0.1
				c0.2-2.5,0.3-5,0.5-7.4c-0.5,0-1-0.1-1.4-0.1c0.1-1.1,0.1-2.3,0.2-3.4c3,0.2,6,0.4,9,0.8c-0.1,1.1-0.2,2.3-0.4,3.4
				c-0.5-0.1-0.9-0.1-1.4-0.1c-0.3,2.5-0.5,5-0.8,7.4c0.5,0,0.9,0.1,1.4,0.1C108.3,115.8,108.1,117,108,118.1z"/>
			<path fill="none" stroke="#FFFFFF" d="M119.2,119.8c-1.5-0.3-3-0.5-4.5-0.7c-1-3.9-2.1-7.7-3.3-11.6c-0.4,0-0.8-0.1-1.1-0.1
				c0.1-1.1,0.3-2.3,0.4-3.4c2.8,0.3,5.6,0.7,8.4,1.2c-0.2,1.1-0.4,2.3-0.5,3.4c-0.4-0.1-0.9-0.1-1.3-0.2c0.5,2.1,0.9,4.3,1.3,6.4
				c1.1-1.9,2.2-3.7,3.4-5.6c-0.4-0.1-0.8-0.1-1.3-0.2c0.2-1.1,0.4-2.3,0.6-3.4c2.1,0.4,4.2,0.8,6.3,1.2c-0.2,1.1-0.5,2.2-0.7,3.4
				c-0.4-0.1-0.8-0.2-1.1-0.2C123.4,113.1,121.3,116.4,119.2,119.8z"/>
			<path fill="none" stroke="#FFFFFF" d="M139.4,124.4c-4.5-1.3-9-2.5-13.6-3.5c0.2-1.1,0.5-2.2,0.7-3.4c0.4,0.1,0.8,0.2,1.1,0.2
				c0.5-2.4,1.1-4.9,1.6-7.3c-0.4-0.1-0.8-0.2-1.2-0.3c0.2-1.1,0.5-2.2,0.7-3.4c5,1.1,9.9,2.3,14.7,3.8c-0.4,1.5-0.9,2.9-1.3,4.4
				c-1.3-0.4-2.6-0.8-3.9-1.1c0.1-0.4,0.2-0.7,0.3-1.1c-1.1-0.3-2.3-0.6-3.4-0.9c-0.2,0.7-0.4,1.4-0.5,2.1c1,0.3,2,0.5,3,0.8
				c-0.3,0.9-0.5,1.9-0.8,2.8c-1-0.3-1.9-0.5-2.9-0.8c-0.2,0.8-0.4,1.5-0.6,2.3c1.1,0.3,2.2,0.6,3.3,0.9c0.1-0.4,0.2-0.7,0.3-1.1
				c1.3,0.4,2.6,0.7,3.8,1.1C140.2,121.5,139.8,123,139.4,124.4z"/>
			<path fill="none" stroke="#FFFFFF" d="M146,126.6c-1.4-0.5-2.8-0.9-4.2-1.4c0.6-1.9,1.2-3.9,1.8-5.8c1.4,0.5,2.9,0.9,4.3,1.4
				c0,1.7,0.7,2.8,2.1,3.3c1,0.4,1.7,0.2,1.9-0.6c0.1-0.4,0.1-0.8-0.2-1.2c-0.3-0.4-0.9-1.1-2-2.1c-1.3-1.2-2.3-2.2-2.9-2.9
				c-0.6-0.7-1-1.5-1.2-2.4c-0.3-0.9-0.2-1.9,0-2.8c0.5-1.7,1.5-2.8,3.1-3.3c1.5-0.5,3.2-0.5,5,0.1c1.8,0.6,3.1,1.6,4,3
				c0.1-0.4,0.3-0.7,0.4-1.1c1.5,0.6,3.1,1.2,4.6,1.8c-0.7,1.7-1.4,3.3-2,5c-1.5-0.6-2.9-1.2-4.4-1.7c0-1.6-0.7-2.7-2.1-3.2
				c-1-0.4-1.6-0.2-1.9,0.6c-0.1,0.4-0.1,0.7,0.1,1c0.2,0.3,0.9,1,2.1,2.2c1.6,1.6,2.6,2.7,3.1,3.4c0.2,0.3,0.5,0.7,0.7,1.2
				c0.2,0.5,0.3,1,0.4,1.4c0.2,1,0,2-0.3,3c-0.6,1.5-1.7,2.5-3.3,3c-1.6,0.6-3.2,0.5-4.9-0.1c-1.6-0.6-2.9-1.6-3.9-3
				C146.2,125.8,146.1,126.2,146,126.6z"/>
		</g>
	</g>
</g>
</svg>
