<?xml version="1.0" encoding="utf-8"?>
<!-- Generator: Adobe Illustrator 18.1.1, SVG Export Plug-In . SVG Version: 6.00 Build 0)  -->
<svg version="1.1" id="Layer_1" xmlns="http://www.w3.org/2000/svg" xmlns:xlink="http://www.w3.org/1999/xlink" x="0px" y="0px"
	 viewBox="0 0 168 174.6" enable-background="new 0 0 168 174.6" xml:space="preserve">
<g>
	<g>
		<circle cx="76.9" cy="97.7" r="76.9"/>
	</g>
	<g>
		<circle fill="#FFFFFF" cx="76.3" cy="98.3" r="58.5"/>
	</g>
	<g>
		<circle fill="#BD342E" cx="76.3" cy="98" r="54.9"/>
	</g>
	<g>
		<g>
			<path d="M154.9,33.7c0,0-0.7-11.7-1.4-15.3c-0.7-3.6-4.2-13.3-6.2-15.5c-2-2.2-10.3-5.3-17,0c-6.7,5.3-15.9,18-17.8,20.1
				c0,0-1.2,4.1-7.4,2.5c-6.2-1.6-9.3-2.8-9.3-2.8l-22.6,17L57.2,51.4l9.3-0.8L45.8,70.8c0,0,1.2,0.2,2.1,0c0.8-0.2,2.6-0.7,2.4,0.1
				c-0.2,0.8-3.9,1.8-5.6,2.3c-1.7,0.5-6.6,1.8-9,5.2c-2.4,3.4-3.5,6.2-3,8c0.5,1.8,3.4,7.2,3.4,7.2l-4.9,2.9l2.2,1.5l-9.1,5.6
				l5.3,0.9l-7.7,5.6h7.5L2.5,145.3l41.4-21.2c0,0,1.2-0.1-0.3,1.7c-1.5,1.8-4.6,6.2-4.6,6.2l28.5-8.9c0,0,2.1-0.7,1.1,0.5
				c-1.1,1.2-13.9,22.6-13.9,22.6L85,126.2c0,0,1.8-1.3,1.3,0.5c-0.4,1.9-1,9.6-1,9.6l10.5-9.4l0.2,5.9l2.9-2.3l-6.5,15.7l17.9-10.5
				c0,0,0.7,3.7,1.3,3.8c0.6,0.2,23.7,7.9,29.2,21.6l3-10.7l0.2-16.6l-0.3-15.2l4.9-10.6l15.3,1.5l-9.1-9l9-0.1l-10.6-8.7
				c0,0-1.4-1.3,0.3-2.1c1.7-0.8,4.6-2.7,4.6-2.7l-2.2-1.9l5.5-1.6l-10.6-4.7c0,0-1.6-1.2-0.1-3.4c1.5-2.2,9.2-12.4,10.7-14.1
				c1.5-1.7,6.4-6.6,6.5-11.7c0.2-5.1-2.3-8.9-5.9-10.3C158.5,37.9,154.9,33.7,154.9,33.7z"/>
		</g>
		<g>
			<path fill="#908E8D" d="M83.6,62.3l-4.3,9.2l1.4,1.4l-5.9,3l-7.5-2.1l4.6-0.6l-1.6-2.6l5.1-1.8c0,0-3.5-1.1-4.2-1.7
				C71.3,67.2,78.9,68,83.6,62.3z"/>
		</g>
		<g>
			<path fill="#FFFFFF" d="M159.7,58.6c3.2-3.4,6.8-8.6,4.7-12.5c-2.1-4-6.6-5-6.6-5l-3.8-3.8l0.8,3.7h-2.7c0,0-0.7-18.8-1.7-22.5
				c-1-3.7-3.1-9.1-3.7-10.9c-0.7-1.8-5.4-6.3-11.9-3.3c-6.5,3-16.4,16.9-18.6,19.5c-2.2,2.5-3.7,4.8-7.7,5.3
				c-4,0.4-9.2-1.9-9.2-1.9v2.4l-9,0.9l1.1,1.9l-7.3,1.2l2.9,1L71.1,45.9l5.4-0.1L71.8,50l2.2,0.8c0,0-4.6,2.3-6.5,4
				c-1.9,1.6-9.1,8.2-9.1,8.2l6-1.8c0,0-10.2,11.5-12.9,12.9c-2.6,1.3-9.9,3.3-12.2,5.3c-2.3,2-3.5,5.1-3.2,6.5
				c0.3,1.4,3.4,6.4,5.1,8.5l-3.3,2.1l2.3,1.5l-5.8,3.5l4.5,0.7l-7.3,5.4l5.7,0.2l-5.7,5.3L17,133.6l39.2-18.4L48,125.8l25.5-7.8
				l-8.8,18.6L89.1,121l0.4,7.3l9.6-9l0.4,5.6l6.4-5.6l-6.3,18l12.3-5.8l1.7,4c0,0,17.4,5.9,25.7,17c0,0-0.5-21.9,0-28.4
				c0.6-6.5,4.4-17.5,5.8-17.8c1.4-0.3,9.3-1.1,9.3-1.1l-7.7-8.1h7.7l-7.7-7l4.9-3.1l-3.7-2.7l3.8-1.4l-5.9-2.4c0,0,0.2-2.3,1-4.3
				C147.6,74,156.6,62,159.7,58.6z M145.2,8.9c0.5,1.4,0,3.5,0,3.5l-3.6-6.9C143.2,5.9,144.7,7.5,145.2,8.9z M136.3,5.5
				c2-0.8,2.7,0,2.7,0l4.6,8.4c0,0-1.6-0.9-2.4-1.5c-0.7-0.6-3.2-1.3-4.9-2.9C134.6,8,134.3,6.3,136.3,5.5z M124.6,16.5l9.3-10
				c-0.4,1.3,0.6,3.5,0.6,3.5s4.3,4.1,4.7,4.5c0.4,0.4,1.5,3.5,1.5,3.5l-5.8-0.4l-5.6,4.6l0.7-3.9l-3.1,3.9l-0.3-2.1l-5.5,5l0.2-1.8
				l-5,4.1L124.6,16.5z M123.9,135.9c-4.6-2.1-7.4-5.1-7.4-5.1l0.4-9l-8.3,7.4l2.7-13.5l-5.4-0.5l-3,3l-2.8-3l-4.2,0.7l-3.3,4.3
				l-2.5-6.9l-12.3,8.7l2.7-12.1l-22.1,9.4l15.9-17l-12.9,7.6l6.1-6.8l-42.3,24.1l21-18.4l-8.8,1.7l5.6-5.3l-4.7,0.2l4.4-4l-2.1-1.4
				l3.5-1.9l-1.4-1.6l2.1-2.1c0,0-4-3.3-5.3-5.9c-1.2-2.6-0.8-7.5,4.9-9.4c5.7-1.9,16.4-5.3,16.4-5.3h-6.8L65.9,67l-3.2-0.5l9.1-9
				L67,59.1c0,0,5.6-5,8.5-7.8c2.9-2.8,7.4-8.9,7.4-8.9h-2.4c0,0,3-3,5.1-4.4c2.1-1.4,7.8-4.3,9-4.6l-0.8-1.7c0,0,4.9,0.1,5.7,0
				c0.8-0.1,2.6-1.6,4-1.1c1.4,0.5,4.9,1.7,4.9,1.7l-16.4,5.2c0,0-0.2,1.6,0.4,2.6c0.6,1,1.5,1.4,1.5,1.4l6.8-3c0,0,0.1,2,1.8,2.4
				c1.7,0.5,2.5-1.2,1.2-2.1c-1.3-0.8-6.7-0.7-6.7-0.7s3.4-0.8,5.4-1.2c2-0.4,5.4-2.1,6.5-2.5c1.1-0.5,2.4-0.8,2.4-0.8
				s-1.7,2.7-3.2,4.2c-1.5,1.5-4,4-4,4l-0.2,1L96.2,50c0,0,0-1.5,0.5-2.7c0.5-1.2,0.3-2.6,0.3-2.6l-1.9-0.5L87.8,49l-2.1,6.9l7-1.2
				L86,63.9l-2.7,9.6l6.5-1.4L79.3,94.7l11.3-9.4L90.3,94c0,0,12.3-16.3,17.4-18.6c0,0-11.3,15.2-13.1,25.3l8.8-6.6l-1.2,13.7
				c0,0,11.2-18.6,12.7-19.6c0,0-2.4,13.6-1.5,20.9l8.8-13.7c0,0-4.5,10.6-1.4,17.7l7.8-6.9c0,0-0.2,9.5-1.1,16.1
				c-0.9,6.6-0.9,6.6-0.9,6.6s6-7.9,8.4-12.3c0,0-2,20.2,0.7,26.6C135.6,143.4,128.5,138,123.9,135.9z M141.1,39.4l2.7,4.7
				c0,0-5.7,3.9-7.6,4.8c-1.9,0.9-3.7,1.5-3.7,1.5s3-5.8,4.6-10.4c1.6-4.6,2.8-10.1,2.8-10.1l2.2,4.6l0.3-10.2l2.4-4.6l1.1,2V30
				l2.7-5.7c0.1,0.7,1.2,15.8,1.3,17.1c0.1,1.3-2.4,0.6-2.4,0.6L141.1,39.4z"/>
		</g>
		<g>
			<path fill="#8F8F93" d="M139.2,25.6c0,0-4.4,8.5-6.3,11.5c-1.9,3-6.9,17.7-7.4,23.9c0,0,11.9-6.7,15.1-8c3.2-1.3,7.1-3.2,5.7-0.1
				c-1.4,3.1-6.7,8.5-13.4,14c0,0,4.9-0.1,7-1.1c2.1-1,4.7-2.3,4.7-1.9s-1.5,4.3-9.6,14.2c-8.1,9.9-10.4,12.6-10.4,12.6l11.9-8.3
				l-2.9,10.4l5.4-7.2c0,0-0.6,5.8-1.3,8.6c-0.7,2.8,0.8,13.8,1.2,16l2.8-7l4.4-0.4l-4.7-10.3l4.6,1.2l-3.8-4.1c0,0-1-0.5,0.4-1.1
				c1.4-0.6,4-1.6,4-1.6l-4-3l2.5-1.7l-2.1-1.6c0,0-0.8-3.3,2.2-8.8c3-5.5,11.8-14.5,14.3-18c2.5-3.5,2.3-6.1,0.8-8.3
				c-1.5-2.2-5.7-2.3-12.6,0.1c-6.9,2.4-14.5,5.9-18.2,9.6c0,0-1.2,0.7,0.4-4.4C131.5,45.7,139.2,29.7,139.2,25.6z"/>
		</g>
		<g>
			<path fill="#FFFFFF" d="M80.9,79.6h-3.2l2.5-2.6c0,0-6.6,1.1-7.4,0.6c-0.8-0.5-3.7-1.1-4.9-1.2c-1.3-0.1-3.6,2.1-3.6,2.1
				s0.2-1.3,0-1.3c-0.2,0-2.2,0.6-4.4,2.5c-2.2,1.9-6.7,6.2-6.7,6.2l1.4-2.9c0,0-3.1-0.1-5.8,1c-2.7,1.1-3.9,2.9-2.3,5
				c1.6,2.1,4.6,3.2,4.6,3.2s4.1,0.1,6.7,0.7c2.5,0.5,10.8,2.5,10.8,2.5l-12.2-7.5l7,0l0.8-0.4c0,0,2.6,0.1,6.2-0.5
				c3.5-0.6,7.5-4.2,7.5-4.2l-5.3,0.4C72.4,83.1,80.2,80,80.9,79.6z"/>
		</g>
	</g>
	<g>
		<path fill="#FFFFFF" d="M9.6,96.9l0.1,6.2l3.9-0.1c0.2,0,0.3,0,0.4-0.1c0.1-0.1,0.2-0.2,0.2-0.4l0.3,0l0.1,3.4l-0.3,0
			c-0.1-0.2-0.1-0.3-0.2-0.4c-0.1-0.1-0.2-0.1-0.4-0.1l-9.2,0.2c-0.2,0-0.3,0-0.4,0.1c-0.1,0.1-0.1,0.2-0.2,0.4l-0.3,0l-0.1-3.4
			l0.3,0c0.1,0.2,0.1,0.3,0.2,0.4c0.1,0.1,0.2,0.1,0.4,0.1l3.5-0.1l-0.1-6.2L4.3,97c-0.2,0-0.3,0-0.4,0.1c-0.1,0.1-0.1,0.2-0.2,0.4
			l-0.3,0l-0.1-3.4l0.3,0c0.1,0.2,0.1,0.3,0.2,0.4c0.1,0.1,0.2,0.1,0.4,0.1l9.1-0.2c0.2,0,0.3,0,0.4-0.1c0.1-0.1,0.1-0.2,0.2-0.4
			l0.3,0l0.1,3.4l-0.3,0c-0.1-0.2-0.1-0.3-0.2-0.4c-0.1-0.1-0.2-0.1-0.4-0.1L9.6,96.9z"/>
		<path fill="#FFFFFF" d="M13.2,83.8l-0.9,4.8l1.4,1c0.2,0.1,0.3,0.2,0.5,0.2c0.2,0,0.4-0.1,0.6-0.4l0.2,0l-0.7,3.5l-0.2,0
			c0-0.2,0-0.4-0.1-0.5c-0.1-0.1-0.3-0.3-0.5-0.5l-7.4-5.5c-0.2-0.2-0.4-0.3-0.6-0.3c-0.2,0-0.4,0.1-0.6,0.4l-0.2,0l0.7-3.8l0.2,0
			c0,0.3,0.2,0.5,0.4,0.5c0.1,0,0.3,0,0.5,0l9-2.5c0.4-0.1,0.6-0.2,0.8-0.3c0.2-0.1,0.3-0.3,0.4-0.5l0.2,0L16,83.9l-0.2,0
			c0-0.4-0.1-0.6-0.4-0.6c-0.1,0-0.3,0-0.5,0.1L13.2,83.8z M11.6,84.1l-4.1,1l3.4,2.5L11.6,84.1z"/>
		<path fill="#FFFFFF" d="M14.1,74.9l3.3,1.4c0.1,0.1,0.3,0.1,0.4,0c0.1,0,0.2-0.1,0.3-0.3l0.2,0.1l-1.3,3.1l-0.2-0.1
			c0-0.2,0-0.3,0-0.4c0-0.1-0.1-0.2-0.3-0.2L8.1,75c-0.2-0.1-0.3-0.1-0.4,0c-0.1,0-0.2,0.1-0.3,0.3l-0.2-0.1l2.6-6.2
			c0.3-0.8,0.6-1.3,0.9-1.8c0.3-0.4,0.6-0.7,0.9-1c0.4-0.3,0.9-0.4,1.4-0.4c0.5,0,1,0.1,1.5,0.3c1.6,0.7,2.2,2,1.7,3.9l3.6-0.8
			c0.6-0.1,1-0.3,1.2-0.4c0.2-0.1,0.4-0.3,0.5-0.5l0.2,0.1L20.1,72l-0.2-0.1c0.1-0.3,0-0.4-0.1-0.5c-0.1,0-0.3,0-0.8,0.1l-3.8,0.8
			L14.1,74.9z M12.5,74.3l1.4-3.4c0.2-0.5,0.3-0.9,0.4-1.1c0.1-0.2,0.1-0.4,0.1-0.6c0-0.5-0.3-0.8-0.8-1c-0.5-0.2-1-0.2-1.3,0.1
			c-0.2,0.1-0.3,0.3-0.4,0.5c-0.1,0.2-0.3,0.5-0.5,1l-1.4,3.4L12.5,74.3z"/>
		<path fill="#FFFFFF" d="M23,56.2c1.1-0.7,2.1-0.8,3.1-0.1c0.8,0.6,1.3,1.3,1.3,2.2c0,0.5,0,0.9-0.2,1.4c-0.2,0.5-0.4,1-0.8,1.6
			l-4.2,6.1L22,67.2c0.1-0.2,0.1-0.3,0.1-0.4s-0.1-0.2-0.2-0.3l-7.5-5.1c-0.1-0.1-0.3-0.1-0.4-0.1c-0.1,0-0.2,0.1-0.4,0.2l-0.2-0.1
			l4.1-6c0.4-0.6,0.8-1,1.1-1.3c0.3-0.3,0.7-0.5,1.1-0.6c0.8-0.2,1.5-0.1,2.3,0.4C22.8,54.3,23.1,55.1,23,56.2z M18.5,61.3l2.3-3.4
			c0.4-0.5,0.5-0.9,0.5-1.2c0-0.3-0.2-0.7-0.6-0.9c-0.4-0.3-0.7-0.3-1-0.2c-0.3,0.1-0.6,0.4-1,0.9l-2.3,3.4L18.5,61.3z M22.4,64
			l2.3-3.3c0.4-0.6,0.6-1.1,0.6-1.5c0-0.4-0.2-0.8-0.6-1.1c-0.4-0.3-0.9-0.4-1.3-0.2C23,58,22.6,58.4,22.2,59l-2.3,3.3L22.4,64z"/>
		<path fill="#FFFFFF" d="M26.4,44.6c1.4-1.3,2.8-2,4.3-2c1.6,0,3,0.6,4.1,1.8c0.7,0.7,1.2,1.6,1.4,2.7c0.4,2-0.3,3.9-2.1,5.6
			c-1.4,1.3-2.8,1.9-4.3,2c-0.8,0-1.6-0.1-2.3-0.5c-0.7-0.3-1.2-0.7-1.7-1.3c-0.7-0.8-1.2-1.7-1.4-2.7
			C23.9,48.3,24.6,46.4,26.4,44.6z M27.7,46c-0.7,0.7-1.2,1.5-1.2,2.4c-0.1,1.1,0.3,2,1.1,2.9c0.8,0.8,1.8,1.3,2.8,1.2
			c0.9,0,1.8-0.4,2.5-1.1c0.8-0.7,1.2-1.5,1.2-2.4c0-0.5,0-1.1-0.2-1.6c-0.2-0.5-0.5-0.9-0.8-1.2c-0.8-0.9-1.8-1.3-2.9-1.2
			C29.3,44.9,28.4,45.3,27.7,46z"/>
		<path fill="#FFFFFF" d="M44,33.2l3.2,5.2c0.6,1,0.9,1.8,0.8,2.5c-0.1,1.3-1.2,2.5-3.2,3.8c-1.5,0.9-2.7,1.3-3.8,1.4
			c-0.6,0-1.2-0.2-1.6-0.5c-0.5-0.4-0.9-0.9-1.3-1.5l-3.2-5.2c-0.1-0.1-0.2-0.2-0.3-0.3c-0.1,0-0.3,0-0.4,0L34,38.3l2.9-1.8l0.1,0.2
			c-0.1,0.1-0.2,0.3-0.2,0.4c0,0.1,0,0.2,0.1,0.4l2.8,4.6c0.3,0.5,0.6,0.9,0.8,1.1c0.2,0.2,0.5,0.4,0.7,0.4c0.7,0.2,1.6,0,2.6-0.7
			c1-0.6,1.6-1.3,1.8-2c0.1-0.3,0-0.5-0.1-0.8c-0.1-0.3-0.3-0.7-0.6-1.2l-2.8-4.6c-0.1-0.1-0.2-0.2-0.3-0.3c-0.1,0-0.3,0-0.4,0
			l-0.1-0.2l2.7-1.7l0.1,0.2c-0.1,0.1-0.2,0.3-0.2,0.4C43.8,32.9,43.9,33,44,33.2z"/>
		<path fill="#FFFFFF" d="M52.3,35.6l1.2,3.4c0.1,0.1,0.1,0.3,0.2,0.3c0.1,0.1,0.2,0.1,0.4,0.1l0.1,0.2l-3.2,1.1L51,40.5
			c0.2-0.1,0.3-0.2,0.3-0.3c0-0.1,0-0.2,0-0.4l-3.1-8.6c-0.1-0.2-0.1-0.3-0.2-0.3c-0.1-0.1-0.2-0.1-0.4-0.1l-0.1-0.2l6.4-2.3
			c0.8-0.3,1.4-0.5,1.9-0.5c0.5-0.1,0.9-0.1,1.4,0c0.5,0.1,0.9,0.4,1.3,0.7c0.3,0.4,0.6,0.8,0.8,1.3c0.6,1.7,0,3-1.7,3.9l3,2.1
			c0.5,0.4,0.9,0.6,1.1,0.7c0.2,0.1,0.4,0.1,0.7,0l0.1,0.2L58.5,38l-0.1-0.2c0.2-0.1,0.3-0.3,0.3-0.4c0-0.1-0.2-0.3-0.6-0.5L55,34.6
			L52.3,35.6z M51.7,33.9l3.4-1.2c0.5-0.2,0.9-0.3,1.1-0.4c0.2-0.1,0.4-0.2,0.5-0.4c0.3-0.3,0.4-0.8,0.2-1.3c-0.2-0.5-0.5-0.8-1-0.9
			c-0.2,0-0.4,0-0.6,0c-0.2,0-0.6,0.2-1.1,0.3l-3.4,1.2L51.7,33.9z"/>
		<path fill="#FFFFFF" d="M71.8,25.2L70.9,28l-0.2-0.1c0-0.1,0-0.1,0-0.1c0-0.2-0.2-0.3-0.5-0.5c-1-0.5-2.2-0.7-3.4-0.5
			c-0.6,0.1-1,0.2-1.4,0.4c-0.3,0.2-0.5,0.3-0.7,0.6c-0.2,0.2-0.2,0.5-0.2,0.7c0.1,0.4,0.3,0.6,0.9,0.7c0.3,0,0.8,0,1.6,0l1.2-0.1
			c0.7,0,1.3,0,1.8,0c0.5,0.1,0.9,0.2,1.3,0.4c0.4,0.2,0.7,0.5,1,0.9c0.3,0.4,0.4,0.8,0.5,1.3c0.1,0.8,0,1.5-0.4,2.1
			c-0.4,0.6-1,1.1-1.9,1.5c-0.7,0.3-1.4,0.5-2.2,0.6c-1.4,0.2-2.9,0.1-4.3-0.4c-0.3-0.1-0.5-0.1-0.6-0.1c-0.1,0-0.2,0.1-0.3,0.2
			l-0.2-0.1l0.8-2.8l0.2,0.1c0,0,0,0.1,0,0.1c0,0.2,0.2,0.4,0.4,0.6c0.4,0.3,0.9,0.4,1.7,0.5c0.7,0.1,1.4,0.1,2.1,0
			c0.7-0.1,1.3-0.3,1.7-0.6c0.3-0.2,0.4-0.4,0.6-0.6c0.1-0.2,0.2-0.5,0.1-0.7c-0.1-0.4-0.3-0.6-0.7-0.7c-0.3-0.1-0.8-0.1-1.7,0
			L67,31.5c-0.8,0-1.4,0-1.7,0c-0.3,0-0.7-0.1-1.1-0.2c-0.5-0.2-0.9-0.5-1.3-0.9c-0.3-0.4-0.5-0.9-0.6-1.4c-0.1-0.9,0.1-1.7,0.6-2.4
			c0.7-0.9,1.9-1.5,3.5-1.7c0.7-0.1,1.3-0.1,1.9-0.1c0.6,0,1.4,0.2,2.3,0.4c0.3,0.1,0.5,0.1,0.6,0.1c0.1,0,0.2-0.1,0.4-0.2
			L71.8,25.2z"/>
	</g>
	<g>
		<path fill="#FFFFFF" d="M40.7,155.8l-5.1-3.6l-2.3,3.2c-0.1,0.1-0.1,0.3-0.1,0.4c0,0.1,0.1,0.2,0.2,0.4l-0.1,0.2l-2.7-2l0.1-0.2
			c0.2,0.1,0.3,0.1,0.4,0.1c0.1,0,0.2-0.1,0.3-0.2l5.3-7.5c0.1-0.1,0.1-0.2,0.1-0.4c0-0.1-0.1-0.2-0.2-0.4l0.1-0.2l2.7,2l-0.1,0.2
			c-0.2-0.1-0.3-0.1-0.4-0.1c-0.1,0-0.2,0.1-0.3,0.2l-2,2.8l5.1,3.6l2-2.8c0.1-0.1,0.1-0.3,0.1-0.4c0-0.1-0.1-0.2-0.2-0.4l0.1-0.2
			l2.7,2l-0.1,0.2c-0.2-0.1-0.3-0.1-0.4-0.1c-0.1,0-0.2,0.1-0.3,0.2l-5.3,7.5c-0.1,0.1-0.1,0.2-0.1,0.4c0,0.1,0.1,0.2,0.2,0.4
			l-0.1,0.2l-2.7-2l0.1-0.2c0.2,0.1,0.3,0.1,0.4,0.1c0.1,0,0.2-0.1,0.3-0.2L40.7,155.8z"/>
		<path fill="#FFFFFF" d="M57.7,158.3l-2.4,5.6c-0.5,1.1-1,1.8-1.6,2.1c-1.1,0.6-2.7,0.5-4.9-0.5c-1.6-0.7-2.7-1.5-3.3-2.3
			c-0.4-0.5-0.5-1.1-0.5-1.6c0-0.6,0.2-1.2,0.5-1.9l2.4-5.6c0.1-0.1,0.1-0.3,0-0.4c0-0.1-0.1-0.2-0.3-0.3l0.1-0.2l3.1,1.3l-0.1,0.2
			c-0.2,0-0.3,0-0.4,0c-0.1,0-0.2,0.2-0.3,0.3l-2.1,4.9c-0.2,0.6-0.4,1-0.5,1.3c-0.1,0.3,0,0.6,0.1,0.8c0.3,0.7,0.9,1.3,2.1,1.8
			c1.1,0.5,2,0.6,2.7,0.3c0.2-0.1,0.5-0.3,0.6-0.5c0.2-0.2,0.4-0.7,0.6-1.2l2.1-4.9c0.1-0.1,0.1-0.3,0-0.4c0-0.1-0.1-0.2-0.3-0.3
			l0.1-0.2l2.9,1.3l-0.1,0.2c-0.2,0-0.3,0-0.4,0C57.8,158.1,57.7,158.2,57.7,158.3z"/>
		<path fill="#FFFFFF" d="M69.4,161.1l-1.8,2.2l-0.2-0.2c0-0.1,0-0.1,0-0.1c0-0.2-0.1-0.4-0.3-0.7c-0.8-0.8-1.8-1.4-3-1.7
			c-0.5-0.1-1-0.2-1.5-0.1c-0.3,0-0.6,0.1-0.8,0.3c-0.2,0.2-0.4,0.4-0.4,0.6c-0.1,0.4,0.1,0.7,0.5,1c0.2,0.1,0.7,0.3,1.5,0.6
			l1.2,0.4c0.7,0.2,1.3,0.5,1.7,0.7c0.4,0.2,0.8,0.5,1.1,0.8c0.3,0.3,0.5,0.7,0.6,1.2c0.1,0.5,0.1,0.9,0,1.4
			c-0.2,0.7-0.5,1.3-1.1,1.8c-0.5,0.4-1.3,0.7-2.3,0.7c-0.7,0-1.5,0-2.2-0.2c-1.4-0.3-2.7-0.9-3.9-1.9c-0.3-0.2-0.4-0.3-0.5-0.3
			c-0.1,0-0.2,0-0.4,0.1l-0.2-0.2l1.7-2.3l0.2,0.2c0,0,0,0.1,0,0.1c-0.1,0.2,0,0.5,0.2,0.7c0.3,0.4,0.7,0.7,1.4,1.1
			c0.7,0.4,1.3,0.6,1.9,0.8c0.7,0.1,1.3,0.2,1.8,0c0.3-0.1,0.5-0.2,0.8-0.4c0.2-0.2,0.3-0.4,0.4-0.6c0.1-0.3-0.1-0.6-0.4-0.9
			c-0.2-0.2-0.8-0.4-1.5-0.6l-1.2-0.4c-0.8-0.3-1.3-0.5-1.6-0.6c-0.3-0.1-0.6-0.3-0.9-0.6c-0.4-0.3-0.7-0.8-0.9-1.3
			c-0.2-0.5-0.2-1-0.1-1.5c0.2-0.9,0.7-1.6,1.4-2c1-0.6,2.3-0.7,3.9-0.4c0.7,0.1,1.3,0.4,1.8,0.6c0.6,0.3,1.2,0.7,2,1.2
			c0.3,0.2,0.4,0.3,0.5,0.3c0.1,0,0.2,0,0.4-0.1L69.4,161.1z"/>
		<path fill="#FFFFFF" d="M75.2,166.3l-1.7,1.3l-0.1,2.9c0,0.2,0,0.3,0.1,0.4c0.1,0.1,0.2,0.2,0.4,0.2l0,0.3l-3.4-0.1l0-0.3
			c0.2,0,0.3-0.1,0.4-0.2c0.1-0.1,0.1-0.2,0.1-0.4l0.2-9.1c0-0.2,0-0.3-0.1-0.4s-0.2-0.2-0.4-0.2l0-0.3l3.4,0.1l0,0.3
			c-0.2,0-0.3,0.1-0.4,0.2c-0.1,0.1-0.1,0.2-0.1,0.4l-0.1,3.8l4.5-3.5c0.2-0.2,0.3-0.3,0.3-0.4c0-0.2-0.1-0.3-0.5-0.3l0-0.3l4.4,0.1
			l0,0.3c-0.2,0-0.3,0.1-0.4,0.1c-0.1,0-0.3,0.2-0.7,0.5l-0.6,0.5l-3.7,2.9L81,170c0.4,0.5,0.6,0.8,0.8,0.9c0.2,0.1,0.4,0.2,0.6,0.3
			l0,0.3l-4.2-0.1l0-0.3c0.3-0.1,0.4-0.1,0.4-0.3c0-0.1-0.1-0.3-0.4-0.6L75.2,166.3z"/>
		<path fill="#FFFFFF" d="M85.3,170.1l-1.1-9.1c0-0.2-0.1-0.3-0.2-0.3c-0.1-0.1-0.2-0.1-0.4-0.2l0-0.3l3.3-0.4l0,0.3
			c-0.2,0.1-0.3,0.2-0.4,0.2c-0.1,0.1-0.1,0.2-0.1,0.4l1.1,9.1c0,0.2,0.1,0.3,0.2,0.4c0.1,0.1,0.2,0.1,0.4,0.2l0,0.3l-3.3,0.4l0-0.3
			c0.2-0.1,0.3-0.2,0.4-0.3S85.3,170.3,85.3,170.1z"/>
		<path fill="#FFFFFF" d="M92.9,164.9l0.8,2.9l6.7-1.8c0.2,0,0.3-0.1,0.3-0.2c0.1-0.1,0.1-0.2,0.1-0.4l0.2-0.1l0.7,2.7l-0.2,0.1
			c-0.1-0.2-0.2-0.3-0.3-0.3c-0.1,0-0.2-0.1-0.4,0l-9.5,2.5l-0.1-0.2c0.2-0.1,0.3-0.2,0.3-0.3c0-0.1,0.1-0.2,0-0.4l-2.3-8.8
			c0-0.2-0.1-0.3-0.2-0.3s-0.2-0.1-0.4-0.1l-0.1-0.2l9.3-2.5c0.2,0,0.3-0.1,0.3-0.2c0.1-0.1,0.1-0.2,0.1-0.4l0.2-0.1l0.7,2.7
			l-0.2,0.1c-0.1-0.2-0.2-0.3-0.3-0.3c-0.1-0.1-0.2-0.1-0.4,0l-6.5,1.7l0.7,2.5l4.2-1.1c0.2,0,0.3-0.1,0.3-0.2
			c0.1-0.1,0.1-0.2,0.1-0.4l0.2-0.1l0.7,2.6l-0.2,0.1c-0.1-0.2-0.2-0.3-0.3-0.3c-0.1-0.1-0.2-0.1-0.4,0L92.9,164.9z"/>
		<path fill="#FFFFFF" d="M109.5,153l-0.1,2.8l-0.3,0c0,0,0-0.1,0-0.1c-0.1-0.2-0.3-0.3-0.7-0.3c-1.1-0.2-2.3,0-3.4,0.5
			c-0.5,0.2-0.9,0.5-1.2,0.8c-0.2,0.2-0.4,0.5-0.5,0.8c-0.1,0.3-0.1,0.5,0,0.7c0.2,0.4,0.5,0.5,1,0.4c0.3,0,0.8-0.2,1.6-0.5l1.2-0.4
			c0.7-0.2,1.3-0.4,1.8-0.5c0.5-0.1,0.9-0.1,1.3,0c0.4,0.1,0.8,0.3,1.2,0.6s0.7,0.7,0.9,1.1c0.3,0.7,0.4,1.4,0.2,2.1
			c-0.2,0.7-0.6,1.3-1.3,2c-0.5,0.5-1.2,0.9-1.9,1.2c-1.3,0.6-2.7,0.9-4.3,0.9c-0.3,0-0.5,0-0.6,0c-0.1,0-0.1,0.1-0.2,0.3l-0.3,0
			l-0.1-2.9l0.3,0c0,0,0,0.1,0,0.1c0.1,0.2,0.3,0.4,0.6,0.4c0.4,0.1,1,0.1,1.8,0s1.4-0.3,2-0.6c0.6-0.3,1.1-0.7,1.5-1.1
			c0.2-0.2,0.3-0.5,0.4-0.8c0.1-0.3,0-0.5-0.1-0.7c-0.2-0.3-0.4-0.5-0.9-0.4c-0.3,0-0.8,0.2-1.6,0.4l-1.2,0.4
			c-0.8,0.3-1.3,0.5-1.7,0.5c-0.3,0.1-0.7,0.1-1.1,0.1c-0.5,0-1-0.2-1.5-0.5c-0.4-0.3-0.7-0.7-1-1.2c-0.4-0.8-0.4-1.6-0.1-2.4
			c0.4-1.1,1.3-1.9,2.8-2.7c0.6-0.3,1.2-0.5,1.8-0.6c0.6-0.1,1.4-0.2,2.3-0.3c0.3,0,0.5,0,0.6-0.1c0.1,0,0.2-0.2,0.3-0.3L109.5,153z
			"/>
	</g>
</g>
</svg>
