<?xml version="1.0" encoding="utf-8"?>
<!-- Generator: Adobe Illustrator 18.1.1, SVG Export Plug-In . SVG Version: 6.00 Build 0)  -->
<svg version="1.1" id="Layer_1" xmlns="http://www.w3.org/2000/svg" xmlns:xlink="http://www.w3.org/1999/xlink" x="0px" y="0px"
	 viewBox="0 0 173.6 147.6" enable-background="new 0 0 173.6 147.6" xml:space="preserve">
<g>
	<g>
		<path fill="#343465" d="M122.5,124c0.5-0.5,2.3-2.3,2.2-3.1c-0.1-0.9-0.9-2.3,0.3-3.6c1.2-1.2,2-2.6,1.3-4.2
			c-0.6-1.5-2.7-1.4-5.2,0.2c-2.5,1.7-8.9,5-9.8,4.8c-0.9-0.2,0.7-3.3-2.7-0.8c-3.4,2.5-7.4,5.8-14.3,6.4c0,0-2.6,0.1-4.5-0.4
			c-1.9-0.5-1.5-1.3-0.3-2.7c1.2-1.3,8.7-8,14.9-12.3c6.2-4.3,10.6-6,13.1-6.2c2.5-0.2,4,0.7,4.3,1.4c0.3,0.7,0.7,1.3,2,1.3
			s3,0.9,1.8,2.2c-1.2,1.3-0.4,2.5,0.9,3.1c1.4,0.6,2.3,0.4,3.1,0c0.8-0.4,1-0.2,2.3,0.7c1.2,0.9,3.3,2.2,2.1,3.5
			c-1.2,1.3-5.6,4.6-4.7,5.5c0.9,0.9,4.7,1.2,7.5,0c2.8-1.2,5.9-4.5,5.9-4.5l1.9-0.1c0,0-1,2-1.4,2.6c-0.4,0.6-1,2,0.1,2.6
			c1.2,0.6,6.4-2.6,8.4-6c2-3.4,2.1-6.4,4.3-10c2.2-3.6,4.2-6.7,4.5-7.7c0.4-1-0.2-3.3-4.8-4.8c-4.5-1.5-17-5.4-22.5-7.2
			c-5.5-1.8-5.8-3.2-7-4.3c-1.3-1.1-0.9-2.1,0-3.3c0.9-1.2,4.2-9,3.3-9.4c-0.9-0.4-3.9,0.4-4-0.4c-0.2-0.8-0.8-7.3-8.9-12.2
			l-1.6,2.6c0,0-6.7-6.1-17.6-7.2l-0.1,2.6c0,0-4,0.1-5.5,0.1c0,0-12.8-12.2-38.6-19c0,0,1.7,7.5,4.6,11.6c0,0-13.2-7.2-29-9.1
			c0,0-9.2,20.4,8.9,33.5L32,70.6l2.1,5.4l-9.4-3.6l2.4,4.3c0,0-6.5,0.3-11.1,3.5l7.2,1.3c0,0-7.2,8-7.5,10.7l11.5-1.6
			c0,0-7.8,16.1-8.9,21.4l7.4-5L27,124H0v23.6h173.6V124H122.5z"/>
		<path fill="#BCBEC0" d="M127.6,70.1c0,0-2.6,0.7-3.1-0.9c-0.5-1.5-3.4-10.1-7.3-11.1l-1.8,2.6c0,0-6.9-6.9-16.3-7.8v1.8
			c0,0-13.2,0.7-20.1,3.3l6.1,1.7c0,0,17.3-8.1,31.5,3.8l1.6-2.5c0,0,3.7,5.1,4.6,8.4c0.9,3.2,1.5,4.2,2.6,4.2
			C126.6,73.6,127.4,71.4,127.6,70.1z"/>
		<path fill="#BCBEC0" d="M90.3,59.1l5,1.2c0,0-1.2,5,2.7,7.4c0,0-10.2,1.2-14.5,2.4l6-4l-8.5-4.3l10.1,0.9
			C91.1,62.6,90.3,60.7,90.3,59.1z"/>
		<polygon fill="#C4161C" points="122,73.6 120.2,75.3 122,79.2 		"/>
		<path fill="#C4161C" d="M108.4,76.4l0.5,4.6l-3.6,0.8C105.3,81.7,106,76.6,108.4,76.4z"/>
		<path fill="#C4161C" d="M104.6,72.5c0,0-3.9,4.8,0,9.6c0,0-2.1,0.8-3.5-2.1C99.7,77.2,98.8,74.1,104.6,72.5z"/>
		<path fill="#FFFFFF" d="M116.5,83.1l-2.2-9.4h-1.8c0,0-4.2-5.3-5.5-5.4c-1.3-0.2-3.8,0.9-3.8,0.9l3.8-5.2c0,0,4.3,3.7,5.3,6.7
			l1.9-1.3c0,0,3,10,9.5,15.4l-1.1,1.1c0,0,12.6,4.4,20.6,6l2.9-1c0,0-7.6-2.6-13.5-4.3c-5.9-1.8-12.4-5.4-14.3-12.8
			c0,0,1.6-0.9,1.7-2.8c0.1-1.9-1.5-5.3-1.5-5.3l-0.5,1.4l-1.8,1.3c0,0-6.9-9-19-7.8c0,0-1.2,5,3.1,7.9c0,0-2.6,2.8-3.6,5.3
			c0,0,4.3-3.6,8.3-2.9c4,0.7,5.3,2.1,6,3.9C111.9,76.5,112.1,81.2,116.5,83.1z"/>
		<path fill="#FFFFFF" d="M101.4,86.2c0,0-0.3-1.5,0-2.1c0,0-3.9-3.1-4.1-7.7h-7.7l3.1-4.8c0,0-15.9-1.2-26.5,13.2l7.2-2.1l-7.2,7
			l10.5-2.7l-7,11.1c0,0,17.8-4.3,21.6-3.9c0,0-18.5,8-22.4,9.8c-3.9,1.8-4.7,2.5-4.6,3.9c0.2,1.5,1.4,7.5,3.9,8.4
			c0,0,1.2-5.1,1.6-5.2c0.4-0.1,3.7,11.3,5.8,12.2h1.9c0,0-3.8-12.2-3.4-12.8c0.4-0.7,16.8-11.1,31.9-14.3
			c15.1-3.3,26.2-0.6,26.9,3.7c0.8,4.3,2.7,8.7,8.4,10c5.7,1.2,12.5-2.9,13.4-6.7c0,0-2.6-0.4-2.6-2.5c0-2.1-1.9-5.8-7.2-7.1
			c-5.3-1.3-10.7,0.6-10.7,0.6l-21-10.5l0.5,3.4c0,0-7.8-4.2-19.1,4.9L94.6,89c0,0-2.9-0.7-4.5-2.8l-3.9,2.1l5.4-9.2
			C91.6,79.1,94.4,84.3,101.4,86.2z"/>
		<path fill="#B5B5B8" d="M144.1,108c0,0-4.5-0.6-6.3-3.1c-1.8-2.5-1.8-3.6-1.5-5.3c0.4-1.7,0.4-3.3-12.1-6.3c0,0-14.6-2.1-30,3.6
			c-15.4,5.7-25.9,12.2-26.1,13.5c-0.2,1-0.1,4.3,0,5.9c0,0,0,0,0,0c0,0,1.2-5.1,1.6-5.2c0.4-0.1,3.7,11.3,5.8,12.2h1.9
			c0,0-3.8-12.2-3.4-12.8c0.4-0.7,16.8-11.1,31.9-14.3c15.1-3.3,26.2-0.6,26.9,3.7c0.8,4.3,2.7,8.7,8.4,10
			c5.7,1.2,12.5-2.8,13.4-6.6C153.1,105.4,149.5,108.5,144.1,108z"/>
		<path fill="#BCBEC0" d="M74.3,73.3c0,0-20.6,6.2-30.3,14.8l4.1,0.5l-0.8,5.2l4.1-2c0,0,2.9,16,11.9,26.5c0,0-6.4-13.9-1.3-19.6
			l2.2,1.7l2.4-7.6l-9.3,2.2C57.4,94.9,60.5,82.5,74.3,73.3z"/>
		<path fill="#FFFFFF" d="M85.2,55.1l3.6-0.8c0,0-13.3-9.7-28.3-15.1C60.5,39.1,78.5,49.2,85.2,55.1z"/>
		<path fill="#FFFFFF" d="M31.3,39.1c0,0,19.9,5.3,25.9,9.4c0,0-14.9-4.3-27.1-6.7L31.3,39.1z"/>
		<path fill="#BCBEC0" d="M30.1,43.8c0,0,23.9,4.6,41.9,13c0,0-29.7-7.6-38.1-7.9c0,0,2.6,10.9,16.1,15l-3.6,1.6l12.8,2.6l-15.5,6.1
			l2.6-4.6C46.3,69.5,29.9,63,30.1,43.8z"/>
		<path fill="#FFFFFF" d="M72,60.3l12.5,6c0,0-25.4,5.8-46.9,20.7l3.7,4.8c0,0-6,9.5-6,15.5l7.5-3.7l10.5,16.7c0,0-1.9-7.9-0.4-12.9
			c0,0,3.6,11.4,10.1,16.2H52.7l-13.3-14.7l-8,13.1l0.6-21.4h-4.2l6.3-12.3l-7-2.3c0,0,15.1-12.3,44.9-19.2l-8.9-2.7L72,60.3z"/>
		<path fill="#C4161C" d="M98.1,102c0,0,3.5,4.7-1.9,9.1c-5.4,4.4-9.8,7.3-9.7,12.4h-5.5c0,0-2.2-1.2-2.5-8.4c0,0,0-4.9,4.4-6.8
			c4.4-2,7.1-3.6,7.5-4.1c0,0,1.5,2.2-0.8,4.6c-2.3,2.4-4.1,2.7-3.2,7c0,0,2.2-4.4,6.1-6.6C96.3,106.9,97.3,104.3,98.1,102z"/>
		<path fill="#FFFFFF" d="M128,108.2c0.2,0.2,1.9,0.6,2.5,0c0.2-0.2,0.4-0.5,0.4-1c0.2-2.1-0.6-9.3-4.6-9.7
			c-4-0.4-15.5-1.1-14.9,0.8c0.5,1.9,2.9,0.4,3.4,0.7c0.5,0.4,2.5,0.9,3.2,0.5c0.7-0.4,1.6-0.4,2.2,0.2c0.6,0.6,2.4,0.7,3.7,0.4
			c1.4-0.4,2.9,0.1,2.5,1.1c-0.4,1-1.7,2.6,0,3.1c1.7,0.5,2.4,0.9,1.9,2.1C128,107.4,127.7,107.8,128,108.2z"/>
		<path fill="#C4161C" d="M137.8,111.1c0,0-6-3.1-7.1-9.7c-1.1-6.6-11.9-5.1-23.6-3.9c0,0,20.1-0.6,21.4,2.6
			C129.7,103.4,129.6,110,137.8,111.1z"/>
		<path fill="#FFFFFF" d="M151.8,109.8c0,0-2.7,6.9-6.4,8.6c0,0,1.7-3.7,0.9-4.3l-5.5,0.3c0,0-2,4.8-8.9,4.6c0,0,4-3.9,5.1-5.8
			c1.2-1.9,1.7-1.8,3.2-1.3c1.5,0.5,5,0.5,7.3-0.3C149.8,110.7,151.6,109.3,151.8,109.8z"/>
		<path fill="#C4161C" d="M122.4,115.1c0,0-6.5,3.7-11.7,5.6l-1.2,2.8c0,0,3.4,0.3,8.1-1.8c4.7-2.1,7.2-6.9,7.2-6.9
			S124.7,113.4,122.4,115.1z"/>
		<path fill="#FFFFFF" d="M116.8,123.5h3.7c0,0,2.5-2,2.6-3.3c0.1-1.4-2.1,0.6-3.2,1.4C119,122.3,116.8,123.5,116.8,123.5z"/>
		<path fill="#FFFFFF" d="M101.9,123.8h5.9c0,0,1.6-3.3,0.5-3.7C107.2,119.8,106.5,122.3,101.9,123.8z"/>
		<path fill="#BCBEC0" d="M17.2,130.7h3.2v8.1c0,0-0.3,2.6-3.2,2.6c-2.9,0-4.4,0-4.4,0s-3-0.2-3-2.8v-2h3.2v1c0,0-0.3,1,0.8,1
			c1.1,0,2.7,0,2.7,0s0.8,0.1,0.8-1.1C17.2,136.2,17.2,130.7,17.2,130.7z"/>
		<path fill="#BCBEC0" d="M40.2,130.3h-3.9l-5.6,10.9h3.5l1-1.9h6.3l0.8,1.9h3.8L40.2,130.3z M36.3,136.9l1.9-3.8l2.2,3.8H36.3z"/>
		<path fill="#BCBEC0" d="M112.6,130.3h-3.9l-5.6,10.9h3.5l1-1.9h6.3l0.8,1.9h3.8L112.6,130.3z M108.7,136.9l1.9-3.8l2.2,3.8H108.7z
			"/>
		<path fill="#BCBEC0" d="M66.1,134.5h3.1v-2c0,0-0.5-2.2-3.3-2.2c-2.9,0-6.1,0-6.1,0s-3.7,0.1-3.7,3.1c0,2.9,0,4.9,0,4.9
			s-0.1,3,3.3,3c3.4,0,7.2,0,7.2,0s2.9-0.2,2.9-2.5V137h-3.2c0,0,0.2,1.6-0.8,1.6c-1.1,0-4.9,0-4.9,0s-1.1,0.1-1.1-1.5
			c0-1.6,0-2.6,0-2.6s0.1-1.5,1.5-1.5c1.4,0,3.8,0,3.8,0S66.1,132.6,66.1,134.5z"/>
		<polygon fill="#BCBEC0" points="89.2,130.3 85.2,134.5 83.6,134.5 83.6,130.3 80.5,130.3 80.5,141.3 83.5,141.3 83.5,137 
			85.2,137 89.3,141.1 93.8,141.1 87.8,135.8 93.1,130.3 		"/>
		<polygon fill="#BCBEC0" points="132,130.3 128.7,130.3 128.7,141.3 138.9,141.3 138.9,138.3 132,138.3 		"/>
		<path fill="#BCBEC0" d="M158.6,133.8h3.1v-1.4c0,0,0-2-2.7-2c-2.7,0-6.4,0-6.4,0s-3.2,0-3.2,1.7c0,1.7,0,3.2,0,3.2
			s-0.3,1.6,3.3,1.7c3.7,0,4,0,4,0s2.3-0.1,2.3,0.8c0,1-0.7,1.1-2.1,1.1s-3.3,0-3.3,0s-1.1,0.3-1.1-1.2h-3c0,0-0.8,3.6,2.5,3.6
			s6.9,0,6.9,0s3.4,0.1,3.4-2.3c0-2.4,0-2.1,0-2.1s0.3-2.3-4-2.3s-4.8,0-4.8,0s-0.9-0.1-0.9-1.1c0-0.9,0.9-0.9,1.4-0.9
			c0.5,0,3.1,0,3.1,0S158.4,132.4,158.6,133.8z"/>
	</g>
	<g>
		<g>
			<path fill="#BCBEC0" d="M14.5,37.4c1.4,2.4,0.8,4.4-1.7,6c-0.6,0.4-1.5,0.8-2.8,1.3c-0.5-0.7-1-1.5-1.5-2.2
				c1.2-0.3,2-0.6,2.5-0.9c0.5-0.3,0.8-0.7,0.9-1.3c0.1-0.5,0-1.1-0.4-1.6c-3.1-4.9-6.1-9.9-9.2-14.8c1.1-0.7,2.1-1.3,3.2-1.9
				C8.4,27.2,11.4,32.3,14.5,37.4z"/>
			<path fill="#BCBEC0" d="M21.1,25.9c-2.1-4.2-2.9-7.2-2.5-9c0.4-1.7,1.9-3.2,4.3-4.2c2.8-1.2,5-1.2,6.4-0.1
				c1.5,1.1,2.9,3.6,4.3,7.3c1.3,3.4,1.9,5.8,2.1,7.3c0.1,1.4-0.1,2.6-0.8,3.6c-0.6,1-1.7,1.7-3.2,2.4c-1.5,0.7-2.8,0.9-3.9,0.7
				c-1.1-0.2-2.1-0.8-3.1-1.8C23.9,31,22.6,29,21.1,25.9z M30.7,21.8C29.1,18,27.9,15.7,27,15c-0.9-0.7-1.9-0.8-3-0.3
				c-1.3,0.6-1.9,1.5-1.9,2.8c0,1.3,0.6,3.2,1.7,5.7c0.2,0.4,0.3,0.7,0.5,1.1c1.3,2.8,2.4,4.8,3.3,5.9c0.9,1.1,2,1.4,3.3,0.9
				c0.8-0.3,1.3-1,1.6-2c0.3-1-0.2-3.1-1.6-6.5C30.9,22.3,30.8,22.1,30.7,21.8z"/>
			<path fill="#BCBEC0" d="M42.2,6.3c1.2-0.3,2.3-0.6,3.5-0.9c0.7,2.7,1.4,5.5,2.1,8.2c1.7-0.4,3.4-0.8,5.1-1.2
				c-0.6-2.8-1.2-5.5-1.8-8.3c1.2-0.3,2.3-0.5,3.5-0.7c1.4,7.1,2.8,14.2,4.2,21.4c-1,0.2-2,0.4-3,0.6c-0.8-3.5-1.6-7-2.3-10.6
				c-1.7,0.4-3.4,0.8-5,1.2c0.9,3.5,1.8,7,2.7,10.5c-1,0.3-2,0.5-3,0.8C46.1,20.3,44.1,13.3,42.2,6.3z"/>
			<path fill="#BCBEC0" d="M80.2,22.3c-0.8,0-1.6,0.1-2.4,0.1c-2.2-4.9-4.6-9.7-7.2-14.5c0,0-0.1,0-0.1,0c0.5,5,0.9,9.9,1.4,14.9
				c-0.9,0.1-1.8,0.2-2.7,0.3c-0.8-7.2-1.7-14.4-2.5-21.6c0.9-0.1,1.9-0.2,2.8-0.3c2.7,4.7,5.3,9.5,7.6,14.4c0,0,0.1,0,0.1,0
				c-0.3-5-0.5-10-0.8-14.9c1-0.1,2.1-0.1,3.1-0.1C79.7,7.8,80,15,80.2,22.3z"/>
			<path fill="#BCBEC0" d="M100.6,4.1c-1.1-0.6-2.1-1-3-1.1c-0.9-0.1-1.7,0.1-2.4,0.6c-0.7,0.5-1,1.1-1.1,1.9c0,0.5,0.1,1.1,0.5,1.8
				c0.3,0.6,1.1,1.7,2.3,3.2c1.2,1.5,2,2.7,2.6,3.8c0.6,1.1,0.8,2.2,0.6,3.5c-0.2,1.6-0.8,2.9-2,3.8c-1.1,0.9-2.5,1.3-4.1,1.2
				c-0.9-0.1-2-0.4-3.3-1c0-0.9,0.1-1.7,0.1-2.6c0,0,0.1,0,0.1,0.1c0.2,0.1,0.6,0.3,1.1,0.6c0.6,0.3,1.1,0.4,1.7,0.5
				c0.9,0.1,1.7-0.2,2.3-0.7c0.6-0.5,1-1.2,1.1-2.1c0.1-0.6,0-1.2-0.3-1.7c-0.3-0.5-0.8-1.3-1.5-2.3c-0.7-0.9-1.4-1.7-2-2.6
				c-0.8-1-1.4-1.9-1.8-2.7c-0.4-0.8-0.6-1.7-0.5-2.8c0.1-1.6,0.7-2.9,1.8-3.8c1.2-0.9,2.7-1.3,4.5-1.2c1.2,0.1,2.5,0.5,3.7,1.1
				C100.7,2.5,100.6,3.3,100.6,4.1z"/>
			<path fill="#BCBEC0" d="M111.2,13.7c0.9-4.6,2-7.6,3.3-8.7c1.4-1.1,3.4-1.5,5.9-0.9c2.9,0.7,4.7,2,5.2,3.7
				c0.5,1.8,0.2,4.6-0.9,8.5c-1,3.5-1.9,5.8-2.6,7.1c-0.8,1.2-1.7,2.1-2.7,2.5c-1.1,0.4-2.4,0.4-3.9,0c-1.6-0.4-2.8-0.9-3.5-1.7
				c-0.7-0.8-1.2-1.9-1.4-3.3C110.3,19.5,110.5,17.1,111.2,13.7z M121.1,16.1c1-4,1.4-6.5,1.1-7.6c-0.3-1.1-1.1-1.8-2.2-2
				c-1.3-0.3-2.4,0.1-3.1,1.1c-0.7,1-1.4,2.9-2,5.6c-0.1,0.4-0.2,0.8-0.2,1.2c-0.6,3-0.9,5.3-0.8,6.7c0.1,1.5,0.8,2.3,2.1,2.7
				c0.8,0.2,1.6,0,2.4-0.6c0.8-0.6,1.7-2.7,2.6-6.2C121,16.6,121,16.3,121.1,16.1z"/>
			<path fill="#BCBEC0" d="M142,35.1c-0.7-0.4-1.5-0.7-2.2-1c0.2-5.4,0.3-10.8,0.1-16.2c0,0-0.1,0-0.1,0c-1.8,4.6-3.7,9.3-5.5,13.9
				c-0.9-0.3-1.7-0.7-2.6-1c2.5-6.8,5.1-13.6,7.6-20.4c0.9,0.3,1.8,0.7,2.7,1c0.3,5.5,0.4,10.9,0.3,16.3c0,0,0,0,0.1,0
				c2-4.6,4.1-9.1,6.1-13.7c1,0.4,1.9,0.9,2.9,1.3C148.2,21.9,145.1,28.5,142,35.1z"/>
			<path fill="#BCBEC0" d="M169,28.5c-0.7-1.1-1.5-1.9-2.3-2.4c-0.8-0.5-1.6-0.7-2.5-0.6c-0.9,0.1-1.5,0.5-1.9,1.2
				c-0.3,0.5-0.4,1.1-0.4,1.8c0,0.7,0.3,2,0.7,3.9c0.4,1.9,0.6,3.4,0.6,4.6c0,1.2-0.3,2.4-1,3.4c-0.9,1.3-2.1,2.1-3.5,2.4
				c-1.5,0.3-2.9-0.1-4.3-0.9c-0.8-0.5-1.7-1.3-2.6-2.4c0.4-0.8,0.9-1.5,1.3-2.3c0,0,0.1,0.1,0.1,0.1c0.1,0.2,0.4,0.6,0.7,1.1
				c0.4,0.5,0.8,0.9,1.3,1.2c0.8,0.5,1.6,0.7,2.4,0.5c0.8-0.2,1.5-0.6,2-1.4c0.3-0.5,0.5-1.1,0.5-1.7c0-0.6-0.1-1.5-0.4-2.7
				c-0.2-1.1-0.5-2.2-0.7-3.3c-0.3-1.3-0.4-2.3-0.4-3.2c0-0.9,0.3-1.8,0.8-2.7c0.8-1.4,1.9-2.2,3.4-2.5c1.5-0.3,3.1,0.1,4.6,1.1
				c1.1,0.7,2.1,1.6,2.9,2.8C169.8,27.2,169.4,27.9,169,28.5z"/>
		</g>
		<g>
			<path fill="#343465" d="M14.5,37.4c1.4,2.4,0.8,4.4-1.7,6c-0.6,0.4-1.5,0.8-2.8,1.3c-0.5-0.7-1-1.5-1.5-2.2
				c1.2-0.3,2-0.6,2.5-0.9c0.5-0.3,0.8-0.7,0.9-1.3c0.1-0.5,0-1.1-0.4-1.6c-3.1-4.9-6.1-9.9-9.2-14.8c1.1-0.7,2.1-1.3,3.2-1.9
				C8.4,27.2,11.4,32.3,14.5,37.4z"/>
			<path fill="#343465" d="M21.1,25.9c-2.1-4.2-2.9-7.2-2.5-9c0.4-1.7,1.9-3.2,4.3-4.2c2.8-1.2,5-1.2,6.4-0.1
				c1.5,1.1,2.9,3.6,4.3,7.3c1.3,3.4,1.9,5.8,2.1,7.3c0.1,1.4-0.1,2.6-0.8,3.6c-0.6,1-1.7,1.7-3.2,2.4c-1.5,0.7-2.8,0.9-3.9,0.7
				c-1.1-0.2-2.1-0.8-3.1-1.8C23.9,31,22.6,29,21.1,25.9z M30.7,21.8C29.1,18,27.9,15.7,27,15c-0.9-0.7-1.9-0.8-3-0.3
				c-1.3,0.6-1.9,1.5-1.9,2.8c0,1.3,0.6,3.2,1.7,5.7c0.2,0.4,0.3,0.7,0.5,1.1c1.3,2.8,2.4,4.8,3.3,5.9c0.9,1.1,2,1.4,3.3,0.9
				c0.8-0.3,1.3-1,1.6-2c0.3-1-0.2-3.1-1.6-6.5C30.9,22.3,30.8,22.1,30.7,21.8z"/>
			<path fill="#343465" d="M42.2,6.3c1.2-0.3,2.3-0.6,3.5-0.9c0.7,2.7,1.4,5.5,2.1,8.2c1.7-0.4,3.4-0.8,5.1-1.2
				c-0.6-2.8-1.2-5.5-1.8-8.3c1.2-0.3,2.3-0.5,3.5-0.7c1.4,7.1,2.8,14.2,4.2,21.4c-1,0.2-2,0.4-3,0.6c-0.8-3.5-1.6-7-2.3-10.6
				c-1.7,0.4-3.4,0.8-5,1.2c0.9,3.5,1.8,7,2.7,10.5c-1,0.3-2,0.5-3,0.8C46.1,20.3,44.1,13.3,42.2,6.3z"/>
			<path fill="#343465" d="M80.2,22.3c-0.8,0-1.6,0.1-2.4,0.1c-2.2-4.9-4.6-9.7-7.2-14.5c0,0-0.1,0-0.1,0c0.5,5,0.9,9.9,1.4,14.9
				c-0.9,0.1-1.8,0.2-2.7,0.3c-0.8-7.2-1.7-14.4-2.5-21.6c0.9-0.1,1.9-0.2,2.8-0.3c2.7,4.7,5.3,9.5,7.6,14.4c0,0,0.1,0,0.1,0
				c-0.3-5-0.5-10-0.8-14.9c1-0.1,2.1-0.1,3.1-0.1C79.7,7.8,80,15,80.2,22.3z"/>
			<path fill="#343465" d="M100.6,4.1c-1.1-0.6-2.1-1-3-1.1c-0.9-0.1-1.7,0.1-2.4,0.6c-0.7,0.5-1,1.1-1.1,1.9c0,0.5,0.1,1.1,0.5,1.8
				c0.3,0.6,1.1,1.7,2.3,3.2c1.2,1.5,2,2.7,2.6,3.8c0.6,1.1,0.8,2.2,0.6,3.5c-0.2,1.6-0.8,2.9-2,3.8c-1.1,0.9-2.5,1.3-4.1,1.2
				c-0.9-0.1-2-0.4-3.3-1c0-0.9,0.1-1.7,0.1-2.6c0,0,0.1,0,0.1,0.1c0.2,0.1,0.6,0.3,1.1,0.6c0.6,0.3,1.1,0.4,1.7,0.5
				c0.9,0.1,1.7-0.2,2.3-0.7c0.6-0.5,1-1.2,1.1-2.1c0.1-0.6,0-1.2-0.3-1.7c-0.3-0.5-0.8-1.3-1.5-2.3c-0.7-0.9-1.4-1.7-2-2.6
				c-0.8-1-1.4-1.9-1.8-2.7c-0.4-0.8-0.6-1.7-0.5-2.8c0.1-1.6,0.7-2.9,1.8-3.8c1.2-0.9,2.7-1.3,4.5-1.2c1.2,0.1,2.5,0.5,3.7,1.1
				C100.7,2.5,100.6,3.3,100.6,4.1z"/>
			<path fill="#343465" d="M111.2,13.7c0.9-4.6,2-7.6,3.3-8.7c1.4-1.1,3.4-1.5,5.9-0.9c2.9,0.7,4.7,2,5.2,3.7
				c0.5,1.8,0.2,4.6-0.9,8.5c-1,3.5-1.9,5.8-2.6,7.1c-0.8,1.2-1.7,2.1-2.7,2.5c-1.1,0.4-2.4,0.4-3.9,0c-1.6-0.4-2.8-0.9-3.5-1.7
				c-0.7-0.8-1.2-1.9-1.4-3.3C110.3,19.5,110.5,17.1,111.2,13.7z M121.1,16.1c1-4,1.4-6.5,1.1-7.6c-0.3-1.1-1.1-1.8-2.2-2
				c-1.3-0.3-2.4,0.1-3.1,1.1c-0.7,1-1.4,2.9-2,5.6c-0.1,0.4-0.2,0.8-0.2,1.2c-0.6,3-0.9,5.3-0.8,6.7c0.1,1.5,0.8,2.3,2.1,2.7
				c0.8,0.2,1.6,0,2.4-0.6c0.8-0.6,1.7-2.7,2.6-6.2C121,16.6,121,16.3,121.1,16.1z"/>
			<path fill="#343465" d="M142,35.1c-0.7-0.4-1.5-0.7-2.2-1c0.2-5.4,0.3-10.8,0.1-16.2c0,0-0.1,0-0.1,0c-1.8,4.6-3.7,9.3-5.5,13.9
				c-0.9-0.3-1.7-0.7-2.6-1c2.5-6.8,5.1-13.6,7.6-20.4c0.9,0.3,1.8,0.7,2.7,1c0.3,5.5,0.4,10.9,0.3,16.3c0,0,0,0,0.1,0
				c2-4.6,4.1-9.1,6.1-13.7c1,0.4,1.9,0.9,2.9,1.3C148.2,21.9,145.1,28.5,142,35.1z"/>
			<path fill="#343465" d="M169,28.5c-0.7-1.1-1.5-1.9-2.3-2.4c-0.8-0.5-1.6-0.7-2.5-0.6c-0.9,0.1-1.5,0.5-1.9,1.2
				c-0.3,0.5-0.4,1.1-0.4,1.8c0,0.7,0.3,2,0.7,3.9c0.4,1.9,0.6,3.4,0.6,4.6c0,1.2-0.3,2.4-1,3.4c-0.9,1.3-2.1,2.1-3.5,2.4
				c-1.5,0.3-2.9-0.1-4.3-0.9c-0.8-0.5-1.7-1.3-2.6-2.4c0.4-0.8,0.9-1.5,1.3-2.3c0,0,0.1,0.1,0.1,0.1c0.1,0.2,0.4,0.6,0.7,1.1
				c0.4,0.5,0.8,0.9,1.3,1.2c0.8,0.5,1.6,0.7,2.4,0.5c0.8-0.2,1.5-0.6,2-1.4c0.3-0.5,0.5-1.1,0.5-1.7c0-0.6-0.1-1.5-0.4-2.7
				c-0.2-1.1-0.5-2.2-0.7-3.3c-0.3-1.3-0.4-2.3-0.4-3.2c0-0.9,0.3-1.8,0.8-2.7c0.8-1.4,1.9-2.2,3.4-2.5c1.5-0.3,3.1,0.1,4.6,1.1
				c1.1,0.7,2.1,1.6,2.9,2.8C169.8,27.2,169.4,27.9,169,28.5z"/>
		</g>
		<g>
			<path fill="none" stroke="#343465" d="M14.5,37.4c1.4,2.4,0.8,4.4-1.7,6c-0.6,0.4-1.5,0.8-2.8,1.3c-0.5-0.7-1-1.5-1.5-2.2
				c1.2-0.3,2-0.6,2.5-0.9c0.5-0.3,0.8-0.7,0.9-1.3c0.1-0.5,0-1.1-0.4-1.6c-3.1-4.9-6.1-9.9-9.2-14.8c1.1-0.7,2.1-1.3,3.2-1.9
				C8.4,27.2,11.4,32.3,14.5,37.4z"/>
			<path fill="none" stroke="#343465" d="M21.1,25.9c-2.1-4.2-2.9-7.2-2.5-9c0.4-1.7,1.9-3.2,4.3-4.2c2.8-1.2,5-1.2,6.4-0.1
				c1.5,1.1,2.9,3.6,4.3,7.3c1.3,3.4,1.9,5.8,2.1,7.3c0.1,1.4-0.1,2.6-0.8,3.6c-0.6,1-1.7,1.7-3.2,2.4c-1.5,0.7-2.8,0.9-3.9,0.7
				c-1.1-0.2-2.1-0.8-3.1-1.8C23.9,31,22.6,29,21.1,25.9z M30.7,21.8C29.1,18,27.9,15.7,27,15c-0.9-0.7-1.9-0.8-3-0.3
				c-1.3,0.6-1.9,1.5-1.9,2.8c0,1.3,0.6,3.2,1.7,5.7c0.2,0.4,0.3,0.7,0.5,1.1c1.3,2.8,2.4,4.8,3.3,5.9c0.9,1.1,2,1.4,3.3,0.9
				c0.8-0.3,1.3-1,1.6-2c0.3-1-0.2-3.1-1.6-6.5C30.9,22.3,30.8,22.1,30.7,21.8z"/>
			<path fill="none" stroke="#343465" d="M42.2,6.3c1.2-0.3,2.3-0.6,3.5-0.9c0.7,2.7,1.4,5.5,2.1,8.2c1.7-0.4,3.4-0.8,5.1-1.2
				c-0.6-2.8-1.2-5.5-1.8-8.3c1.2-0.3,2.3-0.5,3.5-0.7c1.4,7.1,2.8,14.2,4.2,21.4c-1,0.2-2,0.4-3,0.6c-0.8-3.5-1.6-7-2.3-10.6
				c-1.7,0.4-3.4,0.8-5,1.2c0.9,3.5,1.8,7,2.7,10.5c-1,0.3-2,0.5-3,0.8C46.1,20.3,44.1,13.3,42.2,6.3z"/>
			<path fill="none" stroke="#343465" d="M80.2,22.3c-0.8,0-1.6,0.1-2.4,0.1c-2.2-4.9-4.6-9.7-7.2-14.5c0,0-0.1,0-0.1,0
				c0.5,5,0.9,9.9,1.4,14.9c-0.9,0.1-1.8,0.2-2.7,0.3c-0.8-7.2-1.7-14.4-2.5-21.6c0.9-0.1,1.9-0.2,2.8-0.3c2.7,4.7,5.3,9.5,7.6,14.4
				c0,0,0.1,0,0.1,0c-0.3-5-0.5-10-0.8-14.9c1-0.1,2.1-0.1,3.1-0.1C79.7,7.8,80,15,80.2,22.3z"/>
			<path fill="none" stroke="#343465" d="M100.6,4.1c-1.1-0.6-2.1-1-3-1.1c-0.9-0.1-1.7,0.1-2.4,0.6c-0.7,0.5-1,1.1-1.1,1.9
				c0,0.5,0.1,1.1,0.5,1.8c0.3,0.6,1.1,1.7,2.3,3.2c1.2,1.5,2,2.7,2.6,3.8c0.6,1.1,0.8,2.2,0.6,3.5c-0.2,1.6-0.8,2.9-2,3.8
				c-1.1,0.9-2.5,1.3-4.1,1.2c-0.9-0.1-2-0.4-3.3-1c0-0.9,0.1-1.7,0.1-2.6c0,0,0.1,0,0.1,0.1c0.2,0.1,0.6,0.3,1.1,0.6
				c0.6,0.3,1.1,0.4,1.7,0.5c0.9,0.1,1.7-0.2,2.3-0.7c0.6-0.5,1-1.2,1.1-2.1c0.1-0.6,0-1.2-0.3-1.7c-0.3-0.5-0.8-1.3-1.5-2.3
				c-0.7-0.9-1.4-1.7-2-2.6c-0.8-1-1.4-1.9-1.8-2.7c-0.4-0.8-0.6-1.7-0.5-2.8c0.1-1.6,0.7-2.9,1.8-3.8c1.2-0.9,2.7-1.3,4.5-1.2
				c1.2,0.1,2.5,0.5,3.7,1.1C100.7,2.5,100.6,3.3,100.6,4.1z"/>
			<path fill="none" stroke="#343465" d="M111.2,13.7c0.9-4.6,2-7.6,3.3-8.7c1.4-1.1,3.4-1.5,5.9-0.9c2.9,0.7,4.7,2,5.2,3.7
				c0.5,1.8,0.2,4.6-0.9,8.5c-1,3.5-1.9,5.8-2.6,7.1c-0.8,1.2-1.7,2.1-2.7,2.5c-1.1,0.4-2.4,0.4-3.9,0c-1.6-0.4-2.8-0.9-3.5-1.7
				c-0.7-0.8-1.2-1.9-1.4-3.3C110.3,19.5,110.5,17.1,111.2,13.7z M121.1,16.1c1-4,1.4-6.5,1.1-7.6c-0.3-1.1-1.1-1.8-2.2-2
				c-1.3-0.3-2.4,0.1-3.1,1.1c-0.7,1-1.4,2.9-2,5.6c-0.1,0.4-0.2,0.8-0.2,1.2c-0.6,3-0.9,5.3-0.8,6.7c0.1,1.5,0.8,2.3,2.1,2.7
				c0.8,0.2,1.6,0,2.4-0.6c0.8-0.6,1.7-2.7,2.6-6.2C121,16.6,121,16.3,121.1,16.1z"/>
			<path fill="none" stroke="#343465" d="M142,35.1c-0.7-0.4-1.5-0.7-2.2-1c0.2-5.4,0.3-10.8,0.1-16.2c0,0-0.1,0-0.1,0
				c-1.8,4.6-3.7,9.3-5.5,13.9c-0.9-0.3-1.7-0.7-2.6-1c2.5-6.8,5.1-13.6,7.6-20.4c0.9,0.3,1.8,0.7,2.7,1c0.3,5.5,0.4,10.9,0.3,16.3
				c0,0,0,0,0.1,0c2-4.6,4.1-9.1,6.1-13.7c1,0.4,1.9,0.9,2.9,1.3C148.2,21.9,145.1,28.5,142,35.1z"/>
			<path fill="none" stroke="#343465" d="M169,28.5c-0.7-1.1-1.5-1.9-2.3-2.4c-0.8-0.5-1.6-0.7-2.5-0.6c-0.9,0.1-1.5,0.5-1.9,1.2
				c-0.3,0.5-0.4,1.1-0.4,1.8c0,0.7,0.3,2,0.7,3.9c0.4,1.9,0.6,3.4,0.6,4.6c0,1.2-0.3,2.4-1,3.4c-0.9,1.3-2.1,2.1-3.5,2.4
				c-1.5,0.3-2.9-0.1-4.3-0.9c-0.8-0.5-1.7-1.3-2.6-2.4c0.4-0.8,0.9-1.5,1.3-2.3c0,0,0.1,0.1,0.1,0.1c0.1,0.2,0.4,0.6,0.7,1.1
				c0.4,0.5,0.8,0.9,1.3,1.2c0.8,0.5,1.6,0.7,2.4,0.5c0.8-0.2,1.5-0.6,2-1.4c0.3-0.5,0.5-1.1,0.5-1.7c0-0.6-0.1-1.5-0.4-2.7
				c-0.2-1.1-0.5-2.2-0.7-3.3c-0.3-1.3-0.4-2.3-0.4-3.2c0-0.9,0.3-1.8,0.8-2.7c0.8-1.4,1.9-2.2,3.4-2.5c1.5-0.3,3.1,0.1,4.6,1.1
				c1.1,0.7,2.1,1.6,2.9,2.8C169.8,27.2,169.4,27.9,169,28.5z"/>
		</g>
	</g>
</g>
</svg>
