<?xml version="1.0" encoding="utf-8"?>
<!-- Generator: Adobe Illustrator 18.1.1, SVG Export Plug-In . SVG Version: 6.00 Build 0)  -->
<svg version="1.1" id="Layer_1" xmlns="http://www.w3.org/2000/svg" xmlns:xlink="http://www.w3.org/1999/xlink" x="0px" y="0px"
	 viewBox="0 0 134 124.5" enable-background="new 0 0 134 124.5" xml:space="preserve">
<g>
	<g>
		<g>
			<g>
				<path d="M114.5,88.6c0,0-3.6,0.2-5.9,2.8c0,0-0.8-1.8-3-2.2c-2.2-0.4-3.2,0-3.2,0s1.6-4.6-2-10.4C96.8,73,80,54.1,80,54.1
					s0.2-1.7,1.9-0.9c1.6,0.8,5.8,7,16.2,6.8c0,0,7-0.3,5.9-7.2c0,0-0.7-0.7-1,0.3c-0.3,1-1,2.1-1,2.1s-0.6-2.4-1.3-2.6
					c-0.7-0.1,0.9,4.3-3.7,4.7c-4.6,0.4-8.7,0.3-12.6-4.2c0,0,6.9-0.7,6.7-3.4c-0.2-2.7,0-9,0-9s0.5-1.4,2.9-4
					c2.4-2.5,5.7-8.3,5.9-11.5c0.2-3.1-0.2-8.2-5.5-6.3c0,0,1.8-3.5,2.6-3.5s9.5,4.1,12.7,9.1c3.2,5,3.7,6.7,6.7,6.7
					c3,0,4.8-4.6,5.3-7.9c0.5-3.2-0.4-6.5-2.7-9.1c-2.4-2.6-13.4-11.7-15.9-13.3c-1.3-0.8-4-1.3-6.6-1.2
					c-6.9,8.8-11.7,17.8-11.7,17.8l-1.1-0.7c5-8.9,9.4-14.7,11.3-17c-1.8,0.2-3.4,0.8-4.4,1.7c-2.6,2.6-9.5,14.8-9.5,14.8
					s-5.9-4.3-16-4.9c0,0-9.6,0.6-15.2,1.1c-5.6,0.6-6.8-0.2-8-2.3c-1.2-2.1-3.2-5.9-6.3-8.1c-1-0.7-2.2-1.3-3.7-1.5
					c2,2.3,6.1,7.2,7.8,11.2l-1,0.1c0,0-4.9-8.4-8.7-11.4c-2.5,0.1-5.5,1.1-8.6,3.4c-5.8,4.4-15.3,13.2-16,15.5
					C4.8,22.1,6.4,29,7.9,30.9c1.5,1.9,4.2,2.6,5.9,0c1.7-2.6,9.8-12.2,15.1-13.4c0,0-5.3,7.6,1.7,18.5C37.7,46.9,53,60,55.2,61.6
					l-5.1,9.5c0,0-5.1-7.4-6.6,4.4c0,0-6.8,2-11.4,8.8H15.4c0,0-7.1,0.2-8.6,5.8c-1.5,5.7-6.5,26.3-6.5,26.3s-2.4,8,5.1,8
					c7.5,0,10.8,0,10.8,0s3.2,0.3,6.3-3c0,0,1.3,3,4.2,3c2.9,0,8.8,0,8.8,0s4.1,0,5.3-1.6c0,0-0.8,1.6,1.3,1.6c2.1,0,13.1,0,13.1,0
					s3.9,0.1,4.9-1.2v1.2h54.6c0,0,6.5,0.6,8.3-6.2c1.9-6.7,7.6-29.7,7.6-29.7H114.5z"/>
			</g>
			<g>
				<path fill="#F47932" d="M85.1,21.2c0,0,4.3,0.9,7.5,0.9c3.2,0,4.3,0,4.3,0s0.2,10.5-7.3,14.8c0,0-0.3-2.3,0.7-3.6
					c1-1.4,2.4-4.4,2.6-5.6c0.2-1.1,0-1.9,0.6-2.3c0.6-0.3,0.2-1.4-1.8-0.6c-2,0.8-2.6,1.8-2.6,1.8S88.3,23.6,85.1,21.2z"/>
			</g>
			<g>
				<path fill="#F47932" d="M88,39.9l-1.7-0.7c5.5-13.4-3.1-19.6-12.5-22.9c-9.4-3.3-20.3-1.1-20.3-1.1l7.3,4.1
					c-6-3.5-23.6-6.4-28.4-1.9c-4.9,4.4-2.9,13.8,6.8,25.3c9.7,11.5,16.5,14.9,16.5,14.9S36.5,38.3,33.3,29.1
					c-3.2-9.2,2.3-13.8,13.8-10.7s19.7,13,19.7,13l-2.8,0.2c1.8,7.7,7.4,12.4,11.9,15.8c4.6,3.4,9.9,3.6,11.4,1.6
					C88.7,46.9,88,39.9,88,39.9z M71.4,21.2c3.8-1.1,5.9,1.9,6,5.3c0.1,3.4,1.1,7.5,1.1,7.5c-2.7-1.8-2.7-4.6-3.1-7.3
					c-0.3-2.7-0.8-3.5-2.6-4.1C71.1,22.1,71.4,21.2,71.4,21.2z M73,36.9c-6.1-3.2-3.8-6.4-2.8-6.9c0.9-0.6,1.2-5,1.2-5
					s0.5-0.8,1.4,6c0.9,6.8,6.4,9.1,6.4,9.1C75.1,40.3,73,36.9,73,36.9z M82,48.6c0,0,0.6-1.2-0.9-3.4c0,0,1.4-0.3,1.9,1.4
					C83.4,48.3,82,48.6,82,48.6z"/>
			</g>
			<g>
				<rect x="69.8" y="30.9" fill="#FFFFFF" width="1.3" height="1.2"/>
			</g>
			<g>
				<path fill="#F47932" d="M53.3,34.2c0,0-3,2.5-2.9,6.4c0,0-2.9-5-2.9-7.4c0,0-2.4,3.2,2.3,12.1c0,0-6.5-4.2-7.9-13.2
					c0,0-2.6,1.5,2.5,10.2c5.1,8.8,11.2,11.8,11.2,11.8s-0.2-1.5-0.9-2.9C54.1,49.9,51.6,44.3,53.3,34.2z"/>
			</g>
			<g>
				<polygon fill="#FFFFFF" points="57.5,64.1 58.5,64.8 53,74.5 52,73.8 				"/>
			</g>
			<g>
				<path fill="#FFFFFF" d="M56.5,36.9c0,0-2.7,12.9,6.1,21.5c8.7,8.6,11,10,15.3,12.9c4.3,3,12.6,9.4,12.6,17.9h1.2
					c0,0,0.4-2.2,0-3.3c0,0,1.2,1.2,1.5,2.7h3.6c0,0,2.9-0.8,2.9-1.8c0-1-0.9-5.6-4.5-9.7l-7.7,1.4c0,0-2.8-3.5-4.2-4.7
					c0,0,1.1-0.7,1.7,0c0.6,0.7,1.7,1.7,1.7,1.7l5.9-1.8c0,0-4.1-5.5-6.3-7.1l-10.8,0.9l-6.5-4.9c0,0,0-0.5,2.4,0.4
					c2.4,0.9,2.5,1,5.5,1c3.1,0,7.1,0,7.1,0s-5.4-6.9-6.7-8c0,0-7.8,0.1-13.1-1.1c-5.3-1.3-6.5-8.3-6.5-10c0,0,1.5,5.5,8.7,6.8
					c7.2,1.2,9.1,0.8,9.1,0.8s-2.2-2.1-5.9-3.8C66.1,47,60,43.5,56.5,36.9z"/>
			</g>
			<g>
				<path fill="#F47932" d="M56.6,83.6c0,0-5.6-4.9-8.1-9.7c0,0-1.4,3.1,1.5,6.8C52.9,84.4,56.6,83.6,56.6,83.6z"/>
			</g>
			<g>
				<path fill="#F47932" d="M43.4,81.2l2.3-0.4c0,0,0.1-2-1.1-2c-1.2,0-9.7,2.6-11.1,10H42l1.2-2.8c0,0,4.3,2.8,9.9,2.8
					c5.5,0,12.7,0,12.7,0l2.5,1.3l0.6-1.6H83v-0.6c0,0-1.5-0.7-1.6-1.1c-0.1-0.4,0.7-3.6,0.7-3.6l1.5,0.5c0,0-2.2-6.4-5.2-7.7
					c-3.1-1.2-3.2,0.1-1.8,1.4c1.3,1.3,3.8,6,1.4,8.8v-1.8C78,84.4,54.2,89.3,43.4,81.2z"/>
			</g>
			<g>
				<g>
					<path fill="#FFFFFF" d="M26.1,13.8c0,0-2.6-6.2-2.9-7.8l-3.4,2.2c0,0,0.9,4.9,2.7,7.5L26.1,13.8z"/>
				</g>
				<g>
					<path fill="#FFFFFF" d="M20.8,17.1c0,0-2.4-6.1-2.4-7.9l-3.5,3.3c0,0,0.4,4.1,2.5,7.9L20.8,17.1z"/>
				</g>
				<g>
					<path fill="#FFFFFF" d="M15.8,21.8c0,0-2-5.8-2.3-8.1l-2.7,2.6c0,0-0.6,4.8,1.7,9L15.8,21.8z"/>
				</g>
				<g>
					<path fill="#FFFFFF" d="M24,17.7l-0.5-0.9c1.4-0.8,3.7-2,3.8-2l0.5,0.9C27.7,15.7,25.4,17,24,17.7L24,17.7z"/>
				</g>
				<g>
					<path fill="#FFFFFF" d="M19.2,21.7l-0.7-0.8c1-1,3.4-2.7,3.5-2.8l0.6,0.8C22.6,19,20.2,20.8,19.2,21.7L19.2,21.7z"/>
				</g>
				<g>
					<path fill="#FFFFFF" d="M14.3,27l-0.8-0.7c0.4-0.5,3.4-3.3,3.8-3.6l0.7,0.8C16.7,24.7,14.6,26.6,14.3,27L14.3,27z"/>
				</g>
			</g>
			<g>
				<g>
					<path fill="#FFFFFF" d="M100.9,12.8c0,0,2.6-6.2,2.9-7.8l3.4,2.2c0,0-0.9,4.9-2.7,7.5L100.9,12.8z"/>
				</g>
				<g>
					<path fill="#FFFFFF" d="M106.2,16.1c0,0,2.4-6.1,2.4-7.9l3.5,3.3c0,0-0.4,4.1-2.5,7.9L106.2,16.1z"/>
				</g>
				<g>
					<path fill="#FFFFFF" d="M111.3,20.8c0,0,2-5.8,2.3-8.1l2.7,2.6c0,0,0.6,4.8-1.7,9L111.3,20.8z"/>
				</g>
				<g>
					<path fill="#FFFFFF" d="M103.1,16.8l0.5-0.9c-1.4-0.8-3.7-2-3.8-2l-0.5,0.9C99.4,14.8,101.7,16,103.1,16.8L103.1,16.8z"/>
				</g>
				<g>
					<path fill="#FFFFFF" d="M107.9,20.7l0.7-0.8c-1-1-3.4-2.7-3.5-2.8l-0.6,0.8C104.5,18,106.9,19.8,107.9,20.7L107.9,20.7z"/>
				</g>
				<g>
					<path fill="#FFFFFF" d="M112.7,26l0.8-0.7c-0.4-0.5-3.4-3.3-3.8-3.6l-0.7,0.8C110.4,23.7,112.5,25.7,112.7,26L112.7,26z"/>
				</g>
			</g>
			<g>
				<g>
					<path fill="#FFFFFF" d="M26.2,99.3l3.1-12.3H15c0,0-4.1-0.6-5.9,5.1c-1.7,5.7-6,24.7-6,24.7s-2,4.9,3,5.3h10
						c0,0,4.5-0.1,5.8-4.1c1.3-4.1,2-8.8,2-8.8H16l-1.7,7h-3.2L16,95c0,0,0.4-2.3,1.9-2.3c1.5,0,2.2,0.3,1.9,1.5
						c-0.3,1.2-1,5.1-1,5.1L26.2,99.3z"/>
				</g>
				<g>
					<path fill="#FFFFFF" d="M43.9,90.9c-4.3,0-8.4,0-8.4,0s-3.5-0.4-5.2,5l-5.3,21.9c0,0-1.5,4.4,2.7,4.4c4.1,0,8.9,0,8.9,0
						s3.9,0.5,5.3-5.2c1.4-5.8,4.9-21,4.9-21S48.2,90.9,43.9,90.9z M39.7,98.8c0,0-3.2,13.6-3.9,15.8c-0.7,2.2-1.3,2.4-2.8,2.3
						c-1.5-0.1-0.8-2.3-0.8-2.3l4.4-17.3c0,0,0.5-1.4,2.1-0.9C40.4,96.8,39.7,98.8,39.7,98.8z"/>
				</g>
				<g>
					<path fill="#FFFFFF" d="M63.9,90.9c-4.4,0-12.5,0-12.5,0l-7.9,31.3h13.9c0,0,3.1,0.1,4.1-4.1c1-4.1,1.8-7.5,1.8-7.5
						s1.2-3.1-2.7-3.9l0.1-1.2c0,0,2.9,0.3,3.6-1.8c0.7-2.1,2.7-8.5,2.7-8.5S68.3,90.9,63.9,90.9z M54.7,116.4h-2.8l1.8-7.5h2.9
						L54.7,116.4z M57.6,104.1h-2.8l1.8-7.5h2.9L57.6,104.1z"/>
				</g>
				<g>
					<path fill="#FFFFFF" d="M83.6,91.2c-4.1,0-12.9,0-12.9,0l-7.7,31H70l3.1-12h3.1l-3.2,12h6.9l2.6-9.6c0,0,1.1-3.5-2.6-4.1
						l0.1-1.1c0,0,2.6,0.8,4.1-2.7c1.5-3.6,2.5-8.5,2.5-8.5S87.8,91.2,83.6,91.2z M77.3,105.6H74l2.4-9h3L77.3,105.6z"/>
				</g>
				<g>
					<path fill="#FFFFFF" d="M103.2,91.2c-4.6,0-8.7,0-8.7,0s-3.9-0.4-5,3.7c-1.2,4.1-6.9,27.3-6.9,27.3h7.2l3-11.8h3.2l-3.1,11.8h7
						l6.4-26.3C106.2,95.9,107.8,91.2,103.2,91.2z M97.2,105.7h-3.4l2.5-9.1h3.1L97.2,105.7z"/>
				</g>
				<g>
					<path fill="#FFFFFF" d="M115.8,96.4h3.4l-1.3,5.1h6.5l2.6-10.3h-12.6c0,0-3.9-0.3-5.1,4.1c-1.2,4.4-3.7,14.1-3.7,14.1h10.7
						l-2.5,7.4h-3l1.2-4.8h-6.7l-2.5,10.2h12.9c0,0,3.8,0,5.2-4.9c1.4-4.8,3-13.3,3-13.3h-9.9L115.8,96.4z"/>
				</g>
			</g>
		</g>
	</g>
	<g>
		<path fill="#F47932" stroke="#000000" stroke-width="5.0757" stroke-miterlimit="10" d="M37.2,78.3h1.8l-0.9,3.3l3.5-3.3H44
			l-4.8,4.4l2.7,5.3h-2l-2.2-4.3L36.4,88h-1.8L37.2,78.3z"/>
		<path fill="#F47932" stroke="#000000" stroke-width="5.0757" stroke-miterlimit="10" d="M50.1,78.1c1.3,0,2.4,0.4,3.1,1.3
			c0.8,0.9,1,1.9,0.9,3.3c-0.1,1-0.5,2-1.1,2.9c-0.6,0.9-1.4,1.6-2.3,2.1c-0.9,0.5-1.9,0.7-3,0.7c-1.4,0-2.4-0.4-3.2-1.2
			c-0.7-0.8-1-1.9-0.8-3.2c0.2-1.5,0.9-2.8,2-3.9C46.9,78.7,48.4,78.1,50.1,78.1z M49.8,79.8c-0.7,0-1.4,0.2-2,0.5
			c-0.6,0.3-1.1,0.8-1.6,1.5c-0.4,0.6-0.7,1.3-0.8,2c-0.1,0.8,0.1,1.5,0.5,2s1.1,0.8,2,0.8c1.1,0,2-0.4,2.9-1.1
			c0.8-0.7,1.3-1.7,1.5-2.7c0.1-0.9-0.1-1.6-0.5-2.1C51.3,80,50.6,79.8,49.8,79.8z"/>
		<path fill="#F47932" stroke="#000000" stroke-width="5.0757" stroke-miterlimit="10" d="M55.7,78.3h5.9L61.2,80h-2L57,88h-1.8
			l2.1-8h-2.1L55.7,78.3z"/>
		<path fill="#F47932" stroke="#000000" stroke-width="5.0757" stroke-miterlimit="10" d="M67.4,79.7l-1.5,1.2
			c-0.5-0.7-0.9-1.1-1.4-1.1c-0.2,0-0.4,0.1-0.6,0.2c-0.2,0.1-0.3,0.3-0.3,0.5c0,0.2,0,0.4,0.1,0.6c0.1,0.2,0.5,0.7,1.1,1.5
			c0.3,0.4,0.5,0.7,0.6,0.9c0.2,0.4,0.4,0.8,0.5,1.1c0.1,0.3,0.1,0.7,0.1,1c-0.1,0.8-0.5,1.4-1.1,2s-1.4,0.8-2.2,0.8
			c-1.3,0-2.3-0.6-3-1.9l1.5-1.1c0.5,0.9,1,1.3,1.7,1.3c0.3,0,0.6-0.1,0.8-0.3c0.2-0.2,0.4-0.4,0.4-0.7c0-0.2,0-0.5-0.1-0.7
			c-0.1-0.2-0.4-0.7-0.9-1.3c-0.6-0.7-0.9-1.2-1.1-1.5c-0.2-0.5-0.3-0.9-0.2-1.4c0.1-0.6,0.3-1.1,0.8-1.6c0.6-0.6,1.3-0.9,2.1-0.9
			C65.8,78.1,66.7,78.6,67.4,79.7z"/>
		<path fill="#F47932" stroke="#000000" stroke-width="5.0757" stroke-miterlimit="10" d="M74.1,78.1c1.3,0,2.4,0.4,3.1,1.3
			c0.8,0.9,1,1.9,0.9,3.3c-0.1,1-0.5,2-1.1,2.9c-0.6,0.9-1.4,1.6-2.3,2.1c-0.9,0.5-1.9,0.7-3,0.7c-1.4,0-2.4-0.4-3.2-1.2
			c-0.7-0.8-1-1.9-0.8-3.2c0.2-1.5,0.9-2.8,2-3.9C70.9,78.7,72.4,78.1,74.1,78.1z M73.8,79.8c-0.7,0-1.4,0.2-2,0.5s-1.1,0.8-1.6,1.5
			c-0.4,0.6-0.7,1.3-0.8,2c-0.1,0.8,0.1,1.5,0.5,2s1.1,0.8,2,0.8c1.1,0,2-0.4,2.9-1.1c0.8-0.7,1.3-1.7,1.5-2.7
			c0.1-0.9-0.1-1.6-0.5-2.1C75.3,80,74.7,79.8,73.8,79.8z"/>
		<path fill="#F47932" stroke="#000000" stroke-width="5.0757" stroke-miterlimit="10" d="M81,78.3h1.7c1,0,1.8,0.1,2.2,0.3
			c0.5,0.2,0.9,0.5,1.1,0.9c0.2,0.4,0.3,0.9,0.2,1.4c-0.1,0.6-0.3,1.1-0.7,1.6c-0.4,0.5-0.9,0.8-1.4,1c-0.6,0.2-1.5,0.3-2.7,0.4
			L80.2,88h-1.8L81,78.3z M81.8,82.2c1,0,1.6-0.1,2-0.3c0.3-0.2,0.5-0.5,0.6-0.9c0-0.2,0-0.4-0.1-0.6c-0.1-0.2-0.3-0.3-0.5-0.3
			C83.5,80,83.1,80,82.4,80L81.8,82.2z"/>
		<path fill="#F47932" stroke="#000000" stroke-width="5.0757" stroke-miterlimit="10" d="M93.1,78.1c1.3,0,2.4,0.4,3.1,1.3
			c0.8,0.9,1,1.9,0.9,3.3c-0.1,1-0.5,2-1.1,2.9c-0.6,0.9-1.4,1.6-2.3,2.1c-0.9,0.5-1.9,0.7-3,0.7c-1.4,0-2.4-0.4-3.2-1.2
			c-0.7-0.8-1-1.9-0.8-3.2c0.2-1.5,0.9-2.8,2-3.9C89.9,78.7,91.4,78.1,93.1,78.1z M92.8,79.8c-0.7,0-1.4,0.2-2,0.5s-1.1,0.8-1.6,1.5
			c-0.4,0.6-0.7,1.3-0.8,2c-0.1,0.8,0.1,1.5,0.5,2s1.1,0.8,2,0.8c1.1,0,2-0.4,2.9-1.1c0.8-0.7,1.3-1.7,1.5-2.7
			c0.1-0.9-0.1-1.6-0.5-2.1C94.3,80,93.6,79.8,92.8,79.8z"/>
		<path fill="#F47932" stroke="#000000" stroke-width="5.0757" stroke-miterlimit="10" d="M99.9,78.3h1.8l-1.6,6
			c-0.1,0.5-0.2,0.9-0.3,1.1c0,0.4,0,0.7,0.2,0.9c0.2,0.2,0.5,0.3,0.9,0.3c0.3,0,0.7-0.1,0.9-0.2c0.2-0.1,0.4-0.3,0.5-0.6
			c0.2-0.3,0.3-0.8,0.5-1.6l1.6-5.9h1.8l-1.5,5.8c-0.3,1.2-0.6,2-1,2.6c-0.3,0.5-0.8,0.9-1.3,1.2c-0.5,0.3-1.2,0.4-1.9,0.4
			c-1,0-1.7-0.3-2.2-0.8c-0.5-0.5-0.7-1.2-0.5-2.1c0.1-0.4,0.2-1,0.4-1.7L99.9,78.3z"/>
		<path fill="#F47932" stroke="#000000" stroke-width="5.0757" stroke-miterlimit="10" d="M108.6,78.3h1.8l-2.2,8h3l-0.4,1.7H106
			L108.6,78.3z"/>
		<path fill="#F47932" stroke="#000000" stroke-width="5.0757" stroke-miterlimit="10" d="M119,78.1c1.3,0,2.4,0.4,3.1,1.3
			c0.8,0.9,1,1.9,0.9,3.3c-0.1,1-0.5,2-1.1,2.9c-0.6,0.9-1.4,1.6-2.3,2.1c-0.9,0.5-1.9,0.7-3,0.7c-1.4,0-2.4-0.4-3.2-1.2
			c-0.7-0.8-1-1.9-0.8-3.2c0.2-1.5,0.9-2.8,2-3.9C115.8,78.7,117.3,78.1,119,78.1z M118.7,79.8c-0.7,0-1.4,0.2-2,0.5
			s-1.1,0.8-1.6,1.5c-0.4,0.6-0.7,1.3-0.8,2c-0.1,0.8,0.1,1.5,0.5,2s1.1,0.8,2,0.8c1.1,0,2-0.4,2.9-1.1c0.8-0.7,1.3-1.7,1.5-2.7
			c0.1-0.9-0.1-1.6-0.5-2.1C120.2,80,119.6,79.8,118.7,79.8z"/>
		<path fill="#F47932" stroke="#000000" stroke-width="5.0757" stroke-miterlimit="10" d="M130.7,79.7l-1.5,1.2
			c-0.5-0.7-0.9-1.1-1.4-1.1c-0.2,0-0.4,0.1-0.6,0.2c-0.2,0.1-0.3,0.3-0.3,0.5c0,0.2,0,0.4,0.1,0.6c0.1,0.2,0.5,0.7,1.1,1.5
			c0.3,0.4,0.5,0.7,0.6,0.9c0.2,0.4,0.4,0.8,0.5,1.1c0.1,0.3,0.1,0.7,0.1,1c-0.1,0.8-0.5,1.4-1.1,2c-0.6,0.5-1.4,0.8-2.2,0.8
			c-1.3,0-2.3-0.6-3-1.9l1.5-1.1c0.5,0.9,1,1.3,1.7,1.3c0.3,0,0.6-0.1,0.8-0.3c0.2-0.2,0.4-0.4,0.4-0.7c0-0.2,0-0.5-0.1-0.7
			c-0.1-0.2-0.4-0.7-0.9-1.3c-0.6-0.7-0.9-1.2-1.1-1.5c-0.2-0.5-0.3-0.9-0.2-1.4c0.1-0.6,0.3-1.1,0.8-1.6c0.6-0.6,1.3-0.9,2.1-0.9
			C129.1,78.1,130,78.6,130.7,79.7z"/>
	</g>
	<g>
		<g>
			<path fill="#F47932" d="M37.2,78.3h1.8l-0.9,3.3l3.5-3.3H44l-4.8,4.4l2.7,5.3h-2l-2.2-4.3L36.4,88h-1.8L37.2,78.3z"/>
			<path fill="#F47932" d="M50.1,78.1c1.3,0,2.4,0.4,3.1,1.3c0.8,0.9,1,1.9,0.9,3.3c-0.1,1-0.5,2-1.1,2.9c-0.6,0.9-1.4,1.6-2.3,2.1
				c-0.9,0.5-1.9,0.7-3,0.7c-1.4,0-2.4-0.4-3.2-1.2c-0.7-0.8-1-1.9-0.8-3.2c0.2-1.5,0.9-2.8,2-3.9C46.9,78.7,48.4,78.1,50.1,78.1z
				 M49.8,79.8c-0.7,0-1.4,0.2-2,0.5s-1.1,0.8-1.6,1.5c-0.4,0.6-0.7,1.3-0.8,2c-0.1,0.8,0.1,1.5,0.5,2s1.1,0.8,2,0.8
				c1.1,0,2-0.4,2.9-1.1c0.8-0.7,1.3-1.7,1.5-2.7c0.1-0.9-0.1-1.6-0.5-2.1C51.3,80,50.6,79.8,49.8,79.8z"/>
			<path fill="#F47932" d="M55.7,78.3h5.9L61.2,80h-2L57,88h-1.8l2.1-8h-2.1L55.7,78.3z"/>
			<path fill="#F47932" d="M67.4,79.7l-1.5,1.2c-0.5-0.7-0.9-1.1-1.4-1.1c-0.2,0-0.4,0.1-0.6,0.2c-0.2,0.1-0.3,0.3-0.3,0.5
				c0,0.2,0,0.4,0.1,0.6c0.1,0.2,0.5,0.7,1.1,1.5c0.3,0.4,0.5,0.7,0.6,0.9c0.2,0.4,0.4,0.8,0.5,1.1c0.1,0.3,0.1,0.7,0.1,1
				c-0.1,0.8-0.5,1.4-1.1,2c-0.6,0.5-1.4,0.8-2.2,0.8c-1.3,0-2.3-0.6-3-1.9l1.5-1.1c0.5,0.9,1,1.3,1.7,1.3c0.3,0,0.6-0.1,0.8-0.3
				c0.2-0.2,0.4-0.4,0.4-0.7c0-0.2,0-0.5-0.1-0.7c-0.1-0.2-0.4-0.7-0.9-1.3c-0.6-0.7-0.9-1.2-1.1-1.5c-0.2-0.5-0.3-0.9-0.2-1.4
				c0.1-0.6,0.3-1.1,0.8-1.6c0.6-0.6,1.3-0.9,2.1-0.9C65.8,78.1,66.7,78.6,67.4,79.7z"/>
			<path fill="#F47932" d="M74.1,78.1c1.3,0,2.4,0.4,3.1,1.3c0.8,0.9,1,1.9,0.9,3.3c-0.1,1-0.5,2-1.1,2.9c-0.6,0.9-1.4,1.6-2.3,2.1
				c-0.9,0.5-1.9,0.7-3,0.7c-1.4,0-2.4-0.4-3.2-1.2c-0.7-0.8-1-1.9-0.8-3.2c0.2-1.5,0.9-2.8,2-3.9C70.9,78.7,72.4,78.1,74.1,78.1z
				 M73.8,79.8c-0.7,0-1.4,0.2-2,0.5c-0.6,0.3-1.1,0.8-1.6,1.5c-0.4,0.6-0.7,1.3-0.8,2c-0.1,0.8,0.1,1.5,0.5,2s1.1,0.8,2,0.8
				c1.1,0,2-0.4,2.9-1.1c0.8-0.7,1.3-1.7,1.5-2.7c0.1-0.9-0.1-1.6-0.5-2.1C75.3,80,74.7,79.8,73.8,79.8z"/>
			<path fill="#F47932" d="M81,78.3h1.7c1,0,1.8,0.1,2.2,0.3c0.5,0.2,0.9,0.5,1.1,0.9c0.2,0.4,0.3,0.9,0.2,1.4
				c-0.1,0.6-0.3,1.1-0.7,1.6c-0.4,0.5-0.9,0.8-1.4,1c-0.6,0.2-1.5,0.3-2.7,0.4L80.2,88h-1.8L81,78.3z M81.8,82.2c1,0,1.6-0.1,2-0.3
				c0.3-0.2,0.5-0.5,0.6-0.9c0-0.2,0-0.4-0.1-0.6c-0.1-0.2-0.3-0.3-0.5-0.3C83.5,80,83.1,80,82.4,80L81.8,82.2z"/>
			<path fill="#F47932" d="M93.1,78.1c1.3,0,2.4,0.4,3.1,1.3c0.8,0.9,1,1.9,0.9,3.3c-0.1,1-0.5,2-1.1,2.9c-0.6,0.9-1.4,1.6-2.3,2.1
				c-0.9,0.5-1.9,0.7-3,0.7c-1.4,0-2.4-0.4-3.2-1.2c-0.7-0.8-1-1.9-0.8-3.2c0.2-1.5,0.9-2.8,2-3.9C89.9,78.7,91.4,78.1,93.1,78.1z
				 M92.8,79.8c-0.7,0-1.4,0.2-2,0.5c-0.6,0.3-1.1,0.8-1.6,1.5c-0.4,0.6-0.7,1.3-0.8,2c-0.1,0.8,0.1,1.5,0.5,2s1.1,0.8,2,0.8
				c1.1,0,2-0.4,2.9-1.1c0.8-0.7,1.3-1.7,1.5-2.7c0.1-0.9-0.1-1.6-0.5-2.1C94.3,80,93.6,79.8,92.8,79.8z"/>
			<path fill="#F47932" d="M99.9,78.3h1.8l-1.6,6c-0.1,0.5-0.2,0.9-0.3,1.1c0,0.4,0,0.7,0.2,0.9c0.2,0.2,0.5,0.3,0.9,0.3
				c0.3,0,0.7-0.1,0.9-0.2c0.2-0.1,0.4-0.3,0.5-0.6c0.2-0.3,0.3-0.8,0.5-1.6l1.6-5.9h1.8l-1.5,5.8c-0.3,1.2-0.6,2-1,2.6
				c-0.3,0.5-0.8,0.9-1.3,1.2c-0.5,0.3-1.2,0.4-1.9,0.4c-1,0-1.7-0.3-2.2-0.8c-0.5-0.5-0.7-1.2-0.5-2.1c0.1-0.4,0.2-1,0.4-1.7
				L99.9,78.3z"/>
			<path fill="#F47932" d="M108.6,78.3h1.8l-2.2,8h3l-0.4,1.7H106L108.6,78.3z"/>
			<path fill="#F47932" d="M119,78.1c1.3,0,2.4,0.4,3.1,1.3c0.8,0.9,1,1.9,0.9,3.3c-0.1,1-0.5,2-1.1,2.9c-0.6,0.9-1.4,1.6-2.3,2.1
				c-0.9,0.5-1.9,0.7-3,0.7c-1.4,0-2.4-0.4-3.2-1.2c-0.7-0.8-1-1.9-0.8-3.2c0.2-1.5,0.9-2.8,2-3.9C115.8,78.7,117.3,78.1,119,78.1z
				 M118.7,79.8c-0.7,0-1.4,0.2-2,0.5c-0.6,0.3-1.1,0.8-1.6,1.5c-0.4,0.6-0.7,1.3-0.8,2c-0.1,0.8,0.1,1.5,0.5,2s1.1,0.8,2,0.8
				c1.1,0,2-0.4,2.9-1.1c0.8-0.7,1.3-1.7,1.5-2.7c0.1-0.9-0.1-1.6-0.5-2.1C120.2,80,119.6,79.8,118.7,79.8z"/>
			<path fill="#F47932" d="M130.7,79.7l-1.5,1.2c-0.5-0.7-0.9-1.1-1.4-1.1c-0.2,0-0.4,0.1-0.6,0.2c-0.2,0.1-0.3,0.3-0.3,0.5
				c0,0.2,0,0.4,0.1,0.6c0.1,0.2,0.5,0.7,1.1,1.5c0.3,0.4,0.5,0.7,0.6,0.9c0.2,0.4,0.4,0.8,0.5,1.1c0.1,0.3,0.1,0.7,0.1,1
				c-0.1,0.8-0.5,1.4-1.1,2s-1.4,0.8-2.2,0.8c-1.3,0-2.3-0.6-3-1.9l1.5-1.1c0.5,0.9,1,1.3,1.7,1.3c0.3,0,0.6-0.1,0.8-0.3
				c0.2-0.2,0.4-0.4,0.4-0.7c0-0.2,0-0.5-0.1-0.7c-0.1-0.2-0.4-0.7-0.9-1.3c-0.6-0.7-0.9-1.2-1.1-1.5c-0.2-0.5-0.3-0.9-0.2-1.4
				c0.1-0.6,0.3-1.1,0.8-1.6c0.6-0.6,1.3-0.9,2.1-0.9C129.1,78.1,130,78.6,130.7,79.7z"/>
		</g>
		<g>
			<path fill="none" stroke="#FFFFFF" d="M37.2,78.3h1.8l-0.9,3.3l3.5-3.3H44l-4.8,4.4l2.7,5.3h-2l-2.2-4.3L36.4,88h-1.8L37.2,78.3z
				"/>
			<path fill="none" stroke="#FFFFFF" d="M50.1,78.1c1.3,0,2.4,0.4,3.1,1.3c0.8,0.9,1,1.9,0.9,3.3c-0.1,1-0.5,2-1.1,2.9
				c-0.6,0.9-1.4,1.6-2.3,2.1c-0.9,0.5-1.9,0.7-3,0.7c-1.4,0-2.4-0.4-3.2-1.2c-0.7-0.8-1-1.9-0.8-3.2c0.2-1.5,0.9-2.8,2-3.9
				C46.9,78.7,48.4,78.1,50.1,78.1z M49.8,79.8c-0.7,0-1.4,0.2-2,0.5s-1.1,0.8-1.6,1.5c-0.4,0.6-0.7,1.3-0.8,2
				c-0.1,0.8,0.1,1.5,0.5,2s1.1,0.8,2,0.8c1.1,0,2-0.4,2.9-1.1c0.8-0.7,1.3-1.7,1.5-2.7c0.1-0.9-0.1-1.6-0.5-2.1
				C51.3,80,50.6,79.8,49.8,79.8z"/>
			<path fill="none" stroke="#FFFFFF" d="M55.7,78.3h5.9L61.2,80h-2L57,88h-1.8l2.1-8h-2.1L55.7,78.3z"/>
			<path fill="none" stroke="#FFFFFF" d="M67.4,79.7l-1.5,1.2c-0.5-0.7-0.9-1.1-1.4-1.1c-0.2,0-0.4,0.1-0.6,0.2
				c-0.2,0.1-0.3,0.3-0.3,0.5c0,0.2,0,0.4,0.1,0.6c0.1,0.2,0.5,0.7,1.1,1.5c0.3,0.4,0.5,0.7,0.6,0.9c0.2,0.4,0.4,0.8,0.5,1.1
				c0.1,0.3,0.1,0.7,0.1,1c-0.1,0.8-0.5,1.4-1.1,2c-0.6,0.5-1.4,0.8-2.2,0.8c-1.3,0-2.3-0.6-3-1.9l1.5-1.1c0.5,0.9,1,1.3,1.7,1.3
				c0.3,0,0.6-0.1,0.8-0.3c0.2-0.2,0.4-0.4,0.4-0.7c0-0.2,0-0.5-0.1-0.7c-0.1-0.2-0.4-0.7-0.9-1.3c-0.6-0.7-0.9-1.2-1.1-1.5
				c-0.2-0.5-0.3-0.9-0.2-1.4c0.1-0.6,0.3-1.1,0.8-1.6c0.6-0.6,1.3-0.9,2.1-0.9C65.8,78.1,66.7,78.6,67.4,79.7z"/>
			<path fill="none" stroke="#FFFFFF" d="M74.1,78.1c1.3,0,2.4,0.4,3.1,1.3c0.8,0.9,1,1.9,0.9,3.3c-0.1,1-0.5,2-1.1,2.9
				c-0.6,0.9-1.4,1.6-2.3,2.1c-0.9,0.5-1.9,0.7-3,0.7c-1.4,0-2.4-0.4-3.2-1.2c-0.7-0.8-1-1.9-0.8-3.2c0.2-1.5,0.9-2.8,2-3.9
				C70.9,78.7,72.4,78.1,74.1,78.1z M73.8,79.8c-0.7,0-1.4,0.2-2,0.5c-0.6,0.3-1.1,0.8-1.6,1.5c-0.4,0.6-0.7,1.3-0.8,2
				c-0.1,0.8,0.1,1.5,0.5,2s1.1,0.8,2,0.8c1.1,0,2-0.4,2.9-1.1c0.8-0.7,1.3-1.7,1.5-2.7c0.1-0.9-0.1-1.6-0.5-2.1
				C75.3,80,74.7,79.8,73.8,79.8z"/>
			<path fill="none" stroke="#FFFFFF" d="M81,78.3h1.7c1,0,1.8,0.1,2.2,0.3c0.5,0.2,0.9,0.5,1.1,0.9c0.2,0.4,0.3,0.9,0.2,1.4
				c-0.1,0.6-0.3,1.1-0.7,1.6c-0.4,0.5-0.9,0.8-1.4,1c-0.6,0.2-1.5,0.3-2.7,0.4L80.2,88h-1.8L81,78.3z M81.8,82.2c1,0,1.6-0.1,2-0.3
				c0.3-0.2,0.5-0.5,0.6-0.9c0-0.2,0-0.4-0.1-0.6c-0.1-0.2-0.3-0.3-0.5-0.3C83.5,80,83.1,80,82.4,80L81.8,82.2z"/>
			<path fill="none" stroke="#FFFFFF" d="M93.1,78.1c1.3,0,2.4,0.4,3.1,1.3c0.8,0.9,1,1.9,0.9,3.3c-0.1,1-0.5,2-1.1,2.9
				c-0.6,0.9-1.4,1.6-2.3,2.1c-0.9,0.5-1.9,0.7-3,0.7c-1.4,0-2.4-0.4-3.2-1.2c-0.7-0.8-1-1.9-0.8-3.2c0.2-1.5,0.9-2.8,2-3.9
				C89.9,78.7,91.4,78.1,93.1,78.1z M92.8,79.8c-0.7,0-1.4,0.2-2,0.5c-0.6,0.3-1.1,0.8-1.6,1.5c-0.4,0.6-0.7,1.3-0.8,2
				c-0.1,0.8,0.1,1.5,0.5,2s1.1,0.8,2,0.8c1.1,0,2-0.4,2.9-1.1c0.8-0.7,1.3-1.7,1.5-2.7c0.1-0.9-0.1-1.6-0.5-2.1
				C94.3,80,93.6,79.8,92.8,79.8z"/>
			<path fill="none" stroke="#FFFFFF" d="M99.9,78.3h1.8l-1.6,6c-0.1,0.5-0.2,0.9-0.3,1.1c0,0.4,0,0.7,0.2,0.9
				c0.2,0.2,0.5,0.3,0.9,0.3c0.3,0,0.7-0.1,0.9-0.2c0.2-0.1,0.4-0.3,0.5-0.6c0.2-0.3,0.3-0.8,0.5-1.6l1.6-5.9h1.8l-1.5,5.8
				c-0.3,1.2-0.6,2-1,2.6c-0.3,0.5-0.8,0.9-1.3,1.2c-0.5,0.3-1.2,0.4-1.9,0.4c-1,0-1.7-0.3-2.2-0.8c-0.5-0.5-0.7-1.2-0.5-2.1
				c0.1-0.4,0.2-1,0.4-1.7L99.9,78.3z"/>
			<path fill="none" stroke="#FFFFFF" d="M108.6,78.3h1.8l-2.2,8h3l-0.4,1.7H106L108.6,78.3z"/>
			<path fill="none" stroke="#FFFFFF" d="M119,78.1c1.3,0,2.4,0.4,3.1,1.3c0.8,0.9,1,1.9,0.9,3.3c-0.1,1-0.5,2-1.1,2.9
				c-0.6,0.9-1.4,1.6-2.3,2.1c-0.9,0.5-1.9,0.7-3,0.7c-1.4,0-2.4-0.4-3.2-1.2c-0.7-0.8-1-1.9-0.8-3.2c0.2-1.5,0.9-2.8,2-3.9
				C115.8,78.7,117.3,78.1,119,78.1z M118.7,79.8c-0.7,0-1.4,0.2-2,0.5c-0.6,0.3-1.1,0.8-1.6,1.5c-0.4,0.6-0.7,1.3-0.8,2
				c-0.1,0.8,0.1,1.5,0.5,2s1.1,0.8,2,0.8c1.1,0,2-0.4,2.9-1.1c0.8-0.7,1.3-1.7,1.5-2.7c0.1-0.9-0.1-1.6-0.5-2.1
				C120.2,80,119.6,79.8,118.7,79.8z"/>
			<path fill="none" stroke="#FFFFFF" d="M130.7,79.7l-1.5,1.2c-0.5-0.7-0.9-1.1-1.4-1.1c-0.2,0-0.4,0.1-0.6,0.2
				c-0.2,0.1-0.3,0.3-0.3,0.5c0,0.2,0,0.4,0.1,0.6c0.1,0.2,0.5,0.7,1.1,1.5c0.3,0.4,0.5,0.7,0.6,0.9c0.2,0.4,0.4,0.8,0.5,1.1
				c0.1,0.3,0.1,0.7,0.1,1c-0.1,0.8-0.5,1.4-1.1,2s-1.4,0.8-2.2,0.8c-1.3,0-2.3-0.6-3-1.9l1.5-1.1c0.5,0.9,1,1.3,1.7,1.3
				c0.3,0,0.6-0.1,0.8-0.3c0.2-0.2,0.4-0.4,0.4-0.7c0-0.2,0-0.5-0.1-0.7c-0.1-0.2-0.4-0.7-0.9-1.3c-0.6-0.7-0.9-1.2-1.1-1.5
				c-0.2-0.5-0.3-0.9-0.2-1.4c0.1-0.6,0.3-1.1,0.8-1.6c0.6-0.6,1.3-0.9,2.1-0.9C129.1,78.1,130,78.6,130.7,79.7z"/>
		</g>
		<g>
			<path fill="#F47932" d="M37.2,78.3h1.8l-0.9,3.3l3.5-3.3H44l-4.8,4.4l2.7,5.3h-2l-2.2-4.3L36.4,88h-1.8L37.2,78.3z"/>
			<path fill="#F47932" d="M50.1,78.1c1.3,0,2.4,0.4,3.1,1.3c0.8,0.9,1,1.9,0.9,3.3c-0.1,1-0.5,2-1.1,2.9c-0.6,0.9-1.4,1.6-2.3,2.1
				c-0.9,0.5-1.9,0.7-3,0.7c-1.4,0-2.4-0.4-3.2-1.2c-0.7-0.8-1-1.9-0.8-3.2c0.2-1.5,0.9-2.8,2-3.9C46.9,78.7,48.4,78.1,50.1,78.1z
				 M49.8,79.8c-0.7,0-1.4,0.2-2,0.5s-1.1,0.8-1.6,1.5c-0.4,0.6-0.7,1.3-0.8,2c-0.1,0.8,0.1,1.5,0.5,2s1.1,0.8,2,0.8
				c1.1,0,2-0.4,2.9-1.1c0.8-0.7,1.3-1.7,1.5-2.7c0.1-0.9-0.1-1.6-0.5-2.1C51.3,80,50.6,79.8,49.8,79.8z"/>
			<path fill="#F47932" d="M55.7,78.3h5.9L61.2,80h-2L57,88h-1.8l2.1-8h-2.1L55.7,78.3z"/>
			<path fill="#F47932" d="M67.4,79.7l-1.5,1.2c-0.5-0.7-0.9-1.1-1.4-1.1c-0.2,0-0.4,0.1-0.6,0.2c-0.2,0.1-0.3,0.3-0.3,0.5
				c0,0.2,0,0.4,0.1,0.6c0.1,0.2,0.5,0.7,1.1,1.5c0.3,0.4,0.5,0.7,0.6,0.9c0.2,0.4,0.4,0.8,0.5,1.1c0.1,0.3,0.1,0.7,0.1,1
				c-0.1,0.8-0.5,1.4-1.1,2c-0.6,0.5-1.4,0.8-2.2,0.8c-1.3,0-2.3-0.6-3-1.9l1.5-1.1c0.5,0.9,1,1.3,1.7,1.3c0.3,0,0.6-0.1,0.8-0.3
				c0.2-0.2,0.4-0.4,0.4-0.7c0-0.2,0-0.5-0.1-0.7c-0.1-0.2-0.4-0.7-0.9-1.3c-0.6-0.7-0.9-1.2-1.1-1.5c-0.2-0.5-0.3-0.9-0.2-1.4
				c0.1-0.6,0.3-1.1,0.8-1.6c0.6-0.6,1.3-0.9,2.1-0.9C65.8,78.1,66.7,78.6,67.4,79.7z"/>
			<path fill="#F47932" d="M74.1,78.1c1.3,0,2.4,0.4,3.1,1.3c0.8,0.9,1,1.9,0.9,3.3c-0.1,1-0.5,2-1.1,2.9c-0.6,0.9-1.4,1.6-2.3,2.1
				c-0.9,0.5-1.9,0.7-3,0.7c-1.4,0-2.4-0.4-3.2-1.2c-0.7-0.8-1-1.9-0.8-3.2c0.2-1.5,0.9-2.8,2-3.9C70.9,78.7,72.4,78.1,74.1,78.1z
				 M73.8,79.8c-0.7,0-1.4,0.2-2,0.5c-0.6,0.3-1.1,0.8-1.6,1.5c-0.4,0.6-0.7,1.3-0.8,2c-0.1,0.8,0.1,1.5,0.5,2s1.1,0.8,2,0.8
				c1.1,0,2-0.4,2.9-1.1c0.8-0.7,1.3-1.7,1.5-2.7c0.1-0.9-0.1-1.6-0.5-2.1C75.3,80,74.7,79.8,73.8,79.8z"/>
			<path fill="#F47932" d="M81,78.3h1.7c1,0,1.8,0.1,2.2,0.3c0.5,0.2,0.9,0.5,1.1,0.9c0.2,0.4,0.3,0.9,0.2,1.4
				c-0.1,0.6-0.3,1.1-0.7,1.6c-0.4,0.5-0.9,0.8-1.4,1c-0.6,0.2-1.5,0.3-2.7,0.4L80.2,88h-1.8L81,78.3z M81.8,82.2c1,0,1.6-0.1,2-0.3
				c0.3-0.2,0.5-0.5,0.6-0.9c0-0.2,0-0.4-0.1-0.6c-0.1-0.2-0.3-0.3-0.5-0.3C83.5,80,83.1,80,82.4,80L81.8,82.2z"/>
			<path fill="#F47932" d="M93.1,78.1c1.3,0,2.4,0.4,3.1,1.3c0.8,0.9,1,1.9,0.9,3.3c-0.1,1-0.5,2-1.1,2.9c-0.6,0.9-1.4,1.6-2.3,2.1
				c-0.9,0.5-1.9,0.7-3,0.7c-1.4,0-2.4-0.4-3.2-1.2c-0.7-0.8-1-1.9-0.8-3.2c0.2-1.5,0.9-2.8,2-3.9C89.9,78.7,91.4,78.1,93.1,78.1z
				 M92.8,79.8c-0.7,0-1.4,0.2-2,0.5c-0.6,0.3-1.1,0.8-1.6,1.5c-0.4,0.6-0.7,1.3-0.8,2c-0.1,0.8,0.1,1.5,0.5,2s1.1,0.8,2,0.8
				c1.1,0,2-0.4,2.9-1.1c0.8-0.7,1.3-1.7,1.5-2.7c0.1-0.9-0.1-1.6-0.5-2.1C94.3,80,93.6,79.8,92.8,79.8z"/>
			<path fill="#F47932" d="M99.9,78.3h1.8l-1.6,6c-0.1,0.5-0.2,0.9-0.3,1.1c0,0.4,0,0.7,0.2,0.9c0.2,0.2,0.5,0.3,0.9,0.3
				c0.3,0,0.7-0.1,0.9-0.2c0.2-0.1,0.4-0.3,0.5-0.6c0.2-0.3,0.3-0.8,0.5-1.6l1.6-5.9h1.8l-1.5,5.8c-0.3,1.2-0.6,2-1,2.6
				c-0.3,0.5-0.8,0.9-1.3,1.2c-0.5,0.3-1.2,0.4-1.9,0.4c-1,0-1.7-0.3-2.2-0.8c-0.5-0.5-0.7-1.2-0.5-2.1c0.1-0.4,0.2-1,0.4-1.7
				L99.9,78.3z"/>
			<path fill="#F47932" d="M108.6,78.3h1.8l-2.2,8h3l-0.4,1.7H106L108.6,78.3z"/>
			<path fill="#F47932" d="M119,78.1c1.3,0,2.4,0.4,3.1,1.3c0.8,0.9,1,1.9,0.9,3.3c-0.1,1-0.5,2-1.1,2.9c-0.6,0.9-1.4,1.6-2.3,2.1
				c-0.9,0.5-1.9,0.7-3,0.7c-1.4,0-2.4-0.4-3.2-1.2c-0.7-0.8-1-1.9-0.8-3.2c0.2-1.5,0.9-2.8,2-3.9C115.8,78.7,117.3,78.1,119,78.1z
				 M118.7,79.8c-0.7,0-1.4,0.2-2,0.5c-0.6,0.3-1.1,0.8-1.6,1.5c-0.4,0.6-0.7,1.3-0.8,2c-0.1,0.8,0.1,1.5,0.5,2s1.1,0.8,2,0.8
				c1.1,0,2-0.4,2.9-1.1c0.8-0.7,1.3-1.7,1.5-2.7c0.1-0.9-0.1-1.6-0.5-2.1C120.2,80,119.6,79.8,118.7,79.8z"/>
			<path fill="#F47932" d="M130.7,79.7l-1.5,1.2c-0.5-0.7-0.9-1.1-1.4-1.1c-0.2,0-0.4,0.1-0.6,0.2c-0.2,0.1-0.3,0.3-0.3,0.5
				c0,0.2,0,0.4,0.1,0.6c0.1,0.2,0.5,0.7,1.1,1.5c0.3,0.4,0.5,0.7,0.6,0.9c0.2,0.4,0.4,0.8,0.5,1.1c0.1,0.3,0.1,0.7,0.1,1
				c-0.1,0.8-0.5,1.4-1.1,2s-1.4,0.8-2.2,0.8c-1.3,0-2.3-0.6-3-1.9l1.5-1.1c0.5,0.9,1,1.3,1.7,1.3c0.3,0,0.6-0.1,0.8-0.3
				c0.2-0.2,0.4-0.4,0.4-0.7c0-0.2,0-0.5-0.1-0.7c-0.1-0.2-0.4-0.7-0.9-1.3c-0.6-0.7-0.9-1.2-1.1-1.5c-0.2-0.5-0.3-0.9-0.2-1.4
				c0.1-0.6,0.3-1.1,0.8-1.6c0.6-0.6,1.3-0.9,2.1-0.9C129.1,78.1,130,78.6,130.7,79.7z"/>
		</g>
	</g>
</g>
</svg>
