<?xml version="1.0" encoding="utf-8"?>
<!-- Generator: Adobe Illustrator 18.1.1, SVG Export Plug-In . SVG Version: 6.00 Build 0)  -->
<svg version="1.1" xmlns="http://www.w3.org/2000/svg" xmlns:xlink="http://www.w3.org/1999/xlink" x="0px" y="0px"
	 viewBox="0 0 404 310.7" enable-background="new 0 0 404 310.7" xml:space="preserve">
<g id="black_background_1_">
	<g id="Shape_81">
		<g>
			<path fill-rule="evenodd" clip-rule="evenodd" fill="#010101" d="M388.5,22.5c-2.9,0.5-16.9,2.9-28.8,4.5
				c-11.9,1.6-38,6.5-41,5.4c-1.3-0.5-3.6-2.5-7.2-5.1c-3.7-2.6-2.4,1.3-2.4,2.2s-0.1,4.7-1.2,5.5c-1.1,0.8-5.7,0.3-5.9-0.1
				c-0.2-0.4,0-1-1.8-5.5c-1.7-4.5-5.4-6.9-15.4-12.5c-10.1-5.6-21.2-7.3-26.2-8.5c-5-1.2-3.7,0-3.3,0.8c0.4,0.8,2.6,7.2,3.3,9.6
				c0.7,2.4,2.3,6.9,3.9,16.7c1.6,9.8-1.6,1.5-2.3-0.1c-0.6-1.6-6.7-12.5-11.7-19.6c-5-7.2-12.3-8.5-18.3-10
				c-6-1.6-21.2-0.3-25.2-0.3c-4.1,0-2.5,0.5-2.2,1c0.3,0.5,2.4,2.2,4.8,4.4c2.3,2.2,10.3,11.4,13.8,16.4c3.5,5.1-0.7,2.3-1.2,1.7
				c-0.5-0.6-3.7-3.3-6.1-5c-2.3-1.6-6.2-5.1-16.3-10.2c-10.1-5.1-17.8-4.4-30.4-4.1c-12.6,0.3-32.4,7.5-32.4,7.5
				c-2.8,0.8-2,1.3-0.2,1.5c1.9,0.2,6.3,1.3,15.8,3.7c9.5,2.4,23.3,10,36.2,18.4c12.9,8.4,20.1,16.8,20.9,18.5
				c0.8,1.7-1,4.3-1.2,4.9c-0.1,0.6-1,2-1.6,1.8c-0.6-0.2,0.2-2.7-10.2-8c-3-1.5-6.7-2.7-11.1-3.8c-8-2-22.6-0.9-34,3
				c-11.4,3.9-23.6,10.7-36,21c-12.4,10.3-20.3,21.6-21.3,23c-1,1.4-2.6,3.8-0.6,3.3c0.6-0.2,1.8-0.7,3.4-1.2c1-0.3,2.2-0.7,3.5-0.9
				c3.3-0.6,0.4,2-0.1,3.7c-1,3.9-7.6,9.9-8.7,36.3c-1,26.4,14.3,35.6,15.6,36.8c1.3,1.2,0.7,2.2-0.3,3.7c-1,1.5-0.4,0.9-4-0.5
				c-3.6-1.3-9.9-4.9-20.1-14.8c-10.2-9.9-14.8-24.1-16.4-31.1c-1.6-7-3.6-20.5-1.7-34.2c1.9-13.7,5.2-22.1,7-26.1
				c1.8-4,11-25.7,22.7-37.8c11.7-12.1,2-5.6,0-4.4c-2,1.2-20.5,10.8-38.8,27.8c-18.3,16.9-21.9,32.7-23.3,40.8
				c-1.5,8-1.6,2.3-1.6,1.7c-0.1-0.6,0.1-5.5,0.2-8.4c0.1-2.9-0.7-0.7-1.8,0.3c-0.8,0.7-4.5,5.1-8,12.9c-1.5,3.4-2.9,8.4-4.2,12.7
				c-4.4,14.4,1.2,29.1,2.6,32.6c1.3,3.5-0.1,1.9-0.6,1.3c-0.5-0.6-2.3-3.5-3.5-5c-1.2-1.5-1.6-2-2.4-4.4c-0.9-2.4-1.5-1.9-1.9-1.2
				c-0.7,1.2-1.3,2.9-1.7,5c-0.4,2.2-0.7,4.8-0.8,7.8c-0.1,4.2,0.3,8.3,1.5,12.3c1.9,6.3,5.9,12.3,12.7,18.5c2,1.8-0.1,1-0.8,0.9
				c-0.6-0.1-1.9-0.2-3.1-0.6c-1.2-0.4-2-1.1-2.8-1.5c-0.8-0.4-1.8-1.1-1.6,1c0.2,2,0.8,3.9,1.7,6c1.3,2.8,3.2,6,5.5,9.8
				c4.1,6.7,14.1,9.2,14.9,9.9c0.9,0.6,1,0.8,0.4,1.1c-0.6,0.3-6.5,0.2-8,0.3c-1.5,0.1-0.7,0.6-0.1,1.7c0.6,1.1,7,6.4,13.6,9.3
				c6.6,3,14.7,3.8,16.8,3.9c2.2,0.1,1.1,1.5,0.7,1.7c-0.4,0.2-0.6,0.5-2.3,1.4c-1.7,0.9-0.6,1.6,0.1,1.9c0.6,0.3,3.8,2.3,10.7,3
				c6.9,0.7,11.1-0.3,13.5-0.9c2.3-0.6,1.8,1.2,1.8,1.7s-1,1.2-2,2.2c-1,1-0.1,1.2,1.5,1.2c1.5,0,11,0.6,14.6,0.2
				c3.6-0.4,5.1-2.3,9.2-4c4.1-1.7,2.7,0.8,2.2,1.6c-0.5,0.8-2.9,2.9-4.3,3.8c-1.4,1-0.8,1.2,1,1.3c0.9,0,4,0.3,7.3,0
				c3.3-0.3,6.8-1.3,8.4-1.6c3.2-0.5,5.1-2,10-3.3c4.9-1.3,1.9,1.5,0.9,2.4c-0.4,0.4-4.8,4.9-10.2,8.9c-5.9,4.4-13,8.5-14.3,9.3
				c-2.5,1.5-3.3,1.5-4.4,1c-1-0.4-3.1-2.3-5.1-4.1c-2-1.8-9.4-4.8-11.4-4.9c-1.9-0.1-9,6.2-9.6,6.6c-0.6,0.5-1.6,0.4-2.7,0.3
				c-1.2-0.1-7.6,4.4-9.3,6c-1.7,1.6-0.8,4-1.1,4.4c-0.3,0.3-4.1,2.1-5.6,3.4c-1.5,1.3-1.7,3.7-0.2,11.3c1.6,7.5,4.1,9.3,7.3,11.1
				c3.2,1.8,4,1.2,3.8,0.3c-0.2-0.9-0.2-2.2-0.1-3.7c0.1-1.5,1.1-1,1.6-0.7c0.3,0.2,0.8,0.8,1.8,1.2c0.8,0.3,1.9,0.4,3,0.8
				c2.4,0.8,1.9-0.6,1.6-1.7c-0.2-1,0.5-4.1,0.8-4.8c0.3-0.7,2.9-0.4,3.6-0.1c0.8,0.3,1.2,1.2,3,2.2c1.7,1,2.7,1.5,2.5,0.4
				c-0.2-1.1,0.4-3.6,1.2-4.1c0.9-0.5,2.7-0.5,3.5-0.2c0.8,0.2,3.4,1.9,5.2,3c1.8,1.1,5.7,3.9,6.3,4.9c0.6,1,0.2,1.2-0.6,4.7
				c-0.8,3.5-2.8,4.9-3.5,6.1c-0.7,1.2-0.3,1.2,3,1c3.3-0.1,9.6-3.7,12-5.8c2.4-2.1,5.9-7.2,7.1-8.6c1.2-1.4,2.9-1.3,9.9-2.6
				c7.1-1.2,1.7-0.9,1.2-0.9c-0.6,0-9.3,1-9.6,0.3c-0.2-0.8,0.1-1.3,0.3-2.5c0.1-1.3,0.3-2.7,0.7-2.7c0.5,0,3.7,0.3,6.7,0.1
				c2.1-0.1,4.1-0.8,5.1-0.8c2.4-0.2,2.9-1,2.5-1.3c-0.4-0.2-1.8-0.8-2.9-1.8c-1-0.9,0.5-1.5,1.6-1.5c1,0,9-0.6,19.6-2.4
				c10.7-1.8,13-3.7,16.4-4.5c3.4-0.9,0.2-1.9-0.9-2c-1-0.2-1.6-1-1.8-2c-0.2-0.9,1.5-1.1,3.7-1.7c2.2-0.6,3.3-0.6,3.8,0.3
				c0,0,3.8,2.5,5.3,3c2.9,1,6.5,5,8.5,10.6c2,5.7,0.4,9.4-1.3,12.3c-1.7,2.9-5.1,6.1-6.4,7c-1.2,0.9-0.9,1.3,1.2,2.3
				c4.2,1.9,9.5,1,14.1-0.7c4.7-1.8,8.7-4.4,10.2-6.1c1.6-1.7,1.4-3.1,2.8-4.8c1.3-1.6,3.7-3,4.4-3.9c1.5-1.9,2.3-4.7,2.7-5.2
				c0.8-0.9,6.3-1.9,18.5-6.1c12.2-4.2,2.5-1.7-0.1-1c-2.6,0.7-13.2,3.3-14.8,3.6c-1.6,0.3-2.2,0.4-2-0.4c0,0.1,1.1-5.2,1.7-9.7
				c0.6-4.7,0.7-8.7,1-9.6c0-0.1,2.2-0.5,4.5-1.2c2-0.7,4-1.7,5.4-1.9c0.9-0.1,1.8,0.9,2.6,1.3c0.8,0.4,2.9,1.3,6.3,2
				c3.4,0.6,7.9,0.5,11.4,0.8c3.5,0.3,4-0.5,3.5-1.2c-0.5-0.6-1.7-0.8-4.5-3.3c-2.8-2.5,3.7-0.2,5,0.6c1.3,0.8,5.8,2.8,7.3,3.2
				c0.7,0.2,3.3,0.6,6.3,0.4c2.9-0.1,6.2-0.2,8.8-0.6c3.8-0.6,2.3-0.8,2-1.1c-0.3-0.3-0.8-0.3-3.6-2.8c-2.9-2.4,1.2-0.6,1.6-0.5
				c0.3,0.1,1.9,1,5.8,2.6c3.8,1.6,5.1,1,15.7,1.1c10.6,0.1,6.4-1.1,5.8-1.5c-0.5-0.4-2.2,0-8-3.4c-5.8-3.4-0.2-1.7,0.4-1.5
				c0.6,0.2,5.1,1.5,8.9,2.9c3.8,1.3,6.5,2.2,14.5-0.2c8-2.4,6.1-3.7,5.4-3.9c-0.8-0.2-7.3-2-12-3.8c-4.7-1.8-0.1-1.2,0.9-1.3
				c1-0.1,5.8,0.6,8.3,1.3c2.5,0.7,11.9,1.9,13.2,1.9c1.3,0,6.8-3.9,8.2-4.7c1.4-0.8,4.2-1.3,9-3.7c4.8-2.3,0.3-3.5-0.4-3.8
				c-0.7-0.3-12.5-1.5-14.6-1.7c-2.1-0.2-1.5-0.8-0.2-1.4c1.3-0.6,1.1,0,20.8-6.9c19.7-6.9-0.6-1.3-0.6-1.3s-24.1,7.5-27.5,7.9
				c-3.4,0.5-7.8-0.9-13.1-1.6c-5.2-0.6-19.6-3.1-25.3-4c-5.7-0.9-9.7-1.6-18-2.9c-8.2-1.2-3.5-1.4,2.7-2.9
				c3.3-0.8,7.6-1.9,15.7-3.8c7.3-1.7,16.8-4.4,32.4-8.7c35.9-9.9,7-3.8-0.5-1.9c-4.5,1.1-56.1,14.2-62.1,15
				c-6.2,0.8-14.1-2.4-19.2-3.3c-5.2-0.9-1.6-1.5-1.1-1.5c0.5,0,7.4,0.3,12.4-0.2c4.9-0.5,4.8-0.9,3.5-1.5c-0.5-0.3-2.2-1-3.9-2.3
				c-1.7-1.2,0.9-1.1,0.9-1.1s4.1-0.2,10.8-0.5c6.8-0.3,13.5-3.4,17.7-5.1c4.2-1.7,6.4-4.3,5.9-4.3c-0.5,0-1.7,0.1-5.7-1
				c-4-1.2-0.6-1.9,2-2.3c2.6-0.4,8.1-2.7,12.3-4.8c4.2-2.1,8.3-6.8,9.9-8.6c1.6-1.9,0.5-1.4-0.7-1.7c-0.8-0.2-4.2-0.9-7.9-2.2
				c-2.2-0.8-4.5-2-6.4-2.7c-5.2-1.9,0.3-1.7,0.7-1.5c0.4,0.2,0.6,0.2,7.2,0.8c6.6,0.6,10.9-0.2,17.7-5.7
				c6.8-5.5,8.5-11.4,10.4-13.7c2.9-3.4,0.8-2.8-2.7-1.6c-1.1,0.4-8.5,1.1-16.1,1.3c-7.6,0.2-2.6-1-0.9-1.3
				c1.7-0.3,13.2-2.7,18.7-5.8c5.5-3,8.1-10.1,10.3-17.6c2.2-7.5,3.2-15.3,3.4-16.6c0.2-1.2,2.4-2.8,4.7-4.9c2.3-2.1,4.5-5,5.5-6.2
				c1-1.2,3.6-9.3,7.2-18.4c3.6-9.1,4.3-11.4,4.8-12.5c0.6-1.1,6.7-18.5,7.6-19.5c0.9-1,1.3-0.2,7.6-2.3c6.2-2.1,0.6-1.3-0.2-1
				c-0.8,0.3-5.9,1-6.4,0.8c-0.5-0.2,0.1-0.9,0.5-1.7c0.4-0.9,2.7-9.2,4-11.4c1.3-2.3,2.5-7.3,9.6-12.8
				C395.5,19.6,392.1,21.8,388.5,22.5z"/>
		</g>
	</g>
</g>
<g id="yellow_layer_1_">
	<g id="Shape_5">
		<g>
			<path fill-rule="evenodd" clip-rule="evenodd" fill="#F5E61A" d="M217.5,239.1c-1.5-2.2-1.8-4.3-4.2-2.4c0,0-2.9,3.9-3.1,5.9
				c-0.2,2-0.5,5.6,0,6.4c1.8,2.9,2.8,4.4,3.3,5.8c0.5,1.4,0,2.8,0.6,5.1c0.2,0.7,0.3,2.9,2.5-1.4c1.8-3.5,2.6-7.5,2.6-11.1
				C219.2,243.8,218.6,240.7,217.5,239.1z"/>
		</g>
	</g>
	<g id="Shape_7">
		<g>
			<path fill-rule="evenodd" clip-rule="evenodd" fill="#F5E61A" d="M165,256.7c0.4-0.4,0.8-4.1,0.3-5.4c-0.5-1.3-1.5-4.4-2.4-5.3
				c-0.9-0.9-1.7-2.8-3.3-0.1c0,0-1.8,2.9-2.1,3.7c-0.3,0.8-1.1,6-0.2,8.2c0.9,2.2,1.8,5.2,3.5,6.8c1.7,1.5,2.3,2.3,2.8,2.4
				c0.5,0.1,1.8,0.7,1.1-0.9c-0.7-1.6-1.2-2.7-0.9-4.9C164.1,259.1,164.7,257.1,165,256.7z"/>
		</g>
	</g>
	<g id="Shape_8">
		<g>
			<path fill-rule="evenodd" clip-rule="evenodd" fill="#F5E61A" d="M202.1,287.2c-2-0.2-4.4,0.2-5.4,0.9c0,0-6.6,8.2-7.3,8.7
				c-0.7,0.4-2.8,1.9,1.3,1.2c4.6-0.8,7.9-2.1,10.2-3.5c2.3-1.5,3.6-3.2,4.2-4.8C205.5,288,204,287.3,202.1,287.2z"/>
		</g>
	</g>
	<g id="Shape_9">
		<g>
			<path fill-rule="evenodd" clip-rule="evenodd" fill="#F5E61A" d="M106.4,292.9c0.3,1.1-0.1,2.9-0.5,3.9c-0.4,0.9-0.7,1.8-1.9,3.7
				c-1.2,2.1,1.4,0.6,2,0.1c0.5-0.3,3.2-1.6,4.5-3.3c1.5-1.9,1.7-4.6,1.7-4.6L106.4,292.9z"/>
		</g>
	</g>
	<g id="Shape_10">
		<g>
			<path fill-rule="evenodd" clip-rule="evenodd" fill="#F5E61A" d="M65.6,284.2c-0.4-0.5-3.1-4.5-4.2-0.9c0,0-1.2,1.8-1.1,3.8
				c0.1,1.9,1.6,3.9,2.2,4.7c0.7,0.8,1.8,2.2,1.8,1c0-1.2-0.3-2.5,0-3.3c0.3-0.8,0.9-1.2,1.1-1.7C65.7,287.2,66,284.7,65.6,284.2z"
				/>
		</g>
	</g>
	<g id="Shape_11">
		<g>
			<path fill-rule="evenodd" clip-rule="evenodd" fill="#F5E61A" d="M74.3,274.7c-0.9-1.4-1.8-3-3.8,0.8c0,0-2.6,3-1.9,6.6
				c0.7,3.7,2.3,7.3,3,8c0.7,0.6,1.7,0.8,1.5-1.3c-0.2-2.1,0-4.3,0.5-4.9c0.5-0.7,2.2-1.8,2.2-2.6C75.8,280.5,75.3,276.1,74.3,274.7
				z"/>
		</g>
	</g>
	<g id="Shape_12">
		<g>
			<path fill-rule="evenodd" clip-rule="evenodd" fill="#F5E61A" d="M85.6,269.8c-0.5-0.7-1.4-4.2-3.9,0.1c0,0-2.1,2.7-2,5.1
				c0.1,2.4,0.1,3,0.6,4.9c0.4,2,1.6,3.6,2.1,4.1c0.5,0.5,0.7,0.8,1.5-1.8c0.4-1.5,0.8-3.1,1.9-4.1c1-0.8,1.2-2.4,1.2-2.7
				C86.9,274.9,87,271.5,85.6,269.8z"/>
		</g>
	</g>
	<g id="Shape_6">
		<g>
			<path fill-rule="evenodd" clip-rule="evenodd" fill="#F5E61A" d="M194,247.4c-0.2-2.3-0.9-4.3-2.7-6.5c-1.2-1.5-2.5-5.4-4.7-0.9
				c-2.9,5.9-2.2,8.1-2.2,9.4c0,3-0.5,5.9,3.4,10.7c0.5,0.6,1.2,1,1.9,1.7c1,1,1.7,4.1,2.3-1.3c0.3-3.1,0.2-5,1.1-7.1
				C194.1,251,194.2,249.1,194,247.4z"/>
		</g>
	</g>
	<g id="Shape_1">
		<g>
			<path fill-rule="evenodd" clip-rule="evenodd" fill="#F5E61A" d="M166,176.7c-0.8-1.9-2.7-4-4.5-5.4c-1.8-1.4-4.5-1-4.5-1
				l-1.4,5.4c0,0,1.2-0.6,2.4-0.6c2,0.1,3.5,0.9,4.3,2.3c1.3,2.1,0.6,4.2,0,5.4c-0.9,1.8-4,3-6.3,2.1c-2.2-0.9-3.5-3.9-3.5-3.9
				l-5.4,5.7c0,0,3.6,4.5,8,4.4c6.2-0.2,8.3-2,10-5.1C167.3,182.5,167.1,179.3,166,176.7z"/>
		</g>
	</g>
	<g id="Shape_2">
		<g>
			<path fill-rule="evenodd" clip-rule="evenodd" fill="#F5E61A" d="M136.9,187.2h-2.5c0,0,0,1.1-0.7,1.9c-0.5,0.5-1.7,0.9-2.2,0.9
				c-0.5,0-4.6,0.3-4.8-4c-0.1-2.1,2.5-3.6,2.5-3.6l-5.8-5.8c0,0-2,0.6-3,5.2c-1,4.6,1.8,7.9,4.1,10.2c2.2,2.2,7.6,1.8,10.2,0
				C137.2,190.4,136.9,187.2,136.9,187.2z"/>
		</g>
	</g>
</g>
<g id="grey_layer_1_">
	<g id="Shape_20">
		<g>
			<path fill-rule="evenodd" clip-rule="evenodd" fill="#A2A2A1" d="M64.2,275.6c-0.8-1-2.4-0.9-3.1-0.3c0.2-0.1-2.8,1.2-1.7,5.5
				c0.1,0.4,1.2,0,1.3-0.6c0,0,0.8-2.4,2-2.1c1.2,0.4,1.4,1,1.7,0.8C64.7,278.7,65,276.7,64.2,275.6z"/>
		</g>
	</g>
	<g id="Shape_21">
		<g>
			<path fill-rule="evenodd" clip-rule="evenodd" fill="#A2A2A1" d="M76.1,265.3c-1.1-0.9-6.6-1.5-8.9,3.1c-0.8,1.5-0.9,3.3-0.3,5.6
				c0.5,1.8,1.9,2.2,2,0c0,0,0.2-1,0.8-1.9c0.8-1.1,1.9-2,2.7-2c0.6,0,1.3,0.6,2.7,1.9c0.8,0.8,1.2,0.8,1.4-0.5
				C76.9,269.6,77.1,266.1,76.1,265.3z"/>
		</g>
	</g>
	<g id="Shape_22">
		<g>
			<path fill-rule="evenodd" clip-rule="evenodd" fill="#A2A2A1" d="M115.9,280.8c-1-1-4.6-4.3-7.3-5.6c-2.8-1.3-6.8-5.2-7.8-6.6
				c-1-1.4-6.1-6.1-9-7.7c-2.9-1.6-4.7-2.7-6.3-2.2c-1.6,0.5-5.2,2.8-5.9,3.5c0,0-1,1.6-1.2,3.2c-0.2,1.8,0.5,3.6,1,3.2
				c0.8-0.7,1.4-1.8,1.8-2.4c0.7-1,1.5-2.1,2.4-2.3c1.3-0.2,2.6,1.3,3.6,3c0.9,1.5,1.6,3.1,1.8,3.7c0.2,0.5,0.1,2.8,0.7,4.3
				c0.6,1.3,2.5,0.3,3.4-1.5c0.6-1.2,0.7-2.4,1.2-2.1c0.5,0.3,1,1.1,1.5,2.2c0.6,1.1,3,3.8,5.4,4.9c2.4,1,3.5,1.4,4.9,1.5
				c1.4,0.1,2.1-0.2,2.3,0.5c0.2,0.7,0.4,2.9-0.1,3.5c-0.6,0.6-1.8,2.1-2.1,2.4c0.5-0.5-0.3,0-0.8,1.2c-0.4,1,0.6,2.6,1,2.6
				c5.3,1.3,6.9,0.2,8,0.2c1.1,0,1.4-0.7,1.9-3.7C116.6,285.6,117,281.8,115.9,280.8z"/>
		</g>
	</g>
	<g id="Shape_3">
		<g>
			<path fill-rule="evenodd" clip-rule="evenodd" fill="#B5B5B4" d="M132.8,188.3c-0.2-0.3-0.5-0.6-0.8-0.5c-0.3,0-0.7-0.1-0.6,0.5
				c0,0.6,0.4,1,0.7,0.9C132.5,189.1,133,188.6,132.8,188.3z"/>
		</g>
	</g>
	<g id="Shape_13">
		<g>
			<path fill-rule="evenodd" clip-rule="evenodd" fill="#B5B5B4" d="M147.8,212.5c-0.1,0.3-3.1,4-3.8,4.3c-0.7,0.3-0.8-2.1-1.6-1.9
				c-0.8,0.2,0,2.5-0.1,3.8c-0.1,1.5-0.5,2.2-0.5,2.5c0,0.3,0.3,0.1,1.6,0c1.1-0.1,2-1.3,2.9-2.5c0.9-1.2,2.4-5.2,2.4-6.3
				C148.8,211.1,147.9,212.2,147.8,212.5z"/>
		</g>
	</g>
	<g id="Shape_14">
		<g>
			<path fill-rule="evenodd" clip-rule="evenodd" fill="#B5B5B4" d="M145.4,191.1c-1.2-1.2-3.2-2.9-4-2.8c-0.8,0.1-3.1,3.4-3.7,4.6
				c-0.6,1.2-0.9,3.4-0.5,5.1c0,0,1.7,6.3,3.3,4.9c1.1-1,0.6-1.6,1.3-2.7c0.7-1.1,3.4-4.1,4-4.3c0.6-0.2,1-0.4,1-1
				C146.7,194.4,146.5,192.3,145.4,191.1z"/>
		</g>
	</g>
	<g id="Shape_4">
		<g>
			<path fill-rule="evenodd" clip-rule="evenodd" fill="#B5B5B4" d="M161.2,182.5c-0.4-0.4-0.8-0.8-1-0.7c-0.3,0.1-0.5,0.4-0.5,0.9
				c0,0.5,0.3,0.8,0.7,0.7C160.7,183.3,161.6,182.9,161.2,182.5z"/>
		</g>
	</g>
	<g id="Shape_16">
		<g>
			<path fill-rule="evenodd" clip-rule="evenodd" fill="#A2A2A1" d="M173.6,241.6c-0.9-3.1-2.8-5.5-4.7-6.8c-1.9-1.3-4.6-2-7.4-0.8
				c-2.1,1-4.1,3-5.5,6.2c-1,2.3-1.3,4.9-1,7.5c0.1,0.8,0.7,1.9,1.1,0.4c0,0,1.2-3.5,3.1-5.5c2.3-2.5,3-1.4,4-1
				c0.7,0.3,3.7,5,4.1,6.2c1.2,4.1,1.2,7.4,1.1,8.3c-0.3,2.6,2.9-0.8,4.4-4.3C174.1,248.5,174.3,243.9,173.6,241.6z"/>
		</g>
	</g>
	<g id="Shape_19">
		<g>
			<path fill-rule="evenodd" clip-rule="evenodd" fill="#B3B3B2" d="M212.6,271.8c-2.2,4-2.6,5.2-4,5.3c-1.4,0.1-4.9-1.1-6.6-1
				c-1.6,0.1-4.2,0.5-6.3,2.3c0,0-1.7,1.9-1.6,3.5c0.2,1.7,0.1,3.3,1.3,3.2c1.2,0,3.6-1.1,4.6-1.2c1-0.1,3.5,0,4.4,0.6
				c0.9,0.6,2.1,1.3,3,1.2c1-0.1,2.9-1.1,3.8-2.8c1-1.7,2.5-4.9,2.6-6.4C214,275.1,214.8,267.8,212.6,271.8z"/>
		</g>
	</g>
	<g id="Shape_17">
		<g>
			<path fill-rule="evenodd" clip-rule="evenodd" fill="#B5B5B4" d="M198,235.5c-1-5.5-4.4-9.1-8.2-9.4c-3.8-0.3-6.8,1.2-8.9,6.8
				c-2.1,5.6-0.7,9.4-0.3,12.5c0.4,3.1,1.5,0.4,1.5,0.4c0.2-3.3,0.9-5.7,3.1-9.3c2.4-3.9,4.2-3,6.4-0.7c2.4,2.6,4.3,7.4,5,12.9
				c0.7,5.4,1.6,1.8,2-0.3C198.9,246.3,199,241,198,235.5z"/>
		</g>
	</g>
	<g id="Shape_36">
		<g>
			<path fill-rule="evenodd" clip-rule="evenodd" fill="#A2A2A1" d="M143.8,289.4c-8,2.3-27,5.9-27,5.9s-2.7,2.9-3.5,4
				c-0.7,1,2.3-0.2,6-1.3c3.7-1,25.2-8,25.2-8S151.8,287.1,143.8,289.4z"/>
		</g>
	</g>
	<g id="Shape_37">
		<g>
			<path fill-rule="evenodd" clip-rule="evenodd" fill="#A2A2A1" d="M247.3,279.1c14.2-4.3-37.1,10.3-37.1,10.3s-0.4,0.5-0.6,1.1
				c-0.2,0.5-0.9,1.7-1.4,2.3c-1.2,1.7-2.4,2.7-2.4,2.7l36.5-13.8C242.3,281.7,278,269.9,247.3,279.1z"/>
		</g>
	</g>
	<g id="Shape_38">
		<g>
			<path fill-rule="evenodd" clip-rule="evenodd" fill="#A2A2A1" d="M233.4,265.2c-5.7,0.7-12.4,1.5-12.4,1.5s-0.3,2.2-0.3,2.9
				c0,0.6,9.9-2.9,8.7-2.5C228.2,267.5,239.6,264.4,233.4,265.2z"/>
		</g>
	</g>
	<g id="Shape_39">
		<g>
			<path fill-rule="evenodd" clip-rule="evenodd" fill="#A2A2A1" d="M355.5,234.9c-0.4-0.2-0.8-0.3-0.8-0.3S354.9,234.8,355.5,234.9
				z M354.8,238.4c-0.4,0.1-0.6,0.2-0.5,0.2C354.4,238.6,354.6,238.5,354.8,238.4z M382.7,227.5c-13.3,4.1-19.9,6-23.1,6.9
				c-2.1,0.6-3.4,0.6-4.1,0.5c0.7,0.3,1.6,0.9,0.7,1.9c-0.8,1-1.2,1.4-1.5,1.6c3.9-1.4,28.1-9.7,28.1-9.7S412.1,218.4,382.7,227.5z"
				/>
		</g>
	</g>
	<g id="Shape_40">
		<g>
			<path fill-rule="evenodd" clip-rule="evenodd" fill="#A2A2A1" d="M327.4,221.4c-23.3,5.4-23,5.8-23,5.8l5.8,0.9
				c0,0,10.7-3.6,17.1-5.4C333.5,220.8,350.6,215.9,327.4,221.4z"/>
		</g>
	</g>
	<g id="Shape_83">
		<g>
			<path fill-rule="evenodd" clip-rule="evenodd" fill="#A2A2A1" d="M383.6,75.4c-17.5,2-19.9,2.6-19.9,2.6s-1,3.4-1.2,3.9
				c-0.2,0.5,17.9-3.7,20.9-4.5C386.2,76.6,401.1,73.4,383.6,75.4z"/>
		</g>
	</g>
	<g id="Shape_18">
		<g>
			<path fill-rule="evenodd" clip-rule="evenodd" fill="#B5B5B4" d="M220.9,233.3c-0.7-4.6-3.7-6.1-5.6-7.2c-3.3-2-6.5-0.4-8.8,2.6
				c-2.4,3-3.8,7.4-3.6,10.6c0.3,3.9,1.7,7.6,3.2,9.5c2,2.6,1.3-0.2,1.1-1.2c-0.4-2.3-0.1-5.5,0.8-8.4c0.9-2.9,2.3-4.8,4.1-5.7
				c1.3-0.7,1.9-1.8,2.4-1.8c0.7-0.1,0.9,1,2.5,2.3c0.9,0.7,2.4,2.6,3.3,6.2c0.9,3.6,1.1,1.8,1.1,0.8
				C221.5,240,221.6,237.9,220.9,233.3z"/>
		</g>
	</g>
	<g id="Shape_41">
		<g>
			<path fill-rule="evenodd" clip-rule="evenodd" fill="#B5B5B4" d="M205,76.9c-0.3-1.7-7.1-11.6-13.9-14.2
				c-8.4-3.1-17-4.9-26.7-3.6c-9.9,1.3-20.9,5.8-31.7,12.8c-10.6,6.8-23.1,20.3-24.6,22.8c-1.5,2.5,2.4-0.1,3.8-0.7
				c1.3-0.6,9.4-3.9,9.4-3.9s2.1-0.6,0.2,1.7c-1.9,2.4-13,21.1-14,34.9c-1,13.8,1,25.8,3.8,30c2.8,4.2,4.5,6.7,4.5,6.7l3-2.4
				c0,0-15.6-14-5.5-45.5c3.7-11.6,7.4-18.6,11.4-23.2c7-8.3,10.1-11.7,10.1-11.7l-19.8,9.8c0,0,2-2.3,7.4-6.8
				c3.7-3,9.6-8.2,15.6-11.8c6.6-4,13.1-6.4,12.2-6c8.1-3.1,16.5-4.7,24-4.5c10.6,0.3,19.5,4.1,25.2,11.9c5,6.7,4.3,7.6,4.3,7.6
				S205.3,78.6,205,76.9z"/>
		</g>
	</g>
	<g id="Shape_42">
		<g>
			<path fill-rule="evenodd" clip-rule="evenodd" fill="#B5B5B4" d="M260,71.4c0,0-2.5,6.6-3.9,10.8c-1.4,4.1-2.6,7.1-3.8,7
				c-1.1-0.1-2.2-14.6-2.2-16.2c0-1.6-1.1-0.6-1.1-0.6s-3.6,7.1-6.7,12.4c-1.9,3.3-3.9,5.9-3.9,5.9l-1.2-15.3c0,0-7.4,0.9-10.2,1.3
				c-2.8,0.4-15.1,2.8-15.1,2.8s2,4.4,2.1,9.8c0.1,4.8-1.5,10.3-2.6,14.3c-2.2,8.4-5.4,18.4-8.8,24.9c-4,7.5-7.9,12.4-7.9,12.4
				l29.2-7.1c0,0,3.4-3.9,6.7-8.3c0.4-0.6,0.8-0.9,1.2-1.4c3.7-5.4,6.6-11,7.1-11c0.5,0-2.5,17.2-2.5,17.2l18.2-4.3
				c0,0,10.2-19.9,15.2-30.4c5-10.5,8.7-26.7,8.7-26.7L260,71.4z"/>
		</g>
	</g>
	<g id="Shape_43">
		<g>
			<path fill-rule="evenodd" clip-rule="evenodd" fill="#B5B5B4" d="M303.1,95c-2,1.4-5.9,2.9-7.4,3.2c-1.5,0.3-1.8-0.5-1.4-0.9
				c0.4-0.3,4.8-12.2,6-15.3c1.2-3.1,4.5-17.4,4.5-17.4l-21.9,3.5c0,0-3.5,11.3-8.3,25.8c-4.8,14.5-14.6,29.3-14.7,30.3
				c-0.1,1,36-9.4,37-9.8c1-0.3,5.9-12.9,10-20.5C310.9,86.4,305.1,93.6,303.1,95z"/>
		</g>
	</g>
	<g id="Shape_44">
		<g>
			<path fill-rule="evenodd" clip-rule="evenodd" fill="#B5B5B4" d="M359.5,56c0,0-33.2,4.9-34.5,5c-1.2,0.1-1.7,0.3-1.7,0.3
				s-6.8,18-6.3,18.5c0.5,0.4,9.5,6.6,12.3,8c2.8,1.4,0.9,2.6,0.9,2.6s-2.8,1.5-7.3,2.4c-4.5,1-5.5,0.4-6.9-0.6
				c-1.4-1-2.3-4.2-2.8-4.2c-0.5,0-2.2,4.5-3.8,8.1c-1.6,3.7-3.6,7.4-3.8,10.6c-0.2,3.1,3.3,4.4,4.8,4.5c1.5,0.1,33.1-7.8,34.7-8.1
				c1.6-0.4,1.7-0.7,1.9-1.3c0.3-0.6,4.9-11.8,5.8-14.6c0.9-2.8-1-3.5-1.6-4c-0.5-0.5-8-5.5-9.9-6.7c-1.8-1.2-2.4-2.3-1.8-2.4
				c0.8-0.1,11.2-0.8,12.8-0.9c1.6-0.1,2.9,1.6,3.5,2.1c0.6,0.5,1,0.6,1.2-0.1c0,0,3.8-9.1,5.3-13.6C364,57,359.5,56,359.5,56z"/>
		</g>
	</g>
</g>
<g id="white_overlay_1_">
	<g id="Shape_45">
		<g>
			<path fill-rule="evenodd" clip-rule="evenodd" fill="#FFFFFF" d="M201,82.8c0.8-0.5,2.7-2.4,2.7-2.8c0-0.4-3.4-6.5-5.4-8.8
				c-5.4-6-14.1-9.5-22-10.2c-5.6-0.5-12.6,0.3-18.6,2c-10.4,2.9-21.2,7.7-31.9,17c-5.7,4.9-10.8,9.7-11.1,10.1
				c-0.2,0.3-0.8,0.9,0.7,0.2c1.3-0.6,15.7-7.9,18.4-9.2c0.7-0.6,0.4-0.2,0.4-0.2s-0.1,0.1-0.4,0.2c-0.5,0.5-1.6,1.6-3.8,3.9
				c-5,5.4-8.3,8.8-13.2,19.8c-4.9,11-7.5,22.8-7.1,32.2c0.2,5,1.3,11.5,3.4,16.2c2.1,4.9,5.5,7.8,5.5,7.8s7.5-4.8,13.9-6.4
				c6.5-1.6,7.6-2.2,7.8-1.7s-0.2,0.6-0.9,2.2c-0.7,1.6-1.5,4.4-1.5,5.5c0,1.2,0.3,0.9,1.3-0.4c1-1.3,3.3-4.7,4.4-5.7
				c1.1-1,2.6-2.5,3.7-2.6c1-0.1,11.1-0.6,16.4,0.5c5.3,1.1,9.1,1.7,9.8,2c0.7,0.3,1.6,0.9,2.3-0.2c0.7-1.2,11.4-13.8,18.3-29.7
				c6.9-15.9,8.5-24.1,8.3-27.9c-0.2-3.8-0.8-8.7-2.9-11.3C198.7,84.3,200.3,83.3,201,82.8z"/>
		</g>
	</g>
	<g id="Shape_46">
		<g>
			<path fill-rule="evenodd" clip-rule="evenodd" fill="#FFFFFF" d="M274.5,71.4c-2.1,0-5.4,0.6-8.2,1.1c-2.7,0.5-4.9,1-4.8,0.9
				c-1,2.2-2.3,8-4.6,12.5c-2.6,5.1-6.1,8.9-5.2,7.4c-1.5,2.3-2-0.2-2.1-0.4c-0.2-0.9-1-4.2-1-11.8c0.1-7.6-4.1,3.6-4.9,5
				c-0.8,1.4-4.4,7.3-5.9,10.7c-1.6,3.4-1.9,0.5-1.7-1.9c0.1-1.1-0.1-4.4-0.4-7.7c-0.3-3.8-0.7-7.7-0.7-8.3c-0.1-1.2-1-0.9-1.9-0.8
				c-0.8,0.1-17.6,2.7-18,2.9c-0.5,0.2,1,6.1,1,8.3c0.1,2.2-1,11-4.3,21.7c-3.3,10.8-10.4,24-11.1,25c-0.8,1-1,1.2-0.3,1.4
				c0.7,0.2,9.4-2.4,11-2.7c1.5-0.3,8.9-2.4,10.4-3c1.5-0.5,2.1-1.6,2.7-2.4c0.6-0.8,4.1-6.1,6.5-9c2.4-3,6.2-9.5,7.9-12.9
				c3.1-6.4,2.1-2.3,2.4-0.3c0,0.2-0.1,5.2-0.4,9.1c-0.4,4.3-1.2,7.5-1.2,7.5s-0.5,3.5-0.2,3.6c0.3,0.1,4.9-0.9,6.7-1.4
				c1.8-0.5,7-1.8,7.5-2.6c0.5-0.8,5.6-10.9,11.4-22.9c5.8-12,9.2-23.6,10.3-26.7C276.5,70.6,275.1,71.4,274.5,71.4z"/>
		</g>
	</g>
	<g id="Shape_47">
		<g>
			<path fill-rule="evenodd" clip-rule="evenodd" fill="#FFFFFF" d="M300.7,98.6c-3,1.5-5.8,2.4-6.8,2.2c-0.9-0.2-2.9-1-2-3.2
				c0.9-2.2,2.6-5.9,5.2-13.6c2.6-7.7,4.6-15.3,4.6-15.7c0-0.5,0.3-0.9-0.6-0.9c-0.9,0-15.3,1.9-16.2,2.4c-0.3,0.2-5,16.2-8,23.9
				c-3.1,7.7-6.8,16.5-8.5,19.6c-1.8,3.1-3.6,6.9-3.8,7.2c-0.2,0.3,0.1,0.6,1.1,0.4c1-0.3,19.2-5.1,20.5-5.4c1.3-0.3,8.1-2,8.5-2.2
				c0.4-0.1,0.7-0.1,1.5-1.6c0.8-1.5,6.1-12.8,6.1-12.8S303.7,97.2,300.7,98.6z"/>
		</g>
	</g>
	<g id="Shape_48">
		<g>
			<path fill-rule="evenodd" clip-rule="evenodd" fill="#FFFFFF" d="M358,58.2c-0.6,0.1-29.9,4.4-31.1,4.7c-1.2,0.3-1.6,0.4-1.6,0.4
				s-5,12.4-5.5,13.9c-0.6,1.5-0.2,1.7,0.1,2.1c0.3,0.4,12.2,7.8,13.1,9.1c0.9,1.3-0.8,3.4-1.5,3.9c-0.7,0.5-10.9,3.1-12.3,3.4
				c-1.4,0.4-4-1.2-4.7-2.1c-0.7-0.9-1.3-0.3-1.3-0.3s-3,6.9-4.1,9.4c-1.1,2.5-1,3.5-0.5,5.2c0.5,1.7,3.2,0.9,3.2,0.9
				s31.7-7.9,32.6-8.1c0.9-0.2,1.2-0.9,1.2-0.9s4.7-11.7,5.1-13.3c0.4-1.6-1.7-2.2-2.4-2.7c-0.7-0.5-9.9-7.6-12.2-9.9
				c-2.3-2.2,0-1.6,1.3-1.7c1.3-0.2,11.6-1.4,13-1.5c1.4-0.1,2.3,0.1,3.9,0.6c1.6,0.5,2.1,0.7,2.3,0.2c0.2-0.5,2.7-7.2,3.1-8
				c0.4-0.8,1.5-3.1,1.5-4.1C361.2,58.5,358.6,58.2,358,58.2z"/>
		</g>
	</g>
	<g id="Shape_80">
		<g>
			<path fill-rule="evenodd" clip-rule="evenodd" fill="#FFFFFF" d="M214.4,152.9c-0.7,0.2-23.8,6.2-25.7,6.6
				c-1.9,0.4-1.3,0.9-1.1,1.3c0.2,0.4,0.8,0.3,3,2.2c2.2,1.9,1.1,2.4,0.7,2.4c-0.4,0-5-0.4-5.7-0.1c-0.8,0.4,5.9,9.4,7.1,10.6
				c1.1,1.2,0.9,1.1,2.9,0.4c2-0.7,7.7-7.5,10.5-10.1c2.8-2.5,6.9-9.4,8.8-11.9C216.8,151.8,215.1,152.7,214.4,152.9z"/>
		</g>
	</g>
</g>
<g id="red_layer_1_">
	<g id="Shape_52">
		<g>
			<path fill-rule="evenodd" clip-rule="evenodd" fill="#961A33" d="M146.4,251c-0.4-0.4-2.8-1.4-4.4-2.3c-1.6-0.9-2.2-1.3-3.8-2.7
				c-1.6-1.4-2.2-1.2-2.4-0.9c-0.3,0.3-4.9,4.8-12.8,10.9c-7.9,6.1-16.5,10.6-16.5,10.6c-0.5,1,6.2,5,7.5,5.5
				c1.3,0.5,2.3-0.2,4.5-0.7c1.9-0.4,3.6-1.4,2.3-1.6c-1.1-0.2-2.5-0.8-3.5-1.5c-1-0.7-0.3-0.6,0.3-0.6c1.2,0,6.5-0.8,10.4-2
				c3.8-1.2,6.1-2.9,6.9-3.2c2.6-0.9-0.2-1-1-1.4c-0.8-0.3-2.7-0.2-4.3-0.6s-1.6-1.3-0.8-1.4c2.6-0.3,6.3-1.4,9.5-2.6
				c3.3-1.2,6.3-2.6,7.5-3.5C148.4,251.3,146.8,251.3,146.4,251z"/>
		</g>
	</g>
	<g id="Shape_53">
		<g>
			<path fill-rule="evenodd" clip-rule="evenodd" fill="#961A33" d="M108,224.4c-0.5,0.1-1.3,0-2.4,0c-1.1,0-2.2-0.4-2.2-0.4
				c-2.4-0.2,0.1,1.5,1.1,1.7c1,0.3,2.4,0.1,3.9,0C110,225.6,108.5,224.3,108,224.4z"/>
		</g>
	</g>
	<g id="Shape_56">
		<g>
			<path fill-rule="evenodd" clip-rule="evenodd" fill="#961A33" d="M37.5,146.2c0-0.1-0.1-0.2-0.1-0.3
				C37.3,145.7,37.3,145.8,37.5,146.2z M116.2,239.8c0,0,0,0,0.1,0C116.3,239.8,116.3,239.8,116.2,239.8z M125.5,235.4
				c-0.5-0.3-2.2-2.6-3.1-3.6c-0.9-1-1.9-2.6-3-5.9c-1-3.3-1.9-1.5-2.2-1c-0.2,0.4-2,3.1-2.7,3.7c-0.7,0.6-2.6,1.5-6.1,1.6
				c-3.5,0.1-8.6-0.5-10.6-2.4c-2-2-2.2-1.8-4.2-1.8c-2,0-6.7-0.7-10.4-2.2c-3.7-1.5-6.3-5.2-7.3-6.4c-1-1.2-2.2-1.6-2.7-1.7
				c-0.6-0.1-1.5-0.1-6.6-3.2c-5.2-3.1-6.3-9.3-6.1-10.4c0.2-1.1,1.3-0.2,1.9,0.1c0.6,0.2,2.1,0.7,5.2,1.1c3.1,0.4,1.5-0.8,1.2-1.2
				c-0.3-0.3-1.4-1.7-2-2.5c-0.6-0.8-1.6-1.9-1.7-2.8c-0.1-0.9-0.7-2.2-1.4-2.9c-0.7-0.6-3.5-2.7-4.4-4c-0.9-1.3,0.5-0.9,0.9-0.6
				c0.4,0.3,4.5,1.8,7,2.1c2.5,0.3,3.4,0.3,5.9,0.3c2.6-0.1,0.8,1.3,0.5,1.7c-0.3,0.4-2.8,1.6-3.4,2.1c-0.6,0.5-0.9,0.9-0.4,1.3
				c0.5,0.4,2,1.9,4.9,3.1c2.9,1.2,6.6,1.2,8.8,1.2c2.2,0,0.6,1.3,0.6,1.3s-3,2.4-3.4,2.7c-0.4,0.3-0.5,0.8,0,1.2
				c0.5,0.4,3.6,2,7.5,2.4c3.9,0.4,7.7-0.5,10.2-0.6c1.5-0.1,1.3,0.7,0.7,1.4c-0.6,0.8-1.8,1.6-3.6,2.8c-1.9,1.3-0.3,1,0.6,1.3
				c3,0.8,5.2,0.7,6.8,0.3c2-0.5,3.3-1.5,4.6-1.7c1.8-0.4,1.1-0.2-1.4,4.8c-2.5,5,2.3,1.4,3,1c0.8-0.4,4.7-1.9,4.4-2.3
				c-0.3-0.5-2.9-3.7-3.7-4.6c-0.8-0.9-4.6-2.7-8.5-4.5c-3.9-1.8-13.1-7.2-22.7-14.8c-9.6-7.5-13.2-12.7-19.6-21
				c-6.5-8.3-9.9-20.7-10.8-24.7c-0.9-4-2.9-16-3.2-24.9c-0.3-6.9,0.1-12.7,1.8-21c0-0.1,0-0.2,0.1-0.4c0,0.1,0,0.2-0.1,0.4
				c-0.2,1.2,0.8-3.3,1.8-7.7c1-4.7,2.6-10.9,0.3-7.5c-0.5,0.7-1.3,1.4-8.7,10.7c-2.5,3.1-5.6,7.5-6.9,15.7
				c-1.3,8.1-0.6,20.1,4.2,34.6c0.6,1.7,8.7,24.8,16.4,32.3c8.8,8.7,5.3,7.3-2.8,1.7c-4.1-2.9-9.9-11.8-15.6-21.8
				c-5.7-10-9.1-21-10.1-26.8c-1-5.8-1.6-2.3-1.7-1.8s-0.4,1.3-1.4,7.1c-1,5.8-1.2,14.4-0.2,18.2c1,3.8,5.9,12.2,13.4,21.5
				c7.5,9.3,16.7,14.8,21.1,18.1c4.4,3.3-0.1,2.2-2,1.6c-5.2-1.6-10.9-5-16-8.9c-4.1-3.1-8.7-7.5-12.3-11.2
				c-3.6-3.7-6.3-6.7-6.3-6.3c-0.1,0.3-0.1,2.4-0.2,5.9c-0.1,3.6,0.9,5.4,1,5.9c0.1,0.5,2.3,2.6,9.2,9.2
				c6.9,6.6,21.7,11.7,24.1,12.8c2.3,1.2,0.2,2-1.7,2c-1.9-0.1-8.3-1-9.8-1.4c-1.5-0.3-6.5-0.8-11.1-3.1c-4.5-2.4-4-1.5-1.7,1.7
				c2.2,3.2,5.5,6.1,12.4,8c6.9,1.9,12,0.5,14.6,0.5c2.6,0,1,1.2,0.8,1.6c-0.3,0.4-3.1,1.9-5.1,2.8c-1.9,0.9-4.4,1.3-5.2,1.7
				c-0.9,0.4-0.8,0.7,0.6,2c3.7,3.4,8.4,4.5,13.9,4.8c3.8,0.2,11.5-0.3,13.9-0.5c2.4-0.2,0.4,1.9-0.2,2.3c-0.6,0.4-1.5,1.3-2.8,2.4
				c-1.3,1.1-0.2,1.2,0.3,1.5c0.6,0.3,5.5,1.3,9.4,1.6c3.9,0.3,8.9-0.4,11.9-1c3-0.6,0.8,1.5-0.2,2.9c-1,1.3-0.4,1.2,1.5,1.5
				c1.9,0.2,9.9-0.2,14.6-1.4c4.8-1.2,4.8-1.9,7.9-3.4c3.1-1.5,0.7,1.6,0.4,2.6c-0.3,1-1.3,2.8-3,5.7c-1,1.8-0.2,1.9,1,1.7
				c0.1,0,2-0.4,4.3-0.9c1.6-0.4,3.4-0.8,4.9-1.3C127.6,236.8,126,235.8,125.5,235.4z"/>
		</g>
	</g>
	<g id="Shape_54">
		<g>
			<path fill-rule="evenodd" clip-rule="evenodd" fill="#961A33" d="M93.8,219.9c-0.6-0.2-2.5-2.1-3.6-2.4c-0.6-0.2-3.1-0.4-4.5-0.3
				c-2,0.1-0.6,0.7,1,2.1c1,0.9,3.1,1.8,5.9,1.7C95.3,221,94.4,220.1,93.8,219.9z"/>
		</g>
	</g>
	<g id="Shape_55">
		<g>
			<path fill-rule="evenodd" clip-rule="evenodd" fill="#961A33" d="M76.8,210.5c-0.2-0.3-2.9-3.2-2.9-3.2c-0.6-0.5-4.9,0.2-5.6,0.4
				c-0.7,0.2-0.8,0.2-0.5,0.7c0.3,0.5,3.8,2,6.7,2.6C77.4,211.5,77.1,210.8,76.8,210.5z"/>
		</g>
	</g>
	<g id="Shape_57">
		<g>
			<path fill-rule="evenodd" clip-rule="evenodd" fill="#86162E" d="M103.7,194.9c-0.4-0.2-7.5-4.1-17.4-11.3
				c-9.9-7.2-12.6-10.7-17.5-17c-2.5-3.2-3.5-4.4-5-6.6c-1.4-2.2-3.3-5.2-6-12.1c-5.5-13.6-1.4-0.6-1.4-0.6s2.1,7.4,6.6,15
				c0.4,0.7,4.2,6.3,11.1,13.8c6.3,6.8,15.2,15.1,26.6,22.4c3.9,2.5,3.1,1.4,3.1,1C103.9,199.1,104.1,195.1,103.7,194.9z"/>
		</g>
	</g>
	<g id="Shape_58">
		<g>
			<path fill-rule="evenodd" clip-rule="evenodd" fill="#86162E" d="M109.1,167.8c-0.6-0.7-6.5-9.8-6.9-12.2
				c-0.9-2.3-4.3-10.1-2-27.2c4.4-18.9,1.1-9.3,0.7-8.2c-0.5,1.1-2.7,10.8-2.7,10.8s-1.3,6.9-1,16.5c0.2,9.6,8.3,21,9.7,22.5
				c0.3,0.3,0.6,0.3,1,0.1c0.5-0.2,0.9-0.7,1.2-1.2C109.2,168.5,109.3,168.1,109.1,167.8z"/>
		</g>
	</g>
	<g id="Shape_65">
		<g>
			<path fill-rule="evenodd" clip-rule="evenodd" fill="#961A33" d="M219.8,141.1c-0.3-0.3-31.5,7.7-32.5,8.4
				c-1,0.7-5.1,4.7-4.8,5.2c0.3,0.5,32.7-8,33.4-8.6C216.8,145.5,220.1,141.4,219.8,141.1z"/>
		</g>
	</g>
	<g id="Shape_66">
		<g>
			<path fill-rule="evenodd" clip-rule="evenodd" fill="#961A33" d="M231.8,137.8c-0.8,0.4-4.8,5.1-4.3,5.3
				c0.5,0.2,17.4-3.8,18.1-4.1c0.6-0.3,4.6-5.4,4.5-5.7C249.9,133,232.5,137.4,231.8,137.8z"/>
		</g>
	</g>
	<g id="Shape_67">
		<g>
			<path fill-rule="evenodd" clip-rule="evenodd" fill="#961A33" d="M290.1,123c-1.6,0.4-35.1,8.8-35.1,8.8l-4.3,5.3
				c0,0,36.1-8.8,37.6-9.7c1.5-0.8,4.5-4.3,4.5-4.6C292.7,122.5,291.7,122.6,290.1,123z"/>
		</g>
	</g>
	<g id="Shape_68">
		<g>
			<path fill-rule="evenodd" clip-rule="evenodd" fill="#961A33" d="M272.7,142.8c-0.3,0.2-5.6,3.3-6.5,3.8
				c-0.9,0.4-1.5,1.2-1.6,1.7c-0.2,1.8-1.6,4.7-2.3,5.8c-0.7,1.1,0.6,1,1.4,0.9c0.8-0.2,5.1-1.5,6.7-3c1.7-1.5,1.7-2,2.8-5.8
				C274.4,142.4,273,142.5,272.7,142.8z"/>
		</g>
	</g>
	<g id="Shape_69">
		<g>
			<path fill-rule="evenodd" clip-rule="evenodd" fill="#961A33" d="M267.3,158.6c-0.7,0.2-8.8,2.7-9.3,2.9
				c-1.1,0.3-1.7,3.6-2.5,4.8c-0.8,1.1-1.7,2.9-1.1,2.9c0.6,0,6.7-1.9,8.3-2.8c1.5-0.9,3.2-2.1,5.5-5.5
				C270.5,157.5,268,158.5,267.3,158.6z"/>
		</g>
	</g>
	<g id="Shape_70">
		<g>
			<path fill-rule="evenodd" clip-rule="evenodd" fill="#961A33" d="M256.5,173.8c-0.7,0.3-8.5,0.7-8.5,0.7c-0.6,0-1.2,1-2.2,1.8
				c-0.7,0.5-1.7,0.8-2.2,1.5c0.2-0.2-0.7,1.4-1.3,3.1c-0.7,1.7-1.1,3.4-0.1,3c1.2-0.5,6.4-1.2,8.8-3c2.4-1.8,4.5-3.8,5.7-5.3
				C258,174,257.2,173.4,256.5,173.8z"/>
		</g>
	</g>
	<g id="Shape_59">
		<g>
			<path fill-rule="evenodd" clip-rule="evenodd" fill="#961A33" d="M116.2,207.1c-0.8-1.9-1.7-5.2-1.7-5.9c0-0.7-0.2-1.3-1-0.7
				c-0.8,0.6-1.8,1.5-2.2,1.7c-0.4,0.2-1.1,0.7-1.2-0.3c-0.3-3.4-0.1-7.1,0.1-10c0.3-2.8,1.1-4.7,0.6-4.8c-0.5-0.1-1.5,2-1.9,4.7
				c-0.4,2.7-0.7,6-0.6,8.1c0.2,2.7,0.3,4.2,0.6,4.7c0.2,0.5,0.6,1.1,1.6,0.5c1-0.7,1.6-1.3,1.8-1.5c0.2-0.2,0.6-0.8,1.2,0.6
				c0.6,1.4,1.1,2.6,1.7,3.1C115.8,207.8,117,209,116.2,207.1z"/>
		</g>
	</g>
	<g id="Shape_60">
		<g>
			<path fill-rule="evenodd" clip-rule="evenodd" fill="#961A33" d="M126.2,210.3c-0.3-0.3-4.4-3.6-4.4-3.6c-1-0.9-1.2,0.3,0.1,2.2
				c1.2,1.7,3.7,4,3.7,4c0.6,0.5,0.9,0.7,0.9,0.5c0-0.2,0.1-1.9,0.1-2.3S126.5,210.6,126.2,210.3z"/>
		</g>
	</g>
	<g id="Shape_61">
		<g>
			<path fill-rule="evenodd" clip-rule="evenodd" fill="#961A33" d="M137.7,207.4c-0.6-1-3.1-3.7-3.5-5.1c-0.4-1.4-0.8-2.8-0.8-3.3
				c0-0.5-1,0.4-2.1,0.8c-1.2,0.4-2.9,1.2-4.5,1.1c-1.5-0.1-3.1-0.3-1.1-1.2c2.1-0.9,2.6-1,3-1.4c0.4-0.4,1.5-0.8,0.1-1.3
				c-1.4-0.4-5.6-0.6-7.6-3.1c-2.2-2.8-3.1-4.8-3.5-6.1c-0.5-2-0.1-3.8-1.7-0.1c-2,4.9-2.2,6.2-2.4,7.6c-0.1,1.4,0.1,1.8,0.9,1.4
				c0.8-0.5,1.2-1.1,1.6-0.5c0.4,0.6,1.5,2.5,3.4,4.6c1.9,2.1,2.7,2.8,4.2,3.1c1.4,0.2,3.6-0.4,4.1,0.8c0.4,1.2,1.1,4.2,2.4,7
				c1.3,2.8,5,4.9,5.9,5.6c0.8,0.7,2.5,3.1,2.4,0.2C138.4,214.6,138.3,208.4,137.7,207.4z"/>
		</g>
	</g>
	<g id="Shape_62">
		<g>
			<path fill-rule="evenodd" clip-rule="evenodd" fill="#961A33" d="M147.8,204.7c-0.2-0.7-0.4-3.4-1-2.4c-0.7,1-2.4,3.5-2.4,3.5
				s-0.6,1.1,0.7,1c1.2-0.1,1.6-0.2,2-0.7S148,205.5,147.8,204.7z"/>
		</g>
	</g>
	<g id="Shape_63">
		<g>
			<path fill-rule="evenodd" clip-rule="evenodd" fill="#961A33" d="M186.5,183.5c-0.9-3.4-2.7-6-2.7-6.4c0-0.4-0.4-0.9,0.3-1
				c0.7-0.1,2.5,0.3,2.3-0.3c-0.2-0.6-1.9-4-5.9-7.2c-4-3.2-6.8-4.9-7-5.5c-0.2-0.5-0.2-1.7,0.7-1.6c0.8,0.1,1.6-0.9,0-1.3
				c-1.6-0.4-4.7-1.5-7.9-1.3c-3.2,0.3-7.7-0.1-12.2,4.3c-2,2-3.7,3.4-5,4.8c-1.6,1.9-2.4,3.7-2.7,4.3c-0.6,1-2.6,2.1-1.7-1
				c0.9-3.2,2.2-5.6,3-6.6c0.8-1.1,2.2-2.9,2.7-3.5c0.5-0.5,2.6-2.8-1.3-1.4c-1.6,0.6-3.9,0.5-5.8,2.1c-2.1,1.8-3.8,5.4-4.9,5.9
				c-0.7,0.3-0.5,1.3-2-0.7c-1.5-2.1-2.3-3.8-2.9-4.4c-0.6-0.6-1-0.9-1.9-0.4c-0.9,0.4-5.7,3.2-5.9,3.7c-0.2,0.5,0.1,0.9,0.6,1.3
				c0.5,0.4,6.8,5.5,7.5,6.3c0.7,0.7,4.7,5.5-1.1,1.9c-2.2-1.3-4.1-3.2-6-4.2c-2.4-1.2-4.5-1.3-4-1.1c-2.8-0.8-5.3-1.2-2.4,1.2
				c0,0,4.7,1.7,9.2,6.5c4.5,4.8,6.3,5.7,7,6.2c0.7,0.4,2.8,1.7,2.7-1c-0.1-2.8-0.1-3,0.2-3.5c0.3-0.5,1.4-2.3,2.2,0.3
				c0.9,2.6,1.6,3.9,2.1,4.3c0.5,0.4,3.5,0.9,5.3-3.1c2-4.5,2.6-8.9,4.3-12.3c1.7-3.4,4.3-4,9.5-5.7c3.6-1.2,6.7-1.3,3.9,1.1
				c-2.8,2.4-0.1,1.8,0.8,2.4c1,0.6,7.8,3.5,11.6,9.3c3.8,5.8,5.3,10.4,5.2,11.5c-0.1,1.1,0.8,2-0.7,1.7c-1.5-0.3-3.6-0.8-4.2-0.8
				c-0.6,0-0.8-0.1-0.8,0.7c0,0.8-0.1,7.8-0.4,9.4c-0.3,1.7,0.5,3.1-5.2,6c-5.7,2.9-10.6,6-12,6.5c-1.4,0.5-7.8,3-1.2-1
				c6.6-4,9.9-6.6,11.4-8.1c1.4-1.5,3.5-2.9,3.5-8.9c0-6-0.3-8.6,0-9c0.3-0.4,0.4-1,1.8-0.6c1.4,0.4,2.8,0.9,2.7,0
				c-0.2-1-1.5-3.9-3.5-5.9c-1.9-2.1-4.6-4.6-5.2-5c-0.6-0.4-3-2.8-1.7,0.5c1.8,4.4,1.8,8.9,0.6,12.6c-1.3,4-3.7,6.2-6.3,7.4
				c-2.6,1.3-5.5,1.5-7.5,1.7c-0.7,0-3.5-0.5-0.6,0.9c2.6,1.2,6.2,2.1,1.7,2.5c-3.1,0-4.5-0.4-4.8-0.5c-0.3-0.1-1.7-0.6-0.5,2.5
				c1.2,3.1,1.6,3.6,1.4,7.3c-0.1,3.7-1.5,9-1.8,9.6c-0.4,0.6-1.4,2.3,1,1c2.3-1.2,16.1-8.7,16.9-9.1c0.8-0.4,1.6-0.9,3.4,0.4
				c1.8,1.4,2.4,1.8,3.7,0.3c1.3-1.5,4.2-4.9,4.9-7.8c0.8-2.9,0.8-7.6,0.8-8.1c0-0.5,0.8-0.5,1.7-0.4c0.9,0.1,3.5,0.3,3.5,0.3
				s0.5,0.4,0.5-0.6C187.7,191.8,187.5,186.8,186.5,183.5z"/>
		</g>
	</g>
	<g id="Shape_64">
		<g>
			<path fill-rule="evenodd" clip-rule="evenodd" fill="#961A33" d="M328,123.5c-1.6,0.7-4.5,3.8-18.5,10.1c-13.9,6.3-17.1,6.4-20,7
				c-2.9,0.6-8.4,1.4-4.4-0.2c4-1.6,7.9-3.9,14-6.7c6.1-2.8,6.4-3.6,7.1-4c0.7-0.4,3.1-2.4-0.4-1.3c-3.6,1.1-6.4,2.2-7.5,2.1
				c-1.1-0.1-1.6-2.2-2.3-2.8c-0.7-0.6-0.7-1.4-2.4,0.3c-1.6,1.7-1.3,4-7.7,6c-6.5,2-5.2,1.3-5.9,1.5c-0.7,0.2-0.7,0.3-0.5,4.5
				c0.2,4.3-1.2,9-2.7,11.7c-1.4,2.7-0.8,6.5-2.8,9.1c-1.4,1.8-3,4.4-5,6.3c-1.2,1.2-4.7,2.4-5.9,3.7c-0.2,0.2-0.3,2.1-1.7,4.7
				c-1.5,2.7-4.3,6.2-7.4,8.1c-5.1,3.1-4.6,2.4-6,2.9c-1.4,0.5-0.9,1.2-2.4,3c-1.5,1.7-4.9,5.2-6.9,6c-2,0.8-5.4,1.2-1.9-0.5
				c3.5-1.7,5.2-3.9,5.4-4.8c0.2-0.9-1.8-2.1-3.6-1.9c-1.8,0.2-1,0.1-4,1.7c-3,1.5-7.4,2.7-10.5,2.6c-3.1-0.1-4.5-0.1,1.3-1.8
				c5.8-1.7,7-3,8.7-4.6c1.7-1.7,2.3-2,2.5-3.1c0.3-1.1,0.8-2.3-0.5-2.4c-1.4-0.1-8.1,0.4-8.6-0.1c-0.5-0.6-1.1-2,1-2.1
				c2.1-0.1,9-0.8,13.1-4.2c4.2-3.4,6.9-6.7,7.3-7.6c0.4-0.9,0.7-1.4-1.3-0.9c-2,0.5-1.8,0.8-5.1,1.1c-3.3,0.3-3.4,0.2-4.2,0.2
				c-0.8,0-2.9-1.4-0.8-2.1c2.1-0.7,9.2-1.9,13-5.2c3.8-3.2,7-7.8,7.4-9.1c0.5-1.3,2.4-3.5-2.2-1.7c-2.1,0.8-3.9,1.6-5.5,2.1
				c-1.6,0.6-2.8,1-3.6,1.1c-2.1,0.3-3.2-0.5-0.3-1.7c4.4-1.8,10.7-5.7,11.5-6.6c0.8-0.9,5.4-3.8-0.6-2.1c-6,1.7-7.7,2.2-9.7,2.7
				c-2.1,0.5-6.3,1.2-7,1.5c-0.7,0.3-1.4,0.2-2.1,1.9c-0.7,1.7-5.4,11.8-8.7,17.1c-3.3,5.3-12.9,19.2-15.9,23.4
				c-3,4.2-6.6,8.7-8,9.9c-1.4,1.1-3.6,3.1-5.1,3.5c-1.5,0.5-4.5-0.9-6.3-1.4c-1.8-0.6-5-1.5-6.1-1.1c-1.1,0.3-1,0.6-2.1,2.6
				c-1,2.1-3.1,6.3-5.7,9.4c-2.7,3.1-4.2,5.1-4.8,5.3c-0.7,0.2-2.8-1.1-3.7-1.7c-0.8-0.6-2.8-2.1-3.5-1.6c-0.7,0.5-8,5.3-13.9,8.1
				c-3.9,1.9-6.8,2.4-9.2,3.2c-3.6,1.2-6,2.1-6.6,2c-1.1-0.1-0.4-1-0.4-1.4c0-0.3,0.2-2-0.8-2.3c-2.9-0.9-6.8-2.7-10-4.4
				c-3.1-1.7-5.5-2.9-5-2.6c-0.7-0.3-3.3-2-0.2,3.1c3.8,6.3,2.7,4.6,5.5,8.4c2.7,3.8,5,3.1,6.6,4.3c1.7,1.2,3.8,3,4.2,3.6
				c0.3,0.6,0.8,1.2,1.4,0c0.6-1.2,0.9-2.3,1-2.7c0.1-0.3,0.9-1.4,1.6,0.5c0.7,2,2.3,4.4,2.9,5.6c0.7,1.2,1.5,4,2.4,1.3
				c1-2.7,1.4-4,1.7-4.5c0.2-0.6,0.8-4,1.9-1.4c1.1,2.6,1.4,4,2.9,0.7c1.5-3.3,3.3-6.1,4.6-6.3c3.7-0.6,6-1,7.7-1
				c2.8,0,3.7,0.9,5.7,3.5c1.1,1.4,2.2,5.4,3.7-0.5c1.2-4.7,2.7-6.9,5.4-8.5c2.7-1.6,6-2.2,8.9-2.2c3.4,0,6.3,1.7,7.4,3.4
				c1,1.6,1.8,2.7,2.1,3.4c0.2,0.7,1.2,1.9,3.1-1.5c1.9-3.4,3.6-6.1,7.6-5.6c3.9,0.5,7.3,1.6,8.8,2.5c1.8,1.1,2.8,3.1,3.4,3.7
				s5.2-0.8,6.2-1c1-0.2,2.4,0.1,1.4,1.5c-1.1,1.4-4.7,2.9,0,2.6c4.7-0.3,12.9-0.7,13.3-0.8c0.4,0,2.4,0.2,0.7,1.8
				c-1.7,1.5-2.1,1.7-2.4,2.1c-0.6,0.7-2.1,1.3,2.8,1c4.2-0.3,14.9-0.9,15.4-1c0.5,0,4-0.5,0.2,1.6c-3.8,2.1-15.2,7.1-23.1,9.7
				c-7.9,2.6-11.2,3.5-11.8,3.6c-0.5,0.1-2.6,2.9-0.2,2.6c2.4-0.3,15.3-3.9,24.3-8c9.1-4.1,26.3-11.7,27.3-12c1-0.3,4.9-1.1-0.3-1.6
				c-5.2-0.5-26-3.8-32.8-5.8c-6.8-2-20.1-5.4-23.5-6.6c-3.4-1.3-7.7-2.8-7.9-3.5c-0.2-0.7,5,0,6,0c1,0,4.2-0.2,0.7-1
				c-3.5-0.9-12.2-3.5-13.2-4.1c-1-0.6-1.7-1.3,2.8-1.1c4.5,0.2,7.5,0,12.9,1c5.4,1,9,2.8,10,3c2,0.4,11.7,1,13,0
				c0.5-0.4,0.2-0.8-0.5-1.4c-0.7-0.6-4.9-4.5-5.4-5.1c-0.4-0.6-2-2.2,2.4-0.3c4.4,1.9,11.6,2.9,13.9,2.6c2.4-0.3,11.5-3.3,12.2-3.8
				c0.7-0.5,1.7-1.6,0.1-2.1c-2.2-0.8-4.4-1.3-6.2-1.9c-1.8-0.6-2.6-1.4-3.8-2.3c-0.5-0.3-2.6-2.4,2.1-1c4.7,1.4,6.8,2.6,11.8,2.1
				c5.1-0.4,10.8-4,11.4-4.9c0.6-0.9,2.3-1.3-0.4-2.1c-2.7-0.7-5.7-0.6-9.8-2c-4.1-1.4-5.8-2.1-7-2.6c-1.1-0.6-7.1-4.5,1.5-2.1
				c8.6,2.4,16.3,3.6,19.2,3c2.8-0.6,7.2-3.1,8-4c0.8-1,2.2-0.2-3.4-2.9c-5.6-2.7-6.4-3.7-8.4-5.3c-2-1.6-3.3-2.7-3.7-3.3
				c-0.4-0.7-4-3.8,2.2-1.3c6.2,2.5,12.6,3.7,15,3.8c2.4,0.2,11.2,1,13.9-0.8c2.7-1.8,8.5-9.3,9-10c0.4-0.7,0.8-1.3-0.7-1.4
				c-1.5-0.1-8.4,0.3-16.5-0.7c-8.1-1-12.6-1.4-13.6-1.8c-1-0.4-6.2-1.8,0.4-2.2c6.6-0.4,21.6-2.4,27-4.5c5.4-2.1,9.7-4.7,11.3-12.7
				c1.6-8,2.4-13.4,2.4-14C329.4,123.5,329.6,122.7,328,123.5z"/>
		</g>
	</g>
	<g id="Shape_82">
		<g>
			<path fill-rule="evenodd" clip-rule="evenodd" fill="#961A33" d="M224.8,150.4c-1,1.1-14.4,20.8-18,24.8c-3.6,4-4.5,6.1-4.5,6.7
				c-0.2,1.9,0.2,5.1,0.5,6.1c0.2,1,0.9,0.8,2.5-2c1.6-2.8,15.3-22.4,17-25c1.7-2.6,7.1-10.8,7.1-11.3
				C229.3,149.3,225.8,149.2,224.8,150.4z"/>
		</g>
	</g>
	<g id="Shape_71">
		<g>
			<path fill-rule="evenodd" clip-rule="evenodd" fill="#961A33" d="M332,112.2c-4.8,1.3-25.1,6.5-25.1,6.5s-3.9,4.9-3,4.8
				c0.9-0.1,28.2-7.2,29-7.7c0.8-0.5,5.2-4.5,5.3-4.8C338.1,110.5,336.8,110.9,332,112.2z"/>
		</g>
	</g>
	<g id="Shape_72">
		<g>
			<path fill-rule="evenodd" clip-rule="evenodd" fill="#961A33" d="M223.8,43.4c-1.2-1.6-7.6-9.6-16.5-16c-9-6.4-22.3-3.5-24.6-3.3
				c-0.7,0-1.9,0.6-1.2,0.9c0.7,0.3,10.1,6.5,11.2,6.4c1,0,4,0.2,8,0c4-0.2,5.4,0.3,7.9,1.1c2.5,0.8,1.1,2.2,0.4,2.4
				c-0.7,0.1-4,0.7-6.1,1.6c-0.8,0.3-1.6,0.4-1.3,1c0.3,0.6,2.7,2.1,4.6,3.6c1.3,1.1,2.2,2.2,2.6,2.6c0.6,0.7,1.4,0.3,1.8,0.4
				c1.7,0.3,5.6,0.3,8.4,2.3c1.5,1.1,2.4,1.4,3.5,1.4C227.3,47.7,225,45,223.8,43.4z"/>
		</g>
	</g>
	<g id="Shape_73">
		<g>
			<path fill-rule="evenodd" clip-rule="evenodd" fill="#961A33" d="M256,38.5c-1.8-4.7-4.6-8.6-9.3-11.3
				c-4.6-2.6-11.1-4.1-20.2-3.9c-4.1,0.1-4.4-0.1-4.1,0.4c0,0,3.6,5.2,3.9,5.5c0.1,0.1,0.9,0,2.3,0.1c6.7,0.2,11.3,1.9,14.1,3.5
				c0.8,0.4,2.1,1.3,3.2,2.3c1.1,0.9,2.1,1.9,2.5,2.8c0.3,0.6,1,1.5-1.8,1.4c-3.3-0.1-5.9,0.6-8.1,0.9c-2.1,0.3-3.6,0.2-4.4,0.9
				c-0.1,0.1-0.1,1,0.1,1.9c0.2,0.9,0.5,1.8,0.8,1.9c1.5,0.4,3,0.1,5.3,0c2.3-0.1,14.5-1.9,15.7-2.2C257.3,42.3,256.8,40.6,256,38.5
				z"/>
		</g>
	</g>
	<g id="Shape_74">
		<g>
			<path fill-rule="evenodd" clip-rule="evenodd" fill="#961A33" d="M279.7,33.8c-7.2-2.4-12.9-3.9-14.1-3c0,0,1.3,6.6,2.6,7.6
				c1.3,1,6.6,1.4,9,1.3c2.4-0.2,9.8-1.6,10.1-1.8C287.7,37.6,286.9,36.1,279.7,33.8z"/>
		</g>
	</g>
	<g id="Shape_75">
		<g>
			<path fill-rule="evenodd" clip-rule="evenodd" fill="#961A33" d="M242.9,249.5l-1.6,0.9c1,0.8,2.9,1.8,3,1.4
				C244.4,251.3,242.9,249.5,242.9,249.5z"/>
		</g>
	</g>
	<g id="Shape_76">
		<g>
			<path fill-rule="evenodd" clip-rule="evenodd" fill="#961A33" d="M259.8,248.5c-1-0.8-5.4-3.4-5.4-3.4l-1.9,0.7
				c-0.2,0.4,0.6,1,4.4,2.5C260.7,249.8,260.9,249.3,259.8,248.5z"/>
		</g>
	</g>
	<g id="Shape_77">
		<g>
			<path fill-rule="evenodd" clip-rule="evenodd" fill="#961A33" d="M275.8,245c-0.4-0.2-9.6-4.3-9.6-4.3l-2.4,1.3
				c0,0-1.7,0.6,8.5,3.1C284.8,248.2,276.2,245.2,275.8,245z"/>
		</g>
	</g>
	<g id="Shape_78">
		<g>
			<path fill-rule="evenodd" clip-rule="evenodd" fill="#961A33" d="M289.4,239.6c-3.3-1-13.2-4.5-13.2-4.5l-2.2,1.4
				c-0.3,0.2,0,0.6,14,4C304.4,244.3,292.8,240.6,289.4,239.6z"/>
		</g>
	</g>
	<g id="Shape_79">
		<g>
			<path fill-rule="evenodd" clip-rule="evenodd" fill="#961A33" d="M308.9,234.1c-2-0.6-21.4-4-21.4-4l-2.8,0.9
				c-0.8,0.7,4.7,1.6,24.7,4.6C329.3,238.7,310.8,234.6,308.9,234.1z"/>
		</g>
	</g>
</g>
<g id="grey_overylay_1_">
	<g id="Shape_49">
		<g>
			<path fill-rule="evenodd" clip-rule="evenodd" fill="#CECECE" d="M174.8,89.5c-5.4-3-15-5.1-29.6,13.1
				c-1.3,1.6-7.8,11.6-7.8,21.7c0,10.3,3.2,14.2,5.5,15.9c2.3,1.7,12.6,6.6,22.3-2.8c9.7-9.4,15.6-21.4,16-29.3
				C181.7,100.3,180.2,92.5,174.8,89.5z"/>
		</g>
	</g>
	<g id="Shape_27">
		<g>
			<path fill-rule="evenodd" clip-rule="evenodd" fill="#B5B5B4" d="M300.2,137.6c-0.2,0.1-2.2,1-4.2,1.6c-2.4,0.7-4.9,1.1-4.9,1.1
				c0.6,1.1,0.5,1.9,0.1,2.9c-0.4,1-1.2,2.2-2,4.1c-0.6,1.3,0.3,1.7,1.3,1.5c1.8-0.4,3.2-1.6,4.7-3.3c1.5-1.6,2.9-3.8,4.8-6.2
				C301,138.2,300.8,137.3,300.2,137.6z"/>
		</g>
	</g>
	<g id="Shape_25">
		<g>
			<path fill-rule="evenodd" clip-rule="evenodd" fill="#B5B5B4" d="M315,160.1c-0.3,0-10.8-0.5-10.8-0.5s0,0.8,0,1.2
				s-0.8,1.4-1.5,2.2c-0.7,0.8-2.4,2.2-4,3.5c-1.7,1.2-0.7,1.6,0.2,1.6c1,0,4.4-0.7,8.2-2.1c3.8-1.3,6.5-3.8,7.2-4.3
				C314.9,161.3,315.3,160.2,315,160.1z"/>
		</g>
	</g>
	<g id="Shape_30">
		<g>
			<path fill-rule="evenodd" clip-rule="evenodd" fill="#B5B5B4" d="M32.3,152.1c-0.3-0.9-4.3-11-4.3-11c-1-2.2-1.4,8.4-1.5,9.8
				c-0.1,1.4-0.2,5,0.6,8.3c0.8,3.3,2.3,2.4,2.3,1.8c0-0.6,0.7-2.8,1.1-3.8c0.3-1,0.8-2.4,1.4-3.1C32.4,153.3,32.7,152.9,32.3,152.1
				z"/>
		</g>
	</g>
	<g id="Shape_32">
		<g>
			<path fill-rule="evenodd" clip-rule="evenodd" fill="#B5B5B4" d="M32.2,188.3c-0.7-0.7-0.4-3.3,0-4.2c0.4-1,0.2-2.1-0.1-2.4
				c-0.3-0.3-6.9-6.6-6.9-6.6c-0.5-0.6-0.6,2-0.1,4.3c0.4,2.3,3.5,7.6,5.4,9.7C32.2,191.3,32.8,189.1,32.2,188.3z"/>
		</g>
	</g>
	<g id="Shape_33">
		<g>
			<path fill-rule="evenodd" clip-rule="evenodd" fill="#B5B5B4" d="M41.9,189.8c-0.3-0.3-5.1-3.8-5.1-3.8c-0.3-0.3-0.3,0.8-0.2,1.6
				c0.1,0.9,1.6,4.1,3.8,6.4c2.1,2.3,1.4-1.4,1-2.6C41,190.1,42.3,190.1,41.9,189.8z"/>
		</g>
	</g>
	<g id="Shape_34">
		<g>
			<path fill-rule="evenodd" clip-rule="evenodd" fill="#B5B5B4" d="M44.6,207.3c-0.7-0.3-1.7-1.2-1.6-2.2c0.1-1-0.3-1-0.8-1.1
				c-0.4-0.1-6.6-1.4-6.6-1.4c-0.6,0,1.6,2.3,2.7,3.1c1,0.8,2.6,2,5,2.5C45.7,208.7,45.2,207.7,44.6,207.3z"/>
		</g>
	</g>
	<g id="Shape_35">
		<g>
			<path fill-rule="evenodd" clip-rule="evenodd" fill="#B5B5B4" d="M51.5,207.5c-0.4-0.3-1.1-0.8-0.8-1.6c0.3-0.8-0.4-0.7-0.9-0.7
				c-0.5,0-3.4-0.5-3.4-0.5c-0.9,0-0.2,0.9,1,1.9c1.1,0.9,2.6,1.9,3.8,2.3C52.7,209.5,52,207.9,51.5,207.5z"/>
		</g>
	</g>
	<g id="Shape_31">
		<g>
			<path fill-rule="evenodd" clip-rule="evenodd" fill="#B5B5B4" d="M40.2,165.8c-0.3-0.5-0.7-0.9-1.3-1.7c-0.6-0.8-2.7-4.3-2.7-4.3
				c-0.5-0.9-0.8,2.2-1,3.5c-0.2,1.3-0.3,5.7,0.3,8c1.1,4.1,2,2.2,2.2,0.4c0.1-1.3,0.2-2.3,1.1-3.5
				C39.5,166.9,40.5,166.3,40.2,165.8z"/>
		</g>
	</g>
	<g id="Shape_23">
		<g>
			<path fill-rule="evenodd" clip-rule="evenodd" fill="#B5B5B4" d="M290.8,178.2c-0.2-0.1-2.3-1.1-4.2-2.2c-2-1.2-3.7-2.7-3.7-2.7
				c-0.3,1.2-0.3,1.3-1,1.8c-0.6,0.4-1.9,0.4-5.3,2.9c-1.7,1.2-2.8,2-1.2,2.3c1,0.2,6.6,0.7,8.9,0.2
				C286.6,180,291.5,178.7,290.8,178.2z"/>
		</g>
	</g>
	<g id="Shape_24">
		<g>
			<path fill-rule="evenodd" clip-rule="evenodd" fill="#B5B5B4" d="M295.5,158.8c-0.7-0.2-6.1-1.1-6.1-1.1c0,0.5-0.4,2.3-1.3,3.4
				c-0.8,1-0.9,1.1-2.5,2.5c-1.7,1.4,0,1.4,1.1,1.3c1.2-0.1,2.6-1.1,5.3-2.2c2.7-1.1,3.6-2.7,4.1-3.3
				C296.8,158.5,296.2,159,295.5,158.8z"/>
		</g>
	</g>
	<g id="Shape_26">
		<g>
			<path fill-rule="evenodd" clip-rule="evenodd" fill="#B5B5B4" d="M323.2,126.6c-0.6,0.2-4.4,2.4-7.8,4.2c-3.3,1.8-6.4,3-6.4,3
				s0.2,0.5,0.2,1c0,0.4-0.7,1.7-0.9,2.2c-0.3,0.5-2.9,5.3-3.8,7.6c-0.6,1.6,0.1,1.9,1.6,1.3c1.5-0.6,3.6-2.1,5.7-4
				c2-1.8,6-5.8,8.5-9.3C322.8,129.1,324,126.3,323.2,126.6z"/>
		</g>
	</g>
	<g id="Shape_28">
		<g>
			<path fill-rule="evenodd" clip-rule="evenodd" fill="#B5B5B4" d="M44.8,113.7c0.2-4.5,1.1-9.4,1.1-9.4c0-1.5-4.6,5.4-6.7,9
				c-2.1,3.6-3.2,7.4-3.2,13.7c0,6.3,2.8,1.7,3.4,0.8c0.6-0.8,2.5-3,3.8-4.2c1.4-1.2,1.6-0.9,1.6-2.5
				C44.9,120.5,44.6,117.2,44.8,113.7z"/>
		</g>
	</g>
	<g id="Shape_84">
		<g>
			<path fill-rule="evenodd" clip-rule="evenodd" fill="#B5B5B4" d="M61,217.6c0.8,0.6-0.3-0.4-1.6-1.5c-1.4-1.2-1.5-2.3-3-2.5
				c-0.4,0.3-1.3,0.7-2.3,1.1c-1.5,0.7-3.3,1.4-4,1.7c0.2-0.1,1.5,0.9,3.5,1.8c1.6,0.7,3.5,1.4,5.5,1.5
				C64.5,219.8,63,219.1,61,217.6z"/>
		</g>
	</g>
	<g id="Shape_29" opacity="0.9882">
		<g>
			<path fill-rule="evenodd" clip-rule="evenodd" fill="#B5B5B4" d="M45.7,131.6c0-1-2.7,3-3.5,4.7c-0.8,1.7-1.1,3.3-1.4,7.1
				c-0.3,3.8,1,3.5,1.3,2.7c0.3-0.8,1.5-2.2,2.2-3c0.7-0.8,2.9-1.5,2.7-2.1C47.4,142.1,45.7,131.6,45.7,131.6z"/>
		</g>
	</g>
</g>
<g id="black_overylay_1_">
	<g id="Shape_50">
		<g>
			<path fill-rule="evenodd" clip-rule="evenodd" fill="#010101" d="M178.5,96c-1.6-3.9-4.7-7.3-10.8-6.9
				c-6.6,0.4-13.6,4.9-19.1,11.3c-5.6,6.6-8.9,15-9.7,22.4c-0.8,7.5,0.9,14,5.2,16.8c10.6,6.8,26.9-4.1,33.8-22.1
				c1.1-3,1.9-6.9,2.1-10.8C180.1,104.6,180.1,100,178.5,96z"/>
		</g>
	</g>
	<g id="Shape_15">
		<g>
			<path fill-rule="evenodd" clip-rule="evenodd" fill="#010101" d="M143.3,192.5c0,0-0.5-1.1-0.8-0.5c-0.3,0.6-0.5,1.3-0.1,1.4
				c0.4,0.2,0.6,0.1,0.8,0C143.3,193.3,143.3,192.5,143.3,192.5z"/>
		</g>
	</g>
</g>
<g id="red_overlay_1_">
	<g id="Shape_51">
		<g>
			<path fill-rule="evenodd" clip-rule="evenodd" fill="#961A33" d="M167.1,117.3c-1.3,0.3-2.7,0.9-4.4,0.7c-1.8-0.2-4.7-1.2-6-3.9
				c-2.1-4.2-2.1-10.6-2.1-10.6c-0.7-1.7-3.6,3.3-4.7,5.9c-2.8,6.4-4.2,11.9-4.1,16c0.1,3.9,1.6,6.4,3,7.4c3.4,2.3,6.4,2,9.3-0.3
				C164.4,127.8,168.4,117,167.1,117.3z"/>
		</g>
	</g>
</g>
<g id="text_native_copy">
	<g>
		<path fill="#B5B5B4" d="M213.5,68c2.6-0.2,4.5-0.3,5.9-0.5c0.1,0.3,0.1,0.4,0.2,0.6c-2.8,0.3-4.8,0.5-6.1,0.5
			C213.5,68.3,213.5,68.1,213.5,68z M213.5,69.1c2-0.1,4.1-0.3,6.3-0.5c0.3,0.3,0.5,0.5,0.5,0.5c-2.3,0.4-4.6,0.6-6.7,0.7
			C213.5,69.4,213.5,69.2,213.5,69.1z M213.7,66.9c2.5-0.1,4.4-0.3,5.6-0.4c-0.1,0.4-0.1,0.6-0.1,0.7c-1.9,0.2-3.8,0.3-5.7,0.4
			C213.6,67.4,213.7,67.2,213.7,66.9z M213.7,70.2c2.6-0.2,4.9-0.4,7.1-0.8c0.4,0.2,0.8,0.3,1,0.4l-1.6,0.3c-1.9,0.3-4,0.5-6.2,0.7
			C213.8,70.5,213.7,70.3,213.7,70.2z M214.1,65.8c1.3,0,3.1-0.2,5.5-0.4c-0.1,0.3-0.2,0.6-0.2,0.7c-1.5,0.2-3.4,0.3-5.5,0.4
			C214,66.2,214.1,66,214.1,65.8z M214.7,64.7c1.8-0.1,3.6-0.2,5.4-0.4c-0.1,0.1-0.1,0.2-0.2,0.4c-0.1,0.2-0.1,0.3-0.2,0.4
			c-1.9,0.2-3.7,0.4-5.4,0.4C214.4,65.2,214.6,65,214.7,64.7z M239.7,67.1c-2.3,0.3-5.8,0.9-10.3,2c-4.9,1.1-8.4,1.9-10.4,2.2
			c-1.4,0.2-2.9,0.4-4.2,0.4l-0.4-0.5c1.5-0.1,3.2-0.3,5-0.5c0.7-0.1,1.7-0.2,3.1-0.4c1.3-0.2,2.3-0.3,3-0.4
			c0.8-0.1,1.9-0.4,3.2-0.8c1.1-0.4,2.2-0.7,3.3-1c1.1-0.3,3.4-0.8,6.8-1.3l2.2-0.3L239.7,67.1z M215.3,63.6
			c1.4-0.1,3.3-0.2,5.4-0.4l-0.5,0.8c-2.6,0.3-4.4,0.4-5.4,0.4L215.3,63.6z M236.9,68.6c-1.9,0.3-5,0.9-9.1,1.9
			c-4.1,1-7.1,1.6-9.1,1.9c-0.9,0.1-1.9,0.3-2.8,0.3l-0.6-0.5c1.1-0.1,2.2-0.2,3.5-0.4c1.9-0.3,4.9-0.9,9.1-1.9c4.1-1,7.1-1.6,9-1.8
			l1.3-0.2C237.5,68.3,237.1,68.5,236.9,68.6z M216.2,62.5c2.4-0.2,4.2-0.3,5.5-0.5c-0.3,0.4-0.5,0.7-0.7,0.9
			c-2.2,0.2-4,0.4-5.5,0.5C215.8,63,216,62.7,216.2,62.5z M217.2,61.4c2.9-0.3,4.6-0.4,5-0.5l0.6-0.1c-0.4,0.5-0.7,0.8-0.9,1
			c-1.5,0.2-3.4,0.4-5.6,0.5C216.7,61.9,217,61.6,217.2,61.4z M227.4,71.5c-3.8,0.9-6.5,1.4-7.9,1.7c-1,0.2-1.8,0.1-2.4-0.1
			c0.7-0.1,1.3-0.1,2-0.3c1.7-0.3,4.3-0.8,7.9-1.7c3.6-0.9,6.2-1.4,7.9-1.7C234.2,69.9,231.7,70.6,227.4,71.5z M218.4,60.2
			c2.5-0.2,4.5-0.4,5.8-0.6c-0.5,0.5-0.9,0.8-1.2,1c-2.3,0.4-4.2,0.6-5.7,0.6C217.8,60.8,218.2,60.4,218.4,60.2z M219.8,59
			c2-0.2,3.7-0.4,4.9-0.6l1.3-0.2c-0.4,0.2-0.9,0.6-1.6,1.2c-2,0.3-4,0.5-5.9,0.7C219.1,59.6,219.5,59.3,219.8,59z M221.4,57.8
			c1.9-0.2,3.3-0.4,4.1-0.5l0.9-0.1c0.5-0.1,1.1-0.2,1.9-0.3c-0.8,0.5-1.5,0.9-2.2,1.3l-1.3,0.2c-0.8,0.1-2.5,0.4-5,0.6
			C220.7,58.3,221.3,57.9,221.4,57.8z M222.6,73.4c-0.5,0.1-1,0.1-1.5,0.1c3.7-0.8,6.5-1.4,8.5-1.9
			C226.7,72.5,224.4,73.1,222.6,73.4z M232.3,55.2c-2.9,1.1-4.9,1.8-6.2,2c-1.2,0.2-2.7,0.4-4.6,0.6c2.9-1.9,6.3-3.6,10.1-5.2
			c3.8-1.5,7-2.5,9.7-2.9c2.3-0.4,4.3-0.2,5.9,0.3c1.7,0.6,2.8,1.5,3.3,2.8c-2.1,0.1-4.1,0.3-6,0.6l-1.1,0.2
			c-1.2-0.6-2.8-0.7-4.8-0.4C237.3,53.4,235.2,54.1,232.3,55.2z M241.9,65.9c-1,0.1-1.9,0.2-2.9,0.4c-1.1,0.2-2.8,0.5-5,0.9
			c0.7-0.4,1.3-0.6,1.7-0.8c0.1-0.1,0.9-0.2,2.5-0.4l0.9-0.1c1-0.2,2.3-0.3,3.8-0.5C242.5,65.5,242.2,65.7,241.9,65.9z M243.7,64.6
			c-1.9,0.2-3.3,0.4-4.1,0.5l-0.9,0.1c-0.5,0.1-1.1,0.2-1.9,0.3c0.6-0.4,1.1-0.6,1.3-0.8c0.6-0.1,1.1-0.2,1.7-0.3
			c0.6-0.1,2.2-0.3,4.9-0.6C244.2,64.3,243.9,64.5,243.7,64.6z M245.2,63.5c-3.4,0.4-5.1,0.6-5.4,0.6l-0.9,0.1
			c0.6-0.4,0.9-0.7,1-0.7c1.7-0.3,3.8-0.5,6.1-0.7C245.7,63.1,245.4,63.3,245.2,63.5z M246.5,62.3c-2,0.2-4,0.4-6,0.7
			c0.4-0.3,0.7-0.6,0.8-0.8c2.7-0.4,4.6-0.6,5.9-0.7C247.1,61.8,246.8,62.1,246.5,62.3z M247.6,61.2c-2.5,0.2-4.5,0.4-5.8,0.6
			c0.1-0.1,0.4-0.4,0.7-0.8c0.6-0.1,2.5-0.3,5.7-0.6C248,60.7,247.8,61,247.6,61.2z M248.5,60.2c-1.6,0.1-3.5,0.3-5.7,0.5
			c0.2-0.3,0.4-0.5,0.6-0.8c3.7-0.3,5.6-0.5,5.7-0.5C248.9,59.6,248.7,59.9,248.5,60.2z M250.8,53.9c-2.1,0.1-4.2,0.3-6.3,0.6
			c-0.4-0.3-0.7-0.6-0.9-0.8c2.8-0.4,5.1-0.7,7-0.8C250.7,53.3,250.8,53.6,250.8,53.9z M249.3,59.1c-2,0.1-3.9,0.3-5.6,0.5
			c0.3-0.5,0.4-0.7,0.5-0.8c2.5-0.3,4.4-0.5,5.6-0.5c0,0.1-0.1,0.2-0.1,0.3L249.3,59.1z M249.9,58c-1.3,0.1-3.2,0.2-5.7,0.5
			c0.2-0.3,0.3-0.6,0.4-0.9c2.5-0.3,4.4-0.5,5.7-0.5C250.1,57.5,250,57.8,249.9,58z M250.8,54.9c-1.9,0.1-3.9,0.3-6,0.6
			c0-0.5-0.2-0.8-0.3-0.9c2.2-0.3,4.3-0.5,6.3-0.6C250.8,54.2,250.9,54.5,250.8,54.9z M250.4,57c-1.3,0.1-3.2,0.2-5.7,0.5
			c0.1-0.3,0.2-0.6,0.2-0.9c2.6-0.3,4.5-0.5,5.7-0.5L250.4,57z M250.7,55.9c-2.8,0.2-4.7,0.4-5.7,0.5c0-0.4,0-0.7,0-0.9
			c1.7-0.3,3.7-0.4,6-0.6C250.8,55.4,250.7,55.7,250.7,55.9z"/>
		<path fill="#B5B5B4" d="M251.1,67.7c1.3-0.1,3.2-0.4,5.8-0.8c-0.2,0.3-0.4,0.4-0.5,0.5c-1.4,0.2-3.2,0.4-5.5,0.7
			C251.1,67.9,251.1,67.8,251.1,67.7z M251.3,66.6c1.8-0.2,4.1-0.5,6.8-0.9c-0.2,0.2-0.4,0.4-0.5,0.5c-2.7,0.4-4.8,0.7-6.3,0.8
			C251.3,66.9,251.3,66.7,251.3,66.6z M251.5,65.5c1.7-0.1,3.4-0.3,5.2-0.6l1.3-0.2l1.3-0.2c-0.3,0.3-0.5,0.5-0.6,0.6l-1.2,0.2
			l-1.3,0.2c-1.7,0.3-3.3,0.4-4.8,0.6C251.5,65.8,251.5,65.6,251.5,65.5z M251.7,64.4c2.2-0.2,4.3-0.5,6.2-0.8
			c0.8-0.1,1.7-0.3,2.6-0.4c-0.3,0.3-0.5,0.5-0.6,0.7l-2,0.3c-2.6,0.4-4.7,0.7-6.2,0.8L251.7,64.4z M256.3,63.2l0.4-0.4
			c2.3-0.4,4-0.6,5.1-0.8l-0.7,0.7c-1.1,0.2-2.1,0.4-3.2,0.6c-1.9,0.3-4,0.5-6.1,0.7c0-0.1,0-0.3,0.1-0.6c1.9-0.2,3.4-0.3,4.4-0.5
			L256.3,63.2z M252.3,62.2c2.6-0.3,3.9-0.4,3.9-0.4l0.6-0.1c-0.1,0.3-0.2,0.5-0.2,0.6c-1.5,0.2-3,0.3-4.4,0.4
			C252.2,62.6,252.3,62.3,252.3,62.2z M252.6,61.1c1.4-0.1,2.9-0.2,4.5-0.5c-0.1,0.3-0.2,0.5-0.2,0.6c-0.8,0.1-2.3,0.3-4.5,0.5
			C252.4,61.5,252.5,61.3,252.6,61.1z M252.9,60c1,0,2.5-0.2,4.6-0.5c0,0.2-0.1,0.4-0.2,0.7c-2.3,0.3-3.9,0.5-4.6,0.5
			C252.8,60.4,252.9,60.2,252.9,60z M253.3,58.9c2-0.2,3.6-0.4,4.6-0.5c-0.1,0.3-0.2,0.6-0.2,0.8c-0.4,0.1-2,0.2-4.6,0.5
			C253.1,59.3,253.2,59.1,253.3,58.9z M253.6,57.8c1.5-0.1,3.1-0.3,4.7-0.5c-0.1,0.4-0.2,0.6-0.3,0.8c-2.1,0.2-3.6,0.4-4.7,0.5
			C253.4,58.4,253.5,58.1,253.6,57.8z M254,56.7c2.1-0.2,3.7-0.4,4.8-0.5c-0.1,0.4-0.2,0.6-0.3,0.8c-1.3,0.2-2.9,0.4-4.7,0.5
			C253.8,57.2,253.9,56.9,254,56.7z M254.4,55.6c2.1-0.2,3.7-0.4,4.8-0.5c-0.2,0.4-0.3,0.7-0.4,1c-2.1,0.2-3.7,0.4-4.8,0.5
			C254.2,56,254.4,55.7,254.4,55.6z M254.9,54.5c2.2-0.2,3.8-0.4,4.9-0.5c-0.1,0.2-0.2,0.6-0.4,1c-2.1,0.2-3.7,0.4-4.8,0.5
			C254.6,55,254.8,54.7,254.9,54.5z M255.3,53.4c1.6-0.2,3.3-0.3,4.9-0.6c-0.2,0.4-0.4,0.8-0.5,1c-2.2,0.2-3.8,0.4-4.9,0.5
			C255.2,53.7,255.3,53.3,255.3,53.4z M255.8,52.3c2.2-0.3,3.8-0.4,4.9-0.6c-0.4,0.9-0.6,1.2-0.5,1c-0.8,0.1-2.5,0.3-4.9,0.6
			C255.5,52.9,255.6,52.5,255.8,52.3z M263.1,47.4c-1.3,2.4-2.1,3.8-2.3,4.3c-0.8,0.1-2.5,0.3-4.9,0.6c0.4-1,1.2-2.4,2.2-4.2
			C259.7,47.9,261.4,47.7,263.1,47.4z M258,61.6c0.4-0.1,0.6-0.1,0.8-0.1l0.9-0.1c1.8-0.3,2.9-0.5,3.4-0.6l-0.7,0.7
			c-0.7,0.1-1.3,0.3-1.9,0.4c-2.3,0.4-3.4,0.5-3.2,0.5C257.5,62,257.8,61.7,258,61.6z M259.2,60.4c0.5-0.1,0.9-0.2,1.2-0.2l1-0.2
			c1.3-0.2,2.2-0.4,2.9-0.5c-0.3,0.4-0.6,0.6-0.8,0.8c-0.8,0.2-1.5,0.3-2.1,0.4l-1.2,0.2c-0.4,0.1-1,0.1-1.8,0.2L259.2,60.4z
			 M260.4,59.1c2.6-0.5,4.3-0.8,5.2-1l-0.1,0c0,0.1-0.3,0.4-0.7,0.8c-1.7,0.4-3.5,0.7-5.2,0.9L260.4,59.1z M261.8,57.8
			c1.2-0.2,2.9-0.5,5.1-0.9c-0.4,0.4-0.7,0.7-1,0.9c-2.2,0.4-3.9,0.8-5.1,0.9C261.3,58.3,261.6,58,261.8,57.8z M263.1,56.6
			c1.6-0.3,3.3-0.6,5.1-1c-0.4,0.4-0.7,0.7-0.9,0.9c-2.2,0.4-3.9,0.8-5.1,0.9C262.6,57.1,262.9,56.8,263.1,56.6z M264.5,55.3
			c2.2-0.4,3.9-0.8,5-1c-0.3,0.2-0.6,0.6-1,1c-1.8,0.4-3.4,0.7-5.1,1C263.9,55.9,264.2,55.6,264.5,55.3z M265.9,54
			c3.3-0.7,4.9-1,5-1c-0.5,0.5-0.9,0.8-1.1,1.1c-2.2,0.5-3.9,0.8-5,1C265.2,54.6,265.6,54.2,265.9,54z M267.2,52.7
			c1.6-0.3,3.3-0.7,4.9-1c-0.3,0.3-0.7,0.6-1.2,1.1c-2.2,0.5-3.9,0.8-4.9,1C266.8,53.2,267.2,52.8,267.2,52.7z M268.6,51.4
			c2.4-0.5,4.1-0.8,4.8-1c-0.3,0.3-0.7,0.7-1.2,1.1c-2.2,0.5-3.8,0.8-4.8,1C268,52.1,268.4,51.7,268.6,51.4z M269.9,50.2
			c3.8-0.8,6.6-1.4,8.6-1.8c-0.1,0.4-0.1,0.8-0.1,1c-4.3,0.9-7.6,1.6-9.7,2.1C269.2,50.8,269.6,50.4,269.9,50.2z M278.9,44.2
			c-0.1,1-0.2,2.3-0.4,4c-3.7,0.8-6.6,1.4-8.5,1.8c2.1-1.9,3.9-3.6,5.3-5.1L278.9,44.2z M271.6,63.9c2.7-0.5,4.7-0.8,6.1-1
			c-0.3,0.2-0.4,0.4-0.5,0.5c-0.6,0.1-1.5,0.3-2.8,0.5c-1.3,0.2-2.2,0.4-2.8,0.5L271.6,63.9z M271.8,62.9c2.5-0.5,4.2-0.8,5.1-0.9
			c0.7-0.1,1.3-0.2,2-0.3l-0.6,0.5c-1.4,0.2-3.6,0.6-6.6,1.1C271.7,63.1,271.8,63,271.8,62.9z M272.1,61.8c1.8-0.3,3.4-0.6,4.7-0.8
			l1.3-0.2c0.5-0.1,1.2-0.2,2-0.3l-0.6,0.5c-2.5,0.4-5,0.8-7.6,1.3C272,62,272,61.9,272.1,61.8z M272.2,60.7c3.6-0.7,5.6-1,6.1-1.1
			c1-0.2,2-0.3,2.9-0.4c-0.2,0.2-0.4,0.4-0.7,0.6c-2.1,0.3-4.9,0.7-8.5,1.4C272.2,61,272.2,60.9,272.2,60.7z M272.5,59.7
			c2.1-0.4,3.6-0.7,4.6-0.8l-0.1,0.6c-0.4,0.1-1.9,0.3-4.6,0.8C272.4,60,272.4,59.8,272.5,59.7z M272.6,58.6
			c1.4-0.3,2.4-0.5,3.1-0.6l0.7-0.1c0.2,0,0.5-0.1,0.8-0.1c-0.1,0.3-0.1,0.5-0.1,0.6c-2.1,0.4-3.6,0.7-4.7,0.8L272.6,58.6z
			 M272.7,57.6c1.4-0.3,3-0.6,4.8-0.9l-0.1,0.7c-0.7,0.1-2.3,0.4-4.7,0.9C272.6,58.1,272.7,57.9,272.7,57.6z M272.7,57.2
			c0-0.3,0.1-0.5,0.1-0.7c2-0.4,3.7-0.7,4.8-0.9l-0.1,0.7c-0.5,0.1-1.3,0.2-2.4,0.4C274.1,57,273.3,57.1,272.7,57.2L272.7,57.2z
			 M273,55.5c2.1-0.4,3.8-0.8,4.8-1c-0.1,0.4-0.1,0.6-0.1,0.8c-1.2,0.2-2.8,0.5-4.8,0.9C272.9,55.9,272.9,55.7,273,55.5z
			 M273.1,54.5c2.4-0.5,4.1-0.8,4.9-1c0,0.3,0,0.6-0.1,0.8c-1.7,0.3-3.3,0.6-4.9,0.9C273,54.9,273,54.7,273.1,54.5z M273.2,53.5
			c2.2-0.5,3.8-0.8,4.9-1c0,0.4-0.1,0.6-0.1,0.8c-1.6,0.3-3.2,0.6-4.9,0.9C273.1,54,273.1,53.7,273.2,53.5z M273.3,52.4
			c1.7-0.4,3.3-0.7,4.9-1c0,0.4,0,0.6-0.1,0.8c-2.2,0.4-3.8,0.8-4.9,1C273.3,52.9,273.3,52.6,273.3,52.4z M273.4,51.4
			c2.2-0.5,3.8-0.8,4.9-1c0,0.4,0,0.7-0.1,0.9c-2.2,0.4-3.8,0.8-4.9,1C273.3,52.1,273.3,51.8,273.4,51.4z M273.5,50.4
			c2.2-0.5,3.8-0.8,4.9-1c0,0.4-0.1,0.7-0.1,0.9c-1.6,0.3-3.3,0.6-4.9,1C273.4,51.1,273.4,50.8,273.5,50.4z M277.6,58.8
			c0.5-0.1,1-0.2,1.4-0.2c0.4-0.1,1-0.1,1.7-0.2c0.8-0.1,1.3-0.2,1.7-0.2c-0.3,0.2-0.5,0.5-0.7,0.7c-0.8,0.1-2.4,0.3-4.8,0.7
			C277.2,59.3,277.4,59,277.6,58.8z M278.8,57.5l0.6-0.1l0.8-0.1c-0.4,0.1,0.8-0.1,3.4-0.4c-0.3,0.3-0.5,0.5-0.6,0.7
			c-2,0.3-3,0.4-3.2,0.4l-0.9,0.1c-0.2,0-0.4,0.1-0.8,0.1C278.4,57.9,278.6,57.7,278.8,57.5z M279.8,56.3c2.2-0.3,3.8-0.5,4.9-0.6
			c-0.2,0.2-0.5,0.4-0.7,0.7c-1.6,0.2-3.2,0.4-4.9,0.7C279.4,56.8,279.7,56.5,279.8,56.3z M280.9,55.2c2.2-0.3,3.9-0.5,5-0.7
			c-0.3,0.4-0.6,0.6-0.7,0.8c-0.3,0.1-1.2,0.1-2.5,0.3c-1,0.1-1.8,0.2-2.5,0.3L280.9,55.2z M281.9,53.9c2.1-0.3,3.8-0.5,5-0.6
			c-0.3,0.4-0.6,0.6-0.7,0.8c-2.2,0.3-3.9,0.5-5,0.6C281.4,54.5,281.7,54.2,281.9,53.9z M282.9,52.8c2.2-0.2,3.9-0.4,5-0.5l-0.8,0.8
			l-0.9,0.1c-1.3,0.1-2.7,0.3-4.1,0.5C282.4,53.3,282.7,53,282.9,52.8z M283.9,51.6c0.9-0.1,2.6-0.3,5.1-0.5
			c-0.3,0.3-0.5,0.6-0.7,0.9c-1.2,0.1-2.9,0.3-5,0.6C283.7,51.8,283.9,51.5,283.9,51.6z M284.9,50.4c2.3-0.2,4-0.4,5.1-0.5
			c-0.1,0.1-0.2,0.3-0.4,0.5c-0.2,0.2-0.3,0.4-0.4,0.5c-1.6,0.1-3.3,0.3-5,0.5C284.5,50.9,284.8,50.6,284.9,50.4z M285.9,49.2
			c2.5-0.3,4.2-0.4,5-0.4c-0.4,0.4-0.6,0.8-0.8,1c-1.8,0.2-3.5,0.3-5.1,0.5C285.4,49.8,285.7,49.5,285.9,49.2z M286.8,48
			c2.3-0.2,3.9-0.3,5-0.4c-0.4,0.4-0.6,0.8-0.8,1c-1.9,0.1-3.6,0.3-5,0.4C286.4,48.6,286.6,48.3,286.8,48z M287.6,46.9
			c2-0.2,3.7-0.3,5-0.4c-0.4,0.5-0.7,0.8-0.8,1c-1.3,0-3,0.2-5,0.4C287.2,47.5,287.5,47.2,287.6,46.9z M292.8,46.5
			c-1.4,0.1-3.1,0.2-5,0.4c1.2-1.5,2.2-2.9,3.1-4.4c2-0.2,3.6-0.2,4.9-0.2C294.7,43.9,293.7,45.3,292.8,46.5z"/>
		<path fill="#B5B5B4" d="M288.1,61.4c1.1,0.3,2.5,0.3,4.3,0c1.2-0.2,3.1-0.6,5.7-1.3c2.6-0.7,4.5-1.2,5.8-1.4
			c0.7-0.1,1.4-0.2,2-0.2l-0.4,0.5c-0.6,0-1.3,0.1-2,0.2c-1.3,0.2-3.2,0.7-6,1.4s-4.7,1.2-6,1.4c-1.4,0.2-2.7,0.2-3.8-0.1
			C288,61.7,288.1,61.6,288.1,61.4z M288.7,60.4c1.1,0.3,2.3,0.3,3.7,0.1c1.3-0.2,3.2-0.7,6-1.4c2.7-0.7,4.7-1.2,6-1.4
			c0.8-0.1,1.7-0.2,2.4-0.2l-0.3,0.5c-0.7,0-1.4,0.1-2.2,0.2c-1.2,0.2-3.1,0.6-5.8,1.4c-2.7,0.7-4.6,1.2-5.8,1.4
			c-1.7,0.3-3.1,0.3-4.2,0L288.7,60.4z M289.3,59.2c1.1,0.2,2.3,0.3,3.7,0c1.3-0.2,3.2-0.7,5.9-1.4c2.7-0.7,4.6-1.2,5.9-1.4
			c0.9-0.1,1.8-0.2,2.7-0.2l-0.3,0.5c-0.8,0-1.7,0-2.6,0.2c-1.2,0.2-3.2,0.7-5.9,1.4c-2.7,0.7-4.6,1.2-5.9,1.4
			c-1.5,0.2-2.8,0.2-3.9,0L289.3,59.2z M289.9,58.1c1.2,0.2,2.7,0.2,4.4-0.1c0.3,0,0.6-0.1,0.9-0.2c-0.2,0.3-0.3,0.5-0.3,0.6
			c-0.3,0.1-0.6,0.1-0.8,0.2c-1.6,0.2-3.1,0.3-4.4,0.1C289.7,58.4,289.8,58.2,289.9,58.1z M290.5,57c1.3,0.2,2.7,0.2,4.3-0.1
			c0.4-0.1,0.7-0.1,1.1-0.2c-0.2,0.3-0.3,0.5-0.4,0.6c-0.3,0.1-0.6,0.1-0.9,0.2c-1.6,0.3-3.1,0.3-4.5,0.1
			C290.3,57.3,290.4,57.1,290.5,57z M290.9,56.2l0.2-0.3c1.5,0.1,2.9,0.1,4.3-0.1c0.4-0.1,0.7-0.1,1.1-0.2c-0.2,0.3-0.3,0.5-0.4,0.6
			c-0.3,0.1-0.6,0.1-0.9,0.2c-1.6,0.2-3.1,0.3-4.5,0.1C290.8,56.4,290.9,56.3,290.9,56.2z M291.7,54.8c1.3,0.2,2.8,0.1,4.5-0.1
			c0.3,0,0.7-0.1,1-0.2c-0.2,0.3-0.3,0.6-0.4,0.7c-0.3,0.1-0.7,0.1-1,0.2c-1.6,0.3-3.1,0.3-4.5,0.1
			C291.6,55.1,291.7,54.9,291.7,54.8z M292.4,53.7c1.5,0.1,3,0,4.4-0.2c0.4-0.1,0.8-0.1,1.2-0.2c-0.1,0.1-0.3,0.4-0.5,0.8l-0.7,0.1
			c-1.9,0.3-3.5,0.4-4.8,0.2L292.4,53.7z M293.1,52.6c1,0.2,2.1,0.2,3.4,0c1.2-0.2,3.1-0.6,5.7-1.3c2.6-0.7,4.4-1.1,5.6-1.3
			c0.9-0.1,1.8-0.2,2.6-0.2l-0.5,0.8c-0.8,0-1.6,0.1-2.5,0.2c-1.2,0.2-3.1,0.6-5.7,1.3c-2.6,0.7-4.4,1.1-5.6,1.3
			c-1.3,0.2-2.5,0.2-3.5,0.1L293.1,52.6z M293.8,51.5c1,0.1,2.1,0.1,3.3-0.1c1.2-0.2,3.1-0.6,5.7-1.3c2.6-0.7,4.5-1.1,5.6-1.3
			c0.9-0.1,1.8-0.2,2.7-0.2l-0.5,0.8c-0.8,0-1.7,0.1-2.6,0.2c-1.2,0.2-3.1,0.6-5.6,1.3c-2.6,0.7-4.4,1.1-5.7,1.3
			c-1.3,0.2-2.4,0.2-3.4,0L293.8,51.5z M294.4,50.3c1,0.1,2.1,0.1,3.4-0.1c1.2-0.2,3-0.6,5.6-1.3c2.6-0.7,4.4-1.1,5.6-1.3
			c0.9-0.1,1.9-0.2,2.7-0.2l-0.5,0.8c-0.8,0-1.7,0.1-2.7,0.2c-1.2,0.2-3.1,0.6-5.6,1.3c-2.6,0.7-4.5,1.1-5.7,1.3
			c-1.2,0.2-2.3,0.2-3.3,0.1L294.4,50.3z M295.2,49.2c1.1,0,2.4-0.1,3.9-0.3c0.6-0.1,1.1-0.2,1.7-0.3l-0.6,1l-0.8,0.1l-0.8,0.1
			c-1.6,0.3-3,0.3-4.1,0.3C295,49.4,295.2,49.1,295.2,49.2z M295.9,48.1c1.1,0,2.3,0,3.7-0.3c0.6-0.1,1.3-0.2,2-0.4
			c-0.5,0.8-0.7,1.2-0.6,1c-0.6,0.1-1.2,0.2-1.6,0.3l-0.8,0.1c-1.2,0.2-2.3,0.3-3.3,0.2C295.8,48.3,296,47.9,295.9,48.1z M296.6,47
			c1.4-0.1,2.7-0.2,3.9-0.4c0.6-0.1,1.2-0.2,1.8-0.3l-0.6,1c-0.6,0.1-1.1,0.2-1.6,0.3c-1.3,0.2-2.6,0.3-4,0.3
			C296.5,47.2,296.7,46.9,296.6,47z M296.8,46.7c0.2-0.3,0.3-0.5,0.4-0.6l0.1-0.2c1.1,0,2.3-0.2,3.5-0.4c0.7-0.1,1.4-0.2,2.2-0.4
			l-0.7,1.1c-0.7,0.1-1.3,0.3-2,0.4c-1.3,0.2-2.5,0.3-3.7,0.3L296.8,46.7z M303.4,44.6l-0.3,0.5c-0.8,0.2-1.5,0.3-2.2,0.4
			c-1.2,0.2-2.4,0.3-3.4,0.3c1.3-1.9,2.4-3.3,3-4.3c0.6,0,1.2-0.1,1.9-0.2c1.3-0.2,3.2-0.7,6-1.4c2.7-0.7,4.7-1.2,6-1.4
			c1.5-0.2,2.8-0.2,3.9,0.1c-0.8,1.7-1.4,2.8-1.6,3.3c-1.1-0.2-2.7-0.2-4.5,0.1c-1,0.2-3.7,0.8-8.1,2L303.4,44.6z"/>
		<path fill="#B5B5B4" d="M311.3,57.8c1.9,0.1,3.6,0.1,5-0.1c0,0-0.1,0.1-0.1,0.2c0,0.1-0.1,0.2-0.1,0.2c-1.4,0.2-3,0.2-4.9,0.1
			C311.2,58.2,311.2,58,311.3,57.8z M311.8,56.7c1.6,0.1,3.3,0,5.1-0.2c0,0.1-0.1,0.1-0.1,0.2c0,0.1-0.1,0.2-0.1,0.3
			c-1.4,0.1-3,0.2-5,0.2C311.6,57,311.7,56.9,311.8,56.7z M312.3,55.7c2.1,0,3.8,0,5.2-0.2c0,0.1,0,0.1,0,0.2c0,0-0.1,0.1-0.2,0.2
			c0,0.1-0.1,0.1-0.1,0.2c-2.3,0.1-4,0.2-5.1,0.2C312.1,56,312.2,55.9,312.3,55.7z M312.9,54.5c1.5,0.1,3.2,0,5.2-0.2l-0.4,0.6
			c-1.8,0.2-3.5,0.3-5.1,0.2C312.7,54.8,312.9,54.6,312.9,54.5z M313.5,53.4c1.6,0.1,3.4,0,5.3-0.3c-0.2,0.3-0.3,0.5-0.4,0.6
			c-2,0.2-3.8,0.3-5.2,0.2C313.3,53.8,313.4,53.6,313.5,53.4z M314,52.3c1.6,0.1,3.4,0,5.3-0.3c-0.1,0.3-0.2,0.5-0.3,0.6
			c-1.8,0.2-3.6,0.3-5.3,0.3C313.8,52.7,313.9,52.5,314,52.3z M314.5,51.6l0.2-0.3c1.3,0.1,3-0.1,5.4-0.3c-0.2,0.2-0.3,0.5-0.4,0.7
			c-1.7,0.2-3.5,0.3-5.4,0.3C314.3,51.8,314.4,51.7,314.5,51.6z M315.3,50.1c2.1,0,3.9-0.1,5.4-0.3l-0.4,0.7
			c-1.3,0.2-3.1,0.3-5.4,0.3L315.3,50.1z M316,49c1.6,0,3.4-0.1,5.5-0.5l-0.5,0.8c-1,0.2-2.8,0.3-5.4,0.4L316,49z M316.7,47.9
			c2.1-0.1,3.9-0.2,5.5-0.5c-0.1,0.1-0.1,0.2-0.3,0.4c-0.1,0.2-0.2,0.3-0.2,0.4c-1.4,0.2-3.2,0.4-5.5,0.5L316.7,47.9z M317.3,46.8
			c1.2,0,3.1-0.2,5.5-0.5l-0.5,0.9c-1.6,0.2-3.4,0.4-5.5,0.5L317.3,46.8z M317.8,46.2c0-0.1,0.1-0.2,0.1-0.3
			c0.1-0.1,0.1-0.2,0.2-0.3c1.3,0,3.1-0.2,5.5-0.5l-0.6,1c-1.7,0.3-3.6,0.4-5.5,0.5C317.6,46.4,317.7,46.3,317.8,46.2z M318.8,44.5
			c1.6-0.1,3.4-0.3,5.5-0.6c-0.3,0.4-0.5,0.8-0.7,1l-0.7,0.1c-1.2,0.2-2.8,0.4-4.8,0.4C318.5,45.1,318.7,44.7,318.8,44.5z
			 M324.4,43.8l-0.8,0.1c-1.4,0.2-2.9,0.4-4.7,0.4l0.1-0.2c0,0,0.2-0.3,0.5-0.7c1.9-0.1,3.9-0.4,5.9-0.7c1.8-0.3,3.6-0.6,5.6-1.1
			l0.5,0.8c-3.2,0.7-5.4,1.2-6.8,1.4c-0.1-0.2-0.1-0.3-0.2-0.4C324.6,43.5,324.5,43.6,324.4,43.8z M320.3,42.3
			c1.6-0.1,3.3-0.3,5-0.6c1.7-0.3,3.5-0.6,5.3-1c0.2,0.4,0.4,0.7,0.5,0.8c-2,0.5-3.9,0.8-5.9,1.1c-1.9,0.3-3.8,0.5-5.6,0.6
			C319.8,43.1,320.1,42.7,320.3,42.3z M328.9,37.2c0.6,1.6,1.2,2.8,1.6,3.6c-1.6,0.4-3.2,0.6-4.7,0.9c-1.8,0.3-3.6,0.5-5.4,0.7
			c1-1.4,2-2.8,3.2-4.3C325.3,37.8,327.1,37.5,328.9,37.2z M324.9,43.9c1.6-0.2,3.8-0.7,6.8-1.4c0.1,0.2,0.2,0.4,0.3,0.5l0,0
			l0.1,0.2c-2.2,0.6-4.4,1-6.8,1.5C325.1,44.3,325,44,324.9,43.9z M325.3,44.8c2.6-0.4,4.9-0.9,6.9-1.5c0.2,0.3,0.3,0.6,0.5,0.7
			c-3.8,0.9-6.1,1.5-6.9,1.6C325.5,45.2,325.4,45,325.3,44.8z M325.8,45.8c3.1-0.7,5.4-1.2,6.9-1.6c0.3,0.4,0.4,0.6,0.4,0.7
			c-3.1,0.7-5.4,1.2-6.9,1.6C326.1,46.2,325.9,46,325.8,45.8z M326.4,46.7c3.1-0.7,5.4-1.2,7-1.6c0.2,0.3,0.4,0.5,0.5,0.6
			c-3.1,0.7-5.4,1.3-7,1.7L326.4,46.7z M327,47.6c3.1-0.7,5.4-1.3,7-1.6c0.2,0.3,0.3,0.5,0.3,0.7c-3,0.7-5.3,1.2-6.9,1.6
			C327.2,47.9,327.1,47.7,327,47.6z M327.6,48.5c2.7-0.7,4.9-1.2,6.8-1.6c0.1,0.3,0.2,0.5,0.3,0.6c-1.2,0.2-3.5,0.7-6.8,1.5
			C327.8,48.8,327.7,48.6,327.6,48.5z M328.2,49.3c3-0.7,5.2-1.2,6.8-1.5l0.3,0.6c-1.1,0.1-3.3,0.6-6.7,1.4
			C328.3,49.6,328.2,49.4,328.2,49.3z M335.5,49.2l0.3-0.5l1-0.2c1.3-0.2,2.8-0.4,4.7-0.5l-0.2,0.3l-0.2,0.3
			c-1.9,0.2-3.9,0.4-5.9,0.7c-2,0.3-4.1,0.7-6.2,1.2c-0.1-0.3-0.3-0.4-0.4-0.5c3-0.6,5.2-1.1,6.7-1.3L335.5,49.2z M329.3,51
			c1.9-0.5,3.7-0.8,5.5-1.1c1.9-0.3,3.9-0.5,5.9-0.7l-0.2,0.3l-0.2,0.3c-1.7,0.2-3.5,0.4-5.3,0.7c-1.8,0.3-3.6,0.6-5.5,1.1
			C329.4,51.3,329.3,51.1,329.3,51z M329.7,51.9c2-0.4,3.9-0.8,5.7-1.1c1.5-0.2,3.1-0.4,4.5-0.6l-0.1,0.1c0,0.1-0.1,0.2-0.3,0.4
			c-1.8,0.2-3.5,0.4-5,0.7c-1.5,0.2-3,0.5-4.5,0.9C329.9,52.1,329.8,52,329.7,51.9z M330.2,52.8c1.6-0.3,3.1-0.6,4.5-0.8
			c1.5-0.2,2.9-0.4,4.4-0.6c-0.1,0.1-0.2,0.3-0.4,0.5c-1.8,0.2-3.4,0.4-4.7,0.6c-1.2,0.2-2.4,0.4-3.6,0.7
			C330.3,53,330.2,52.9,330.2,52.8z M330.6,53.7c1.6-0.3,3-0.6,4.4-0.8c1.1-0.2,2.2-0.3,3.2-0.4c-0.1,0.1-0.2,0.3-0.4,0.5
			c-1.7,0.2-4.1,0.6-7.1,1.2C330.6,54.1,330.6,53.9,330.6,53.7z M330.9,54.6c1.1-0.2,2.2-0.4,3.2-0.6c1.1-0.2,2.1-0.3,3.2-0.5
			c-0.2,0.2-0.3,0.3-0.4,0.5c-0.5,0-1.1,0.1-1.7,0.2c-0.4,0.1-0.9,0.2-1.7,0.3c-0.8,0.2-1.4,0.3-1.8,0.3l-0.7,0.1
			C331,54.9,331,54.8,330.9,54.6z M336.4,47.9c0.1-0.1,0.2-0.2,0.2-0.3c1.9-0.3,3.8-0.5,5.7-0.6c-0.1,0.1-0.2,0.3-0.5,0.7
			c-2,0.1-3.6,0.3-4.8,0.5l-0.8,0.1L336.4,47.9z M337.4,46.4c1.9-0.3,3.8-0.5,5.6-0.6l-0.2,0.4c-0.1,0.1-0.2,0.2-0.2,0.3
			c-2.2,0.1-3.9,0.3-4.9,0.5l-0.8,0.1C337,47,337.1,46.8,337.4,46.4z M337.8,45.7c0.1-0.2,0.2-0.3,0.3-0.4c1.5-0.2,3.4-0.4,5.7-0.6
			l-0.3,0.4c-0.1,0.1-0.2,0.3-0.3,0.4c-2.4,0.2-4.1,0.3-5,0.5l-0.7,0.1C337.6,46,337.7,45.8,337.8,45.7z M338.8,44.1
			c1.8-0.3,3.7-0.5,5.6-0.5l-0.5,0.8c-1.4,0-3.2,0.2-5.7,0.6L338.8,44.1z M339.5,43c0.9-0.1,2.8-0.3,5.6-0.5l-0.5,0.8
			c-2,0.1-3.9,0.3-5.6,0.5L339.5,43z M340.2,41.8c1.7-0.2,3.5-0.4,5.6-0.5l-0.6,0.9c-2.2,0.1-4.1,0.3-5.6,0.5
			C340.1,42,340.3,41.7,340.2,41.8z M340.8,40.7c1.4-0.2,3.3-0.3,5.5-0.4c-0.1,0.1-0.1,0.2-0.2,0.4c-0.1,0.2-0.1,0.3-0.2,0.3
			c-0.1,0.1-0.1,0.2-0.2,0.2c-1.9,0-3.8,0.2-5.6,0.5C340.5,41.2,340.7,40.9,340.8,40.7z M341.5,39.5c1.5-0.2,3.4-0.3,5.5-0.4
			c-0.2,0.3-0.4,0.7-0.6,1c-2.5,0.1-4.4,0.3-5.5,0.4C341,40.5,341.2,40.1,341.5,39.5z M342.1,38.4c2.4-0.2,4.3-0.3,5.4-0.3l-0.5,1
			c-2.1,0.1-3.9,0.2-5.5,0.4C341.8,39,342,38.6,342.1,38.4z M347.6,38c-1.7,0-3.5,0.1-5.4,0.3c1-1.9,1.8-3.4,2.3-4.3
			c1.7-0.2,3.4-0.3,5.1-0.2C348.7,35.7,348,37.1,347.6,38z"/>
		<path fill="#B5B5B4" d="M349.3,50.5c0.5-0.1,0.8-0.2,1-0.2c0.2,0,0.4,0,0.8,0c0.4,0,0.7,0,0.9,0c0.2,0,0.4-0.1,0.7-0.1
			c-1.5,0.5-3,0.8-4.4,1c-1.8,0.3-3.4,0.4-4.9,0.2c0-0.3-0.1-0.4-0.2-0.6c1.5,0.2,3.2,0.1,5.2-0.2C348.5,50.7,348.8,50.6,349.3,50.5
			z M349.4,50c-0.3,0.1-0.7,0.1-1,0.2c-2,0.3-3.7,0.3-5.2,0.1c0.7-0.2,1.3-0.4,1.6-0.5c1.7,0,3.1-0.1,4-0.3
			C348.9,49.8,349.1,49.9,349.4,50z M360,49.5c-0.4,0-0.8,0.1-1.2,0.2c-1.3,0.2-3.2,0.7-6,1.4c-2.7,0.7-4.7,1.2-6,1.4
			c-2.1,0.3-3.2,0.2-3.2-0.4c1.1,0.1,2.2,0.1,3.5-0.1c1.3-0.2,3.4-0.7,6.2-1.4c2.8-0.8,4.9-1.2,6.2-1.4c0.5-0.1,1-0.1,1.5-0.2
			C360.6,49.1,360.3,49.3,360,49.5z M357.1,50.9c-1.3,0.3-2.3,0.5-2.9,0.6c-3.8,1.1-6.2,1.7-7.2,1.9c-1.1,0.2-1.9,0.1-2.4-0.2
			c0.7,0,1.4,0,2.2-0.2c1.2-0.2,3.1-0.6,5.6-1.4c2.6-0.7,4.4-1.2,5.6-1.3l0.4-0.1C357.9,50.6,357.4,50.8,357.1,50.9z M348.6,49.2
			c-0.8,0.1-1.6,0.2-2.4,0.2c0.8-0.3,1.4-0.5,1.8-0.7c0.1,0,0.1,0,0.1-0.1l0.1,0C348.4,48.9,348.5,49.1,348.6,49.2z M349.1,53.8
			c-0.6,0.1-1.1,0.1-1.6,0.2c3-0.7,5.2-1.3,6.8-1.8C351.7,53.1,350,53.6,349.1,53.8z M358.1,39c0.4,0.2,0.6,0.2,0.7,0.2
			c-1.8,0.5-3.5,0.9-5.1,1.2c-0.9,0.1-1.8,0.2-2.6,0.3c-0.1-0.3,0-0.7,0-1c1-0.1,2-0.2,3.1-0.3c0.4-0.1,0.9-0.2,1.7-0.3
			c0.7-0.2,1.3-0.3,1.7-0.3C357.5,38.8,357.7,38.8,358.1,39z M357.3,38.7c-1.1,0.3-2.2,0.5-3.3,0.6c-1.1,0.2-2.1,0.3-3,0.3
			c0.2-0.5,0.3-0.8,0.4-1c1.1,0,2.3-0.2,3.5-0.4c0.7-0.1,1.4-0.2,2.2-0.4C356.9,38.2,357,38.5,357.3,38.7z M361,39.5
			c-3.5,1-6.1,1.7-7.9,1.9c-0.5,0.1-1,0.2-1.6,0.2c-0.2-0.4-0.3-0.7-0.5-0.9c0.9-0.1,1.8-0.2,2.7-0.3c1.7-0.3,3.5-0.7,5.3-1.2
			C359.9,39.5,360.5,39.5,361,39.5z M357.2,37.6l-0.1,0.2c-0.7,0.2-1.5,0.3-2.2,0.4c-1.1,0.2-2.3,0.3-3.4,0.4c0,0,0-0.1,0.1-0.1
			c0-0.1,0.1-0.1,0.1-0.1c0-0.1,0.1-0.2,0.3-0.4c0.1-0.2,0.2-0.3,0.3-0.4c0.8,0,1.6-0.1,2.5-0.2c1-0.2,2.1-0.4,3.2-0.6
			C357.6,37.1,357.3,37.4,357.2,37.6z M363.1,40c-1,0.2-2.6,0.6-4.8,1.2c-2.2,0.6-3.8,1-4.8,1.2c-0.6,0.1-1.2-0.1-1.7-0.6
			c1.5-0.1,3.1-0.4,4.8-0.9c3-0.8,4.6-1.3,5-1.3C361.5,39.6,362.1,39.8,363.1,40z M358.1,36.6c-1.1,0.3-2.2,0.5-3.3,0.7
			c-0.9,0.1-1.7,0.2-2.5,0.2c1.5-1.6,3.8-3.1,6.8-4.6c2.9-1.4,5.2-2.3,7.2-2.6c2.6-0.4,4.5,0.4,5.8,2.3c-2.2,1-3.5,1.6-3.9,1.8
			c-0.5,0-1,0.1-1.5,0.2c-0.7-0.7-1.7-1-3.1-0.7C362.1,34,360.3,34.9,358.1,36.6z M362.1,48.2c-2.7,0.3-5.7,0.9-8.8,1.8
			c0.8-0.3,1.6-0.6,2.5-1.2c1.7-0.4,3.2-0.7,4.4-0.9c0.9-0.1,1.8-0.2,2.6-0.3L362.1,48.2z M364.8,40.9c-1.5,0.1-3.1,0.4-4.7,0.8
			c-0.2,0-1,0.3-2.6,0.8c-1.1,0.3-1.9,0.5-2.4,0.6c-0.2,0-0.7-0.1-1.5-0.4c1-0.2,2.6-0.6,4.8-1.2c2.1-0.6,3.7-0.9,4.7-1.1
			C363.5,40.3,364.1,40.4,364.8,40.9z M365.7,41.8c-0.9,0-1.9,0.1-2.9,0.3c-0.4,0.1-0.8,0.1-1.2,0.2c-0.4,0.1-1.2,0.3-2.3,0.6
			c-1,0.3-1.7,0.5-2.1,0.5c-0.3,0-0.8,0-1.5-0.3c3.1-0.9,5.6-1.5,7.3-1.8c0.7-0.1,1.4-0.2,2.1-0.2C365.5,41.4,365.7,41.6,365.7,41.8
			z M363.5,47.1c-1.1,0.1-2.3,0.2-3.4,0.3c-1,0.2-2,0.4-3,0.6c0.5-0.4,0.9-0.6,1.2-0.8c0.7-0.1,1.3-0.2,2-0.3
			c1.4-0.2,2.7-0.4,3.9-0.4C363.9,46.7,363.7,46.9,363.5,47.1z M366.1,42.8c-1.2,0-2.5,0.1-3.9,0.3c-1,0.2-2.1,0.4-3.2,0.7
			c-0.3-0.1-0.6-0.2-1.1-0.4c1.9-0.5,3.5-0.9,5-1.1c1.1-0.2,2.1-0.3,3.1-0.3C366,42.4,366.1,42.7,366.1,42.8z M364.6,46
			c-1.4,0.1-2.8,0.2-4.3,0.4c-0.5,0.1-1,0.2-1.5,0.3c0.3-0.3,0.5-0.5,0.7-0.7c0.4-0.1,0.9-0.2,1.3-0.2c1.3-0.2,2.7-0.3,4.2-0.4
			C364.9,45.6,364.7,45.8,364.6,46z M366,43.9c-1.2,0-2.6,0.1-4.2,0.4c-0.6,0.1-1.2,0.2-1.8,0.3c-0.1-0.2-0.2-0.4-0.4-0.5
			c0.8-0.2,1.5-0.3,2.2-0.4c1.6-0.2,3.1-0.4,4.4-0.4C366.1,43.5,366,43.7,366,43.9z M365.4,44.9c-1.6,0.1-3,0.2-4.2,0.4
			c-0.4,0.1-0.9,0.1-1.3,0.2c0.1-0.2,0.2-0.4,0.1-0.6c0.5-0.1,1-0.2,1.5-0.3c1.5-0.2,2.9-0.4,4.3-0.4c0,0.1-0.1,0.2-0.2,0.3
			L365.4,44.9z M366.9,34.8c-0.1-0.1-0.2-0.1-0.2-0.2c0.1,0,0.2,0,0.3,0l0.1,0c0.1,0,0.4-0.1,0.9-0.1c-0.5,0.2-0.8,0.4-1,0.5
			C366.9,34.9,366.9,34.8,366.9,34.8z"/>
	</g>
</g>
</svg>
